<svg xmlns="http://www.w3.org/2000/svg" width="32" height="32" viewBox="0 0 32 32" fill="none"><path d="m3.76 16 10.2866 10.2867c.1956.1973.2924.4329.2907.7066-.0027.2729-.1023.5076-.2987.704-.1964.1965-.4316.2947-.7053.2947-.2738 0-.5089-.0978-.7054-.2933l-10.188-10.184c-.215-.216-.3724-.456-.472-.72-.0995-.2658-.1493-.5311-.1493-.796s.0498-.5298.1493-.7947c.0996-.2649.257-.5049.472-.72L12.6266 4.2933c.1964-.1964.4329-.2933.7093-.2906.2756.0026.512.1022.7094.2986.1973.1965.2951.4316.2933.7054 0 .2729-.0978.508-.2933.7053L3.7599 16Z" fill="#002863"/></svg>
