<svg xmlns="http://www.w3.org/2000/svg" width="14" height="14" viewBox="0 0 14 14" fill="none"><g clip-path="url(#a)"><path fill-rule="evenodd" clip-rule="evenodd" d="M7 7.8248 10.3 11.1247a.5834.5834 0 0 0 .8249-.8248l-3.3-3.3 3.3-3.2998a.5837.5837 0 0 0-.0071-.8178.5836.5836 0 0 0-.8178-.007L7 6.1751l-3.3-3.3a.5833.5833 0 0 0-.8242.8249L6.1752 7l-3.3 3.2999a.5837.5837 0 0 0-.1346.6405.5836.5836 0 0 0 .7701.3151.5842.5842 0 0 0 .1894-.1308L7 7.8248Z" fill="#fff"/></g><defs><clipPath id="a"><path fill="#fff" d="M0 0h14v14H0z"/></clipPath></defs></svg>
