<svg width="72" height="30" viewBox="0 0 72 30" fill="none" xmlns="http://www.w3.org/2000/svg">
<g clip-path="url(#clip0_957_9245)">
<path d="M35.9223 0.0790352C36.3982 -0.0866274 36.918 0.0516694 37.3541 0.267765C37.6588 0.464882 37.9635 0.664097 38.3047 0.793062C38.3308 0.842341 38.3851 0.939852 38.4111 0.988083C38.3976 1.02059 38.3715 1.08769 38.3579 1.12019C38.6011 1.6759 38.7566 2.33435 38.5207 2.91826C38.36 3.11538 38.0803 3.14589 37.8539 3.22222C37.8529 3.50427 37.8977 3.78327 37.9217 4.06322C38.4059 4.14186 38.8158 3.80319 39.2948 3.83675C39.3595 3.56728 39.4106 3.29341 39.4964 3.0293C39.5955 3.2044 39.5996 3.40581 39.6008 3.60293C39.726 3.63858 39.8533 3.67108 39.9814 3.70243C39.9827 3.75077 39.9836 3.84723 39.9836 3.89546C42.0832 3.90804 44.1816 3.88592 46.2813 3.90699C46.2761 3.97913 46.2659 4.12393 46.2617 4.19638C46.316 4.19638 46.4266 4.19743 46.4817 4.19743C46.4796 3.81378 46.4817 3.42888 46.4806 3.04523C46.5338 3.04303 46.6382 3.03989 46.6904 3.03884C46.6916 3.34081 46.6926 3.64277 46.6957 3.94485C46.7415 4.00146 46.8333 4.1146 46.8795 4.17122C46.9139 4.13022 46.9827 4.0497 47.017 4.0087C47.1767 4.15874 47.0859 4.36424 47.0788 4.54857C47.6663 4.54217 48.2598 4.58202 48.8455 4.53379C48.8893 4.50128 48.977 4.43732 49.0208 4.40493C49.1012 4.43628 49.1825 4.46784 49.2629 4.50034C49.5269 4.49384 49.7919 4.493 50.057 4.49195C50.0516 4.6293 50.0474 4.76655 50.0422 4.90401C49.701 4.89866 49.3587 4.89143 49.0227 4.95004C48.8056 4.76246 48.5145 4.82202 48.2525 4.81489C47.8497 4.83376 47.4342 4.76246 47.0441 4.89132C46.8123 4.95633 46.5578 4.94071 46.3533 4.80849C46.3041 4.93117 46.3794 5.20587 46.1736 5.19528C45.3638 5.20587 44.5551 5.18805 43.7464 5.20063C43.6358 5.25935 43.5241 5.31492 43.4137 5.36933C43.2968 5.71953 42.9619 5.95324 42.6768 6.16714C42.6413 6.70501 42.8531 7.20724 42.9356 7.72929C42.7759 7.77532 42.6152 7.82271 42.4576 7.87514C42.2312 8.41197 42.37 9.14476 41.8461 9.51929C41.4444 9.75404 41.1785 10.2647 40.6367 10.184C40.9122 10.4147 40.5615 10.3424 40.5981 10.1578C39.6182 10.0708 38.7928 9.49307 37.9412 9.05281C37.9016 9.29386 37.8391 9.53092 37.7743 9.76684C38.0978 9.8287 38.3649 10.0678 38.4223 10.4012C38.5256 11.1279 38.319 11.8494 38.3221 12.578C38.3451 13.0057 38.1625 13.3978 37.935 13.7469C37.7357 13.9734 37.4216 13.7405 37.1826 13.7071C37.1282 13.813 37.0751 13.919 37.0229 14.0258C37.0908 14.3109 37.12 14.6076 37.215 14.8865C37.7482 15.4789 38.2334 16.1207 38.606 16.8285C38.9895 17.63 39.3312 18.451 39.6298 19.2881C39.6589 19.4508 39.8112 19.5092 39.945 19.5681C39.9628 19.7358 39.9805 19.9034 39.9972 20.0734C40.0494 20.1499 40.1026 20.2263 40.1569 20.3039C40.1892 21.3378 40.0629 22.3674 39.9031 23.3876C39.8042 23.8479 40.0721 24.2976 39.9636 24.7611C39.9761 24.9984 39.8135 25.1775 39.7372 25.3872C39.7225 25.8769 39.6985 26.3727 39.752 26.8615C39.7893 27.2201 40.0911 27.4507 40.2957 27.7182C40.519 27.9563 40.7058 28.276 41.0439 28.3608C41.3621 28.4562 41.6658 28.5946 41.9463 28.7761C42.0319 28.9888 42.0162 29.2145 41.9755 29.4355C41.364 29.5487 40.74 29.4922 40.1222 29.5018C39.6462 29.5268 39.2217 29.2699 38.7592 29.2164C38.3115 29.205 37.7657 29.4283 37.4216 29.0256C37.5675 28.467 37.5791 27.867 37.8461 27.3458C37.9316 26.7556 37.7691 26.1568 37.8033 25.5613C37.7524 25.5183 37.6499 25.4323 37.5988 25.3891C37.6355 25.0002 37.4444 24.6541 37.3807 24.282C37.3391 23.7386 37.2899 23.1957 37.2273 22.6547C37.1782 22.3915 37.3139 22.1504 37.4986 21.9753C37.5153 21.6713 37.5562 21.3702 37.5852 21.0684C37.5403 20.8722 37.3848 20.7266 37.2847 20.5588C36.9497 20.7006 36.4978 20.6334 36.2985 20.3039C35.8259 19.5973 35.3541 18.8907 34.8762 18.1881C34.6884 18.1756 34.4901 18.1954 34.3148 18.1199C34.1126 17.9114 34.0069 17.6335 33.8778 17.3798C33.6929 17.5884 33.7064 17.9081 33.4875 18.098C33.0242 18.5448 32.901 19.2011 32.6589 19.7735C32.4734 20.1446 32.5777 20.5923 32.3709 20.9541C32.2603 21.149 31.9827 21.1878 31.9097 21.4103C31.8137 21.6502 31.701 21.8988 31.4766 22.0447C31.2335 22.205 31.1689 22.5092 31.0604 22.7607C30.9613 22.9925 31.1084 23.2356 31.074 23.4737C30.9196 24.2298 30.4406 24.8619 30.2392 25.6023C30.1474 25.9357 30.0158 26.3111 29.6297 26.3823C29.1903 27.1707 28.9483 28.1355 29.1967 29.0232C29.3491 29.3021 29.3407 29.6156 29.2938 29.9228C28.5957 29.9775 27.8798 30.0717 27.1943 29.8758C27.0336 29.5559 27.0565 29.1795 27.0899 28.8338C27.3017 27.9245 27.5825 27.0313 27.7546 26.1128C27.5396 25.9209 27.5898 25.6275 27.5939 25.3705C27.5867 24.8913 27.9111 24.5076 28.1365 24.1144C28.2211 23.7107 28.1815 23.2769 28.389 22.9065C28.6333 22.4431 28.8398 21.942 29.2166 21.5676C29.2885 21.2373 29.5308 20.9879 29.6287 20.6698C29.7331 20.3888 29.5505 20.1037 29.5872 19.8165C29.6768 18.945 29.8345 18.0822 29.9712 17.2171C29.7125 17.0001 29.7959 16.6553 29.7135 16.3626C29.7542 16.2473 29.8053 16.1373 29.8669 16.0302C29.8022 15.9705 29.7386 15.9097 29.6738 15.85C29.7364 15.5425 29.7187 14.992 30.1883 15.0919C30.2175 14.0739 29.8658 13.0883 29.9837 12.069C30.0463 12.1423 30.1078 12.2169 30.1705 12.2913L30.1371 11.9463C30.3333 11.8415 30.542 11.7608 30.7612 11.7199C30.4043 11.6728 30.0568 11.5816 29.707 11.4997C29.6225 11.2763 29.6696 11.0383 29.7007 10.8098C29.8364 10.0381 29.8865 9.2559 29.9147 8.47372C30.3101 8.33553 30.7463 8.45286 31.1324 8.26822C31.0127 7.28997 30.9824 6.26884 31.3286 5.33033C31.6073 4.53127 32.1396 3.76062 32.9701 3.47973C33.3625 3.38547 33.8561 3.27947 34.1334 3.66217C34.2096 3.59192 34.2858 3.51957 34.362 3.44933C33.7286 2.18547 34.4852 0.339063 35.9223 0.0790352ZM40.9906 5.56058C40.8237 5.66333 40.6598 5.78087 40.8354 5.9675C40.7498 6.01877 40.664 6.06816 40.5774 6.11523C40.4417 6.22008 40.137 6.27974 40.1725 6.49175C40.3249 6.73764 40.4562 6.99612 40.565 7.26439C40.8978 6.98979 41.1628 6.62051 41.3423 6.22963C41.3799 6.19083 41.4562 6.11324 41.4936 6.07539C41.4769 5.8961 41.4373 5.7209 41.3674 5.55534C41.2421 5.55754 41.1159 5.55953 40.9906 5.56058Z" fill="#C6C6C6"/>
<path d="M44.0523 14.9467C44.5302 14.3408 45.3024 14.0052 46.0682 14.0178C48.3984 14.02 50.7296 14.0167 53.0598 14.0188C54.1964 14.0429 55.3046 14.9353 55.436 16.095C52.2105 16.0842 48.9858 16.1045 45.7615 16.0842C45.7584 18.2526 45.7542 20.422 45.7615 22.5914C48.2368 22.5873 50.7118 22.583 53.1872 22.5935C53.1777 21.8166 53.1902 21.0396 53.1799 20.2628C51.956 20.2698 50.7318 20.2723 49.5078 20.2628C48.5259 20.225 47.7954 19.3726 47.5743 18.4646C50.2061 18.4552 52.8368 18.4542 55.4684 18.4657C55.4571 19.7941 55.4749 21.1237 55.459 22.4522C55.4277 23.5709 54.4698 24.5556 53.3719 24.6678C50.833 24.6678 48.2931 24.6667 45.7542 24.6667C44.9956 24.6613 44.3246 24.18 43.8967 23.5793C43.6045 23.1546 43.5387 22.6273 43.4971 22.127C43.4929 20.3446 43.4991 18.5611 43.4949 16.7787C43.5045 16.1326 43.6182 15.4501 44.0523 14.9467ZM59.4474 14.0911C59.7095 14.0198 59.9827 14.0146 60.2532 14.0178C62.407 14.0243 64.5619 14.0105 66.7157 14.023C67.9366 14.0754 69.0093 15.1346 69.0563 16.3654C69.0585 18.3545 69.0585 20.3444 69.0563 22.3346C69.0344 23.5539 67.9596 24.6905 66.7274 24.6696C64.3586 24.6592 61.9898 24.677 59.6208 24.6613C58.4395 24.5291 57.5327 23.3958 57.5243 22.2225C57.5076 20.4085 57.5264 18.5925 57.5149 16.7787C57.5056 16.2439 57.6016 15.6945 57.8833 15.2332C58.214 14.6533 58.8067 14.2474 59.4474 14.0911ZM59.819 16.0268C59.8231 18.2643 59.8096 20.5027 59.8252 22.7402C62.1387 22.7466 64.4535 22.7392 66.7668 22.7431C66.7739 20.5038 66.7679 18.2641 66.7698 16.0233C64.4532 16.0225 62.1356 16.0184 59.819 16.0268ZM0.0477791 16.5594C0.0969292 15.3463 1.108 14.2065 2.33832 14.1593C4.6371 14.1571 6.93703 14.1571 9.23602 14.1604C10.4778 14.1479 11.5122 15.275 11.6059 16.4839C11.4399 16.4977 11.274 16.5079 11.1081 16.5101C8.37094 16.5071 5.63377 16.5112 2.89754 16.5079C2.8964 18.4623 2.88617 20.4166 2.90276 22.3711C5.80804 22.3668 8.71217 22.3647 11.6173 22.3723C11.5349 23.625 10.485 24.7368 9.21943 24.7859C7.13655 24.8154 5.05368 24.787 2.97069 24.7997C2.45206 24.8175 1.91778 24.7524 1.45038 24.5144C0.64478 24.1003 0.0749108 23.2562 0.0469443 22.3398C0.0446486 20.4126 0.041518 18.4865 0.0477791 16.5594ZM13.8181 15.6095C14.2011 14.7695 15.0777 14.1458 16.0107 14.1572C18.3065 14.1594 20.6033 14.1572 22.9002 14.1583C24.0991 14.1656 25.1551 15.2203 25.2397 16.4105C22.2113 16.4535 19.1809 16.4167 16.1517 16.4284C16.138 17.0407 16.1444 17.653 16.1433 18.2663C18.3953 18.2735 20.6482 18.2684 22.9002 18.2684C23.5679 18.2946 24.2693 18.5096 24.7241 19.0285C25.2354 19.4879 25.4515 20.1872 25.4682 20.8604C25.4795 21.5324 25.4795 22.2078 25.371 22.8734C25.1227 23.9513 24.0969 24.7545 23.0023 24.7891C20.8131 24.8099 18.6225 24.7912 16.4333 24.7996C15.9169 24.8101 15.3826 24.7356 14.9244 24.4829C14.1981 24.1022 13.6763 23.3366 13.6044 22.5148C16.687 22.5297 19.7706 22.5242 22.8532 22.517C22.8605 21.8646 22.8563 21.2125 22.8563 20.5605C20.5752 20.5448 18.293 20.5583 16.0107 20.554C14.6991 20.5646 13.5387 19.3535 13.574 18.0398C13.6199 17.2304 13.4342 16.3613 13.8181 15.6095ZM69.769 14.3754C70.0591 14.3681 70.3523 14.3565 70.6414 14.4006C70.5067 14.4352 70.3698 14.453 70.2323 14.4551C70.2146 14.7708 70.2125 15.0864 70.2166 15.4018C70.1864 15.4018 70.127 15.4018 70.0977 15.4028C70.0998 15.0788 70.1029 14.7549 70.0987 14.4319C70.0173 14.4384 69.8556 14.453 69.7752 14.4592L69.769 14.3754ZM70.804 14.3637C70.8657 14.3669 70.9908 14.3732 71.0536 14.3764C71.1423 14.6604 71.2467 14.9393 71.3761 15.2088C71.4972 14.9372 71.5765 14.6477 71.71 14.3837C71.7685 14.3753 71.8853 14.3575 71.9436 14.3491C71.9112 14.7349 72.0437 15.1617 71.8363 15.5129C71.7987 15.1711 71.8144 14.8271 71.7924 14.4842C71.6337 14.8041 71.5587 15.1637 71.3511 15.4595C71.1923 15.1555 71.1246 14.8093 70.9347 14.5223C70.9223 14.8285 70.9284 15.1357 70.9243 15.4427L70.8126 15.43C70.8125 15.0748 70.8073 14.7192 70.804 14.3637Z" fill="#C6C6C6"/>
</g>
<defs>
<clipPath id="clip0_957_9245">
<rect width="71.9118" height="30" fill="white" transform="translate(0.0441284)"/>
</clipPath>
</defs>
</svg>
