<svg width="88" height="30" viewBox="0 0 88 30" fill="none" xmlns="http://www.w3.org/2000/svg">
<path fill-rule="evenodd" clip-rule="evenodd" d="M7.84459 16.875L12.6571 22.0831L8.18834 23.125L5.78209 21.0419L7.84459 16.875ZM20.5458 6.875L22.6571 8.03563L21.9533 11.875L17.0271 8.66063L20.5458 6.875ZM7.42271 6.875C7.65709 6.875 7.84521 6.885 8.12584 7.10938C8.51646 7.42188 9.95709 8.44187 9.95709 8.44187L10.2183 8.90625C10.694 8.93 10.7058 8.97312 11.3065 9.41437L24.5321 18.3856C24.4302 18.6062 22.8577 23.125 22.8577 23.125H20.4302L5.78209 7.65625C5.78209 7.65625 6.02084 7.56687 6.25084 7.42188C6.61146 7.195 7.06521 6.875 7.42271 6.875ZM9.21959 3.75H3.90709C3.57709 3.915 3.28209 4.10625 3.28209 4.76562V9.0625V10.3906L3.89959 12.1081L3.28209 12.9688V13.6719L3.90709 14.1406V15L3.28209 15.625V17.9688L3.90709 18.3594V20.9375C3.25459 21.4019 3.28209 21.9531 3.28209 22.5869V25.5469C4.74396 25.9119 4.50146 26.25 6.17271 26.25C7.64959 26.25 8.59459 26.25 8.59459 26.25C8.82084 26.2356 8.99709 26.1881 9.21959 26.1669C9.84084 26.1069 10.2352 25.625 10.2352 25.625L11.8758 26.25L12.5008 25.625C12.5008 25.625 13.3202 26.6394 13.5165 26.875L14.0633 26.25L15.7821 26.875C15.7821 26.875 16.4196 26.2631 17.1102 26.25H20.4696C20.5208 26.2006 21.0946 25.625 21.0946 25.625C21.3577 25.7825 21.1252 26.25 23.5165 26.25C24.1765 26.25 24.7665 26.0938 24.7665 26.0938C24.6652 25.7563 24.654 25.825 24.454 25.625C24.454 25.625 26.0165 25.625 27.0321 26.25V16.5669L25.7821 16.9531C25.8065 16.755 26.384 16.4919 26.4071 16.0938C26.4365 15.5919 26.3796 13.8525 26.3065 13.485C26.269 13.2975 25.9108 12.7481 25.7821 12.5781C25.9352 12.165 26.4071 11.875 26.4071 11.875V11.4062L27.0321 11.0419V8.40312L26.4071 5.78125L27.0321 5.10437V4.35688L26.3721 3.785L24.2283 3.43062L23.7333 3.785L23.4858 3.3725C23.4858 3.3725 20.2458 3.12625 19.6583 3.12625C18.9065 3.12625 19.0158 3.1825 18.7615 4.02938L17.6827 4.13938L17.579 3.75H16.4852L16.6652 3.55188C16.8565 3.37125 16.7896 3.44375 16.939 3.125H13.1777C13.119 3.2325 12.904 3.47625 12.7346 3.75C12.7346 3.75 12.4046 3.74687 12.1571 3.91187C11.9096 4.07687 11.9108 4.375 11.5808 4.375C11.2508 4.375 10.5665 4.375 10.179 4.375C9.35396 4.375 9.21959 3.75 9.21959 3.75Z" fill="#F44336"/>
<path d="M41.1201 21.3984H38.4482L38.4658 20.0186H41.1201C42.0342 20.0186 42.7959 19.8281 43.4053 19.4473C44.0146 19.0605 44.4717 18.5215 44.7764 17.8301C45.0869 17.1328 45.2422 16.3184 45.2422 15.3867V14.6045C45.2422 13.8721 45.1543 13.2217 44.9785 12.6533C44.8027 12.0791 44.5449 11.5957 44.2051 11.2031C43.8652 10.8047 43.4492 10.5029 42.957 10.2979C42.4707 10.0928 41.9111 9.99023 41.2783 9.99023H38.3955V8.60156H41.2783C42.1162 8.60156 42.8809 8.74219 43.5723 9.02344C44.2637 9.29883 44.8584 9.7002 45.3564 10.2275C45.8604 10.749 46.2471 11.3818 46.5166 12.126C46.7861 12.8643 46.9209 13.6963 46.9209 14.6221V15.3867C46.9209 16.3125 46.7861 17.1475 46.5166 17.8916C46.2471 18.6299 45.8574 19.2598 45.3477 19.7813C44.8438 20.3027 44.2344 20.7041 43.5195 20.9854C42.8105 21.2607 42.0107 21.3984 41.1201 21.3984ZM39.3535 8.60156V21.3984H37.6572V8.60156H39.3535Z" fill="#F8F8F8"/>
<path d="M48.793 16.749V16.5469C48.793 15.8613 48.8926 15.2256 49.0918 14.6396C49.291 14.0479 49.5781 13.5352 49.9531 13.1016C50.3281 12.6621 50.7822 12.3223 51.3154 12.082C51.8486 11.8359 52.4463 11.7129 53.1084 11.7129C53.7764 11.7129 54.377 11.8359 54.9102 12.082C55.4492 12.3223 55.9062 12.6621 56.2812 13.1016C56.6621 13.5352 56.9521 14.0479 57.1514 14.6396C57.3506 15.2256 57.4502 15.8613 57.4502 16.5469V16.749C57.4502 17.4346 57.3506 18.0703 57.1514 18.6563C56.9521 19.2422 56.6621 19.7549 56.2812 20.1943C55.9062 20.6279 55.4521 20.9678 54.9189 21.2139C54.3916 21.4541 53.7939 21.5742 53.126 21.5742C52.458 21.5742 51.8574 21.4541 51.3242 21.2139C50.791 20.9678 50.334 20.6279 49.9531 20.1943C49.5781 19.7549 49.291 19.2422 49.0918 18.6563C48.8926 18.0703 48.793 17.4346 48.793 16.749ZM50.4189 16.5469V16.749C50.4189 17.2236 50.4746 17.6719 50.5859 18.0938C50.6973 18.5098 50.8643 18.8789 51.0869 19.2012C51.3154 19.5234 51.5996 19.7783 51.9395 19.9658C52.2793 20.1475 52.6748 20.2383 53.126 20.2383C53.5713 20.2383 53.9609 20.1475 54.2949 19.9658C54.6348 19.7783 54.916 19.5234 55.1387 19.2012C55.3613 18.8789 55.5283 18.5098 55.6396 18.0938C55.7568 17.6719 55.8154 17.2236 55.8154 16.749V16.5469C55.8154 16.0781 55.7568 15.6357 55.6396 15.2197C55.5283 14.7979 55.3584 14.4258 55.1299 14.1035C54.9072 13.7754 54.626 13.5176 54.2861 13.3301C53.9521 13.1426 53.5596 13.0488 53.1084 13.0488C52.6631 13.0488 52.2705 13.1426 51.9307 13.3301C51.5967 13.5176 51.3154 13.7754 51.0869 14.1035C50.8643 14.4258 50.6973 14.7979 50.5859 15.2197C50.4746 15.6357 50.4189 16.0781 50.4189 16.5469Z" fill="#F8F8F8"/>
<path d="M63.4707 11.8887V13.1367H58.3291V11.8887H63.4707ZM60.0693 9.57715H61.6953V19.043C61.6953 19.3652 61.7451 19.6084 61.8447 19.7725C61.9443 19.9365 62.0732 20.0449 62.2314 20.0977C62.3896 20.1504 62.5596 20.1768 62.7412 20.1768C62.876 20.1768 63.0166 20.165 63.1631 20.1416C63.3154 20.1123 63.4297 20.0889 63.5059 20.0713L63.5146 21.3984C63.3857 21.4395 63.2158 21.4775 63.0049 21.5127C62.7998 21.5537 62.5508 21.5742 62.2578 21.5742C61.8594 21.5742 61.4932 21.4951 61.1592 21.3369C60.8252 21.1787 60.5586 20.915 60.3594 20.5459C60.166 20.1709 60.0693 19.667 60.0693 19.0342V9.57715Z" fill="#F8F8F8"/>
<path d="M70.9854 19.7725V14.877C70.9854 14.502 70.9092 14.1768 70.7568 13.9014C70.6104 13.6201 70.3877 13.4033 70.0889 13.251C69.79 13.0986 69.4209 13.0225 68.9814 13.0225C68.5713 13.0225 68.2109 13.0928 67.9004 13.2334C67.5957 13.374 67.3555 13.5586 67.1797 13.7871C67.0098 14.0156 66.9248 14.2617 66.9248 14.5254H65.2988C65.2988 14.1855 65.3867 13.8486 65.5625 13.5146C65.7383 13.1807 65.9902 12.8789 66.3184 12.6094C66.6523 12.334 67.0508 12.1172 67.5137 11.959C67.9824 11.7949 68.5039 11.7129 69.0781 11.7129C69.7695 11.7129 70.3789 11.8301 70.9062 12.0645C71.4395 12.2988 71.8555 12.6533 72.1543 13.1279C72.459 13.5967 72.6113 14.1855 72.6113 14.8945V19.3242C72.6113 19.6406 72.6377 19.9775 72.6904 20.335C72.749 20.6924 72.834 21 72.9453 21.2578V21.3984H71.249C71.167 21.2109 71.1025 20.9619 71.0557 20.6514C71.0088 20.335 70.9854 20.042 70.9854 19.7725ZM71.2666 15.6328L71.2842 16.7754H69.6406C69.1777 16.7754 68.7646 16.8135 68.4014 16.8896C68.0381 16.96 67.7334 17.0684 67.4873 17.2148C67.2412 17.3613 67.0537 17.5459 66.9248 17.7686C66.7959 17.9854 66.7314 18.2402 66.7314 18.5332C66.7314 18.832 66.7988 19.1045 66.9336 19.3506C67.0684 19.5967 67.2705 19.793 67.54 19.9395C67.8154 20.0801 68.1523 20.1504 68.5508 20.1504C69.0488 20.1504 69.4883 20.0449 69.8691 19.834C70.25 19.623 70.5518 19.3652 70.7744 19.0605C71.0029 18.7559 71.126 18.46 71.1436 18.1729L71.8379 18.9551C71.7969 19.2012 71.6855 19.4736 71.5039 19.7725C71.3223 20.0713 71.0791 20.3584 70.7744 20.6338C70.4756 20.9033 70.1182 21.1289 69.7021 21.3105C69.292 21.4863 68.8291 21.5742 68.3135 21.5742C67.6689 21.5742 67.1035 21.4482 66.6172 21.1963C66.1367 20.9443 65.7617 20.6074 65.4922 20.1855C65.2285 19.7578 65.0967 19.2803 65.0967 18.7529C65.0967 18.2432 65.1963 17.7949 65.3955 17.4082C65.5947 17.0156 65.8818 16.6904 66.2568 16.4326C66.6318 16.1689 67.083 15.9697 67.6104 15.835C68.1377 15.7002 68.7266 15.6328 69.377 15.6328H71.2666Z" fill="#F8F8F8"/>
<path d="M87.8428 20.0625V21.3984H79.4668V20.2295L83.6592 15.5625C84.1748 14.9883 84.5732 14.502 84.8545 14.1035C85.1416 13.6992 85.3408 13.3389 85.4521 13.0225C85.5693 12.7002 85.6279 12.3721 85.6279 12.0381C85.6279 11.6162 85.54 11.2354 85.3643 10.8955C85.1943 10.5498 84.9424 10.2744 84.6084 10.0693C84.2744 9.86426 83.8701 9.76172 83.3955 9.76172C82.8271 9.76172 82.3525 9.87305 81.9717 10.0957C81.5967 10.3125 81.3154 10.6172 81.1279 11.0098C80.9404 11.4023 80.8467 11.8535 80.8467 12.3633H79.2207C79.2207 11.6426 79.3789 10.9834 79.6953 10.3857C80.0117 9.78809 80.4805 9.31348 81.1016 8.96191C81.7227 8.60449 82.4873 8.42578 83.3955 8.42578C84.2041 8.42578 84.8955 8.56934 85.4697 8.85645C86.0439 9.1377 86.4834 9.53613 86.7881 10.0518C87.0986 10.5615 87.2539 11.1592 87.2539 11.8447C87.2539 12.2197 87.1895 12.6006 87.0605 12.9873C86.9375 13.3682 86.7646 13.749 86.542 14.1299C86.3252 14.5107 86.0703 14.8857 85.7773 15.2549C85.4902 15.624 85.1826 15.9873 84.8545 16.3447L81.4268 20.0625H87.8428Z" fill="#F8F8F8"/>
</svg>
