<svg width="102" height="24" viewBox="0 0 102 24" fill="none" xmlns="http://www.w3.org/2000/svg">
<g clip-path="url(#clip0_957_9251)">
<path d="M0.882347 0H24.3394V24H0.882347V0Z" fill="#C6C6C6"/>
<path d="M4.03856 14.7622L4.01445 9.86768C4.01445 9.86768 6.62641 10.7981 8.41092 10.8289L8.43981 13.9658C8.43981 13.9658 6.33947 13.9651 4.09527 14.7994" fill="#1F1F1F"/>
<path d="M9.33157 10.8L10.7702 10.7712L10.7989 13.9657H9.38911L9.33157 10.8Z" fill="#1F1F1F"/>
<path d="M13.1011 11.4185L12.1722 12.4096L13.1609 13.4121L14.0762 12.3748L13.1011 11.4185Z" fill="#1F1F1F"/>
<path d="M11.691 8.45285L14.7809 8.43848L14.8096 9.93312H11.7341L11.691 8.45285Z" fill="#1F1F1F"/>
<path d="M15.7152 12.8362L13.5163 15.0207L14.5942 16.0698L16.6637 13.9658L15.7152 12.8362Z" fill="#1F1F1F"/>
<path d="M10.7974 3.05732L15.6919 3.0332C15.6919 3.0332 14.7184 5.77451 14.6876 7.55902L11.7088 7.57354C11.7088 7.57354 11.5945 5.35822 10.7602 3.11402" fill="#1F1F1F"/>
<path d="M21.2883 17.0797L17.8537 20.5669C17.8537 20.5669 16.5967 17.9435 15.3531 16.6633L17.4435 14.541C17.4435 14.541 19.0948 16.0222 21.2743 17.0133" fill="#1F1F1F"/>
<path d="M26.7285 0H43.6697V4.99547H26.7285V0Z" fill="#C6C6C6"/>
<path d="M26.7285 4.99536V23.9999H31.9412V17.0133H34.2217V23.9999H43.6697V18.8958H38.8914V17.0133H43.6697V4.99536H38.8914V12.0442H31.9412V4.99536H26.7285Z" fill="#C6C6C6"/>
<path d="M46.2759 0V24H62.8913V0H58.113V18.8959H51.2714V0H46.2759Z" fill="#C6C6C6"/>
<path d="M82.0045 0H65.4977V13.9657H77.1176V18.8959H65.4977V24H82.0045V8.86413H70.3846V4.99547H82.0045V0Z" fill="#C6C6C6"/>
<path d="M84.5023 0H101.118V4.99547H95.2534V24H90.5837V4.99547H84.5023V0Z" fill="#C6C6C6"/>
</g>
<defs>
<clipPath id="clip0_957_9251">
<rect width="100.235" height="24" fill="white" transform="translate(0.882347)"/>
</clipPath>
</defs>
</svg>
