<svg width="92" height="26" viewBox="0 0 92 26" fill="none" xmlns="http://www.w3.org/2000/svg">
<g clip-path="url(#clip0_957_9282)">
<path d="M13.4779 0.000244141C6.73048 0.000244141 1.20303 5.26159 0.678131 11.9474L7.5623 14.8258C8.16342 14.4088 8.87732 14.1859 9.6084 14.1868C9.67671 14.1868 9.74423 14.1887 9.81074 14.1924L12.8726 9.7042V9.64136C12.8726 6.94072 15.0453 4.743 17.7162 4.743C20.3869 4.743 22.5596 6.94072 22.5596 9.64136C22.5596 12.3419 20.3869 14.5405 17.7162 14.5405C17.6791 14.5405 17.643 14.5396 17.6062 14.5387L13.2394 17.6885C13.2422 17.7469 13.244 17.8052 13.244 17.8626C13.244 19.8908 11.6129 21.5403 9.6084 21.5403C7.84879 21.5403 6.37657 20.2697 6.0439 18.5878L1.11989 16.5289C2.64479 21.9811 7.59826 25.9783 13.4779 25.9783C20.5718 25.9783 26.322 20.1622 26.322 12.9893C26.322 5.81551 20.5718 0.000244141 13.4779 0.000244141ZM8.72709 19.7089L7.14949 19.0496C7.42867 19.6385 7.9129 20.1312 8.5552 20.4018C9.94327 20.987 11.5439 20.3211 12.1225 18.9162C12.4026 18.2406 12.4043 17.4814 12.1271 16.8046C11.8498 16.123 11.3258 15.5913 10.654 15.308C9.98584 15.0274 9.27052 15.0375 8.64204 15.2774L10.2723 15.959C11.2963 16.3907 11.7805 17.5798 11.3536 18.6152C10.9276 19.6506 9.75104 20.1406 8.72709 19.7089ZM20.9437 9.64136C20.9437 7.84197 19.4955 6.37686 17.7165 6.37686C15.9365 6.37686 14.4883 7.84197 14.4883 9.64136C14.4883 11.4408 15.9365 12.9051 17.7165 12.9051C19.4955 12.9051 20.9437 11.4408 20.9437 9.64136ZM15.297 9.63584C15.297 8.28185 16.3829 7.18445 17.7212 7.18445C19.0603 7.18445 20.1461 8.28185 20.1461 9.63584C20.1461 10.9898 19.0603 12.0873 17.7211 12.0873C16.3829 12.0873 15.2969 10.9898 15.2969 9.63594L15.297 9.63584Z" fill="#C6C6C6"/>
</g>
<path d="M43.4447 15.9961C43.4447 15.6724 43.3939 15.3867 43.2923 15.1392C43.1971 14.8853 43.0257 14.6567 42.7782 14.4536C42.537 14.2505 42.2005 14.0569 41.7689 13.8728C41.3436 13.6887 40.804 13.5015 40.1502 13.311C39.4647 13.1079 38.8458 12.8826 38.2935 12.635C37.7413 12.3811 37.2684 12.0923 36.8748 11.7686C36.4813 11.4448 36.1798 11.0735 35.9703 10.6545C35.7608 10.2356 35.6561 9.75635 35.6561 9.2168C35.6561 8.67725 35.7672 8.17896 35.9893 7.72192C36.2115 7.26489 36.5289 6.86816 36.9415 6.53174C37.3604 6.18896 37.8587 5.92236 38.4364 5.73193C39.014 5.5415 39.6583 5.44629 40.3692 5.44629C41.4102 5.44629 42.2926 5.64624 43.0162 6.04614C43.7462 6.4397 44.3016 6.95703 44.6825 7.59814C45.0633 8.23291 45.2538 8.91211 45.2538 9.63574H43.4256C43.4256 9.11523 43.3145 8.65503 43.0924 8.25513C42.8702 7.84888 42.5338 7.53149 42.0831 7.30298C41.6324 7.06812 41.0611 6.95068 40.3692 6.95068C39.7154 6.95068 39.1759 7.04907 38.7506 7.24585C38.3253 7.44263 38.0079 7.70923 37.7984 8.04565C37.5953 8.38208 37.4937 8.76611 37.4937 9.19775C37.4937 9.48975 37.554 9.75635 37.6747 9.99756C37.8016 10.2324 37.9952 10.4514 38.2555 10.6545C38.5221 10.8577 38.8585 11.0449 39.2647 11.2163C39.6773 11.3877 40.1693 11.5527 40.7406 11.7114C41.5277 11.9336 42.2069 12.1812 42.7782 12.4541C43.3495 12.7271 43.8192 13.0349 44.1873 13.3777C44.5619 13.7141 44.838 14.0981 45.0157 14.5298C45.1998 14.9551 45.2918 15.4375 45.2918 15.9771C45.2918 16.542 45.1776 17.053 44.9491 17.51C44.7206 17.967 44.3936 18.3574 43.9684 18.6812C43.5431 19.0049 43.0321 19.2556 42.4354 19.4333C41.8451 19.6047 41.1849 19.6904 40.4549 19.6904C39.8138 19.6904 39.1822 19.6016 38.5602 19.4238C37.9444 19.2461 37.3827 18.9795 36.8748 18.624C36.3734 18.2686 35.9703 17.8306 35.6656 17.3101C35.3673 16.7832 35.2181 16.1738 35.2181 15.4819H37.0462C37.0462 15.958 37.1383 16.3674 37.3224 16.7102C37.5064 17.0466 37.7572 17.3259 38.0746 17.5481C38.3983 17.7703 38.7633 17.9353 39.1695 18.0432C39.5821 18.1448 40.0106 18.1956 40.4549 18.1956C41.096 18.1956 41.6388 18.1067 42.0831 17.929C42.5274 17.7512 42.8639 17.4973 43.0924 17.1672C43.3272 16.8372 43.4447 16.4468 43.4447 15.9961Z" fill="#C6C6C6"/>
<path d="M51.6808 9.19775V10.5498H46.1107V9.19775H51.6808ZM47.9959 6.6936H49.7574V16.9482C49.7574 17.2974 49.8114 17.5608 49.9193 17.7385C50.0272 17.9163 50.1668 18.0337 50.3382 18.0908C50.5096 18.1479 50.6937 18.1765 50.8905 18.1765C51.0365 18.1765 51.1888 18.1638 51.3475 18.1384C51.5125 18.1067 51.6363 18.0813 51.7188 18.0623L51.7284 19.5C51.5887 19.5444 51.4046 19.5857 51.1761 19.6238C50.9539 19.6682 50.6842 19.6904 50.3668 19.6904C49.9352 19.6904 49.5384 19.6047 49.1766 19.4333C48.8148 19.262 48.526 18.9763 48.3102 18.5764C48.1007 18.1702 47.9959 17.6243 47.9959 16.9387V6.6936Z" fill="#C6C6C6"/>
<path d="M58.0221 19.6904C57.3048 19.6904 56.6541 19.5698 56.0702 19.3286C55.4925 19.0811 54.9942 18.7351 54.5753 18.2908C54.1627 17.8464 53.8453 17.3196 53.6231 16.7102C53.401 16.1008 53.2899 15.4343 53.2899 14.7107V14.3108C53.2899 13.4729 53.4137 12.7271 53.6612 12.0732C53.9088 11.4131 54.2452 10.8545 54.6705 10.3975C55.0958 9.94043 55.5782 9.59448 56.1178 9.35962C56.6573 9.12476 57.2159 9.00732 57.7935 9.00732C58.5299 9.00732 59.1646 9.13428 59.6978 9.38818C60.2374 9.64209 60.6786 9.99756 61.0213 10.4546C61.3641 10.9053 61.618 11.4385 61.7831 12.0542C61.9481 12.6636 62.0306 13.3301 62.0306 14.0537V14.844H54.3372V13.4062H60.2691V13.2729C60.2437 12.8159 60.1485 12.3716 59.9835 11.9399C59.8248 11.5083 59.5709 11.1528 59.2218 10.8735C58.8727 10.5942 58.3966 10.4546 57.7935 10.4546C57.3936 10.4546 57.0255 10.5403 56.6891 10.7117C56.3526 10.8767 56.0638 11.1243 55.8226 11.4543C55.5814 11.7844 55.3941 12.1875 55.2608 12.6636C55.1275 13.1396 55.0609 13.6887 55.0609 14.3108V14.7107C55.0609 15.1995 55.1275 15.6597 55.2608 16.0913C55.4005 16.5166 55.6004 16.8911 55.8607 17.2148C56.1273 17.5386 56.4478 17.7925 56.8224 17.9766C57.2032 18.1606 57.6349 18.2527 58.1173 18.2527C58.7393 18.2527 59.2662 18.1257 59.6978 17.8718C60.1295 17.6179 60.5072 17.2783 60.8309 16.853L61.8973 17.7004C61.6751 18.0369 61.3927 18.3574 61.0499 18.6621C60.7071 18.9668 60.285 19.2144 59.7835 19.4048C59.2884 19.5952 58.7013 19.6904 58.0221 19.6904Z" fill="#C6C6C6"/>
<path d="M70.162 17.7385V12.4351C70.162 12.0288 70.0794 11.6765 69.9144 11.3782C69.7557 11.0735 69.5145 10.8386 69.1908 10.6736C68.867 10.5085 68.4671 10.426 67.9911 10.426C67.5467 10.426 67.1563 10.5022 66.8199 10.6545C66.4898 10.8069 66.2296 11.0068 66.0392 11.2544C65.8551 11.502 65.763 11.7686 65.763 12.0542H64.0016C64.0016 11.686 64.0968 11.321 64.2872 10.9592C64.4776 10.5974 64.7506 10.2705 65.106 9.97852C65.4679 9.68018 65.8995 9.44531 66.401 9.27393C66.9088 9.09619 67.4737 9.00732 68.0958 9.00732C68.8448 9.00732 69.505 9.13428 70.0763 9.38818C70.6539 9.64209 71.1046 10.0261 71.4283 10.5403C71.7584 11.0481 71.9234 11.686 71.9234 12.4541V17.2529C71.9234 17.5957 71.952 17.9607 72.0091 18.3479C72.0726 18.7351 72.1646 19.0684 72.2852 19.3477V19.5H70.4476C70.3587 19.2969 70.2889 19.0271 70.2381 18.6907C70.1873 18.3479 70.162 18.0305 70.162 17.7385ZM70.4666 13.2539L70.4857 14.4917H68.7052C68.2037 14.4917 67.7562 14.533 67.3626 14.6155C66.9691 14.6917 66.639 14.8091 66.3724 14.9678C66.1058 15.1265 65.9027 15.3264 65.763 15.5676C65.6234 15.8025 65.5536 16.0786 65.5536 16.396C65.5536 16.7197 65.6266 17.0149 65.7726 17.2815C65.9185 17.5481 66.1375 17.7607 66.4295 17.9194C66.7279 18.0718 67.0929 18.1479 67.5245 18.1479C68.0641 18.1479 68.5401 18.0337 68.9527 17.8052C69.3653 17.5767 69.6922 17.2974 69.9334 16.9673C70.181 16.6372 70.3143 16.3167 70.3333 16.0056L71.0855 16.853C71.0411 17.1196 70.9205 17.4148 70.7237 17.7385C70.5269 18.0623 70.2635 18.3733 69.9334 18.6716C69.6097 18.9636 69.2225 19.208 68.7718 19.4048C68.3275 19.5952 67.826 19.6904 67.2674 19.6904C66.5692 19.6904 65.9566 19.554 65.4298 19.281C64.9093 19.0081 64.503 18.6431 64.211 18.186C63.9254 17.7227 63.7826 17.2053 63.7826 16.634C63.7826 16.0818 63.8905 15.5962 64.1063 15.1772C64.3221 14.752 64.6331 14.3997 65.0394 14.1204C65.4456 13.8347 65.9344 13.6189 66.5057 13.4729C67.077 13.3269 67.7149 13.2539 68.4195 13.2539H70.4666Z" fill="#C6C6C6"/>
<path d="M76.4461 11.2449V19.5H74.6751V9.19775H76.3509L76.4461 11.2449ZM76.0843 13.9585L75.2655 13.9299C75.2718 13.2253 75.3639 12.5747 75.5416 11.978C75.7193 11.375 75.9828 10.8513 76.3319 10.407C76.681 9.96265 77.1158 9.61987 77.6363 9.37866C78.1568 9.1311 78.7599 9.00732 79.4454 9.00732C79.9278 9.00732 80.3722 9.07715 80.7784 9.2168C81.1847 9.3501 81.537 9.56274 81.8353 9.85474C82.1336 10.1467 82.3653 10.5212 82.5304 10.9783C82.6954 11.4353 82.7779 11.9875 82.7779 12.635V19.5H81.0164V12.7207C81.0164 12.1812 80.9244 11.7495 80.7403 11.4258C80.5626 11.1021 80.3087 10.8672 79.9786 10.7212C79.6485 10.5688 79.2613 10.4927 78.817 10.4927C78.2965 10.4927 77.8617 10.5847 77.5125 10.7688C77.1634 10.9529 76.8841 11.2068 76.6747 11.5305C76.4652 11.8542 76.3128 12.2256 76.2176 12.6445C76.1288 13.0571 76.0843 13.4951 76.0843 13.9585ZM82.7589 12.9873L81.5782 13.3491C81.5846 12.7842 81.6766 12.2415 81.8543 11.7209C82.0384 11.2004 82.3018 10.7371 82.6446 10.3308C82.9937 9.92456 83.4222 9.604 83.93 9.36914C84.4378 9.12793 85.0186 9.00732 85.6725 9.00732C86.2247 9.00732 86.7135 9.08032 87.1388 9.22632C87.5704 9.37231 87.9322 9.59766 88.2242 9.90234C88.5226 10.2007 88.7479 10.5847 88.9002 11.0544C89.0526 11.5242 89.1288 12.0828 89.1288 12.7302V19.5H87.3578V12.7112C87.3578 12.1335 87.2657 11.686 87.0816 11.3687C86.9039 11.0449 86.65 10.8196 86.3199 10.6926C85.9962 10.5593 85.609 10.4927 85.1583 10.4927C84.7711 10.4927 84.4283 10.5593 84.13 10.6926C83.8316 10.8259 83.5809 11.01 83.3778 11.2449C83.1747 11.4734 83.0191 11.7368 82.9112 12.0352C82.8097 12.3335 82.7589 12.6509 82.7589 12.9873Z" fill="#C6C6C6"/>
<defs>
<clipPath id="clip0_957_9282">
<rect width="25.6438" height="26" fill="white" transform="translate(0.678131)"/>
</clipPath>
</defs>
</svg>
