<svg width="112" height="24" viewBox="0 0 112 24" fill="none" xmlns="http://www.w3.org/2000/svg">
<g clip-path="url(#clip0_957_9270)">
<path d="M0.0559957 0.482454C0.0559957 0.20665 0.186048 0.00980671 0.367919 0.00980671C0.467529 0.00980671 1.95014 0.0184053 3.30024 0.0255323C3.43779 0.0260979 3.58038 0.179611 3.71379 0.17995C3.78576 0.180516 3.82616 0.0552838 3.89588 0.0556232C3.94267 0.0558495 4.03221 0.239342 4.14927 0.173615C4.23355 0.126441 4.22001 0.0303962 4.38778 0.0313012C5.01979 0.0356001 5.47319 0.0363913 5.52243 0.0355994C5.71191 0.032545 5.86122 0.0423896 6.01623 0.202239C6.16687 0.357676 6.97751 1.174 7.06436 1.27039C7.15088 1.36655 7.26347 1.44517 7.26347 1.27039C7.26347 1.09515 7.26448 0.435282 7.26448 0.321249C7.26448 0.157101 7.33253 0.0265507 7.45407 0.0265507C7.57528 0.0265507 11.1531 0.035375 11.3003 0.035375C11.481 0.035375 11.6314 0.0793814 11.796 0.219659C11.9607 0.359485 13.9716 2.27157 14.0667 2.37655C14.162 2.48142 14.3494 2.58357 14.3494 2.40619C14.3494 2.23095 14.3334 0.42951 14.3321 0.324301C14.3298 0.130627 14.4967 0.0264368 14.6441 0.0264368C14.7915 0.0264368 17.3595 0.0322057 17.5331 0.0322057C17.7473 0.0322057 17.8407 0.0352609 17.9792 0.158117C18.1179 0.280748 20.7862 3.02138 20.8987 3.14401C21.0113 3.2663 21.1236 3.31879 21.1324 3.17851C21.1411 3.03834 21.1452 0.4096 21.1452 0.278032C21.1452 0.147031 21.1669 0.0351472 21.2796 0.0351472C21.3922 0.0351472 24.2548 0.0380885 24.3677 0.0351472C24.4945 0.0320927 24.6275 0.0452151 24.71 0.131645C24.8122 0.238889 25.6544 1.07716 25.7584 1.18249C25.8625 1.28736 26.0366 1.34087 26.0357 1.1559C26.0344 0.964265 26.0377 0.348398 26.0377 0.251787C26.0377 0.155629 26.0474 0.0190834 26.1968 0.0220247C26.3181 0.0248529 29.1043 0.0351472 29.2602 0.0351472C29.4161 0.0351472 29.56 0.055173 29.6727 0.159816C29.7852 0.265138 35.2939 5.54876 35.4387 5.68293C35.5559 5.79142 35.7246 5.95862 35.7246 5.69933C35.7246 5.60611 35.7135 4.47947 35.7235 3.27964C35.7246 3.10203 36.3094 3.27964 36.3094 3.06278C36.3094 2.6355 36.2054 2.89173 36.2054 2.68177C36.2054 2.53798 36.2381 2.45189 36.0821 2.18921C35.9851 2.02597 35.7224 1.88557 35.7224 1.71L35.7216 0.298056C35.7216 0.166602 35.7468 0.0262124 35.9112 0.0262124C36.0125 0.0262124 37.4936 0.0268891 38.6549 0.0268891C38.7142 0.0268891 38.7856 0.0747425 38.8434 0.0747425C38.9007 0.0747425 38.944 0.0268891 38.9993 0.0268891C39.5658 0.0268891 39.9958 0.0268912 40.0433 0.0262124C40.2565 0.0251943 40.3377 0.0613951 40.4415 0.175428C40.5455 0.289234 41.5764 1.34867 41.6544 1.43635C41.7326 1.52357 41.9229 1.6867 41.9229 1.50615C41.9234 0.606557 42.7934 0.0125234 43.3956 0.0178404C43.716 0.0208948 46.8604 0.0324321 47.0425 0.0351472C47.2502 0.0388804 47.3196 0.0263257 47.4583 0.157893C47.5968 0.289234 49.9347 2.45189 50.0601 2.57C50.2064 2.7079 50.3103 2.76367 50.3072 2.56015C50.3048 2.41999 50.3072 0.440937 50.2985 0.301111C50.2897 0.16072 50.3169 0.0229295 50.4469 0.0317535C50.5343 0.0374098 52.489 0.0328844 53.8189 0.0292643C53.8947 0.0290381 54.001 0.0811915 54.0723 0.0811915C54.1465 0.0806259 54.1858 0.028474 54.2541 0.0280215C54.6826 0.026777 54.9839 0.0258706 55.0295 0.0258706C56.0051 0.0283594 57.3039 1.44008 57.4811 1.95266C57.5254 2.08038 57.7852 2.16262 57.7842 1.9349C57.7838 1.81114 57.7582 0.420121 57.7582 0.262535C57.7582 0.104609 57.7939 0.0281329 57.951 0.0248522C58.0356 0.0233815 59.2462 0.0240621 60.4586 0.0246278C60.7023 0.024854 61.0692 0.179046 61.3032 0.179046C61.6848 0.179611 61.9166 0.217058 62.2059 0.166151C62.3557 0.140132 62.4763 0.0258714 62.5833 0.0259845L62.9731 0.0258706C63.1579 0.0248525 63.2037 0.0273414 63.3333 0.149745C63.4635 0.272376 64.4703 1.25647 64.5742 1.36112C64.6782 1.46655 64.8145 1.58115 64.8088 1.41802C64.8038 1.24278 64.8116 0.402248 64.8116 0.254843C64.8116 0.11332 64.8525 -0.000488281 65.0258 -0.000488281C65.1089 -0.000488281 66.1167 0.0066414 67.1633 0.0135422C67.2822 0.0143341 67.4147 0.0733844 67.5336 0.0741763C67.6342 0.0747419 67.721 0.0170469 67.8199 0.0176125C67.881 0.0182913 67.9416 0.0184045 68.0017 0.0190832C68.0943 0.0196489 68.1924 0.289233 68.2809 0.297152C68.567 0.323284 68.3843 0.18029 68.5212 0.185381C68.69 0.192168 68.4764 0.293418 68.7615 0.303487C68.9437 0.310161 68.6834 0.0262107 68.8785 0.0245138C69.2684 0.0212331 69.5285 0.0282477 69.5774 0.0280215C70.4574 0.0211207 72.2968 2.03773 72.6404 2.5476C72.8352 2.83641 72.9087 2.77521 72.9087 2.64409C72.9087 2.51264 72.9174 0.367402 72.9174 0.244772C72.9174 0.122142 72.9869 0.0432948 73.1081 0.0432948C73.1709 0.0432948 74.115 0.0408058 75.044 0.0388826C75.2132 0.038317 75.395 0.297265 75.5571 0.297265C75.8038 0.297265 75.6218 0.169997 75.8106 0.172372C76.0259 0.175314 76.2626 0.172372 76.4277 0.172372C76.6424 0.172372 76.4148 0.0343553 76.629 0.0351472C76.7609 0.0351472 76.8489 0.0343566 76.8758 0.0343566C77.0751 0.0343566 77.2728 0.0583391 77.4734 0.248846C77.6862 0.450326 78.4967 1.30229 78.6086 1.45739C78.7731 1.685 78.9259 1.78138 78.9205 1.57119C78.899 0.739366 79.5398 0.0211201 80.0421 0.0211201C80.5447 0.0211201 83.4888 0.0127493 83.7754 0.0168219C84.0787 0.0211208 84.4297 0.157101 84.6289 0.314348C84.8031 0.452137 86.5117 2.18333 86.7166 2.40709C86.8813 2.58685 86.9245 2.53866 86.9329 2.40709C86.9419 2.27598 86.9535 1.54925 86.9504 1.42662C86.9375 0.866184 87.4829 0.0341287 88.1024 0.0341287H89.1485C89.4423 0.0341287 89.5837 0.18538 90.2723 0.192054C90.377 0.192959 90.2995 0.0341287 90.4023 0.0341287H92.0876C92.2823 0.0341287 92.4079 0.051664 92.6072 0.218527C92.6566 0.259366 92.94 0.535852 93.341 0.931685C93.4369 1.02637 93.3551 1.32673 93.4627 1.43295C93.5494 1.51859 93.8231 1.40874 93.9158 1.5006C94.078 1.6609 94.2474 1.82969 94.4201 2.00164C94.4863 2.0676 94.333 2.29973 94.3398 2.45087C94.3451 2.58244 94.3271 2.74625 94.7297 2.71355C94.9625 2.69443 95.102 2.68041 95.2024 2.78064C96.1092 3.68509 96.927 4.50651 97.0254 4.61342C97.19 4.79318 97.3022 4.81501 97.3025 4.63978C97.3025 4.47269 97.3073 1.61871 97.3068 1.40863C97.3022 0.53325 98.1512 0.0122965 98.7058 0.0206679C98.9319 0.0244011 99.72 0.0268912 100.59 0.0276831C100.731 0.0279094 100.985 0.0400135 101.097 0.126103C101.233 0.23086 101.51 0.178255 101.811 0.178255C101.935 0.178255 101.782 0.345797 102.123 0.296813C102.214 0.28369 101.967 0.0337894 102.188 0.0292643C102.844 0.0151234 103.35 0.0294922 103.427 0.0294922C103.652 0.0294922 103.756 0.00347312 103.895 0.178255C103.953 0.252693 105.338 1.83693 106.926 3.65036C107.022 3.7601 106.853 4.13251 106.95 4.24372C107.017 4.31872 107.185 4.31442 107.223 4.40764C107.256 4.4866 107.184 4.71456 107.243 4.78198C107.323 4.87361 107.59 4.9002 107.711 4.9002C107.867 4.9002 108.021 4.90133 108.115 5.00891C109.253 6.30735 110.391 7.60507 111.53 8.90208C111.629 9.01611 111.511 9.42914 111.525 9.44464C111.698 9.63707 111.96 9.39769 111.96 9.60879C111.96 9.70744 111.958 10.6291 111.956 11.6772C111.956 11.8286 111.61 11.989 111.609 12.1435C111.609 12.2289 111.651 12.2027 111.655 12.2879C111.668 12.6296 111.538 12.2552 111.558 12.82C111.568 13.1283 111.947 12.958 111.953 13.2138C111.972 14.0849 111.95 14.797 111.951 14.8974C111.952 14.9714 111.9 15.2585 111.784 15.4792C111.661 15.716 110.237 18.4167 110.141 18.6056C110.02 18.8438 109.906 19.0552 110.089 19.2423C110.271 19.4297 111.626 20.7507 111.768 20.8977C111.905 21.0408 111.921 21.1089 111.925 21.3201C111.93 21.5411 111.932 23.3844 111.932 23.5944C111.932 23.8046 111.891 23.9994 111.683 23.9994C111.592 23.9994 110.35 23.996 108.965 23.9923C108.776 23.9918 108.598 23.722 108.406 23.7216C108.296 23.7211 108.185 23.932 108.074 23.9315C107.981 23.9307 107.966 23.7279 107.873 23.7279C107.729 23.7273 107.494 23.9883 107.354 23.988C106.142 23.9844 105.129 23.9819 105.047 23.9819C104.839 23.9819 104.666 23.9053 104.527 23.7367C104.392 23.5722 102.045 20.7748 101.924 20.6349C101.802 20.4948 101.736 20.5405 101.694 20.7313C101.633 21.0027 101.265 22.176 100.559 22.178C100.446 22.1788 99.9828 22.181 99.4201 22.1838C99.3004 22.1844 99.208 21.9645 99.1211 21.8302C99.0107 21.6596 98.7314 21.7247 98.5499 21.9287C98.4506 22.0392 98.2878 22.1897 98.1465 22.19C97.5465 22.193 97.038 22.1954 96.9106 22.1954C96.5807 22.1954 96.5314 22.1756 96.3494 22.0203C96.0953 21.8033 94.2162 20.2799 93.9562 20.0434C93.872 19.9669 93.831 19.8662 93.7743 19.8201C93.6566 19.7244 93.5272 19.8105 93.5209 19.958C93.5143 20.116 93.6387 20.125 93.638 20.2011C93.6308 20.9442 93.5386 22.2321 92.3557 22.248C92.2972 22.2489 92.221 22.2497 92.1302 22.2503C92.0554 22.2509 91.9698 22.2516 91.8774 22.252C91.7301 22.2528 91.6167 21.987 91.4417 21.9875C91.32 21.988 91.1539 22.0596 91.0257 22.0601C90.8878 22.0605 90.748 22.0007 90.6098 22.0007C90.3122 22.0019 90.0108 22.2586 89.7722 22.2586C89.53 22.2586 89.3382 22.2583 89.2368 22.257C89.1989 22.2567 89.1607 22.2567 89.1221 22.2567C88.8923 22.257 88.6817 22.0535 88.4727 22.0005C88.3298 21.9647 88.1042 22.0287 87.9984 21.9218C87.7126 21.633 84.9223 18.7768 84.6463 18.5007C84.2735 18.1284 83.7366 18.4641 84.1087 18.8333C84.6032 19.3236 85.0401 19.675 85.2437 19.8925C85.4603 20.125 85.5987 20.2954 85.6035 20.6412C85.6077 20.984 85.599 21.6252 85.6035 21.889C85.6077 22.1604 85.6035 22.2527 85.2913 22.2527C84.9797 22.2527 82.2035 22.2571 81.8653 22.2571C81.5278 22.2571 81.5796 22.2311 81.3979 22.0991C81.2159 21.968 80.2934 21.1493 80.0941 20.974C79.909 20.8117 79.6956 20.808 79.6956 21.0005C79.6956 21.1861 79.6925 21.8013 79.6869 22.0469C79.6827 22.2351 79.7043 22.2786 79.4398 22.2786C79.1788 22.2786 77.1704 22.2661 77.0403 22.2661C76.9103 22.2661 76.8369 22.2531 76.7068 22.1304C76.5794 22.0101 76.2213 21.5523 76.1177 21.4471C76.0135 21.3424 75.8752 21.3116 75.8752 21.4867V21.9947C75.8752 22.1523 75.8406 22.3098 75.659 22.3098C75.4768 22.3098 73.8049 22.3054 73.5452 22.3054C73.2853 22.3054 73.1422 22.1828 72.9776 22.025C72.8259 21.8797 70.8208 19.8407 70.7426 19.7621C70.6648 19.683 70.4092 19.5427 70.4049 19.7709C70.402 19.9284 70.4093 21.7321 70.4049 21.9423C70.4008 22.1332 70.4178 22.2531 70.1974 22.2572C69.9878 22.2614 68.1095 22.2614 67.9274 22.2614C67.7455 22.2614 67.6849 22.2802 67.4424 22.0733C67.1912 21.859 65.7404 20.4404 65.5975 20.2872C65.4581 20.1378 65.2594 19.9413 65.2594 20.182V21.7976C65.2594 22.0076 65.2638 22.2135 64.9694 22.2179C64.9332 22.2183 64.8743 22.2187 64.7981 22.2187C64.6704 22.2187 64.5333 21.8636 64.3368 21.8633C64.227 21.8625 64.039 21.9496 63.9209 21.9486C63.8237 21.9482 63.6546 21.9614 63.557 22.0076C63.4165 22.0742 63.3554 22.2124 63.2196 22.2118C62.9528 22.2102 62.7451 22.209 62.6822 22.209C62.4743 22.209 62.4073 22.2078 62.2621 22.0647C62.1061 21.9114 61.8074 21.6182 61.6685 21.4869C61.5415 21.3666 61.4045 21.2854 61.4045 21.4695C61.4045 21.6535 61.4088 21.9249 61.4088 22.0648C61.4088 22.1984 61.3828 22.2576 61.2011 22.2576C61.0191 22.2576 59.3386 22.2618 59.1047 22.2618C58.8695 22.2618 58.8145 22.2576 58.555 22.0475C58.295 21.8376 57.1442 20.6644 57.0476 20.5763C56.9219 20.4624 56.7472 20.4231 56.7485 20.624C56.7528 21.3075 56.1683 22.2398 55.6656 22.2445C55.5141 22.2456 54.9339 22.2469 54.2602 22.2489C54.0471 22.2492 53.9157 21.9219 53.578 21.9293C53.2727 21.9357 53.2711 22.2507 53.1101 22.2507C53.0465 22.251 52.9833 22.251 52.9216 22.2515C52.8206 22.2515 52.8397 22.0124 52.7463 22.0078C52.4734 21.995 52.3232 22.2519 52.1941 22.2521C51.8992 22.2526 51.6984 22.2532 51.6633 22.2532C51.5074 22.2532 51.5118 22.2838 51.278 22.0734C51.0442 21.8636 47.6485 18.6663 47.4794 18.5187C47.3495 18.4043 47.1716 18.1676 47.1676 18.4354C47.1658 18.5576 47.1664 19.4331 47.1676 20.4181C47.1676 20.5396 46.9643 20.576 46.8211 20.6878C46.7303 20.7584 46.6121 20.8673 46.6066 20.9832C46.5939 21.259 46.7366 21.0747 46.7366 21.2455C46.7366 21.4035 46.5939 21.3047 46.6002 21.653C46.6017 21.7352 46.8211 21.6724 46.8211 21.9814C46.8211 22.1526 47.1698 22.1427 47.1701 22.2437L47.1718 23.439C47.1718 23.6487 47.1806 23.9907 46.8946 23.9907C46.556 23.9907 45.0019 23.9777 44.7941 23.9777C44.5863 23.9777 44.4171 23.9383 44.1052 23.7016C43.9881 23.6131 43.2128 22.8527 42.2806 21.928C42.0921 21.7409 42.3189 21.6064 41.8767 21.1929C41.5324 20.8714 41.4675 21.0341 41.344 20.9106C41.2653 20.8324 41.2209 20.6606 41.1427 20.5824C41.0451 20.4853 40.9004 20.5547 40.8042 20.4586C40.0785 19.7341 39.3539 19.0084 38.6305 18.2816C38.4722 18.1219 38.2753 17.9838 38.2753 18.2204C38.2753 18.4569 38.2583 21.5479 38.2583 21.8098C38.2583 22.0728 38.254 22.261 38.0371 22.261C37.8275 22.261 36.4477 22.2656 36.257 22.261C36.0732 22.2572 35.9972 22.2568 35.8154 22.1257C35.6333 21.9942 35.3432 21.6487 35.2177 21.5216C35.1001 21.4023 34.854 21.2894 34.854 21.5695V22.0424C34.854 22.2264 34.8367 22.2611 34.6547 22.2611C34.4729 22.2611 33.7365 22.2569 33.5285 22.2569C33.3209 22.2569 33.1956 22.2092 33.0261 22.038C32.8527 21.8629 32.3115 21.3638 32.186 21.2409C32.0661 21.1243 31.8914 20.9654 31.8914 21.149V21.8631C31.8914 22.099 31.9345 22.2659 31.6836 22.2701C31.4482 22.2743 30.1805 22.2701 29.9944 22.2701C29.8051 22.2701 29.7475 22.2834 29.5395 22.1258C29.3317 21.9679 28.5261 21.1365 28.3743 20.9917C28.238 20.862 27.9932 20.7335 27.9932 20.9698V21.8847C27.9932 22.0689 27.9845 22.2528 27.7768 22.2528C27.6972 22.2528 27.4221 22.253 27.1034 22.2541C26.9325 22.2546 26.7622 21.8889 26.5902 21.8893C26.4456 21.8899 26.1809 21.9423 26.0511 21.9748C25.9864 21.9913 26.0055 22.1394 26.0446 22.1983C26.0807 22.2527 25.8854 22.2572 25.8626 22.2572C25.6503 22.2572 25.5982 22.3052 25.3905 22.1217C25.1827 21.9376 24.3466 21.1146 24.1993 20.9701C24.0648 20.8381 23.8874 20.734 23.8874 20.9701V21.8984C23.8874 22.1873 23.9351 22.2751 23.6795 22.2705C23.4442 22.2665 21.8085 22.2749 21.5659 22.2705C21.3305 22.2665 21.293 22.3187 21.1156 22.148C20.9534 21.992 20.6087 21.6004 20.4571 21.4432C20.3265 21.3072 20.1409 21.224 20.1409 21.4604C20.1409 21.6966 20.1453 21.8611 20.1496 22.047C20.1538 22.2352 20.1113 22.2635 19.8659 22.2374C19.7424 22.2244 19.7685 22.0143 19.5476 22.0009C19.4421 21.9949 19.3027 22.1191 19.1514 22.1191C19.039 22.1191 18.9815 22.2626 18.852 22.2626H18.6185C18.5377 22.263 18.4812 22.0965 18.3978 22.0993C18.2288 22.106 18.1432 22.2631 18.0279 22.2631C17.2386 22.2638 16.4518 22.2636 16.2517 22.2613C15.8357 22.2571 15.81 22.2704 15.5586 21.9992C15.3063 21.7266 13.3581 19.7049 13.2024 19.5474C13.0465 19.3895 12.8299 19.2104 12.8299 19.4727C12.8299 19.6835 12.8266 21.9468 12.8236 23.0058C12.8226 23.2662 12.4942 23.3059 12.453 23.3077C12.3165 23.3144 12.2711 23.3997 12.2517 23.6886C12.2474 23.7535 12.2719 23.9972 12.0372 23.9974C11.4161 23.9976 10.5013 23.994 10.3222 23.9907C10.2816 23.9899 10.2332 23.9911 10.179 23.9875C10.0298 23.9775 9.98796 23.7476 9.77643 23.5044C9.75852 23.4837 9.37709 23.3222 9.26327 23.2024C9.10737 23.0384 9.13322 23.4913 8.78134 23.1187C7.05866 21.2945 1.84203 15.8421 1.7028 15.694C1.55853 15.5407 1.4127 15.4448 1.40845 15.1643C1.40699 15.064 1.4071 13.5168 1.40822 11.6248C1.40822 11.5229 1.65881 11.6038 1.66183 11.5001C1.66855 11.277 1.40845 11.0765 1.40845 10.9552C1.40845 10.8963 1.40878 10.8372 1.40878 10.7777C1.40856 10.6664 1.77252 10.804 1.76581 10.6856C1.74835 10.3708 1.40878 10.2449 1.40901 10.0423C1.41057 7.31943 1.41281 4.5081 1.41281 4.39904C1.41281 4.18908 1.41718 3.97029 1.25691 3.8084C1.1132 3.66315 0.438316 2.99841 0.264951 2.81865C0.108709 2.65676 0.039654 2.59986 0.039654 2.30664C0.0386468 2.04418 0.0559957 0.482454 0.0559957 0.482454Z" fill="#C6C6C6"/>
<g opacity="0.3">
<path opacity="0.3" d="M4.08722 17.6797C3.80305 17.6797 3.51429 17.5026 3.51004 17.1069C3.50881 16.9787 3.50982 15.2054 3.51183 12.5826C3.5125 12.3141 3.76455 12.302 3.9312 12.2938C3.94373 12.2932 3.95157 12.2921 3.95627 12.2911C3.95851 12.2778 3.95862 12.2538 3.95862 12.2369C3.95884 12.1761 3.95918 12.0929 4.01816 12.027C4.07737 11.9604 4.15448 11.9567 4.20048 11.9543C4.2053 11.9541 4.21012 11.9538 4.21492 11.9534C4.22264 11.8806 4.20104 11.6931 4.09326 11.6259C4.05263 11.6008 3.981 11.5752 3.91184 11.5503C3.73064 11.4856 3.52537 11.4119 3.51978 11.2323C3.51295 11.0215 3.51351 10.7908 3.51407 10.5677C3.5143 10.4691 3.51452 10.3725 3.51407 10.2803C3.5134 10.1505 3.57641 10.0488 3.62711 9.96697C3.6458 9.93687 3.67389 9.89151 3.67546 9.87522C3.67546 9.86357 3.67378 9.86006 3.6608 9.83913C3.642 9.80881 3.61368 9.76334 3.61368 9.68856C3.61368 9.5674 3.73814 9.54274 3.83103 9.52939C3.81603 9.51706 3.80104 9.50529 3.78872 9.49545C3.75653 9.47054 3.72517 9.44455 3.69471 9.41751L3.68699 9.41061C3.62745 9.35721 3.51664 9.25789 3.51485 9.08129C3.49616 7.32725 3.51004 5.86112 3.51519 5.30928C3.5162 5.19548 3.51698 5.1276 3.51664 5.11267C3.51362 4.88641 3.48732 4.86956 3.3247 4.86752C3.08989 4.86447 2.4619 4.86435 2.39095 4.86435C2.13554 4.86435 1.97046 4.67509 1.97046 4.38209C1.97046 4.36625 1.97068 2.79457 1.97717 2.64253C1.99195 2.29806 2.18367 2.10087 2.51708 2.08719C2.60651 2.08357 3.29146 2.08164 4.55281 2.08164C5.60945 2.08164 6.78954 2.083 7.33225 2.08356L7.62761 2.08379C7.88491 2.08379 8.18083 2.14205 8.18508 2.59536C8.18788 2.89186 8.1918 4.19826 8.1918 4.38209C8.1918 4.6493 8.01676 4.85078 7.78463 4.85078C7.6876 4.85078 7.45435 4.84908 7.22995 4.84738C7.06868 4.84599 6.9074 4.84501 6.74612 4.84444C6.59637 4.84444 6.55876 4.86345 6.55876 5.00667L6.56033 10.5574L6.56223 17.028C6.56223 17.219 6.56223 17.6656 6.0502 17.6657L6.04024 17.6656C5.99636 17.6652 5.93212 17.6648 5.85355 17.6648C5.34196 17.6648 4.2814 17.6734 4.1077 17.6791L4.08722 17.6797ZM9.92512 16.0317C9.6264 16.0317 9.47385 15.8706 9.44509 15.5249C9.43804 15.4384 9.43457 14.5897 9.43457 13.0022C9.43457 12.9366 9.4799 12.7453 9.61868 12.7415H9.61879C9.63479 12.7415 9.64912 12.7436 9.6621 12.7471C9.66161 12.7175 9.65915 12.688 9.65472 12.6588C9.64722 12.6415 9.59786 12.5789 9.58007 12.5646C9.57256 12.5587 9.56487 12.5531 9.55701 12.5477C9.51135 12.5151 9.43479 12.4604 9.43479 12.3523C9.43658 8.64802 9.4527 2.86935 9.45494 2.69015C9.45919 2.35507 9.71247 2.10845 10.0571 2.10382C10.2341 2.10155 11.8162 2.10438 12.7666 2.10608L13.4585 2.1071C13.8119 2.1071 13.9418 2.345 13.9458 2.56753C13.9491 2.75543 13.955 3.68568 13.9525 3.85062C13.948 4.12722 13.7281 4.35958 13.4621 4.36851L13.4268 4.36976C13.3965 4.37112 13.3595 4.3727 13.3178 4.3727L13.3019 4.37259C13.2007 4.371 13.1488 4.27734 13.1109 4.20901C13.0996 4.18739 13.0869 4.16649 13.073 4.14645C13.0666 4.14599 13.0602 4.14576 13.0539 4.14577C13.026 4.14577 13.0088 4.1504 13.001 4.15357C12.9977 4.16262 12.9944 4.17224 12.9912 4.18174C12.9676 4.25086 12.9236 4.3796 12.7851 4.38175C12.6338 4.38367 12.4996 4.38537 12.4298 4.38537C12.3134 4.38537 12.2492 4.54205 12.2492 4.65043C12.2492 4.78245 12.2506 6.73344 12.2541 6.89635C12.2581 7.0847 12.4692 7.09014 12.4933 7.09014C12.5743 7.09014 12.7461 7.0933 12.9314 7.09692C13.1423 7.101 13.3813 7.10552 13.5101 7.10552C13.7784 7.10552 13.9476 7.27046 13.9622 7.54661C13.973 7.74514 13.9611 8.80379 13.9524 9.02009C13.9405 9.32259 13.6657 9.55677 13.4283 9.56378C13.275 9.56842 12.8013 9.56898 12.4582 9.56898C12.3803 9.56898 12.3532 9.59659 12.3443 9.60575C12.2855 9.6656 12.2784 9.8121 12.2795 9.96165L12.2803 10.0398C12.2896 10.9601 12.285 11.7226 12.2665 12.3062C12.2622 12.4428 12.1491 12.499 12.0883 12.5293L12.0709 12.5381C12.0685 12.5767 12.0731 12.6606 12.0803 12.6968C12.0815 12.7025 12.0827 12.7048 12.0827 12.7048C12.0837 12.7047 12.0984 12.7082 12.108 12.7106C12.1456 12.7209 12.2599 12.7518 12.2597 12.8876C12.2587 13.1981 12.2626 13.4956 12.2645 13.5488C12.2689 13.6883 12.3022 13.7204 12.4433 13.7204C12.6116 13.7204 13.2521 13.7213 13.4432 13.7234C13.7355 13.7276 13.9394 13.9705 13.9394 14.3142C13.9394 14.5028 13.9362 15.3254 13.9328 15.5414C13.9284 15.84 13.7648 16.0254 13.5057 16.0254C13.4153 16.0254 12.6257 16.027 11.81 16.0286C10.9377 16.0299 10.0355 16.0317 9.92512 16.0317ZM15.536 16.1332C15.3913 16.1332 15.2302 16.1184 15.1327 16.0082C15.0656 15.9325 15.0406 15.8283 15.0559 15.6896C15.0679 15.5835 16.5898 2.97592 16.6165 2.80611C16.6558 2.56097 16.8362 2.19273 17.1724 2.18187C17.2542 2.18031 17.3361 2.1797 17.4179 2.18007C17.9361 2.18007 19.0732 2.19002 19.251 2.19194C19.6367 2.19601 19.8428 2.3889 19.9191 2.81742C19.949 2.98327 20.567 7.42714 21.0636 10.9978C21.383 13.2942 21.6588 15.2773 21.6798 15.4151C21.721 15.686 21.7262 15.8926 21.6171 16.021C21.5557 16.0934 21.4661 16.1299 21.3507 16.1299H21.3505C21.0943 16.1299 19.8046 16.1134 19.5671 16.1062C19.1764 16.0944 18.9736 15.9178 18.9644 15.5809C18.9623 15.505 18.9637 15.306 18.9655 15.0543C18.969 14.5917 18.9737 13.9582 18.9566 13.7957C18.9286 13.5283 18.8893 13.4023 18.6517 13.4023C18.5373 13.4023 18.4105 13.4033 18.2929 13.4042C18.1906 13.4051 18.0951 13.4058 18.0207 13.4058C17.8088 13.4058 17.7797 13.5099 17.7797 13.6222C17.7797 13.7702 17.7708 14.2481 17.7628 14.6699C17.7561 15.0231 17.7498 15.3566 17.7498 15.4417C17.7498 15.9784 17.4575 16.0882 17.2831 16.1056C17.0462 16.1298 16.0868 16.1332 15.536 16.1332ZM18.3316 7.66675C18.279 8.03611 18.0211 10.3868 18.0104 10.5402C18.0002 10.6804 18.0475 10.7543 18.1591 10.7728C18.2883 10.7946 18.404 10.7875 18.5456 10.7498C18.599 10.7358 18.6284 10.728 18.6117 10.5155C18.6057 10.4374 18.5679 9.97194 18.522 9.4312C18.5073 9.2563 18.6937 9.21354 18.805 9.18797L18.8221 9.18401C18.7966 9.16591 18.7694 9.1477 18.7484 9.13333C18.639 9.05946 18.5704 9.01161 18.5371 8.96025C18.4679 8.85402 18.4622 8.78603 18.455 8.70016L18.4521 8.6669C18.3827 7.95058 18.3474 7.73247 18.3316 7.66675ZM61.237 16.1252C60.9525 16.1252 60.6637 15.9481 60.6598 15.5523C60.6582 15.3828 60.6609 12.6893 60.6634 10.0844C60.6657 7.69774 60.668 5.44345 60.6668 5.34084C60.6637 5.11538 60.6373 5.09853 60.4745 5.09626C60.2342 5.09287 59.8832 5.09264 59.7812 5.09264C59.508 5.09264 59.3605 4.80236 59.3605 4.52927C59.3605 4.32191 59.3763 2.85464 59.3818 2.71527C59.3957 2.3708 59.5871 2.17339 59.9208 2.15948C59.9873 2.15665 60.3407 2.15597 60.8298 2.15484L61.0311 2.15427C61.1661 2.15427 61.2035 2.27713 61.2175 2.32328L61.2205 2.33347C61.2869 2.34116 61.3568 2.3536 61.4303 2.36673C61.5597 2.38969 61.6935 2.41356 61.8195 2.41356C61.8852 2.41356 61.9421 2.40711 61.9932 2.39399C62.0009 2.38754 62.0231 2.34625 62.0363 2.32147C62.0718 2.25484 62.1256 2.15427 62.236 2.15427C63.105 2.15427 63.9811 2.1554 64.3945 2.15585L64.631 2.15608C64.8882 2.15608 65.1838 2.21434 65.1882 2.6681C65.1905 2.87014 65.1861 3.55026 65.1831 4.04689C65.1819 4.20776 65.1811 4.36863 65.1805 4.52949C65.1805 4.76005 65.0389 5.07941 64.7732 5.07941C64.676 5.07941 64.4857 5.0776 64.3028 5.07579C64.1342 5.0742 63.9719 5.07251 63.8948 5.07251C63.7453 5.07251 63.7075 5.09174 63.7075 5.23496L63.7087 8.04946C63.7087 8.13476 63.6647 8.20535 63.6261 8.26768C63.6019 8.30637 63.5747 8.35026 63.5747 8.37583C63.5747 8.39608 63.5926 8.4342 63.6085 8.46769C63.6342 8.52244 63.6635 8.58466 63.6635 8.6548C63.6635 8.67607 63.6723 8.70514 63.6816 8.7358C63.6943 8.77856 63.709 8.82709 63.709 8.88162C63.7092 9.43368 63.7079 10.0107 63.7066 10.5841C63.7041 11.7332 63.7015 12.8186 63.7106 13.696C63.7113 13.7614 63.6932 13.8136 63.6568 13.8507C63.6334 13.8747 63.5909 13.9032 63.5216 13.9032C63.4793 13.9032 63.4387 13.8931 63.4027 13.8842C63.3884 13.8807 63.3672 13.8754 63.3598 13.875C63.3281 13.8772 63.2546 13.9644 63.2546 14.0135C63.2595 14.0237 63.3013 14.0479 63.3852 14.0479C63.4117 14.0479 63.4381 14.0452 63.4577 14.0405C63.5275 14.0236 63.5914 14.0411 63.6371 14.0875C63.7128 14.1647 63.7118 14.2979 63.7113 14.3621L63.7112 14.3718L63.7114 15.474C63.7114 15.6649 63.7114 16.1118 63.1985 16.1118H63.1897C63.1456 16.1113 63.0811 16.1111 63.0024 16.1111C62.4979 16.1111 61.4377 16.1195 61.2569 16.1249L61.237 16.1252ZM74.8508 16.0325C74.5403 16.0325 74.3687 15.8606 74.3407 15.5214C74.3133 15.189 74.349 2.79819 74.3504 2.68654C74.3544 2.35869 74.6265 2.10834 74.9831 2.10415C75.1596 2.10189 76.747 2.10472 77.6967 2.10642L78.3845 2.10743C78.6796 2.10743 78.8664 2.2838 78.8718 2.56753C78.8744 2.75181 78.8811 3.67991 78.8785 3.85073C78.8738 4.12755 78.6538 4.3598 78.3881 4.36863C78.2028 4.3744 77.5443 4.3856 77.3556 4.3856C77.2392 4.3856 77.175 4.54239 77.175 4.65077C77.175 4.82306 77.1761 6.73627 77.1799 6.89635C77.1841 7.08493 77.3951 7.09036 77.4192 7.09036C77.5003 7.09036 77.6721 7.09353 77.8575 7.09715C78.0683 7.10122 78.3074 7.10563 78.436 7.10563C78.7041 7.10563 78.8731 7.27057 78.888 7.54661C78.8985 7.74051 78.8865 8.80096 78.8779 9.0202C78.8659 9.32293 78.5912 9.55688 78.3538 9.56389C78.1808 9.5691 77.581 9.5691 77.3839 9.5691C77.306 9.5691 77.2789 9.5967 77.2699 9.60587C77.211 9.66582 77.2037 9.81244 77.2048 9.96176C77.2055 10.054 77.2025 10.5322 77.1988 11.1376C77.1929 12.0918 77.1849 13.3985 77.1896 13.5496C77.194 13.6886 77.2276 13.7206 77.369 13.7206C77.5521 13.7206 78.1799 13.7217 78.3685 13.7236C78.6607 13.7279 78.8647 13.9708 78.8647 14.3145C78.8647 14.4942 78.8616 15.3228 78.8581 15.5417C78.854 15.8402 78.6904 16.0256 78.4314 16.0256C78.3407 16.0256 77.5513 16.0273 76.7357 16.0288C75.8636 16.0306 74.9614 16.0325 74.8508 16.0325ZM40.3619 17.6966C40.2714 17.6966 39.8053 17.6958 39.3237 17.695C38.809 17.694 38.2768 17.6931 38.1664 17.6931C37.8556 17.6931 37.6837 17.5212 37.6557 17.1824C37.6438 17.0373 37.6491 14.3729 37.6555 11.288C37.661 8.58647 37.6671 5.52456 37.6619 3.88093C37.6613 3.71973 37.767 3.68115 37.8122 3.66464L37.8203 3.66181L37.8204 3.6583C37.8205 3.65619 37.8205 3.65408 37.8204 3.65197C37.8182 3.65144 37.816 3.65084 37.8139 3.65016C37.7729 3.6376 37.6646 3.60434 37.6629 3.45784C37.6599 3.17502 37.6607 2.9094 37.6654 2.6681L37.6657 2.64581C37.6696 2.31231 37.9249 2.0675 38.2726 2.06365C38.4494 2.06139 40.088 2.06422 41.0598 2.06581C41.4159 2.06648 41.6823 2.06694 41.7539 2.06694C42.0492 2.06694 42.236 2.24319 42.2413 2.5268C42.2444 2.71142 42.2505 3.96668 42.248 4.13445C42.2436 4.41116 42.0236 4.64353 41.7574 4.6519C41.5775 4.65812 41.159 4.66898 40.9657 4.66898C40.8493 4.66898 40.7848 4.826 40.7848 4.93438C40.7848 5.09129 40.7865 7.50498 40.7898 7.66618C40.7922 7.77716 40.8727 7.83361 41.029 7.83361C41.1092 7.83361 41.2169 7.83123 41.3331 7.82886C41.4725 7.8254 41.6119 7.82337 41.7513 7.82275C42.0197 7.82275 42.1887 7.98769 42.2034 8.26406C42.2134 8.4523 42.2024 9.72533 42.1936 9.95181C42.1817 10.2528 41.9263 10.4624 41.6953 10.4694C41.5314 10.4742 41.2581 10.4742 40.9938 10.4742C40.9238 10.4742 40.8916 10.4988 40.8733 10.5174C40.816 10.5758 40.7876 10.7022 40.7888 10.8934C40.7897 11.0312 40.7864 11.2235 40.7826 11.4463C40.7741 11.9414 40.7624 12.6194 40.7896 13.2039C40.795 13.3228 40.7406 13.3838 40.7045 13.4239C40.6761 13.4557 40.6655 13.4676 40.6667 13.5149L40.667 13.5227C40.7651 13.5657 40.7614 13.6806 40.7597 13.7332C40.7558 13.8579 40.6747 13.9177 40.6097 13.966C40.5509 14.0095 40.4901 14.0543 40.4463 14.1594C40.4276 14.2038 40.4299 14.2345 40.4332 14.2428C40.4345 14.243 40.4388 14.2439 40.447 14.2439C40.4529 14.2435 40.4626 14.2418 40.4738 14.2402C40.5011 14.2362 40.5351 14.231 40.5712 14.231C40.6405 14.231 40.6954 14.2511 40.7343 14.2905C40.7597 14.3164 40.79 14.3632 40.7895 14.4396C40.7829 15.8629 40.7892 17.1967 40.7892 17.2101C40.7843 17.5112 40.6205 17.6966 40.3619 17.6966ZM30.6687 16.0079C30.3057 16.0079 29.9411 16.0064 29.7419 16.0056L29.5967 16.005C29.4113 16.005 29.2243 15.8827 29.2243 15.6093V10.3614C29.1305 10.8571 28.8772 12.3156 28.6844 13.4265C28.5022 14.4755 28.3584 15.3044 28.3378 15.395L28.3223 15.4651C28.2751 15.6825 28.2215 15.9291 27.9734 15.9291C27.8806 15.9291 27.692 15.9278 27.5089 15.9266C27.3698 15.9254 27.2308 15.9246 27.0918 15.9243C26.8836 15.9243 26.7349 15.7933 26.6732 15.5552C26.6221 15.3592 25.7083 10.8937 25.5917 10.3222C25.5753 10.9102 25.5654 15.0999 25.5654 15.5127C25.5654 15.7763 25.4486 15.9045 25.2085 15.9045C25.1533 15.9045 24.9797 15.91 24.7599 15.9168C24.3949 15.9283 23.8952 15.9441 23.6247 15.9441C23.5356 15.9441 23.4783 15.9424 23.4444 15.9389C23.1331 15.9079 23.1331 15.6446 23.1331 15.518C23.1329 15.4533 23.1327 15.3885 23.1323 15.3238C23.111 11.0572 23.1098 7.52126 23.1293 5.36766C23.1309 5.2 23.2866 5.16335 23.3613 5.14581C23.3698 5.14366 23.3803 5.14129 23.3909 5.13857C23.3365 5.1069 23.2356 5.04773 23.2412 4.92352C23.2469 4.79738 23.332 4.75055 23.3942 4.73052C23.3671 4.70183 23.3394 4.67365 23.3112 4.64602C23.1912 4.52723 23.1287 4.46162 23.1287 4.38345L23.1279 2.77885C23.1243 2.58359 23.1669 2.43709 23.2549 2.34512C23.3207 2.27645 23.4077 2.24081 23.5134 2.23923C24.3608 2.23316 25.2083 2.22927 26.0557 2.22758C26.2274 2.22758 26.3253 2.22814 26.3548 2.22939C26.5818 2.23798 26.8065 2.42566 26.8554 2.64796C26.8738 2.73224 26.9869 3.3722 27.1176 4.11319C27.2611 4.92578 27.4395 5.93703 27.4609 6.02244C27.4625 6.02945 27.4643 6.03556 27.4664 6.04122C27.4672 6.03807 27.4679 6.0349 27.4686 6.03172C27.5158 5.80535 28.0246 2.68179 28.0288 2.65452C28.0671 2.40236 28.2556 2.22735 28.4978 2.21932C28.511 2.21887 28.5455 2.21864 28.5969 2.21864C28.9174 2.21864 29.9325 2.2278 30.6042 2.2338C30.953 2.23685 31.2167 2.23923 31.2598 2.23923C31.5769 2.23923 31.9046 2.40688 31.9174 2.72737C31.9282 2.99424 32.0628 15.3908 32.0628 15.482C32.0628 15.8246 31.8938 15.971 31.7358 15.9938C31.7099 15.9977 31.6411 16.0079 30.6687 16.0079ZM47.7559 16.064C46.7562 16.064 45.4325 16.0591 45.1313 16.0522C44.1597 16.0299 43.6661 15.4622 43.6642 14.3647C43.6642 14.1737 43.8819 14.1565 44.0118 14.1461L44.0223 14.1452C44.0022 14.1287 43.9818 14.1125 43.9612 14.0966C43.8231 13.9883 43.6667 13.8657 43.6673 13.7031C43.6812 10.1793 43.7072 4.18875 43.7244 3.65954C43.7601 2.57601 44.6929 1.92847 45.5742 1.92847C45.8582 1.92847 46.3683 1.93028 46.879 1.93209C47.5217 1.93435 48.1657 1.93662 48.3591 1.93526H48.3718C48.9085 1.93526 49.4164 2.15178 49.802 2.54501C50.1494 2.89921 50.3467 3.34641 50.3432 3.77233C50.3426 3.83715 50.3415 4.03106 50.342 4.2684C50.342 4.36354 50.2773 4.42214 50.2244 4.46015C50.2797 4.49511 50.2899 4.55054 50.2899 4.58696L50.29 4.59601C50.2906 4.63244 50.2923 4.74353 50.17 4.78709C50.1468 4.79534 50.1245 4.7967 49.9971 4.80123C49.9494 4.80292 49.8699 4.80575 49.8079 4.80982C49.8138 4.82872 49.8188 4.84942 49.8188 4.8725C49.8187 4.91503 49.8048 4.95056 49.7939 4.97884C49.7917 4.98432 49.7896 4.98982 49.7876 4.99535C49.8158 5.02692 49.8832 5.0819 49.9259 5.11663C50.0393 5.20916 50.1046 5.2646 50.1253 5.32795C50.1364 5.36189 50.1365 5.39933 50.1366 5.43893C50.1366 5.4525 50.1366 5.4732 50.1377 5.49017C50.1855 5.49187 50.2465 5.50194 50.2907 5.54809C50.3427 5.60251 50.3404 5.67072 50.3385 5.7257C50.3338 5.87809 50.2874 5.94517 50.2444 5.99653L50.2394 6.00242L50.2485 6.0126C50.2822 6.05004 50.3384 6.1126 50.3377 6.22912C50.3374 6.32868 50.3374 6.43049 50.3374 6.53377C50.3374 6.60844 50.2833 6.66082 50.2398 6.7029C50.2289 6.71353 50.2128 6.72903 50.2068 6.73706C50.1808 6.80867 50.155 6.89759 50.1449 6.96502C50.2059 6.98142 50.3364 7.02395 50.3361 7.18064C50.3356 8.66396 50.3336 10.3648 50.3318 11.7315C50.3301 12.5796 50.3295 13.4277 50.3299 14.2758C50.3368 15.3724 49.637 16.0433 48.9565 16.0585C48.8071 16.0622 48.3807 16.064 47.7559 16.064ZM46.7433 4.58809C46.57 4.58809 46.5225 4.63765 46.5225 4.81842L46.5219 5.17398C46.52 6.11181 46.5139 8.96602 46.5154 11.026C46.5154 11.1443 46.5154 11.2599 46.5158 11.3734L46.5161 11.6333C46.5181 13.0672 46.5247 13.3395 46.5284 13.374C46.5459 13.5338 46.6046 13.5367 46.7017 13.5416C46.7857 13.546 46.8865 13.5443 46.9834 13.5429C47.0322 13.5421 47.0799 13.5413 47.124 13.5413C47.1907 13.5413 47.2637 13.5267 47.2853 13.352C47.3106 13.1199 47.338 5.18247 47.338 4.78426C47.338 4.60043 47.1698 4.59511 47.1506 4.59511C47.0946 4.59511 47.0177 4.5933 46.9416 4.59149C46.8685 4.5899 46.7956 4.58809 46.7433 4.58809ZM55.7072 15.6469C55.7002 15.6433 55.6936 15.6371 55.6839 15.6334C55.6694 15.6292 55.6658 15.6289 55.6529 15.6334C55.6398 15.638 55.512 15.625 55.5098 15.6731C55.5286 15.815 55.61 15.9565 55.8345 15.9642C55.8501 15.9634 55.9173 15.9012 55.9105 15.8873C55.8441 15.8229 55.7823 15.9184 55.7167 15.8187C55.6902 15.7791 55.7234 15.6549 55.7072 15.6469Z" fill="#1F1F1F"/>
<path opacity="0.3" d="M55.8351 16.072L55.8306 16.0718C55.5908 16.0637 55.4354 15.9234 55.4039 15.6876L55.4026 15.6779L55.403 15.6683C55.4094 15.5297 55.5729 15.5278 55.6268 15.5272L55.6331 15.5271C55.6573 15.5208 55.6924 15.5241 55.7134 15.5302L55.7221 15.533C55.7386 15.5394 55.7507 15.5475 55.7572 15.5517C55.8265 15.5862 55.8198 15.6637 55.8155 15.715C55.8141 15.7293 55.8132 15.7436 55.8126 15.7579C55.876 15.7501 55.9377 15.7646 55.9842 15.8098L55.9977 15.8228L56.006 15.8396C56.0141 15.8562 56.0299 15.901 55.9992 15.9538C55.9889 15.9714 55.9161 16.0679 55.8395 16.0716L55.8351 16.072Z" fill="#1F1F1F"/>
<path opacity="0.3" d="M57.8569 16.0464C57.6196 16.0464 57.1206 16.0385 56.6801 16.0316L56.2476 16.0247C56.1305 16.0199 56.1189 15.8925 56.115 15.8502C56.1142 15.8415 56.1136 15.8331 56.1126 15.8258C56.0956 15.7986 56.0527 15.7632 56.0178 15.7343C55.982 15.7047 55.9449 15.6742 55.916 15.6398C55.9049 15.6268 55.8899 15.6118 55.8739 15.5957C55.8116 15.5329 55.7411 15.4619 55.727 15.3751C55.7268 15.3732 55.7264 15.3718 55.726 15.3703C55.7149 15.3742 55.7049 15.3808 55.6969 15.3895C55.6888 15.3981 55.683 15.4086 55.6798 15.4201L55.6752 15.4347C55.6618 15.4779 55.6303 15.5789 55.5295 15.5789L55.5164 15.578C55.4908 15.575 55.4076 15.5549 55.4101 15.4254C55.4102 15.2763 55.4154 14.2138 55.4205 13.1863C55.4255 12.1703 55.4302 11.2106 55.4302 11.0816C55.4302 10.7739 55.3538 10.7739 55.2571 10.7739L55.2439 10.7742C55.168 10.7754 55.0921 10.7747 55.0163 10.7719C54.9627 10.77 54.9091 10.769 54.8554 10.7688C54.6714 10.7688 54.6714 10.8634 54.6714 10.9143C54.6714 11.0159 54.6662 12.1082 54.6613 13.1644C54.6564 14.2193 54.6512 15.3101 54.6512 15.411C54.6512 15.7804 54.4876 16.0098 54.2242 16.0098C54.1598 16.0098 54.0287 16.0107 53.8642 16.012C53.5851 16.014 53.2098 16.0166 52.898 16.0166C52.6089 16.0166 52.4294 16.0143 52.3495 16.0095C52.0298 15.991 51.8935 15.8376 51.8935 15.4969C51.8935 15.3256 51.9099 10.838 51.923 7.23214C51.9312 4.92977 51.9385 2.94121 51.9385 2.89325C51.9385 2.60715 52.1048 2.15306 52.5511 2.15306C52.6584 2.15306 53.1972 2.15577 53.8578 2.15939C54.9262 2.16482 56.256 2.17172 56.6821 2.17172C56.7402 2.17172 56.781 2.17161 56.801 2.17138L56.8258 2.17127C57.8332 2.17127 58.3904 3.0324 58.4054 3.65415C58.4085 3.79318 58.4104 4.12295 58.4112 4.63462C58.4112 4.72716 58.325 4.7723 58.2493 4.81212C58.2345 4.81967 58.22 4.82752 58.2055 4.83565C58.2205 4.84741 58.242 4.86201 58.2569 4.87208C58.3292 4.92083 58.4112 4.97638 58.4112 5.07039C58.4104 6.05098 58.4051 7.27965 58.3987 7.47491C58.367 8.45595 57.6909 8.90224 57.4363 9.07035C57.4075 9.08935 57.384 9.10485 57.3677 9.11718C57.2961 9.17126 57.2631 9.23393 57.2675 9.26776C57.2709 9.29355 57.3033 9.31176 57.3302 9.32251C57.5044 9.39321 58.373 9.77604 58.379 10.3872C58.3838 10.8886 58.384 14.6515 58.384 15.4007C58.384 15.7492 58.3512 16.0381 57.9487 16.0453C57.9254 16.0461 57.8945 16.0464 57.8569 16.0464ZM54.8182 4.39773V4.50543C54.7852 4.50543 54.7164 4.50543 54.7164 4.79786C54.7164 4.79775 54.7191 7.38916 54.7191 7.57164V7.59573C54.7186 7.81599 54.7368 7.85536 54.788 7.85604L54.8046 7.85638C54.9779 7.85887 55.1246 7.86113 55.3268 7.85875C55.4192 7.85762 55.5628 7.58351 55.6091 7.23203C55.6421 6.98134 55.6279 5.71431 55.6226 5.23759C55.6215 5.14663 55.6207 5.07808 55.6206 5.04143C55.6197 4.8404 55.2034 4.51493 55.0772 4.51052L55.0402 4.50928C54.9555 4.50633 54.9555 4.50633 54.9005 4.50611L54.8197 4.50554L54.8182 4.39773ZM72.2119 16.0737C71.9868 16.0737 71.5043 16.0659 71.0784 16.0588C70.7297 16.053 70.4001 16.0476 70.2754 16.0476C69.9466 16.0476 69.7582 15.8294 69.7582 15.4489C69.7582 15.3041 69.7635 14.2415 69.7685 13.2139C69.7735 12.1979 69.7782 11.2381 69.7782 11.1092C69.7782 10.8015 69.7016 10.8015 69.6045 10.8015L69.5918 10.8017C69.5057 10.8036 69.4353 10.8017 69.3634 10.7995C69.3129 10.7981 69.2617 10.7966 69.2036 10.7966C69.0195 10.7966 69.0195 10.8911 69.0195 10.9419C69.0195 11.0437 69.0144 12.1359 69.0095 13.1921C69.0045 14.2471 68.9995 15.338 68.9995 15.4389C68.9995 15.8083 68.8356 16.0376 68.5722 16.0376C68.5078 16.0376 68.3767 16.0387 68.2118 16.0398C67.9328 16.0418 67.5574 16.0444 67.2457 16.0444C66.9566 16.0444 66.7771 16.0422 66.6973 16.0375C66.3776 16.0188 66.2412 15.8655 66.2412 15.5248C66.2412 15.4971 66.2427 15.3555 66.2448 15.1224C66.2835 11.0982 66.2939 8.00107 66.2759 5.91703C66.2746 5.77381 66.3957 5.73399 66.4653 5.7177C66.4528 5.70656 66.4402 5.69566 66.4273 5.68501C66.3569 5.62562 66.2772 5.5583 66.2774 5.46034C66.2776 5.4385 66.2768 5.41294 66.276 5.38782C66.2752 5.36524 66.2747 5.34265 66.2746 5.32006C66.2746 5.25773 66.3008 5.1834 66.4155 5.15738C66.4009 5.13458 66.3854 5.11245 66.3688 5.09109C66.3245 5.03192 66.2787 4.97083 66.2794 4.89436L66.285 3.29983L66.2863 2.92119C66.2863 2.63464 66.4525 2.18009 66.8986 2.18009C67.0078 2.18009 67.5631 2.18303 68.2391 2.18654C69.3047 2.1922 70.6309 2.19921 71.0403 2.19921C71.0929 2.19921 71.1299 2.1991 71.1487 2.19876L71.1737 2.19864C72.1819 2.19864 72.7384 3.05966 72.7528 3.68107C72.7646 4.17419 72.7568 7.16913 72.746 7.50195C72.7147 8.48243 72.0389 8.92894 71.7844 9.09704C71.7553 9.11639 71.7316 9.13189 71.7153 9.14422C71.6436 9.19852 71.6107 9.26108 71.6151 9.29479C71.6185 9.3207 71.651 9.33914 71.6778 9.34989C71.8518 9.42025 72.7208 9.8024 72.7267 10.4143C72.7284 10.5821 72.7295 11.1247 72.7304 12.0272C72.7304 12.1049 72.711 12.1535 72.6954 12.1926C72.6828 12.2243 72.6751 12.2436 72.6765 12.2832C72.6821 12.4254 72.589 12.4844 72.5334 12.5198C72.4824 12.5522 72.4715 12.5608 72.4714 12.6059C72.4713 12.6404 72.4778 12.6543 72.4885 12.6774C72.5025 12.7078 72.5216 12.749 72.5185 12.8131C72.5163 12.8662 72.4932 12.9012 72.4781 12.9245C72.4697 12.9353 72.4636 12.9479 72.4604 12.9613C72.4771 12.9657 72.5059 12.97 72.5549 12.9728C72.5764 12.9739 72.5907 12.9748 72.6061 12.9794L72.6141 12.9815C72.7204 13.0093 72.7302 13.0766 72.7313 13.149L72.7315 15.4285C72.7315 15.7765 72.6987 16.0654 72.2959 16.0729C72.2679 16.0736 72.2399 16.0739 72.2119 16.0737ZM69.1666 4.42465V4.53235C69.1335 4.53235 69.0645 4.53235 69.0645 4.82467C69.0645 4.82456 69.0672 7.41631 69.0672 7.59845V7.62254C69.0668 7.84337 69.0848 7.88285 69.1362 7.88364L69.2079 7.88466C69.3582 7.88647 69.4942 7.88816 69.674 7.88579C69.7669 7.88477 69.9105 7.611 69.9569 7.25918C69.9897 7.01075 69.9759 5.75164 69.9706 5.27752C69.9695 5.18012 69.9687 5.10681 69.9685 5.06835C69.9675 4.86766 69.5512 4.54197 69.4251 4.53744L69.3902 4.53631C69.3038 4.53337 69.3038 4.53337 69.2487 4.53314L69.1672 4.53246L69.1666 4.42465ZM84.6741 15.9272C84.1823 15.9272 83.5323 15.9259 82.94 15.9247C82.1672 15.9233 81.4912 15.9218 81.3992 15.9238L81.3829 15.9241C81.1384 15.9242 80.8347 15.7995 80.59 15.599C80.3055 15.3657 80.1488 15.0743 80.1488 14.7785C80.1488 14.6179 80.146 13.6214 80.1431 12.681C80.1407 11.8404 80.1383 11.0446 80.1383 10.9299C80.1383 10.5529 80.2719 10.3617 80.5357 10.3617H82.5742C82.9317 10.3617 83.0008 10.5719 83.0211 10.7776C83.0355 10.9222 83.024 11.9052 83.012 12.8152C83.0091 13.0463 83.0067 13.2183 83.0067 13.2694C83.0067 13.3855 83.0359 13.5821 83.1455 13.5821C83.2099 13.5821 83.2659 13.5827 83.3185 13.5833C83.4122 13.5845 83.4944 13.5854 83.5931 13.5821C83.665 13.5798 83.7306 13.4606 83.7457 13.3046C83.7643 13.1199 83.7753 11.0254 83.7753 10.672C83.7753 10.4605 83.7494 10.4336 83.6399 10.3545C83.5319 10.2766 81.848 9.00892 80.9432 8.328C80.7729 8.19964 80.6024 8.07131 80.432 7.94303L80.4027 7.92142C80.2766 7.82866 80.1337 7.72345 80.1337 7.40579L80.1333 7.25872C80.1326 7.07252 80.1314 6.74388 80.1315 6.3537C80.1317 6.25053 80.1768 6.19963 80.2015 6.17214C80.1767 6.15313 80.1314 6.11285 80.1309 6.03231C80.1306 6.01176 80.1343 5.99135 80.1419 5.97228C80.1495 5.9532 80.1607 5.93584 80.175 5.92122C80.2282 5.86726 80.3076 5.86273 80.3843 5.86273L80.4398 5.86296C80.4733 5.86296 80.4949 5.8616 80.5087 5.8599C80.5048 5.82778 80.4918 5.80854 80.4747 5.78377C80.4557 5.75583 80.4296 5.71759 80.4292 5.6651C80.4291 5.61306 80.4422 5.57018 80.4528 5.53568C80.4611 5.50864 80.4678 5.48715 80.4665 5.46837C80.4641 5.4393 80.4248 5.40004 80.3962 5.37164C80.387 5.36268 80.3781 5.35352 80.3693 5.34416C80.351 5.3355 80.3323 5.32773 80.3132 5.32085C80.2311 5.28918 80.1289 5.24992 80.1289 5.14573C80.1277 4.32612 80.1269 3.41058 80.1281 3.33784C80.1426 2.71801 80.5447 2.05192 81.2613 2.03721C81.3578 2.0354 81.6377 2.03359 81.9917 2.03235C82.057 2.03235 82.1039 2.06696 82.1453 2.09774C82.1849 2.12704 82.2195 2.15249 82.2725 2.15453C82.285 2.03687 82.3861 2.03326 82.3982 2.03326H82.4241C82.4847 2.03326 82.5383 2.03371 82.5933 2.03405C82.6501 2.0345 82.7081 2.03495 82.7766 2.03495H82.7913C82.857 2.03495 82.9003 2.07047 82.9319 2.09649C82.9612 2.12048 82.9823 2.1379 83.0287 2.14231C83.0338 2.14276 83.0385 2.14299 83.0431 2.14299C83.0621 2.14299 83.0621 2.14299 83.0765 2.12059C83.0931 2.09434 83.1322 2.03326 83.212 2.03326L83.9887 2.03314C84.6023 2.03314 85.1892 2.03371 85.3273 2.03744C85.887 2.05203 86.5133 2.49968 86.5133 3.07663C86.5133 3.36182 86.5197 4.25994 86.5251 5.05251C86.5293 5.66318 86.5331 6.20506 86.5331 6.33787C86.5331 6.51616 86.5331 6.93371 86.1086 6.94491C85.8481 6.95181 84.4041 6.95181 84.3894 6.95181C84.3731 6.95181 84.3566 6.95204 84.3399 6.95238C84.3221 6.9526 84.3043 6.95294 84.2864 6.95294C84.1811 6.95294 83.9012 6.95294 83.8759 6.61955C83.8623 6.44172 83.8665 5.75413 83.8695 5.25207C83.8711 5.00828 83.8722 4.79764 83.8708 4.75171C83.8626 4.52545 83.7078 4.5009 83.6415 4.5009H83.3009C83.1617 4.5009 83.0568 4.61596 83.0568 4.76834C83.0568 4.87513 83.054 5.2334 83.0512 5.57165C83.0488 5.87382 83.0465 6.15992 83.0465 6.23651C83.0465 6.39206 83.0465 6.439 83.1606 6.57046C83.2637 6.68766 84.8506 7.84586 85.5282 8.34034C85.7975 8.53706 85.9922 8.67904 86.0495 8.72259C86.2794 8.89658 86.5534 9.16877 86.5534 9.47716C86.5534 9.54582 86.5513 9.94946 86.5482 10.5001C86.5407 11.8991 86.5281 14.241 86.533 14.4574C86.5489 15.1524 85.9911 15.9064 85.4479 15.9243C85.3807 15.9261 85.1275 15.9272 84.6741 15.9272ZM92.771 15.8463C92.2791 15.8463 91.629 15.845 91.0366 15.844C90.2637 15.8424 89.5878 15.841 89.4957 15.8431L89.4792 15.8433C89.2347 15.8433 88.9308 15.7187 88.6861 15.5182C88.4016 15.2848 88.245 14.9934 88.245 14.6974C88.245 14.537 88.2422 13.5409 88.2395 12.6007C88.2371 11.7601 88.2348 10.9639 88.2348 10.8492C88.2348 10.4721 88.3684 10.2808 88.6319 10.2808H90.6708C91.0275 10.2808 91.0969 10.4908 91.1176 10.6962C91.1318 10.8412 91.1209 11.7803 91.1083 12.7297C91.1053 12.9631 91.103 13.1371 91.103 13.1888C91.103 13.3048 91.1323 13.5016 91.2417 13.5016C91.3061 13.5016 91.3622 13.5022 91.4147 13.5026C91.4603 13.5031 91.5033 13.5036 91.5468 13.5036H91.5471C91.5928 13.5036 91.6391 13.503 91.6898 13.5016C91.7611 13.4992 91.8269 13.3795 91.8421 13.2236C91.8606 13.0391 91.8715 10.9443 91.8715 10.5909C91.8715 10.3793 91.8457 10.3526 91.7359 10.2735C91.6216 10.191 89.7017 8.74556 88.8819 8.12822L88.5 7.8411C88.3733 7.74823 88.2298 7.64291 88.2298 7.32468C88.2293 7.13485 88.2207 3.40334 88.224 3.25628C88.2387 2.63747 88.6406 1.97137 89.357 1.95587C89.4811 1.9535 89.9066 1.95135 90.4675 1.95044C90.5405 1.95044 90.579 1.99321 90.5974 2.01391C90.6084 2.02601 90.6187 2.03755 90.6787 2.03869C90.697 2.00905 90.7372 1.95101 90.8302 1.94988L90.8722 1.94909C90.9142 1.94795 90.9565 1.94705 90.9988 1.94988C91.0653 1.95452 91.1116 1.98608 91.1455 2.00916C91.1619 2.02036 91.1737 2.02805 91.1847 2.0328C91.2044 1.99932 91.245 1.94954 91.3252 1.94954H91.4425C91.9686 1.94954 93.2145 1.95022 93.4236 1.95599C93.9834 1.97092 94.6093 2.41868 94.6093 2.99518C94.6093 3.28037 94.6156 4.1786 94.6211 4.97106C94.6253 5.58195 94.629 6.12383 94.629 6.25642C94.629 6.4347 94.629 6.85226 94.2052 6.86346C93.9439 6.87036 92.5003 6.87036 92.4856 6.87036C92.4693 6.87036 92.4527 6.8707 92.4363 6.87092C92.4181 6.87126 92.3972 6.87002 92.382 6.87149C92.2761 6.87149 91.9973 6.8707 91.9721 6.53788C91.9586 6.36027 91.9627 5.67392 91.9658 5.17288C91.9672 4.92796 91.9684 4.71641 91.9669 4.67014C91.9585 4.44423 91.8038 4.4199 91.7377 4.4199H91.3971C91.2579 4.4199 91.1527 4.53473 91.1527 4.68689C91.1527 4.79368 91.15 5.15229 91.1472 5.49077C91.1448 5.79293 91.1426 6.07892 91.1426 6.15505C91.1426 6.31083 91.1426 6.35778 91.2565 6.48901C91.3596 6.60632 92.9434 7.76214 93.6196 8.25583C93.8915 8.45426 94.088 8.59759 94.1458 8.64137C94.3755 8.81547 94.6494 9.08788 94.6494 9.39593C94.6494 9.46301 94.6473 9.84652 94.6446 10.3741C94.6417 10.9452 94.6376 11.6848 94.6345 12.3739C94.6335 12.517 94.5174 12.5951 94.4242 12.6578C94.3759 12.6904 94.3213 12.7272 94.3087 12.7572C94.2304 12.9403 94.1915 13.1287 94.2181 13.1957C94.2275 13.219 94.2374 13.2247 94.2707 13.2408C94.3148 13.2622 94.4066 13.3069 94.4036 13.4398C94.3999 13.6044 94.3042 13.649 94.2528 13.6729C94.244 13.6767 94.2355 13.681 94.2275 13.6861C94.2276 13.6861 94.2222 13.6956 94.2213 13.7251C94.2194 13.7921 94.2455 13.812 94.3846 13.8505C94.4792 13.8769 94.6373 13.9209 94.6286 14.0864C94.6217 14.2253 94.6258 14.2991 94.6281 14.3433C94.6289 14.3559 94.6294 14.3664 94.6296 14.3757C94.6455 15.0714 94.0879 15.8255 93.545 15.8432C93.4775 15.8453 93.2244 15.8463 92.771 15.8463ZM99.2179 17.9428C98.9836 17.9428 98.6322 17.798 98.6235 17.3988C98.619 17.1616 98.6037 15.6565 98.6037 15.4583C98.6037 15.0752 98.7658 14.7646 98.9073 14.5369C99.031 14.3364 102.438 8.35323 102.517 8.19836C102.649 7.93658 102.696 7.61191 102.696 7.39527C102.696 7.28372 102.695 6.71888 102.694 6.17315C102.694 5.66216 102.693 5.16745 102.693 5.07593C102.693 4.99437 102.693 4.91337 102.672 4.86732C102.664 4.8499 102.649 4.81743 102.551 4.81743L102.54 4.81755C102.383 4.82173 102.334 4.8206 102.243 4.81879L102.158 4.81743C101.985 4.81743 101.969 4.8525 101.969 4.95273L101.97 5.28759C101.971 5.90425 101.973 7.05204 101.969 7.224C101.966 7.3817 101.955 7.86215 101.515 7.86215C101.425 7.86215 100.92 7.86452 100.397 7.8669C99.8391 7.86961 99.2613 7.87221 99.1509 7.87221C98.8747 7.87221 98.5776 7.71927 98.5776 7.38328C98.5776 7.2068 98.5817 5.6608 98.5846 4.61234C98.5846 4.47296 98.7411 4.46312 98.7925 4.45995C98.8037 4.45927 98.8144 4.45871 98.8242 4.45758C98.8256 4.45746 98.8658 4.45271 98.883 4.43642C98.8749 4.43124 98.8666 4.42622 98.8583 4.42137C98.7929 4.38235 98.6835 4.31741 98.6828 4.17103C98.6822 4.06921 98.7655 4.0312 98.7969 4.01695L98.8014 4.01502C98.7966 3.94859 98.7892 3.88237 98.7795 3.81648C98.7794 3.81648 98.7652 3.78616 98.6671 3.75517C98.6219 3.74216 98.5891 3.69815 98.5877 3.64656C98.5822 3.24428 98.7791 2.80003 99.1141 2.45646C99.4281 2.13484 99.7998 1.9656 100.158 1.98268C100.283 1.98902 100.6 1.99219 101.1 1.99219C101.52 1.99219 102.061 1.99004 102.752 1.9854C102.835 1.9854 102.906 2.05079 102.959 2.09842L102.975 2.11301C102.997 2.13156 103.04 2.14412 103.083 2.14412C103.095 2.14412 103.104 2.14344 103.112 2.14208L103.114 2.13394C103.125 2.09231 103.155 1.98178 103.271 1.98178H103.324C103.588 1.98178 103.802 1.97861 103.93 1.97658L104.04 1.97533C105.028 1.97533 106.237 2.92674 106.241 4.03731C106.243 4.56007 106.224 7.8876 106.218 8.27608C106.21 8.77045 106.108 9.19524 105.917 9.53904L105.898 9.57184C105.558 10.191 105.207 10.8044 104.847 11.4117C104.822 11.4525 104.748 11.577 104.624 11.577C104.592 11.577 104.563 11.5683 104.537 11.5556C104.606 11.6284 104.653 11.6998 104.604 11.7784C104.503 11.9363 104.356 11.9522 104.269 11.9613C104.251 11.9634 104.226 11.9658 104.218 11.9688C104.201 11.9769 104.146 12.0028 104.132 12.1483C104.127 12.2044 104.107 12.2716 104.085 12.3427C104.071 12.3897 104.048 12.4682 104.048 12.4919C104.051 12.5416 104.059 12.5646 104.067 12.5868C104.101 12.6808 104.089 12.7362 104.003 12.8829C103.631 13.519 103.264 14.1589 102.904 14.8023C102.791 15.0052 102.793 15.0963 102.804 15.1142C102.806 15.1177 102.821 15.1276 102.866 15.1276C102.99 15.1276 103.631 15.1222 104.251 15.1168C104.842 15.1119 105.4 15.1072 105.503 15.1072C105.869 15.1072 106.057 15.2356 106.064 15.4887C106.069 15.6615 106.064 16.4236 106.061 16.9278C106.059 17.1417 106.058 17.3116 106.058 17.3754V17.3879C106.058 17.59 106.058 17.8953 105.644 17.9219C105.342 17.9413 99.2789 17.9428 99.2179 17.9428ZM33.3802 15.0903C33.3473 15.0903 33.3149 15.0849 33.2839 15.0746C32.5607 14.8333 30.1632 13.8235 29.6855 10.9666C29.6516 10.764 29.6795 10.6074 29.7682 10.5013C29.8655 10.3848 30.0024 10.3674 30.0752 10.3674C30.0934 10.3674 30.1068 10.3685 30.1137 10.3692C30.201 10.3734 31.8179 10.4516 32.0043 10.4809C32.0269 10.4844 32.0501 10.4872 32.0733 10.4899C32.2316 10.5083 32.4483 10.5337 32.5917 10.8343C32.7596 11.1863 33.2191 11.8241 33.7149 12.1401C33.9568 12.2948 33.9794 12.3934 33.9647 12.7157C33.9517 13.0067 33.8388 14.4592 33.8104 14.6637C33.7819 14.8658 33.5983 15.0903 33.3802 15.0903ZM32.4401 9.20011C32.3968 9.20011 32.3476 9.19773 32.2914 9.19513L32.2437 9.19287C31.9516 9.17929 30.3527 9.07702 30.163 9.0501C30.0337 9.03143 29.9658 8.96062 29.9315 8.90473C29.8719 8.80744 29.8639 8.67135 29.9098 8.53152C30.0767 8.02075 30.4236 7.25986 31.1291 6.53516C31.1778 6.48471 31.2618 6.48957 31.3759 6.51174C31.4248 6.52125 31.4803 6.53211 31.5215 6.53211C31.5343 6.53211 31.5426 6.53098 31.5474 6.52996C31.5534 6.50631 31.5441 6.44364 31.5389 6.4088C31.5263 6.32316 31.5121 6.22632 31.5605 6.14815C31.6271 6.04181 31.7174 5.98785 31.8291 5.98785C31.8944 5.98785 31.9559 6.00618 32.0103 6.02247C32.043 6.0322 32.0742 6.04147 32.0991 6.04475C32.0984 6.03951 32.0978 6.03427 32.0971 6.02903C32.0843 5.93004 32.0651 5.7806 32.1796 5.69745C32.7244 5.30433 33.2249 5.16394 34.0143 5.0291C34.2312 4.99222 34.3921 5.03453 34.4904 5.15286C34.6024 5.28759 34.585 5.46724 34.5788 5.51068C34.5716 5.66532 34.493 7.12942 34.4647 7.31461C34.4612 7.33735 34.4586 7.36043 34.4559 7.38373C34.4378 7.54403 34.4129 7.76339 34.1151 7.90808C33.9291 7.99881 33.4573 8.25628 33.0943 8.68549C33.0803 8.70252 33.0628 8.71624 33.043 8.72569C33.0232 8.73513 33.0016 8.74006 32.9797 8.74013C32.9297 8.74013 32.8823 8.71581 32.8391 8.66761C32.8121 8.63718 32.7937 8.59612 32.7722 8.54849C32.7471 8.49272 32.7002 8.38864 32.6595 8.38864C32.652 8.38893 32.6447 8.39046 32.6378 8.39317C32.6237 8.39803 32.6072 8.40335 32.5893 8.40912C32.5341 8.4271 32.3952 8.4719 32.3716 8.52044C32.4037 8.54883 32.4912 8.59193 32.5459 8.61886C32.6993 8.69443 32.858 8.77248 32.8205 8.9165C32.76 9.1518 32.6246 9.20011 32.4401 9.20011ZM39.4525 9.77434C39.4413 9.77434 39.4327 9.77378 39.4274 9.77321C39.3831 9.7714 39.2396 9.76823 39.0504 9.76382C38.3513 9.74787 37.6584 9.73079 37.5359 9.71155C37.506 9.70692 37.4711 9.70522 37.434 9.7033C37.2696 9.69481 37.0446 9.68316 36.8969 9.40645C36.7157 9.06718 36.4508 8.6356 36.0062 8.30809C35.7751 8.13795 35.7684 8.03218 35.7821 7.72334C35.785 7.66112 35.7898 7.54335 35.7959 7.39403C35.8277 6.62702 35.8632 5.79667 35.8834 5.6539C35.9109 5.45909 36.084 5.31214 36.2862 5.31214C36.3355 5.31214 36.3834 5.32119 36.4285 5.33906C36.7095 5.45069 36.9841 5.57805 37.251 5.72053C37.3434 5.76985 37.3694 5.8573 37.385 5.90945C37.3876 5.91828 37.3913 5.93038 37.3943 5.93841C37.4036 5.93966 37.4209 5.94056 37.4453 5.94056H37.4779C37.548 5.94056 37.6284 5.94475 37.697 5.99611C38.7096 6.75124 39.3521 7.75841 39.7191 9.16617C39.7773 9.38937 39.7657 9.55634 39.6847 9.66246C39.6306 9.7335 39.546 9.77434 39.4525 9.77434ZM35.5445 15.2071C35.4119 15.2071 35.31 15.1671 35.2416 15.0887C35.1529 14.9868 35.1584 14.8601 35.1612 14.8296C35.1652 14.7467 35.2406 13.1186 35.2689 12.9311C35.2736 12.8991 35.2748 12.8581 35.276 12.8145C35.2808 12.6385 35.2881 12.3727 35.5685 12.236C36.0065 12.0224 36.3625 11.6994 36.6268 11.276C36.7524 11.075 36.8649 11.0135 37.1083 11.0135C37.1447 11.0135 37.1848 11.0148 37.2293 11.0169C37.4919 11.0287 39.0121 11.1111 39.2101 11.1395C39.3408 11.1582 39.4652 11.2441 39.5346 11.3633C39.5942 11.4659 39.6065 11.5825 39.5684 11.683C39.4739 11.9305 39.3601 12.2068 39.1673 12.5483C39.1161 12.6392 39.0284 12.6661 38.958 12.6877C38.919 12.6997 38.8822 12.7109 38.8622 12.73C38.7827 12.8063 38.7066 12.9089 38.6331 13.0083L38.6242 13.0203C38.615 13.0392 38.6132 13.1197 38.6123 13.1677C38.6099 13.2808 38.6075 13.3876 38.5484 13.4581C38.0942 14.0044 37.5508 14.4401 36.9332 14.7524C36.9042 14.767 36.8739 14.7745 36.8431 14.7745C36.7764 14.7745 36.7238 14.7401 36.6773 14.7098C36.6245 14.6755 36.5747 14.6429 36.4951 14.6429C36.4211 14.6429 36.3491 14.7164 36.31 14.7796C36.2986 14.7981 36.2871 14.8225 36.2746 14.8484C36.2281 14.9451 36.17 15.0653 36.059 15.0983C35.9547 15.129 35.8568 15.1551 35.7598 15.1784C35.6809 15.1974 35.6085 15.2071 35.5445 15.2071Z" fill="#1F1F1F"/>
</g>
<path d="M2.52087 2.19521C2.76251 2.18526 7.4136 2.19193 7.62715 2.19193C7.88121 2.19193 8.07483 2.24906 8.07808 2.59693C8.08099 2.89547 8.0849 4.19372 8.0849 4.38264C8.0849 4.57157 7.97142 4.74363 7.78428 4.74363C7.5976 4.74363 6.90615 4.73719 6.74577 4.73719C6.58539 4.73719 6.45187 4.76388 6.45187 5.00711L6.45534 17.0286C6.45534 17.3524 6.38841 17.5621 6.04089 17.5585C5.71934 17.5551 4.31765 17.5652 4.10388 17.5719C3.89022 17.5785 3.62016 17.4604 3.61635 17.1059C3.61501 16.972 3.61636 14.9389 3.61815 12.5829C3.61848 12.4155 3.77237 12.4096 3.94104 12.4015C4.14249 12.3916 4.01558 12.1906 4.09694 12.0994C4.15861 12.0302 4.26583 12.0959 4.30814 12.0174C4.33847 11.9607 4.3341 11.6497 4.14899 11.5344C3.99778 11.441 3.63124 11.3884 3.62609 11.2292C3.61636 10.9271 3.62184 10.5792 3.6205 10.2803C3.6196 10.1061 3.78177 9.97815 3.78177 9.87645C3.78177 9.78833 3.71999 9.77667 3.71999 9.68911C3.71999 9.61863 4.00595 9.64963 4.00595 9.57983C4.00595 9.51241 3.85956 9.42326 3.76555 9.33796C3.71126 9.28887 3.62251 9.21624 3.62106 9.08083C3.59822 6.94317 3.62419 5.19501 3.62285 5.11175C3.61938 4.85529 3.56924 4.76377 3.32581 4.76049C3.01412 4.75811 2.70241 4.75705 2.39071 4.75732C2.18354 4.75732 2.07666 4.59871 2.07666 4.38275C2.07666 4.16668 2.07744 2.78517 2.08326 2.64761C2.09334 2.41117 2.19351 2.20856 2.52087 2.19521ZM9.56136 2.6915C9.55924 2.85734 9.54301 8.60682 9.54122 12.3524C9.54122 12.4165 9.59807 12.4426 9.64508 12.4795C9.67731 12.5049 9.7448 12.5903 9.757 12.6295C9.77065 12.6725 9.78084 12.9535 9.74469 12.9596C9.66433 12.9726 9.69287 12.8468 9.62124 12.8492C9.57513 12.8505 9.54099 12.9565 9.54099 13.0023C9.54099 14.4183 9.5439 15.4259 9.55106 15.5159C9.57804 15.8397 9.71122 15.9241 9.92488 15.9241C10.1386 15.9241 13.318 15.9173 13.5052 15.9173C13.7189 15.9173 13.8225 15.7656 13.8258 15.5394C13.8292 15.3231 13.8324 14.503 13.8324 14.3139C13.8324 14.0471 13.692 13.8343 13.4417 13.8307C13.2547 13.8287 12.6302 13.8278 12.443 13.8278C12.2561 13.8278 12.1642 13.7619 12.1577 13.5522C12.1535 13.3305 12.1518 13.1087 12.1528 12.887C12.153 12.7764 12.0043 12.8565 11.9756 12.7179C11.9663 12.6715 11.9555 12.526 11.9743 12.4805C11.9954 12.4299 12.1561 12.4171 12.1597 12.3025C12.1905 11.3246 12.1736 10.1116 12.1726 9.96209C12.1707 9.70223 12.1908 9.46105 12.4579 9.46105C12.7249 9.46105 13.2624 9.46082 13.4249 9.45596C13.5954 9.45087 13.8355 9.26851 13.8456 9.01544C13.8543 8.79744 13.8658 7.74275 13.8555 7.55191C13.8456 7.36457 13.7504 7.21275 13.5098 7.21275C13.2695 7.21275 12.6681 7.19748 12.493 7.19748C12.3569 7.19748 12.1523 7.12633 12.1474 6.89837C12.1439 6.73649 12.1425 4.8123 12.1425 4.65019C12.1425 4.48808 12.2428 4.27743 12.4297 4.27743C12.4993 4.27743 12.6329 4.27574 12.7833 4.2737C12.8611 4.27257 12.8758 4.17981 12.9052 4.10458C12.9314 4.03907 13.0358 4.03149 13.1023 4.04111C13.1847 4.05288 13.2246 4.26329 13.3026 4.26465C13.3678 4.26522 13.4218 4.2616 13.4583 4.26046C13.669 4.25345 13.8422 4.0643 13.8457 3.84845C13.8483 3.68442 13.8424 2.76005 13.839 2.56898C13.8356 2.37689 13.7253 2.21433 13.4582 2.21433C13.1912 2.21433 10.3001 2.20811 10.0583 2.21105C9.76483 2.21546 9.56483 2.41807 9.56136 2.6915ZM21.5745 15.4316C21.521 15.0805 19.8629 3.10758 19.8142 2.83664C19.7409 2.42474 19.5472 2.30291 19.2499 2.29974C19.0629 2.29759 17.3929 2.28311 17.1759 2.28956C16.9088 2.29815 16.7552 2.61378 16.7216 2.82307C16.696 2.98563 15.1927 15.428 15.1617 15.7016C15.131 15.9787 15.2954 16.0257 15.5359 16.0257C15.7764 16.0257 17.0053 16.0257 17.2725 15.9987C17.5395 15.9719 17.6433 15.7508 17.6433 15.4419C17.6433 15.2528 17.6732 13.8923 17.6732 13.6224C17.6732 13.3524 17.8601 13.2983 18.0207 13.2983C18.1807 13.2983 18.4379 13.2949 18.6517 13.2949C19.0055 13.2949 19.0385 13.5551 19.0624 13.7846C19.0892 14.0406 19.0646 15.361 19.0707 15.5782C19.0807 15.9429 19.3547 15.9922 19.57 15.9987C19.8004 16.0058 21.083 16.0224 21.3501 16.0224C21.6177 16.0226 21.628 15.7831 21.5745 15.4316ZM18.5725 10.8542C18.4098 10.8973 18.2769 10.9022 18.1418 10.8793C18.0238 10.8598 17.8863 10.7785 17.9039 10.5328C17.9173 10.3424 18.2053 7.73189 18.2345 7.59976C18.2579 7.49546 18.3412 7.43788 18.4217 7.59976C18.4542 7.66572 18.5062 8.12309 18.5581 8.65705C18.5676 8.75853 18.5645 8.8066 18.6262 8.90152C18.676 8.97833 18.9858 9.13784 18.9923 9.19961C19.0049 9.3167 18.6152 9.26919 18.628 9.42225C18.674 9.96334 18.7118 10.4291 18.7178 10.5072C18.7328 10.6975 18.7239 10.8142 18.5725 10.8542ZM59.9251 2.26716C59.9982 2.2641 60.443 2.26343 61.0314 2.26207C61.1367 2.26207 61.0948 2.42927 61.1788 2.4373C61.4213 2.46015 61.7509 2.56774 62.0195 2.49839C62.1211 2.47226 62.1435 2.26195 62.2361 2.26218C63.3731 2.26218 64.5227 2.26399 64.631 2.26399C64.8847 2.26399 65.0783 2.32135 65.0817 2.66933C65.0848 2.96764 65.0739 4.34045 65.0739 4.52971C65.0739 4.71863 64.9602 4.97192 64.7732 4.97192C64.5861 4.97192 64.0554 4.96502 63.8947 4.96502C63.7344 4.96502 63.6011 4.99206 63.6011 5.23506C63.6011 5.31832 63.6014 6.50808 63.6021 8.04956C63.6021 8.15884 63.4681 8.26359 63.4681 8.37593C63.4681 8.46553 63.5571 8.56349 63.5571 8.6549C63.5571 8.73013 63.6024 8.80514 63.6024 8.88184C63.6031 10.5172 63.5902 12.3719 63.6041 13.6973C63.6059 13.8691 63.4245 13.7628 63.3557 13.7677C63.2584 13.7739 63.148 13.9153 63.148 14.0136C63.148 14.1548 63.3735 14.1717 63.4827 14.1452C63.6136 14.1135 63.6048 14.315 63.6048 14.3718L63.6049 15.4741C63.6049 15.7978 63.5379 16.0073 63.1907 16.0041C62.8694 16.0007 61.4675 16.011 61.2537 16.0174C61.0399 16.024 60.7697 15.9061 60.7662 15.5514C60.7632 15.2276 60.7757 5.55543 60.7732 5.33959C60.7698 5.08324 60.7194 4.99206 60.4759 4.98867C60.2444 4.98603 60.0128 4.98479 59.7812 4.98493C59.5738 4.98493 59.4669 4.74522 59.4669 4.52926C59.4669 4.3133 59.4827 2.85734 59.4882 2.71967C59.4977 2.48312 59.5979 2.28073 59.9251 2.26716ZM74.4568 2.68811C74.4536 2.9311 74.42 15.1891 74.4466 15.5126C74.4734 15.8368 74.6369 15.9249 74.8506 15.9249C75.0646 15.9249 78.2437 15.9181 78.4311 15.9181C78.6444 15.9181 78.7483 15.7664 78.7514 15.5401C78.7547 15.3239 78.7579 14.5037 78.7579 14.3146C78.7579 14.0478 78.6179 13.8351 78.3672 13.8314C78.1804 13.8294 77.5558 13.8284 77.3689 13.8284C77.1815 13.8284 77.0896 13.7627 77.083 13.5532C77.0753 13.3085 77.0999 10.2075 77.0981 9.96266C77.0964 9.7028 77.1168 9.46162 77.3838 9.46162C77.6506 9.46162 78.1884 9.4615 78.3505 9.45652C78.5212 9.45143 78.7613 9.26907 78.7714 9.01601C78.7799 8.79801 78.7918 7.74343 78.7815 7.55259C78.7714 7.36514 78.6763 7.21343 78.4358 7.21343C78.1953 7.21343 77.5942 7.19816 77.419 7.19816C77.2826 7.19816 77.0785 7.12712 77.0733 6.89905C77.0695 6.73716 77.0683 4.81298 77.0683 4.65087C77.0683 4.48876 77.1686 4.27811 77.3555 4.27811C77.5424 4.27811 78.1973 4.26691 78.3842 4.26126C78.5947 4.25424 78.7681 4.06509 78.7717 3.84925C78.7742 3.68521 78.7679 2.76085 78.7651 2.56978C78.7613 2.37769 78.6515 2.21523 78.3842 2.21523C78.117 2.21523 75.2262 2.20901 74.9842 2.21195C74.6906 2.21546 74.4602 2.41445 74.4568 2.68811ZM40.6823 10.8946C40.6805 10.6346 40.7266 10.3671 40.9937 10.3671C41.2611 10.3671 41.5297 10.3671 41.6921 10.3622C41.8624 10.3571 42.077 10.201 42.0871 9.94795C42.0956 9.73018 42.1071 8.46077 42.097 8.27015C42.0871 8.08259 41.9915 7.93077 41.7512 7.93077C41.5106 7.93077 41.2044 7.94175 41.029 7.94175C40.8929 7.94175 40.6882 7.89706 40.6833 7.66911C40.6798 7.50722 40.6782 5.09704 40.6782 4.93493C40.6782 4.77316 40.7786 4.56195 40.9655 4.56195C41.1525 4.56195 41.5668 4.55132 41.7539 4.54487C41.9644 4.53819 42.1378 4.34927 42.1412 4.1332C42.1438 3.96905 42.1378 2.72091 42.1348 2.52939C42.1311 2.3373 42.0211 2.17496 41.7539 2.17496C41.4866 2.17496 38.5155 2.16885 38.2736 2.17179C37.9798 2.17496 37.7752 2.37418 37.7721 2.64761C37.7718 2.68109 37.764 2.97477 37.7693 3.45715C37.7709 3.59867 37.9303 3.49324 37.9268 3.661C37.9238 3.81848 37.7676 3.71338 37.7683 3.88115C37.7796 7.34443 37.7398 16.9064 37.7617 17.1737C37.7886 17.4975 37.9522 17.5859 38.1663 17.5859C38.3798 17.5859 40.1748 17.5893 40.3617 17.5893C40.5754 17.5893 40.6788 17.4369 40.6825 17.2111C40.6825 17.2111 40.6761 15.8799 40.6828 14.4396C40.6836 14.289 40.4995 14.3527 40.4452 14.3521C40.3176 14.3501 40.3019 14.2281 40.348 14.1181C40.454 13.8642 40.6484 13.8814 40.6532 13.7303C40.6597 13.5266 40.5648 13.704 40.5601 13.518C40.5557 13.3427 40.69 13.3627 40.6831 13.2094C40.6437 12.3613 40.6852 11.3399 40.6823 10.8946ZM23.2343 2.77917C23.2307 2.58358 23.274 2.35053 23.5147 2.34714C23.6751 2.34499 26.189 2.33062 26.3503 2.33719C26.5241 2.34386 26.711 2.489 26.7512 2.67148C26.7911 2.8535 27.317 5.88667 27.3574 6.0489C27.3974 6.21101 27.5325 6.24608 27.5727 6.05399C27.6191 5.83237 28.1151 2.79286 28.1341 2.67136C28.1638 2.47543 28.3078 2.33356 28.5014 2.32712C28.643 2.32202 31.1195 2.34703 31.2598 2.34703C31.5256 2.34703 31.801 2.48369 31.811 2.732C31.8192 2.93529 31.9563 15.2393 31.9563 15.4823C31.9563 15.7254 31.8607 15.8672 31.7207 15.8875C31.5804 15.908 29.737 15.8976 29.5967 15.8976C29.4564 15.8976 29.3309 15.8117 29.3309 15.6094V10.186C29.3309 10.0038 29.2258 9.91254 29.1558 10.1656C29.0953 10.3838 28.2822 15.1587 28.2341 15.3712C28.179 15.6143 28.1538 15.8215 27.9734 15.8215C27.7933 15.8215 27.2522 15.8167 27.0918 15.8167C26.9317 15.8167 26.8246 15.7142 26.7763 15.528C26.7263 15.3359 25.7191 10.4192 25.6842 10.2416C25.6519 10.0779 25.509 10.0646 25.4887 10.2467C25.4689 10.4294 25.4589 15.3106 25.4589 15.5128C25.4589 15.7159 25.389 15.797 25.2086 15.797C25.0284 15.797 23.6557 15.8525 23.4552 15.832C23.2549 15.812 23.2398 15.6803 23.2398 15.5183C23.2398 15.4036 23.2026 9.05956 23.2358 5.36912C23.2374 5.20463 23.5296 5.29671 23.5296 5.13924C23.5296 5.04715 23.3426 5.04059 23.3478 4.92893C23.3543 4.78424 23.5427 4.85834 23.5424 4.76445C23.5424 4.68605 23.2353 4.45821 23.2353 4.38377C23.2345 3.4102 23.2343 2.7837 23.2343 2.77917ZM50.2365 3.77176C50.2433 2.96154 49.4416 2.03649 48.3596 2.04328C48.0125 2.04565 46.2155 2.03638 45.5741 2.03638C44.7458 2.03638 43.8643 2.64387 43.8307 3.66338C43.8117 4.24553 43.7826 11.4438 43.7736 13.7038C43.7729 13.8972 44.1966 14.0804 44.1962 14.1943C44.1959 14.297 43.7706 14.2012 43.7706 14.3647C43.773 15.7153 44.5456 15.9313 45.1336 15.9447C45.5886 15.9551 48.4994 15.9614 48.9542 15.9513C49.5622 15.9377 50.2299 15.3166 50.2234 14.277C50.2212 13.9878 50.2284 10.1491 50.2296 7.18096C50.2298 7.03922 50.0336 7.09058 50.0337 7.01682C50.0337 6.92598 50.076 6.78355 50.1085 6.69508C50.1263 6.64655 50.2307 6.58512 50.2307 6.53421C50.2307 6.4307 50.2307 6.32878 50.2311 6.22877C50.2319 6.0972 50.1279 6.08295 50.128 6.00546C50.128 5.91496 50.2254 5.93305 50.2319 5.72637C50.2346 5.64481 50.2386 5.5939 50.1053 5.59797C49.9982 5.6017 50.0435 5.42115 50.0241 5.36199C49.9984 5.28359 49.6764 5.08777 49.6764 5.0105C49.6764 4.96367 49.712 4.9174 49.7123 4.87271C49.7123 4.84036 49.6797 4.79409 49.6797 4.72519C49.6797 4.69397 50.1064 4.69589 50.1344 4.68571C50.1895 4.66603 50.1833 4.62553 50.1833 4.58706C50.1833 4.50188 50.0565 4.57745 50.0598 4.47575C50.0621 4.40142 50.2354 4.37042 50.2354 4.26872C50.2349 4.03093 50.2359 3.83669 50.2365 3.77176ZM47.391 13.3656C47.3643 13.5816 47.2575 13.6494 47.1239 13.6494C46.9902 13.6494 46.8232 13.6562 46.6963 13.6494C46.5861 13.6437 46.4492 13.629 46.4225 13.3863C46.4147 13.3172 46.4108 12.6118 46.4094 11.6336L46.4093 11.3739C46.4087 11.2605 46.4087 11.1446 46.4087 11.0262C46.4069 8.53838 46.4159 4.96197 46.4159 4.81841C46.4159 4.6089 46.4825 4.4805 46.743 4.4805C46.85 4.4805 47.0405 4.48751 47.1506 4.48751C47.2777 4.48751 47.4444 4.5684 47.4444 4.78436C47.4445 5.00055 47.4179 13.1498 47.391 13.3656ZM55.7071 15.647C55.7 15.6435 55.6934 15.6374 55.6838 15.6336C55.6692 15.6293 55.6657 15.6291 55.6528 15.6336C55.6397 15.6381 55.5119 15.6251 55.5096 15.6733C55.5284 15.8151 55.6098 15.9566 55.8343 15.9643C55.85 15.9635 55.9171 15.9014 55.9103 15.8875C55.844 15.823 55.7822 15.9186 55.7166 15.8188C55.6901 15.7792 55.7233 15.6551 55.7071 15.647Z" fill="#1F1F1F"/>
<path d="M57.3035 9.03112C57.4638 8.90973 58.2584 8.5113 58.292 7.47154C58.2982 7.28534 58.3036 6.08788 58.3044 5.07053C58.3044 4.99801 58.0927 4.92629 58.0927 4.85592V4.80128C58.0927 4.74483 58.3044 4.68928 58.3044 4.63487C58.3038 4.17897 58.3021 3.80757 58.2986 3.65688C58.2854 3.10312 57.7843 2.26598 56.8023 2.27922C56.542 2.28295 52.8515 2.261 52.5509 2.261C52.1652 2.261 52.0449 2.67109 52.0449 2.89361C52.0449 3.01545 52 15.2141 52 15.4973C52 15.7814 52.0947 15.8873 52.3557 15.9025C52.6163 15.9179 53.9639 15.9025 54.2242 15.9025C54.4849 15.9025 54.5448 15.614 54.5448 15.4115C54.5448 15.209 54.5649 11.1175 54.5649 10.9148C54.5649 10.712 54.7152 10.6616 54.8555 10.6616C54.9957 10.6616 55.0961 10.6701 55.2413 10.6668C55.4516 10.6616 55.5367 10.7578 55.5367 11.082C55.5367 11.3451 55.5166 15.1377 55.5166 15.4212C55.5166 15.437 55.5138 15.4697 55.5289 15.4714C55.5554 15.472 55.5676 15.4197 55.5776 15.3896C55.6189 15.2495 55.8066 15.2045 55.832 15.3578C55.8436 15.4298 55.9501 15.5147 55.9968 15.57C56.054 15.6379 56.1715 15.7037 56.2111 15.7836C56.2264 15.8141 56.2154 15.9191 56.249 15.9174C56.7834 15.925 57.7244 15.9421 57.9467 15.9381C58.2274 15.933 58.2773 15.786 58.2773 15.4011C58.2773 15.0161 58.2773 10.915 58.2724 10.3885C58.2673 9.86657 57.4909 9.50399 57.2906 9.42276C57.0896 9.34177 57.1432 9.15262 57.3035 9.03112ZM55.7146 7.24631C55.6746 7.54994 55.5321 7.96388 55.3278 7.96659C55.1181 7.96897 54.9678 7.96659 54.7864 7.96387C54.6038 7.96138 54.6125 7.7538 54.6125 7.57177C54.6125 7.38941 54.6098 4.79812 54.6098 4.79812C54.6098 4.55489 54.6538 4.39651 54.8203 4.39798C54.9805 4.39911 54.919 4.39742 55.0808 4.40307C55.2612 4.40941 55.7258 4.78126 55.727 5.041C55.7283 5.28467 55.7546 6.94245 55.7146 7.24631ZM71.6512 9.05838C71.8114 8.93666 72.6062 8.53856 72.6396 7.49869C72.6493 7.19427 72.6585 4.19028 72.6462 3.68369C72.6335 3.13027 72.1321 2.29313 71.1501 2.30671C70.8899 2.31021 67.1993 2.28804 66.8987 2.28804C66.5133 2.28804 66.3929 2.69847 66.3929 2.92144L66.386 4.89574C66.3851 4.98409 66.5457 5.08851 66.55 5.22879C66.5516 5.28467 66.3812 5.21996 66.3812 5.32042C66.3812 5.36115 66.3843 5.41941 66.3839 5.4607C66.3837 5.55675 66.6103 5.65008 66.6103 5.74963C66.6103 5.8502 66.3811 5.7847 66.3823 5.91638C66.414 9.58194 66.3475 15.3313 66.3475 15.5251C66.3475 15.8086 66.4426 15.915 66.7032 15.9303C66.9635 15.9455 68.3114 15.9303 68.5719 15.9303C68.8326 15.9303 68.8927 15.6416 68.8927 15.4392C68.8927 15.2366 68.9127 11.1451 68.9127 10.9422C68.9127 10.7398 69.063 10.6891 69.2034 10.6891C69.3435 10.6891 69.4439 10.6975 69.589 10.6942C69.7994 10.6891 69.8845 10.7852 69.8845 11.1094C69.8845 11.3726 69.8644 15.1653 69.8644 15.4491C69.8644 15.7323 69.9747 15.9402 70.2751 15.9402C70.5759 15.9402 72.0129 15.9707 72.294 15.9657C72.575 15.9604 72.6248 15.8136 72.6248 15.4289C72.6248 15.2461 72.6248 14.2274 72.6246 13.1509C72.6238 13.0906 72.6226 13.0957 72.5765 13.083C72.5551 13.0768 72.3459 13.0882 72.3506 12.9846C72.3552 12.8734 72.4096 12.8653 72.4119 12.8079C72.416 12.7287 72.3645 12.7166 72.3647 12.6059C72.3653 12.4023 72.5765 12.4549 72.57 12.2874C72.5656 12.1663 72.6237 12.1446 72.6237 12.0278C72.6229 11.2549 72.6217 10.6049 72.6199 10.4158C72.615 9.89417 71.8386 9.53137 71.6379 9.45014C71.4376 9.36869 71.4909 9.17977 71.6512 9.05838ZM70.0624 7.27346C70.0223 7.57732 69.8797 7.99136 69.6751 7.9934C69.4662 7.99612 69.3159 7.9934 69.1343 7.99125C68.9517 7.98842 68.9604 7.78095 68.9604 7.59836C68.9604 7.41634 68.9577 4.8247 68.9577 4.8247C68.9577 4.58193 69.0018 4.42366 69.168 4.42468C69.3285 4.42615 69.2673 4.42457 69.4287 4.42977C69.6089 4.43622 70.0737 4.80841 70.0749 5.06781C70.0761 5.31194 70.1023 6.9696 70.0624 7.27346ZM80.2345 3.33945C80.2479 2.76589 80.6152 2.15806 81.2633 2.14471C81.357 2.14278 81.6292 2.14097 81.992 2.13984C82.0662 2.13984 82.1251 2.26394 82.2826 2.26213C82.434 2.26066 82.3439 2.14063 82.3981 2.14063C82.5392 2.14041 82.6392 2.14256 82.7913 2.14233C82.8568 2.14233 82.8822 2.23623 83.0185 2.24912C83.1723 2.26383 83.1537 2.14063 83.2119 2.14063C84.1712 2.14041 85.1443 2.13984 85.3244 2.14482C85.8319 2.15817 86.4066 2.57007 86.4066 3.07642C86.4066 3.58301 86.4266 6.0338 86.4266 6.33767C86.4266 6.6413 86.3666 6.83022 86.1058 6.83712C85.8652 6.84346 84.5699 6.84403 84.3894 6.84403C84.2091 6.84403 84.002 6.87446 83.9821 6.6111C83.9618 6.34785 83.9821 4.88907 83.9772 4.74766C83.9672 4.47423 83.7817 4.393 83.6415 4.393H83.3008C83.095 4.393 82.9503 4.56507 82.9503 4.76791C82.9503 4.97018 82.9399 6.07397 82.9399 6.23608C82.9399 6.39819 82.9399 6.47908 83.0805 6.64107C83.2204 6.80341 85.7556 8.63415 85.9857 8.80848C86.2264 8.99073 86.4469 9.23418 86.4469 9.47695C86.4469 9.71995 86.4197 14.1559 86.4264 14.4595C86.4416 15.1177 85.9003 15.8015 85.4444 15.8164C85.1642 15.8259 81.6171 15.8116 81.3968 15.8164C80.9663 15.8267 80.2552 15.3661 80.2552 14.7787C80.2552 14.4746 80.2447 11.173 80.2447 10.9301C80.2447 10.6869 80.2946 10.4694 80.5356 10.4694H82.574C82.8348 10.4694 82.8949 10.5858 82.9149 10.7883C82.9353 10.9907 82.9 13.0673 82.9 13.2696C82.9 13.4718 82.9652 13.6898 83.1454 13.6898C83.3257 13.6898 83.441 13.6949 83.5964 13.6898C83.738 13.6854 83.8319 13.5178 83.8517 13.3151C83.872 13.1128 83.8817 10.9148 83.8817 10.6719C83.8817 10.4291 83.8419 10.3681 83.7016 10.2668C83.5612 10.1654 80.6662 7.9848 80.4954 7.85651C80.3603 7.75515 80.2402 7.68965 80.2402 7.4057C80.2402 7.31645 80.2379 6.89426 80.238 6.35362C80.2382 6.23529 80.3194 6.25158 80.3127 6.16289C80.3062 6.0777 80.2378 6.10089 80.2373 6.03154C80.2368 5.90031 80.6111 6.04693 80.6161 5.88945C80.6202 5.75359 80.536 5.71592 80.5356 5.66399C80.5355 5.59012 80.5779 5.53491 80.5726 5.46036C80.5659 5.37291 80.4815 5.30945 80.4428 5.26578C80.4085 5.2272 80.2353 5.19655 80.2353 5.14564C80.2339 4.24481 80.2333 3.40619 80.2345 3.33945ZM88.3304 3.25879C88.3439 2.68478 88.7106 2.0774 89.359 2.06348C89.4833 2.06111 89.9213 2.05896 90.4675 2.05805C90.5353 2.05783 90.5023 2.14618 90.6883 2.14618C90.7839 2.14618 90.7489 2.05839 90.8313 2.05737C90.8841 2.05681 90.9376 2.05342 90.9915 2.05715C91.0738 2.06292 91.1087 2.14618 91.2126 2.14618C91.2819 2.14618 91.2557 2.05715 91.325 2.05715C92.2746 2.05692 93.2416 2.05862 93.4205 2.06348C93.9282 2.07717 94.5025 2.48884 94.5025 2.99509C94.5025 3.50167 94.5225 5.95247 94.5225 6.25621C94.5225 6.55996 94.4625 6.74877 94.2024 6.75567C93.9608 6.76201 92.6658 6.76257 92.4855 6.76257C92.305 6.76257 92.0981 6.793 92.0781 6.52942C92.058 6.26617 92.0781 4.80795 92.0731 4.66609C92.0629 4.39278 91.8775 4.312 91.7374 4.312H91.3969C91.191 4.312 91.046 4.48373 91.046 4.68668C91.046 4.88873 91.0359 5.99319 91.0359 6.15485C91.0359 6.31696 91.0359 6.39808 91.1761 6.55985C91.316 6.7223 93.8514 8.5527 94.0816 8.72726C94.3221 8.90973 94.5426 9.15251 94.5426 9.39584C94.5426 9.53522 94.5339 11.048 94.5277 12.3734C94.5267 12.5266 94.2669 12.5803 94.2104 12.715C94.1579 12.8375 94.0661 13.1022 94.1191 13.2356C94.1716 13.3672 94.2996 13.3148 94.2969 13.4372C94.2925 13.6342 94.1209 13.5147 94.1147 13.7217C94.1067 14.0148 94.5315 13.901 94.5221 14.0806C94.5132 14.2612 94.5219 14.3362 94.523 14.3785C94.538 15.0367 93.9971 15.7207 93.5414 15.7355C93.2611 15.7449 89.7137 15.7308 89.4933 15.7355C89.0624 15.7457 88.3513 15.2851 88.3513 14.6974C88.3513 14.3936 88.3412 11.0921 88.3412 10.8492C88.3412 10.6057 88.391 10.3884 88.6317 10.3884H90.6707C90.9307 10.3884 90.991 10.5046 91.0115 10.7071C91.0314 10.9097 90.9964 12.9861 90.9964 13.1887C90.9964 13.3907 91.0615 13.6092 91.2416 13.6092C91.422 13.6092 91.5371 13.6136 91.6925 13.6092C91.8345 13.6042 91.928 13.4368 91.9479 13.2341C91.9682 13.0319 91.9779 10.8344 91.9779 10.5909C91.9779 10.3479 91.9381 10.2871 91.7976 10.1857C91.6576 10.0848 88.7626 7.90392 88.5917 7.7754C88.4562 7.67427 88.3363 7.60843 88.3363 7.32459C88.3354 7.04098 88.3271 3.40031 88.3304 3.25879ZM98.6943 3.64376C98.6843 2.91398 99.4215 2.05353 100.153 2.09052C100.451 2.10568 101.736 2.10013 102.753 2.09346C102.801 2.09312 102.871 2.16416 102.906 2.19482C102.976 2.25523 103.101 2.2653 103.174 2.23724C103.229 2.21609 103.206 2.08928 103.271 2.08984C103.651 2.09041 103.937 2.08419 104.03 2.08339C105.009 2.07706 106.131 3.0219 106.135 4.03801C106.137 4.57819 106.118 7.89555 106.112 8.27475C106.105 8.68144 106.03 9.11721 105.824 9.48646C105.746 9.62696 105.305 10.432 104.755 11.3565C104.609 11.6022 104.527 11.3735 104.457 11.3587C104.418 11.3507 104.296 11.3981 104.296 11.431C104.296 11.5009 104.543 11.6749 104.514 11.7207C104.411 11.8826 104.246 11.8374 104.174 11.8711C104.08 11.9152 104.038 12.0134 104.026 12.1386C104.017 12.2361 103.937 12.4212 103.942 12.4983C103.952 12.6851 104.035 12.6183 103.911 12.8282C103.539 13.4651 103.172 14.1056 102.812 14.7496C102.67 15.0036 102.618 15.2356 102.865 15.2356C103.107 15.2356 105.29 15.215 105.503 15.215C105.717 15.215 105.951 15.2553 105.958 15.4921C105.964 15.7348 105.951 17.1598 105.951 17.3755C105.951 17.5918 105.958 17.7941 105.637 17.8146C105.343 17.8332 99.4049 17.835 99.2177 17.835C99.0309 17.835 98.737 17.7267 98.7299 17.3963C98.7253 17.1528 98.71 15.6472 98.71 15.4581C98.71 15.1003 98.8634 14.8098 98.9974 14.5939C99.1307 14.3777 102.534 8.39942 102.611 8.24737C102.758 7.9572 102.803 7.61307 102.803 7.39507C102.803 7.179 102.799 5.2651 102.799 5.07584C102.799 4.88692 102.801 4.7032 102.537 4.70988C102.351 4.71474 102.32 4.71225 102.183 4.70988C101.996 4.70648 101.863 4.7368 101.863 4.95265C101.863 5.16895 101.868 7.00353 101.863 7.22119C101.856 7.50141 101.796 7.75436 101.515 7.75436C101.328 7.75436 99.3644 7.76454 99.1508 7.76454C98.937 7.76454 98.684 7.65334 98.684 7.3833C98.684 7.20671 98.6882 5.66094 98.6912 4.61258C98.6912 4.56417 98.7807 4.57107 98.8368 4.56439C98.8781 4.55987 98.9975 4.53339 98.9975 4.41993C98.9975 4.32682 98.7902 4.3223 98.7894 4.17037C98.7891 4.10023 98.9093 4.1301 98.9085 4.02851C98.908 3.97206 98.8915 3.84535 98.8849 3.80078C98.8713 3.70666 98.7332 3.66322 98.6988 3.65236C98.6945 3.65123 98.6943 3.64376 98.6943 3.64376Z" fill="#1F1F1F"/>
<path d="M30.1052 10.4767C30.2521 10.4837 31.8144 10.5602 31.988 10.5874C32.1617 10.6148 32.3589 10.5943 32.4959 10.8813C32.6748 11.2564 33.1504 11.9076 33.6582 12.2314C33.8558 12.3578 33.8719 12.4139 33.8584 12.7108C33.8452 13.0081 33.7313 14.4596 33.7049 14.6489C33.6784 14.838 33.4868 15.0295 33.3176 14.9725C32.084 14.5608 30.1981 13.3863 29.7906 10.9489C29.7026 10.4235 30.1052 10.4767 30.1052 10.4767ZM34.4727 5.49998C34.4661 5.64851 34.3862 7.12302 34.3593 7.29837C34.3326 7.47383 34.3525 7.67316 34.0689 7.81117C33.7599 7.96186 33.3382 8.23133 33.0133 8.61562C32.995 8.63701 32.9632 8.64583 32.9179 8.59537C32.8584 8.52818 32.8027 8.22081 32.6025 8.29151C32.4983 8.3285 32.2617 8.38281 32.2617 8.53451C32.2617 8.66359 32.7479 8.77253 32.7176 8.88928C32.6587 9.11779 32.5422 9.09834 32.2485 9.08499C31.9547 9.0713 30.3647 8.96971 30.1779 8.94324C29.9908 8.9162 29.9549 8.73644 30.0109 8.56505C30.2086 7.95982 30.585 7.24723 31.2048 6.61044C31.2485 6.56541 31.5328 6.69415 31.6209 6.61044C31.7108 6.52457 31.5908 6.30171 31.6507 6.20533C31.8102 5.95023 32.0493 6.23338 32.1968 6.12953C32.2441 6.09593 32.1369 5.86108 32.2419 5.78483C32.7669 5.40597 33.2517 5.26863 34.0322 5.13525C34.5512 5.04668 34.4727 5.49998 34.4727 5.49998ZM39.4357 9.66579C39.2889 9.65911 37.7258 9.6323 37.5522 9.60515C37.3786 9.57834 37.1406 9.63581 36.9908 9.35525C36.8107 9.01791 36.5366 8.56551 36.0691 8.22115C35.8805 8.08211 35.8756 8.02533 35.8887 7.72814C35.9024 7.43118 35.9623 5.85814 35.989 5.6691C36.0157 5.47995 36.2238 5.3735 36.3898 5.43923C36.6671 5.54951 36.9381 5.67523 37.2016 5.81583C37.2965 5.86662 37.2694 5.98948 37.3318 6.02862C37.4018 6.07297 37.5481 6.01867 37.6338 6.0827C38.4446 6.68725 39.1979 7.5891 39.6161 9.19359C39.7502 9.70821 39.4357 9.66579 39.4357 9.66579ZM35.2676 14.8376C35.2743 14.6888 35.3478 13.1224 35.3743 12.9471C35.4009 12.7715 35.331 12.4711 35.615 12.3328C35.9861 12.1516 36.3965 11.8469 36.7171 11.3333C36.8417 11.1336 36.9308 11.1107 37.2246 11.1242C37.5189 11.1373 39.008 11.2188 39.1953 11.2457C39.3822 11.2726 39.5332 11.4756 39.4692 11.644C39.3658 11.9152 39.2531 12.179 39.0751 12.4948C39.0201 12.5922 38.8741 12.571 38.7896 12.6512C38.6996 12.7375 38.6158 12.852 38.5392 12.9555C38.4785 13.0374 38.535 13.3076 38.4673 13.3884C38.0693 13.867 37.5531 14.3183 36.8856 14.6558C36.7765 14.711 36.7112 14.5351 36.4952 14.5351C36.37 14.5351 36.2699 14.6417 36.2198 14.7222C36.1712 14.8009 36.1194 14.9681 36.029 14.9949C35.9317 15.0236 35.8338 15.0498 35.7353 15.0735C35.2226 15.1964 35.2676 14.8376 35.2676 14.8376Z" fill="#1F1F1F"/>
</g>
<defs>
<clipPath id="clip0_957_9270">
<rect width="112" height="24" fill="white"/>
</clipPath>
</defs>
</svg>
