<svg width="166" height="41" fill="none" xmlns="http://www.w3.org/2000/svg"><g clip-path="url(#a)" fill="#fff"><path d="M59.296 18.466c-2.359-1.22-3.713-3.027-3.713-4.96 0-.659.161-1.313.478-1.947.224-.447.044-.936-.465-1.275-.51-.339-1.27-.47-1.972-.345-.896.16-1.796.24-2.678.24-5.022 0-9.277-2.403-9.89-5.59-.1-.522-.691-.95-1.486-1.082-.802-.13-1.636.066-2.117.492-1.876 1.668-4.903 2.664-8.097 2.664-4.012 0-7.618-1.526-9.184-3.887-.349-.526-1.21-.835-2.086-.768-.886.071-1.59.51-1.725 1.075-.75 3.134-4.892 5.41-9.847 5.41-.97 0-1.941-.093-2.885-.274-.923-.179-1.925.096-2.358.652-.436.555-.183 1.229.597 1.598 2.582 1.22 4.064 3.088 4.064 5.127 0 2.035-1.55 3.966-4.144 5.166-.664.307-.97.843-.764 1.35.203.509.872.886 1.686.95 4.54.364 7.252 3.945 6.961 7.31-.037.444-.563 2.973-.998 5.267-.752 3.963-.752 3.963-.757 4.033-.034.532.454 1.022 1.222 1.228.25.067.513.1.773.1.54 0 1.07-.141 1.455-.403.798-.542 1.978-1.66 4-3.592 2.387-2.28 6.8-6.65 9.009-7.458 2.802-1.027 5.152.095 6.897 2.636.33.483 1.072.79 1.917.763.824-.023 1.54-.37 1.803-.87 1.36-2.606 5.16-4.355 9.45-4.355 2 0 3.929.376 5.575 1.087.66.287 1.527.292 2.2.016.672-.278 1.022-.785.885-1.289a4.213 4.213 0 0 1-.157-1.091c0-2.507 2.32-4.793 5.91-5.82.635-.182 1.076-.56 1.165-1.002.092-.44-.182-.877-.724-1.156Zm-10.29 7.19c-5.795-1.281-12.378 0-16.005 3.324-1.352-1.13-4.906-3.104-9.523-1.794-2.627.745-5.437 2.709-10.625 7.633.437-3.043.754-3.922.813-4.377.476-3.573-2.188-7.547-6.914-9.19 3.69-2.88 4.275-6.95 1.169-10.25 4.786-.301 8.878-2.126 11.003-4.775 2.604 1.872 6.37 2.991 10.438 2.991 3.19 0 6.262-.708 8.713-1.96 2.212 3.371 7.572 5.667 13.57 5.464-.036.26-.054.523-.054.785 0 2.102 1.14 4.097 3.196 5.683-3.284 1.506-5.418 3.867-5.781 6.466Z"/><path d="M13.347 12.493c-.375-.437-1.426-.123-1.136.342 0 0 .66 1.315.617 2.4-.077 3.303-1.603 4.24-2.107 5.168-.247.444.12.932.814 1.088 2.84.638 4.244-6.168 1.812-8.998Zm6.784 11.912c-.631.16-.885.618-.602.989.273.36.95.509 1.513.334l.046-.015c5.314-1.642 8.322-1.055 10.279.056a.953.953 0 0 0 .888-.007c1.03-.62-3.376-3.565-12.124-1.357Zm24.553-1.215c-4.08-1.075-7.84.516-7.996.585-.726.314.012 1.02.748.705.03-.015 3.315-1.404 6.741-.502.822.21 1.317-.576.507-.788Z"/></g><path d="M85.531 16.586c-.21 1.805-.879 3.2-2.004 4.184-1.117.976-2.605 1.464-4.465 1.464-2.015 0-3.632-.722-4.851-2.168-1.211-1.445-1.817-3.378-1.817-5.8v-1.641c0-1.586.282-2.98.844-4.184.57-1.203 1.375-2.125 2.414-2.765 1.04-.649 2.242-.973 3.61-.973 1.812 0 3.265.508 4.36 1.524 1.093 1.007 1.73 2.406 1.91 4.195h-2.263c-.195-1.36-.62-2.344-1.277-2.953-.648-.61-1.558-.914-2.73-.914-1.438 0-2.567.53-3.387 1.593-.813 1.063-1.219 2.575-1.219 4.536v1.652c0 1.851.387 3.324 1.16 4.418.774 1.094 1.856 1.64 3.246 1.64 1.25 0 2.207-.28 2.872-.843.672-.57 1.117-1.559 1.335-2.965h2.262Zm2.168-1.043c0-1.242.242-2.36.727-3.352.492-.992 1.172-1.757 2.039-2.296.875-.54 1.87-.81 2.988-.81 1.727 0 3.121.599 4.184 1.794 1.07 1.195 1.605 2.785 1.605 4.77v.152c0 1.234-.238 2.344-.715 3.328-.468.976-1.144 1.738-2.027 2.285-.875.547-1.883.82-3.023.82-1.72 0-3.114-.597-4.184-1.793-1.063-1.195-1.594-2.777-1.594-4.746v-.152Zm2.18.258c0 1.406.324 2.535.973 3.386.656.852 1.53 1.278 2.625 1.278 1.101 0 1.976-.43 2.625-1.29.648-.866.972-2.077.972-3.632 0-1.39-.332-2.516-.996-3.375-.656-.867-1.531-1.3-2.625-1.3-1.07 0-1.934.425-2.59 1.277-.656.851-.984 2.07-.984 3.656ZM104 9.32l.059 1.406c.929-1.094 2.183-1.641 3.761-1.641 1.774 0 2.981.68 3.621 2.039a4.82 4.82 0 0 1 1.641-1.477c.68-.375 1.48-.562 2.402-.562 2.782 0 4.196 1.473 4.243 4.418V22h-2.168v-8.367c0-.906-.207-1.582-.621-2.027-.415-.454-1.11-.68-2.086-.68-.805 0-1.473.242-2.004.726-.532.477-.84 1.121-.926 1.934V22h-2.18v-8.309c0-1.843-.902-2.765-2.707-2.765-1.422 0-2.394.605-2.918 1.816V22h-2.168V9.32H104ZM125.363 22h-2.168V9.32h2.168V22ZM123.02 5.957c0-.352.105-.648.316-.89.219-.243.539-.364.961-.364.422 0 .742.121.961.363.219.243.328.54.328.891 0 .352-.109.645-.328.879-.219.234-.539.351-.961.351-.422 0-.742-.117-.961-.351-.211-.234-.316-.527-.316-.879Zm10.91 14.508c.773 0 1.449-.235 2.027-.703.578-.469.898-1.055.961-1.758h2.051c-.039.726-.289 1.418-.75 2.074-.461.656-1.078 1.18-1.852 1.57a5.287 5.287 0 0 1-2.437.586c-1.727 0-3.102-.574-4.125-1.722-1.016-1.157-1.524-2.735-1.524-4.735v-.363c0-1.234.227-2.332.68-3.293.453-.96 1.101-1.707 1.945-2.238.852-.531 1.856-.797 3.012-.797 1.422 0 2.602.426 3.539 1.277.945.852 1.449 1.957 1.512 3.317h-2.051c-.063-.82-.375-1.492-.938-2.016-.554-.531-1.242-.797-2.062-.797-1.102 0-1.957.399-2.566 1.195-.602.79-.903 1.934-.903 3.434v.41c0 1.461.301 2.586.903 3.375.601.79 1.46 1.184 2.578 1.184Zm14.859-1.828c0-.586-.223-1.04-.668-1.36-.437-.328-1.207-.609-2.309-.843-1.093-.235-1.964-.516-2.613-.844-.64-.328-1.117-.719-1.429-1.172-.305-.453-.458-.992-.458-1.617 0-1.04.438-1.918 1.313-2.637.883-.719 2.008-1.078 3.375-1.078 1.438 0 2.602.371 3.492 1.113.899.742 1.348 1.692 1.348 2.848h-2.18c0-.594-.254-1.106-.762-1.535-.5-.43-1.132-.645-1.898-.645-.789 0-1.406.172-1.852.516-.445.344-.668.793-.668 1.348 0 .523.208.917.622 1.183.414.266 1.16.52 2.238.762 1.086.242 1.965.531 2.637.867.671.336 1.168.742 1.488 1.219.328.468.492 1.043.492 1.722 0 1.133-.453 2.043-1.359 2.73-.907.68-2.082 1.02-3.528 1.02-1.015 0-1.914-.18-2.695-.539-.781-.36-1.395-.86-1.84-1.5a3.682 3.682 0 0 1-.656-2.097h2.168c.039.726.328 1.304.867 1.734.547.422 1.266.633 2.156.633.821 0 1.477-.164 1.969-.492.5-.336.75-.782.75-1.336Zm-73.531 6.988 3.719 9.281 3.718-9.281h1.946V37h-1.5v-4.43l.14-4.78L79.547 37h-1.149l-3.726-9.188.148 4.758V37h-1.5V25.625h1.938ZM92.28 37c-.083-.167-.15-.464-.203-.89-.672.697-1.474 1.046-2.406 1.046-.834 0-1.518-.234-2.055-.703-.531-.474-.797-1.073-.797-1.797 0-.88.334-1.562 1-2.047.672-.49 1.615-.734 2.828-.734h1.407v-.664c0-.505-.151-.906-.453-1.203-.303-.302-.748-.453-1.336-.453-.516 0-.948.13-1.297.39-.35.26-.524.576-.524.946h-1.453c0-.422.149-.828.445-1.22.303-.395.709-.707 1.22-.937a4.127 4.127 0 0 1 1.695-.343c.974 0 1.736.244 2.289.734.552.484.838 1.154.859 2.008v3.89c0 .776.099 1.394.297 1.852V37H92.28Zm-2.398-1.102c.453 0 .883-.117 1.289-.351.406-.234.7-.54.883-.914v-1.735h-1.133c-1.771 0-2.656.519-2.656 1.555 0 .453.15.807.453 1.063.302.255.69.382 1.164.382Zm9.969-6.054a4.328 4.328 0 0 0-.711-.055c-.948 0-1.592.404-1.93 1.211v6h-1.445v-8.453h1.406l.023.976c.474-.755 1.146-1.132 2.016-1.132.281 0 .495.036.64.109v1.344Zm3.695 3.242-.906.945V37h-1.446V25h1.446v7.258l.773-.93 2.633-2.781h1.758l-3.289 3.531L108.188 37h-1.696l-2.945-3.914Zm9.101 4.07c-1.145 0-2.078-.375-2.796-1.125-.719-.755-1.079-1.763-1.079-3.023v-.266c0-.838.159-1.586.477-2.242.323-.662.771-1.177 1.344-1.547a3.38 3.38 0 0 1 1.875-.562c1.099 0 1.953.362 2.562 1.086.61.724.914 1.76.914 3.109v.602h-5.726c.021.833.263 1.507.726 2.023.469.51 1.063.766 1.782.766.51 0 .942-.105 1.296-.313.355-.208.665-.484.93-.828l.883.687c-.708 1.089-1.771 1.633-3.188 1.633Zm-.179-7.578c-.584 0-1.073.214-1.469.64-.396.423-.641 1.016-.734 1.782h4.234v-.11c-.042-.734-.24-1.302-.594-1.703-.354-.406-.833-.609-1.437-.609Zm7.117-3.078v2.047h1.578v1.117h-1.578v5.242c0 .339.07.594.211.766.141.167.38.25.719.25.166 0 .395-.031.687-.094V37c-.38.104-.75.156-1.109.156-.646 0-1.133-.195-1.461-.586-.328-.39-.492-.945-.492-1.664v-5.242h-1.539v-1.117h1.539V26.5h1.445Zm8.969 6.047V37h-1.5V25.625h4.195c1.245 0 2.219.318 2.922.953.708.636 1.062 1.477 1.062 2.524 0 1.104-.346 1.955-1.039 2.554-.687.594-1.674.89-2.961.89h-2.679Zm0-1.227h2.695c.802 0 1.417-.187 1.844-.562.427-.38.64-.927.64-1.64 0-.678-.213-1.22-.64-1.626-.427-.406-1.013-.617-1.758-.633h-2.781v4.461Zm9.937 5.68h-1.445V25h1.445v12Zm7.539 0c-.083-.167-.151-.464-.203-.89-.672.697-1.474 1.046-2.406 1.046-.833 0-1.518-.234-2.055-.703-.531-.474-.797-1.073-.797-1.797 0-.88.334-1.562 1-2.047.672-.49 1.615-.734 2.828-.734h1.407v-.664c0-.505-.151-.906-.453-1.203-.303-.302-.748-.453-1.336-.453-.516 0-.948.13-1.297.39s-.524.576-.524.946h-1.453c0-.422.149-.828.446-1.22.302-.395.708-.707 1.218-.937a4.13 4.13 0 0 1 1.696-.343c.974 0 1.737.244 2.289.734.552.484.838 1.154.859 2.008v3.89c0 .776.099 1.394.297 1.852V37h-1.516Zm-2.398-1.102a2.54 2.54 0 0 0 1.289-.351c.406-.234.7-.54.883-.914v-1.735h-1.133c-1.771 0-2.656.519-2.656 1.555 0 .453.151.807.453 1.063.302.255.69.382 1.164.382Zm9.273.079c.516 0 .966-.157 1.352-.47.385-.312.599-.702.64-1.171h1.368a2.624 2.624 0 0 1-.5 1.383 3.29 3.29 0 0 1-1.235 1.047 3.53 3.53 0 0 1-1.625.39c-1.151 0-2.067-.383-2.75-1.148-.677-.771-1.015-1.823-1.015-3.156v-.243c0-.823.151-1.554.453-2.195a3.456 3.456 0 0 1 1.297-1.492c.567-.354 1.237-.531 2.007-.531.948 0 1.735.284 2.36.851.63.568.966 1.305 1.008 2.211h-1.368c-.041-.547-.25-.995-.625-1.344-.369-.354-.828-.53-1.375-.53-.734 0-1.304.265-1.71.796-.402.526-.602 1.29-.602 2.29v.273c0 .973.2 1.723.602 2.25.401.526.973.789 1.718.789Zm8.492 1.18c-1.145 0-2.078-.376-2.796-1.126-.719-.755-1.079-1.763-1.079-3.023v-.266c0-.838.159-1.586.477-2.242.323-.662.771-1.177 1.344-1.547a3.38 3.38 0 0 1 1.875-.562c1.099 0 1.953.362 2.562 1.086.61.724.914 1.76.914 3.109v.602h-5.726c.021.833.263 1.507.726 2.023.469.51 1.063.766 1.782.766.51 0 .942-.105 1.296-.313.355-.208.665-.484.93-.828l.883.687c-.708 1.089-1.771 1.633-3.188 1.633Zm-.179-7.579c-.584 0-1.073.214-1.469.64-.396.423-.641 1.016-.734 1.782h4.234v-.11c-.042-.734-.24-1.302-.594-1.703-.354-.406-.833-.609-1.437-.609Z" fill="#fff"/><defs><clipPath id="a"><path fill="#fff" transform="translate(0 2)" d="M0 0h61v39H0z"/></clipPath></defs></svg>