<svg width="106" height="16" fill="none" xmlns="http://www.w3.org/2000/svg"><path d="M0 12.229V.514h1.92L6.319 10.2h-.527l4.4-9.686h1.902v11.713h-1.988v-8.69h.612l-4.026 8.69H5.384L1.36 3.539h.628v8.69H0Zm18.465.166c-.883 0-1.647-.178-2.293-.532a3.778 3.778 0 0 1-1.511-1.512c-.351-.654-.527-1.429-.527-2.326s.175-1.667.527-2.31a3.779 3.779 0 0 1 1.511-1.511c.646-.355 1.41-.532 2.293-.532.884 0 1.648.177 2.293.532a3.64 3.64 0 0 1 1.512 1.511c.363.643.544 1.413.544 2.31s-.181 1.672-.544 2.326a3.642 3.642 0 0 1-1.512 1.512c-.645.354-1.41.532-2.293.532Zm0-1.595c.669 0 1.2-.228 1.597-.682.396-.465.595-1.163.595-2.093 0-.93-.199-1.623-.595-2.077-.396-.454-.928-.681-1.597-.681-.668 0-1.2.227-1.596.681-.397.454-.595 1.146-.595 2.077 0 .93.198 1.628.595 2.093.396.454.928.682 1.596.682Zm6.18 1.429V5.93a16.376 16.376 0 0 0-.136-2.093h2.055l.17 1.661h-.204a2.945 2.945 0 0 1 1.206-1.345c.532-.322 1.15-.482 1.851-.482 1.008 0 1.767.277 2.277.83.51.554.764 1.418.764 2.593v5.134h-2.123V7.194c0-.675-.136-1.157-.408-1.445-.26-.3-.657-.449-1.189-.449-.657 0-1.178.2-1.563.598-.385.399-.577.93-.577 1.595v4.736h-2.123Zm14.379.166c-1.438 0-2.565-.388-3.38-1.163-.816-.776-1.223-1.84-1.223-3.19 0-.876.175-1.64.526-2.293a3.843 3.843 0 0 1 1.46-1.529c.635-.365 1.371-.548 2.209-.548.827 0 1.517.172 2.072.515.555.343.974.825 1.257 1.445.295.62.442 1.346.442 2.177v.548h-6.25V7.261h4.738l-.289.232c0-.775-.17-1.368-.51-1.778-.328-.41-.809-.614-1.443-.614-.702 0-1.246.243-1.63.73-.374.488-.561 1.17-.561 2.044v.216c0 .909.226 1.59.68 2.044.464.443 1.115.665 1.953.665.487 0 .94-.061 1.358-.183a4.01 4.01 0 0 0 1.224-.632l.628 1.396c-.408.321-.895.57-1.46.748a5.994 5.994 0 0 1-1.801.266ZM43.882 16l-.492-1.645c.532-.11.98-.238 1.341-.382.363-.144.663-.332.9-.565a2.76 2.76 0 0 0 .595-.897l.425-.98-.051.814-3.737-8.507h2.26l2.683 6.546h-.493l2.701-6.546h2.14l-3.907 8.856c-.26.598-.543 1.09-.849 1.478a4.14 4.14 0 0 1-.985.947 4.284 4.284 0 0 1-1.155.565 9.263 9.263 0 0 1-1.376.316Zm9.563-3.771V.514h5.316c1.314 0 2.316.31 3.007.93.69.62 1.036 1.474 1.036 2.56 0 1.074-.346 1.926-1.036 2.558-.691.631-1.693.947-3.007.947h-3.125v4.719h-2.191Zm2.19-6.414h2.871c.725 0 1.269-.155 1.63-.465.363-.321.544-.77.544-1.346 0-.576-.18-1.019-.543-1.329-.362-.321-.906-.482-1.63-.482h-2.871v3.622Zm12.682 6.58c-1.438 0-2.565-.388-3.38-1.163-.815-.776-1.223-1.84-1.223-3.19 0-.876.176-1.64.527-2.293A3.842 3.842 0 0 1 65.7 4.22c.635-.365 1.37-.548 2.209-.548.826 0 1.517.172 2.072.515.555.343.974.825 1.257 1.445.294.62.441 1.346.441 2.177v.548h-6.25V7.261h4.739l-.29.232c0-.775-.169-1.368-.509-1.778-.328-.41-.81-.614-1.443-.614-.703 0-1.246.243-1.631.73-.374.488-.56 1.17-.56 2.044v.216c0 .909.226 1.59.679 2.044.464.443 1.115.665 1.953.665.487 0 .94-.061 1.36-.183.43-.133.837-.344 1.222-.632l.629 1.396c-.408.321-.895.57-1.461.748a5.994 5.994 0 0 1-1.8.266Zm9.034 0c-.883 0-1.647-.178-2.293-.532a3.779 3.779 0 0 1-1.512-1.512c-.35-.654-.526-1.429-.526-2.326s.175-1.667.526-2.31a3.78 3.78 0 0 1 1.512-1.511c.645-.355 1.41-.532 2.293-.532.883 0 1.648.177 2.293.532.657.354 1.16.858 1.512 1.511.362.643.543 1.413.543 2.31s-.18 1.672-.543 2.326a3.643 3.643 0 0 1-1.512 1.512c-.645.354-1.41.532-2.293.532Zm0-1.595c.668 0 1.2-.228 1.597-.682.396-.465.594-1.163.594-2.093 0-.93-.198-1.623-.594-2.077-.397-.454-.929-.681-1.597-.681-.668 0-1.2.227-1.597.681-.396.454-.594 1.146-.594 2.077 0 .93.198 1.628.594 2.093.397.454.929.682 1.597.682Zm6.179 5.017V5.931a16.376 16.376 0 0 0-.136-2.093h2.056l.187 1.761h-.187c.17-.587.526-1.052 1.07-1.395.555-.355 1.195-.532 1.92-.532.758 0 1.42.177 1.987.532.566.343 1.007.841 1.324 1.495.317.642.476 1.418.476 2.326 0 .908-.159 1.69-.476 2.343-.317.653-.758 1.157-1.324 1.511-.567.344-1.23.516-1.988.516-.713 0-1.342-.172-1.885-.515-.544-.344-.906-.804-1.087-1.38h.187v5.317H83.53Zm4.315-5.017c.68 0 1.223-.228 1.63-.682.408-.465.612-1.163.612-2.093 0-.93-.204-1.623-.612-2.077-.407-.454-.95-.681-1.63-.681-.668 0-1.206.227-1.614.681-.407.454-.611 1.146-.611 2.077 0 .93.203 1.628.611 2.093.408.454.946.682 1.614.682Zm6.219 1.429V0h2.123v12.229h-2.123Zm8.573.166c-1.438 0-2.565-.388-3.38-1.163-.816-.776-1.223-1.84-1.223-3.19 0-.876.175-1.64.526-2.293a3.842 3.842 0 0 1 1.461-1.529c.634-.365 1.37-.548 2.208-.548.827 0 1.518.172 2.072.515.555.343.974.825 1.257 1.445.295.62.442 1.346.442 2.177v.548h-6.25V7.261h4.738l-.288.232c0-.775-.17-1.368-.51-1.778-.328-.41-.81-.614-1.444-.614-.702 0-1.245.243-1.63.73-.374.488-.561 1.17-.561 2.044v.216c0 .909.227 1.59.679 2.044.465.443 1.116.665 1.954.665.487 0 .94-.061 1.359-.183.43-.133.838-.344 1.223-.632l.628 1.396a4.51 4.51 0 0 1-1.461.748 5.99 5.99 0 0 1-1.8.266Z" fill="#152536"/></svg>