<svg width="50" height="50" viewBox="0 0 50 50" fill="none" xmlns="http://www.w3.org/2000/svg"><path d="M37.3419 18.3545a2.7092 2.7092 0 0 0-.6114-1.1304 2.7869 2.7869 0 0 0-1.0705-.7332C31.6811 14.9864 25.3482 15 25 15c-.3482 0-6.6811-.0136-10.66 1.4909a2.7869 2.7869 0 0 0-1.0705.7332 2.7092 2.7092 0 0 0-.6114 1.1304C12.3575 19.4886 12 21.5614 12 25s.3575 5.5114.6581 6.6455a2.709 2.709 0 0 0 .6111 1.131 2.787 2.787 0 0 0 1.0708.7337C18.1518 34.95 24.1179 35 24.9234 35h.1532c.8055 0 6.7751-.05 10.5834-1.4898a2.787 2.787 0 0 0 1.0708-.7337 2.709 2.709 0 0 0 .6111-1.131C37.6425 30.5091 38 28.4386 38 25s-.3575-5.5114-.6581-6.6455Zm-8.3699 7.0239-5.5715 3.6364a.4727.4727 0 0 1-.4768.0226.4603.4603 0 0 1-.1792-.1673.4466.4466 0 0 1-.0659-.2337v-7.2728a.4466.4466 0 0 1 .0659-.2337.4603.4603 0 0 1 .1792-.1673.4727.4727 0 0 1 .4768.0226l5.5715 3.6364a.4581.4581 0 0 1 .152.1638.447.447 0 0 1 0 .4292.4581.4581 0 0 1-.152.1638Z" fill="#999"/></svg>
