<svg width="12" height="13" viewBox="0 0 12 13" fill="none" xmlns="http://www.w3.org/2000/svg"><path d="m2.9035 4.2312 2.91 3.0716 2.91-3.0716A.7466.7466 0 0 1 8.966 4.06.7138.7138 0 0 1 9.2522 4a.7138.7138 0 0 1 .2862.06.7465.7465 0 0 1 .2426.1712.7937.7937 0 0 1 .162.256.8275.8275 0 0 1 .057.3021.8275.8275 0 0 1-.057.302.7935.7935 0 0 1-.162.2561L6.3385 8.9812c-.2925.3087-.765.3087-1.0575 0L1.8385 5.3474a.7929.7929 0 0 1-.1623-.256.8266.8266 0 0 1-.057-.302.8266.8266 0 0 1 .057-.3022.7929.7929 0 0 1 .1623-.256c.2925-.3009.7725-.3088 1.065 0Z" fill="#fff"/></svg>
