<svg width="21" height="21" viewBox="0 0 21 21" fill="none" xmlns="http://www.w3.org/2000/svg"><path d="m6.5296 15.9189 5.3754-5.0925-5.3754-5.0925a1.3062 1.3062 0 0 1-.2995-.4245 1.249 1.249 0 0 1-.1051-.5008c0-.1719.0357-.342.1052-.5008a1.3062 1.3062 0 0 1 .2994-.4245 1.3886 1.3886 0 0 1 .448-.2837A1.4483 1.4483 0 0 1 7.5064 3.5c.1814 0 .361.0339.5286.0996.1676.0658.3198.1622.4481.2837l6.3591 6.0244c.5403.5118.5403 1.3387 0 1.8506l-6.359 6.0244a1.3872 1.3872 0 0 1-.4481.284 1.446 1.446 0 0 1-.5287.0998 1.446 1.446 0 0 1-.5287-.0998 1.3872 1.3872 0 0 1-.448-.284c-.5265-.5119-.5403-1.3519 0-1.8638Z"/></svg>
