<svg width="50" height="50" viewBox="0 0 50 50" fill="none" xmlns="http://www.w3.org/2000/svg"><path fill-rule="evenodd" clip-rule="evenodd" d="M39.2938 17.25c.2225-.705 0-1.2175-.9844-1.2175h-3.2731c-.8256 0-1.2069.4487-1.4294.9287 0 0-1.6837 4.1-4.035 6.7582-.7625.7687-1.1119 1.025-1.525 1.025-.2225 0-.5088-.2563-.5088-.9607v-6.5668c0-.8325-.2537-1.2169-.9531-1.2169h-5.1475c-.5087 0-.8262.3844-.8262.7688 0 .8006 1.1756.9931 1.3025 3.2349v4.8713c0 1.0569-.1875 1.25-.6038 1.25-1.1119 0-3.8125-4.1319-5.4325-8.84-.315-.9325-.635-1.285-1.4612-1.285h-3.3044c-.9531 0-1.1119.4481-1.1119.9288 0 .865 1.1119 5.2206 5.1788 10.9856 2.7006 3.9375 6.545 6.0537 10.0081 6.0537 2.0975 0 2.3512-.4806 2.3512-1.2812v-2.9788c0-.9606.1907-1.1206.8582-1.1206.4762 0 1.3344.2556 3.2725 2.1456C33.8925 32.975 34.2738 34 35.5132 34h3.2725c.9531 0 1.3981-.4806 1.1437-1.4094-.2856-.9287-1.3662-2.2737-2.7644-3.875-.7625-.8962-1.9062-1.8893-2.2556-2.37-.4762-.6406-.3494-.8968 0-1.4731-.0319 0 3.9719-5.7012 4.3844-7.625" fill="#999"/></svg>
