<svg width="19" height="19" viewBox="0 0 19 19" fill="none" xmlns="http://www.w3.org/2000/svg"><path d="M15.9206 15.1481c-1.0241-1.8411-2.6023-3.1614-4.444-3.7872.911-.564 1.6188-1.4234 2.0147-2.4462a5.223 5.223 0 0 0 .1767-3.2155c-.2812-1.063-.8902-2.0007-1.7335-2.669C11.0912 2.3619 10.0602 2 9 2c-1.0602 0-2.0912.362-2.9345 1.0302-.8433.6683-1.4523 1.606-1.7335 2.669a5.2235 5.2235 0 0 0 .1767 3.2155c.396 1.0228 1.1037 1.8822 2.0148 2.4462-1.8418.6251-3.42 1.9454-4.4441 3.7872a.5742.5742 0 0 0-.0733.2084.5808.5808 0 0 0 .0104.2216.5696.5696 0 0 0 .0924.2.5455.5455 0 0 0 .16.1469.5189.5189 0 0 0 .415.054.5315.5315 0 0 0 .1898-.1013.5553.5553 0 0 0 .137-.1702C4.2775 13.4307 6.5167 12.0713 9 12.0713c2.4833 0 4.7225 1.3594 5.9893 3.6362a.556.556 0 0 0 .137.1702.5316.5316 0 0 0 .1898.1013.519.519 0 0 0 .415-.054.5449.5449 0 0 0 .1599-.1469.5693.5693 0 0 0 .0925-.2.5822.5822 0 0 0 .0104-.2216.5735.5735 0 0 0-.0733-.2084ZM5.2344 7.0366c0-.7745.2209-1.5316.6346-2.1755.4138-.644 1.0019-1.146 1.69-1.4423a3.6315 3.6315 0 0 1 2.1756-.2228c.7305.151 1.4015.524 1.9281 1.0717.5266.5476.8852 1.2454 1.0305 2.005a4.0613 4.0613 0 0 1-.2142 2.2625c-.2851.7155-.7677 1.327-1.3869 1.7574-.6193.4303-1.3473.6599-2.0921.6599-.9984-.0011-1.9555-.414-2.6615-1.1481-.706-.7342-1.103-1.7295-1.1041-2.7678Z" fill="#fff"/></svg>
