<svg width="50" height="50" viewBox="0 0 50 50" fill="none" xmlns="http://www.w3.org/2000/svg"><path fill-rule="evenodd" clip-rule="evenodd" d="M31.0989 12.6699a28.1032 28.1032 0 0 0-12.199 0l-.4328.0952a6.2717 6.2717 0 0 0-2.9979 1.6119 6.2225 6.2225 0 0 0-1.7056 2.9347 24.599 24.599 0 0 0 0 12.1628 6.2213 6.2213 0 0 0 1.5937 2.8239 6.269 6.269 0 0 0 2.8034 1.6465l.5936 3.5255a.6346.6346 0 0 0 .1413.3037.6398.6398 0 0 0 .9133.0646l3.4867-3.1026a28.0992 28.0992 0 0 0 7.8033-.6185l.4341-.0952a6.2724 6.2724 0 0 0 2.9979-1.6118 6.2218 6.2218 0 0 0 1.7055-2.9348 24.599 24.599 0 0 0 0-12.1628 6.2223 6.2223 0 0 0-1.706-2.9351 6.2732 6.2732 0 0 0-2.9987-1.6115l-.4328-.0965Zm-11.1215 4.539a1.0536 1.0536 0 0 0-.6856.1346h-.0178a5.2386 5.2386 0 0 0-1.278 1.0452c-.3064.3518-.4724.7074-.5158 1.0503a1.4362 1.4362 0 0 0 .0523.6032l.023.0127a15.045 15.045 0 0 0 1.3431 2.888 16.9937 16.9937 0 0 0 2.5917 3.5243l.0307.0431.0485.0356.0294.0343.0357.0305a17.3177 17.3177 0 0 0 3.5518 2.5908c1.4747.7988 2.3696 1.176 2.9071 1.3335v.0076c.1571.0483.3001.0698.4443.0698a2.0607 2.0607 0 0 0 1.2308-.5257 5.0108 5.0108 0 0 0 1.0392-1.2751v-.0089c.2567-.4826.1698-.9373-.2004-1.2459a15.4816 15.4816 0 0 0-2.4015-1.7145c-.572-.3086-1.1529-.1219-1.3878.1905l-.5018.6299c-.2579.3125-.7251.2693-.7251.2693l-.0128.0076c-3.4867-.8852-4.4175-4.3967-4.4175-4.3967s-.0434-.4776.2796-.7214l.6282-.5029c.3013-.2439.5107-.8204.1877-1.3894a14.9998 14.9998 0 0 0-1.7198-2.3876.9554.9554 0 0 0-.5617-.334l.0025.0013Zm5.8908-1.5266a.64.64 0 0 0-.4514.186.6334.6334 0 0 0-.187.449c0 .1684.0673.3299.187.449a.64.64 0 0 0 .4514.186c1.6151 0 2.9556.5245 4.0166 1.5304.5451.5499.9703 1.2014 1.2486 1.9151a5.5013 5.5013 0 0 1 .3741 2.2428.6338.6338 0 0 0 .168.4569.6403.6403 0 0 0 .4435.2048.641.641 0 0 0 .4593-.1671.6343.6343 0 0 0 .2059-.4412 6.7729 6.7729 0 0 0-.4609-2.7559 6.908 6.908 0 0 0-1.5372-2.3546l-.0127-.0127c-1.3163-1.2509-2.9825-1.8885-4.9052-1.8885Zm-.0434 2.0879a.64.64 0 0 0-.4514.186.6334.6334 0 0 0-.187.449c0 .1684.0673.3299.187.449a.64.64 0 0 0 .4514.186h.0217c1.1644.0825 2.0121.4686 2.6058 1.1024.609.6527.9243 1.4643.9001 2.4676a.6333.6333 0 0 0 .1766.4533.64.64 0 0 0 .4471.1963.6402.6402 0 0 0 .4556-.1757.6334.6334 0 0 0 .1974-.4447c.0306-1.317-.3958-2.4537-1.241-3.3604v-.0026c-.8643-.922-2.0504-1.4097-3.4778-1.5049l-.0217-.0026-.0638.0013Zm-.0243 2.1272a.6415.6415 0 0 0-.4748.1533.6335.6335 0 0 0-.2188.4462.6327.6327 0 0 0 .171.4665.638.638 0 0 0 .4563.2015c.5336.0279.8745.188 1.089.4026.2158.2159.3766.5626.406 1.1049a.6333.6333 0 0 0 .2033.453.639.639 0 0 0 .4688.1693.6406.6406 0 0 0 .4481-.2177.6334.6334 0 0 0 .154-.4719c-.0409-.762-.2809-1.4351-.7725-1.9304-.494-.4953-1.1669-.7366-1.9304-.7773Z" fill="#999"/></svg>
