<svg width="21" height="21" viewBox="0 0 21 21" fill="none" xmlns="http://www.w3.org/2000/svg"><path d="M14.4704 5.0811 9.095 10.1736l5.3754 5.0925c.1283.1215.23.2658.2995.4245.0694.1588.1051.329.1051.5008 0 .1719-.0357.342-.1051.5008a1.3066 1.3066 0 0 1-.2995.4245 1.3888 1.3888 0 0 1-.4481.2837 1.4474 1.4474 0 0 1-.5286.0996c-.1814 0-.361-.0338-.5286-.0996a1.3899 1.3899 0 0 1-.4481-.2837l-6.359-6.0244c-.5404-.5118-.5404-1.3387 0-1.8506l6.359-6.0244a1.3875 1.3875 0 0 1 .448-.284 1.4469 1.4469 0 0 1 .5287-.0998c.1815 0 .3611.034.5287.0998.1676.0658.3199.1624.448.284.5265.512.5403 1.352 0 1.8638Z"/></svg>
