<svg width="50" height="50" viewBox="0 0 50 50" fill="none" xmlns="http://www.w3.org/2000/svg"><path d="M25 13c6.6276 0 12 5.3724 12 12s-5.3724 12-12 12a11.945 11.945 0 0 1-6.036-1.626L13.0048 37l1.6224-5.9616A11.944 11.944 0 0 1 13 25c0-6.6276 5.3724-12 12-12Zm-4.0896 6.36-.24.0096a1.1542 1.1542 0 0 0-.4464.12 1.5516 1.5516 0 0 0-.3528.2736c-.144.1356-.2256.2532-.3132.3672a3.2766 3.2766 0 0 0-.6792 2.0136c.0024.588.156 1.1604.396 1.6956.4908 1.0824 1.2984 2.2284 2.364 3.2904.2568.2556.5088.5124.78.7512a11.339 11.339 0 0 0 4.608 2.4552l.6816.1044c.222.012.444-.0048.6672-.0156a2.3894 2.3894 0 0 0 .9996-.2772c.1572-.081.3105-.169.4596-.264 0 0 .0516-.0336.15-.108.162-.12.2616-.2052.396-.3456a1.3772 1.3772 0 0 0 .252-.3624c.0936-.1956.1872-.5688.2256-.8796.0288-.2376.0204-.3672.0168-.4476-.0048-.1284-.1116-.2616-.228-.318l-.6984-.3132s-1.044-.4548-1.6824-.7452a.5946.5946 0 0 0-.2112-.0492.5786.5786 0 0 0-.4536.1524c-.006-.0024-.0864.066-.954 1.1172a.4204.4204 0 0 1-.4416.156 1.7143 1.7143 0 0 1-.2292-.0792c-.1488-.0624-.2004-.0864-.3024-.1296a7.2308 7.2308 0 0 1-1.89-1.2036c-.1512-.132-.2916-.276-.4356-.4152a7.5569 7.5569 0 0 1-1.224-1.5216l-.0708-.114a1.1077 1.1077 0 0 1-.1224-.246c-.0456-.1764.0732-.318.0732-.318s.2916-.3192.4272-.492c.132-.168.2436-.3312.3156-.4476.1416-.228.186-.462.1116-.6432a99.9093 99.9093 0 0 0-1.0416-2.4492c-.0708-.1608-.2808-.276-.4716-.2988a5.3262 5.3262 0 0 0-.1944-.0192 4.0642 4.0642 0 0 0-.4836.0048l.2412-.0096.0012.0012Z" fill="#999"/></svg>
