<svg width="27" height="24" viewBox="0 0 27 24" fill="none" xmlns="http://www.w3.org/2000/svg"><path d="M24.04 6.1277h-4.32V3.1149C19.72 1.3787 18.424 0 16.792 0H9.208C7.576 0 6.28 1.3787 6.28 3.1149v3.0128H1.96c-.528 0-.96.4595-.96 1.0212v11.6937C1 21.7021 3.16 24 5.848 24h14.304C22.84 24 25 21.7021 25 18.8426V7.1489c0-.5617-.432-1.0212-.96-1.0212ZM8.2 3.1149c0-.6128.432-1.0724 1.008-1.0724h7.584c.576 0 1.008.4596 1.008 1.0724v3.0128H8.2V3.1149Zm14.88 15.7277c0 1.7361-1.296 3.1148-2.928 3.1148H5.848c-1.632 0-2.928-1.3787-2.928-3.1148V8.1702h3.36v2.0426c0 .5617.432 1.0212.96 1.0212s.96-.4595.96-1.0212V8.1702h9.6v2.0426c0 .5617.432 1.0212.96 1.0212s.96-.4595.96-1.0212V8.1702h3.36v10.6724Z" fill="#fff"/></svg>
