<svg width="272" height="285" fill="none" xmlns="http://www.w3.org/2000/svg"><path d="m265.634 135.258 4.864 28.144c9.071 52.471-38.034 105.153-106.69 118.497-69.827 13.574-135.498-18.681-146.679-72.027a76.173 76.173 0 0 1-.513-2.681l-4.866-28.144c.155.895.326 1.788.513 2.681 11.183 53.346 76.854 85.603 146.679 72.03 68.656-13.346 115.763-66.028 106.692-118.5Z" fill="url(#a)"/><path d="M118.563 63.45c69.827-13.573 135.493 18.668 146.676 72.012 11.181 53.346-36.352 107.608-106.179 121.181-69.824 13.573-135.495-18.684-146.679-72.03C1.201 131.269 48.736 77.023 118.563 63.45Z" fill="#FFCFCC"/><path d="m261.026 105.309 4.865 28.143c9.071 52.471-38.035 105.154-106.691 118.498-69.826 13.573-135.498-18.682-146.678-72.028a76.173 76.173 0 0 1-.514-2.681l-4.866-28.143c.156.895.327 1.788.513 2.681 11.183 53.346 76.854 85.603 146.679 72.03 68.656-13.347 115.763-66.029 106.692-118.5Z" fill="url(#b)"/><path d="M113.955 33.5c69.827-13.573 135.494 18.669 146.677 72.013 11.181 53.346-36.353 107.607-106.18 121.18-69.824 13.573-135.495-18.684-146.678-72.03C-3.407 101.319 44.129 47.073 113.955 33.5Z" fill="#FFCFCC"/><path d="m255.267 75.489 4.864 28.143c9.071 52.471-38.034 105.153-106.69 118.498-69.827 13.573-135.498-18.682-146.679-72.028a76.105 76.105 0 0 1-.513-2.681l-4.866-28.144c.155.896.326 1.788.513 2.681 11.183 53.346 76.854 85.603 146.678 72.03 68.657-13.346 115.764-66.028 106.693-118.5Z" fill="url(#c)"/><path d="M108.196 3.68c69.826-13.573 135.493 18.668 146.676 72.012C266.053 129.04 218.52 183.3 148.693 196.873c-69.825 13.573-135.496-18.684-146.679-72.03C-9.166 71.499 38.37 17.253 108.196 3.68Z" fill="#FFCFCC"/><path d="M109.409 14.78c3.927-.763 8.185.04 10.864 2.78l23.099 23.605c2.13 2.175 5.593 3.296 9.264 2.988l39.911-3.25c9.235-.75 14.624 7.032 9.113 13.173l-23.808 26.498c-2.205 2.44-2.798 5.46-1.617 8.07l12.892 28.38c2.352 5.209-2.381 10.719-8.798 11.968a14.119 14.119 0 0 1-5.333.013l-37.821-7.234a14.216 14.216 0 0 0-5.333.031c-1.761.342-3.453 1.006-4.928 1.963l-31.946 20.796a13.837 13.837 0 0 1-4.92 1.979c-6.419 1.249-13-2.065-12.929-7.745l.449-30.973c.035-2.847-1.726-5.406-4.72-6.836l-32.64-15.528c-7.553-3.6-5.72-12.787 3.093-15.545L81.397 58c3.51-1.088 6.248-3.414 7.334-6.215L100.514 21.4c1.366-3.525 4.966-5.855 8.895-6.62Z" fill="url(#d)"/><defs><linearGradient id="a" x1="16.563" y1="241.443" x2="259.437" y2="241.443" gradientUnits="userSpaceOnUse"><stop stop-color="#E65C56"/><stop offset="1" stop-color="#FF9994"/></linearGradient><linearGradient id="b" x1="11.956" y1="211.494" x2="254.829" y2="211.494" gradientUnits="userSpaceOnUse"><stop stop-color="#E65C56"/><stop offset="1" stop-color="#FF9994"/></linearGradient><linearGradient id="c" x1="6.315" y1="175.401" x2="261.248" y2="175.401" gradientUnits="userSpaceOnUse"><stop stop-color="#E65C56"/><stop offset="1" stop-color="#FF9994"/></linearGradient><linearGradient id="d" x1="77.579" y1="47.581" x2="77.579" y2="47.581" gradientUnits="userSpaceOnUse"><stop stop-color="#FA837D"/><stop offset="1" stop-color="#EB655E"/></linearGradient></defs></svg>