<svg width="36" height="47" fill="none" xmlns="http://www.w3.org/2000/svg"><path d="m4.364 14.393 14.017 2.43 14.885-5.12L15.777 7.71 4.364 14.393Zm7.074 17.662 7.811 5.858 6.553-4.947-9.634-5.728-4.513 4.817" fill="#2F3382"/><path d="m14.172 36.568 6.552 10.111s4.162-10.295 5.078-13.713c-8.035.414-11.63 3.602-11.63 3.602ZM7.141 21.336l4.297 10.719s8.158-3.992 15.84-5.36c3.34-8.353 6.118-14.993 5.988-14.993-7.638.217-24.215 7.768-26.125 9.634Z" fill="#57A8F2"/><path d="m.502 4.151 3.862 10.242S23.632 3.153 36 4.15C27.494.55 14.302-2.27.502 4.151Z" fill="url(#a)"/><defs><linearGradient id="a" x1="2.841" y1="12.691" x2="7.351" y2="12.691" gradientUnits="userSpaceOnUse"><stop stop-color="#9BD3FF"/><stop offset="1" stop-color="#5B9EE1"/></linearGradient></defs></svg>