<svg width="272" height="285" fill="none" xmlns="http://www.w3.org/2000/svg"><path d="m265.634 135.258 4.864 28.144c9.071 52.471-38.034 105.153-106.69 118.497-69.827 13.574-135.498-18.681-146.679-72.027a75.946 75.946 0 0 1-.513-2.681l-4.866-28.144c.155.895.326 1.788.513 2.681 11.183 53.346 76.854 85.603 146.678 72.03 68.657-13.346 115.764-66.028 106.693-118.5Z" fill="url(#a)"/><path d="M118.563 63.45c69.827-13.573 135.493 18.668 146.676 72.012 11.181 53.346-36.352 107.608-106.179 121.181-69.824 13.573-135.496-18.684-146.679-72.03C1.201 131.269 48.736 77.023 118.563 63.45Z" fill="#DCEEFF"/><path d="m261.027 105.309 4.864 28.143c9.071 52.471-38.034 105.154-106.69 118.498-69.827 13.573-135.498-18.682-146.68-72.028a76.173 76.173 0 0 1-.512-2.681l-4.867-28.143c.156.895.327 1.788.513 2.681 11.184 53.346 76.855 85.603 146.679 72.03 68.656-13.347 115.763-66.029 106.693-118.5Z" fill="url(#b)"/><path d="M113.955 33.5c69.827-13.573 135.494 18.669 146.677 72.013 11.181 53.346-36.353 107.607-106.179 121.18-69.825 13.573-135.496-18.684-146.68-72.03C-3.406 101.319 44.13 47.073 113.956 33.5Z" fill="#CEEDE5"/><path d="m255.267 75.489 4.864 28.143c9.071 52.471-38.034 105.153-106.69 118.498-69.827 13.573-135.498-18.682-146.679-72.028a76.105 76.105 0 0 1-.513-2.681l-4.867-28.144c.156.896.327 1.788.513 2.681 11.184 53.346 76.855 85.603 146.679 72.03 68.656-13.346 115.764-66.028 106.693-118.5Z" fill="url(#c)"/><path d="M108.196 3.68c69.826-13.573 135.493 18.668 146.676 72.012C266.053 129.04 218.52 183.3 148.693 196.873c-69.825 13.573-135.496-18.684-146.679-72.03C-9.167 71.499 38.369 17.253 108.196 3.68Z" fill="url(#d)"/><path d="M214.077 94.715c.378-.936.693-1.887.932-2.856.036-.153.111-.296.147-.447.021-.096.029-.193.046-.29.054-.242.086-.489.125-.736a20.75 20.75 0 0 0 .226-1.704c.025-.287.043-.572.053-.858.011-.222.043-.436.047-.661 0-.168-.04-.344-.04-.512a23.625 23.625 0 0 0-.243-3.26c-.017-.12-.007-.239-.028-.364l-.047-.29-3.917-22.642c.039.221.043.436.079.654a24.38 24.38 0 0 1 .243 3.256c0 .393.01.786-.008 1.176-.014.286-.032.572-.057.858-.046.572-.125 1.14-.221 1.7-.043.248-.075.498-.125.74-.05.251-.133.49-.193.737-.24.965-.554 1.92-.933 2.856-.104.254-.2.515-.315.769a23.402 23.402 0 0 1-1.74 3.177 26.74 26.74 0 0 1-1.452 2.012 31.3 31.3 0 0 1-2.08 2.349 32.763 32.763 0 0 1-2.423 2.212c-.311.257-.661.493-.983.74-.568.44-1.126.886-1.734 1.3-1.372.941-2.884 1.799-4.464 2.617-.261.132-.522.268-.786.4l-3.896-22.542a22.114 22.114 0 0 0-.122-.63c-1.025-4.896-3.717-8.166-8.027-9.76-.998-.372-2.095-.644-3.253-.855-.365-.064-.765-.096-1.147-.15-.551-.071-1.073-.175-1.652-.214-.261-.018-.564.01-.829 0a36.31 36.31 0 0 0-2.166-.004c-.475.01-.901-.029-1.394 0-.289.018-.629.082-.926.107-.872.068-1.787.186-2.712.311-.529.072-1.008.09-1.555.179-.604.1-1.219.21-1.841.332l-16.324 3.17 3.914 22.647 16.324-3.174c1.19-.232 2.28-.357 3.395-.511.926-.125 1.845-.24 2.717-.31.8-.065 1.562-.09 2.316-.104a33.294 33.294 0 0 1 2.162 0c.865.035 1.695.11 2.488.218.382.05.779.082 1.144.15 1.154.21 2.255.479 3.252.85 4.315 1.598 7.002 4.865 8.028 9.761.039.18.072.354.1.53-.089.046-.178.093-.271.139a55.202 55.202 0 0 1-4.761 2.066c-.158.057-.333.11-.494.168a71.719 71.719 0 0 1-5.482 1.733c-.426.118-.84.243-1.273.354a89.275 89.275 0 0 1-5.336 1.219l-19.573 3.803 3.914 22.647.725-.143 1.723 9.965v.007a6.683 6.683 0 0 1-.211 1c-.06.219-.132.433-.214.647a9.258 9.258 0 0 1-.422.912c-.111.204-.218.404-.343.604-.225.35-.479.686-.754 1.015-.157.186-.325.361-.493.54-.254.257-.526.511-.812.75-.193.165-.386.322-.593.476a13.66 13.66 0 0 1-1.026.675c-.196.115-.386.24-.59.347-.543.286-1.108.547-1.708.769-.079.028-.165.05-.247.075a14.06 14.06 0 0 1-1.991.546 14.56 14.56 0 0 1-2.158.25c-.201.011-.394-.003-.59 0-.497 0-.987-.01-1.466-.06-.221-.021-.436-.054-.654-.086a12.48 12.48 0 0 1-1.304-.261c-.2-.053-.401-.1-.594-.157-.5-.157-.983-.343-1.44-.554-.082-.039-.179-.068-.261-.107a10.57 10.57 0 0 1-1.48-.905c-.128-.096-.239-.203-.361-.303a8.904 8.904 0 0 1-.883-.826 6.916 6.916 0 0 1-.357-.425 7.234 7.234 0 0 1-.633-.944c-.082-.147-.171-.286-.243-.436a6.694 6.694 0 0 1-.536-1.526l-2.034-9.697-.411.078-2.008-11.63-1.866-8.904-.411.083-2.012-11.635-7.374-35.167-.036-.196 3.914 22.643.039.196 5.079 24.234-6.24 1.211c-.49.097-.976.147-1.452.168-.135.007-.268 0-.4 0a9.61 9.61 0 0 1-.872-.036 8.899 8.899 0 0 1-1.912-.378c-.115-.036-.222-.086-.336-.129a7.262 7.262 0 0 1-1.476-.744c-.075-.05-.158-.089-.229-.143a5.593 5.593 0 0 1-1.201-1.193c-.075-.1-.139-.204-.207-.308-.304-.478-.558-.99-.676-1.558l-.029-.16 3.914 22.646.029.157c.121.568.372 1.079.679 1.558.064.107.129.208.204.308.085.114.153.232.25.339l3.131 18.111.029.164c.118.562.371 1.069.675 1.548.068.104.129.204.204.304a5.65 5.65 0 0 0 1.201 1.19c.071.054.153.089.229.14.446.296.94.543 1.476.739.114.043.218.093.336.133.6.193 1.24.314 1.912.375.057.003.107.028.164.032.229.014.469.004.701.004.136-.004.268.007.407 0 .04 0 .079.003.118 0a9.476 9.476 0 0 0 1.333-.169l7.038-1.368 2.034 9.697c.114.539.304 1.043.536 1.526.072.154.161.293.243.436a7.61 7.61 0 0 0 1.873 2.195c.122.099.232.207.365.303.457.336.947.64 1.476.905.086.039.179.067.261.107.461.214.94.4 1.444.554.189.061.389.104.586.157a13.775 13.775 0 0 0 1.962.35c.136.011.268.043.408.054.343.021.7.004 1.054.004.2 0 .393.01.597.003.057-.003.114.004.172 0a15.251 15.251 0 0 0 1.987-.25c.332-.068.665-.143.986-.229.343-.089.672-.204 1.001-.318.082-.028.168-.05.25-.079l.107-.035a14.38 14.38 0 0 0 1.369-.597c.083-.043.151-.093.229-.136.204-.107.393-.229.59-.347.232-.139.479-.261.693-.407.122-.082.218-.182.333-.268.207-.15.4-.311.593-.472.29-.243.558-.493.811-.758.172-.175.336-.35.494-.532.082-.1.189-.19.268-.293.114-.147.225-.297.332-.451.061-.089.097-.186.157-.275.125-.197.229-.4.34-.604.161-.297.304-.601.422-.912a8.45 8.45 0 0 0 .218-.646c.039-.14.107-.276.139-.419.043-.193.043-.389.068-.582.029-.186.057-.368.068-.558.007-.089.032-.179.032-.272a6.858 6.858 0 0 0-.082-1.175l-.014-.083-1.73-9.997 19.572-3.806c.229-.043.451-.097.669-.154.236-.061.457-.139.682-.218.054-.018.111-.032.165-.05l.071-.025c.322-.118.633-.254.93-.404.053-.029.1-.064.153-.093.14-.072.265-.154.397-.232.157-.093.322-.175.468-.276.047-.032.072-.078.118-.111a7.432 7.432 0 0 0 1.462-1.358c.032-.039.082-.068.111-.103.079-.1.154-.2.222-.304.042-.061.071-.129.11-.19.086-.135.158-.275.233-.411.107-.203.203-.411.286-.618.057-.146.103-.293.146-.439.025-.097.072-.186.093-.283.029-.132.029-.264.05-.4.018-.125.036-.254.043-.383.004-.06.021-.118.021-.178a4.308 4.308 0 0 0-.057-.808l-.007-.057-2.656-15.345a66.432 66.432 0 0 0 3.736-1.251c.125-.046.271-.078.393-.121.039-.018.075-.036.114-.05a54.579 54.579 0 0 0 4.761-2.066c.168-.082.365-.147.529-.229.189-.096.343-.214.529-.311 1.58-.818 3.092-1.676 4.464-2.613l.029-.018c.618-.421 1.179-.875 1.755-1.319.307-.239.64-.46.933-.703a33.252 33.252 0 0 0 2.423-2.216 30.709 30.709 0 0 0 2.08-2.349l.061-.068c.465-.586.897-1.18 1.297-1.78.04-.053.058-.11.093-.164a23.079 23.079 0 0 0 1.741-3.178c.114-.253.211-.51.315-.768Z" fill="url(#e)"/><path d="M196.557 41.334c8.067 3.677 12.988 9.6 14.711 17.824 1.669 7.96-.532 15.016-6.623 21.22-6.098 6.18-15.444 10.509-28.011 12.95l-19.573 3.803 1.866 8.904 19.923-3.875c4.167-.807 8.085 1.115 8.753 4.3.672 3.206-2.166 6.444-6.334 7.256l-19.922 3.871 2.033 9.697c.987 4.704-3.202 9.485-9.361 10.679-6.187 1.205-11.973-1.636-12.96-6.34l-2.034-9.697-7.041 1.369c-4.168.811-8.085-1.115-8.753-4.3-.672-3.206 2.166-6.445 6.333-7.256l7.042-1.365-1.866-8.904-7.041 1.369c-4.168.812-8.089-1.111-8.761-4.32-.668-3.185 2.17-6.424 6.337-7.232l7.041-1.369-7.373-35.167c-.819-3.91 2.663-7.849 7.745-8.835l31.825-6.187c13.261-2.577 23.951-2.045 32.044 1.605Zm-9.962 34.77c3.442-2.853 4.668-6.73 3.642-11.627-1.026-4.897-3.717-8.164-8.028-9.762-4.346-1.615-10.183-1.712-17.474-.293l-16.324 3.17 5.88 28.055 16.324-3.174c7.198-1.397 12.538-3.517 15.98-6.369ZM66.511 59.462c6.788-1.319 13.16 1.809 14.247 6.995l10.162 48.481 7.137-1.387c7.07-1.372 12.353 4.079 8.861 9.2l-15.416 22.704c-1.358 1.984-3.681 3.292-6.176 3.778-2.491.486-5.161.143-7.213-1.176l-23.354-15.169c-5.283-3.417-2.61-10.412 4.464-11.788l7.134-1.387-10.161-48.481c-1.087-5.186 3.524-10.45 10.315-11.77Z" fill="#96F6F0"/><defs><linearGradient id="a" x1="16.563" y1="241.443" x2="259.437" y2="241.443" gradientUnits="userSpaceOnUse"><stop stop-color="#C9F8F5"/><stop offset="1" stop-color="#6BD4D8"/></linearGradient><linearGradient id="b" x1="11.956" y1="211.494" x2="254.829" y2="211.494" gradientUnits="userSpaceOnUse"><stop stop-color="#C9F8F5"/><stop offset="1" stop-color="#6BD4D8"/></linearGradient><linearGradient id="c" x1="6.196" y1="181.673" x2="249.07" y2="181.673" gradientUnits="userSpaceOnUse"><stop stop-color="#C9F8F5"/><stop offset="1" stop-color="#6BD4D8"/></linearGradient><linearGradient id="d" x1="64.414" y1="50.427" x2="64.414" y2="50.427" gradientUnits="userSpaceOnUse"><stop stop-color="#ECF8F7"/><stop offset="1" stop-color="#CFF4F3"/></linearGradient><linearGradient id="e" x1="139.721" y1="123.14" x2="215.653" y2="123.14" gradientUnits="userSpaceOnUse"><stop stop-color="#C9F8F5"/><stop offset="1" stop-color="#6BD4D8"/></linearGradient></defs></svg>