<svg width="272" height="307" fill="none" xmlns="http://www.w3.org/2000/svg"><path d="M258.14 135.468a83.571 83.571 0 0 0 .578-4.545c.051-.526.107-1.048.146-1.571.088-1.112.144-2.223.181-3.34.013-.377.04-.751.048-1.13.002-.088.01-.176.01-.263.005-.255-.021-.51-.021-.764a76.285 76.285 0 0 0-.135-4.988 88.498 88.498 0 0 0-.133-1.783 75.711 75.711 0 0 0-.541-4.662c-.048-.337-.061-.674-.117-1.011-.048-.294-.096-.591-.149-.886l-5.81-33.618c.109.634.172 1.266.265 1.897.228 1.555.409 3.11.539 4.664a74.489 74.489 0 0 1 .27 6.776c-.002.34.016.68.011 1.02-.008.381-.037.763-.05 1.145a73.696 73.696 0 0 1-.178 3.322c-.043.528-.098 1.053-.149 1.582a77.248 77.248 0 0 1-.578 4.542 81.26 81.26 0 0 1-.531 2.961c-.098.488-.185.979-.289 1.464a81.59 81.59 0 0 1-.761 3.142c-.117.45-.215.902-.34 1.35a82.979 82.979 0 0 1-1.348 4.425c-.069.202-.151.404-.22.608a85.485 85.485 0 0 1-1.385 3.762c-.199.504-.422 1.003-.631 1.505a97.095 97.095 0 0 1-1.221 2.82c-.257.562-.533 1.122-.801 1.682-.419.865-.844 1.73-1.29 2.589-.302.579-.612 1.152-.925 1.725a97.275 97.275 0 0 1-3.988 6.662c-.356.547-.711 1.096-1.08 1.637-.406.602-.836 1.194-1.258 1.788a109.539 109.539 0 0 1-3.847 5.11 97.667 97.667 0 0 1-1.273 1.563c-.653.788-1.324 1.563-2.003 2.337-.43.489-.855.979-1.292 1.462-.751.825-1.523 1.637-2.301 2.447-.398.413-.785.835-1.191 1.244a119.531 119.531 0 0 1-3.322 3.231c-.119.114-.233.231-.353.343a127.287 127.287 0 0 1-3.873 3.449c-.411.355-.844.697-1.26 1.048-.926.772-1.855 1.541-2.808 2.292-.522.414-1.061.82-1.594 1.226a124.44 124.44 0 0 1-2.659 1.995c-.581.422-1.167.836-1.756 1.252-.692.486-1.393.963-2.096 1.441a144.574 144.574 0 0 1-7.158 4.553c-.374.223-.759.432-1.136.653a148.9 148.9 0 0 1-7.426 4.048c-.255.128-.499.265-.753.393a153.261 153.261 0 0 1-6.697 3.141c-.597.265-1.207.515-1.812.775a163.86 163.86 0 0 1-5.442 2.202c-.666.255-1.326.515-1.997.761a157.004 157.004 0 0 1-5.946 2.059c-.295.096-.584.202-.878.297a165.03 165.03 0 0 1-6.997 2.043c-1.249.337-2.51.651-3.775.961-.642.156-1.276.326-1.924.475-1.968.459-3.956.889-5.964 1.279-1.852.36-3.696.671-5.537.965-2.582.414-5.155.772-7.718 1.062-.443.05-.884.079-1.327.127a166.02 166.02 0 0 1-6.413.544c-1.106.072-2.21.138-3.308.186-.666.029-1.332.063-1.995.085-1.528.05-3.051.074-4.569.079-.401.003-.804.016-1.204.013-1.911-.005-3.81-.047-5.702-.122-.499-.018-.992-.055-1.491-.079a148.276 148.276 0 0 1-4.189-.255c-.621-.045-1.24-.101-1.858-.157a142.926 142.926 0 0 1-3.807-.382c-.61-.069-1.218-.135-1.825-.212a151.814 151.814 0 0 1-4.34-.61c-.362-.056-.725-.104-1.083-.162-1.783-.289-3.55-.613-5.304-.966-.467-.092-.929-.199-1.396-.297a140.092 140.092 0 0 1-5.619-1.302 137.979 137.979 0 0 1-3.56-.953c-.54-.154-1.08-.3-1.616-.459a134.32 134.32 0 0 1-4.474-1.401c-.167-.055-.34-.106-.506-.162a133.08 133.08 0 0 1-4.837-1.743c-.475-.183-.942-.374-1.414-.56a133.683 133.683 0 0 1-3.367-1.382 120.808 120.808 0 0 1-4.834-2.199c-.454-.215-.91-.428-1.358-.65a120.42 120.42 0 0 1-4.405-2.287c-.103-.059-.204-.12-.308-.178a111.616 111.616 0 0 1-3.94-2.287c-.437-.266-.867-.541-1.302-.812a106.948 106.948 0 0 1-4.216-2.767 102.743 102.743 0 0 1-2.868-2.062c-.348-.257-.703-.509-1.045-.769a103.196 103.196 0 0 1-3.699-2.951c-.22-.185-.432-.382-.653-.57a97.623 97.623 0 0 1-2.873-2.547c-.374-.348-.74-.7-1.109-1.053a110.756 110.756 0 0 1-3.378-3.386 91.417 91.417 0 0 1-2.406-2.658c-.228-.263-.464-.515-.69-.78a84.48 84.48 0 0 1-2.86-3.548c-.228-.299-.443-.607-.668-.907a87.47 87.47 0 0 1-2-2.802c-.287-.424-.566-.851-.847-1.278a79.969 79.969 0 0 1-1.674-2.672c-.252-.417-.507-.833-.749-1.255a80.731 80.731 0 0 1-1.84-3.386c-.104-.201-.216-.395-.317-.597a75.538 75.538 0 0 1-1.897-4.083c-.17-.392-.323-.793-.485-1.191a75.98 75.98 0 0 1-1.189-3.056 97.976 97.976 0 0 1-.512-1.462 78.58 78.58 0 0 1-.963-3.06c-.133-.45-.273-.899-.398-1.355a78.72 78.72 0 0 1-1.088-4.452 77.649 77.649 0 0 1-.506-2.651l5.813 33.618a72.333 72.333 0 0 0 1.594 7.1c.125.457.263.908.396 1.359.302 1.029.62 2.048.965 3.056.165.491.335.979.51 1.462a76.037 76.037 0 0 0 1.188 3.059c.165.398.319.799.489 1.191a77.94 77.94 0 0 0 1.894 4.081c.103.204.217.401.32.605a79.548 79.548 0 0 0 1.837 3.377c.244.422.499.839.75 1.258a82.069 82.069 0 0 0 1.675 2.672c.278.427.557.854.846 1.276a79.513 79.513 0 0 0 2 2.802c.226.302.438.61.667.91a88.591 88.591 0 0 0 2.862 3.547c.223.263.462.517.69.777.783.9 1.581 1.789 2.407 2.659.352.377.716.745 1.077 1.117a96.06 96.06 0 0 0 2.297 2.268c.37.353.735.709 1.112 1.056a94.27 94.27 0 0 0 2.873 2.547c.22.189.43.382.653.568a100.817 100.817 0 0 0 3.696 2.95c.345.263.703.518 1.053.778.94.697 1.89 1.382 2.858 2.053a111.238 111.238 0 0 0 4.219 2.767c.434.274.864.547 1.305.815 1.286.78 2.592 1.539 3.921 2.274.111.063.218.13.329.191 1.44.79 2.91 1.547 4.399 2.287.451.22.907.432 1.358.65 1.075.515 2.157 1.019 3.253 1.507a120.388 120.388 0 0 0 4.95 2.072c.473.186.938.379 1.412.56a133.24 133.24 0 0 0 4.84 1.745c.164.056.334.104.499.16 1.477.49 2.971.958 4.48 1.403.537.157 1.078.305 1.616.457 1.178.331 2.364.65 3.558.955.587.146 1.17.294 1.76.435 1.278.308 2.568.594 3.865.867.464.099.923.205 1.39.297 1.754.353 3.521.674 5.307.966.358.059.721.104 1.08.16 1.438.222 2.886.429 4.343.612.605.075 1.215.141 1.822.21 1.266.143 2.534.271 3.81.385.619.053 1.234.108 1.855.156.353.027.703.064 1.056.09 1.04.069 2.091.114 3.136.165.499.024.992.058 1.491.08 1.889.074 3.786.114 5.696.122.409 0 .82-.014 1.229-.014 1.509-.008 3.027-.029 4.55-.079.663-.021 1.329-.056 1.992-.085.749-.035 1.491-.053 2.242-.096.353-.021.714-.069 1.067-.093 2.13-.138 4.266-.318 6.413-.543.443-.046.883-.075 1.326-.125 2.563-.289 5.137-.65 7.718-1.062.215-.034.425-.053.64-.087a163.563 163.563 0 0 0 10.862-2.157c.652-.151 1.294-.321 1.942-.48 1.056-.258 2.12-.507 3.165-.783.199-.053.387-.119.586-.172a164.036 164.036 0 0 0 7.007-2.046c.287-.09.563-.193.849-.287a162.76 162.76 0 0 0 5.975-2.069c.26-.095.528-.175.788-.271.406-.153.794-.331 1.199-.488 1.842-.705 3.659-1.44 5.453-2.205.602-.257 1.21-.509 1.806-.772a152.837 152.837 0 0 0 6.7-3.141c.071-.037.148-.069.223-.106.18-.09.347-.197.528-.287a149.55 149.55 0 0 0 7.431-4.051c.374-.218.756-.427 1.13-.65a143.306 143.306 0 0 0 7.161-4.555c.226-.154.47-.29.695-.444.473-.323.926-.663 1.393-.992.592-.416 1.186-.836 1.77-1.26.891-.65 1.767-1.313 2.637-1.979.541-.414 1.085-.823 1.616-1.242.947-.748 1.873-1.515 2.794-2.282.419-.353.851-.698 1.268-1.053a127.812 127.812 0 0 0 3.873-3.452c.112-.103.215-.212.327-.316a124.44 124.44 0 0 0 3.348-3.258c.403-.408.791-.827 1.186-1.239.78-.809 1.552-1.621 2.3-2.446.443-.485.868-.979 1.3-1.47.677-.772 1.348-1.547 2.001-2.332.43-.517.852-1.04 1.271-1.565.313-.385.639-.767.942-1.157.225-.287.421-.584.642-.87a112.45 112.45 0 0 0 2.263-3.081c.26-.368.549-.726.804-1.095.159-.228.3-.465.456-.693.369-.544.724-1.093 1.083-1.642.53-.815 1.05-1.632 1.557-2.457a99.182 99.182 0 0 0 2.425-4.2c.313-.576.626-1.149.926-1.727.448-.857.873-1.722 1.289-2.59.271-.559.544-1.117.802-1.679.429-.937.827-1.881 1.223-2.826.209-.498.429-.997.629-1.499a87.253 87.253 0 0 0 1.382-3.754c.071-.207.156-.411.225-.618.491-1.467.94-2.942 1.348-4.426.122-.443.22-.888.334-1.334.226-.87.462-1.738.658-2.614.04-.18.069-.363.107-.543.106-.483.193-.969.289-1.454.193-.99.374-1.98.533-2.974Z" fill="url(#a)"/><path d="M264.036 173.485a82.37 82.37 0 0 0 .579-4.544c.05-.526.106-1.049.146-1.571.087-1.112.143-2.223.18-3.34.013-.377.04-.751.048-1.131.002-.087.01-.175.01-.262.006-.255-.021-.51-.021-.765a76.273 76.273 0 0 0-.135-4.987 75.923 75.923 0 0 0-.133-1.783 75.621 75.621 0 0 0-.541-4.662c-.048-.337-.061-.674-.117-1.011-.048-.294-.095-.591-.148-.886l-5.811-33.618c.109.634.173 1.265.266 1.897a75.49 75.49 0 0 1 .538 4.664 72.079 72.079 0 0 1 .271 6.776c-.003.34.016.679.01 1.019-.008.382-.037.764-.05 1.146a72.221 72.221 0 0 1-.178 3.322c-.042.528-.098 1.053-.148 1.581a77.427 77.427 0 0 1-.579 4.542c-.156.99-.337 1.977-.53 2.961-.099.489-.186.979-.29 1.465a79.299 79.299 0 0 1-.761 3.141c-.117.451-.215.902-.34 1.351a82.966 82.966 0 0 1-1.347 4.425c-.069.202-.152.403-.221.608a85.485 85.485 0 0 1-1.385 3.762c-.199.504-.422 1.003-.631 1.504a90.893 90.893 0 0 1-1.221 2.821c-.257.562-.533 1.122-.801 1.682-.419.865-.844 1.73-1.289 2.589a109.69 109.69 0 0 1-3.351 5.922c-.507.828-1.03 1.648-1.563 2.465-.355.546-.711 1.096-1.08 1.637-.406.602-.835 1.194-1.257 1.788a108.096 108.096 0 0 1-2.266 3.08c-.52.68-1.043 1.359-1.581 2.03-.42.523-.841 1.046-1.274 1.563-.653.788-1.324 1.563-2.003 2.337-.43.488-.854.979-1.292 1.462-.751.825-1.523 1.637-2.3 2.446-.398.414-.786.836-1.192 1.245a120.897 120.897 0 0 1-3.321 3.231c-.12.114-.234.231-.353.342a128.57 128.57 0 0 1-3.874 3.45c-.411.355-.844.697-1.26 1.048-.926.772-1.855 1.541-2.807 2.292-.523.414-1.062.82-1.595 1.226-.875.673-1.759 1.34-2.658 1.995-.581.422-1.168.836-1.757 1.252-.692.486-1.393.963-2.096 1.441a145.312 145.312 0 0 1-7.158 4.553c-.374.223-.759.432-1.135.652a148.946 148.946 0 0 1-7.427 4.049c-.254.127-.498.265-.753.393a153.261 153.261 0 0 1-6.697 3.141c-.597.265-1.207.515-1.812.775a164.685 164.685 0 0 1-5.441 2.202c-.666.254-1.327.515-1.998.761a156.396 156.396 0 0 1-5.946 2.059c-.294.096-.584.202-.878.297-2.3.73-4.635 1.406-6.997 2.043-1.249.337-2.509.65-3.775.961-.642.156-1.276.326-1.924.475-1.968.459-3.955.888-5.964 1.278-1.852.361-3.696.672-5.537.966-2.582.414-5.155.772-7.718 1.061-.443.051-.884.08-1.327.128a165.97 165.97 0 0 1-6.412.544c-1.107.071-2.21.138-3.309.185-.666.03-1.332.064-1.995.085a151.93 151.93 0 0 1-4.569.08c-.4.003-.804.016-1.204.013-1.91-.005-3.81-.048-5.702-.122-.499-.018-.992-.056-1.491-.079a148.276 148.276 0 0 1-4.189-.255c-.621-.045-1.239-.101-1.857-.157a142.626 142.626 0 0 1-3.808-.382c-.61-.069-1.218-.135-1.825-.212a151.578 151.578 0 0 1-4.34-.61c-.361-.056-.725-.104-1.083-.162-1.783-.289-3.55-.613-5.304-.966-.467-.093-.928-.199-1.395-.297a138.92 138.92 0 0 1-5.62-1.303 137.963 137.963 0 0 1-3.56-.952c-.539-.154-1.08-.3-1.616-.459a134.45 134.45 0 0 1-4.473-1.401c-.167-.056-.34-.106-.507-.162a133.217 133.217 0 0 1-4.837-1.743c-.475-.183-.942-.374-1.414-.56a133.69 133.69 0 0 1-3.367-1.382 114.662 114.662 0 0 1-4.834-2.2c-.453-.214-.91-.427-1.358-.65a117.443 117.443 0 0 1-4.404-2.287c-.104-.058-.205-.119-.308-.177a111.706 111.706 0 0 1-3.94-2.287c-.438-.266-.868-.542-1.303-.812a109.497 109.497 0 0 1-4.216-2.768 102.562 102.562 0 0 1-2.868-2.061c-.347-.257-.703-.509-1.045-.769a104.415 104.415 0 0 1-3.699-2.951c-.22-.185-.432-.382-.652-.57a97.619 97.619 0 0 1-2.874-2.547c-.374-.348-.74-.701-1.109-1.053a108.594 108.594 0 0 1-3.377-3.386 91.128 91.128 0 0 1-2.407-2.658c-.228-.263-.464-.515-.69-.78a84.56 84.56 0 0 1-2.86-3.548c-.228-.3-.443-.607-.668-.907a87.467 87.467 0 0 1-2-2.802c-.287-.424-.566-.851-.847-1.279a78.912 78.912 0 0 1-1.674-2.671c-.252-.417-.507-.833-.748-1.255a80.605 80.605 0 0 1-1.842-3.386c-.103-.201-.214-.395-.315-.597a75.896 75.896 0 0 1-1.897-4.083c-.17-.393-.324-.793-.486-1.191a75.519 75.519 0 0 1-1.189-3.057 91.125 91.125 0 0 1-.512-1.462 78.584 78.584 0 0 1-.963-3.059c-.132-.451-.273-.899-.398-1.355-.4-1.47-.772-2.951-1.087-4.452a77.649 77.649 0 0 1-.507-2.651l5.813 33.618a72.31 72.31 0 0 0 1.594 7.1c.125.457.263.908.396 1.359.302 1.029.62 2.048.966 3.056.164.491.334.979.509 1.462a76.187 76.187 0 0 0 1.188 3.059c.165.398.319.798.489 1.191a77.86 77.86 0 0 0 1.894 4.081c.104.204.218.4.321.605a79.663 79.663 0 0 0 1.836 3.377c.244.422.499.839.75 1.258a80.963 80.963 0 0 0 1.675 2.671c.279.428.557.855.846 1.277a78.558 78.558 0 0 0 2 2.801c.226.303.439.611.667.91a87.91 87.91 0 0 0 2.863 3.548c.223.262.461.517.69.777a84.24 84.24 0 0 0 2.406 2.659c.353.376.716.745 1.077 1.117.75.766 1.518 1.523 2.298 2.268.368.353.735.708 1.111 1.056a94.39 94.39 0 0 0 2.874 2.547c.22.188.43.382.652.568a100.898 100.898 0 0 0 3.696 2.95c.345.263.703.517 1.053.777.94.698 1.89 1.383 2.858 2.054a111.057 111.057 0 0 0 4.219 2.767c.435.274.864.547 1.305.815 1.287.78 2.592 1.539 3.921 2.274.112.063.218.129.33.191 1.44.79 2.91 1.546 4.398 2.287.451.22.908.432 1.359.65 1.074.514 2.157 1.018 3.252 1.506a117.567 117.567 0 0 0 4.95 2.073c.473.185.938.379 1.413.559 1.594.608 3.205 1.194 4.839 1.746.165.056.334.104.499.16 1.478.49 2.971.957 4.481 1.403.536.157 1.077.305 1.616.456 1.178.332 2.364.65 3.558.956.586.145 1.17.294 1.759.435 1.278.307 2.568.594 3.865.867.465.098.924.205 1.39.297 1.754.353 3.521.674 5.307.966.358.059.722.104 1.08.159 1.438.223 2.886.43 4.343.613.605.074 1.215.141 1.823.21 1.265.143 2.533.27 3.81.384.618.054 1.233.109 1.854.157.353.027.703.064 1.056.09 1.04.069 2.091.114 3.136.165.499.023.992.058 1.491.079 1.889.075 3.786.114 5.697.122.408 0 .819-.013 1.228-.013 1.51-.008 3.027-.029 4.55-.08.663-.021 1.329-.055 1.993-.085.748-.034 1.491-.052 2.242-.095.352-.021.713-.069 1.066-.093 2.131-.138 4.266-.318 6.413-.544.443-.045.883-.074 1.326-.124 2.563-.29 5.137-.65 7.718-1.062.215-.034.425-.053.64-.087a163.962 163.962 0 0 0 10.862-2.157c.653-.151 1.295-.321 1.942-.481 1.056-.257 2.12-.506 3.165-.782.199-.053.388-.119.587-.173a162.589 162.589 0 0 0 7.007-2.045c.286-.09.562-.194.849-.287a163.36 163.36 0 0 0 5.974-2.069c.26-.096.528-.175.788-.271.406-.154.794-.331 1.2-.488a161.5 161.5 0 0 0 5.452-2.205c.602-.257 1.21-.509 1.807-.772a153.342 153.342 0 0 0 6.699-3.141c.072-.037.149-.069.223-.106.18-.091.347-.197.528-.287a149.104 149.104 0 0 0 7.431-4.051c.374-.218.756-.427 1.131-.65a143.027 143.027 0 0 0 7.16-4.556c.226-.154.47-.289.696-.443.472-.323.926-.663 1.392-.992.592-.417 1.186-.836 1.77-1.26.892-.65 1.767-1.314 2.637-1.979.542-.414 1.085-.823 1.616-1.242.947-.748 1.873-1.515 2.794-2.282.419-.353.852-.698 1.268-1.053a129.077 129.077 0 0 0 3.874-3.452c.111-.103.215-.212.326-.316a124.481 124.481 0 0 0 3.348-3.258c.404-.408.791-.828 1.186-1.239.78-.809 1.552-1.621 2.301-2.446.443-.486.867-.979 1.3-1.47.676-.772 1.347-1.547 2-2.332.43-.517.852-1.04 1.271-1.565.313-.385.639-.767.942-1.157.225-.287.422-.584.642-.87a112.45 112.45 0 0 0 2.263-3.081c.26-.368.549-.727.804-1.095.159-.229.3-.465.456-.693.369-.544.725-1.093 1.083-1.642.53-.815 1.05-1.632 1.557-2.457a100.946 100.946 0 0 0 2.425-4.2c.313-.576.626-1.149.926-1.727.449-.857.873-1.722 1.29-2.59.27-.559.543-1.117.801-1.679.43-.937.828-1.881 1.223-2.826.21-.499.43-.997.629-1.499.493-1.244.95-2.497 1.382-3.754.072-.207.157-.411.226-.618.49-1.468.939-2.943 1.347-4.426.122-.443.221-.888.335-1.334.225-.871.461-1.738.658-2.614.039-.18.069-.363.106-.543.106-.483.193-.969.289-1.454.194-.99.374-1.98.533-2.975Z" fill="url(#b)"/><path d="M271.036 211.438a81.392 81.392 0 0 0 .579-4.545c.05-.525.106-1.048.146-1.57.087-1.112.143-2.224.18-3.341.013-.376.04-.75.048-1.13.002-.087.01-.175.01-.262.006-.255-.021-.51-.021-.765a76.323 76.323 0 0 0-.135-4.988 76.737 76.737 0 0 0-.133-1.783 75.68 75.68 0 0 0-.541-4.661c-.048-.337-.061-.674-.117-1.011-.048-.295-.095-.592-.148-.886l-5.811-33.618c.109.634.173 1.265.266 1.897a75.4 75.4 0 0 1 .538 4.664 72.079 72.079 0 0 1 .271 6.776c-.003.34.016.679.01 1.019-.008.382-.037.764-.05 1.146a72.221 72.221 0 0 1-.178 3.322c-.042.528-.098 1.053-.148 1.581a77.427 77.427 0 0 1-.579 4.542c-.156.99-.337 1.977-.53 2.961-.099.489-.186.979-.29 1.465a80.158 80.158 0 0 1-.761 3.141c-.117.451-.215.902-.34 1.351a82.966 82.966 0 0 1-1.347 4.425c-.069.202-.152.403-.221.608a85.485 85.485 0 0 1-1.385 3.762c-.199.504-.422 1.003-.631 1.504a89.81 89.81 0 0 1-1.221 2.82c-.257.563-.533 1.123-.801 1.683a109.33 109.33 0 0 1-1.289 2.589 114.331 114.331 0 0 1-2.332 4.216c-.335.57-.674 1.141-1.019 1.706-.507.828-1.03 1.648-1.563 2.465-.355.546-.711 1.096-1.08 1.637-.406.602-.835 1.194-1.257 1.788a115.442 115.442 0 0 1-3.847 5.11 102.403 102.403 0 0 1-3.277 3.9c-.43.488-.854.979-1.292 1.462-.751.825-1.523 1.637-2.3 2.446-.398.414-.786.836-1.192 1.244a119.483 119.483 0 0 1-3.321 3.232c-.12.114-.234.231-.353.342a129.96 129.96 0 0 1-3.874 3.45c-.411.355-.844.697-1.26 1.047-.926.773-1.855 1.542-2.807 2.293-.523.414-1.062.82-1.595 1.226-.875.673-1.759 1.339-2.658 1.995-.581.422-1.168.835-1.757 1.252-.692.486-1.393.963-2.096 1.441a145.312 145.312 0 0 1-7.158 4.553c-.374.222-.759.432-1.135.652a149.766 149.766 0 0 1-7.427 4.049c-.254.127-.498.265-.753.393a154.436 154.436 0 0 1-6.697 3.141c-.597.265-1.207.515-1.812.775a164.685 164.685 0 0 1-5.441 2.202c-.666.254-1.327.514-1.998.761a156.396 156.396 0 0 1-5.946 2.059c-.294.096-.584.202-.878.297-2.3.73-4.635 1.406-6.997 2.043-1.249.337-2.509.65-3.775.961-.642.156-1.276.326-1.924.474-1.968.46-3.955.889-5.964 1.279-1.852.361-3.696.672-5.537.966-2.582.414-5.155.772-7.718 1.061-.443.051-.884.08-1.327.128a167.982 167.982 0 0 1-9.721.729c-.666.029-1.332.064-1.995.085-1.528.051-3.051.074-4.569.08-.4.002-.804.016-1.204.013-1.91-.005-3.81-.048-5.702-.122-.499-.018-.992-.056-1.491-.08a144.634 144.634 0 0 1-4.189-.254c-.621-.045-1.239-.101-1.857-.157a146.895 146.895 0 0 1-3.808-.382c-.61-.069-1.218-.135-1.825-.212a151.599 151.599 0 0 1-4.341-.61c-.361-.056-.724-.104-1.082-.162-1.783-.289-3.55-.613-5.304-.966-.467-.093-.928-.199-1.395-.297a136.516 136.516 0 0 1-5.62-1.303 137.963 137.963 0 0 1-3.56-.952c-.539-.154-1.08-.3-1.616-.459a134.45 134.45 0 0 1-4.473-1.401c-.167-.056-.34-.106-.507-.162a135.138 135.138 0 0 1-4.837-1.743c-.475-.183-.942-.374-1.414-.56a133.69 133.69 0 0 1-3.367-1.382 114.662 114.662 0 0 1-4.834-2.2c-.453-.215-.91-.427-1.358-.65a117.443 117.443 0 0 1-4.405-2.287c-.103-.058-.204-.119-.307-.177a111.706 111.706 0 0 1-3.94-2.287c-.438-.266-.868-.542-1.303-.812a109.497 109.497 0 0 1-4.216-2.768 102.562 102.562 0 0 1-2.868-2.061c-.347-.257-.703-.51-1.045-.77-1.26-.96-2.494-1.942-3.699-2.95-.22-.186-.432-.382-.652-.57a97.619 97.619 0 0 1-2.874-2.547c-.374-.348-.74-.701-1.109-1.054a108.594 108.594 0 0 1-3.377-3.385 89.881 89.881 0 0 1-2.407-2.659c-.228-.262-.464-.514-.69-.78a83.89 83.89 0 0 1-2.86-3.547c-.228-.3-.443-.607-.668-.907a88.606 88.606 0 0 1-2-2.802c-.287-.424-.566-.852-.847-1.279a78.912 78.912 0 0 1-1.674-2.671c-.252-.417-.507-.834-.748-1.255a80.605 80.605 0 0 1-1.842-3.386c-.103-.202-.215-.395-.315-.597a76.256 76.256 0 0 1-1.897-4.083c-.17-.393-.324-.793-.486-1.191a76.1 76.1 0 0 1-1.189-3.057 94.691 94.691 0 0 1-.512-1.462 78.688 78.688 0 0 1-.963-3.059c-.132-.451-.273-.899-.398-1.356a77.46 77.46 0 0 1-1.087-4.452 77.448 77.448 0 0 1-.507-2.65l5.813 33.618a72.714 72.714 0 0 0 1.595 7.1c.124.456.262.907.395 1.359.302 1.029.62 2.048.966 3.056.164.491.334.979.509 1.462a76.187 76.187 0 0 0 1.188 3.059c.165.398.319.798.489 1.191a77.86 77.86 0 0 0 1.894 4.081c.104.204.218.4.321.605a80.283 80.283 0 0 0 1.836 3.377c.244.422.499.838.75 1.258a80.963 80.963 0 0 0 1.675 2.671c.279.428.557.855.846 1.277a78.558 78.558 0 0 0 2 2.801c.226.303.439.611.667.91a87.91 87.91 0 0 0 2.863 3.548c.222.262.461.517.69.777a84.206 84.206 0 0 0 2.406 2.658c.353.377.716.746 1.077 1.117.75.767 1.518 1.523 2.298 2.269.368.353.735.708 1.111 1.056a94.39 94.39 0 0 0 2.874 2.547c.22.188.43.382.652.568a100.898 100.898 0 0 0 3.696 2.95c.345.263.703.517 1.053.777.94.698 1.89 1.383 2.858 2.054a111.057 111.057 0 0 0 4.219 2.767c.435.273.864.547 1.305.815 1.287.78 2.592 1.538 3.921 2.273.112.064.218.13.33.191 1.44.791 2.91 1.547 4.398 2.287.451.221.907.433 1.359.65 1.074.515 2.157 1.019 3.252 1.507a117.567 117.567 0 0 0 4.95 2.073c.473.185.938.379 1.413.559 1.594.608 3.205 1.194 4.839 1.746.165.056.334.104.499.159 1.478.491 2.971.958 4.481 1.404.536.156 1.077.305 1.616.456 1.178.332 2.364.65 3.558.955.586.146 1.17.295 1.759.435 1.278.308 2.568.595 3.865.868.465.098.924.204 1.391.297 1.753.353 3.52.674 5.306.966.358.058.722.103 1.08.159 1.438.223 2.886.43 4.343.613.605.074 1.215.141 1.823.21 1.265.143 2.533.27 3.81.384.618.054 1.233.109 1.854.157.353.026.703.064 1.056.09 1.04.069 2.091.114 3.136.165.499.023.992.058 1.491.079 1.889.074 3.786.114 5.697.122.408 0 .819-.013 1.228-.013 1.51-.008 3.027-.029 4.55-.08.663-.021 1.329-.055 1.993-.085.748-.034 1.491-.053 2.242-.095.352-.021.713-.069 1.066-.093 2.131-.138 4.266-.318 6.413-.544.443-.045.883-.074 1.326-.124 2.563-.29 5.137-.651 7.718-1.062.215-.034.425-.053.64-.087a167.99 167.99 0 0 0 4.898-.879c2.008-.389 3.995-.819 5.964-1.278.653-.152 1.295-.321 1.942-.481 1.056-.257 2.12-.506 3.165-.782.199-.053.388-.12.587-.173a162.589 162.589 0 0 0 7.007-2.045c.286-.091.562-.194.849-.287a163.36 163.36 0 0 0 5.974-2.069c.26-.096.528-.175.788-.271.406-.154.794-.332 1.2-.488a161.5 161.5 0 0 0 5.452-2.205c.602-.257 1.21-.509 1.807-.772a154.517 154.517 0 0 0 6.699-3.141c.072-.037.149-.069.223-.106.18-.091.347-.197.528-.287a149.104 149.104 0 0 0 7.431-4.051c.374-.218.756-.427 1.131-.65a143.75 143.75 0 0 0 7.16-4.556c.226-.154.47-.289.696-.443.472-.324.926-.663 1.392-.992.592-.417 1.186-.836 1.77-1.26.892-.65 1.767-1.314 2.637-1.98.542-.414 1.085-.822 1.616-1.241.947-.748 1.873-1.515 2.794-2.282.419-.353.852-.698 1.268-1.053a129.077 129.077 0 0 0 3.874-3.452c.111-.104.215-.212.326-.316a124.481 124.481 0 0 0 3.348-3.258c.404-.409.791-.828 1.186-1.239.78-.809 1.552-1.621 2.301-2.446.443-.486.867-.979 1.3-1.47.676-.772 1.347-1.547 2-2.332.43-.517.852-1.04 1.271-1.565.313-.385.639-.767.942-1.157.225-.287.422-.584.642-.871a110.893 110.893 0 0 0 2.263-3.08c.26-.369.549-.727.804-1.096.159-.228.3-.464.456-.692.369-.544.725-1.093 1.083-1.642.53-.815 1.05-1.632 1.557-2.457a100.946 100.946 0 0 0 2.425-4.2c.313-.576.626-1.149.926-1.727.449-.857.873-1.722 1.29-2.59.27-.56.543-1.117.801-1.679.43-.937.828-1.881 1.223-2.826.21-.499.43-.997.629-1.499.493-1.244.95-2.497 1.382-3.754.072-.207.157-.411.226-.618.49-1.468.939-2.943 1.347-4.426.122-.443.221-.889.335-1.334.225-.871.461-1.738.658-2.614.039-.18.069-.363.106-.544.106-.483.193-.968.289-1.454a85.7 85.7 0 0 0 .533-2.974Z" fill="url(#c)"/><path d="M106.69 3.064c69.019-13.414 133.947 18.464 145 71.193 11.056 52.747-35.945 106.383-104.964 119.798-69.043 13.422-133.971-18.456-145.03-71.203C-9.357 70.12 37.646 16.487 106.69 3.064Z" fill="#fff"/><path d="M129.34 48.25c.005-.106.037-.212.04-.318a8.211 8.211 0 0 0-.099-1.37l-.016-.09-1.453-8.405c.103.595.108 1.189.076 1.78-.013.218-.047.436-.079.653a8.337 8.337 0 0 1-.499 1.921c-.141.361-.308.714-.493 1.062-.128.238-.252.474-.398.705a11.239 11.239 0 0 1-1.462 1.818 13.687 13.687 0 0 1-1.643 1.435c-.376.281-.78.539-1.194.788-.23.135-.451.279-.689.406-.632.334-1.292.64-1.99.894-.093.034-.191.058-.284.09a16.85 16.85 0 0 1-2.322.64c-.843.164-1.682.252-2.507.289-.236.01-.464-.006-.695-.003a17.046 17.046 0 0 1-1.698-.069c-.26-.026-.512-.063-.767-.1-.52-.08-1.027-.184-1.52-.311-.231-.058-.467-.111-.69-.18a13.544 13.544 0 0 1-1.695-.653c-.096-.045-.199-.074-.292-.122a11.538 11.538 0 0 1-1.725-1.056c-.154-.112-.286-.239-.429-.358a9.834 9.834 0 0 1-1.025-.955 9.492 9.492 0 0 1-.421-.5 8.52 8.52 0 0 1-.738-1.1c-.096-.167-.202-.332-.287-.507a7.815 7.815 0 0 1-.676-2.056v.002-.002l1.451 8.405c.016.09.035.183.053.276.133.626.356 1.212.626 1.777.083.178.189.34.287.51a8.903 8.903 0 0 0 1.157 1.597 9.88 9.88 0 0 0 1.026.96c.146.117.276.245.428.356.533.39 1.106.748 1.727 1.056.093.045.199.077.294.122.539.25 1.101.467 1.693.65.223.069.454.125.687.183.496.127 1.003.231 1.526.308.252.04.504.077.761.1.165.017.319.054.483.064.398.03.809.008 1.215.006.236 0 .462.016.698.005.069-.005.138.005.207 0a17.235 17.235 0 0 0 3.446-.555 15.21 15.21 0 0 0 1.181-.376c.09-.03.186-.053.276-.088l.122-.037a15.98 15.98 0 0 0 1.597-.698c.096-.047.175-.108.271-.159.241-.127.462-.27.695-.408.265-.16.549-.303.799-.473.14-.098.254-.212.39-.313.244-.178.472-.366.7-.557a13.258 13.258 0 0 0 1.52-1.507c.099-.117.221-.22.313-.34.136-.172.266-.35.39-.528.072-.103.115-.217.181-.32.148-.231.273-.468.4-.706.186-.35.353-.7.494-1.062.095-.252.18-.501.252-.758.048-.165.127-.327.165-.494.05-.22.05-.446.082-.668.029-.218.063-.436.077-.656Z" fill="url(#d)"/><path d="M112.665 30.365c7.171-1.393 13.942 1.932 15.094 7.426 1.148 5.48-3.752 11.072-10.924 12.468-7.195 1.398-13.963-1.927-15.112-7.405-1.154-5.498 3.749-11.09 10.942-12.489Z" fill="#DCEEFF"/><path d="M89.5 64.549c0-.032-.008-.062-.008-.093.003-.308-.032-.61-.064-.916-.016-.124-.007-.252-.029-.374l-.013-.087-1.454-8.406c.027.152.024.305.043.46.034.305.066.61.066.917-.003.125-.021.247-.027.372a8.269 8.269 0 0 1-.14 1.162 7.507 7.507 0 0 1-.112.483 8.58 8.58 0 0 1-.374 1.133c-.053.135-.098.27-.159.406-.225.493-.493.981-.812 1.456a12.116 12.116 0 0 1-1.435 1.7c-.13.13-.252.266-.39.394-.43.395-.892.777-1.401 1.133-.154.108-.321.196-.48.297-.406.262-.823.514-1.253.737-.233.122-.474.231-.713.343a18.87 18.87 0 0 1-.823.358c-.27.106-.546.199-.822.291-.25.083-.5.168-.751.24-.462.13-.923.251-1.393.341-.348.07-.7.107-1.05.152-.32.042-.635.082-.95.106-.229.016-.454.021-.68.03a18.54 18.54 0 0 1-1.355-.006c-.213-.01-.422-.019-.63-.037-.612-.05-1.22-.13-1.811-.252-.059-.011-.12-.016-.178-.03a14.047 14.047 0 0 1-1.87-.549c-.17-.06-.335-.135-.5-.204a12.27 12.27 0 0 1-1.291-.618c-.162-.09-.327-.178-.483-.274a11 11 0 0 1-1.518-1.103c-1.6-1.41-2.542-3.115-2.852-4.906l1.454 8.405c.31 1.791 1.252 3.494 2.852 4.906.464.414.982.772 1.518 1.104.156.095.318.18.48.27.416.231.846.438 1.292.621.167.069.329.143.501.204a14.2 14.2 0 0 0 1.868.55c.058.013.122.018.18.029.592.12 1.197.202 1.81.252.082.008.162.029.247.034.124.008.254-.005.382 0 .45.022.902.024 1.356.008.135-.005.265.008.398 0 .095-.005.188-.023.28-.029.32-.026.637-.066.956-.106.183-.026.366-.032.552-.064a16.852 16.852 0 0 0 1.629-.347c.087-.024.172-.059.257-.083.255-.071.502-.156.754-.238.185-.064.376-.112.562-.18.088-.032.17-.08.258-.115.28-.109.551-.233.825-.358.17-.077.347-.14.517-.225.066-.035.127-.08.196-.115.43-.225.844-.474 1.25-.737.109-.07.228-.122.334-.194l.146-.103c.512-.359.971-.74 1.404-1.133.138-.128.257-.26.387-.39.276-.279.541-.557.783-.85.05-.06.117-.119.167-.18.162-.207.316-.416.459-.626l.026-.048c.321-.474.587-.963.815-1.459.06-.132.103-.268.16-.403.15-.374.275-.75.373-1.133.021-.087.064-.17.085-.257.016-.075.01-.152.027-.228.074-.388.119-.775.138-1.163.005-.093.031-.183.034-.275Z" fill="url(#e)"/><path d="M72.77 46.995c4.502-.875 9.256.064 12.329 2.78 4.584 4.066 3.727 10.568-1.908 14.514-1.865 1.31-4.02 2.178-6.235 2.608-4.497.875-9.244-.059-12.316-2.783-4.606-4.062-3.752-10.565 1.91-14.516 1.86-1.305 4.01-2.173 6.22-2.603Z" fill="#DCEEFF"/><path d="M63.897 93.786c0-.037-.008-.071-.008-.108 0-.319-.032-.632-.069-.945-.01-.106-.005-.212-.021-.316l-.016-.087-1.451-8.405c.021.132.021.27.037.403a8 8 0 0 1 .066.944c0 .128-.018.258-.024.385a8.316 8.316 0 0 1-.238 1.584 9.016 9.016 0 0 1-.595 1.709c-.217.459-.472.9-.756 1.324l-.013.016c-.22.323-.472.628-.727.93-.26.311-.544.606-.838.892-.128.128-.247.258-.383.377-.44.395-.904.77-1.403 1.109-.04.03-.085.05-.125.077-.475.321-.979.613-1.499.88-.217.115-.446.216-.668.32-.29.132-.576.262-.873.379-.263.103-.53.193-.801.283-.258.088-.512.173-.775.247a15.54 15.54 0 0 1-1.404.345c-.34.066-.687.104-1.032.151-.316.04-.629.08-.944.104-.231.018-.462.024-.693.032a17.774 17.774 0 0 1-1.95-.045 15.802 15.802 0 0 1-2.138-.31c-2.346-.532-4.288-1.553-5.72-2.888-1.433-1.331-2.356-2.976-2.664-4.754h.002-.002l1.454 8.403c.615 3.557 3.693 6.579 8.384 7.643.705.159 1.419.25 2.138.311.085.008.167.032.255.037.13.008.262-.005.392 0 .435.021.868.021 1.3.005.136-.002.274.011.41.003.095-.005.19-.024.286-.032.315-.024.628-.064.942-.106.18-.024.36-.029.538-.059a18.05 18.05 0 0 0 1.634-.35c.09-.024.175-.061.263-.085.263-.074.52-.161.777-.246.184-.061.372-.109.552-.178.085-.032.165-.074.25-.106.294-.117.58-.247.867-.38.167-.077.345-.138.507-.22.058-.029.109-.069.167-.098.518-.268 1.016-.56 1.491-.878.037-.024.08-.043.117-.069l.016-.011c.499-.342.963-.714 1.403-1.109.133-.119.253-.252.38-.377.297-.286.578-.58.84-.891.057-.07.128-.127.184-.196.191-.237.371-.483.541-.733l.014-.02.005-.006c.284-.422.536-.86.753-1.316a9.13 9.13 0 0 0 .592-1.709c.018-.069.058-.138.074-.207.019-.082.014-.162.03-.244a8.57 8.57 0 0 0 .135-1.133c.005-.093.032-.185.034-.276Z" fill="url(#f)"/><path d="M47.19 76.22c2.205-.427 4.526-.433 6.758.072 6.813 1.544 10.217 7.2 7.63 12.658-1.75 3.669-5.765 6.306-10.265 7.182-2.205.427-4.526.432-6.758-.072-6.81-1.544-10.22-7.22-7.627-12.66 1.75-3.667 5.762-6.305 10.262-7.18Z" fill="#DCEEFF"/><path d="M208.213 65.721c0-.032-.008-.06-.008-.093.003-.307-.032-.615-.066-.92-.014-.122-.006-.247-.024-.369l-.016-.088-1.454-8.405c.026.151.024.305.042.457.035.307.067.613.067.92 0 .122-.022.247-.027.369a7.845 7.845 0 0 1-.252 1.645 8.972 8.972 0 0 1-.379 1.154c-.053.133-.096.265-.157.395a9.85 9.85 0 0 1-.82 1.465 12.035 12.035 0 0 1-1.427 1.695c-.13.13-.249.266-.387.393-.43.395-.889.777-1.399 1.136-.135.092-.278.17-.416.257-.422.273-.852.53-1.295.761-.236.122-.475.231-.714.34-.273.125-.546.252-.827.36-.268.107-.542.2-.815.29-.252.085-.504.17-.759.241-.461.13-.923.252-1.39.343-.348.066-.7.103-1.051.151-.318.04-.636.082-.955.106-.228.016-.453.021-.682.03-.456.015-.907.013-1.358-.006-.21-.01-.422-.019-.632-.037a15.799 15.799 0 0 1-1.822-.252c-.056-.01-.114-.016-.167-.03a14.12 14.12 0 0 1-1.874-.549c-.172-.06-.337-.135-.504-.204-.445-.183-.875-.39-1.289-.618-.162-.09-.326-.178-.486-.273-.536-.332-1.05-.69-1.517-1.104-1.6-1.412-2.542-3.115-2.85-4.903l1.452 8.405c.31 1.788 1.249 3.492 2.852 4.9a10.8 10.8 0 0 0 1.517 1.104c.157.098.321.183.483.273.417.231.847.436 1.292.619.167.071.332.143.504.206.605.22 1.226.412 1.871.55.056.013.114.016.17.026.594.122 1.204.202 1.82.255.085.008.164.03.246.035.128.007.258-.006.388 0 .451.02.902.023 1.356.007.135-.005.265.008.4 0 .093-.005.189-.023.284-.029.318-.026.637-.066.958-.108.183-.024.366-.03.549-.062a15.795 15.795 0 0 0 1.634-.35c.085-.021.168-.056.253-.08.257-.071.509-.159.761-.244.188-.06.379-.108.562-.177.085-.032.165-.075.25-.109.281-.111.557-.236.833-.363.172-.077.35-.141.52-.226.066-.034.125-.077.188-.112a15.6 15.6 0 0 0 1.298-.76c.095-.065.201-.112.297-.176l.119-.082c.507-.358.969-.74 1.398-1.136.138-.127.258-.263.39-.395.274-.276.539-.555.775-.844.053-.06.12-.117.167-.18.16-.202.308-.404.451-.61l.032-.059c.321-.477.592-.968.82-1.465.058-.132.101-.265.154-.395a8.66 8.66 0 0 0 .382-1.151c.021-.088.066-.17.085-.255.016-.077.011-.154.026-.23.075-.388.12-.775.138-1.163.006-.093.032-.186.035-.276Z" fill="url(#g)"/><path d="M191.477 48.173c4.508-.875 9.262.059 12.337 2.789 4.582 4.046 3.725 10.549-1.908 14.513-1.859 1.3-4.008 2.162-6.216 2.592-4.505.875-9.259-.059-12.337-2.786-4.609-4.062-3.746-10.546 1.908-14.515 1.862-1.3 4.008-2.163 6.216-2.593Z" fill="#DCEEFF"/><path d="M172.841 48.364c.003-.034-.008-.071-.008-.108a7.476 7.476 0 0 0-.066-.95c-.014-.104-.006-.21-.024-.313l-.013-.088-1.454-8.403c.024.133.021.271.037.406.037.31.069.624.069.942 0 .13-.019.26-.027.387a7.903 7.903 0 0 1-.236 1.587 9.088 9.088 0 0 1-.594 1.706c-.218.456-.472.897-.756 1.321l-.011.014c-.22.326-.472.631-.727.934-.263.313-.546.607-.844.896-.124.122-.241.252-.374.37-.44.395-.904.769-1.403 1.11-.043.03-.09.051-.136.08-.472.319-.968.608-1.483.873-.22.114-.445.215-.671.319-.286.132-.573.262-.87.38-.263.103-.531.193-.799.283-.254.085-.512.172-.772.247-.461.13-.926.252-1.401.345-.342.066-.692.103-1.04.148-.31.04-.621.08-.934.104-.23.018-.464.02-.697.029a16.163 16.163 0 0 1-1.943-.043 15.346 15.346 0 0 1-2.165-.318c-4.69-1.05-7.765-4.07-8.381-7.63l1.451 8.402c.616 3.563 3.694 6.58 8.382 7.633.716.162 1.44.255 2.167.316.088.008.173.032.258.04.13.008.26-.006.392 0 .433.018.863.021 1.295.005.138-.005.276.01.411.003.096-.006.189-.024.282-.032.315-.024.623-.064.936-.104.181-.024.366-.032.547-.06.164-.03.329-.059.493-.09.382-.075.762-.163 1.136-.26.09-.025.175-.06.262-.086.263-.074.518-.159.775-.246.183-.061.372-.106.552-.175.085-.032.162-.075.247-.107.297-.116.581-.246.867-.38.168-.076.343-.137.504-.22.059-.029.109-.068.168-.097a14.814 14.814 0 0 0 1.477-.87c.043-.027.088-.046.128-.072l.016-.014c.496-.342.96-.713 1.401-1.109.132-.119.252-.25.379-.371.294-.29.578-.584.838-.894.059-.07.13-.125.183-.194.194-.241.375-.488.547-.74l.008-.016.005-.003c.284-.421.536-.862.754-1.316.268-.57.451-1.138.591-1.708.019-.07.059-.138.072-.207.019-.083.016-.162.032-.244.072-.382.117-.76.135-1.136.005-.09.032-.186.032-.276Z" fill="url(#h)"/><path d="M156.121 30.795c2.204-.43 4.531-.435 6.773.074 6.808 1.529 10.217 7.201 7.631 12.661-1.749 3.661-5.752 6.296-10.247 7.172-2.21.43-4.539.432-6.779-.08-6.808-1.528-10.217-7.2-7.63-12.66 1.754-3.654 5.752-6.294 10.252-7.167Z" fill="#DCEEFF"/><path d="M156.784 91.736v-.003a7.297 7.297 0 0 0-.093-1.3l-.013-.085-1.454-8.405a7.31 7.31 0 0 1-.069 2.878c-.066.305-.175.61-.278.916-.054.159-.085.315-.149.475a9.455 9.455 0 0 1-.695 1.376l-26.853 43.756c-.225.364-.477.714-.745 1.048-.34.425-.717.823-1.117 1.197-.109.103-.228.199-.34.297-.316.274-.642.534-.984.78-.138.098-.274.197-.417.289-.443.292-.902.566-1.379.812-.04.019-.075.043-.115.064a15.56 15.56 0 0 1-1.43.623c-.172.064-.347.115-.52.176-.305.103-.61.206-.923.294-.408.111-.82.215-1.236.297-.751.146-1.513.234-2.274.271-.183.01-.366-.006-.547 0a16.058 16.058 0 0 1-1.599-.048c-.563-.048-1.112-.154-1.661-.265-.274-.056-.552-.085-.823-.157a12.82 12.82 0 0 1-2.345-.862l-16.068-7.888c-2.91-1.43-4.614-3.709-5.043-6.2l1.454 8.405c.43 2.491 2.133 4.77 5.04 6.198l16.071 7.89a12.74 12.74 0 0 0 2.345.862c.268.072.547.101.82.157.549.111 1.098.215 1.664.265.087.006.172.035.26.04.443.032.891.013 1.337.005.183-.002.363.014.546.003.037-.003.075.003.114 0a15.9 15.9 0 0 0 1.688-.188c.159-.027.315-.053.472-.085.366-.069.73-.154 1.088-.25.05-.013.101-.034.151-.047.313-.085.616-.189.921-.295.146-.048.297-.085.44-.138l.08-.034c.488-.186.968-.393 1.43-.624l.021-.011c.034-.015.061-.037.093-.053.48-.246.939-.52 1.382-.814.061-.04.13-.069.191-.112.08-.053.146-.122.226-.177.339-.244.666-.504.979-.778.114-.098.233-.193.345-.297a11.97 11.97 0 0 0 1.114-1.196l.034-.035a10.072 10.072 0 0 0 .711-1.016l26.856-43.753a9.54 9.54 0 0 0 .695-1.38c.064-.156.095-.313.148-.472.096-.284.207-.57.271-.857l.005-.058a7.56 7.56 0 0 0 .178-1.492Z" fill="url(#i)"/><path d="M140.889 74.684c3.173-.616 6.524-.295 9.294 1.056 4.922 2.417 6.559 7.428 3.85 11.849l-26.853 43.756c-1.892 3.061-5.399 5.136-9.206 5.876-3.121.605-6.445.316-9.249-1.061l-16.068-7.888c-6.227-3.056-6.93-10.021-1.448-14.59l42.922-35.865c1.897-1.59 4.272-2.648 6.758-3.133Z" fill="#DCEEFF"/><defs><linearGradient id="a" x1="30.662" y1="185.391" x2="302.963" y2="185.391" gradientUnits="userSpaceOnUse"><stop stop-color="#F3F9FF"/><stop offset="1" stop-color="#B0D9FF"/></linearGradient><linearGradient id="b" x1="36.559" y1="223.408" x2="308.859" y2="223.408" gradientUnits="userSpaceOnUse"><stop stop-color="#F3F9FF"/><stop offset="1" stop-color="#B0D9FF"/></linearGradient><linearGradient id="c" x1="43.559" y1="261.361" x2="315.859" y2="261.361" gradientUnits="userSpaceOnUse"><stop stop-color="#F3F9FF"/><stop offset="1" stop-color="#B0D9FF"/></linearGradient><linearGradient id="d" x1="109.459" y1="55.991" x2="123.664" y2="55.991" gradientUnits="userSpaceOnUse"><stop stop-color="#C5D2F1"/><stop offset="1" stop-color="#9CA5FF"/></linearGradient><linearGradient id="e" x1="69.577" y1="72.627" x2="83.784" y2="72.627" gradientUnits="userSpaceOnUse"><stop stop-color="#C5D2F1"/><stop offset="1" stop-color="#9CA5FF"/></linearGradient><linearGradient id="f" x1="43.965" y1="101.861" x2="58.178" y2="101.861" gradientUnits="userSpaceOnUse"><stop stop-color="#C5D2F1"/><stop offset="1" stop-color="#9CA5FF"/></linearGradient><linearGradient id="g" x1="188.292" y1="73.797" x2="202.497" y2="73.797" gradientUnits="userSpaceOnUse"><stop stop-color="#C5D2F1"/><stop offset="1" stop-color="#9CA5FF"/></linearGradient><linearGradient id="h" x1="152.91" y1="56.431" x2="167.123" y2="56.431" gradientUnits="userSpaceOnUse"><stop stop-color="#C5D2F1"/><stop offset="1" stop-color="#9CA5FF"/></linearGradient><linearGradient id="i" x1="95.701" y1="136.542" x2="134.93" y2="136.542" gradientUnits="userSpaceOnUse"><stop stop-color="#C5D2F1"/><stop offset="1" stop-color="#9CA5FF"/></linearGradient></defs></svg>