<svg width="272" height="285" viewBox="0 0 272 285" fill="none" xmlns="http://www.w3.org/2000/svg">
<path d="M265.634 135.258L270.498 163.402C279.569 215.873 232.464 268.555 163.808 281.899C93.9812 295.473 28.3101 263.218 17.1292 209.872C16.9405 208.979 16.7716 208.084 16.6161 207.191L11.7497 179.047C11.9052 179.942 12.0762 180.835 12.2627 181.728C23.446 235.074 89.1171 267.331 158.942 253.758C227.598 240.412 274.705 187.73 265.634 135.258Z" fill="url(#paint0_linear_1_154)"/>
<path d="M118.563 63.4498C188.39 49.8768 254.056 82.1182 265.239 135.462C276.42 188.808 228.887 243.07 159.06 256.643C89.2356 270.216 23.5645 237.959 12.3813 184.613C1.20028 131.269 48.7362 77.0229 118.563 63.4498Z" fill="#FFCFCC"/>
<path d="M261.026 105.309L265.891 133.452C274.962 185.923 227.856 238.606 159.2 251.95C89.3735 265.523 23.7025 233.268 12.5215 179.922C12.3328 179.029 12.1639 178.134 12.0084 177.241L7.14203 149.098C7.29755 149.993 7.46854 150.886 7.65506 151.779C18.8383 205.125 84.5094 237.382 154.334 223.809C222.99 210.462 270.097 157.78 261.026 105.309Z" fill="url(#paint1_linear_1_154)"/>
<path d="M113.955 33.5002C183.782 19.9272 249.449 52.1686 260.632 105.513C271.813 158.859 224.279 213.12 154.452 226.693C84.628 240.266 18.9568 208.009 7.77361 154.663C-3.40739 101.319 44.1285 47.0733 113.955 33.5002Z" fill="#FFCFCC"/>
<path d="M255.267 75.4885L260.131 103.632C269.202 156.103 222.097 208.785 153.441 222.13C83.614 235.703 17.9429 203.448 6.76202 150.102C6.57327 149.209 6.40439 148.314 6.24887 147.421L1.38251 119.277C1.53802 120.173 1.70901 121.065 1.89554 121.958C13.0788 175.304 78.7499 207.561 148.574 193.988C217.231 180.642 264.338 127.96 255.267 75.4885Z" fill="url(#paint2_linear_1_154)"/>
<path d="M108.196 3.67992C178.022 -9.89311 243.689 22.3483 254.872 75.6923C266.053 129.039 218.52 183.3 148.693 196.873C78.8685 210.446 13.1973 178.189 2.01409 124.843C-9.16691 71.4988 38.369 17.253 108.196 3.67992Z" fill="#FFCFCC"/>
<path d="M109.409 14.7807C113.336 14.0166 117.594 14.8207 120.273 17.5593L143.372 41.1651C145.502 43.3396 148.965 44.4612 152.636 44.1525L192.547 40.9031C201.782 40.1523 207.171 47.935 201.66 54.0763L177.852 80.574C175.647 83.0149 175.054 86.0334 176.235 88.6432L189.127 117.024C191.479 122.233 186.746 127.743 180.329 128.992C178.634 129.32 176.826 129.354 174.996 129.005L137.175 121.771C135.432 121.44 133.604 121.46 131.842 121.802C130.081 122.144 128.389 122.808 126.914 123.765L94.9677 144.561C93.4241 145.565 91.7427 146.212 90.048 146.54C83.6291 147.789 77.048 144.475 77.119 138.795L77.5677 107.822C77.6032 104.975 75.8419 102.416 72.8479 100.986L40.2089 85.4581C32.6549 81.8577 34.4874 72.6713 43.3007 69.9127L81.3969 58.001C84.9062 56.9126 87.6448 54.5872 88.7309 51.7864L100.514 21.3996C101.88 17.8747 105.48 15.5448 109.409 14.7807Z" fill="url(#paint3_linear_1_154)"/>
<defs>
<linearGradient id="paint0_linear_1_154" x1="16.5633" y1="241.443" x2="259.437" y2="241.443" gradientUnits="userSpaceOnUse">
<stop stop-color="#E65C56"/>
<stop offset="1" stop-color="#FF9994"/>
</linearGradient>
<linearGradient id="paint1_linear_1_154" x1="11.9556" y1="211.494" x2="254.829" y2="211.494" gradientUnits="userSpaceOnUse">
<stop stop-color="#E65C56"/>
<stop offset="1" stop-color="#FF9994"/>
</linearGradient>
<linearGradient id="paint2_linear_1_154" x1="6.31485" y1="175.401" x2="261.248" y2="175.401" gradientUnits="userSpaceOnUse">
<stop stop-color="#E65C56"/>
<stop offset="1" stop-color="#FF9994"/>
</linearGradient>
<linearGradient id="paint3_linear_1_154" x1="77.5795" y1="47.5806" x2="77.5795" y2="47.5806" gradientUnits="userSpaceOnUse">
<stop stop-color="#FA837D"/>
<stop offset="1" stop-color="#EB655E"/>
</linearGradient>
</defs>
</svg>
