<svg width="36" height="47" viewBox="0 0 36 47" fill="none" xmlns="http://www.w3.org/2000/svg">
<path d="M4.36407 14.3929L18.381 16.823L33.2659 11.7023L15.7772 7.70984L4.36407 14.3929Z" fill="#2F3382"/>
<path d="M11.4377 32.055L19.249 37.9135L25.8018 32.9663L16.1678 27.238L11.6547 32.055" fill="#2F3382"/>
<path d="M14.1716 36.5682L20.7244 46.6795C20.7244 46.6795 24.8859 36.3843 25.8018 32.9663C17.7672 33.3805 14.1716 36.5682 14.1716 36.5682Z" fill="#57A8F2"/>
<path d="M7.14136 21.3361L11.4376 32.055C11.4376 32.055 19.5962 28.0627 27.2773 26.6956C30.6187 18.3417 33.3962 11.7021 33.266 11.7021C25.6281 11.9193 9.0509 19.4702 7.14136 21.3361Z" fill="#57A8F2"/>
<path d="M0.50177 4.15122L4.3642 14.3929C4.3642 14.3929 23.6321 3.15321 35.9999 4.15122C27.4943 0.549433 14.3017 -2.27123 0.50177 4.15122Z" fill="url(#paint0_linear_1_149)"/>
<defs>
<linearGradient id="paint0_linear_1_149" x1="2.84114" y1="12.6905" x2="7.35089" y2="12.6905" gradientUnits="userSpaceOnUse">
<stop stop-color="#9BD3FF"/>
<stop offset="1" stop-color="#5B9EE1"/>
</linearGradient>
</defs>
</svg>
