<svg width="272" height="285" viewBox="0 0 272 285" fill="none" xmlns="http://www.w3.org/2000/svg">
<path d="M265.634 135.258L270.498 163.402C279.569 215.873 232.464 268.555 163.808 281.899C93.9811 295.473 28.3101 263.218 17.1292 209.872C16.9404 208.979 16.7715 208.084 16.616 207.191L11.7496 179.047C11.9052 179.942 12.0761 180.835 12.2627 181.728C23.4459 235.074 89.117 267.331 158.941 253.758C227.598 240.412 274.705 187.73 265.634 135.258Z" fill="url(#paint0_linear_1_170)"/>
<path d="M118.563 63.4498C188.39 49.8768 254.056 82.1182 265.239 135.462C276.42 188.808 228.887 243.07 159.06 256.643C89.2356 270.216 23.5644 237.959 12.3812 184.613C1.20022 131.269 48.7361 77.0229 118.563 63.4498Z" fill="#DCEEFF"/>
<path d="M261.027 105.309L265.891 133.452C274.962 185.923 227.857 238.606 159.201 251.95C89.3737 265.523 23.7026 233.268 12.5217 179.922C12.333 179.029 12.1641 178.134 12.0086 177.241L7.14221 149.098C7.29773 149.993 7.46872 150.886 7.65524 151.779C18.8385 205.125 84.5096 237.382 154.334 223.809C222.99 210.462 270.097 157.78 261.027 105.309Z" fill="url(#paint1_linear_1_170)"/>
<path d="M113.955 33.5002C183.782 19.9272 249.449 52.1686 260.632 105.513C271.813 158.859 224.279 213.12 154.453 226.693C84.6282 240.266 18.957 208.009 7.7738 154.663C-3.4072 101.319 44.1287 47.0733 113.955 33.5002Z" fill="#CEEDE5"/>
<path d="M255.267 75.4885L260.131 103.632C269.202 156.103 222.097 208.785 153.441 222.13C83.614 235.703 17.9429 203.448 6.76196 150.102C6.57321 149.209 6.40433 148.314 6.24881 147.421L1.38245 119.277C1.53796 120.173 1.70895 121.065 1.89548 121.958C13.0787 175.304 78.7498 207.561 148.574 193.988C217.23 180.642 264.338 127.96 255.267 75.4885Z" fill="url(#paint2_linear_1_170)"/>
<path d="M108.196 3.67992C178.022 -9.89311 243.689 22.3483 254.872 75.6923C266.053 129.039 218.52 183.3 148.693 196.873C78.8684 210.446 13.1973 178.189 2.01403 124.843C-9.16697 71.4988 38.3689 17.253 108.196 3.67992Z" fill="url(#paint3_linear_1_170)"/>
<path d="M214.077 94.7148C214.455 93.7786 214.77 92.8277 215.009 91.859C215.045 91.7055 215.12 91.5626 215.156 91.4122C215.177 91.3158 215.185 91.2194 215.202 91.1227C215.256 90.8797 215.288 90.6332 215.327 90.3865C215.424 89.8219 215.503 89.2533 215.553 88.6815C215.578 88.3955 215.596 88.1098 215.606 87.8238C215.617 87.6022 215.649 87.3877 215.653 87.1626C215.653 86.9945 215.613 86.8194 215.613 86.6514C215.606 85.5827 215.531 84.4961 215.37 83.3917C215.353 83.2702 215.363 83.1522 215.342 83.0271L215.295 82.7376L211.378 60.0948C211.417 60.3163 211.421 60.5308 211.457 60.7487C211.617 61.8532 211.689 62.9362 211.7 64.0049C211.7 64.3981 211.71 64.7911 211.692 65.1807C211.678 65.4668 211.66 65.7528 211.635 66.0385C211.589 66.6105 211.51 67.1789 211.414 67.7399C211.371 67.9867 211.339 68.2369 211.289 68.4799C211.239 68.7302 211.156 68.9694 211.096 69.2163C210.856 70.1812 210.542 71.1355 210.163 72.0722C210.059 72.3258 209.963 72.5868 209.848 72.8405C209.359 73.9199 208.787 74.9815 208.108 76.0181C207.661 76.6969 207.185 77.3692 206.656 78.0304C206.02 78.8238 205.33 79.6101 204.576 80.3786C203.818 81.1434 203.011 81.8834 202.153 82.5911C201.842 82.8484 201.492 83.0844 201.17 83.3308C200.602 83.7705 200.044 84.2172 199.436 84.6319C198.064 85.572 196.552 86.4298 194.972 87.2483C194.711 87.3805 194.45 87.5164 194.186 87.6486L190.29 65.1057C190.254 64.8985 190.211 64.6876 190.168 64.4768C189.143 59.5799 186.451 56.3095 182.141 54.7155C181.143 54.3438 180.046 54.072 178.888 53.8611C178.523 53.7968 178.123 53.7647 177.741 53.7111C177.19 53.6396 176.668 53.5359 176.089 53.4966C175.828 53.4787 175.525 53.5073 175.26 53.4966C174.567 53.468 173.83 53.4787 173.094 53.4931C172.619 53.5039 172.193 53.4643 171.7 53.4931C171.411 53.5107 171.071 53.5752 170.774 53.6002C169.902 53.6681 168.987 53.7861 168.062 53.9112C167.533 53.9827 167.054 54.0006 166.507 54.0899C165.903 54.19 165.288 54.3007 164.666 54.4222L148.342 57.5927L152.256 80.2392L168.58 77.0652C169.77 76.8328 170.86 76.7078 171.975 76.554C172.901 76.4292 173.82 76.3145 174.692 76.2432C175.492 76.1789 176.254 76.1538 177.008 76.1397C177.744 76.1217 178.477 76.1109 179.17 76.1397C180.035 76.1752 180.865 76.2502 181.658 76.3576C182.04 76.4074 182.437 76.4398 182.802 76.5076C183.956 76.7187 185.057 76.9867 186.054 77.3584C190.369 78.956 193.056 82.2229 194.082 87.1195C194.121 87.2982 194.154 87.4734 194.182 87.6486C194.093 87.6951 194.004 87.7415 193.911 87.788C192.406 88.5208 190.833 89.2213 189.15 89.854C188.992 89.9111 188.817 89.9647 188.656 90.0219C186.926 90.6545 185.086 91.2264 183.174 91.7554C182.748 91.8734 182.334 91.9984 181.901 92.1092C180.185 92.5525 178.423 92.967 176.565 93.328L156.992 97.1312L160.906 119.778L161.631 119.635L163.354 129.6V129.607C163.308 129.946 163.24 130.279 163.143 130.607C163.083 130.826 163.011 131.04 162.929 131.254C162.807 131.565 162.664 131.866 162.507 132.166C162.396 132.37 162.289 132.57 162.164 132.77C161.939 133.12 161.685 133.456 161.41 133.785C161.253 133.971 161.085 134.146 160.917 134.325C160.663 134.582 160.391 134.836 160.105 135.075C159.912 135.24 159.719 135.397 159.512 135.551C159.187 135.79 158.84 136.012 158.486 136.226C158.29 136.341 158.1 136.466 157.896 136.573C157.353 136.859 156.788 137.12 156.188 137.342C156.109 137.37 156.023 137.392 155.941 137.417C155.305 137.638 154.644 137.831 153.95 137.963C153.221 138.106 152.503 138.181 151.792 138.213C151.591 138.224 151.398 138.21 151.202 138.213C150.705 138.213 150.215 138.203 149.736 138.153C149.515 138.132 149.3 138.099 149.082 138.067C148.635 138.003 148.199 137.913 147.778 137.806C147.578 137.753 147.377 137.706 147.184 137.649C146.684 137.492 146.201 137.306 145.744 137.095C145.662 137.056 145.565 137.027 145.483 136.988C144.954 136.723 144.461 136.416 144.003 136.083C143.875 135.987 143.764 135.88 143.642 135.78C143.328 135.519 143.027 135.247 142.759 134.954C142.634 134.818 142.516 134.675 142.402 134.529C142.163 134.228 141.955 133.914 141.769 133.585C141.687 133.438 141.598 133.299 141.526 133.149C141.294 132.663 141.101 132.159 140.99 131.623L138.956 121.926L138.545 122.004L136.537 110.374L134.671 101.47L134.26 101.553L132.248 89.9183L124.874 54.7512L124.838 54.5547V54.5547V54.5547L128.752 77.1975L128.791 77.3939L133.87 101.628L127.63 102.839C127.14 102.936 126.654 102.986 126.178 103.007C126.043 103.014 125.91 103.007 125.778 103.007C125.481 103.007 125.192 102.997 124.906 102.971C124.238 102.911 123.594 102.785 122.994 102.593C122.879 102.557 122.772 102.507 122.658 102.464C122.125 102.264 121.628 102.017 121.182 101.72C121.107 101.67 121.024 101.631 120.953 101.577C120.481 101.234 120.084 100.83 119.752 100.384C119.677 100.284 119.613 100.18 119.545 100.076C119.241 99.5975 118.987 99.0863 118.869 98.5179L118.84 98.3571L122.754 121.004L122.783 121.161C122.904 121.729 123.155 122.24 123.462 122.719C123.526 122.826 123.591 122.927 123.666 123.027C123.751 123.141 123.819 123.259 123.916 123.366L127.047 141.477L127.076 141.641C127.194 142.203 127.447 142.71 127.751 143.189C127.819 143.293 127.88 143.393 127.955 143.493C128.287 143.936 128.684 144.34 129.156 144.683C129.227 144.737 129.309 144.772 129.385 144.823C129.831 145.119 130.325 145.366 130.861 145.562C130.975 145.605 131.079 145.655 131.197 145.695C131.797 145.888 132.437 146.009 133.109 146.07C133.166 146.073 133.216 146.098 133.273 146.102C133.502 146.116 133.742 146.106 133.974 146.106C134.11 146.102 134.242 146.113 134.381 146.106C134.421 146.106 134.46 146.109 134.499 146.106C134.842 146.088 135.189 146.048 135.536 145.991C135.632 145.977 135.732 145.959 135.832 145.937L142.87 144.569L144.904 154.266C145.018 154.805 145.208 155.309 145.44 155.792C145.512 155.946 145.601 156.085 145.683 156.228C145.873 156.557 146.08 156.875 146.316 157.171C146.43 157.318 146.548 157.461 146.677 157.597C146.945 157.894 147.241 158.165 147.556 158.423C147.678 158.522 147.788 158.63 147.921 158.726C148.378 159.062 148.868 159.366 149.397 159.631C149.483 159.67 149.576 159.698 149.658 159.738C150.119 159.952 150.598 160.138 151.102 160.292C151.291 160.353 151.491 160.396 151.688 160.449C152.113 160.556 152.549 160.646 153 160.714C153.214 160.746 153.429 160.774 153.65 160.799C153.786 160.81 153.918 160.842 154.058 160.853C154.401 160.874 154.758 160.857 155.112 160.857C155.312 160.857 155.505 160.867 155.709 160.86C155.766 160.857 155.823 160.864 155.881 160.86C156.392 160.828 156.906 160.774 157.425 160.688C157.571 160.664 157.718 160.639 157.868 160.61C158.2 160.542 158.533 160.467 158.854 160.381C159.197 160.292 159.526 160.177 159.855 160.063C159.937 160.035 160.023 160.013 160.105 159.984L160.212 159.949C160.688 159.77 161.145 159.57 161.581 159.352C161.664 159.309 161.732 159.259 161.81 159.216C162.014 159.109 162.203 158.987 162.4 158.869C162.632 158.73 162.879 158.608 163.093 158.462C163.215 158.38 163.311 158.28 163.426 158.194C163.633 158.044 163.826 157.883 164.019 157.722C164.309 157.479 164.577 157.229 164.83 156.964C165.002 156.789 165.166 156.614 165.324 156.432C165.406 156.332 165.513 156.242 165.592 156.139C165.706 155.992 165.817 155.842 165.924 155.688C165.985 155.599 166.021 155.502 166.081 155.413C166.206 155.216 166.31 155.013 166.421 154.809C166.582 154.512 166.725 154.208 166.843 153.897C166.925 153.683 166.996 153.472 167.061 153.251C167.1 153.111 167.168 152.975 167.2 152.832C167.243 152.639 167.243 152.443 167.268 152.25C167.297 152.064 167.325 151.882 167.336 151.692C167.343 151.603 167.368 151.513 167.368 151.42C167.375 151.031 167.347 150.638 167.286 150.245L167.272 150.162L165.542 140.165L185.114 136.359C185.343 136.316 185.565 136.262 185.783 136.205C186.019 136.144 186.24 136.066 186.465 135.987C186.519 135.969 186.576 135.955 186.63 135.937L186.701 135.912C187.023 135.794 187.334 135.658 187.631 135.508C187.684 135.479 187.731 135.444 187.784 135.415C187.924 135.343 188.049 135.261 188.181 135.183C188.338 135.09 188.503 135.008 188.649 134.907C188.696 134.875 188.721 134.829 188.767 134.796C189.332 134.393 189.822 133.939 190.229 133.438C190.261 133.399 190.311 133.37 190.34 133.335C190.419 133.235 190.494 133.135 190.562 133.031C190.604 132.97 190.633 132.902 190.672 132.841C190.758 132.706 190.83 132.566 190.905 132.43C191.012 132.227 191.108 132.019 191.191 131.812C191.248 131.666 191.294 131.519 191.337 131.373C191.362 131.276 191.409 131.187 191.43 131.09C191.459 130.958 191.459 130.826 191.48 130.69C191.498 130.565 191.516 130.436 191.523 130.307C191.527 130.247 191.544 130.189 191.544 130.129C191.552 129.861 191.53 129.589 191.487 129.321L191.48 129.264L188.824 113.919C190.118 113.53 191.359 113.108 192.56 112.668C192.685 112.622 192.831 112.59 192.953 112.547C192.992 112.529 193.028 112.511 193.067 112.497C194.751 111.864 196.32 111.167 197.828 110.431C197.996 110.349 198.193 110.284 198.357 110.202C198.546 110.106 198.7 109.988 198.886 109.891C200.466 109.073 201.978 108.215 203.35 107.278L203.379 107.26C203.997 106.839 204.558 106.385 205.134 105.941C205.441 105.702 205.774 105.481 206.067 105.238C206.924 104.526 207.732 103.79 208.49 103.022C209.244 102.253 209.934 101.47 210.57 100.673L210.631 100.605C211.096 100.019 211.528 99.4257 211.928 98.8254C211.968 98.7717 211.986 98.7146 212.021 98.6609C212.7 97.6244 213.276 96.5628 213.762 95.4834C213.876 95.2297 213.973 94.9723 214.077 94.7148Z" fill="url(#paint4_linear_1_170)"/>
<path d="M196.557 41.3335C204.624 45.0113 209.545 50.934 211.268 59.1583C212.937 67.1181 210.736 74.1737 204.645 80.3789C198.547 86.5586 189.201 90.887 176.634 93.3282L157.061 97.1312L158.927 106.035L178.85 102.16C183.017 101.353 186.935 103.275 187.603 106.46C188.275 109.666 185.437 112.904 181.269 113.716L161.347 117.587L163.38 127.284C164.367 131.988 160.178 136.769 154.019 137.963C147.832 139.168 142.046 136.327 141.059 131.623L139.025 121.926L131.984 123.295C127.816 124.106 123.899 122.18 123.231 118.995C122.559 115.789 125.397 112.55 129.564 111.739L136.606 110.374L134.74 101.47L127.699 102.839C123.531 103.651 119.61 101.728 118.938 98.5182C118.27 95.3336 121.108 92.0953 125.275 91.2873L132.316 89.9183L124.943 54.7513C124.124 50.8412 127.606 46.9022 132.688 45.9155L164.513 39.7287C177.774 37.1517 188.464 37.6842 196.557 41.3335ZM186.595 76.104C190.037 73.2515 191.263 69.3737 190.237 64.4769C189.211 59.5799 186.52 56.3132 182.209 54.7155C177.863 53.0999 172.026 53.0034 164.735 54.4224L148.411 57.5927L154.291 85.6472L170.615 82.4731C177.813 81.0756 183.153 78.9561 186.595 76.104Z" fill="#96F6F0"/>
<path d="M66.5111 59.4621C73.2985 58.1432 79.6715 61.2706 80.758 66.4569L90.9197 114.938L98.0574 113.551C105.127 112.179 110.41 117.63 106.918 122.751L91.5022 145.455C90.144 147.439 87.8207 148.747 85.3259 149.233C82.8347 149.719 80.1647 149.376 78.113 148.057L54.7589 132.888C49.4761 129.471 52.1496 122.476 59.2231 121.1L66.3574 119.713L56.1957 71.232C55.1091 66.0458 59.72 60.7811 66.5111 59.4621Z" fill="#96F6F0"/>
<defs>
<linearGradient id="paint0_linear_1_170" x1="16.5632" y1="241.443" x2="259.437" y2="241.443" gradientUnits="userSpaceOnUse">
<stop stop-color="#C9F8F5"/>
<stop offset="1" stop-color="#6BD4D8"/>
</linearGradient>
<linearGradient id="paint1_linear_1_170" x1="11.9558" y1="211.494" x2="254.829" y2="211.494" gradientUnits="userSpaceOnUse">
<stop stop-color="#C9F8F5"/>
<stop offset="1" stop-color="#6BD4D8"/>
</linearGradient>
<linearGradient id="paint2_linear_1_170" x1="6.19601" y1="181.673" x2="249.07" y2="181.673" gradientUnits="userSpaceOnUse">
<stop stop-color="#C9F8F5"/>
<stop offset="1" stop-color="#6BD4D8"/>
</linearGradient>
<linearGradient id="paint3_linear_1_170" x1="64.4137" y1="50.4272" x2="64.4137" y2="50.4272" gradientUnits="userSpaceOnUse">
<stop stop-color="#ECF8F7"/>
<stop offset="1" stop-color="#CFF4F3"/>
</linearGradient>
<linearGradient id="paint4_linear_1_170" x1="139.721" y1="123.14" x2="215.653" y2="123.14" gradientUnits="userSpaceOnUse">
<stop stop-color="#C9F8F5"/>
<stop offset="1" stop-color="#6BD4D8"/>
</linearGradient>
</defs>
</svg>
