<svg width="272" height="307" viewBox="0 0 272 307" fill="none" xmlns="http://www.w3.org/2000/svg">
<path d="M258.14 135.468C258.225 134.926 258.302 134.385 258.376 133.844C258.509 132.873 258.62 131.899 258.718 130.923C258.769 130.397 258.825 129.875 258.864 129.352C258.952 128.24 259.008 127.129 259.045 126.012C259.058 125.635 259.085 125.261 259.093 124.882C259.095 124.794 259.103 124.706 259.103 124.619C259.108 124.364 259.082 124.109 259.082 123.855C259.093 122.194 259.045 120.533 258.947 118.867C258.909 118.272 258.864 117.678 258.814 117.084C258.684 115.532 258.501 113.977 258.273 112.422C258.225 112.085 258.212 111.748 258.156 111.411C258.108 111.117 258.06 110.82 258.007 110.525L252.197 76.907C252.306 77.5411 252.369 78.1726 252.462 78.804C252.69 80.3588 252.871 81.9136 253.001 83.4683C253.051 84.0626 253.099 84.6568 253.133 85.2485C253.234 86.9174 253.282 88.5809 253.271 90.2445C253.269 90.5841 253.287 90.9236 253.282 91.2632C253.274 91.6453 253.245 92.0274 253.232 92.4094C253.195 93.5184 253.141 94.6248 253.054 95.7313C253.011 96.2592 252.956 96.7844 252.905 97.3125C252.81 98.2835 252.698 99.2546 252.566 100.223C252.491 100.767 252.412 101.311 252.327 101.855C252.17 102.844 251.99 103.831 251.796 104.816C251.698 105.304 251.611 105.795 251.507 106.28C251.279 107.331 251.016 108.379 250.746 109.422C250.629 109.872 250.531 110.324 250.406 110.772C249.997 112.255 249.552 113.73 249.058 115.197C248.989 115.399 248.907 115.601 248.838 115.805C248.406 117.065 247.947 118.32 247.453 119.567C247.254 120.071 247.031 120.57 246.822 121.072C246.426 122.016 246.028 122.958 245.601 123.892C245.344 124.454 245.068 125.014 244.8 125.574C244.381 126.439 243.956 127.304 243.51 128.163C243.208 128.742 242.898 129.315 242.585 129.888C242.128 130.724 241.661 131.554 241.178 132.379C240.844 132.95 240.504 133.52 240.16 134.085C239.653 134.913 239.13 135.733 238.597 136.55C238.241 137.097 237.886 137.646 237.517 138.187C237.111 138.789 236.681 139.381 236.259 139.975C235.524 141.01 234.771 142.039 233.994 143.056C233.474 143.735 232.951 144.414 232.412 145.085C231.993 145.608 231.571 146.131 231.139 146.648C230.486 147.436 229.815 148.211 229.136 148.985C228.706 149.474 228.281 149.964 227.844 150.447C227.093 151.272 226.321 152.084 225.543 152.894C225.145 153.307 224.758 153.729 224.352 154.138C223.272 155.231 222.163 156.308 221.03 157.369C220.911 157.483 220.797 157.6 220.677 157.712C219.417 158.882 218.125 160.031 216.804 161.161C216.393 161.516 215.96 161.858 215.544 162.209C214.618 162.981 213.689 163.75 212.736 164.501C212.214 164.915 211.675 165.321 211.142 165.727C210.266 166.401 209.383 167.067 208.483 167.722C207.902 168.144 207.316 168.558 206.727 168.974C206.035 169.46 205.334 169.937 204.631 170.415C202.307 171.986 199.927 173.511 197.473 174.968C197.099 175.191 196.714 175.4 196.337 175.621C193.92 177.027 191.448 178.38 188.911 179.669C188.656 179.797 188.412 179.934 188.158 180.062C185.969 181.158 183.732 182.2 181.461 183.203C180.864 183.468 180.254 183.718 179.649 183.978C177.861 184.739 176.046 185.474 174.207 186.18C173.541 186.435 172.881 186.695 172.21 186.941C170.251 187.663 168.272 188.35 166.264 189C165.969 189.096 165.68 189.202 165.386 189.297C163.085 190.027 160.751 190.704 158.389 191.34C157.14 191.677 155.879 191.991 154.614 192.301C153.972 192.457 153.338 192.627 152.69 192.776C150.722 193.235 148.734 193.665 146.726 194.055C144.874 194.415 143.03 194.726 141.189 195.02C138.607 195.434 136.034 195.792 133.471 196.082C133.028 196.132 132.587 196.161 132.144 196.209C129.998 196.432 127.859 196.615 125.731 196.753C124.625 196.825 123.521 196.891 122.423 196.939C121.757 196.968 121.091 197.002 120.428 197.024C118.9 197.074 117.377 197.098 115.859 197.103C115.458 197.106 115.055 197.119 114.655 197.116C112.744 197.111 110.845 197.069 108.953 196.994C108.454 196.976 107.961 196.939 107.462 196.915C106.061 196.848 104.663 196.766 103.273 196.66C102.652 196.615 102.033 196.559 101.415 196.503C100.139 196.392 98.8709 196.265 97.608 196.121C96.9978 196.052 96.3902 195.986 95.7826 195.909C94.3261 195.726 92.8801 195.522 91.4421 195.299C91.0812 195.243 90.7178 195.195 90.3596 195.137C88.5767 194.848 86.8097 194.524 85.0559 194.171C84.589 194.079 84.1273 193.972 83.6604 193.874C82.3656 193.601 81.0762 193.314 79.8 193.007C79.211 192.866 78.6247 192.72 78.041 192.572C76.8444 192.269 75.6584 191.951 74.4804 191.619C73.9418 191.465 73.4006 191.319 72.8647 191.16C71.3603 190.717 69.8666 190.25 68.3914 189.759C68.2243 189.704 68.0518 189.653 67.8847 189.597C66.2503 189.045 64.6425 188.462 63.048 187.854C62.5731 187.671 62.1061 187.48 61.6338 187.294C60.5009 186.846 59.3787 186.387 58.267 185.912C57.7363 185.684 57.2084 185.453 56.683 185.22C55.5873 184.731 54.5048 184.23 53.4329 183.713C52.9792 183.498 52.5229 183.285 52.0745 183.063C50.5834 182.325 49.1136 181.566 47.6703 180.776C47.5668 180.717 47.466 180.656 47.3625 180.598C46.028 179.86 44.7146 179.096 43.4226 178.311C42.9848 178.045 42.555 177.77 42.1199 177.499C41.1541 176.897 40.2016 176.281 39.265 175.655C38.8087 175.35 38.3524 175.042 37.904 174.732C36.9303 174.058 35.9778 173.371 35.0359 172.67C34.6884 172.413 34.3328 172.161 33.9906 171.901C32.7303 170.94 31.4966 169.959 30.2921 168.95C30.0719 168.765 29.8596 168.568 29.6394 168.38C28.663 167.547 27.7026 166.698 26.766 165.833C26.3919 165.485 26.0258 165.133 25.657 164.78C24.877 164.034 24.1076 163.275 23.3567 162.506C22.9959 162.137 22.6351 161.768 22.2795 161.394C21.4571 160.521 20.6558 159.635 19.8731 158.736C19.6449 158.473 19.4088 158.221 19.1833 157.956C18.1963 156.796 17.2412 155.613 16.3232 154.408C16.095 154.109 15.8801 153.801 15.6546 153.501C14.9701 152.578 14.2988 151.644 13.6541 150.699C13.3676 150.275 13.089 149.848 12.8078 149.421C12.232 148.542 11.6749 147.651 11.1336 146.749C10.8816 146.332 10.6269 145.916 10.3854 145.494C9.74336 144.379 9.13048 143.249 8.54413 142.108C8.44066 141.907 8.32922 141.713 8.2284 141.511C7.5545 140.172 6.9257 138.808 6.3314 137.428C6.16159 137.036 6.00771 136.635 5.84587 136.237C5.42932 135.229 5.03135 134.21 4.65725 133.181C4.48215 132.695 4.31234 132.207 4.14519 131.719C3.80294 130.708 3.48456 129.689 3.1821 128.659C3.04944 128.209 2.90882 127.76 2.78412 127.304C2.3835 125.834 2.01205 124.353 1.69633 122.852C1.51061 121.968 1.34346 121.085 1.18958 120.201L7.00264 153.819C7.15387 154.7 7.32368 155.584 7.5094 156.467C7.82247 157.972 8.19391 159.452 8.59719 160.919C8.72189 161.376 8.85986 161.827 8.99251 162.278C9.29497 163.307 9.61335 164.326 9.95826 165.334C10.1228 165.825 10.2926 166.313 10.4677 166.796C10.8418 167.828 11.2397 168.844 11.6563 169.855C11.8208 170.253 11.9747 170.654 12.1445 171.046C12.7388 172.426 13.3676 173.787 14.0388 175.127C14.1423 175.331 14.2564 175.528 14.3599 175.732C14.9435 176.87 15.5564 177.998 16.1958 179.109C16.4399 179.531 16.6946 179.948 16.9467 180.367C17.4879 181.269 18.0451 182.158 18.6208 183.039C18.8994 183.466 19.178 183.893 19.4672 184.315C20.1119 185.262 20.7805 186.196 21.4677 187.117C21.6932 187.419 21.9054 187.727 22.1336 188.027C23.0543 189.228 24.0067 190.412 24.9964 191.574C25.2192 191.837 25.458 192.091 25.6862 192.351C26.4689 193.251 27.2675 194.14 28.0926 195.01C28.4455 195.387 28.809 195.755 29.1698 196.127C29.9206 196.894 30.6874 197.65 31.4674 198.395C31.8362 198.748 32.2024 199.104 32.5791 199.451C33.5157 200.316 34.4734 201.165 35.4525 201.998C35.6727 202.187 35.8823 202.38 36.1051 202.566C37.307 203.574 38.5407 204.556 39.801 205.516C40.1459 205.779 40.5041 206.034 40.8543 206.294C41.7935 206.991 42.7433 207.676 43.7118 208.347C44.1628 208.658 44.6191 208.965 45.0781 209.273C46.0147 209.899 46.9672 210.512 47.9303 211.114C48.3654 211.388 48.7952 211.661 49.2356 211.929C50.5224 212.709 51.8278 213.468 53.157 214.203C53.2684 214.266 53.3745 214.333 53.486 214.394C54.9266 215.184 56.3965 215.941 57.8849 216.681C58.336 216.901 58.7923 217.113 59.2433 217.331C60.3179 217.846 61.4004 218.35 62.4961 218.838C63.0214 219.071 63.5494 219.302 64.0774 219.528C65.1891 220.005 66.314 220.464 67.4469 220.91C67.9192 221.096 68.3835 221.289 68.8584 221.47C70.4529 222.077 72.0634 222.664 73.6978 223.215C73.8622 223.271 74.0321 223.319 74.1966 223.375C75.6743 223.865 77.1681 224.333 78.6777 224.778C79.2137 224.935 79.7549 225.083 80.2935 225.235C81.4715 225.566 82.6575 225.885 83.8514 226.19C84.4377 226.336 85.0214 226.484 85.6104 226.625C86.8893 226.933 88.1787 227.219 89.4761 227.492C89.9404 227.591 90.3994 227.697 90.8663 227.789C92.6201 228.142 94.3871 228.463 96.1727 228.755C96.5308 228.814 96.8943 228.859 97.2525 228.915C98.6905 229.137 100.139 229.344 101.596 229.527C102.201 229.602 102.811 229.668 103.418 229.737C104.684 229.88 105.952 230.008 107.228 230.122C107.847 230.175 108.462 230.23 109.083 230.278C109.436 230.305 109.786 230.342 110.139 230.368C111.179 230.437 112.23 230.482 113.275 230.533C113.774 230.557 114.267 230.591 114.766 230.613C116.655 230.687 118.552 230.727 120.462 230.735C120.871 230.735 121.282 230.721 121.691 230.721C123.2 230.713 124.718 230.692 126.241 230.642C126.904 230.621 127.57 230.586 128.233 230.557C128.982 230.522 129.724 230.504 130.475 230.461C130.828 230.44 131.189 230.392 131.542 230.368C133.672 230.23 135.808 230.05 137.955 229.825C138.398 229.779 138.838 229.75 139.281 229.7C141.844 229.411 144.418 229.05 146.999 228.638C147.214 228.604 147.424 228.585 147.639 228.551C149.268 228.283 150.902 227.991 152.536 227.673C154.545 227.283 156.532 226.853 158.501 226.394C159.153 226.243 159.795 226.073 160.443 225.914C161.499 225.656 162.563 225.407 163.608 225.131C163.807 225.078 163.995 225.012 164.194 224.959C166.558 224.322 168.898 223.645 171.201 222.913C171.488 222.823 171.764 222.72 172.05 222.626C174.067 221.971 176.059 221.281 178.025 220.557C178.285 220.462 178.553 220.382 178.813 220.286C179.219 220.133 179.607 219.955 180.012 219.798C181.854 219.093 183.671 218.358 185.465 217.593C186.067 217.336 186.675 217.084 187.271 216.821C189.543 215.818 191.782 214.776 193.971 213.68C194.042 213.643 194.119 213.611 194.194 213.574C194.374 213.484 194.541 213.377 194.722 213.287C197.261 211.998 199.733 210.642 202.153 209.236C202.527 209.018 202.909 208.809 203.283 208.586C205.74 207.127 208.12 205.604 210.444 204.031C210.67 203.877 210.914 203.741 211.139 203.587C211.612 203.264 212.065 202.924 212.532 202.595C213.124 202.179 213.718 201.759 214.302 201.335C215.193 200.685 216.069 200.022 216.939 199.356C217.48 198.942 218.024 198.533 218.555 198.114C219.502 197.366 220.428 196.599 221.349 195.832C221.768 195.479 222.2 195.134 222.617 194.779C223.938 193.646 225.233 192.497 226.49 191.327C226.602 191.224 226.705 191.115 226.817 191.011C227.958 189.94 229.077 188.854 230.165 187.753C230.568 187.345 230.956 186.926 231.351 186.514C232.131 185.705 232.903 184.893 233.651 184.068C234.094 183.583 234.519 183.089 234.951 182.598C235.628 181.826 236.299 181.051 236.952 180.266C237.382 179.749 237.804 179.226 238.223 178.701C238.536 178.316 238.862 177.934 239.165 177.544C239.39 177.257 239.586 176.96 239.807 176.674C240.584 175.655 241.335 174.628 242.07 173.593C242.33 173.225 242.619 172.867 242.874 172.498C243.033 172.27 243.174 172.033 243.33 171.805C243.699 171.261 244.054 170.712 244.413 170.163C244.943 169.348 245.463 168.531 245.97 167.706C246.318 167.138 246.654 166.568 246.991 165.995C247.472 165.17 247.941 164.339 248.395 163.506C248.708 162.93 249.021 162.357 249.321 161.779C249.769 160.922 250.194 160.057 250.61 159.189C250.881 158.63 251.154 158.072 251.412 157.51C251.841 156.573 252.239 155.629 252.635 154.684C252.844 154.186 253.064 153.687 253.264 153.185C253.757 151.941 254.213 150.689 254.646 149.431C254.717 149.224 254.802 149.02 254.871 148.813C255.362 147.346 255.811 145.871 256.219 144.387C256.341 143.944 256.439 143.499 256.553 143.053C256.779 142.183 257.015 141.315 257.211 140.439C257.251 140.259 257.28 140.076 257.318 139.896C257.424 139.413 257.511 138.927 257.607 138.442C257.8 137.452 257.981 136.462 258.14 135.468Z" fill="url(#paint0_linear_1_164)"/>
<path d="M264.036 173.485C264.121 172.944 264.198 172.403 264.272 171.862C264.405 170.891 264.517 169.917 264.615 168.941C264.665 168.415 264.721 167.892 264.761 167.37C264.848 166.258 264.904 165.147 264.941 164.03C264.954 163.653 264.981 163.279 264.989 162.899C264.991 162.812 264.999 162.724 264.999 162.637C265.005 162.382 264.978 162.127 264.978 161.872C264.989 160.212 264.941 158.551 264.843 156.885C264.806 156.29 264.761 155.696 264.71 155.102C264.58 153.549 264.397 151.995 264.169 150.44C264.121 150.103 264.108 149.766 264.052 149.429C264.004 149.135 263.957 148.838 263.904 148.543L258.093 114.925C258.202 115.559 258.266 116.19 258.359 116.822C258.587 118.377 258.767 119.931 258.897 121.486C258.947 122.08 258.995 122.675 259.03 123.266C259.131 124.935 259.178 126.599 259.168 128.262C259.165 128.602 259.184 128.941 259.178 129.281C259.17 129.663 259.141 130.045 259.128 130.427C259.091 131.536 259.038 132.643 258.95 133.749C258.908 134.277 258.852 134.802 258.802 135.33C258.706 136.301 258.595 137.272 258.462 138.241C258.388 138.785 258.308 139.329 258.223 139.872C258.067 140.862 257.886 141.849 257.693 142.833C257.594 143.322 257.507 143.812 257.403 144.298C257.175 145.349 256.913 146.397 256.642 147.439C256.525 147.89 256.427 148.341 256.302 148.79C255.894 150.273 255.448 151.748 254.955 153.215C254.886 153.417 254.803 153.618 254.734 153.823C254.302 155.083 253.843 156.338 253.349 157.585C253.15 158.089 252.927 158.588 252.718 159.089C252.323 160.034 251.925 160.976 251.497 161.91C251.24 162.472 250.964 163.032 250.696 163.592C250.277 164.457 249.852 165.322 249.407 166.181C249.104 166.76 248.794 167.333 248.481 167.906C248.024 168.741 247.557 169.572 247.075 170.397C246.74 170.968 246.401 171.538 246.056 172.103C245.549 172.931 245.026 173.751 244.493 174.568C244.138 175.114 243.782 175.664 243.413 176.205C243.007 176.807 242.578 177.399 242.156 177.993C241.421 179.028 240.667 180.057 239.89 181.073C239.37 181.753 238.847 182.432 238.309 183.103C237.889 183.626 237.468 184.149 237.035 184.666C236.382 185.454 235.711 186.229 235.032 187.003C234.602 187.491 234.178 187.982 233.74 188.465C232.989 189.29 232.217 190.102 231.44 190.911C231.042 191.325 230.654 191.747 230.248 192.156C229.168 193.249 228.059 194.326 226.927 195.387C226.807 195.501 226.693 195.618 226.574 195.729C225.313 196.9 224.021 198.048 222.7 199.179C222.289 199.534 221.856 199.876 221.44 200.227C220.514 200.999 219.585 201.768 218.633 202.519C218.11 202.933 217.571 203.339 217.038 203.745C216.163 204.418 215.279 205.085 214.38 205.74C213.799 206.162 213.212 206.576 212.623 206.992C211.931 207.478 211.23 207.955 210.527 208.433C208.203 210.003 205.823 211.529 203.369 212.986C202.995 213.209 202.61 213.418 202.234 213.638C199.817 215.044 197.344 216.398 194.807 217.687C194.553 217.814 194.309 217.952 194.054 218.08C191.865 219.176 189.628 220.218 187.357 221.221C186.76 221.486 186.15 221.736 185.545 221.996C183.757 222.757 181.942 223.492 180.104 224.198C179.438 224.452 178.777 224.713 178.106 224.959C176.148 225.681 174.168 226.368 172.16 227.018C171.866 227.114 171.576 227.22 171.282 227.315C168.982 228.045 166.647 228.721 164.285 229.358C163.036 229.695 161.776 230.008 160.51 230.319C159.868 230.475 159.234 230.645 158.586 230.794C156.618 231.253 154.631 231.682 152.622 232.072C150.77 232.433 148.926 232.744 147.085 233.038C144.503 233.452 141.93 233.81 139.367 234.099C138.924 234.15 138.483 234.179 138.04 234.227C135.894 234.45 133.756 234.633 131.628 234.771C130.521 234.842 129.418 234.909 128.319 234.956C127.653 234.986 126.987 235.02 126.324 235.041C124.796 235.092 123.273 235.116 121.755 235.121C121.355 235.124 120.951 235.137 120.551 235.134C118.641 235.129 116.741 235.086 114.849 235.012C114.35 234.994 113.857 234.956 113.358 234.933C111.957 234.866 110.559 234.784 109.169 234.678C108.548 234.633 107.93 234.577 107.312 234.521C106.035 234.41 104.767 234.283 103.504 234.139C102.894 234.07 102.286 234.004 101.679 233.927C100.222 233.744 98.7763 233.54 97.3383 233.317C96.9775 233.261 96.614 233.213 96.2558 233.155C94.4729 232.866 92.7059 232.542 90.9522 232.189C90.4852 232.096 90.0236 231.99 89.5566 231.892C88.2619 231.619 86.9724 231.332 85.6963 231.025C85.1073 230.884 84.5209 230.738 83.9372 230.589C82.7406 230.287 81.5547 229.968 80.3767 229.637C79.8381 229.483 79.2968 229.337 78.7609 229.178C77.2566 228.735 75.7628 228.268 74.2877 227.777C74.1205 227.721 73.9481 227.671 73.7809 227.615C72.1466 227.063 70.5388 226.48 68.9442 225.872C68.4693 225.689 68.0023 225.498 67.5301 225.312C66.3972 224.864 65.2749 224.405 64.1632 223.93C63.6326 223.702 63.1046 223.471 62.5793 223.237C61.4835 222.749 60.401 222.248 59.3292 221.73C58.8755 221.516 58.4191 221.303 57.9707 221.08C56.4797 220.343 55.0098 219.584 53.5665 218.793C53.463 218.735 53.3622 218.674 53.2587 218.616C51.9242 217.878 50.6109 217.114 49.3188 216.329C48.881 216.063 48.4512 215.787 48.0161 215.517C47.0503 214.914 46.0979 214.299 45.1613 213.673C44.7049 213.368 44.2486 213.06 43.8002 212.749C42.8265 212.076 41.874 211.388 40.9322 210.688C40.5846 210.431 40.2291 210.179 39.8868 209.919C38.6266 208.958 37.3928 207.976 36.1883 206.968C35.9681 206.783 35.7558 206.586 35.5356 206.398C34.5593 205.565 33.5988 204.716 32.6623 203.851C32.2882 203.503 31.922 203.15 31.5532 202.798C30.7732 202.052 30.0038 201.293 29.253 200.524C28.8921 200.155 28.5313 199.786 28.1758 199.412C27.3533 198.539 26.552 197.653 25.7694 196.754C25.5412 196.491 25.3051 196.239 25.0795 195.974C24.0926 194.814 23.1374 193.631 22.2194 192.426C21.9913 192.126 21.7764 191.819 21.5508 191.519C20.8663 190.596 20.1951 189.662 19.5504 188.717C19.2638 188.293 18.9852 187.866 18.704 187.438C18.1283 186.56 17.5711 185.669 17.0299 184.767C16.7778 184.35 16.5231 183.934 16.2817 183.512C15.6396 182.397 15.0267 181.267 14.4404 180.126C14.3369 179.925 14.2255 179.731 14.1246 179.529C13.4507 178.189 12.8219 176.826 12.2276 175.446C12.0578 175.053 11.9039 174.653 11.7421 174.255C11.3256 173.247 10.9276 172.228 10.5535 171.198C10.3784 170.713 10.2086 170.225 10.0414 169.736C9.69918 168.725 9.3808 167.707 9.07834 166.677C8.94568 166.226 8.80506 165.778 8.68036 165.322C8.27974 163.852 7.90829 162.371 7.59257 160.87C7.40685 159.986 7.2397 159.103 7.08582 158.219L12.8989 191.837C13.0501 192.718 13.2199 193.602 13.4056 194.485C13.7187 195.989 14.0902 197.47 14.4934 198.937C14.6181 199.394 14.7561 199.845 14.8888 200.296C15.1912 201.325 15.5096 202.344 15.8545 203.352C16.019 203.843 16.1888 204.331 16.3639 204.814C16.738 205.846 17.136 206.862 17.5525 207.873C17.717 208.271 17.8709 208.671 18.0407 209.064C18.635 210.444 19.2638 211.805 19.9351 213.145C20.0385 213.349 20.1526 213.545 20.2561 213.75C20.8398 214.888 21.4527 216.016 22.0921 217.127C22.3362 217.549 22.5909 217.966 22.8429 218.385C23.3842 219.287 23.9413 220.176 24.5171 221.056C24.7957 221.484 25.0742 221.911 25.3634 222.333C26.0081 223.28 26.6767 224.214 27.3639 225.134C27.5894 225.437 27.8017 225.745 28.0299 226.044C28.9505 227.246 29.903 228.43 30.8926 229.592C31.1155 229.854 31.3543 230.109 31.5824 230.369C32.3651 231.269 33.1637 232.157 33.9888 233.028C34.3417 233.404 34.7052 233.773 35.066 234.145C35.8169 234.911 36.5836 235.668 37.3637 236.413C37.7324 236.766 38.0986 237.121 38.4753 237.469C39.4119 238.334 40.3697 239.183 41.3487 240.016C41.5689 240.204 41.7785 240.398 42.0014 240.584C43.2033 241.592 44.437 242.574 45.6972 243.534C46.0421 243.797 46.4003 244.051 46.7505 244.311C47.6898 245.009 48.6396 245.694 49.608 246.365C50.059 246.675 50.5154 246.983 50.9744 247.291C51.9109 247.917 52.8634 248.53 53.8265 249.132C54.2616 249.406 54.6914 249.679 55.1319 249.947C56.4186 250.727 57.724 251.486 59.0532 252.221C59.1647 252.284 59.2708 252.35 59.3822 252.412C60.8229 253.202 62.2927 253.958 63.7812 254.699C64.2322 254.919 64.6885 255.131 65.1396 255.349C66.2141 255.863 67.2966 256.367 68.3924 256.855C68.9177 257.089 69.4457 257.32 69.9736 257.545C71.0853 258.023 72.2103 258.482 73.3431 258.928C73.8154 259.113 74.2797 259.307 74.7546 259.487C76.3492 260.095 77.9597 260.681 79.594 261.233C79.7585 261.289 79.9283 261.337 80.0928 261.393C81.5706 261.883 83.0643 262.35 84.574 262.796C85.1099 262.953 85.6512 263.101 86.1897 263.252C87.3677 263.584 88.5537 263.902 89.7476 264.208C90.334 264.353 90.9177 264.502 91.5067 264.643C92.7855 264.95 94.0749 265.237 95.3723 265.51C95.8366 265.608 96.2956 265.715 96.7626 265.807C98.5163 266.16 100.283 266.481 102.069 266.773C102.427 266.832 102.791 266.877 103.149 266.932C104.587 267.155 106.035 267.362 107.492 267.545C108.097 267.619 108.707 267.686 109.315 267.755C110.58 267.898 111.848 268.025 113.125 268.139C113.743 268.193 114.358 268.248 114.979 268.296C115.332 268.323 115.682 268.36 116.035 268.386C117.075 268.455 118.126 268.5 119.171 268.551C119.67 268.574 120.163 268.609 120.662 268.63C122.551 268.705 124.448 268.744 126.359 268.752C126.767 268.752 127.178 268.739 127.587 268.739C129.097 268.731 130.614 268.71 132.137 268.659C132.8 268.638 133.466 268.604 134.13 268.574C134.878 268.54 135.621 268.522 136.372 268.479C136.724 268.458 137.085 268.41 137.438 268.386C139.569 268.248 141.704 268.068 143.851 267.842C144.294 267.797 144.734 267.768 145.177 267.718C147.74 267.428 150.314 267.068 152.895 266.656C153.11 266.622 153.32 266.603 153.535 266.569C155.164 266.301 156.798 266.009 158.433 265.691C160.441 265.301 162.428 264.871 164.397 264.412C165.05 264.261 165.692 264.091 166.339 263.931C167.395 263.674 168.459 263.425 169.504 263.149C169.703 263.096 169.892 263.03 170.091 262.976C172.455 262.34 174.795 261.663 177.098 260.931C177.384 260.841 177.66 260.737 177.947 260.644C179.963 259.989 181.955 259.299 183.921 258.575C184.181 258.479 184.449 258.4 184.709 258.304C185.115 258.15 185.503 257.973 185.909 257.816C187.75 257.11 189.567 256.375 191.361 255.611C191.963 255.354 192.571 255.102 193.168 254.839C195.439 253.836 197.678 252.794 199.867 251.698C199.939 251.661 200.016 251.629 200.09 251.592C200.27 251.501 200.437 251.395 200.618 251.305C203.157 250.016 205.63 248.66 208.049 247.254C208.423 247.036 208.805 246.827 209.18 246.604C211.636 245.145 214.016 243.622 216.34 242.048C216.566 241.894 216.81 241.759 217.036 241.605C217.508 241.282 217.962 240.942 218.428 240.613C219.02 240.196 219.614 239.777 220.198 239.353C221.09 238.703 221.965 238.039 222.835 237.374C223.377 236.96 223.92 236.551 224.451 236.132C225.398 235.384 226.324 234.617 227.245 233.85C227.664 233.497 228.097 233.152 228.513 232.797C229.834 231.664 231.129 230.515 232.387 229.345C232.498 229.242 232.602 229.133 232.713 229.029C233.854 227.957 234.974 226.872 236.061 225.771C236.465 225.363 236.852 224.943 237.247 224.532C238.027 223.723 238.799 222.911 239.548 222.086C239.991 221.6 240.415 221.107 240.848 220.616C241.524 219.844 242.195 219.069 242.848 218.284C243.278 217.767 243.7 217.244 244.119 216.719C244.432 216.334 244.758 215.952 245.061 215.562C245.286 215.275 245.483 214.978 245.703 214.692C246.48 213.673 247.231 212.646 247.966 211.611C248.226 211.243 248.515 210.884 248.77 210.516C248.929 210.287 249.07 210.051 249.226 209.823C249.595 209.279 249.951 208.73 250.309 208.181C250.839 207.366 251.359 206.549 251.866 205.724C252.214 205.156 252.551 204.586 252.888 204.013C253.368 203.187 253.838 202.357 254.291 201.524C254.604 200.948 254.917 200.375 255.217 199.797C255.666 198.94 256.09 198.075 256.507 197.207C256.777 196.648 257.05 196.09 257.308 195.528C257.738 194.591 258.136 193.647 258.531 192.702C258.741 192.203 258.961 191.705 259.16 191.203C259.653 189.959 260.11 188.706 260.542 187.449C260.614 187.242 260.699 187.038 260.768 186.831C261.258 185.363 261.707 183.888 262.115 182.405C262.237 181.962 262.336 181.517 262.45 181.071C262.675 180.2 262.911 179.333 263.108 178.457C263.147 178.277 263.177 178.094 263.214 177.914C263.32 177.431 263.407 176.945 263.503 176.46C263.697 175.47 263.877 174.48 264.036 173.485Z" fill="url(#paint1_linear_1_164)"/>
<path d="M271.036 211.438C271.121 210.897 271.198 210.356 271.272 209.814C271.405 208.844 271.517 207.87 271.615 206.893C271.665 206.368 271.721 205.845 271.761 205.323C271.848 204.211 271.904 203.099 271.941 201.982C271.954 201.606 271.981 201.232 271.989 200.852C271.991 200.765 271.999 200.677 271.999 200.59C272.005 200.335 271.978 200.08 271.978 199.825C271.989 198.165 271.941 196.504 271.843 194.837C271.806 194.243 271.761 193.649 271.71 193.054C271.58 191.502 271.397 189.948 271.169 188.393C271.121 188.056 271.108 187.719 271.052 187.382C271.004 187.087 270.957 186.79 270.904 186.496L265.093 152.878C265.202 153.512 265.266 154.143 265.359 154.775C265.587 156.329 265.767 157.884 265.897 159.439C265.947 160.033 265.995 160.628 266.03 161.219C266.131 162.888 266.178 164.552 266.168 166.215C266.165 166.555 266.184 166.894 266.178 167.234C266.17 167.616 266.141 167.998 266.128 168.38C266.091 169.489 266.038 170.596 265.95 171.702C265.908 172.23 265.852 172.755 265.802 173.283C265.706 174.254 265.595 175.225 265.462 176.194C265.388 176.738 265.308 177.281 265.223 177.825C265.067 178.815 264.886 179.802 264.693 180.786C264.594 181.275 264.507 181.765 264.403 182.251C264.175 183.301 263.913 184.349 263.642 185.392C263.525 185.843 263.427 186.294 263.302 186.743C262.894 188.226 262.448 189.701 261.955 191.168C261.886 191.37 261.803 191.571 261.734 191.776C261.302 193.036 260.843 194.291 260.349 195.538C260.15 196.042 259.927 196.541 259.718 197.042C259.323 197.987 258.925 198.929 258.497 199.862C258.24 200.425 257.964 200.985 257.696 201.545C257.277 202.41 256.852 203.274 256.407 204.134C256.104 204.712 255.794 205.286 255.481 205.859C255.024 206.694 254.557 207.525 254.075 208.35C253.74 208.92 253.401 209.491 253.056 210.056C252.549 210.884 252.026 211.704 251.493 212.521C251.138 213.067 250.782 213.617 250.413 214.158C250.007 214.76 249.578 215.352 249.156 215.946C248.421 216.981 247.667 218.01 246.89 219.026C246.37 219.705 245.847 220.385 245.309 221.056C244.889 221.579 244.468 222.101 244.035 222.619C243.382 223.407 242.711 224.181 242.032 224.956C241.602 225.444 241.178 225.935 240.74 226.418C239.989 227.243 239.217 228.055 238.44 228.864C238.042 229.278 237.654 229.7 237.248 230.108C236.168 231.202 235.059 232.279 233.927 233.34C233.807 233.454 233.693 233.571 233.574 233.682C232.313 234.852 231.021 236.001 229.7 237.132C229.289 237.487 228.856 237.829 228.44 238.179C227.514 238.952 226.585 239.721 225.633 240.472C225.11 240.886 224.571 241.292 224.038 241.698C223.163 242.371 222.279 243.037 221.38 243.693C220.799 244.115 220.212 244.528 219.623 244.945C218.931 245.431 218.23 245.908 217.527 246.386C215.203 247.956 212.823 249.482 210.369 250.939C209.995 251.161 209.61 251.371 209.234 251.591C206.817 252.997 204.344 254.35 201.807 255.64C201.553 255.767 201.309 255.905 201.054 256.033C198.865 257.128 196.628 258.171 194.357 259.174C193.76 259.439 193.15 259.689 192.545 259.949C190.757 260.71 188.942 261.445 187.104 262.151C186.438 262.405 185.777 262.665 185.106 262.912C183.148 263.634 181.168 264.321 179.16 264.971C178.866 265.067 178.576 265.173 178.282 265.268C175.982 265.998 173.647 266.674 171.285 267.311C170.036 267.648 168.776 267.961 167.51 268.272C166.868 268.428 166.234 268.598 165.586 268.746C163.618 269.206 161.631 269.635 159.622 270.025C157.77 270.386 155.926 270.697 154.085 270.991C151.503 271.405 148.93 271.763 146.367 272.052C145.924 272.103 145.483 272.132 145.04 272.18C142.894 272.402 140.756 272.586 138.628 272.724C137.521 272.795 136.418 272.862 135.319 272.909C134.653 272.938 133.987 272.973 133.324 272.994C131.796 273.045 130.273 273.068 128.755 273.074C128.355 273.076 127.951 273.09 127.551 273.087C125.641 273.082 123.741 273.039 121.849 272.965C121.35 272.947 120.857 272.909 120.358 272.885C118.957 272.819 117.559 272.737 116.169 272.631C115.548 272.586 114.93 272.53 114.312 272.474C113.035 272.363 111.767 272.235 110.504 272.092C109.894 272.023 109.286 271.957 108.679 271.88C107.222 271.697 105.776 271.493 104.338 271.27C103.977 271.214 103.614 271.166 103.256 271.108C101.473 270.819 99.7059 270.495 97.9522 270.142C97.4852 270.049 97.0236 269.943 96.5566 269.845C95.2619 269.572 93.9724 269.285 92.6963 268.977C92.1073 268.837 91.5209 268.691 90.9372 268.542C89.7406 268.24 88.5547 267.921 87.3767 267.59C86.8381 267.436 86.2968 267.29 85.7609 267.131C84.2566 266.688 82.7628 266.221 81.2877 265.73C81.1205 265.674 80.9481 265.624 80.7809 265.568C79.1466 265.016 77.5388 264.432 75.9442 263.825C75.4693 263.642 75.0023 263.451 74.5301 263.265C73.3972 262.817 72.2749 262.358 71.1632 261.883C70.6326 261.655 70.1046 261.424 69.5793 261.19C68.4835 260.702 67.401 260.201 66.3292 259.683C65.8755 259.468 65.4191 259.256 64.9707 259.033C63.4797 258.296 62.0098 257.537 60.5665 256.746C60.463 256.688 60.3622 256.627 60.2587 256.569C58.9242 255.831 57.6109 255.067 56.3188 254.282C55.881 254.016 55.4512 253.74 55.0161 253.47C54.0503 252.867 53.0979 252.252 52.1613 251.626C51.7049 251.321 51.2486 251.013 50.8002 250.702C49.8265 250.029 48.874 249.341 47.9322 248.641C47.5846 248.384 47.2291 248.131 46.8868 247.871C45.6266 246.911 44.3928 245.929 43.1883 244.921C42.9681 244.735 42.7558 244.539 42.5356 244.351C41.5593 243.518 40.5988 242.669 39.6623 241.804C39.2882 241.456 38.922 241.103 38.5532 240.75C37.7732 240.005 37.0038 239.246 36.253 238.477C35.8921 238.108 35.5313 237.739 35.1758 237.365C34.3533 236.492 33.552 235.606 32.7694 234.706C32.5412 234.444 32.3051 234.192 32.0795 233.926C31.0926 232.767 30.1374 231.584 29.2194 230.379C28.9913 230.079 28.7764 229.772 28.5508 229.472C27.8663 228.548 27.1951 227.615 26.5504 226.67C26.2638 226.246 25.9852 225.818 25.704 225.391C25.1283 224.513 24.5711 223.622 24.0299 222.72C23.7778 222.303 23.5231 221.886 23.2817 221.465C22.6396 220.35 22.0267 219.22 21.4404 218.079C21.3369 217.877 21.2255 217.684 21.1246 217.482C20.4507 216.142 19.8219 214.778 19.2276 213.399C19.0578 213.006 18.9039 212.606 18.7421 212.208C18.3256 211.199 17.9276 210.181 17.5535 209.151C17.3784 208.666 17.2086 208.177 17.0414 207.689C16.6992 206.678 16.3808 205.66 16.0783 204.63C15.9457 204.179 15.8051 203.731 15.6804 203.274C15.2797 201.805 14.9083 200.324 14.5926 198.822C14.4068 197.939 14.2397 197.055 14.0858 196.172L19.8989 229.79C20.0501 230.671 20.2199 231.554 20.4056 232.438C20.7187 233.942 21.0902 235.423 21.4934 236.89C21.6181 237.346 21.7561 237.797 21.8888 238.249C22.1912 239.278 22.5096 240.297 22.8545 241.305C23.019 241.796 23.1888 242.284 23.3639 242.767C23.738 243.799 24.136 244.815 24.5525 245.826C24.717 246.224 24.8709 246.624 25.0407 247.017C25.635 248.397 26.2638 249.758 26.9351 251.098C27.0385 251.302 27.1526 251.498 27.2561 251.703C27.8398 252.841 28.4527 253.968 29.0921 255.08C29.3362 255.502 29.5909 255.918 29.8429 256.338C30.3842 257.24 30.9413 258.129 31.5171 259.009C31.7957 259.437 32.0742 259.864 32.3634 260.286C33.0081 261.233 33.6767 262.167 34.3639 263.087C34.5894 263.39 34.8017 263.698 35.0299 263.997C35.9505 265.199 36.903 266.383 37.8926 267.545C38.1155 267.807 38.3543 268.062 38.5824 268.322C39.3651 269.221 40.1637 270.11 40.9888 270.98C41.3417 271.357 41.7052 271.726 42.066 272.097C42.8169 272.864 43.5836 273.62 44.3637 274.366C44.7324 274.719 45.0986 275.074 45.4753 275.422C46.4119 276.287 47.3697 277.136 48.3487 277.969C48.5689 278.157 48.7785 278.351 49.0014 278.537C50.2033 279.545 51.437 280.527 52.6972 281.487C53.0421 281.75 53.4003 282.004 53.7505 282.264C54.6898 282.962 55.6396 283.647 56.608 284.318C57.059 284.628 57.5154 284.936 57.9744 285.244C58.9109 285.87 59.8634 286.483 60.8265 287.085C61.2616 287.358 61.6914 287.632 62.1319 287.9C63.4186 288.68 64.724 289.438 66.0532 290.173C66.1647 290.237 66.2708 290.303 66.3822 290.364C67.8229 291.155 69.2927 291.911 70.7812 292.651C71.2322 292.872 71.6885 293.084 72.1396 293.301C73.2141 293.816 74.2966 294.32 75.3924 294.808C75.9177 295.042 76.4457 295.273 76.9736 295.498C78.0853 295.976 79.2103 296.435 80.3431 296.881C80.8154 297.066 81.2797 297.26 81.7546 297.44C83.3492 298.048 84.9597 298.634 86.594 299.186C86.7585 299.242 86.9283 299.29 87.0928 299.345C88.5706 299.836 90.0643 300.303 91.574 300.749C92.1099 300.905 92.6512 301.054 93.1897 301.205C94.3677 301.537 95.5537 301.855 96.7476 302.16C97.334 302.306 97.9177 302.455 98.5067 302.595C99.7855 302.903 101.075 303.19 102.372 303.463C102.837 303.561 103.296 303.667 103.763 303.76C105.516 304.113 107.283 304.434 109.069 304.726C109.427 304.784 109.791 304.829 110.149 304.885C111.587 305.108 113.035 305.315 114.492 305.498C115.097 305.572 115.707 305.639 116.315 305.708C117.58 305.851 118.848 305.978 120.125 306.092C120.743 306.146 121.358 306.201 121.979 306.249C122.332 306.275 122.682 306.313 123.035 306.339C124.075 306.408 125.126 306.453 126.171 306.504C126.67 306.527 127.163 306.562 127.662 306.583C129.551 306.657 131.448 306.697 133.359 306.705C133.767 306.705 134.178 306.692 134.587 306.692C136.097 306.684 137.614 306.663 139.137 306.612C139.8 306.591 140.466 306.557 141.13 306.527C141.878 306.493 142.621 306.474 143.372 306.432C143.724 306.411 144.085 306.363 144.438 306.339C146.569 306.201 148.704 306.021 150.851 305.795C151.294 305.75 151.734 305.721 152.177 305.671C154.74 305.381 157.314 305.02 159.895 304.609C160.11 304.575 160.32 304.556 160.535 304.522C162.164 304.254 163.798 303.962 165.433 303.643C167.441 303.254 169.428 302.824 171.397 302.365C172.05 302.213 172.692 302.044 173.339 301.884C174.395 301.627 175.459 301.378 176.504 301.102C176.703 301.049 176.892 300.982 177.091 300.929C179.455 300.293 181.795 299.616 184.098 298.884C184.384 298.793 184.66 298.69 184.947 298.597C186.963 297.942 188.955 297.252 190.921 296.528C191.181 296.432 191.449 296.353 191.709 296.257C192.115 296.103 192.503 295.925 192.909 295.769C194.75 295.063 196.567 294.328 198.361 293.564C198.963 293.307 199.571 293.055 200.168 292.792C202.439 291.789 204.678 290.746 206.867 289.651C206.939 289.614 207.016 289.582 207.09 289.545C207.27 289.454 207.437 289.348 207.618 289.258C210.157 287.969 212.63 286.613 215.049 285.207C215.423 284.989 215.805 284.78 216.18 284.557C218.636 283.097 221.016 281.575 223.34 280.001C223.566 279.847 223.81 279.712 224.036 279.558C224.508 279.234 224.962 278.895 225.428 278.566C226.02 278.149 226.614 277.73 227.198 277.306C228.09 276.656 228.965 275.992 229.835 275.326C230.377 274.912 230.92 274.504 231.451 274.085C232.398 273.337 233.324 272.57 234.245 271.803C234.664 271.45 235.097 271.105 235.513 270.75C236.834 269.617 238.129 268.468 239.387 267.298C239.498 267.194 239.602 267.086 239.713 266.982C240.854 265.91 241.974 264.825 243.061 263.724C243.465 263.315 243.852 262.896 244.247 262.485C245.027 261.676 245.799 260.864 246.548 260.039C246.991 259.553 247.415 259.06 247.848 258.569C248.524 257.797 249.195 257.022 249.848 256.237C250.278 255.72 250.7 255.197 251.119 254.672C251.432 254.287 251.758 253.905 252.061 253.515C252.286 253.228 252.483 252.931 252.703 252.644C253.48 251.626 254.231 250.599 254.966 249.564C255.226 249.195 255.515 248.837 255.77 248.468C255.929 248.24 256.07 248.004 256.226 247.776C256.595 247.232 256.951 246.683 257.309 246.134C257.839 245.319 258.359 244.502 258.866 243.677C259.214 243.109 259.551 242.539 259.888 241.966C260.368 241.14 260.838 240.31 261.291 239.477C261.604 238.901 261.917 238.328 262.217 237.75C262.666 236.893 263.09 236.028 263.507 235.16C263.777 234.6 264.05 234.043 264.308 233.481C264.738 232.544 265.136 231.6 265.531 230.655C265.741 230.156 265.961 229.658 266.16 229.156C266.653 227.912 267.11 226.659 267.542 225.402C267.614 225.195 267.699 224.991 267.768 224.784C268.258 223.316 268.707 221.841 269.115 220.358C269.237 219.915 269.336 219.469 269.45 219.024C269.675 218.153 269.911 217.286 270.108 216.41C270.147 216.23 270.177 216.047 270.214 215.866C270.32 215.383 270.407 214.898 270.503 214.412C270.697 213.423 270.877 212.433 271.036 211.438Z" fill="url(#paint2_linear_1_164)"/>
<path d="M106.69 3.06428C175.709 -10.3501 240.637 21.5277 251.69 74.2566C262.746 127.004 215.745 180.64 146.726 194.055C77.6828 207.477 12.7547 175.599 1.69635 122.852C-9.35671 70.1202 37.6466 16.4867 106.69 3.06428Z" fill="white"/>
<path d="M129.34 48.2502C129.345 48.1441 129.377 48.0379 129.38 47.9318C129.385 47.4781 129.353 47.0191 129.281 46.5628L129.265 46.4726L127.812 38.0674C127.915 38.6617 127.92 39.256 127.888 39.8477C127.875 40.0652 127.841 40.2827 127.809 40.5003C127.756 40.8903 127.674 41.2804 127.565 41.6624C127.49 41.9198 127.408 42.1718 127.31 42.4212C127.169 42.7821 127.002 43.1349 126.817 43.4826C126.689 43.7213 126.565 43.9574 126.419 44.1883C126.156 44.5968 125.859 44.9947 125.532 45.3795C125.352 45.5944 125.156 45.8014 124.957 46.0057C124.66 46.3107 124.346 46.6026 124.012 46.8865C123.787 47.0748 123.556 47.2632 123.314 47.441C122.938 47.7223 122.534 47.9796 122.12 48.229C121.89 48.3643 121.669 48.5076 121.431 48.6349C120.799 48.9692 120.139 49.2744 119.441 49.529C119.348 49.5635 119.25 49.5874 119.157 49.6193C118.414 49.8766 117.645 50.1021 116.835 50.2587C115.992 50.4232 115.153 50.5107 114.328 50.5479C114.092 50.5585 113.864 50.5425 113.633 50.5452C113.057 50.5479 112.49 50.5292 111.935 50.4762C111.675 50.4496 111.423 50.4126 111.168 50.3754C110.648 50.2958 110.141 50.1923 109.648 50.065C109.417 50.0066 109.181 49.9536 108.958 49.8846C108.366 49.7015 107.801 49.4813 107.263 49.2319C107.167 49.1868 107.064 49.1576 106.971 49.1099C106.353 48.8047 105.78 48.4465 105.246 48.0539C105.092 47.9424 104.96 47.8152 104.817 47.6957C104.448 47.3959 104.106 47.0802 103.792 46.7406C103.644 46.5787 103.506 46.4115 103.371 46.2418C103.095 45.8943 102.851 45.5254 102.633 45.1408C102.537 44.9735 102.431 44.8091 102.346 44.634C102.076 44.0688 101.853 43.4799 101.723 42.8537C101.702 42.7608 101.686 42.6707 101.67 42.5778V42.5804V42.5778L103.121 50.983C103.137 51.0732 103.156 51.166 103.174 51.2589C103.307 51.885 103.53 52.4714 103.8 53.0365C103.883 53.2143 103.989 53.3761 104.087 53.546C104.305 53.9306 104.546 54.2968 104.825 54.647C104.96 54.8168 105.095 54.9812 105.244 55.1431C105.557 55.4854 105.902 55.8011 106.27 56.1035C106.416 56.2203 106.546 56.3476 106.698 56.4591C107.231 56.8492 107.804 57.2072 108.425 57.5151C108.518 57.5601 108.624 57.592 108.719 57.6371C109.258 57.8865 109.82 58.104 110.412 58.2871C110.635 58.356 110.866 58.4118 111.099 58.4702C111.595 58.5975 112.102 58.701 112.625 58.7779C112.877 58.8177 113.129 58.8548 113.386 58.8788C113.551 58.8947 113.705 58.9319 113.869 58.9424C114.267 58.9716 114.678 58.9504 115.084 58.9477C115.32 58.9477 115.546 58.9637 115.782 58.953C115.851 58.9477 115.92 58.9583 115.989 58.953C116.581 58.9186 117.178 58.8523 117.777 58.7541C117.947 58.7249 118.117 58.6956 118.289 58.6612C118.677 58.587 119.061 58.4994 119.435 58.3985C119.841 58.2925 120.229 58.1571 120.616 58.0218C120.706 57.9926 120.802 57.9688 120.892 57.9343C120.932 57.9209 120.974 57.9103 121.014 57.8971C121.566 57.6902 122.102 57.4567 122.611 57.1994C122.707 57.1515 122.786 57.0906 122.882 57.0401C123.123 56.9128 123.344 56.7696 123.577 56.6315C123.842 56.4724 124.126 56.3291 124.376 56.1593C124.516 56.0612 124.63 55.9471 124.766 55.8462C125.01 55.6684 125.238 55.48 125.466 55.2891C125.8 55.0078 126.113 54.7159 126.411 54.4109C126.61 54.2039 126.803 53.9995 126.986 53.782C127.085 53.6653 127.207 53.5618 127.299 53.4425C127.435 53.27 127.565 53.0922 127.689 52.9145C127.761 52.811 127.804 52.6969 127.87 52.5935C128.018 52.3626 128.143 52.1265 128.27 51.8878C128.456 51.5374 128.623 51.1873 128.764 50.8264C128.859 50.5743 128.944 50.325 129.016 50.0677C129.064 49.9031 129.143 49.7412 129.181 49.5741C129.231 49.3539 129.231 49.1284 129.263 48.9055C129.292 48.688 129.326 48.4704 129.34 48.2502Z" fill="url(#paint3_linear_1_164)"/>
<path d="M112.665 30.3653C119.836 28.9723 126.607 32.2968 127.759 37.7914C128.907 43.2702 124.007 48.8631 116.835 50.2587C109.64 51.6569 102.872 48.3324 101.723 42.8538C100.569 37.3563 105.472 31.7635 112.665 30.3653Z" fill="#DCEEFF"/>
<path d="M89.5001 64.5485C89.5001 64.5166 89.4921 64.4875 89.4921 64.4557C89.4948 64.1479 89.4603 63.8454 89.4284 63.5404C89.4125 63.4156 89.4205 63.2882 89.3993 63.1662L89.386 63.0787L87.9321 54.6735C87.9586 54.8247 87.9559 54.9785 87.9745 55.1324C88.009 55.4376 88.0408 55.7427 88.0408 56.0505C88.0382 56.1751 88.0196 56.2972 88.0143 56.4219C87.9931 56.8092 87.9506 57.1966 87.8737 57.5839C87.8419 57.7458 87.8047 57.9076 87.7623 58.0669C87.6668 58.4489 87.5394 58.8257 87.3882 59.1998C87.3351 59.335 87.29 59.4704 87.229 59.6057C87.0035 60.0992 86.7355 60.5874 86.4171 61.0623C86.2181 61.3541 85.9926 61.638 85.7618 61.9192C85.523 62.2084 85.2577 62.4871 84.9818 62.7629C84.8517 62.8929 84.7297 63.0282 84.5917 63.1556C84.1619 63.5509 83.7003 63.9329 83.1909 64.2885C83.037 64.3973 82.8698 64.4849 82.7107 64.5856C82.3047 64.8483 81.8882 65.1004 81.4584 65.3232C81.2249 65.4453 80.9835 65.554 80.7447 65.6655C80.4714 65.7902 80.2008 65.9122 79.9222 66.0237C79.6516 66.1298 79.3756 66.2227 79.0997 66.3155C78.8503 66.3978 78.6009 66.4827 78.3489 66.5543C77.8872 66.6843 77.4256 66.8064 76.9559 66.8965C76.6084 66.9655 76.2555 67.0027 75.9053 67.0478C75.5869 67.0902 75.2712 67.1301 74.9555 67.1539C74.7273 67.1698 74.5018 67.1752 74.2763 67.1832C73.8226 67.199 73.3689 67.1964 72.9205 67.1778C72.7083 67.1672 72.4986 67.1592 72.2917 67.1406C71.6788 67.0902 71.0712 67.0106 70.4796 66.8886C70.4212 66.878 70.3602 66.8727 70.3018 66.8593C69.6571 66.7215 69.0363 66.5304 68.4314 66.3102C68.2615 66.2492 68.0971 66.1749 67.9326 66.1059C67.4842 65.9228 67.0544 65.7158 66.6405 65.4877C66.4786 65.3975 66.3141 65.31 66.1576 65.2144C65.6217 64.8828 65.1069 64.5246 64.64 64.1107C63.0401 62.7019 62.0983 60.9959 61.7878 59.205L63.2418 67.6103C63.5522 69.4012 64.4941 71.1044 66.0939 72.516C66.5582 72.9299 67.0756 73.288 67.6115 73.6196C67.7681 73.7151 67.9299 73.8 68.0917 73.8903C68.5083 74.1211 68.9381 74.328 69.3838 74.5111C69.551 74.58 69.7128 74.6544 69.8853 74.7154C70.4902 74.9356 71.111 75.1267 71.7531 75.2646C71.8115 75.2778 71.8752 75.2831 71.9335 75.2938C72.5252 75.4132 73.1301 75.4955 73.743 75.5458C73.8252 75.5538 73.9048 75.575 73.9897 75.5804C74.1144 75.5883 74.2444 75.575 74.3718 75.5804C74.8228 75.6016 75.2738 75.6042 75.7275 75.5883C75.8628 75.583 75.9929 75.5963 76.1255 75.5883C76.221 75.583 76.3139 75.5645 76.4068 75.5591C76.7251 75.5325 77.0435 75.4928 77.3619 75.453C77.5449 75.4265 77.728 75.4212 77.9137 75.3894C78.0782 75.3627 78.2454 75.3336 78.4099 75.3018C78.7893 75.2275 79.1687 75.1399 79.5428 75.0417C79.6303 75.0179 79.7152 74.9834 79.8001 74.9594C80.0548 74.8878 80.3016 74.803 80.5536 74.7208C80.7394 74.6571 80.9304 74.6093 81.1161 74.5403C81.2037 74.5085 81.2859 74.4608 81.3735 74.4262C81.6547 74.3174 81.9253 74.1927 82.1986 74.068C82.3684 73.9911 82.5462 73.9274 82.716 73.8425C82.7823 73.808 82.8433 73.763 82.9123 73.7285C83.3421 73.5029 83.756 73.2535 84.1619 72.9908C84.2707 72.9218 84.3901 72.8688 84.4962 72.7972L84.6421 72.6937C85.1542 72.3355 85.6132 71.9535 86.0457 71.5608C86.1836 71.4334 86.303 71.3008 86.433 71.1708C86.709 70.8922 86.9743 70.6136 87.2157 70.3218C87.2661 70.2608 87.3325 70.2024 87.3829 70.1413C87.5447 69.9344 87.6986 69.7248 87.8419 69.5152L87.8684 69.4674C88.1894 68.9926 88.4547 68.5044 88.6829 68.0082C88.7439 67.8756 88.7864 67.7402 88.8421 67.605C88.9933 67.2308 89.118 66.8541 89.2162 66.472C89.2374 66.3845 89.2799 66.3023 89.3011 66.2148C89.317 66.1404 89.3117 66.0634 89.3276 65.9865C89.4019 65.5992 89.447 65.2117 89.4656 64.8244C89.4709 64.7315 89.4974 64.6414 89.5001 64.5485Z" fill="url(#paint4_linear_1_164)"/>
<path d="M72.7692 46.9953C77.2716 46.1198 82.0261 47.059 85.0985 49.7758C89.6831 53.8405 88.8262 60.3433 83.1908 64.2886C81.3257 65.5993 79.1713 66.4669 76.9559 66.8967C72.4588 67.7723 67.7123 66.8382 64.64 64.1136C60.0341 60.0516 60.8884 53.5487 66.5502 49.5981C68.4101 48.2927 70.5591 47.4252 72.7692 46.9953Z" fill="#DCEEFF"/>
<path d="M63.8972 93.7864C63.8972 93.7492 63.8892 93.7147 63.8892 93.6776C63.8892 93.3592 63.8574 93.0461 63.8203 92.7331C63.8097 92.6269 63.8149 92.5209 63.799 92.4174L63.7831 92.3298L62.3318 83.9246C62.3531 84.0573 62.3531 84.1952 62.369 84.3279C62.4061 84.6409 62.4353 84.954 62.4353 85.2724C62.4353 85.3997 62.4167 85.5297 62.4114 85.6571C62.3902 86.0338 62.3477 86.4106 62.2735 86.7901C62.2443 86.9412 62.2098 87.0924 62.1726 87.241C62.0294 87.8115 61.849 88.3818 61.5783 88.9497C61.3608 89.4086 61.1061 89.8491 60.8222 90.2736L60.8089 90.2895C60.5887 90.6132 60.3367 90.9183 60.082 91.2208C59.822 91.5312 59.5381 91.8257 59.2436 92.1122C59.1162 92.2396 58.9968 92.3696 58.8615 92.489C58.4211 92.8843 57.9568 93.2584 57.458 93.5979C57.4182 93.6272 57.3731 93.6484 57.3333 93.675C56.8584 93.9961 56.3543 94.2878 55.8342 94.5558C55.6167 94.67 55.3885 94.7708 55.1656 94.8741C54.8765 95.0068 54.5899 95.1368 54.2928 95.2536C54.0301 95.3571 53.7621 95.4473 53.4915 95.5375C53.2342 95.625 52.9795 95.71 52.7168 95.7842C52.2551 95.9169 51.7882 96.0389 51.3133 96.1291C50.9737 96.1954 50.6261 96.2326 50.2812 96.2803C49.9655 96.3202 49.6524 96.3599 49.3367 96.3839C49.1058 96.4024 48.875 96.4077 48.6442 96.4157C48.2091 96.4289 47.7766 96.4289 47.3441 96.4104C47.1266 96.3997 46.9117 96.3891 46.6941 96.3705C45.9778 96.3095 45.2614 96.2193 44.5557 96.0602C42.2103 95.5295 40.2682 94.5081 38.8355 93.1735C37.4028 91.8416 36.4795 90.1966 36.1717 88.419H36.1743H36.1717L37.6256 96.8216C38.2412 100.379 41.3188 103.401 46.0096 104.465C46.7153 104.624 47.429 104.715 48.1481 104.776C48.233 104.784 48.3152 104.808 48.4028 104.813C48.5328 104.821 48.6654 104.808 48.7954 104.813C49.2305 104.834 49.663 104.834 50.0955 104.818C50.2308 104.816 50.3687 104.829 50.5041 104.821C50.5996 104.816 50.6951 104.797 50.7906 104.789C51.1063 104.765 51.4194 104.725 51.7325 104.683C51.9129 104.659 52.0933 104.654 52.2711 104.624C52.4382 104.595 52.6027 104.566 52.7672 104.534C53.1493 104.46 53.5313 104.372 53.9054 104.274C53.9956 104.25 54.0805 104.213 54.1681 104.189C54.4307 104.115 54.6881 104.028 54.9454 103.943C55.1285 103.882 55.3169 103.834 55.4973 103.765C55.5822 103.733 55.6618 103.691 55.7467 103.659C56.0412 103.542 56.3277 103.412 56.6143 103.279C56.7814 103.202 56.9592 103.141 57.121 103.059C57.1794 103.03 57.2298 102.99 57.2882 102.961C57.8055 102.693 58.3043 102.401 58.7793 102.083C58.8164 102.059 58.8589 102.04 58.896 102.014L58.9119 102.003C59.4107 101.661 59.875 101.289 60.3154 100.894C60.4481 100.775 60.5675 100.642 60.6948 100.517C60.992 100.231 61.2732 99.9364 61.5359 99.626C61.5916 99.5569 61.6632 99.4986 61.7189 99.4296C61.91 99.1935 62.0904 98.9467 62.2602 98.6973L62.2735 98.6761L62.2788 98.6709C62.5627 98.2491 62.8147 97.8112 63.0323 97.3549C63.3002 96.7844 63.4833 96.2141 63.6239 95.6463C63.6425 95.5772 63.6823 95.5082 63.6982 95.4393C63.7168 95.3571 63.7115 95.2774 63.7274 95.1952C63.799 94.8131 63.8441 94.4363 63.8627 94.0623C63.868 93.9695 63.8945 93.8766 63.8972 93.7864Z" fill="url(#paint5_linear_1_164)"/>
<path d="M47.1901 76.2198C49.3949 75.7927 51.7164 75.7874 53.9477 76.2915C60.761 77.8357 64.165 83.4922 61.5782 88.9497C59.8271 92.619 55.8128 95.2562 51.3131 96.1318C49.1083 96.559 46.7868 96.5642 44.5555 96.0602C37.7448 94.5161 34.3355 88.8409 36.9277 83.3994C38.6788 79.7326 42.6903 77.0954 47.1901 76.2198Z" fill="#DCEEFF"/>
<path d="M208.213 65.7213C208.213 65.6895 208.205 65.6602 208.205 65.6284C208.208 65.3207 208.173 65.0129 208.139 64.7078C208.125 64.5857 208.133 64.461 208.115 64.339L208.099 64.2514L206.645 55.8462C206.671 55.9974 206.669 56.1514 206.687 56.3026C206.722 56.6104 206.754 56.9155 206.754 57.2232C206.754 57.3452 206.732 57.4699 206.727 57.592C206.709 57.9794 206.663 58.3694 206.586 58.7568C206.557 58.9186 206.518 59.0778 206.475 59.2369C206.377 59.6244 206.25 60.009 206.096 60.3911C206.043 60.5237 206 60.6564 205.939 60.7864C205.711 61.2852 205.443 61.7761 205.119 62.2509C204.926 62.5401 204.703 62.8215 204.472 63.1C204.233 63.3892 203.968 63.6704 203.692 63.9464C203.562 64.0763 203.443 64.2117 203.305 64.339C202.875 64.7343 202.416 65.1164 201.906 65.4746C201.771 65.5674 201.628 65.6443 201.49 65.7318C201.068 66.0051 200.638 66.2626 200.195 66.4933C199.959 66.6154 199.72 66.7242 199.481 66.833C199.208 66.9577 198.935 67.0851 198.654 67.1938C198.386 67.3 198.112 67.3928 197.839 67.483C197.587 67.5678 197.335 67.6528 197.08 67.7244C196.619 67.8544 196.157 67.9765 195.69 68.0667C195.342 68.133 194.99 68.1701 194.639 68.218C194.321 68.2576 194.003 68.3002 193.684 68.324C193.456 68.3399 193.231 68.3453 193.002 68.3532C192.546 68.3691 192.095 68.3665 191.644 68.3479C191.434 68.3373 191.222 68.3293 191.012 68.3109C190.394 68.2603 189.784 68.1781 189.19 68.0587C189.134 68.0481 189.076 68.0429 189.023 68.0296C188.378 67.8915 187.754 67.7006 187.149 67.4803C186.977 67.4193 186.812 67.345 186.645 67.276C186.2 67.093 185.77 66.886 185.356 66.6579C185.194 66.5677 185.03 66.4802 184.87 66.3846C184.334 66.053 183.82 65.6948 183.353 65.2808C181.753 63.8694 180.811 62.166 180.503 60.3778L181.955 68.7831C182.265 70.5712 183.204 72.2746 184.807 73.6835C185.271 74.0974 185.788 74.4555 186.324 74.7872C186.481 74.8853 186.645 74.9702 186.807 75.0604C187.224 75.2912 187.654 75.4955 188.099 75.6786C188.266 75.7503 188.431 75.8219 188.603 75.8855C189.208 76.1058 189.829 76.2968 190.474 76.4348C190.53 76.448 190.588 76.4507 190.644 76.4613C191.238 76.5833 191.848 76.6629 192.464 76.7161C192.549 76.724 192.628 76.7451 192.71 76.7505C192.838 76.7585 192.968 76.7451 193.098 76.7505C193.549 76.7717 194 76.7743 194.454 76.7585C194.589 76.7531 194.719 76.7664 194.854 76.7585C194.947 76.7531 195.043 76.7345 195.138 76.7292C195.456 76.7028 195.775 76.6629 196.096 76.6205C196.279 76.5966 196.462 76.5912 196.645 76.5594C196.812 76.533 196.977 76.5037 197.144 76.4718C197.526 76.3975 197.905 76.31 198.279 76.2093C198.364 76.188 198.447 76.1535 198.532 76.1296C198.789 76.058 199.041 75.9704 199.293 75.8855C199.481 75.8245 199.672 75.7768 199.855 75.7078C199.94 75.6759 200.02 75.6334 200.105 75.599C200.386 75.4876 200.662 75.3629 200.938 75.2356C201.11 75.1586 201.288 75.0948 201.458 75.01C201.524 74.9756 201.583 74.933 201.646 74.8985C202.092 74.6678 202.522 74.4104 202.944 74.1371C203.039 74.0735 203.145 74.0257 203.241 73.9619L203.36 73.8798C203.867 73.5215 204.329 73.1396 204.758 72.7442C204.896 72.6169 205.016 72.4815 205.148 72.3488C205.422 72.073 205.687 71.7943 205.923 71.5052C205.976 71.4441 206.043 71.3884 206.09 71.3248C206.25 71.1231 206.398 70.9214 206.541 70.7145L206.573 70.6561C206.894 70.1786 207.165 69.6878 207.393 69.1915C207.451 69.059 207.494 68.9263 207.547 68.7963C207.703 68.4142 207.831 68.0322 207.929 67.6448C207.95 67.5573 207.995 67.475 208.014 67.3901C208.03 67.3132 208.025 67.2362 208.04 67.1593C208.115 66.7719 208.16 66.3846 208.178 65.9972C208.184 65.9044 208.21 65.8115 208.213 65.7213Z" fill="url(#paint6_linear_1_164)"/>
<path d="M191.477 48.1734C195.985 47.2979 200.739 48.2317 203.814 50.9618C208.396 55.0079 207.539 61.5108 201.906 65.4746C200.047 66.7747 197.898 67.6369 195.69 68.0667C191.185 68.9423 186.431 68.0084 183.353 65.2809C178.744 61.219 179.607 54.7347 185.261 50.7656C187.123 49.4655 189.269 48.6033 191.477 48.1734Z" fill="#DCEEFF"/>
<path d="M172.841 48.3642C172.844 48.3298 172.833 48.2926 172.833 48.2555C172.836 47.9343 172.804 47.6187 172.767 47.3056C172.753 47.2021 172.761 47.096 172.743 46.9926L172.73 46.9049L171.276 38.5024C171.3 38.635 171.297 38.773 171.313 38.9084C171.35 39.2188 171.382 39.5318 171.382 39.8502C171.382 39.9802 171.363 40.1102 171.355 40.2375C171.337 40.6117 171.294 40.991 171.22 41.3705C171.191 41.5217 171.156 41.6729 171.119 41.8242C170.976 42.3919 170.795 42.9624 170.525 43.5301C170.307 43.9865 170.053 44.4269 169.769 44.8514L169.758 44.8647C169.538 45.191 169.286 45.4961 169.031 45.7986C168.768 46.1117 168.485 46.4062 168.187 46.6954C168.063 46.8174 167.946 46.9475 167.813 47.0641C167.373 47.4595 166.909 47.8335 166.41 48.1759C166.367 48.205 166.32 48.2263 166.274 48.2555C165.802 48.5738 165.306 48.863 164.791 49.1284C164.571 49.2424 164.346 49.3432 164.12 49.4467C163.834 49.5793 163.547 49.7094 163.25 49.8261C162.987 49.9296 162.719 50.0198 162.451 50.11C162.197 50.1949 161.939 50.2824 161.679 50.3567C161.218 50.4867 160.753 50.6087 160.278 50.7016C159.936 50.768 159.586 50.8051 159.238 50.8503C158.928 50.89 158.617 50.9298 158.304 50.9537C158.074 50.9723 157.84 50.9749 157.607 50.9829C157.177 50.9988 156.747 50.9988 156.314 50.9802C156.097 50.9696 155.882 50.959 155.664 50.9404C154.938 50.8794 154.213 50.7865 153.499 50.622C148.809 49.5714 145.734 46.5521 145.118 42.9915L146.569 51.3941C147.185 54.9573 150.263 57.9739 154.951 59.0272C155.667 59.1891 156.391 59.282 157.118 59.343C157.206 59.351 157.291 59.3748 157.376 59.3827C157.506 59.3908 157.636 59.3774 157.768 59.3827C158.201 59.4014 158.631 59.404 159.063 59.3881C159.201 59.3827 159.339 59.3987 159.474 59.3908C159.57 59.3854 159.663 59.3669 159.756 59.3589C160.071 59.335 160.379 59.2952 160.692 59.2554C160.873 59.2315 161.058 59.2235 161.239 59.1945C161.403 59.1652 161.568 59.136 161.732 59.1043C162.114 59.0298 162.494 58.9423 162.868 58.8442C162.958 58.8203 163.043 58.7858 163.13 58.7593C163.393 58.685 163.648 58.6001 163.905 58.5125C164.088 58.4515 164.277 58.4065 164.457 58.3375C164.542 58.3055 164.619 58.2631 164.704 58.2314C165.001 58.1146 165.285 57.9846 165.571 57.8519C165.739 57.775 165.914 57.714 166.075 57.6317C166.134 57.6025 166.184 57.5627 166.243 57.5336C166.757 57.2682 167.251 56.979 167.72 56.6633C167.763 56.6367 167.808 56.6182 167.848 56.5917L167.864 56.5784C168.36 56.2361 168.824 55.8647 169.265 55.4693C169.397 55.35 169.517 55.2199 169.644 55.098C169.938 54.8087 170.222 54.5143 170.482 54.2038C170.541 54.1348 170.612 54.0792 170.665 54.0101C170.859 53.7687 171.04 53.522 171.212 53.2699L171.22 53.254L171.225 53.2513C171.509 52.8295 171.761 52.3891 171.979 51.9353C172.247 51.365 172.43 50.7971 172.57 50.2267C172.589 50.1578 172.629 50.0888 172.642 50.0198C172.661 49.9375 172.658 49.8579 172.674 49.7757C172.746 49.3937 172.791 49.0169 172.809 48.6402C172.814 48.5499 172.841 48.4544 172.841 48.3642Z" fill="url(#paint7_linear_1_164)"/>
<path d="M156.121 30.795C158.325 30.3652 160.652 30.3599 162.894 30.8693C169.702 32.3975 173.111 38.07 170.525 43.5302C168.776 47.1915 164.773 49.8261 160.278 50.7016C158.068 51.1314 155.739 51.134 153.499 50.622C146.691 49.0939 143.282 43.4214 145.869 37.9611C147.623 34.3078 151.621 31.6679 156.121 30.795Z" fill="#DCEEFF"/>
<path d="M156.784 91.7355V91.7328C156.792 91.2924 156.76 90.8599 156.691 90.4328L156.678 90.3479L155.224 81.9426C155.304 82.399 155.341 82.8633 155.333 83.3302C155.325 83.8237 155.261 84.3224 155.155 84.8213C155.089 85.1264 154.98 85.4315 154.877 85.7367C154.823 85.8959 154.792 86.0523 154.728 86.2115C154.54 86.6732 154.311 87.1349 154.033 87.5885L127.18 131.344C126.955 131.708 126.703 132.058 126.435 132.392C126.095 132.817 125.718 133.215 125.318 133.589C125.209 133.692 125.09 133.788 124.978 133.886C124.662 134.16 124.336 134.42 123.994 134.666C123.856 134.764 123.72 134.863 123.577 134.955C123.134 135.247 122.675 135.521 122.198 135.767C122.158 135.786 122.123 135.81 122.083 135.831C121.619 136.062 121.142 136.269 120.653 136.454C120.481 136.518 120.306 136.569 120.133 136.63C119.828 136.733 119.523 136.836 119.21 136.924C118.802 137.035 118.39 137.139 117.974 137.221C117.223 137.367 116.461 137.455 115.7 137.492C115.517 137.502 115.334 137.486 115.153 137.492C114.617 137.5 114.084 137.489 113.554 137.444C112.991 137.396 112.442 137.29 111.893 137.179C111.619 137.123 111.341 137.094 111.07 137.022C110.264 136.805 109.473 136.529 108.725 136.16L92.6573 128.272C89.7468 126.842 88.0435 124.563 87.6136 122.072L89.0676 130.477C89.4974 132.968 91.2007 135.247 94.1086 136.675L110.179 144.565C110.927 144.934 111.715 145.21 112.524 145.427C112.792 145.499 113.071 145.528 113.344 145.584C113.893 145.695 114.442 145.799 115.008 145.849C115.095 145.855 115.18 145.884 115.268 145.889C115.711 145.921 116.159 145.902 116.605 145.894C116.788 145.892 116.968 145.908 117.151 145.897C117.188 145.894 117.226 145.9 117.265 145.897C117.83 145.865 118.396 145.801 118.953 145.709C119.112 145.682 119.268 145.656 119.425 145.624C119.791 145.555 120.155 145.47 120.513 145.374C120.563 145.361 120.614 145.34 120.664 145.327C120.977 145.242 121.28 145.138 121.585 145.032C121.731 144.984 121.882 144.947 122.025 144.894L122.105 144.86C122.593 144.674 123.073 144.467 123.535 144.236L123.556 144.225C123.59 144.21 123.617 144.188 123.649 144.172C124.129 143.926 124.588 143.652 125.031 143.358C125.092 143.318 125.161 143.289 125.222 143.246C125.302 143.193 125.368 143.124 125.448 143.069C125.787 142.825 126.114 142.565 126.427 142.291C126.541 142.193 126.66 142.098 126.772 141.994C127.17 141.617 127.546 141.222 127.886 140.798L127.92 140.763C128.101 140.535 128.273 140.299 128.433 140.057C128.501 139.957 128.568 139.853 128.631 139.747L155.487 95.9938C155.765 95.5374 155.994 95.0784 156.182 94.614C156.246 94.4576 156.277 94.301 156.33 94.1418C156.426 93.858 156.537 93.5714 156.601 93.2849L156.606 93.2265C156.715 92.7277 156.776 92.2289 156.784 91.7355Z" fill="url(#paint8_linear_1_164)"/>
<path d="M140.889 74.6836C144.062 74.0681 147.413 74.3891 150.183 75.7396C155.105 78.1567 156.742 83.1684 154.033 87.5886L127.18 131.345C125.288 134.406 121.781 136.481 117.974 137.221C114.853 137.826 111.529 137.537 108.725 136.16L92.6572 128.272C86.4302 125.216 85.7271 118.251 91.2085 113.682L134.131 77.817C136.028 76.2277 138.403 75.1692 140.889 74.6836Z" fill="#DCEEFF"/>
<defs>
<linearGradient id="paint0_linear_1_164" x1="30.6623" y1="185.391" x2="302.963" y2="185.391" gradientUnits="userSpaceOnUse">
<stop stop-color="#F3F9FF"/>
<stop offset="1" stop-color="#B0D9FF"/>
</linearGradient>
<linearGradient id="paint1_linear_1_164" x1="36.5585" y1="223.408" x2="308.859" y2="223.408" gradientUnits="userSpaceOnUse">
<stop stop-color="#F3F9FF"/>
<stop offset="1" stop-color="#B0D9FF"/>
</linearGradient>
<linearGradient id="paint2_linear_1_164" x1="43.5585" y1="261.361" x2="315.859" y2="261.361" gradientUnits="userSpaceOnUse">
<stop stop-color="#F3F9FF"/>
<stop offset="1" stop-color="#B0D9FF"/>
</linearGradient>
<linearGradient id="paint3_linear_1_164" x1="109.459" y1="55.9909" x2="123.664" y2="55.9909" gradientUnits="userSpaceOnUse">
<stop stop-color="#C5D2F1"/>
<stop offset="1" stop-color="#9CA5FF"/>
</linearGradient>
<linearGradient id="paint4_linear_1_164" x1="69.577" y1="72.6268" x2="83.7836" y2="72.6268" gradientUnits="userSpaceOnUse">
<stop stop-color="#C5D2F1"/>
<stop offset="1" stop-color="#9CA5FF"/>
</linearGradient>
<linearGradient id="paint5_linear_1_164" x1="43.9646" y1="101.861" x2="58.178" y2="101.861" gradientUnits="userSpaceOnUse">
<stop stop-color="#C5D2F1"/>
<stop offset="1" stop-color="#9CA5FF"/>
</linearGradient>
<linearGradient id="paint6_linear_1_164" x1="188.292" y1="73.7973" x2="202.497" y2="73.7973" gradientUnits="userSpaceOnUse">
<stop stop-color="#C5D2F1"/>
<stop offset="1" stop-color="#9CA5FF"/>
</linearGradient>
<linearGradient id="paint7_linear_1_164" x1="152.91" y1="56.4309" x2="167.123" y2="56.4309" gradientUnits="userSpaceOnUse">
<stop stop-color="#C5D2F1"/>
<stop offset="1" stop-color="#9CA5FF"/>
</linearGradient>
<linearGradient id="paint8_linear_1_164" x1="95.701" y1="136.542" x2="134.93" y2="136.542" gradientUnits="userSpaceOnUse">
<stop stop-color="#C5D2F1"/>
<stop offset="1" stop-color="#9CA5FF"/>
</linearGradient>
</defs>
</svg>
