<svg width="56" height="56" viewBox="0 0 56 56" fill="none" xmlns="http://www.w3.org/2000/svg">
<mask id="mask0_28_460" style="mask-type:alpha" maskUnits="userSpaceOnUse" x="0" y="0" width="56" height="56">
<rect width="56" height="56" fill="#D9D9D9"/>
</mask>
<g mask="url(#mask0_28_460)">
<path opacity="0.2" d="M29.8122 3.44433C28.44 2.83366 26.8737 2.83366 25.5015 3.44433L10.2441 10.2344C8.32763 11.0873 7.09253 12.9904 7.09253 15.0904V25.3648C7.09253 37.61 15.2518 49.0893 26.4068 52.4779C27.2215 52.7254 28.0922 52.7254 28.9069 52.4779C40.062 49.0893 48.2212 37.61 48.2212 25.3648V15.0904C48.2212 12.9904 46.9861 11.0873 45.0696 10.2344L29.8122 3.44433Z" fill="url(#paint0_linear_28_460)"/>
<path d="M29.7824 8.62987C28.4261 8.02507 26.8767 8.02507 25.5204 8.62987L14.1397 13.7047C12.2533 14.5459 11.0382 16.4182 11.0382 18.4837V26.2C11.0382 36.0297 17.5206 45.2496 26.4172 48.0774C27.2198 48.3325 28.0831 48.3325 28.8857 48.0774C37.7823 45.2496 44.2647 36.0297 44.2647 26.2V18.4837C44.2647 16.4182 43.0496 14.5459 41.1632 13.7047L29.7824 8.62987Z" fill="url(#paint1_linear_28_460)"/>
<path d="M29.7894 12.1449C28.4292 11.536 26.8739 11.536 25.5137 12.1449L17.0476 15.9347C15.1648 16.7775 13.9529 18.6478 13.9529 20.7105V26.5182C13.9529 34.5738 19.1923 42.1347 26.4157 44.5559C27.2172 44.8245 28.0859 44.8245 28.8874 44.5559C36.1108 42.1347 41.3502 34.5738 41.3502 26.5182V20.7105C41.3502 18.6478 40.1383 16.7775 38.2556 15.9347L29.7894 12.1449Z" fill="url(#paint2_linear_28_460)"/>
<path d="M35.9046 20.6738L26.5609 29.5199L22.5067 27.0873H20.9997L26.5609 35.7675L37.4116 20.6738H35.9046Z" fill="white"/>
</g>
<defs>
<linearGradient id="paint0_linear_28_460" x1="27.6569" y1="2.98633" x2="27.6569" y2="52.6635" gradientUnits="userSpaceOnUse">
<stop stop-color="#32B5FF"/>
<stop offset="1" stop-color="#3461FF"/>
</linearGradient>
<linearGradient id="paint1_linear_28_460" x1="27.6514" y1="8.17627" x2="27.6514" y2="48.2687" gradientUnits="userSpaceOnUse">
<stop stop-color="#32B5FF"/>
<stop offset="1" stop-color="#3461FF"/>
</linearGradient>
<linearGradient id="paint2_linear_28_460" x1="27.6516" y1="11.6882" x2="27.6516" y2="44.7573" gradientUnits="userSpaceOnUse">
<stop stop-color="#32B5FF"/>
<stop offset="1" stop-color="#3461FF"/>
</linearGradient>
</defs>
</svg>
