<?xml version="1.0" encoding="utf-8"?><svg xmlns="http://www.w3.org/2000/svg" xmlns:xlink="http://www.w3.org/1999/xlink"><symbol fill="none" viewBox="0 0 32 32" id="arrow-left" xmlns="http://www.w3.org/2000/svg"><path d="m3.76 16 10.287 10.287a.96.96 0 0 1 .29.706.975.975 0 0 1-.298.704.962.962 0 0 1-.706.295.965.965 0 0 1-.705-.293L2.44 17.515a2.034 2.034 0 0 1-.472-.72c-.1-.266-.15-.531-.15-.796s.05-.53.15-.795c.1-.265.257-.505.472-.72l10.187-10.19a.953.953 0 0 1 .709-.291.984.984 0 0 1 .71.298.951.951 0 0 1 .293.706.967.967 0 0 1-.294.705L3.76 16Z" fill="#002863"/></symbol><symbol fill="none" viewBox="0 0 10 8" id="check" xmlns="http://www.w3.org/2000/svg"><path d="M9.03.97a.75.75 0 0 1 0 1.06l-5 5a.75.75 0 0 1-1.06 0l-2-2a.75.75 0 1 1 1.06-1.06L3.5 5.44 7.97.97a.75.75 0 0 1 1.06 0Z" fill="#fff"/></symbol><symbol fill="none" viewBox="0 0 20 20" id="checkbox-check" xmlns="http://www.w3.org/2000/svg"><rect width="20" height="20" rx="5" fill="#3562FF"/><path d="m4 10 4 4 8-8" stroke="#fff" stroke-width="2" stroke-linecap="round" stroke-linejoin="round"/></symbol><symbol fill="none" viewBox="0 0 32 32" id="close" xmlns="http://www.w3.org/2000/svg"><path d="m9.333 9.333 13.334 13.334m-13.334 0L22.667 9.333" stroke="#002863" stroke-linecap="round" stroke-linejoin="round"/></symbol><symbol fill="none" viewBox="0 0 14 14" id="cross" xmlns="http://www.w3.org/2000/svg"><g clip-path="url(#ea)"><path fill-rule="evenodd" clip-rule="evenodd" d="m7 7.825 3.3 3.3a.583.583 0 0 0 .825-.825L7.825 7l3.3-3.3a.584.584 0 0 0-.007-.818.584.584 0 0 0-.818-.007L7 6.175l-3.3-3.3a.583.583 0 0 0-.824.825l3.3 3.3-3.3 3.3a.584.584 0 0 0-.135.64.584.584 0 0 0 .77.316.584.584 0 0 0 .19-.131L7 7.825Z" fill="#fff"/></g><defs><clipPath id="ea"><path fill="#fff" d="M0 0h14v14H0z"/></clipPath></defs></symbol><symbol fill="none" viewBox="0 0 32 32" id="menu" xmlns="http://www.w3.org/2000/svg"><g clip-path="url(#fa)" fill="#002863"><path d="M28.444 25.778H3.555a.889.889 0 0 1 0-1.778h24.89a.889.889 0 1 1 0 1.778Zm0-8.89H3.555a.889.889 0 0 1 0-1.777h24.89a.889.889 0 0 1 0 1.778Zm0-8.888H3.555a.889.889 0 1 1 0-1.778h24.89a.889.889 0 1 1 0 1.778Z"/></g><defs><clipPath id="fa"><path fill="#fff" d="M0 0h32v32H0z"/></clipPath></defs></symbol></svg>