<svg width="233" height="151" viewBox="0 0 233 151" fill="none" xmlns="http://www.w3.org/2000/svg">
<g id="6310506 1">
<g id="Background_Complete">
<path id="Vector" opacity="0.5" d="M33.2902 95.0333L18.8043 99.1527L17.8385 95.7612C16.8395 92.245 18.8859 88.5694 22.4021 87.5703C25.9183 86.5712 29.5939 88.6177 30.593 92.1339L31.1545 94.1048L33.2456 93.5108L32.6841 91.5399C31.3555 86.8697 26.4783 84.1506 21.8081 85.4792C17.1379 86.8078 14.4197 91.6895 15.7474 96.3552L16.7166 99.7648C15.0651 100.429 14.1498 102.243 14.6453 103.993L18.0099 115.819C18.5424 117.688 20.4884 118.775 22.3618 118.242L38.5783 113.626C40.4471 113.093 41.5338 111.147 41.0004 109.274L37.6358 97.4473C37.1095 95.5866 35.1635 94.4999 33.2902 95.0333ZM28.8142 105.506L29.9714 109.577C30.1612 110.248 29.7746 110.94 29.1049 111.135C28.4344 111.324 27.742 110.938 27.5478 110.268L26.3905 106.197C25.7844 105.967 25.2913 105.472 25.097 104.802C24.778 103.679 25.4279 102.505 26.5557 102.185C27.679 101.866 28.8527 102.516 29.1725 103.644C29.3705 104.308 29.2067 104.991 28.8142 105.506Z" fill="#B4CDFC"/>
<path id="Vector_2" opacity="0.5" d="M218.987 117.455L209.31 113.555L210.223 111.289C211.17 108.941 213.851 107.799 216.199 108.746C218.548 109.693 219.69 112.374 218.743 114.722L218.213 116.039L219.61 116.603L220.14 115.286C221.396 112.166 219.883 108.606 216.763 107.349C213.643 106.092 210.081 107.609 208.826 110.726L207.908 113.003C206.722 112.665 205.45 113.269 204.978 114.437L201.796 122.338C201.293 123.587 201.897 125.008 203.148 125.512L213.983 129.875C215.232 130.377 216.653 129.774 217.157 128.522L220.34 120.622C220.842 119.38 220.239 117.959 218.987 117.455ZM212.089 121.284L210.993 124.004C210.812 124.451 210.306 124.666 209.857 124.488C209.41 124.307 209.195 123.801 209.373 123.352L210.469 120.633C210.235 120.249 210.176 119.769 210.354 119.32C210.657 118.57 211.511 118.204 212.264 118.508C213.014 118.81 213.38 119.664 213.076 120.417C212.902 120.865 212.523 121.169 212.089 121.284Z" fill="#B4CDFC"/>
</g>
<path id="Vector_3" d="M174.993 123.616C174.993 122.996 174.967 122.402 174.914 121.782L179.817 117.977C180.872 117.168 181.162 115.657 180.503 114.47L175.573 105.755C175.257 105.183 174.746 104.751 174.138 104.542C173.529 104.333 172.867 104.361 172.278 104.622L166.61 107.077C165.635 106.375 164.607 105.755 163.526 105.242L162.762 99.0095C162.603 97.6604 161.47 96.6352 160.152 96.6352H150.319C148.975 96.6352 147.841 97.6604 147.683 99.0095L146.918 105.242C145.838 105.755 144.809 106.375 143.834 107.077L138.166 104.622C136.954 104.082 135.53 104.568 134.871 105.755L129.942 114.497C129.283 115.684 129.573 117.168 130.627 118.004L135.53 121.809C135.421 123.02 135.421 124.239 135.53 125.451L130.627 129.255C129.573 130.065 129.283 131.576 129.942 132.763L134.871 141.478C135.53 142.665 136.954 143.151 138.166 142.611L143.834 140.156C144.809 140.857 145.838 141.478 146.918 141.99L147.683 148.223C147.841 149.572 148.975 150.597 150.293 150.597H160.125C161.443 150.597 162.577 149.572 162.735 148.223L163.5 141.99C164.581 141.478 165.609 140.857 166.584 140.156L172.252 142.611C173.464 143.151 174.888 142.665 175.547 141.478L180.476 132.763C181.135 131.576 180.846 130.092 179.791 129.255L174.888 125.451C174.967 124.83 174.993 124.237 174.993 123.616ZM155.328 133.06C150.24 133.06 146.101 128.824 146.101 123.616C146.101 118.409 150.24 114.173 155.328 114.173C160.415 114.173 164.554 118.409 164.554 123.616C164.554 128.824 160.415 133.06 155.328 133.06Z" fill="#CAD9F8"/>
<g id="Device">
<g id="Group">
<path id="Vector_4" d="M162.562 11.0992H147.592L137.002 132.14H151.973C156.231 132.14 159.997 128.678 160.369 124.42L169.607 18.8238C169.979 14.5615 166.82 11.0992 162.562 11.0992Z" fill="#407BFF"/>
<path id="Vector_5" d="M159.509 11.0991H108.839C104.582 11.0991 100.816 14.5614 100.444 18.8191L91.2063 124.416C90.8339 128.673 93.9927 132.136 98.2504 132.136H148.92C153.178 132.136 156.943 128.673 157.316 124.416L166.553 18.8191C166.925 14.5614 163.767 11.0991 159.509 11.0991Z" fill="#407BFF"/>
<path id="Vector_6" opacity="0.3" d="M159.509 11.0991H108.839C104.582 11.0991 100.816 14.5614 100.444 18.8191L91.2063 124.416C90.8339 128.673 93.9927 132.136 98.2504 132.136H148.92C153.178 132.136 156.943 128.673 157.316 124.416L166.553 18.8191C166.925 14.5614 163.767 11.0991 159.509 11.0991Z" fill="#B4CDFC"/>
<path id="Vector_7" d="M159.293 13.5732H145.936C145.15 13.5732 144.409 14.0881 144.115 14.8468C143.035 17.6378 140.299 19.5505 137.388 19.5505H129.489C126.574 19.5505 124.174 17.6378 123.585 14.8468C123.424 14.0927 122.776 13.5732 121.99 13.5732H108.633C105.736 13.5732 103.18 15.9227 102.927 18.8194L93.6894 124.416C93.4365 127.313 95.5792 129.662 98.4759 129.662H149.145C152.042 129.662 154.599 127.313 154.851 124.416L164.089 18.8194C164.332 15.9227 162.19 13.5732 159.293 13.5732Z" fill="#B6CFFF"/>
<path id="Vector_8" opacity="0.1" d="M135.894 15.5496C135.793 16.7175 134.763 17.6601 133.599 17.6601C132.431 17.6601 131.572 16.7129 131.673 15.5496C131.774 14.3818 132.804 13.4392 133.967 13.4392C135.135 13.4392 135.995 14.3818 135.894 15.5496Z" fill="black"/>
<path id="Vector_9" opacity="0.1" d="M134.937 15.5498C134.882 16.1889 134.321 16.7039 133.682 16.7039C133.043 16.7039 132.574 16.1889 132.629 15.5498C132.684 14.9107 133.245 14.3957 133.884 14.3957C134.519 14.3957 134.992 14.9107 134.937 15.5498Z" fill="black"/>
<g id="Group_2">
<g id="Group_3" opacity="0.8">
<path id="Vector_10" d="M153.054 19.072C152.714 19.072 152.461 18.7961 152.489 18.4513L152.59 17.3202C152.622 16.9799 152.921 16.6995 153.261 16.6995C153.601 16.6995 153.854 16.9753 153.827 17.3202L153.726 18.4513C153.698 18.7915 153.395 19.072 153.054 19.072Z" fill="#B4CDFC"/>
<path id="Vector_11" d="M158.001 19.0717C157.661 19.0717 157.408 18.7958 157.436 18.4509L157.666 15.7979C157.698 15.4577 157.997 15.1772 158.337 15.1772C158.677 15.1772 158.93 15.4531 158.903 15.7979L158.673 18.4509C158.645 18.7912 158.342 19.0717 158.001 19.0717Z" fill="#B4CDFC"/>
<path id="Vector_12" d="M155.528 19.072C155.188 19.072 154.935 18.7961 154.962 18.4513L155.128 16.5615C155.16 16.2212 155.459 15.9408 155.799 15.9408C156.139 15.9408 156.392 16.2166 156.365 16.5615L156.199 18.4513C156.172 18.7915 155.868 19.072 155.528 19.072Z" fill="#B4CDFC"/>
</g>
<g id="Group_4" opacity="0.8">
<path id="Vector_13" d="M110.693 19.0719H107.584C107.391 19.0719 107.249 18.9156 107.267 18.7225L107.414 17.0534C107.433 16.8603 107.603 16.7039 107.796 16.7039H110.904C111.097 16.7039 111.24 16.8603 111.221 17.0534L111.074 18.7225C111.056 18.9156 110.886 19.0719 110.693 19.0719Z" fill="#B4CDFC"/>
<path id="Vector_14" d="M112.132 18.617C111.939 18.617 111.796 18.4606 111.815 18.2675L111.884 17.5043C111.902 17.3111 112.072 17.1548 112.265 17.1548C112.458 17.1548 112.601 17.3111 112.582 17.5043L112.514 18.2675C112.495 18.4606 112.325 18.617 112.132 18.617Z" fill="#B4CDFC"/>
</g>
</g>
</g>
<g id="logo_main">
<mask id="mask0_37_505" style="mask-type:alpha" maskUnits="userSpaceOnUse" x="69" y="19" width="98" height="98">
<rect id="Rectangle 3887" x="73.5176" y="19.9102" width="93.0615" height="93.0615" transform="rotate(2.4446 73.5176 19.9102)" fill="#D9D9D9"/>
</mask>
<g mask="url(#mask0_37_505)">
<g id="Group 33834">
<g id="Group 812">
<path id="Vector_15" opacity="0.2" d="M122.771 27.742C120.536 26.6309 117.935 26.5198 115.614 27.4365L89.8004 37.6286C86.558 38.9088 84.3725 41.9809 84.2236 45.4676L83.4954 62.5262C82.6274 82.8569 95.3605 102.494 113.641 108.911C114.976 109.38 116.422 109.441 117.792 109.088C136.553 104.253 150.913 85.7722 151.781 65.4414L152.51 48.3829C152.658 44.8962 150.743 41.649 147.621 40.0971L122.771 27.742Z" fill="url(#paint0_linear_37_505)"/>
<g id="icon">
<g id="Vector_16" filter="url(#filter0_d_37_505)">
<path d="M122.354 36.3495C120.145 35.2493 117.573 35.1394 115.278 36.0474L96.0229 43.6666C92.8312 44.9295 90.6811 47.9518 90.5347 51.3812L89.9878 64.1926C89.291 80.5128 99.4002 96.2801 113.971 101.606C115.285 102.086 116.719 102.147 118.069 101.781C133.041 97.7163 144.457 82.868 145.154 66.5478L145.701 53.7363C145.847 50.307 143.962 47.1124 140.89 45.5821L122.354 36.3495Z" fill="url(#paint1_linear_37_505)"/>
</g>
<path id="Vector_17" d="M122.117 42.1865C119.902 41.0792 117.319 40.9689 115.018 41.8835L100.693 47.5756C97.5071 48.8414 95.3624 51.8607 95.2162 55.2855L94.8046 64.9279C94.2336 78.3027 102.397 91.2275 114.218 95.7593C115.53 96.2622 116.972 96.3237 118.322 95.9345C130.486 92.4267 139.721 80.2447 140.292 66.8699L140.704 57.2275C140.85 53.8027 138.971 50.6116 135.904 49.0788L122.117 42.1865Z" fill="url(#paint2_linear_37_505)"/>
</g>
</g>
<path id="Vector_18" d="M131.665 56.7802L115.524 70.8051L108.966 66.4787L106.463 66.3719L115.081 81.1779L134.167 56.887L131.665 56.7802Z" fill="white"/>
</g>
</g>
</g>
</g>
<g id="Character">
<g id="Group_5">
<g id="Group_6">
<path id="Vector_19" d="M77.7475 47.9202C78.9246 49.203 80.0511 50.5272 81.1638 51.8698C82.2765 53.2078 83.3617 54.5688 84.433 55.9436C84.479 56.0034 84.4606 55.9804 84.4744 55.9988C84.479 56.008 84.479 56.0218 84.4882 56.0264C84.502 56.0402 84.5066 56.0632 84.5203 56.0724C84.5433 56.1046 84.5709 56.1321 84.6031 56.1643C84.6675 56.2241 84.7594 56.2655 84.856 56.2839C84.9066 56.2931 84.9571 56.2977 85.0123 56.2931C85.0399 56.2977 85.0675 56.2885 85.0951 56.2885C85.1089 56.2885 85.1227 56.2793 85.1365 56.2793C85.1595 56.2701 85.1457 56.2885 85.21 56.2517L86.3595 55.6264C87.9044 54.8079 89.4632 54.0079 91.0724 53.2906L92.4196 54.9597C91.123 56.1551 89.7712 57.6449 88.4056 58.7392L87.3757 59.5484C87.3481 59.5714 87.2377 59.645 87.1688 59.691C87.0906 59.7415 87.0124 59.7967 86.9297 59.8427C86.7641 59.9347 86.594 60.0266 86.4147 60.0956C86.0607 60.2473 85.6836 60.3439 85.302 60.4037C84.5341 60.5186 83.7387 60.4404 82.9938 60.1738C82.6214 60.0404 82.2627 59.8611 81.9363 59.6358C81.7708 59.5254 81.6144 59.4013 81.4627 59.2725C81.3845 59.2082 81.3156 59.1392 81.2466 59.0702L81.0627 58.8863C79.8442 57.6403 78.6441 56.3804 77.4671 55.093C76.29 53.8102 75.1267 52.5136 74.014 51.1756L77.7475 47.9202Z" fill="#B55B52"/>
<path id="Vector_20" d="M90.4469 54.3061L91.5182 50.8623L94.3414 52.2692C94.3414 52.2692 93.9322 54.7797 91.8769 55.2165L90.4469 54.3061Z" fill="#B55B52"/>
<path id="Vector_21" d="M92.6501 49.9106L95.1973 50.6095L94.3421 52.2694L91.519 50.8624L92.6501 49.9106Z" fill="#B55B52"/>
</g>
<g id="Group_7">
<path id="Vector_22" d="M62.905 48.8578C62.597 50.3199 62.2245 51.7683 61.8291 53.2075C61.4383 54.6512 61.0107 56.0858 60.5647 57.5112L60.3991 58.0491L60.3164 58.3158C60.298 58.3756 60.2888 58.3894 60.2704 58.4261C60.2198 58.5595 60.1876 58.7066 60.183 58.863C60.1738 59.171 60.2474 59.5113 60.4497 59.8055C60.4681 59.8515 60.6244 60.0216 60.7486 60.155L61.1302 60.5688L61.8843 61.4102C62.3809 61.9804 62.8728 62.5505 63.3418 63.1483L61.7418 65.0012C61.0796 64.6242 60.4451 64.2196 59.8106 63.8104L58.868 63.1896L58.4036 62.8724C58.2473 62.762 58.1186 62.6885 57.8657 62.4769C56.9921 61.7367 56.3391 60.6837 56.1001 59.5113C55.9759 58.9273 55.9483 58.3204 56.0173 57.7181C56.0357 57.5755 56.0633 57.4054 56.0863 57.2813L56.1368 57.0054L56.2334 56.4536C56.4909 54.9777 56.7668 53.5063 57.0748 52.0488C57.3829 50.5866 57.7093 49.1291 58.1048 47.6853L62.905 48.8578Z" fill="#B55B52"/>
<path id="Vector_23" d="M61.7736 63.0285L63.6726 62.0583L64.5094 65.2815C64.5094 65.2815 62.9875 65.8654 61.8104 65.116L61.7736 63.0285Z" fill="#B55B52"/>
<path id="Vector_24" d="M66.2895 61.0243L66.3769 63.9854L64.2572 65.3694L63.5215 62.1186L66.2895 61.0243Z" fill="#B55B52"/>
</g>
<path id="Vector_25" d="M72.4918 33.6567C72.5378 33.8866 72.6941 34.0429 72.8458 34.0153C72.993 33.9831 73.0757 33.7762 73.0297 33.5463C72.9838 33.3164 72.8228 33.1601 72.6757 33.1877C72.5286 33.2199 72.4458 33.4268 72.4918 33.6567Z" fill="#263238"/>
<path id="Vector_26" d="M72.6764 34.048C72.6764 34.048 73.4626 35.2573 74.1615 35.7768C73.8351 36.2366 73.1132 36.2045 73.1132 36.2045L72.6764 34.048Z" fill="#A02724"/>
<path id="Vector_27" d="M71.4026 32.5628C71.3704 32.5628 71.3382 32.549 71.3106 32.526C71.2554 32.4754 71.2508 32.388 71.3014 32.3329C71.8164 31.7765 72.4371 31.8777 72.4647 31.8823C72.5383 31.8961 72.5888 31.965 72.575 32.0386C72.5612 32.1122 72.4923 32.1628 72.4187 32.149C72.4003 32.1444 71.9129 32.0754 71.5037 32.5168C71.4761 32.5444 71.4393 32.5628 71.4026 32.5628Z" fill="#263238"/>
<path id="Vector_28" d="M65.8618 36.8616C66.3676 38.9721 66.8734 42.8344 65.0664 44.2414C65.0664 44.2414 65.7745 46.3794 70.5839 46.3794C75.8716 46.3794 73.1128 45 73.1128 45C70.2253 44.4391 70.3035 41.9332 70.8046 40.2917L65.8618 36.8616Z" fill="#B55B52"/>
<path id="Vector_29" d="M64.5009 44.6325C64.1836 44.0486 63.8388 43.3773 64.556 43.1658C65.3469 42.9359 70.4184 42.5083 71.9082 42.9405C71.4484 43.7543 72.2254 44.7567 72.2254 44.7567L64.5009 44.6325Z" fill="#263238"/>
<path id="Vector_30" d="M68.7035 143.295H72.0187L72.3497 136.619H69.03L68.7035 143.295Z" fill="#B55B52"/>
<path id="Vector_31" d="M47.6496 142.376L51.0107 142.555L53.0522 135.976L49.6911 135.796L47.6496 142.376Z" fill="#B55B52"/>
<path id="Vector_32" d="M50.9093 142.288L47.7459 141.603C47.6309 141.58 47.5114 141.635 47.4654 141.746L46.3665 144.127C46.2515 144.376 46.4033 144.665 46.6699 144.716C47.778 144.937 48.3298 144.987 49.723 145.291C50.5782 145.475 52.5139 145.948 53.6956 146.201C54.8543 146.449 55.2865 145.323 54.8267 145.111C52.7576 144.164 51.8932 143.336 51.3369 142.559C51.2265 142.421 51.0748 142.325 50.9093 142.288Z" fill="#263238"/>
<path id="Vector_33" d="M71.8442 142.96H68.6946C68.5751 142.96 68.4739 143.043 68.4509 143.158L67.8808 145.719C67.821 145.985 68.0233 146.238 68.2946 146.234C69.4303 146.215 71.0718 146.146 72.4971 146.146C74.1662 146.146 75.61 146.238 77.5641 146.238C78.7458 146.238 79.0768 145.043 78.5802 144.932C76.3226 144.44 74.4835 144.385 72.5339 143.185C72.327 143.056 72.0925 142.96 71.8442 142.96Z" fill="#263238"/>
<path id="Vector_34" d="M59.0569 45.2163C56.551 46.4072 55.8751 53.6214 55.8751 53.6214L62.0686 56.4813C62.0686 56.4813 63.6043 54.2145 63.7238 50.6557C63.848 46.9314 61.618 44.0025 59.0569 45.2163Z" fill="#263238"/>
<path id="Vector_35" opacity="0.4" d="M62.4182 49.6667C61.3009 51.4001 61.4067 54.0899 61.7929 56.3567L62.0688 56.4854C62.0688 56.4854 63.6091 54.2186 63.7241 50.6598C63.7287 50.4391 63.7287 50.2184 63.7241 50.0023L62.4182 49.6667Z" fill="black"/>
<g id="Group_8">
<path id="Vector_36" d="M76.3408 45.0415C76.3408 45.0415 79.4076 48.5084 76.5109 69.9579C71.867 69.9579 63.3515 69.9579 61.0893 69.9579C60.9836 67.5899 62.4687 56.0445 60.1881 44.8898C60.1881 44.8898 62.832 44.361 65.3517 44.2369C67.3242 44.1403 70.1749 44.0806 71.9083 44.2369C74.1889 44.453 76.3408 45.0415 76.3408 45.0415Z" fill="#407BFF"/>
<path id="Vector_37" opacity="0.6" d="M76.3408 45.0415C76.3408 45.0415 79.4076 48.5084 76.5109 69.9579C71.867 69.9579 63.3515 69.9579 61.0893 69.9579C60.9836 67.5899 62.4687 56.0445 60.1881 44.8898C60.1881 44.8898 62.832 44.361 65.3517 44.2369C67.3242 44.1403 70.1749 44.0806 71.9083 44.2369C74.1889 44.453 76.3408 45.0415 76.3408 45.0415Z" fill="#FAFAFA"/>
</g>
<path id="Vector_38" opacity="0.2" d="M77.6879 51.5982L77.6281 51.5477L74.5613 49.9108C74.2486 54.6329 76.3591 57.594 77.6143 58.886C77.7936 55.8605 77.789 53.4742 77.6879 51.5982Z" fill="black"/>
<path id="Vector_39" opacity="0.2" d="M72.3498 136.619L72.1797 140.063H68.8599L69.0301 136.619H72.3498Z" fill="black"/>
<path id="Vector_40" opacity="0.2" d="M49.6908 135.801L53.0519 135.975L51.999 139.369L48.6379 139.189L49.6908 135.801Z" fill="black"/>
<path id="Vector_41" d="M64.7954 34.7188C65.5357 37.4822 65.8299 39.1375 67.5358 40.2869C70.1014 42.0158 73.297 40.0295 73.3936 37.1006C73.4855 34.4659 72.2579 30.3875 69.2922 29.8312C66.3679 29.284 64.0551 31.9554 64.7954 34.7188Z" fill="#B55B52"/>
<path id="Vector_42" d="M71.0441 69.9628C71.0441 69.9628 67.7704 91.9962 65.9772 100.25C64.0092 109.289 53.4615 139.194 53.4615 139.194L48.3026 138.077C48.3026 138.077 54.9145 113.708 56.5651 101.068C57.2089 96.139 57.9859 88.1891 58.9699 81.5588C59.9217 75.1401 61.0941 69.9628 61.0941 69.9628H71.0441Z" fill="#263238"/>
<path id="Vector_43" d="M54.698 137.469C54.721 137.474 53.7371 139.336 53.7371 139.336L47.9298 138.081L48.4172 136.334L54.698 137.469Z" fill="#407BFF"/>
<path id="Vector_44" opacity="0.6" d="M54.698 137.469C54.721 137.474 53.7371 139.336 53.7371 139.336L47.9298 138.081L48.4172 136.334L54.698 137.469Z" fill="#B4CDFC"/>
<path id="Vector_45" opacity="0.6" d="M68.9749 77.8109C65.1908 78.5512 65.5908 92.6623 66.046 99.9179C67.1357 94.7866 68.7358 84.9194 69.8255 77.9121C69.5772 77.7879 69.2922 77.7466 68.9749 77.8109Z" fill="black"/>
<path id="Vector_46" d="M76.5108 69.9628C76.5108 69.9628 78.0512 91.518 77.7339 100.309C77.4074 109.455 73.0716 139.397 73.0716 139.397H68.1885C68.1885 139.397 68.0092 109.988 67.7931 101.008C67.554 91.2192 66.3723 69.9628 66.3723 69.9628H76.5108Z" fill="#263238"/>
<path id="Vector_47" d="M74.0142 137.452C74.0372 137.452 73.7384 139.479 73.7384 139.479H67.7978L67.6369 137.668L74.0142 137.452Z" fill="#407BFF"/>
<path id="Vector_48" opacity="0.6" d="M74.0142 137.452C74.0372 137.452 73.7384 139.479 73.7384 139.479H67.7978L67.6369 137.668L74.0142 137.452Z" fill="#B4CDFC"/>
<path id="Vector_49" d="M74.5427 49.0832C74.5427 54.8675 77.6234 57.2492 77.6234 57.2492L82.6259 52.357C82.6259 52.357 80.9247 49.4281 78.5843 46.7337C75.6922 43.4094 74.5427 45.3589 74.5427 49.0832Z" fill="#263238"/>
<path id="Vector_50" opacity="0.2" d="M73.2188 38.149C73.0901 38.5031 72.759 39.1054 71.9222 39.3445C70.6992 39.694 70.6854 40.7285 70.6854 40.7285L70.6992 40.7469C71.8624 40.3607 72.8326 39.3997 73.2188 38.149Z" fill="black"/>
<path id="Vector_51" d="M71.9223 29.2243C72.9523 27.923 71.366 27.8633 71.366 27.8633C71.7798 26.3138 69.9222 27.146 69.9222 27.146C68.8095 25.6103 68.1796 27.477 68.1796 27.477C67.0255 26.1758 66.814 28.3001 66.814 28.3001C65.6553 26.6494 65.0668 29.0312 65.0668 29.0312C64 27.3161 63.3471 29.5507 63.3471 29.5507C61.1447 28.7645 62.193 31.0497 62.193 31.0497C60.3125 31.1002 61.8206 32.5578 61.8206 32.5578C59.5676 32.5624 61.5539 33.8544 61.5539 33.8544C59.7653 35.0269 62.0091 35.3442 62.0091 35.3442C60.5516 37.6247 63.0574 36.7787 63.0574 36.7787C62.0413 39.0363 64.2943 38.0432 64.2943 38.0432C64.1472 40.2226 65.407 39.6294 66.0139 39.2248C66.1289 39.6616 66.3496 40.1306 66.7542 40.1812C67.5405 40.2824 67.6922 38.8018 67.6922 38.8018C67.6922 38.8018 68.4233 39.3674 69.0302 39.0593C69.6417 38.7512 69.4118 37.9742 69.4118 37.9742C69.4118 37.9742 69.8808 38.3236 70.3084 37.988C70.5705 37.7857 70.5705 36.3189 70.2395 35.8039L71.4349 35.335C71.4349 35.335 72.3223 35.2108 71.9269 34.0383C71.5315 32.8659 71.8671 31.9417 71.8671 31.9417C73.2189 31.3071 72.1108 30.5485 72.1108 30.5485C73.6649 29.5461 71.9223 29.2243 71.9223 29.2243Z" fill="#263238"/>
<path id="Vector_52" d="M69.4987 34.8337C69.6873 35.5602 70.1654 36.1809 70.662 36.5534C71.4115 37.1097 71.9724 36.5626 71.9173 35.712C71.8713 34.9487 71.4207 33.7348 70.5931 33.5095C69.7792 33.2888 69.2826 34.0061 69.4987 34.8337Z" fill="#B55B52"/>
</g>
</g>
<g id="ic_password_manager" opacity="0.5">
<g id="fluent-emoji:key">
<g id="Group_9">
<g id="Group_10">
<path id="Vector_53" fill-rule="evenodd" clip-rule="evenodd" d="M200.171 32.9094C201.686 33.879 203.489 34.2955 205.275 34.0882C207.061 33.8809 208.721 33.0626 209.973 31.7718C211.225 30.4811 211.993 28.7973 212.145 27.0055C212.298 25.2138 211.827 23.4243 210.812 21.9401C209.795 20.4523 208.293 19.3629 206.564 18.8573C204.834 18.3517 202.982 18.4611 201.324 19.1669C199.665 19.8727 198.303 21.1313 197.468 22.7285C196.633 24.3257 196.377 26.1629 196.744 27.9274L192.801 30.6297C192.512 30.8271 192.312 31.1288 192.242 31.4711L192.039 32.4625C191.98 32.7528 191.816 33.0112 191.579 33.1883C191.342 33.3655 191.047 33.4491 190.752 33.423L190.226 33.3766C189.966 33.3536 189.705 33.4209 189.489 33.5674C189.272 33.7138 189.112 33.9304 189.036 34.1807L188.885 34.683C188.793 34.9859 188.59 35.2427 188.316 35.4019C188.043 35.561 187.719 35.6106 187.411 35.5407L186.645 35.3676C186.464 35.3268 186.277 35.3237 186.095 35.3585C185.913 35.3933 185.74 35.4653 185.587 35.57L183.461 37.0269C182.817 37.4875 182.38 38.1819 182.243 38.9611C182.106 39.7403 182.279 40.5422 182.727 41.1949C183.174 41.8476 183.859 42.299 184.635 42.4524C185.411 42.6057 186.217 42.4487 186.879 42.0151L200.172 32.9095L200.171 32.9094ZM208.698 25.5072C208.508 25.6426 208.294 25.7388 208.067 25.7903C207.84 25.8417 207.605 25.8474 207.376 25.8069C207.147 25.7665 206.928 25.6807 206.733 25.5546C206.537 25.4285 206.369 25.2647 206.238 25.0727C206.106 24.8807 206.014 24.6644 205.968 24.4365C205.921 24.2086 205.92 23.9737 205.965 23.7455C206.011 23.5172 206.101 23.3004 206.231 23.1075C206.361 22.9146 206.528 22.7496 206.723 22.6223C207.106 22.3718 207.571 22.2813 208.02 22.3702C208.469 22.4591 208.865 22.7203 209.123 23.0977C209.382 23.4752 209.482 23.9389 209.402 24.3893C209.323 24.8398 209.07 25.2411 208.698 25.5072Z" fill="#B6CFFF"/>
</g>
<path id="Vector_54" fill-rule="evenodd" clip-rule="evenodd" d="M200.172 32.9091C201.686 33.8788 203.489 34.2953 205.275 34.088C207.061 33.8807 208.721 33.0624 209.973 31.7716C211.225 30.4809 211.993 28.7971 212.146 27.0053C212.298 25.2136 211.827 23.4241 210.812 21.9399C209.795 20.4521 208.294 19.3627 206.564 18.8571C204.834 18.3515 202.982 18.4609 201.324 19.1667C199.666 19.8725 198.303 21.1311 197.468 22.7283C196.633 24.3255 196.377 26.1626 196.745 27.9271L192.801 30.6295C192.513 30.8269 192.312 31.1286 192.242 31.4708L192.039 32.4623C191.98 32.7526 191.816 33.011 191.579 33.1881C191.342 33.3653 191.047 33.4488 190.752 33.4228L190.226 33.3764C189.966 33.3534 189.705 33.4207 189.489 33.5672C189.272 33.7136 189.112 33.9302 189.037 34.1805L188.885 34.6828C188.793 34.9857 188.59 35.2425 188.317 35.4017C188.043 35.5608 187.719 35.6104 187.411 35.5405L186.645 35.3674C186.464 35.3266 186.277 35.3235 186.095 35.3583C185.913 35.3931 185.741 35.4651 185.588 35.5698L183.461 37.0267C182.818 37.4873 182.38 38.1817 182.243 38.9609C182.106 39.7401 182.28 40.542 182.727 41.1947C183.174 41.8474 183.859 42.2988 184.635 42.4522C185.412 42.6055 186.217 42.4485 186.879 42.0149L200.173 32.9093L200.172 32.9091ZM208.698 25.507C208.509 25.6424 208.294 25.7386 208.067 25.79C207.84 25.8415 207.606 25.8472 207.376 25.8067C207.147 25.7662 206.929 25.6805 206.733 25.5544C206.538 25.4283 206.369 25.2645 206.238 25.0725C206.106 24.8805 206.015 24.6642 205.968 24.4363C205.921 24.2084 205.92 23.9735 205.966 23.7452C206.011 23.517 206.101 23.3001 206.231 23.1073C206.361 22.9144 206.529 22.7494 206.723 22.622C207.106 22.3716 207.572 22.2811 208.02 22.37C208.469 22.4589 208.865 22.72 209.123 23.0975C209.382 23.475 209.482 23.9387 209.402 24.3891C209.323 24.8395 209.07 25.2409 208.698 25.507Z" fill="url(#paint3_radial_37_505)"/>
</g>
</g>
</g>
<g id="Group 33830" opacity="0.5">
<rect id="Rectangle 342" x="189.636" y="57.6698" width="41.8581" height="19.1771" rx="9.58853" transform="rotate(0.240425 189.636 57.6698)" stroke="#B4CDFC" stroke-width="3"/>
<g id="Group 33831">
<path id="Vector_55" d="M200.07 70.1752C199.87 70.0673 199.744 69.9062 199.69 69.6919C199.636 69.4776 199.664 69.2726 199.774 69.0768L200.296 68.1693L199.26 68.1649C199.023 68.1639 198.828 68.0875 198.675 67.9356C198.521 67.7836 198.444 67.5914 198.445 67.3588C198.446 67.1269 198.524 66.9356 198.68 66.785C198.835 66.6344 199.031 66.5592 199.266 66.5595L200.303 66.5638L199.788 65.7054C199.68 65.5087 199.654 65.3035 199.709 65.0897C199.765 64.8758 199.893 64.7158 200.093 64.6096C200.294 64.5034 200.503 64.4776 200.721 64.532C200.939 64.5864 201.102 64.712 201.21 64.9087L201.725 65.7671L202.247 64.913C202.357 64.7172 202.521 64.5931 202.74 64.5405C202.958 64.4879 203.167 64.5155 203.367 64.6234C203.566 64.7312 203.693 64.8923 203.747 65.1066C203.8 65.3209 203.772 65.5259 203.662 65.7217L203.14 66.5757L204.177 66.5801C204.414 66.5811 204.609 66.6579 204.762 66.8105C204.916 66.9631 204.992 67.1551 204.992 67.3862C204.991 67.6181 204.913 67.8098 204.757 67.9611C204.602 68.1124 204.406 68.1872 204.17 68.1855L203.134 68.1812L203.648 69.0931C203.757 69.2898 203.783 69.495 203.727 69.7089C203.672 69.9227 203.544 70.0827 203.344 70.1889C203.143 70.2951 202.934 70.321 202.716 70.2665C202.498 70.2121 202.335 70.0865 202.226 69.8899L201.712 68.9779L201.19 69.8855C201.08 70.0813 200.915 70.2055 200.697 70.2581C200.478 70.3107 200.269 70.283 200.07 70.1752ZM208.8 70.2118C208.6 70.1039 208.474 69.9428 208.42 69.7286C208.366 69.5143 208.394 69.3092 208.504 69.1135L209.026 68.2059L207.99 68.2016C207.753 68.2006 207.558 68.1241 207.405 67.9722C207.251 67.8203 207.174 67.628 207.175 67.3954C207.176 67.1635 207.254 66.9722 207.41 66.8216C207.565 66.671 207.761 66.5958 207.997 66.5961L209.033 66.6005L208.518 65.7421C208.41 65.5454 208.384 65.3401 208.439 65.1263C208.495 64.9125 208.623 64.7524 208.823 64.6463C209.024 64.5401 209.233 64.5142 209.451 64.5686C209.669 64.6231 209.832 64.7486 209.94 64.9453L210.455 65.8037L210.977 64.9496C211.087 64.7539 211.251 64.6297 211.47 64.5771C211.688 64.5245 211.897 64.5521 212.097 64.66C212.297 64.7679 212.423 64.9289 212.477 65.1432C212.53 65.3575 212.502 65.5625 212.392 65.7583L211.87 66.6124L212.907 66.6167C213.144 66.6177 213.339 66.6945 213.492 66.8472C213.646 66.9998 213.722 67.1917 213.722 67.4229C213.721 67.6548 213.643 67.8464 213.487 67.9977C213.332 68.149 213.136 68.2239 212.9 68.2222L211.864 68.2178L212.378 69.1297C212.487 69.3264 212.513 69.5317 212.457 69.7455C212.402 69.9593 212.274 70.1193 212.074 70.2255C211.873 70.3317 211.664 70.3576 211.446 70.3032C211.228 70.2487 211.065 70.1232 210.956 69.9265L210.442 69.0146L209.92 69.9222C209.81 70.1179 209.645 70.2421 209.427 70.2947C209.208 70.3473 208.999 70.3197 208.8 70.2118ZM217.53 70.2484C217.33 70.1406 217.204 69.9795 217.15 69.7652C217.096 69.5509 217.124 69.3459 217.234 69.1501L217.756 68.2425L216.72 68.2382C216.483 68.2372 216.288 68.1607 216.135 68.0088C215.981 67.8569 215.904 67.6646 215.905 67.432C215.906 67.2001 215.984 67.0089 216.14 66.8583C216.295 66.7076 216.491 66.6325 216.727 66.6327L217.763 66.6371L217.248 65.7787C217.14 65.582 217.114 65.3768 217.169 65.1629C217.225 64.9491 217.353 64.7891 217.553 64.6829C217.754 64.5767 217.963 64.5508 218.181 64.6053C218.399 64.6597 218.562 64.7852 218.67 64.9819L219.185 65.8403L219.707 64.9863C219.817 64.7905 219.981 64.6663 220.2 64.6137C220.418 64.5611 220.627 64.5888 220.827 64.6966C221.027 64.8045 221.153 64.9656 221.207 65.1799C221.26 65.3942 221.232 65.5992 221.122 65.7949L220.6 66.649L221.637 66.6534C221.874 66.6543 222.069 66.7312 222.222 66.8838C222.376 67.0364 222.452 67.2283 222.452 67.4595C222.451 67.6914 222.373 67.883 222.217 68.0344C222.062 68.1857 221.866 68.2605 221.63 68.2588L220.594 68.2544L221.108 69.1664C221.217 69.363 221.243 69.5683 221.188 69.7821C221.132 69.996 221.004 70.156 220.804 70.2622C220.603 70.3684 220.394 70.3942 220.176 70.3398C219.958 70.2854 219.795 70.1598 219.686 69.9631L219.172 69.0512L218.65 69.9588C218.54 70.1545 218.375 70.2787 218.157 70.3313C217.938 70.3839 217.729 70.3563 217.53 70.2484Z" fill="#B4CDFC"/>
</g>
</g>
<path id="Vector_56" opacity="0.6" d="M55.1729 11.6448C55.1729 11.3862 55.1618 11.1389 55.1396 10.8803L57.2041 9.29519C57.6481 8.95793 57.7702 8.32837 57.4927 7.83372L55.4171 4.20251C55.284 3.96439 55.0687 3.78447 54.8126 3.69732C54.5565 3.61016 54.2777 3.62193 54.0296 3.73035L51.6432 4.75338C51.2325 4.46108 50.7997 4.20251 50.3446 3.98891L50.0227 1.39199C49.9561 0.82988 49.4788 0.402679 48.9238 0.402679H44.7837C44.2176 0.402679 43.7403 0.82988 43.6737 1.39199L43.3519 3.98891C42.8968 4.20251 42.4639 4.46108 42.0532 4.75338L39.6668 3.73035C39.1562 3.5055 38.5568 3.70786 38.2794 4.20251L36.2037 7.84496C35.9263 8.33961 36.0483 8.95793 36.4923 9.30643L38.5568 10.8916C38.5108 11.3964 38.5108 11.9044 38.5568 12.4093L36.4923 13.9944C36.0483 14.3317 35.9263 14.9612 36.2037 15.4559L38.2794 19.0871C38.5568 19.5817 39.1562 19.7841 39.6668 19.5592L42.0532 18.5362C42.4639 18.8285 42.8968 19.0871 43.3519 19.3007L43.6737 21.8976C43.7403 22.4597 44.2176 22.8869 44.7726 22.8869H48.9127C49.4677 22.8869 49.945 22.4597 50.0116 21.8976L50.3335 19.3007C50.7886 19.0871 51.2214 18.8285 51.6321 18.5362L54.0185 19.5592C54.5291 19.7841 55.1285 19.5817 55.406 19.0871L57.4816 15.4559C57.7591 14.9612 57.637 14.3429 57.193 13.9944L55.1285 12.4093C55.1618 12.1507 55.1729 11.9034 55.1729 11.6448ZM46.8926 15.5795C44.7504 15.5795 43.0078 13.8145 43.0078 11.6448C43.0078 9.47507 44.7504 7.71005 46.8926 7.71005C49.0348 7.71005 50.7775 9.47507 50.7775 11.6448C50.7775 13.8145 49.0348 15.5795 46.8926 15.5795Z" fill="#CAD9F8"/>
<path id="Vector_57" d="M32.8422 52.5661C32.8422 52.1317 32.8237 51.7162 32.7867 51.2818L36.2276 48.6188C36.9676 48.0522 37.1711 46.9945 36.7086 46.1635L33.2492 40.0631C33.0274 39.663 32.6686 39.3607 32.2418 39.2143C31.815 39.0679 31.3502 39.0877 30.9368 39.2698L26.9595 40.9885C26.275 40.4975 25.5535 40.0631 24.7951 39.7042L24.2586 35.3414C24.1476 34.397 23.3521 33.6793 22.4271 33.6793H15.5269C14.5835 33.6793 13.788 34.397 13.677 35.3414L13.1405 39.7042C12.3821 40.0631 11.6606 40.4975 10.9761 40.9885L6.99877 39.2698C6.1478 38.8921 5.14884 39.232 4.68636 40.0631L1.227 46.1824C0.764518 47.0134 0.968009 48.0522 1.70798 48.6376L5.14884 51.3007C5.07216 52.1488 5.07216 53.0023 5.14884 53.8504L1.70798 56.5134C0.968009 57.08 0.764518 58.1377 1.227 58.9687L4.68636 65.0691C5.14884 65.9001 6.1478 66.2401 6.99877 65.8624L10.9761 64.1437C11.6606 64.6347 12.3821 65.0691 13.1405 65.428L13.677 69.7908C13.788 70.7351 14.5835 71.4528 15.5084 71.4528H22.4086C23.3336 71.4528 24.1291 70.7351 24.2401 69.7908L24.7766 65.428C25.535 65.0691 26.2565 64.6347 26.941 64.1437L30.9183 65.8624C31.7693 66.2401 32.7682 65.9001 33.2307 65.0691L36.6901 58.9687C37.1526 58.1377 36.9491 57.0989 36.2091 56.5134L32.7682 53.8504C32.8237 53.416 32.8422 53.0005 32.8422 52.5661ZM19.0418 59.1764C15.4714 59.1764 12.567 56.2112 12.567 52.5661C12.567 48.9209 15.4714 45.9557 19.0418 45.9557C22.6121 45.9557 25.5165 48.9209 25.5165 52.5661C25.5165 56.2112 22.6121 59.1764 19.0418 59.1764Z" fill="#CAD9F8"/>
</g>
<defs>
<filter id="filter0_d_37_505" x="59.9539" y="9.43747" width="115.755" height="126.58" filterUnits="userSpaceOnUse" color-interpolation-filters="sRGB">
<feFlood flood-opacity="0" result="BackgroundImageFix"/>
<feColorMatrix in="SourceAlpha" type="matrix" values="0 0 0 0 0 0 0 0 0 0 0 0 0 0 0 0 0 0 127 0" result="hardAlpha"/>
<feOffset dy="4"/>
<feGaussianBlur stdDeviation="15"/>
<feComposite in2="hardAlpha" operator="out"/>
<feColorMatrix type="matrix" values="0 0 0 0 0 0 0 0 0 0 0 0 0 0 0 0 0 0 0.25 0"/>
<feBlend mode="normal" in2="BackgroundImageFix" result="effect1_dropShadow_37_505"/>
<feBlend mode="normal" in="SourceGraphic" in2="effect1_dropShadow_37_505" result="shape"/>
</filter>
<linearGradient id="paint0_linear_37_505" x1="119.225" y1="26.8288" x2="115.703" y2="109.308" gradientUnits="userSpaceOnUse">
<stop stop-color="#32B5FF"/>
<stop offset="1" stop-color="#3461FF"/>
</linearGradient>
<linearGradient id="paint1_linear_37_505" x1="118.848" y1="35.4454" x2="116.006" y2="102.011" gradientUnits="userSpaceOnUse">
<stop stop-color="#32B5FF"/>
<stop offset="1" stop-color="#3461FF"/>
</linearGradient>
<linearGradient id="paint2_linear_37_505" x1="118.6" y1="41.2768" x2="116.256" y2="96.1814" gradientUnits="userSpaceOnUse">
<stop stop-color="#32B5FF"/>
<stop offset="1" stop-color="#3461FF"/>
</linearGradient>
<radialGradient id="paint3_radial_37_505" cx="0" cy="0" r="1" gradientUnits="userSpaceOnUse" gradientTransform="translate(201.088 29.4154) rotate(146.941) scale(22.0206 11.2136)">
<stop offset="0.935" stop-color="#F18849" stop-opacity="0"/>
<stop offset="1" stop-color="#CC6946"/>
</radialGradient>
</defs>
</svg>
