<svg width="22" height="11" viewBox="0 0 22 11" fill="none" xmlns="http://www.w3.org/2000/svg">
<path fill-rule="evenodd" clip-rule="evenodd" d="M21.826 5.14997L16.833 0.16999C16.7453 0.0729842 16.6235 0.0135356 16.493 0.00421815C16.3626 -0.00509933 16.2336 0.0363862 16.133 0.119941C16.0831 0.1621 16.0421 0.21369 16.0124 0.271796C15.9826 0.329903 15.9646 0.393348 15.9595 0.458442C15.9544 0.523536 15.9622 0.589024 15.9825 0.651069C16.0029 0.713114 16.0353 0.770463 16.078 0.819892C16.095 0.839892 16.113 0.859951 16.133 0.879951L20.272 4.99995H0.5C0.367392 4.99995 0.240222 5.05266 0.146454 5.14643C0.0526857 5.2402 0 5.36734 0 5.49995C0 5.63255 0.0526857 5.75969 0.146454 5.85346C0.240222 5.94723 0.367392 5.99995 0.5 5.99995H20.269L16.13 10.1199C16.0775 10.1617 16.0339 10.2137 16.0019 10.2727C15.9699 10.3316 15.9501 10.3965 15.9436 10.4633C15.9372 10.5301 15.9443 10.5976 15.9645 10.6616C15.9847 10.7256 16.0175 10.7848 16.0611 10.8359C16.1047 10.8869 16.1581 10.9286 16.2182 10.9586C16.2782 10.9885 16.3437 11.0061 16.4107 11.0102C16.4777 11.0143 16.5448 11.005 16.6081 10.9826C16.6714 10.9602 16.7295 10.9253 16.779 10.88C16.7954 10.8613 16.8139 10.8445 16.834 10.8299L21.827 5.84992C21.873 5.80396 21.9095 5.74937 21.9344 5.68928C21.9592 5.62918 21.972 5.56474 21.9719 5.4997C21.9718 5.43466 21.9588 5.37027 21.9338 5.31025C21.9088 5.25022 21.8721 5.1958 21.826 5.14997Z" fill="#224873"/>
</svg>
