<svg width="14" height="7" viewBox="0 0 14 7" fill="none" xmlns="http://www.w3.org/2000/svg">
<g clip-path="url(#clip0_2_24)">
<path fill-rule="evenodd" clip-rule="evenodd" d="M5.85944 6.75L0.26944 1.45996C0.185466 1.38313 0.11839 1.28971 0.0725098 1.18555C0.02663 1.08139 0.00292969 0.968797 0.00292969 0.85498C0.00292969 0.741164 0.02663 0.628573 0.0725098 0.524414C0.11839 0.420255 0.185466 0.326828 0.26944 0.25C0.443894 0.0862521 0.674156 -0.00488281 0.913422 -0.00488281C1.15269 -0.00488281 1.38298 0.0862521 1.55743 0.25L6.50244 4.92004L11.4484 0.25C11.6229 0.0862521 11.8532 -0.00488281 12.0924 -0.00488281C12.3317 -0.00488281 12.562 0.0862521 12.7364 0.25C12.8204 0.326828 12.8875 0.420255 12.9333 0.524414C12.9792 0.628573 13.0029 0.741164 13.0029 0.85498C13.0029 0.968797 12.9792 1.08139 12.9333 1.18555C12.8875 1.28971 12.8204 1.38313 12.7364 1.45996L7.14642 6.75C6.97072 6.91085 6.74114 7.00012 6.50293 7.00012C6.26471 7.00012 6.03514 6.91085 5.85944 6.75Z" fill="#224873"/>
</g>
<defs>
<clipPath id="clip0_2_24">
<rect width="13.031" height="7" fill="white"/>
</clipPath>
</defs>
</svg>
