<svg width="48" height="48" viewBox="0 0 48 48" fill="none" xmlns="http://www.w3.org/2000/svg">
<path fill-rule="evenodd" clip-rule="evenodd" d="M24 48C37.2549 48 48 37.2549 48 24C48 10.7451 37.2549 0 24 0C10.7451 0 0 10.7451 0 24C0 37.2549 10.7451 48 24 48ZM26.5801 14.916C26.0405 14.3763 25.3087 14.0732 24.5455 14.0732C23.7823 14.0732 23.0504 14.3763 22.5108 14.916C21.9711 15.4556 21.668 16.1875 21.668 16.9507C21.668 17.7137 21.9711 18.4457 22.5108 18.9853C23.0504 19.525 23.7823 19.8281 24.5455 19.8281C25.3087 19.8281 26.0405 19.525 26.5801 18.9853C27.1198 18.4457 27.4229 17.7137 27.4229 16.9507C27.4229 16.1875 27.1198 15.4556 26.5801 14.916ZM31.483 16.9507C31.483 20.7742 28.3768 23.8882 24.5455 23.8882C20.7219 23.8882 17.6079 20.7742 17.6079 16.9507C17.6079 13.1271 20.7219 10.0131 24.5455 10.0131C28.369 10.0131 31.483 13.1271 31.483 16.9507ZM31.3726 27.9009C30.1349 28.6747 28.7757 29.2343 27.352 29.5564L27.3284 29.5485L31.2149 33.4351C31.4039 33.624 31.5539 33.8483 31.6562 34.0952C31.7585 34.342 31.8111 34.6066 31.8111 34.8739C31.8111 35.141 31.7585 35.4057 31.6562 35.6525C31.5539 35.8994 31.4039 36.1237 31.2149 36.3125C31.026 36.5016 30.8017 36.6516 30.5548 36.7538C30.308 36.8561 30.0434 36.9088 29.7761 36.9088C29.509 36.9088 29.2443 36.8561 28.9975 36.7538C28.7506 36.6516 28.5263 36.5016 28.3375 36.3125L24.5218 32.497L20.7062 36.3205C20.3246 36.702 19.8071 36.9164 19.2674 36.9164C18.7279 36.9164 18.2103 36.702 17.8287 36.3205C17.4471 35.9389 17.2328 35.4214 17.2328 34.8817C17.2328 34.342 17.4471 33.8245 17.8287 33.443L21.6916 29.5564C20.2726 29.2411 18.9245 28.6892 17.671 27.9009C17.4454 27.758 17.25 27.5721 17.0962 27.3537C16.9423 27.1354 16.8329 26.8888 16.7744 26.6282C16.7159 26.3676 16.7092 26.098 16.7548 25.8348C16.8004 25.5717 16.8974 25.32 17.0403 25.0943C17.1832 24.8686 17.3691 24.6733 17.5875 24.5194C17.8058 24.3656 18.0524 24.2563 18.313 24.1977C18.5736 24.1391 18.8432 24.1324 19.1064 24.1781C19.3695 24.2237 19.6212 24.3207 19.8469 24.4636C21.2488 25.3397 22.8686 25.8043 24.5218 25.8043C26.1749 25.8043 27.7948 25.3397 29.1968 24.4636C29.4225 24.3207 29.674 24.2237 29.9373 24.1781C30.2004 24.1324 30.47 24.1391 30.7306 24.1977C30.9912 24.2563 31.2377 24.3656 31.4561 24.5194C31.6744 24.6733 31.8604 24.8686 32.0032 25.0943C32.1461 25.32 32.2431 25.5717 32.2888 25.8348C32.3344 26.098 32.3278 26.3676 32.2692 26.6282C32.2106 26.8888 32.1013 27.1354 31.9475 27.3537C31.7937 27.5721 31.5983 27.758 31.3726 27.9009Z" fill="#9FAEBF"/>
</svg>
