<svg width="1920" height="345" viewBox="0 0 1920 345" fill="none" xmlns="http://www.w3.org/2000/svg">
<path fill-rule="evenodd" clip-rule="evenodd" d="M0 265.127L40.2708 259.052C80.5417 252.978 161.083 240.829 241.625 246.904C322.167 252.978 402.708 277.276 483.25 259.052C563.792 240.829 644.333 180.085 724.875 174.01C805.417 167.936 885.958 216.531 966.5 198.308C1047.04 180.085 1127.58 95.0423 1208.12 101.117C1288.67 107.191 1369.21 204.382 1449.75 265.127C1530.29 325.871 1610.83 350.169 1691.38 344.095C1771.92 338.02 1852.46 301.574 1892.73 283.35L1933 265.127V10H1892.73C1852.46 10 1771.92 10 1691.38 10C1610.83 10 1530.29 10 1449.75 10C1369.21 10 1288.67 10 1208.12 10C1127.58 10 1047.04 10 966.5 10C885.958 10 805.417 10 724.875 10C644.333 10 563.792 10 483.25 10C402.708 10 322.167 10 241.625 10C161.083 10 80.5417 10 40.2708 10H0V265.127Z" fill="url(#paint0_linear)"/>
<path fill-rule="evenodd" clip-rule="evenodd" d="M1920 215.525L1880 210.394C1840 205.262 1760 194.999 1680 200.131C1600 205.262 1520 225.788 1440 210.394C1360 194.999 1280 143.683 1200 138.552C1120 133.42 1040 174.473 960 159.078C880 143.683 800 71.8417 720 76.9733C640 82.1048 560 164.21 480 215.525C400 266.841 320 287.367 240 282.235C160 277.104 80 246.314 40 230.92L0 215.525V0H40C80 0 160 0 240 0C320 0 400 0 480 0C560 0 640 0 720 0C800 0 880 0 960 0C1040 0 1120 0 1200 0C1280 0 1360 0 1440 0C1520 0 1600 0 1680 0C1760 0 1840 0 1880 0H1920V215.525Z" fill="url(#paint1_linear)"/>
<defs>
<linearGradient id="paint0_linear" x1="-2.1603e-05" y1="10.0001" x2="1915.9" y2="424.131" gradientUnits="userSpaceOnUse">
<stop stop-color="#EC5230"/>
<stop offset="1" stop-color="#FFC123"/>
</linearGradient>
<linearGradient id="paint1_linear" x1="0" y1="0" x2="1093.22" y2="244.077" gradientUnits="userSpaceOnUse">
<stop stop-color="#572CA6"/>
<stop offset="1" stop-color="#E8197E"/>
</linearGradient>
</defs>
</svg>
