<svg width="147" height="193" viewBox="0 0 147 193" fill="none" xmlns="http://www.w3.org/2000/svg">
<path d="M0.638265 185.082C0.447629 185.282 0.455041 185.598 0.654822 185.789L3.91044 188.896C4.11022 189.086 4.42671 189.079 4.61735 188.879C4.80799 188.679 4.80057 188.363 4.60079 188.172L1.70691 185.411L4.46834 182.517C4.65897 182.317 4.65156 182.001 4.45178 181.81C4.252 181.619 3.9355 181.627 3.74487 181.826L0.638265 185.082ZM130.116 121.885L129.636 122.026L130.116 121.885ZM1 185.427C1.01171 185.927 1.01172 185.927 1.01174 185.927C1.01175 185.927 1.01177 185.927 1.01179 185.927C1.01184 185.927 1.0119 185.927 1.01197 185.927C1.01213 185.927 1.01235 185.927 1.01263 185.927C1.0132 185.927 1.01404 185.927 1.01513 185.927C1.01732 185.927 1.02056 185.927 1.02483 185.927C1.03338 185.927 1.04609 185.926 1.06291 185.926C1.09654 185.925 1.14662 185.924 1.21277 185.922C1.34505 185.918 1.54159 185.912 1.79933 185.904C2.31479 185.887 3.07505 185.86 4.05565 185.818L4.01286 184.819C3.03579 184.86 2.27892 184.888 1.76668 184.904C1.51055 184.913 1.31559 184.919 1.18484 184.922C1.11947 184.924 1.07015 184.925 1.03726 184.926C1.02082 184.927 1.00848 184.927 1.00031 184.927C0.996218 184.927 0.993169 184.927 0.991164 184.927C0.990162 184.927 0.989421 184.927 0.988942 184.927C0.988703 184.927 0.988529 184.927 0.988421 184.927C0.988367 184.927 0.988329 184.927 0.988307 184.927C0.988297 184.927 0.988293 184.927 0.988288 184.927C0.988288 184.927 0.988293 184.927 1 185.427ZM10.3128 185.489C12.1464 185.376 14.2124 185.237 16.4756 185.064L16.3993 184.067C14.1415 184.239 12.0805 184.379 10.2516 184.491L10.3128 185.489ZM22.6977 184.542C24.6778 184.361 26.7566 184.158 28.9179 183.929L28.8126 182.935C26.6563 183.163 24.5824 183.366 22.6069 183.546L22.6977 184.542ZM35.0856 183.23C37.0926 182.987 39.1513 182.722 41.2508 182.435L41.1151 181.444C39.021 181.731 36.9675 181.995 34.9654 182.237L35.0856 183.23ZM47.4072 181.539C49.4307 181.228 51.4809 180.894 53.5491 180.537L53.379 179.552C51.3171 179.907 49.2728 180.24 47.2549 180.551L47.4072 181.539ZM59.6713 179.42C61.6973 179.029 63.7323 178.615 65.7682 178.177L65.5577 177.199C63.5292 177.636 61.5013 178.048 59.482 178.438L59.6713 179.42ZM71.8346 176.795C73.855 176.309 75.8687 175.797 77.8679 175.258L77.6076 174.293C75.6177 174.829 73.6128 175.339 71.6007 175.823L71.8346 176.795ZM83.8576 173.546C85.8609 172.939 87.8411 172.303 89.7899 171.635L89.4658 170.689C87.529 171.352 85.5602 171.985 83.5676 172.589L83.8576 173.546ZM95.6461 169.493C97.6107 168.726 99.5318 167.923 101.4 167.083L100.99 166.171C99.1381 167.004 97.2325 167.8 95.2824 168.562L95.6461 169.493ZM107.013 164.354C108.895 163.365 110.704 162.329 112.429 161.246L111.897 160.399C110.196 161.468 108.409 162.49 106.548 163.469L107.013 164.354ZM117.557 157.682C119.258 156.367 120.84 154.991 122.287 153.549L121.582 152.841C120.167 154.25 118.617 155.599 116.946 156.89L117.557 157.682ZM126.387 148.776C127.635 147.048 128.701 145.239 129.562 143.343L128.651 142.93C127.82 144.76 126.789 146.512 125.576 148.19L126.387 148.776ZM131.518 137.345C131.929 135.341 132.126 133.257 132.09 131.091L131.09 131.107C131.125 133.202 130.934 135.213 130.539 137.144L131.518 137.345ZM131.378 124.858C131.166 123.836 130.906 122.798 130.596 121.744L129.636 122.026C129.939 123.055 130.193 124.067 130.399 125.061L131.378 124.858ZM130.596 121.744C130.305 120.755 130.06 119.785 129.861 118.831L128.882 119.036C129.087 120.016 129.338 121.013 129.636 122.026L130.596 121.744ZM129.185 113.043C129.146 111.034 129.322 109.109 129.696 107.262L128.716 107.063C128.327 108.984 128.144 110.982 128.185 113.062L129.185 113.043ZM131.494 101.732C132.29 99.9846 133.28 98.3121 134.447 96.71L133.639 96.121C132.435 97.7735 131.41 99.5042 130.584 101.317L131.494 101.732ZM138.286 92.2892C139.643 90.9538 141.133 89.6736 142.743 88.4456L142.137 87.6504C140.497 88.9011 138.975 90.2086 137.585 91.5765L138.286 92.2892ZM147.612 85.1069C149.244 84.0953 150.961 83.1238 152.755 82.1901L152.293 81.3031C150.48 82.2472 148.74 83.2309 147.085 84.2569L147.612 85.1069ZM158.085 79.6203C159.854 78.8292 161.678 78.0683 163.55 77.3359L163.186 76.4046C161.3 77.1423 159.461 77.9093 157.677 78.7075L158.085 79.6203ZM169.114 75.2883C170.96 74.6486 172.843 74.0328 174.755 73.4395L174.459 72.4844C172.537 73.0807 170.644 73.6999 168.787 74.3435L169.114 75.2883ZM180.454 71.7592C182.348 71.2282 184.264 70.7168 186.196 70.2235L185.949 69.2546C184.009 69.7496 182.086 70.2631 180.184 70.7963L180.454 71.7592ZM191.97 68.8127C193.893 68.3627 195.826 67.929 197.763 67.5103L197.552 66.5329C195.609 66.9527 193.671 67.3876 191.742 67.839L191.97 68.8127ZM203.584 66.2986C205.532 65.9074 207.48 65.5301 209.423 65.1653L209.238 64.1825C207.292 64.5479 205.34 64.9261 203.387 65.3182L203.584 66.2986ZM215.274 64.0991C217.24 63.7511 219.194 63.4149 221.13 63.089L220.964 62.1029C219.025 62.4291 217.068 62.7658 215.099 63.1144L215.274 64.0991ZM226.988 62.1241C228.974 61.8033 230.934 61.4924 232.862 61.1899L232.707 60.202C230.778 60.5047 228.817 60.8158 226.829 61.1369L226.988 62.1241ZM238.749 60.2735C240.759 59.9621 242.724 59.6586 244.634 59.3609L244.48 58.3729C242.571 58.6704 240.607 58.9739 238.596 59.2853L238.749 60.2735ZM250.513 58.4319C252.552 58.1034 254.509 57.7796 256.371 57.4576L256.2 56.4722C254.344 56.7934 252.39 57.1165 250.354 57.4446L250.513 58.4319ZM262.263 56.3756C264.414 55.9516 266.377 55.5243 268.123 55.0867L267.88 54.1167C266.155 54.5489 264.209 54.9726 262.07 55.3945L262.263 56.3756ZM273.877 53.2664C274.989 52.791 275.887 52.2806 276.508 51.7177L275.836 50.9769C275.335 51.4318 274.553 51.89 273.484 52.3469L273.877 53.2664ZM276.508 51.7177C277.343 50.9604 278.102 50.1962 278.79 49.4261L278.044 48.7601C277.381 49.5025 276.647 50.2419 275.836 50.9769L276.508 51.7177ZM282.428 44.0578C283.42 41.9831 283.973 39.8924 284.162 37.8101L283.166 37.7198C282.988 39.6843 282.466 41.6594 281.526 43.6264L282.428 44.0578ZM283.646 31.3467C283.149 29.2849 282.36 27.2638 281.364 25.3068L280.473 25.7606C281.44 27.6606 282.198 29.608 282.674 31.581L283.646 31.3467ZM277.979 19.8482C276.719 18.1184 275.34 16.4619 273.909 14.8981L273.171 15.5731C274.581 17.114 275.936 18.7418 277.17 20.4368L277.979 19.8482ZM269.392 10.3741C267.721 8.83086 266.073 7.43167 264.548 6.20543L263.922 6.98474C265.432 8.19888 267.062 9.58315 268.713 11.1087L269.392 10.3741ZM259.445 2.36371C258.631 1.79172 257.972 1.34837 257.515 1.04755C257.287 0.897142 257.109 0.782344 256.988 0.704911C256.928 0.666172 256.882 0.636796 256.85 0.616953C256.835 0.607039 256.823 0.599514 256.814 0.594395C256.81 0.591849 256.807 0.589901 256.805 0.588543C256.804 0.587885 256.803 0.587348 256.803 0.586997C256.802 0.58681 256.802 0.586656 256.802 0.58655C256.802 0.586497 256.802 0.586458 256.802 0.58641C256.802 0.586408 256.802 0.586383 256.802 0.586371C256.802 0.586349 256.802 0.58635 256.537 1.01066C256.273 1.43497 256.273 1.43497 256.273 1.43496C256.273 1.43496 256.273 1.43496 256.273 1.43496C256.273 1.43496 256.273 1.43496 256.273 1.43499C256.273 1.43503 256.273 1.43512 256.273 1.43524C256.273 1.43548 256.274 1.43587 256.275 1.43641C256.277 1.43751 256.279 1.43919 256.283 1.44149C256.29 1.44609 256.301 1.45309 256.316 1.46245C256.346 1.48121 256.391 1.50951 256.449 1.54711C256.567 1.62229 256.741 1.73472 256.965 1.88261C257.414 2.17845 258.065 2.61617 258.87 3.18188L259.445 2.36371ZM0.27653 184.737C-0.104743 185.136 -0.0899174 185.769 0.309644 186.151L6.82087 192.364C7.22043 192.745 7.85342 192.73 8.2347 192.331C8.61597 191.931 8.60115 191.298 8.20158 190.917L2.41383 185.394L7.93667 179.606C8.31795 179.207 8.30312 178.574 7.90356 178.193C7.504 177.811 6.87101 177.826 6.48974 178.226L0.27653 184.737ZM130.116 121.885L129.157 122.167L130.116 121.885ZM1 185.427C1.02341 186.427 1.02344 186.427 1.02346 186.427C1.02348 186.427 1.02351 186.427 1.02353 186.427C1.02359 186.427 1.02366 186.427 1.02375 186.427C1.02393 186.427 1.02417 186.427 1.02448 186.427C1.0251 186.427 1.02597 186.427 1.02712 186.427C1.0294 186.427 1.03272 186.427 1.03709 186.427C1.04583 186.426 1.05872 186.426 1.07573 186.426C1.10974 186.425 1.1602 186.423 1.22673 186.422C1.35979 186.418 1.55711 186.412 1.81565 186.404C2.33272 186.387 3.09467 186.359 4.07705 186.317L3.99146 184.319C3.01617 184.361 2.26099 184.388 1.75035 184.405C1.49503 184.413 1.30086 184.419 1.17088 184.422C1.10589 184.424 1.05695 184.425 1.02444 184.426C1.00818 184.427 0.996037 184.427 0.988045 184.427C0.984049 184.427 0.981092 184.427 0.979181 184.427C0.978225 184.427 0.97753 184.427 0.977097 184.428C0.976881 184.428 0.97673 184.428 0.976644 184.428C0.976602 184.428 0.976575 184.428 0.976566 184.428C0.976561 184.428 0.976566 184.428 0.976563 184.428C0.976572 184.428 0.976585 184.428 1 185.427ZM10.3434 185.988C12.1793 185.875 14.2479 185.735 16.5137 185.562L16.3612 183.568C14.106 183.741 12.0475 183.88 10.221 183.992L10.3434 185.988ZM22.743 185.04C24.7255 184.859 26.8067 184.656 28.9706 184.426L28.7599 182.438C26.6062 182.666 24.5347 182.868 22.5615 183.048L22.743 185.04ZM35.1457 183.726C37.1552 183.483 39.2164 183.218 41.3187 182.93L41.0472 180.949C38.9558 181.235 36.905 181.498 34.9054 181.741L35.1457 183.726ZM47.4833 182.033C49.5096 181.721 51.5628 181.387 53.6341 181.03L53.294 179.059C51.2351 179.414 49.1938 179.746 47.1788 180.057L47.4833 182.033ZM59.766 179.911C61.7953 179.519 63.8338 179.105 65.8734 178.665L65.4524 176.71C63.4276 177.146 61.4033 177.558 59.3873 177.947L59.766 179.911ZM71.9516 177.281C73.9761 176.794 75.9942 176.281 77.998 175.741L77.4775 173.81C75.4922 174.345 73.4917 174.854 71.4837 175.337L71.9516 177.281ZM84.0026 174.025C86.0112 173.416 87.9971 172.778 89.952 172.108L89.3037 170.216C87.373 170.877 85.4099 171.509 83.4226 172.111L84.0026 174.025ZM95.828 169.959C97.7997 169.189 99.7287 168.383 101.605 167.539L100.785 165.715C98.9413 166.544 97.0435 167.337 95.1005 168.096L95.828 169.959ZM107.246 164.797C109.138 163.802 110.958 162.76 112.695 161.67L111.631 159.976C109.942 161.037 108.166 162.053 106.315 163.027L107.246 164.797ZM117.863 158.077C119.579 156.752 121.177 155.361 122.64 153.903L121.229 152.487C119.831 153.88 118.296 155.215 116.64 156.495L117.863 158.077ZM126.792 149.069C128.058 147.316 129.141 145.478 130.017 143.55L128.196 142.723C127.38 144.521 126.365 146.244 125.171 147.897L126.792 149.069ZM132.008 137.445C132.426 135.405 132.626 133.285 132.59 131.082L130.59 131.115C130.624 133.174 130.437 135.149 130.049 137.044L132.008 137.445ZM131.868 124.756C131.653 123.721 131.389 122.669 131.075 121.602L129.157 122.167C129.456 123.184 129.706 124.182 129.91 125.163L131.868 124.756ZM131.075 121.602C130.788 120.626 130.547 119.669 130.351 118.729L128.393 119.138C128.601 120.132 128.855 121.142 129.157 122.167L131.075 121.602ZM129.685 113.033C129.646 111.06 129.819 109.171 130.186 107.361L128.226 106.964C127.829 108.921 127.644 110.957 127.685 113.072L129.685 113.033ZM131.949 101.939C132.73 100.225 133.702 98.5814 134.851 97.0046L133.235 95.8264C132.012 97.5042 130.969 99.264 130.129 101.11L131.949 101.939ZM138.637 92.6455C139.977 91.3264 141.451 90.0598 143.046 88.8432L141.834 87.2528C140.179 88.5149 138.64 89.836 137.234 91.2202L138.637 92.6455ZM147.875 85.5318C149.496 84.5275 151.202 83.5621 152.986 82.6336L152.062 80.8596C150.239 81.8089 148.488 82.7988 146.822 83.832L147.875 85.5318ZM158.29 80.0767C160.05 79.2891 161.867 78.5313 163.732 77.8016L163.004 75.939C161.111 76.6793 159.265 77.4494 157.473 78.2511L158.29 80.0767ZM169.278 75.7608C171.119 75.123 172.996 74.5089 174.903 73.917L174.31 72.0069C172.384 72.6047 170.486 73.2256 168.623 73.871L169.278 75.7608ZM180.589 72.2407C182.479 71.7108 184.391 71.2004 186.32 70.708L185.825 68.7701C183.882 69.2661 181.955 69.7805 180.049 70.3149L180.589 72.2407ZM192.084 69.2995C194.004 68.8502 195.934 68.4172 197.869 67.999L197.447 66.0441C195.501 66.4645 193.56 66.9001 191.628 67.3522L192.084 69.2995ZM203.682 66.7888C205.628 66.3981 207.575 66.0211 209.515 65.6567L209.146 63.691C207.198 64.0569 205.244 64.4354 203.288 64.8279L203.682 66.7888ZM215.361 64.5914C217.325 64.2437 219.278 63.9077 221.213 63.5821L220.881 61.6098C218.941 61.9363 216.983 62.2732 215.012 62.622L215.361 64.5914ZM227.068 62.6177C229.053 62.2971 231.012 61.9863 232.94 61.6838L232.63 59.708C230.7 60.0108 228.738 60.3221 226.749 60.6433L227.068 62.6177ZM238.825 60.7676C240.836 60.4563 242.801 60.1527 244.711 59.855L244.403 57.8788C242.494 58.1763 240.53 58.4797 238.519 58.7911L238.825 60.7676ZM250.592 58.9255C252.633 58.5968 254.592 58.2727 256.456 57.9503L256.115 55.9795C254.261 56.3003 252.31 56.6231 250.274 56.951L250.592 58.9255ZM262.36 56.8662C264.516 56.4411 266.488 56.012 268.245 55.5717L267.758 53.6317C266.044 54.0612 264.107 54.4831 261.973 54.9039L262.36 56.8662ZM274.073 53.7262C275.207 53.2415 276.163 52.7051 276.844 52.088L275.5 50.6065C275.058 51.0073 274.335 51.4394 273.287 51.8871L274.073 53.7262ZM276.844 52.088C277.691 51.3197 278.463 50.543 279.163 49.7591L277.671 48.4271C277.02 49.1556 276.299 49.8826 275.5 50.6065L276.844 52.088ZM282.879 44.2735C283.897 42.1449 284.466 39.9964 284.66 37.8552L282.668 37.6747C282.495 39.5803 281.989 41.4976 281.074 43.4107L282.879 44.2735ZM284.132 31.2295C283.624 29.1233 282.82 27.0654 281.81 25.0799L280.027 25.9874C280.98 27.859 281.723 29.7696 282.188 31.6982L284.132 31.2295ZM278.383 19.5538C277.111 17.8067 275.719 16.1358 274.278 14.5606L272.802 15.9105C274.202 17.4401 275.545 19.0535 276.766 20.7311L278.383 19.5538ZM269.731 10.0069C268.051 8.45473 266.394 7.04807 264.862 5.81578L263.608 7.37441C265.111 8.58248 266.732 9.95928 268.374 11.4759L269.731 10.0069ZM259.733 1.95462C258.914 1.37949 258.251 0.933326 257.79 0.630017C257.56 0.478364 257.381 0.36237 257.258 0.28379C257.197 0.244511 257.149 0.214589 257.117 0.194213C257.101 0.184023 257.089 0.176226 257.08 0.170863C257.076 0.16818 257.073 0.1661 257.07 0.164629C257.069 0.163886 257.068 0.163302 257.067 0.162864C257.067 0.162655 257.067 0.162476 257.067 0.16233C257.066 0.162255 257.066 0.162193 257.066 0.162146C257.066 0.162133 257.066 0.16209 257.066 0.162073C257.066 0.162057 257.066 0.16202 256.537 1.01066C256.008 1.8593 256.008 1.85927 256.008 1.85924C256.008 1.85926 256.008 1.85923 256.008 1.85923C256.008 1.85921 256.008 1.8592 256.008 1.85921C256.008 1.85923 256.008 1.85928 256.008 1.85937C256.008 1.85955 256.009 1.85987 256.01 1.86035C256.011 1.86131 256.014 1.86288 256.017 1.86504C256.024 1.86936 256.035 1.87611 256.049 1.88521C256.078 1.90344 256.122 1.93117 256.18 1.9682C256.295 2.04226 256.468 2.15349 256.69 2.30014C257.135 2.59348 257.782 3.02839 258.583 3.59099L259.733 1.95462Z" fill="url(#paint0_linear)"/>
<defs>
<linearGradient id="paint0_linear" x1="1" y1="185.427" x2="154.201" y2="77.0839" gradientUnits="userSpaceOnUse">
<stop stop-color="#572CA6"/>
<stop offset="1" stop-color="#E8197E"/>
</linearGradient>
</defs>
</svg>
