<svg width="1920" height="1218" viewBox="0 0 1920 1218" fill="none" xmlns="http://www.w3.org/2000/svg">
<path fill-rule="evenodd" clip-rule="evenodd" d="M0 67.4748L40 72.6064C80 77.738 160 88.0011 240 82.8695C320 77.738 400 57.2117 480 72.6064C560 88.0011 640 139.317 720 144.448C800 149.58 880 108.527 960 123.922C1040 139.317 1120 211.158 1200 206.027C1280 200.895 1360 118.79 1440 67.4748C1520 16.1593 1600 -4.36687 1680 0.764677C1760 5.89623 1840 36.6855 1880 52.0802L1920 67.4748V283H1880C1840 283 1760 283 1680 283C1600 283 1520 283 1440 283C1360 283 1280 283 1200 283C1120 283 1040 283 960 283C880 283 800 283 720 283C640 283 560 283 480 283C400 283 320 283 240 283C160 283 80 283 40 283H0V67.4748Z" fill="url(#paint0_linear)"/>
<path fill-rule="evenodd" clip-rule="evenodd" d="M0 1138.13L40.2708 1132.05C80.5417 1125.98 161.083 1113.83 241.625 1119.9C322.167 1125.98 402.708 1150.28 483.25 1132.05C563.792 1113.83 644.333 1053.08 724.875 1047.01C805.417 1040.94 885.958 1089.53 966.5 1071.31C1047.04 1053.08 1127.58 968.042 1208.12 974.117C1288.67 980.191 1369.21 1077.38 1449.75 1138.13C1530.29 1198.87 1610.83 1223.17 1691.38 1217.09C1771.92 1211.02 1852.46 1174.57 1892.73 1156.35L1933 1138.13V883H1892.73C1852.46 883 1771.92 883 1691.38 883C1610.83 883 1530.29 883 1449.75 883C1369.21 883 1288.67 883 1208.12 883C1127.58 883 1047.04 883 966.5 883C885.958 883 805.417 883 724.875 883C644.333 883 563.792 883 483.25 883C402.708 883 322.167 883 241.625 883C161.083 883 80.5417 883 40.2708 883H0V1138.13Z" fill="url(#paint1_linear)"/>
<path fill-rule="evenodd" clip-rule="evenodd" d="M2.86102e-05 5L52.8 46.7333C54.4928 48.032 56.2351 49.371 58.0256 50.747C113.774 93.5904 216.136 172.258 320 182.367C382.465 188.446 444.386 169.728 506.398 150.983C550.808 137.559 595.265 124.121 640 119.767C722.087 111.777 803.236 134.376 884.884 157.114C909.862 164.071 934.887 171.04 960 177.15C1067.2 203.233 1172.8 213.667 1280 192.8C1323.02 184.427 1365.77 171.014 1408.48 157.617C1472.21 137.627 1535.82 117.673 1600 114.55C1704.56 109.462 1807.6 149.042 1863.09 170.356C1864.49 170.894 1865.86 171.42 1867.2 171.933L1920 192.8V318V891V902V1106.53L1880 1101.39L1880 1101.39C1840 1096.26 1760 1086 1680 1091.13C1656 1092.67 1632 1095.59 1608 1098.52C1552 1105.34 1496 1112.17 1440 1101.39C1405 1094.66 1370 1081.05 1335 1067.44C1290 1049.94 1245 1032.44 1200 1029.55C1164 1027.24 1128 1034.29 1092 1041.33C1048 1049.94 1004 1058.55 960 1050.08C926.154 1043.56 892.308 1026.95 858.461 1010.33C812.308 987.672 766.154 965.013 720 967.973C662.857 971.639 605.714 1014.58 548.571 1057.51C525.714 1074.69 502.857 1091.86 480 1106.53C400 1157.84 320 1178.37 240 1173.24C160 1168.1 80 1137.31 40 1121.92L0 1106.53V891L2.86102e-05 318V5Z" fill="url(#paint2_linear)"/>
<defs>
<linearGradient id="paint0_linear" x1="-2.14577e-05" y1="283" x2="1871.07" y2="-192.536" gradientUnits="userSpaceOnUse">
<stop stop-color="#EC5230"/>
<stop offset="1" stop-color="#FFC123"/>
</linearGradient>
<linearGradient id="paint1_linear" x1="-2.1603e-05" y1="883" x2="1915.9" y2="1297.13" gradientUnits="userSpaceOnUse">
<stop stop-color="#EC5230"/>
<stop offset="1" stop-color="#FFC123"/>
</linearGradient>
<linearGradient id="paint2_linear" x1="0" y1="5" x2="1144.37" y2="66.8527" gradientUnits="userSpaceOnUse">
<stop stop-color="#572CA6"/>
<stop offset="1" stop-color="#E8197E"/>
</linearGradient>
</defs>
</svg>
