<svg width="7" height="13" viewBox="0 0 7 13" fill="none" xmlns="http://www.w3.org/2000/svg">
<path fill-rule="evenodd" clip-rule="evenodd" d="M6.85408 0.145917C6.80764 0.0993541 6.75246 0.0624112 6.69172 0.0372047C6.63097 0.0119983 6.56585 -0.000976562 6.50008 -0.000976562C6.43432 -0.000976562 6.36919 0.0119983 6.30845 0.0372047C6.2477 0.0624112 6.19253 0.0993541 6.14608 0.145917L0.146083 6.14592C0.0995202 6.19236 0.0625777 6.24754 0.0373712 6.30828C0.0121646 6.36903 -0.000810146 6.43415 -0.000810146 6.49992C-0.000810146 6.56568 0.0121646 6.6308 0.0373712 6.69155C0.0625777 6.7523 0.0995202 6.80747 0.146083 6.85392L6.14608 12.8539C6.23997 12.9478 6.36731 13.0005 6.50008 13.0005C6.63286 13.0005 6.7602 12.9478 6.85408 12.8539C6.94797 12.76 7.00071 12.6327 7.00071 12.4999C7.00071 12.3671 6.94797 12.2398 6.85408 12.1459L1.20708 6.49992L6.85408 0.853917C6.90065 0.807472 6.93759 0.752296 6.9628 0.691551C6.988 0.630806 7.00098 0.565685 7.00098 0.499917C7.00098 0.43415 6.988 0.369029 6.9628 0.308284C6.93759 0.247539 6.90065 0.192363 6.85408 0.145917Z" fill="#6C757D"/>
</svg>
