<svg width="15" height="28" viewBox="0 0 15 28" fill="none" xmlns="http://www.w3.org/2000/svg">
<path fill-rule="evenodd" clip-rule="evenodd" d="M1.29012 1.29208C1.38302 1.19895 1.49337 1.12507 1.61486 1.07465C1.73635 1.02424 1.86659 0.998291 1.99813 0.998291C2.12966 0.998291 2.2599 1.02424 2.38139 1.07465C2.50288 1.12507 2.61323 1.19895 2.70613 1.29208L14.7061 13.2921C14.7993 13.385 14.8731 13.4953 14.9235 13.6168C14.974 13.7383 14.9999 13.8685 14.9999 14.0001C14.9999 14.1316 14.974 14.2619 14.9235 14.3833C14.8731 14.5048 14.7993 14.6152 14.7061 14.7081L2.70613 26.7081C2.51835 26.8959 2.26368 27.0013 1.99813 27.0013C1.73257 27.0013 1.4779 26.8959 1.29012 26.7081C1.10235 26.5203 0.996861 26.2656 0.996861 26.0001C0.996861 25.7345 1.10235 25.4799 1.29012 25.2921L12.5841 14.0001L1.29012 2.70808C1.197 2.61519 1.12311 2.50484 1.0727 2.38335C1.02229 2.26186 0.996338 2.13161 0.996338 2.00008C0.996338 1.86854 1.02229 1.7383 1.0727 1.61681C1.12311 1.49532 1.197 1.38497 1.29012 1.29208Z" fill="white"/>
</svg>
