<svg width="14" height="13" viewBox="0 0 14 13" fill="none" xmlns="http://www.w3.org/2000/svg">
<g clip-path="url(#clip0_24_80)">
<path fill-rule="evenodd" clip-rule="evenodd" d="M0.150783 3.14686C0.197223 3.1003 0.252392 3.06337 0.31313 3.03817C0.373868 3.01297 0.438982 3 0.504741 3C0.570501 3 0.635615 3.01297 0.696353 3.03817C0.757091 3.06337 0.81226 3.1003 0.8587 3.14686L6.50404 8.79242L12.1494 3.14686C12.1959 3.10038 12.251 3.06351 12.3118 3.03836C12.3725 3.01321 12.4376 3.00026 12.5033 3.00026C12.5691 3.00026 12.6342 3.01321 12.6949 3.03836C12.7556 3.06351 12.8108 3.10038 12.8573 3.14686C12.9038 3.19333 12.9406 3.24851 12.9658 3.30923C12.991 3.36995 13.0039 3.43504 13.0039 3.50077C13.0039 3.56649 12.991 3.63158 12.9658 3.6923C12.9406 3.75302 12.9038 3.8082 12.8573 3.85468L6.858 9.85314C6.81156 9.8997 6.75639 9.93663 6.69565 9.96183C6.63491 9.98703 6.5698 10 6.50404 10C6.43828 10 6.37316 9.98703 6.31243 9.96183C6.25169 9.93663 6.19652 9.8997 6.15008 9.85314L0.150783 3.85468C0.104225 3.80824 0.0672866 3.75308 0.0420831 3.69235C0.0168796 3.63162 0.00390625 3.56652 0.00390625 3.50077C0.00390625 3.43502 0.0168796 3.36991 0.0420831 3.30918C0.0672866 3.24845 0.104225 3.19329 0.150783 3.14686Z" fill="#6B3FA0"/>
</g>
<defs>
<clipPath id="clip0_24_80">
<rect width="13" height="13" fill="white" transform="translate(0.00390625)"/>
</clipPath>
</defs>
</svg>
