<svg width="33" height="34" viewBox="0 0 33 34" fill="none" xmlns="http://www.w3.org/2000/svg">
<path d="M16.75 0.750092C7.77512 0.750092 0.5 8.02522 0.5 17.0001C0.5 25.975 7.77512 33.2501 16.75 33.2501C25.7249 33.2501 33 25.975 33 17.0001C33 8.02522 25.7249 0.750092 16.75 0.750092Z" fill="url(#paint0_linear_17_66)"/>
<path d="M18.9494 21.3072H23.1549L23.8155 17.035H18.9494V14.6999C18.9494 12.9254 19.5296 11.3516 21.1895 11.3516H23.8569V7.62384C23.3881 7.56047 22.3969 7.42234 20.5241 7.42234C16.6127 7.42234 14.3198 9.48772 14.3198 14.1937V17.0358H10.2987V21.308H14.319V33.0502C15.1152 33.1688 15.9221 33.2501 16.75 33.2501C17.4983 33.2501 18.2287 33.1818 18.9494 33.0843V21.3072Z" fill="white"/>
<defs>
<linearGradient id="paint0_linear_17_66" x1="5.36931" y1="5.6194" x2="30.2497" y2="30.4998" gradientUnits="userSpaceOnUse">
<stop stop-color="#2AA4F4"/>
<stop offset="1" stop-color="#007AD9"/>
</linearGradient>
</defs>
</svg>
