<svg width="33" height="34" viewBox="0 0 33 34" fill="none" xmlns="http://www.w3.org/2000/svg">
<path d="M0.5 17.0001C0.5 8.02547 7.7754 0.750092 16.75 0.750092C25.7246 0.750092 33 8.02547 33 17.0001C33 25.9747 25.7246 33.2501 16.75 33.2501C7.7754 33.2501 0.5 25.9747 0.5 17.0001Z" fill="url(#paint0_radial_17_57)"/>
<path d="M16.75 7.10879C19.9999 7.10879 20.3532 7.10879 21.6249 7.17944C22.826 7.25009 23.4619 7.46205 23.8858 7.60335C24.451 7.81531 24.8749 8.09792 25.2988 8.52183C25.7227 8.94574 26.0054 9.36966 26.2173 9.93487C26.3586 10.3588 26.5706 10.9947 26.6412 12.1957C26.6412 13.3968 26.6412 13.7501 26.6412 17.0001C26.6412 20.2501 26.6412 20.6034 26.5706 21.8751C26.4999 23.0762 26.288 23.712 26.1467 24.136C25.9347 24.7012 25.6521 25.1251 25.2282 25.549C24.8043 25.9729 24.3804 26.2555 23.8151 26.4675C23.3912 26.6088 22.7554 26.8207 21.5543 26.8914C20.3532 26.8914 19.9999 26.8914 16.75 26.8914C13.5 26.8914 13.1467 26.8914 11.875 26.8207C10.6739 26.7501 10.038 26.5381 9.6141 26.3968C9.04889 26.1849 8.62498 25.9023 8.20106 25.4784C7.77715 25.0544 7.49454 24.6305 7.28259 24.0653C7.14129 23.6414 6.92933 23.0055 6.85868 21.8044C6.85868 20.6034 6.85868 20.2501 6.85868 17.0001C6.85868 13.7501 6.85868 13.3968 6.92933 12.1251C6.99998 10.924 7.21194 10.2881 7.35324 9.86422C7.5652 9.29901 7.8478 8.87509 8.27172 8.45118C8.69563 8.02727 9.11954 7.74466 9.68476 7.5327C10.1087 7.3914 10.7445 7.17944 11.9456 7.10879C13.1467 7.10879 13.5 7.10879 16.75 7.10879ZM16.75 4.98922C13.5 4.98922 13.076 4.98922 11.8043 5.05987C10.5326 5.13053 9.68476 5.34248 8.90758 5.62509C8.13041 5.9077 7.42389 6.33161 6.78802 7.03814C6.15216 7.74466 5.72825 8.38053 5.37499 9.1577C5.09238 9.93487 4.88042 10.7827 4.80977 12.0544C4.73912 13.3262 4.73912 13.7501 4.73912 17.0001C4.73912 20.2501 4.73912 20.674 4.80977 21.9457C4.88042 23.2175 5.09238 24.0653 5.37499 24.8425C5.65759 25.6197 6.0815 26.3262 6.78802 26.962C7.42389 27.5979 8.13041 28.0218 8.90758 28.3751C9.68476 28.6577 10.5326 28.8697 11.8043 28.9403C13.076 29.011 13.5 29.011 16.75 29.011C19.9999 29.011 20.4239 29.011 21.6956 28.9403C22.9673 28.8697 23.8151 28.6577 24.5923 28.3751C25.3695 28.0925 26.076 27.6686 26.7119 26.962C27.3477 26.3262 27.7717 25.6197 28.1249 24.8425C28.4075 24.0653 28.6195 23.2175 28.6901 21.9457C28.7608 20.674 28.7608 20.2501 28.7608 17.0001C28.7608 13.7501 28.7608 13.3262 28.6901 12.0544C28.6195 10.7827 28.4075 9.93487 28.1249 9.1577C27.8423 8.38053 27.4184 7.674 26.7119 7.03814C26.0054 6.40227 25.3695 5.97835 24.5923 5.62509C23.8151 5.34248 22.9673 5.13053 21.6956 5.05987C20.4239 4.98922 19.9999 4.98922 16.75 4.98922Z" fill="white"/>
<path d="M16.75 10.6414C13.2174 10.6414 10.3913 13.4675 10.3913 17.0001C10.3913 20.5327 13.2174 23.3588 16.75 23.3588C20.2826 23.3588 23.1086 20.5327 23.1086 17.0001C23.1086 13.4675 20.2826 10.6414 16.75 10.6414ZM16.75 21.2392C14.4184 21.2392 12.5108 19.3316 12.5108 17.0001C12.5108 14.6686 14.4184 12.761 16.75 12.761C19.0815 12.761 20.9891 14.6686 20.9891 17.0001C20.9891 19.3316 19.0815 21.2392 16.75 21.2392Z" fill="white"/>
<path d="M23.1086 12.0544C23.889 12.0544 24.5217 11.4218 24.5217 10.6414C24.5217 9.86099 23.889 9.22835 23.1086 9.22835C22.3282 9.22835 21.6956 9.86099 21.6956 10.6414C21.6956 11.4218 22.3282 12.0544 23.1086 12.0544Z" fill="white"/>
<defs>
<radialGradient id="paint0_radial_17_57" cx="0" cy="0" r="1" gradientUnits="userSpaceOnUse" gradientTransform="translate(7.21824 39.8176) rotate(-49.9451) scale(49.206 32.5047)">
<stop offset="0.073" stop-color="#EACC7B"/>
<stop offset="0.184" stop-color="#ECAA59"/>
<stop offset="0.307" stop-color="#EF802E"/>
<stop offset="0.358" stop-color="#EF6D3A"/>
<stop offset="0.46" stop-color="#F04B50"/>
<stop offset="0.516" stop-color="#F03E58"/>
<stop offset="0.689" stop-color="#DB359E"/>
<stop offset="0.724" stop-color="#CE37A4"/>
<stop offset="0.789" stop-color="#AC3CB4"/>
<stop offset="0.877" stop-color="#7544CF"/>
<stop offset="0.98" stop-color="#2B4FF2"/>
</radialGradient>
</defs>
</svg>
