<svg width="33" height="34" viewBox="0 0 33 34" fill="none" xmlns="http://www.w3.org/2000/svg">
<path d="M16.25 0.750092C11.9402 0.750092 7.80698 2.46214 4.75951 5.50961C1.71205 8.55707 0 12.6903 0 17.0001C0 21.3099 1.71205 25.4431 4.75951 28.4906C7.80698 31.538 11.9402 33.2501 16.25 33.2501C20.5598 33.2501 24.693 31.538 27.7405 28.4906C30.788 25.4431 32.5 21.3099 32.5 17.0001C32.5 12.6903 30.788 8.55707 27.7405 5.50961C24.693 2.46214 20.5598 0.750092 16.25 0.750092Z" fill="#0288D1"/>
<path d="M8.125 12.9376H11.375V25.1251H8.125V12.9376ZM9.74025 11.3126H9.72237C8.75225 11.3126 8.125 10.5895 8.125 9.68678C8.125 8.76459 8.77175 8.06259 9.75894 8.06259C10.7477 8.06259 11.3563 8.76459 11.375 9.68678C11.375 10.5895 10.7477 11.3126 9.74025 11.3126ZM25.1875 17.4063C25.1875 14.938 23.1871 12.9376 20.7188 12.9376C19.2059 12.9376 17.8709 13.6916 17.0625 14.8421V12.9376H13.8125V25.1251H17.0625V18.6251C17.0625 17.2788 18.1537 16.1876 19.5 16.1876C20.8463 16.1876 21.9375 17.2788 21.9375 18.6251V25.1251H25.1875C25.1875 25.1251 25.1875 17.7484 25.1875 17.4063Z" fill="white"/>
</svg>
