<svg width="13" height="13" viewBox="0 0 13 13" fill="none" xmlns="http://www.w3.org/2000/svg">
<path fill-rule="evenodd" clip-rule="evenodd" d="M6.5 -6.10352e-05C6.64366 -6.10352e-05 6.78144 0.0570074 6.88302 0.15859C6.9846 0.260172 7.04167 0.397947 7.04167 0.541606V5.95827H12.4583C12.602 5.95827 12.7398 6.01534 12.8414 6.11692C12.9429 6.21851 13 6.35628 13 6.49994C13 6.6436 12.9429 6.78137 12.8414 6.88296C12.7398 6.98454 12.602 7.04161 12.4583 7.04161H7.04167V12.4583C7.04167 12.6019 6.9846 12.7397 6.88302 12.8413C6.78144 12.9429 6.64366 12.9999 6.5 12.9999C6.35634 12.9999 6.21857 12.9429 6.11698 12.8413C6.0154 12.7397 5.95833 12.6019 5.95833 12.4583V7.04161H0.541667C0.398008 7.04161 0.260233 6.98454 0.158651 6.88296C0.0570684 6.78137 0 6.6436 0 6.49994C0 6.35628 0.0570684 6.21851 0.158651 6.11692C0.260233 6.01534 0.398008 5.95827 0.541667 5.95827H5.95833V0.541606C5.95833 0.397947 6.0154 0.260172 6.11698 0.15859C6.21857 0.0570074 6.35634 -6.10352e-05 6.5 -6.10352e-05Z" fill="#6B3FA0"/>
</svg>
