<svg width="34" height="26" viewBox="0 0 34 26" fill="none" xmlns="http://www.w3.org/2000/svg">
<path d="M3.75385 0.132935C2.89191 0.132935 2.06528 0.4373 1.45579 0.979071C0.84631 1.52084 0.503906 2.25564 0.503906 3.02182V10.0765C0.503906 10.8427 0.84631 11.5775 1.45579 12.1192C2.06528 12.661 2.89191 12.9654 3.75385 12.9654H5.21106C6.89758 12.9654 8.28301 14.3381 8.06328 16.0103C7.86178 17.0849 7.52378 18.0412 7.05579 18.876C6.58455 19.7138 5.98006 20.3696 5.23907 20.8492C5.03994 20.9942 4.82612 21.1197 4.59756 21.2256C3.47561 21.7453 2.41812 22.6575 2.41812 23.894C2.41812 25.1305 3.42892 26.1621 4.64648 25.9465C5.62975 25.7724 6.53317 25.4763 7.35804 25.0583C8.75946 24.3491 9.96436 23.3699 10.8842 22.1925C11.8075 20.8945 12.4879 19.472 12.8992 17.9805C13.3136 16.3345 13.5164 14.652 13.5037 12.9654V3.02182C13.5037 2.25564 13.1613 1.52084 12.5518 0.979071C11.9423 0.4373 11.1157 0.132935 10.2537 0.132935H3.75385ZM23.2535 0.132935C22.3916 0.132935 21.5649 0.4373 20.9555 0.979071C20.346 1.52084 20.0036 2.25564 20.0036 3.02182V10.0765C20.0036 10.8427 20.346 11.5775 20.9555 12.1192C21.5649 12.661 22.3916 12.9654 23.2535 12.9654H24.7107C26.3972 12.9654 27.7827 14.3381 27.5629 16.0103C27.3614 17.0849 27.0234 18.0412 26.5555 18.876C26.0842 19.7138 25.4797 20.3696 24.7387 20.8492C24.5396 20.9942 24.3258 21.1197 24.0972 21.2256C22.9753 21.7453 21.9178 22.6575 21.9178 23.894C21.9178 25.1305 22.9286 26.1621 24.1461 25.9465C25.1294 25.7724 26.0328 25.4763 26.8577 25.0583C28.2591 24.3491 29.464 23.3699 30.3839 22.1925C31.3071 20.8945 31.9876 19.472 32.3989 17.9805C32.8133 16.3345 33.0161 14.652 33.0033 12.9654V3.02182C33.0033 2.25564 32.6609 1.52084 32.0515 0.979071C31.442 0.4373 30.6153 0.132935 29.7534 0.132935H23.2535Z" fill="#6B3FA0" fill-opacity="0.1"/>
</svg>
