<svg width="13" height="10" viewBox="0 0 13 10" fill="none" xmlns="http://www.w3.org/2000/svg">
<path d="M2.84377 8.96888C2.84377 9.07662 2.80097 9.17996 2.72479 9.25614C2.6486 9.33233 2.54527 9.37513 2.43752 9.37513C2.32978 9.37513 2.22645 9.33233 2.15026 9.25614C2.07408 9.17996 2.03127 9.07662 2.03127 8.96888V1.82457L1.10015 2.7565C1.06238 2.79428 1.01754 2.82424 0.968186 2.84468C0.918836 2.86512 0.865942 2.87564 0.812525 2.87564C0.704645 2.87564 0.601183 2.83279 0.5249 2.7565C0.448617 2.68022 0.405762 2.57676 0.405762 2.46888C0.405762 2.361 0.448617 2.25754 0.5249 2.18125L2.1499 0.557067L2.15559 0.55138C2.23196 0.477201 2.3345 0.436114 2.44096 0.437027C2.54743 0.437939 2.64924 0.480777 2.72434 0.556254L4.34934 2.18125C4.38711 2.21897 4.41708 2.26376 4.43754 2.31306C4.45801 2.36236 4.46856 2.41521 4.4686 2.46859C4.46863 2.52197 4.45816 2.57484 4.43776 2.62417C4.41737 2.6735 4.38746 2.71833 4.34974 2.7561C4.31203 2.79387 4.26724 2.82384 4.21794 2.8443C4.16863 2.86477 4.11579 2.87532 4.06241 2.87536C4.00903 2.87539 3.95616 2.86492 3.90683 2.84452C3.8575 2.82413 3.81267 2.79422 3.7749 2.7565L2.84377 1.82457V8.96888ZM6.09378 1.25013C5.98603 1.25013 5.8827 1.20733 5.80651 1.13114C5.73033 1.05495 5.68753 0.951624 5.68753 0.843879C5.68753 0.736135 5.73033 0.632804 5.80651 0.556617C5.8827 0.480431 5.98603 0.437629 6.09378 0.437629H6.90627C7.01402 0.437629 7.11735 0.480431 7.19354 0.556617C7.26972 0.632804 7.31252 0.736135 7.31252 0.843879C7.31252 0.951624 7.26972 1.05495 7.19354 1.13114C7.11735 1.20733 7.01402 1.25013 6.90627 1.25013H6.09378ZM6.09378 3.68763C5.98603 3.68763 5.8827 3.64483 5.80651 3.56864C5.73033 3.49246 5.68753 3.38912 5.68753 3.28138C5.68753 3.17364 5.73033 3.0703 5.80651 2.99412C5.8827 2.91793 5.98603 2.87513 6.09378 2.87513H8.53127C8.63902 2.87513 8.74235 2.91793 8.81854 2.99412C8.89472 3.0703 8.93752 3.17364 8.93752 3.28138C8.93752 3.38912 8.89472 3.49246 8.81854 3.56864C8.74235 3.64483 8.63902 3.68763 8.53127 3.68763H6.09378ZM6.09378 6.12513C5.98603 6.12513 5.8827 6.08233 5.80651 6.00614C5.73033 5.92996 5.68753 5.82662 5.68753 5.71888C5.68753 5.61114 5.73033 5.5078 5.80651 5.43162C5.8827 5.35543 5.98603 5.31263 6.09378 5.31263H10.1563C10.264 5.31263 10.3674 5.35543 10.4435 5.43162C10.5197 5.5078 10.5625 5.61114 10.5625 5.71888C10.5625 5.82662 10.5197 5.92996 10.4435 6.00614C10.3674 6.08233 10.264 6.12513 10.1563 6.12513H6.09378ZM5.68753 8.15638C5.68753 8.26412 5.73033 8.36746 5.80651 8.44364C5.8827 8.51983 5.98603 8.56263 6.09378 8.56263H11.7813C11.889 8.56263 11.9924 8.51983 12.0685 8.44364C12.1447 8.36746 12.1875 8.26412 12.1875 8.15638C12.1875 8.04864 12.1447 7.9453 12.0685 7.86912C11.9924 7.79293 11.889 7.75013 11.7813 7.75013H6.09378C5.98603 7.75013 5.8827 7.79293 5.80651 7.86912C5.73033 7.9453 5.68753 8.04864 5.68753 8.15638Z" fill="#152536"/>
</svg>
