<svg width="12" height="4" viewBox="0 0 12 4" fill="none" xmlns="http://www.w3.org/2000/svg">
<path fill-rule="evenodd" clip-rule="evenodd" d="M0.761716 0.505281C0.809989 0.409172 0.894404 0.336127 0.996451 0.302162C1.0985 0.268197 1.20985 0.276084 1.30609 0.324093L5.9999 2.66978L10.6929 0.323281C10.7406 0.29889 10.7927 0.284192 10.8462 0.280033C10.8997 0.275874 10.9534 0.282336 11.0043 0.299048C11.0553 0.31576 11.1024 0.34239 11.143 0.377403C11.1836 0.412416 11.2169 0.455121 11.2409 0.503053C11.2649 0.550986 11.2792 0.603199 11.283 0.656682C11.2867 0.710165 11.2798 0.763861 11.2627 0.814673C11.2456 0.865486 11.2186 0.912409 11.1833 0.952739C11.148 0.993069 11.105 1.02601 11.0569 1.04966L6.1819 3.48716C6.12541 3.51546 6.06309 3.5302 5.9999 3.5302C5.93671 3.5302 5.8744 3.51546 5.8179 3.48716L0.942903 1.04966C0.846794 1.00138 0.773749 0.916968 0.739784 0.814921C0.705819 0.712874 0.713706 0.601522 0.761716 0.505281Z" fill="#152536"/>
</svg>
