<svg width="33" height="34" viewBox="0 0 33 34" fill="none" xmlns="http://www.w3.org/2000/svg">
<path d="M16.25 0.750092C11.9402 0.750092 7.80698 2.46214 4.75952 5.50961C1.71205 8.55707 0 12.6903 0 17.0001C0 21.3099 1.71205 25.4431 4.75952 28.4906C7.80698 31.538 11.9402 33.2501 16.25 33.2501C20.5598 33.2501 24.693 31.538 27.7405 28.4906C30.788 25.4431 32.5 21.3099 32.5 17.0001C32.5 12.6903 30.788 8.55707 27.7405 5.50961C24.693 2.46214 20.5598 0.750092 16.25 0.750092Z" fill="#03A9F4"/>
<path d="M26 11.4101C25.2834 11.7278 24.3758 12.026 23.5625 12.1251C24.3896 11.6343 25.7018 10.6122 26 9.68759C25.2273 10.1418 23.8298 10.6268 22.9182 10.8023C22.1902 10.0305 21.1518 9.68759 20.0013 9.68759C17.7913 9.68759 16.25 11.5604 16.25 13.7501V15.3751C13 15.3751 9.83125 12.8994 7.85931 10.5001C7.51238 11.0859 7.31737 11.7717 7.31737 12.4964C7.31737 13.9743 8.67506 15.4742 9.75 16.1876C9.09431 16.1673 7.85281 15.6668 7.3125 15.3751C7.3125 15.3881 7.3125 15.4043 7.3125 15.4214C7.3125 17.3446 8.66206 18.6503 10.491 19.0143C10.1571 19.1061 9.75 19.4376 8.1835 19.4376C8.69212 21.0098 11.2491 21.841 13 21.8751C11.6301 22.937 9.18775 23.5001 7.3125 23.5001C6.98831 23.5001 6.81281 23.518 6.5 23.4814C8.26962 24.6027 10.7412 25.1251 13 25.1251C20.3588 25.1251 24.375 19.5042 24.375 14.262C24.375 14.0897 24.3693 13.5128 24.3604 13.3438C25.1469 12.7897 25.4654 12.2096 26 11.4101Z" fill="white"/>
</svg>
