<svg width="33" height="34" viewBox="0 0 33 34" fill="none" xmlns="http://www.w3.org/2000/svg">
<path d="M32.5 17.0001C32.5 25.9747 25.2246 33.2501 16.25 33.2501C7.27537 33.2501 0 25.9747 0 17.0001C0 8.02546 7.27537 0.750092 16.25 0.750092C25.2246 0.750092 32.5 8.02546 32.5 17.0001Z" fill="white"/>
<path d="M25.9504 22.0274C25.7477 23.0938 24.8866 23.9063 23.8229 24.0587C22.1513 24.3126 19.3653 24.6173 16.2247 24.6173C13.1347 24.6173 10.3487 24.3126 8.62648 24.0587C7.56273 23.9063 6.70161 23.0938 6.49899 22.0274C6.29637 20.8595 6.09375 19.1329 6.09375 17.0001C6.09375 14.8673 6.29637 13.1407 6.49899 11.9727C6.70161 10.9063 7.56273 10.0938 8.62648 9.9415C10.2981 9.68759 13.0841 9.3829 16.2247 9.3829C19.3653 9.3829 22.1006 9.68759 23.8229 9.9415C24.8866 10.0938 25.7477 10.9063 25.9504 11.9727C26.153 13.1407 26.4062 14.8673 26.4062 17.0001C26.3556 19.1329 26.153 20.8595 25.9504 22.0274Z" fill="#FF3D00"/>
<path d="M14.1985 20.5548V13.4454L20.277 17.0001L14.1985 20.5548Z" fill="white"/>
</svg>
