<svg width="106" height="16" viewBox="0 0 106 16" fill="none" xmlns="http://www.w3.org/2000/svg">
<path d="M0 12.2285V0.515057H1.91938L6.31865 10.2015H5.7921L10.1914 0.515057H12.0938V12.2285H10.1064V3.53894H10.7179L6.69234 12.2285H5.38444L1.35885 3.53894H1.98732V12.2285H0Z" fill="#152536"/>
<path d="M18.4654 12.3946C17.5821 12.3946 16.8178 12.2174 16.1723 11.8629C15.5269 11.5085 15.0229 11.0045 14.6606 10.351C14.3095 9.69747 14.134 8.92212 14.134 8.02492C14.134 7.12773 14.3095 6.35791 14.6606 5.71547C15.0229 5.06196 15.5269 4.55798 16.1723 4.20353C16.8178 3.84908 17.5821 3.67186 18.4654 3.67186C19.3486 3.67186 20.113 3.84908 20.7584 4.20353C21.4152 4.55798 21.9191 5.06196 22.2701 5.71547C22.6325 6.35791 22.8137 7.12773 22.8137 8.02492C22.8137 8.92212 22.6325 9.69747 22.2701 10.351C21.9191 11.0045 21.4152 11.5085 20.7584 11.8629C20.113 12.2174 19.3486 12.3946 18.4654 12.3946ZM18.4654 10.7996C19.1335 10.7996 19.6657 10.5725 20.062 10.1184C20.4583 9.65317 20.6565 8.95535 20.6565 8.02492C20.6565 7.0945 20.4583 6.40222 20.062 5.94808C19.6657 5.49394 19.1335 5.26687 18.4654 5.26687C17.7973 5.26687 17.265 5.49394 16.8687 5.94808C16.4724 6.40222 16.2742 7.0945 16.2742 8.02492C16.2742 8.95535 16.4724 9.65317 16.8687 10.1184C17.265 10.5725 17.7973 10.7996 18.4654 10.7996Z" fill="#152536"/>
<path d="M24.6447 12.2285V5.93146C24.6447 5.58809 24.6334 5.23918 24.6107 4.88474C24.5881 4.53029 24.5541 4.18138 24.5088 3.83801H26.5641L26.7339 5.49948H26.5301C26.8019 4.91243 27.2039 4.46383 27.7361 4.15369C28.2683 3.83247 28.8854 3.67186 29.5875 3.67186C30.5953 3.67186 31.354 3.94877 31.8636 4.5026C32.3731 5.05642 32.6279 5.92039 32.6279 7.0945V12.2285H30.5047V7.19418C30.5047 6.51852 30.3688 6.03669 30.0971 5.7487C29.8366 5.44964 29.4403 5.3001 28.9081 5.3001C28.2513 5.3001 27.7304 5.49948 27.3454 5.89823C26.9604 6.29699 26.7679 6.82866 26.7679 7.49325V12.2285H24.6447Z" fill="#152536"/>
<path d="M39.0237 12.3946C37.5856 12.3946 36.4588 12.0069 35.6435 11.2316C34.8282 10.4562 34.4206 9.39287 34.4206 8.04154C34.4206 7.16649 34.5961 6.40222 34.9471 5.7487C35.2982 5.09519 35.7851 4.58567 36.4079 4.22015C37.042 3.85462 37.7781 3.67186 38.616 3.67186C39.4427 3.67186 40.1334 3.84354 40.6883 4.18692C41.2431 4.53029 41.6621 5.01212 41.9452 5.6324C42.2396 6.25268 42.3868 6.97819 42.3868 7.80893V8.35722H36.1361V7.26064H40.8751L40.5864 7.49325C40.5864 6.7179 40.4165 6.1253 40.0768 5.71547C39.7484 5.30564 39.2671 5.10073 38.633 5.10073C37.9309 5.10073 37.3874 5.34441 37.0024 5.83178C36.6287 6.31914 36.4419 7.00035 36.4419 7.87539V8.09138C36.4419 8.99965 36.6683 9.68086 37.1213 10.135C37.5856 10.5781 38.2367 10.7996 39.0746 10.7996C39.5616 10.7996 40.0145 10.7387 40.4335 10.6168C40.8638 10.4839 41.2714 10.2735 41.6565 9.98546L42.2849 11.3811C41.8773 11.7023 41.3903 11.9515 40.8242 12.1288C40.258 12.306 39.6578 12.3946 39.0237 12.3946Z" fill="#152536"/>
<path d="M43.8822 16L43.3897 14.3551C43.9219 14.2444 44.3692 14.117 44.7315 13.973C45.0939 13.829 45.394 13.6407 45.6318 13.4081C45.8696 13.1755 46.0677 12.8764 46.2262 12.5109L46.6509 11.5306L46.5999 12.3448L42.8631 3.83801H45.1222L47.8059 10.3842H47.3133L50.014 3.83801H52.1542L48.2475 12.6937C47.9871 13.2918 47.704 13.7847 47.3983 14.1724C47.0925 14.5711 46.7641 14.8868 46.4131 15.1194C46.0621 15.3631 45.677 15.5514 45.2581 15.6843C44.8391 15.8172 44.3805 15.9225 43.8822 16Z" fill="#152536"/>
<path d="M53.4446 12.2285V0.515057H58.7611C60.0747 0.515057 61.0768 0.825199 61.7676 1.44548C62.4583 2.06577 62.8037 2.91866 62.8037 4.00415C62.8037 5.07857 62.4583 5.93146 61.7676 6.56282C61.0768 7.19418 60.0747 7.50986 58.7611 7.50986H55.6358V12.2285H53.4446ZM55.6358 5.81516H58.5063C59.231 5.81516 59.7746 5.66009 60.1369 5.34995C60.4993 5.02873 60.6805 4.58013 60.6805 4.00415C60.6805 3.42818 60.4993 2.98512 60.1369 2.67497C59.7746 2.35376 59.231 2.19315 58.5063 2.19315H55.6358V5.81516Z" fill="#152536"/>
<path d="M68.3173 12.3946C66.8791 12.3946 65.7524 12.0069 64.9371 11.2316C64.1218 10.4562 63.7141 9.39287 63.7141 8.04154C63.7141 7.16649 63.8897 6.40222 64.2407 5.7487C64.5917 5.09519 65.0787 4.58567 65.7015 4.22015C66.3356 3.85462 67.0716 3.67186 67.9096 3.67186C68.7362 3.67186 69.427 3.84354 69.9818 4.18692C70.5367 4.53029 70.9557 5.01212 71.2388 5.6324C71.5332 6.25268 71.6804 6.97819 71.6804 7.80893V8.35722H65.4297V7.26064H70.1687L69.8799 7.49325C69.8799 6.7179 69.7101 6.1253 69.3704 5.71547C69.042 5.30564 68.5607 5.10073 67.9266 5.10073C67.2245 5.10073 66.681 5.34441 66.296 5.83178C65.9223 6.31914 65.7354 7.00035 65.7354 7.87539V8.09138C65.7354 8.99965 65.9619 9.68086 66.4149 10.135C66.8791 10.5781 67.5303 10.7996 68.3682 10.7996C68.8551 10.7996 69.3081 10.7387 69.7271 10.6168C70.1574 10.4839 70.565 10.2735 70.95 9.98546L71.5785 11.3811C71.1708 11.7023 70.6839 11.9515 70.1177 12.1288C69.5515 12.306 68.9514 12.3946 68.3173 12.3946Z" fill="#152536"/>
<path d="M77.3511 12.3946C76.4678 12.3946 75.7035 12.2174 75.058 11.8629C74.4126 11.5085 73.9087 11.0045 73.5463 10.351C73.1953 9.69747 73.0197 8.92212 73.0197 8.02492C73.0197 7.12773 73.1953 6.35791 73.5463 5.71547C73.9087 5.06196 74.4126 4.55798 75.058 4.20353C75.7035 3.84908 76.4678 3.67186 77.3511 3.67186C78.2343 3.67186 78.9987 3.84908 79.6441 4.20353C80.3009 4.55798 80.8048 5.06196 81.1559 5.71547C81.5182 6.35791 81.6994 7.12773 81.6994 8.02492C81.6994 8.92212 81.5182 9.69747 81.1559 10.351C80.8048 11.0045 80.3009 11.5085 79.6441 11.8629C78.9987 12.2174 78.2343 12.3946 77.3511 12.3946ZM77.3511 10.7996C78.0192 10.7996 78.5514 10.5725 78.9477 10.1184C79.3441 9.65317 79.5422 8.95535 79.5422 8.02492C79.5422 7.0945 79.3441 6.40222 78.9477 5.94808C78.5514 5.49394 78.0192 5.26687 77.3511 5.26687C76.683 5.26687 76.1508 5.49394 75.7544 5.94808C75.3581 6.40222 75.1599 7.0945 75.1599 8.02492C75.1599 8.95535 75.3581 9.65317 75.7544 10.1184C76.1508 10.5725 76.683 10.7996 77.3511 10.7996Z" fill="#152536"/>
<path d="M83.5304 15.8172V5.93146C83.5304 5.58809 83.5191 5.23918 83.4964 4.88474C83.4738 4.53029 83.4398 4.18138 83.3945 3.83801H85.4498L85.6366 5.59917H85.4498C85.6196 5.01211 85.9763 4.5469 86.5199 4.20353C87.0747 3.84908 87.7145 3.67186 88.4392 3.67186C89.1979 3.67186 89.8604 3.84908 90.4266 4.20353C90.9928 4.5469 91.4344 5.04534 91.7514 5.69886C92.0685 6.34129 92.227 7.11665 92.227 8.02492C92.227 8.93319 92.0685 9.71409 91.7514 10.3676C91.4344 11.0211 90.9928 11.5251 90.4266 11.8795C89.8604 12.2229 89.1979 12.3946 88.4392 12.3946C87.7259 12.3946 87.0974 12.2229 86.5538 11.8795C86.0103 11.5362 85.6479 11.0765 85.4668 10.5005H85.6536V15.8172H83.5304ZM87.8447 10.7996C88.5242 10.7996 89.0677 10.5725 89.4754 10.1184C89.883 9.65317 90.0869 8.95535 90.0869 8.02492C90.0869 7.0945 89.883 6.40222 89.4754 5.94808C89.0677 5.49394 88.5242 5.26687 87.8447 5.26687C87.1766 5.26687 86.6388 5.49394 86.2311 5.94808C85.8235 6.40222 85.6196 7.0945 85.6196 8.02492C85.6196 8.95535 85.8235 9.65317 86.2311 10.1184C86.6388 10.5725 87.1766 10.7996 87.8447 10.7996Z" fill="#152536"/>
<path d="M94.0635 12.2285V0H96.1867V12.2285H94.0635Z" fill="#152536"/>
<path d="M102.637 12.3946C101.199 12.3946 100.072 12.0069 99.2567 11.2316C98.4414 10.4562 98.0337 9.39287 98.0337 8.04154C98.0337 7.16649 98.2093 6.40222 98.5603 5.7487C98.9113 5.09519 99.3983 4.58567 100.021 4.22015C100.655 3.85462 101.391 3.67186 102.229 3.67186C103.056 3.67186 103.747 3.84354 104.301 4.18692C104.856 4.53029 105.275 5.01212 105.558 5.6324C105.853 6.25268 106 6.97819 106 7.80893V8.35722H99.7493V7.26064H104.488L104.2 7.49325C104.2 6.7179 104.03 6.1253 103.69 5.71547C103.362 5.30564 102.88 5.10073 102.246 5.10073C101.544 5.10073 101.001 5.34441 100.616 5.83178C100.242 6.31914 100.055 7.00035 100.055 7.87539V8.09138C100.055 8.99965 100.282 9.68086 100.734 10.135C101.199 10.5781 101.85 10.7996 102.688 10.7996C103.175 10.7996 103.628 10.7387 104.047 10.6168C104.477 10.4839 104.885 10.2735 105.27 9.98546L105.898 11.3811C105.49 11.7023 105.004 11.9515 104.437 12.1288C103.871 12.306 103.271 12.3946 102.637 12.3946Z" fill="#152536"/>
</svg>
