<svg xmlns="http://www.w3.org/2000/svg" xml:space="preserve" style="shape-rendering:geometricPrecision;text-rendering:geometricPrecision;image-rendering:optimizeQuality" viewBox="0 0 309 245" fill-rule="evenodd" clip-rule="evenodd" fill="#3F72DB"><path class="fil0" d="M24 0h261c13 0 24 11 24 24v148c0 13-11 24-24 24H24c-13 0-24-11-24-24V24C0 11 10 0 24 0zM10 172c0 2 0 5 2 7l95-88-93-77c-3 3-4 6-4 10v148zm9 13c1 1 3 1 5 1h261c1 0 3 0 5-1l-95-87-37 31c-2 2-5 2-7 0l-37-31-95 87zm183-94 95 88c1-2 2-5 2-7V24c0-4-2-7-4-10l-93 77zm-48 28L284 10H25l129 109z"/></svg>