<svg xmlns="http://www.w3.org/2000/svg" viewBox="0 0 24 30" xml:space="preserve" fill="#3F72DB"><path style="color:#000;font-style:normal;font-variant:normal;font-weight:400;font-stretch:normal;font-size:medium;line-height:normal;font-family:sans-serif;font-variant-ligatures:normal;font-variant-position:normal;font-variant-caps:normal;font-variant-numeric:normal;font-variant-alternates:normal;font-feature-settings:normal;text-indent:0;text-align:start;text-decoration:none;text-decoration-line:none;text-decoration-style:solid;text-decoration-color:#000;letter-spacing:normal;word-spacing:normal;text-transform:none;writing-mode:lr-tb;direction:ltr;text-orientation:mixed;dominant-baseline:auto;baseline-shift:baseline;text-anchor:start;white-space:normal;shape-padding:0;clip-rule:nonzero;display:inline;overflow:visible;visibility:visible;opacity:1;isolation:auto;mix-blend-mode:normal;color-interpolation:sRGB;color-interpolation-filters:linearRGB;solid-color:#000;solid-opacity:1;vector-effect:none;fill:#000;fill-opacity:1;fill-rule:nonzero;stroke:none;stroke-width:.9997766;stroke-linecap:butt;stroke-linejoin:miter;stroke-miterlimit:4;stroke-dasharray:none;stroke-dashoffset:0;stroke-opacity:1;color-rendering:auto;image-rendering:auto;shape-rendering:auto;text-rendering:auto;enable-background:accumulate" d="M6.9 3A3.91 3.91 0 0 0 3 6.9c0 7.633 6.092 13.823 13.668 14.057l.008.043h.424a3.91 3.91 0 0 0 3.824-4.666 1.31 1.31 0 0 0-.84-.977h-.002l-4.168-1.494a1.049 1.049 0 0 0-1.225.41l-1.08 1.641c-2.49-.98-4.535-2.947-5.523-5.428-.012-.03-.005-.046.014-.058v-.002l1.644-1.12c.391-.266.555-.769.397-1.212h-.002L8.645 3.92a1.313 1.313 0 0 0-.98-.844v-.002h-.003l-.119-.02A3.81 3.81 0 0 0 6.9 3Zm0 1c.166 0 .328.014.48.041H7.39l.082.016a.309.309 0 0 1 .232.2L9.2 8.43h-.002c.008.02.003.038-.015.05L7.539 9.6a1.055 1.055 0 0 0-.383 1.257c1.119 2.807 3.422 5.035 6.256 6.088l.002.002a.775.775 0 0 0 .912-.302l1.2-1.823c.013-.02.028-.025.05-.017l4.168 1.494a.306.306 0 0 1 .2.23l.001.004v.004c.006.025.01.05.014.074v.004l.002.004A2.895 2.895 0 0 1 17.1 20C9.86 20.001 4 14.141 4 6.901 4 5.295 5.295 4 6.9 4Z"/></svg>