<svg xmlns="http://www.w3.org/2000/svg" viewBox="0 0 100 125" xml:space="preserve" fill="#3F72DB"><path d="M50 10c-22.056 0-40 17.944-40 40 0 22.057 17.944 40 40 40 22.057 0 40-17.943 40-40 0-22.056-17.943-40-40-40zm2 27.615a48.073 48.073 0 0 0 13.534-2.519 44.164 44.164 0 0 1 2.516 12.903H52V37.615zm0-4.002V16.512c5.135 3.8 9.226 8.945 12.006 14.88A44.063 44.063 0 0 1 52 33.613zm-4-17.101v17.102a44.075 44.075 0 0 1-12.004-2.224c2.779-5.935 6.87-11.079 12.004-14.878zm0 21.104V48H31.95a44.097 44.097 0 0 1 2.515-12.899A48.148 48.148 0 0 0 48 37.616zM27.953 48H14.059a35.799 35.799 0 0 1 7.355-19.846 44.882 44.882 0 0 0 9.331 5.502A48.04 48.04 0 0 0 27.953 48zm0 4a48.114 48.114 0 0 0 2.795 14.357 44.887 44.887 0 0 0-9.325 5.501A35.787 35.787 0 0 1 14.059 52h13.894zm3.997 0H48v10.388a47.985 47.985 0 0 0-13.532 2.522A44.107 44.107 0 0 1 31.95 52zM48 66.389v17.1c-5.134-3.799-9.224-8.942-12.004-14.876A43.969 43.969 0 0 1 48 66.389zm4 17.099v-17.1c4.165.186 8.203.953 12.005 2.223-2.78 5.934-6.87 11.078-12.005 14.877zm0-21.1V52h16.05a44.05 44.05 0 0 1-2.519 12.911A48.007 48.007 0 0 0 52 62.388zM72.048 52h13.894a35.796 35.796 0 0 1-7.368 19.863 44.95 44.95 0 0 0-9.322-5.505A48.084 48.084 0 0 0 72.048 52zm0-4a48.08 48.08 0 0 0-2.794-14.35 44.933 44.933 0 0 0 9.33-5.499A35.787 35.787 0 0 1 85.941 48H72.048zm3.919-22.895a40.862 40.862 0 0 1-8.212 4.834c-2.784-6.037-6.822-11.338-11.851-15.447 7.825 1.297 14.8 5.125 20.063 10.613zm-31.87-10.613c-5.028 4.109-9.066 9.409-11.851 15.446a40.991 40.991 0 0 1-8.214-4.832c5.263-5.488 12.239-9.317 20.065-10.614zM24.041 74.903a40.958 40.958 0 0 1 8.207-4.837c2.784 6.034 6.821 11.332 11.847 15.441-7.82-1.296-14.792-5.12-20.054-10.604zm31.865 10.605c5.027-4.11 9.064-9.41 11.849-15.446a40.897 40.897 0 0 1 8.214 4.832c-5.263 5.488-12.239 9.316-20.063 10.614z"/></svg>