<svg width="24" height="24" viewBox="0 0 24 24" fill="none" xmlns="http://www.w3.org/2000/svg"><path fill-rule="evenodd" clip-rule="evenodd" d="M18.0909 5.4546h-.7273v-.7273c0-.4-.3272-.7273-.7272-.7273-.4 0-.7273.3273-.7273.7273v.7273H8.6364v-.7273c0-.4-.3273-.7273-.7273-.7273-.4 0-.7273.3273-.7273.7273v.7273h-.7272C5.6546 5.4546 5 6.109 5 6.909v11.6364C5 19.3455 5.6546 20 6.4546 20h11.6363c.8 0 1.4546-.6545 1.4546-1.4545V6.9091c0-.8-.6546-1.4545-1.4546-1.4545Zm-.7274 13.0912H7.1817c-.4 0-.7273-.3273-.7273-.7273V9.0912h11.6364v8.7273c0 .4-.3273.7273-.7273.7273Z" fill="#F8F8F8"/></svg>