<svg width="24" height="25" viewBox="0 0 24 25" fill="none" xmlns="http://www.w3.org/2000/svg"><path fill-rule="evenodd" clip-rule="evenodd" d="M6 19.5c0 1.1.9 2 2 2h8c1.1 0 2-.9 2-2v-10c0-1.1-.9-2-2-2H8c-1.1 0-2 .9-2 2v10Zm3.17-7.83c.39-.39 1.02-.39 1.41 0L12 13.09l1.42-1.42c.39-.39 1.02-.39 1.41 0 .39.39.39 1.02 0 1.41l-1.42 1.42 1.42 1.42c.39.39.39 1.02 0 1.41-.39.39-1.02.39-1.41 0L12 15.91l-1.42 1.42c-.39.39-1.02.39-1.41 0a.9959.9959 0 0 1 0-1.41l1.42-1.42-1.42-1.42c-.39-.38-.39-1.02 0-1.41ZM15.5 4.5l-.71-.71c-.18-.18-.44-.29-.7-.29H9.91c-.26 0-.52.11-.7.29l-.71.71H6c-.55 0-1 .45-1 1s.45 1 1 1h12c.55 0 1-.45 1-1s-.45-1-1-1h-2.5Z"/></svg>