<svg width="172" height="172" viewBox="0 0 172 172" fill="none" xmlns="http://www.w3.org/2000/svg">
<path fill-rule="evenodd" clip-rule="evenodd" d="M85.9997 50.1668C89.9413 50.1668 93.1663 53.3918 93.1663 57.3335V86.0002C93.1663 89.9418 89.9413 93.1668 85.9997 93.1668C82.058 93.1668 78.833 89.9418 78.833 86.0002V57.3335C78.833 53.3918 82.058 50.1668 85.9997 50.1668ZM85.928 14.3335C46.368 14.3335 14.333 46.4402 14.333 86.0002C14.333 125.56 46.368 157.667 85.928 157.667C125.56 157.667 157.666 125.56 157.666 86.0002C157.666 46.4402 125.56 14.3335 85.928 14.3335ZM85.9997 143.333C54.323 143.333 28.6663 117.677 28.6663 86.0002C28.6663 54.3235 54.323 28.6668 85.9997 28.6668C117.676 28.6668 143.333 54.3235 143.333 86.0002C143.333 117.677 117.676 143.333 85.9997 143.333ZM93.1663 121.833H78.833V107.5H93.1663V121.833Z" fill="url(#paint0_linear_54_3493)"/>
<defs>
<linearGradient id="paint0_linear_54_3493" x1="157.666" y1="14.3335" x2="-7.57098" y2="47.0546" gradientUnits="userSpaceOnUse">
<stop stop-color="#FF3300"/>
<stop offset="1" stop-color="#FF0000"/>
</linearGradient>
</defs>
</svg>
