<svg width="49" height="48" viewBox="0 0 49 48" fill="none" xmlns="http://www.w3.org/2000/svg"><path d="M24.7467 6C15.4018 6 7.7465 13.2911 7.0195 22.5562l9.5343 3.9888a4.9588 4.9588 0 0 1 2.8338-.8855c.0946 0 .1881.0026.2802.0077l4.2405-6.2196v-.0871c0-3.7425 3.0092-6.7881 6.7082-6.7881 3.6989 0 6.708 3.0456 6.708 6.7881 0 3.7424-3.0091 6.7892-6.708 6.7892-.0513 0-.1013-.0013-.1523-.0025l-6.0478 4.3649c.0039.0809.0064.1618.0064.2413 0 2.8106-2.259 5.0965-5.0352 5.0965-2.437 0-4.476-1.7609-4.9367-4.0915l-6.8196-2.8532C9.7433 36.4607 16.6036 42 24.7467 42c9.8248 0 17.7885-8.0598 17.7885-18 0-9.9413-7.9637-18-17.7885-18ZM18.167 33.312l-2.1849-.9137c.3867.8161 1.0573 1.4989 1.9468 1.8738 1.9225.811 4.1393-.1117 4.9406-2.0587a3.8433 3.8433 0 0 0 .0064-2.9262c-.384-.9446-1.1097-1.6813-2.0402-2.074-.9254-.3888-1.9161-.3748-2.7865-.0423l2.2579.9446c1.4181.5981 2.0888 2.2459 1.4975 3.6808-.59 1.4348-2.2195 2.1138-3.6376 1.5157Zm16.9195-13.9515c0-2.4936-2.0057-4.5239-4.4696-4.5239-2.4651 0-4.4708 2.0303-4.4708 4.5239 0 2.4937 2.0057 4.5228 4.4708 4.5228 2.4639 0 4.4696-2.0291 4.4696-4.5228Zm-7.8204-.0076c0-1.8764 1.5039-3.3971 3.3573-3.3971 1.8546 0 3.3585 1.5207 3.3585 3.3971 0 1.8763-1.5039 3.3972-3.3586 3.3972-1.8533 0-3.3573-1.5209-3.3573-3.3971l.0001-.0001Z" fill="#C6C6C6"/></svg>