<svg width="172" height="172" viewBox="0 0 172 172" fill="none" xmlns="http://www.w3.org/2000/svg">
<path fill-rule="evenodd" clip-rule="evenodd" d="M139.249 93.0233C139.535 90.7299 139.75 88.4366 139.75 85.9999C139.75 83.5633 139.535 81.2699 139.249 78.9766L154.37 67.1516C155.732 66.0766 156.09 64.1416 155.23 62.5649L140.897 37.7683C140.037 36.1916 138.102 35.6183 136.525 36.1916L118.68 43.3583C114.954 40.4916 110.94 38.1266 106.569 36.3349L103.845 17.3433C103.63 15.6233 102.125 14.3333 100.334 14.3333H71.667C69.8753 14.3333 68.3703 15.6233 68.1553 17.3433L65.432 36.3349C61.0603 38.1266 57.047 40.5633 53.3203 43.3583L35.4753 36.1916C33.827 35.5466 31.9636 36.1916 31.1036 37.7683L16.7703 62.5649C15.8386 64.1416 16.2686 66.0766 17.6303 67.1516L32.752 78.9766C32.4653 81.2699 32.2503 83.6349 32.2503 85.9999C32.2503 88.3649 32.4653 90.7299 32.752 93.0233L17.6303 104.848C16.2686 105.923 15.9103 107.858 16.7703 109.435L31.1036 134.232C31.9636 135.808 33.8986 136.382 35.4753 135.808L53.3203 128.642C57.047 131.508 61.0603 133.873 65.432 135.665L68.1553 154.657C68.3703 156.377 69.8753 157.667 71.667 157.667H100.334C102.125 157.667 103.63 156.377 103.845 154.657L106.569 135.665C110.94 133.873 114.954 131.437 118.68 128.642L136.525 135.808C138.174 136.453 140.037 135.808 140.897 134.232L155.23 109.435C156.09 107.858 155.732 105.923 154.37 104.848L139.249 93.0233ZM86.0003 111.083C72.1686 111.083 60.917 99.8316 60.917 85.9999C60.917 72.1683 72.1686 60.9166 86.0003 60.9166C99.832 60.9166 111.084 72.1683 111.084 85.9999C111.084 99.8316 99.832 111.083 86.0003 111.083Z" fill="url(#paint0_linear_259_9144)"/>
<defs>
<linearGradient id="paint0_linear_259_9144" x1="155.696" y1="14.3333" x2="-5.35998" y2="45.356" gradientUnits="userSpaceOnUse">
<stop stop-color="#FF3300"/>
<stop offset="1" stop-color="#FF0000"/>
</linearGradient>
</defs>
</svg>
