<svg width="48" height="48" viewBox="0 0 48 48" fill="none" xmlns="http://www.w3.org/2000/svg"><path d="m14.7793 26.0709 3.9524 10.9397s.4941 1.0236 1.0233 1.0236c.5291 0 8.3992-8.1874 8.3992-8.1874l8.7517-16.9039-21.9856 10.3042-.141 2.8238Z" fill="url(#a)"/><path d="m20.0201 28.8765-.7588 8.0635s-.3176 2.4708 2.1527 0c2.4702-2.4707 4.8346-4.376 4.8346-4.376"/><path d="m14.851 26.4613-8.1302-2.649s-.9716-.3942-.6587-1.2881c.0644-.1844.1943-.3412.583-.6108C8.4465 20.6578 39.988 9.3209 39.988 9.3209s.8906-.3001 1.4159-.1005a.7683.7683 0 0 1 .5233.5705c.0567.2347.0805.4763.0705.7176-.0025.2088-.0278.4023-.0469.7057-.1921 3.0995-5.941 26.2325-5.941 26.2325s-.3439 1.3537-1.5763 1.4a2.2569 2.2569 0 0 1-1.6448-.6362c-2.4183-2.0802-10.7767-7.6974-12.6237-8.9328a.3526.3526 0 0 1-.1515-.2499c-.0259-.1302.1157-.2915.1157-.2915s14.5542-12.9368 14.9415-14.2949c.03-.1052-.0833-.1571-.2354-.111-.9667.3556-17.724 10.938-19.5735 12.1059a.8916.8916 0 0 1-.4109.025Z"/><defs><linearGradient id="a" x1="14.7793" y1="12.9429" x2="37.6727" y2="13.6632" gradientUnits="userSpaceOnUse"><stop stop-color="#6B6B6B" stop-opacity=".54"/><stop offset="1" stop-color="#767676" stop-opacity=".4"/></linearGradient></defs></svg>