<svg width="49" height="48" viewBox="0 0 49 48" fill="none" xmlns="http://www.w3.org/2000/svg"><path fill-rule="evenodd" clip-rule="evenodd" d="M41.9513 14.7578c.2502-.8345 0-1.4477-1.1911-1.4477h-3.9384c-1.0014 0-1.463.5297-1.7134 1.1138 0 0-2.0028 4.8818-4.8401 8.0529-.9179.9179-1.3352 1.21-1.8359 1.21-.2503 0-.6127-.2921-.6127-1.1265v-7.8025c0-1.0014-.2906-1.4477-1.1252-1.4477h-6.189c-.6258 0-1.0021.4647-1.0021.9052 0 .9493 1.4185 1.1683 1.5648 3.8387v5.7997c0 1.2716-.2297 1.5021-.7304 1.5021-1.3351 0-4.5828-4.9036-6.5091-10.5146-.3774-1.0906-.7561-1.5311-1.7626-1.5311H8.1277c-1.1253 0-1.3504.5297-1.3504 1.1138 0 1.0431 1.3353 6.217 6.217 13.0598 3.2545 4.6732 7.8398 7.2063 12.0123 7.2063 2.5034 0 2.8131-.5626 2.8131-1.5317v-3.532c0-1.1252.2372-1.3498 1.03-1.3498.5841 0 1.5855.2921 3.9221 2.5452 2.6704 2.6704 3.1106 3.8683 4.6127 3.8683h3.9384c1.1252 0 1.6879-.5626 1.3633-1.6729-.3552-1.1066-1.6301-2.7122-3.3219-4.6154-.918-1.0849-2.2949-2.2531-2.7121-2.8374-.5842-.7509-.4173-1.0848 0-1.7523 0 0 4.7984-6.7594 5.2991-9.0542Z" fill="#C6C6C6"/></svg>