<?xml version="1.0" encoding="utf-8"?><svg xmlns="http://www.w3.org/2000/svg" xmlns:xlink="http://www.w3.org/1999/xlink"><symbol viewBox="0 0 29 16" id="arrow" xmlns="http://www.w3.org/2000/svg"><path d="M28.707 8.707a1 1 0 000-1.414L22.343.929a1 1 0 10-1.414 1.414L26.586 8l-5.657 5.657a1 1 0 001.414 1.414l6.364-6.364zM0 9h28V7H0v2z"/></symbol><symbol viewBox="0 0 22 24" id="cart" xmlns="http://www.w3.org/2000/svg"><path d="M15.667 10.833V6.167a4.665 4.665 0 00-7.967-3.3 4.667 4.667 0 00-1.367 3.3v4.666" stroke-width="1.75" stroke-linecap="round" stroke-linejoin="round"/><path d="M19.333 6.167H2.667l-1 16.333h18.666l-1-16.333z" stroke-width="1.75" stroke-linecap="round"/></symbol><symbol viewBox="0 0 19 15" id="category" xmlns="http://www.w3.org/2000/svg"><path d="M1 1.5h1m15 6h1m-17 6h1M7 1.5h11m-17 6h11m-5 6h11" stroke-width="2" stroke-linecap="round"/></symbol><symbol viewBox="0 0 12 9" id="check" xmlns="http://www.w3.org/2000/svg"><path d="M1.502 4.37a.886.886 0 00-1.21-.077.793.793 0 00-.08 1.155l3 3.273a.885.885 0 001.268.023l7.286-7.364a.792.792 0 00-.035-1.157.886.886 0 00-1.211.033L3.88 6.966 1.502 4.37z"/></symbol><symbol viewBox="0 0 20 20" id="checkbox-i" xmlns="http://www.w3.org/2000/svg"><path d="M2 2l17-1v17L1 19 2 2z" stroke-width="1.5"/><path d="M6.502 9.37a.886.886 0 00-1.21-.077.793.793 0 00-.08 1.155l3 3.273a.885.885 0 001.268.023l7.286-7.364a.792.792 0 00-.035-1.157.886.886 0 00-1.211.033l-6.639 6.71L6.502 9.37z"/></symbol><symbol viewBox="0 0 20 20" id="checkbox-o" xmlns="http://www.w3.org/2000/svg"><path d="M2 2l17-1v17L1 19 2 2z" stroke-width="1.5"/></symbol><symbol id="corner" viewBox="0 0 20 19" xmlns="http://www.w3.org/2000/svg"><defs><style>.gcls-1{fill:#fff}</style></defs><path class="gcls-1" d="M2.41 9.38l7.67-7.66 7.51 7.83-7.49 7.52-7.69-7.69z"/><path d="M10.07 3.15l6.12 6.39-6.1 6.11-6.26-6.27 6.24-6.23m0-2.86L1 9.38l9.1 9.1L19 9.56 10.1.29z"/><path class="gcls-1" d="M1 9.38h17.99v9.1H1z"/></symbol><symbol viewBox="0 0 17 17" id="cross" xmlns="http://www.w3.org/2000/svg"><path d="M1.782 1.782l13.435 13.435m0-13.435L1.782 15.217" stroke-width="2" stroke-linecap="round"/></symbol><symbol viewBox="0 0 10 7" id="drop-arr" xmlns="http://www.w3.org/2000/svg"><path d="M1 1l4 4 4-4" stroke-width="1.5"/></symbol><symbol viewBox="0 0 12 8" id="drop-arr-white" xmlns="http://www.w3.org/2000/svg"><path d="M1 1l5 5 5-5" stroke-width="1.5"/></symbol><symbol viewBox="0 0 24 22" id="hearth" xmlns="http://www.w3.org/2000/svg"><path d="M3.694 12.09C-2.515 5.926 5.791-2.317 12 3.845c6.209-6.162 14.515 2.081 8.305 8.245L12 20.333 3.694 12.09v0z" stroke-width="1.75" stroke-linecap="round"/></symbol><symbol viewBox="0 0 19 19" id="search" xmlns="http://www.w3.org/2000/svg"><path fill-rule="evenodd" clip-rule="evenodd" d="M0 7.512a7.512 7.512 0 1113.516 4.516l5.176 5.176a1.052 1.052 0 11-1.488 1.488l-5.176-5.176A7.512 7.512 0 010 7.512zm7.512-5.408a5.408 5.408 0 100 10.817 5.408 5.408 0 000-10.817z"/></symbol><symbol viewBox="0 0 10 16" id="slider-arr" xmlns="http://www.w3.org/2000/svg"><path d="M9 1L2 8l7 7" stroke-width="2"/></symbol><symbol viewBox="0 0 20 18" id="star" xmlns="http://www.w3.org/2000/svg"><path d="M10 1.737l1.96 5.487a.5.5 0 00.47.332h5.24l-4.077 2.985a.5.5 0 00-.185.54l1.554 5.44-4.673-3.31a.5.5 0 00-.578 0l-4.673 3.31 1.554-5.44a.5.5 0 00-.186-.54L2.33 7.556h5.24a.5.5 0 00.471-.332L10 1.737z" stroke-linecap="round" stroke-linejoin="round"/></symbol><symbol viewBox="0 0 20 18" id="star-fill" xmlns="http://www.w3.org/2000/svg"><path d="M10 .25l2.43 6.806h6.77l-5.311 3.888 1.944 6.806L10 13.619 4.167 17.75l1.944-6.806L.8 7.056h6.77L10 .25z"/></symbol><symbol viewBox="0 0 20 18" id="star-half" xmlns="http://www.w3.org/2000/svg"><path d="M10 1.737l1.96 5.487a.5.5 0 00.47.332h5.24l-4.077 2.985a.5.5 0 00-.185.54l1.554 5.44-4.673-3.31a.5.5 0 00-.578 0l-4.673 3.31 1.554-5.44a.5.5 0 00-.186-.54L2.33 7.556h5.24a.5.5 0 00.471-.332L10 1.737z" stroke-linecap="round" stroke-linejoin="round"/></symbol><symbol viewBox="0 0 24 24" id="user" xmlns="http://www.w3.org/2000/svg"><path d="M1.5 22.5a10.5 10.5 0 017.618-10.092m5.764 0A10.501 10.501 0 0122.5 22.5M12 13.167A5.833 5.833 0 1012 1.5a5.833 5.833 0 000 11.667z" stroke-width="1.75" stroke-linecap="round" stroke-linejoin="round"/></symbol></svg>