<svg id="svg" version="1.1" xmlns="http://www.w3.org/2000/svg" xmlns:xlink="http://www.w3.org/1999/xlink" width="400" height="400" viewBox="0, 0, 400,400"><g id="svgg"><path id="path0" d="M0.000 200.000 L 0.000 400.000 200.000 400.000 L 400.000 400.000 400.000 200.000 L 400.000 0.000 200.000 0.000 L 0.000 0.000 0.000 200.000 M198.600 26.771 C 203.275 27.044,204.610 27.271,206.681 28.146 C 208.695 28.997,210.052 29.240,213.881 29.439 C 219.037 29.706,222.373 30.382,224.813 31.653 C 225.728 32.131,228.042 32.692,230.322 32.990 C 234.045 33.476,236.800 34.402,236.800 35.167 C 236.800 35.690,237.926 36.043,240.742 36.406 C 242.493 36.631,243.919 37.127,245.324 38.001 C 246.478 38.718,248.301 39.421,249.524 39.620 C 251.702 39.975,252.315 40.291,253.829 41.840 C 254.323 42.345,255.454 42.807,256.629 42.983 C 258.958 43.333,259.917 43.779,261.000 45.017 C 261.440 45.521,262.833 46.222,264.098 46.577 C 265.609 47.000,266.608 47.546,267.018 48.171 C 267.384 48.730,268.494 49.400,269.715 49.800 C 270.856 50.173,272.468 51.091,273.296 51.839 C 274.124 52.588,275.086 53.200,275.432 53.200 C 275.778 53.200,276.623 53.762,277.310 54.448 C 277.996 55.134,279.377 56.047,280.379 56.476 C 281.380 56.905,282.716 57.783,283.347 58.428 C 283.979 59.073,284.735 59.600,285.029 59.600 C 285.322 59.600,286.133 60.310,286.830 61.178 C 287.528 62.046,288.635 62.943,289.290 63.171 C 289.945 63.400,291.227 64.335,292.140 65.249 C 293.053 66.164,295.150 67.954,296.800 69.228 C 298.450 70.502,300.456 72.231,301.259 73.072 C 302.061 73.912,304.913 76.760,307.597 79.400 C 310.281 82.040,313.091 85.151,313.842 86.314 C 314.594 87.477,315.483 88.534,315.819 88.663 C 316.155 88.791,316.706 89.431,317.043 90.083 C 317.380 90.735,318.249 91.844,318.974 92.548 C 319.698 93.252,320.417 94.222,320.569 94.704 C 320.722 95.185,321.386 95.962,322.043 96.431 C 322.701 96.899,323.522 97.989,323.868 98.853 C 324.213 99.717,324.852 100.614,325.286 100.846 C 325.720 101.078,326.507 102.210,327.033 103.360 C 327.560 104.511,328.459 105.890,329.030 106.426 C 329.602 106.962,330.333 108.028,330.654 108.795 C 330.975 109.562,331.567 110.552,331.970 110.995 C 333.954 113.179,333.908 116.015,331.872 117.063 C 331.172 117.423,329.926 118.292,329.103 118.995 C 328.280 119.697,326.888 120.487,326.010 120.750 C 325.131 121.013,324.217 121.594,323.978 122.040 C 323.739 122.487,322.719 123.206,321.711 123.638 C 320.703 124.070,319.273 124.956,318.532 125.606 C 317.791 126.256,316.694 126.903,316.093 127.044 C 315.492 127.184,314.280 127.973,313.400 128.797 C 312.520 129.621,311.197 130.495,310.461 130.740 C 309.725 130.985,308.503 131.729,307.747 132.393 C 306.991 133.057,306.021 133.600,305.591 133.600 C 305.161 133.600,304.133 134.320,303.305 135.199 C 300.654 138.017,297.731 137.460,296.241 133.854 C 295.890 133.004,295.062 131.693,294.401 130.940 C 293.741 130.188,293.200 129.285,293.200 128.933 C 293.200 128.582,292.615 127.733,291.900 127.047 C 291.185 126.361,290.340 125.297,290.022 124.681 C 289.705 124.066,288.860 122.880,288.146 122.046 C 287.432 121.211,286.727 120.049,286.580 119.463 C 286.433 118.877,285.612 117.843,284.756 117.165 C 283.900 116.487,283.200 115.768,283.200 115.567 C 283.200 114.591,265.521 97.200,264.530 97.200 C 264.265 97.200,263.233 96.494,262.235 95.630 C 261.238 94.767,260.012 93.934,259.511 93.778 C 259.010 93.623,257.839 92.799,256.909 91.948 C 255.979 91.097,254.953 90.400,254.629 90.400 C 254.306 90.400,253.574 89.789,253.005 89.042 C 252.292 88.107,251.510 87.597,250.498 87.407 C 248.465 87.026,247.039 86.225,246.250 85.020 C 245.882 84.459,245.271 83.999,244.891 83.998 C 243.378 83.993,241.226 83.128,239.948 82.011 C 238.988 81.173,238.007 80.759,236.538 80.576 C 234.918 80.373,234.202 80.034,233.190 78.990 C 232.183 77.951,231.457 77.605,229.851 77.399 C 226.389 76.955,224.670 76.368,223.293 75.159 C 222.563 74.519,221.486 73.989,220.886 73.975 C 216.912 73.883,213.150 73.235,211.179 72.303 C 208.400 70.989,207.544 70.845,199.800 70.394 C 196.280 70.189,192.140 69.845,190.600 69.631 C 186.997 69.129,178.039 69.143,175.200 69.655 C 173.990 69.873,169.850 70.212,166.000 70.409 C 158.714 70.780,156.671 71.146,154.517 72.460 C 153.658 72.985,151.942 73.374,149.317 73.637 C 144.474 74.124,143.791 74.266,143.128 74.927 C 141.850 76.201,140.375 76.806,137.591 77.201 C 135.055 77.561,134.399 77.824,133.204 78.962 C 132.145 79.971,131.314 80.362,129.818 80.553 C 128.483 80.724,127.491 81.138,126.776 81.823 C 126.193 82.381,124.586 83.180,123.204 83.599 C 121.660 84.066,120.249 84.812,119.544 85.533 C 118.893 86.198,117.618 86.902,116.596 87.159 C 115.475 87.442,114.381 88.077,113.700 88.842 C 113.097 89.518,111.974 90.335,111.202 90.657 C 110.431 90.979,109.350 91.663,108.800 92.177 C 108.250 92.691,107.080 93.477,106.200 93.923 C 105.320 94.369,104.377 95.103,104.104 95.554 C 103.832 96.006,103.044 96.667,102.354 97.024 C 101.663 97.381,100.444 98.332,99.644 99.137 C 98.844 99.941,96.482 102.130,94.395 104.000 C 90.334 107.640,89.047 108.925,85.600 112.783 C 84.390 114.137,82.846 115.820,82.170 116.523 C 81.493 117.225,80.545 118.457,80.062 119.260 C 79.579 120.063,78.931 120.818,78.621 120.937 C 78.312 121.055,77.713 121.935,77.290 122.890 C 76.867 123.846,76.025 125.162,75.419 125.814 C 74.813 126.466,73.994 127.630,73.598 128.400 C 73.202 129.170,72.428 130.220,71.877 130.734 C 71.327 131.248,70.769 132.241,70.637 132.942 C 70.506 133.643,69.694 135.069,68.834 136.110 C 67.845 137.307,67.168 138.607,66.992 139.648 C 66.819 140.672,66.216 141.844,65.394 142.753 C 64.432 143.819,63.958 144.845,63.644 146.547 C 63.351 148.133,62.840 149.305,62.050 150.205 C 61.156 151.223,60.821 152.093,60.604 153.967 C 60.418 155.566,59.970 156.920,59.301 157.902 C 57.740 160.194,57.201 161.775,57.190 164.087 C 57.177 166.967,56.542 169.525,55.426 171.200 C 54.186 173.059,54.125 173.416,53.579 182.000 C 53.321 186.070,52.862 190.120,52.560 191.000 C 51.778 193.283,51.776 207.763,52.559 209.651 C 52.899 210.472,53.298 214.055,53.577 218.800 C 54.028 226.451,54.493 229.600,55.172 229.600 C 55.859 229.600,56.838 232.983,57.181 236.544 C 57.592 240.802,57.758 241.330,59.270 243.191 C 59.952 244.030,60.401 245.062,60.402 245.791 C 60.406 247.676,61.115 249.776,62.157 250.989 C 62.681 251.599,63.397 253.264,63.749 254.689 C 64.156 256.341,64.818 257.771,65.574 258.632 C 66.227 259.375,66.880 260.621,67.027 261.401 C 67.173 262.181,67.947 263.856,68.746 265.122 C 69.546 266.389,70.543 268.095,70.963 268.913 C 71.383 269.731,71.885 270.400,72.080 270.400 C 72.275 270.400,72.954 271.499,73.589 272.843 C 74.225 274.187,75.118 275.548,75.575 275.867 C 76.031 276.187,76.699 277.023,77.058 277.724 C 77.417 278.426,78.158 279.450,78.705 280.000 C 79.251 280.550,80.282 281.900,80.996 283.000 C 81.710 284.100,83.283 285.990,84.491 287.200 C 85.699 288.410,86.996 290.001,87.372 290.735 C 87.749 291.469,88.577 292.369,89.214 292.734 C 89.850 293.099,90.601 293.829,90.883 294.356 C 91.165 294.883,92.069 295.739,92.891 296.258 C 93.714 296.777,95.605 298.347,97.093 299.747 C 98.582 301.147,100.520 302.659,101.400 303.106 C 102.280 303.554,103.410 304.478,103.912 305.160 C 104.414 305.842,105.075 306.400,105.381 306.400 C 105.688 306.400,106.493 306.955,107.171 307.633 C 107.849 308.311,109.255 309.318,110.294 309.871 C 111.334 310.423,112.630 311.321,113.173 311.864 C 113.717 312.408,114.663 312.953,115.277 313.075 C 115.891 313.198,117.011 313.882,117.766 314.594 C 118.530 315.315,119.922 316.087,120.900 316.333 C 121.868 316.577,123.341 317.317,124.172 317.978 C 125.004 318.639,126.334 319.301,127.128 319.450 C 127.921 319.599,129.298 320.138,130.186 320.648 C 133.453 322.524,135.030 323.183,136.274 323.191 C 137.972 323.203,139.267 323.730,140.572 324.939 C 141.654 325.942,142.450 326.147,147.122 326.625 C 148.785 326.796,150.420 327.299,151.922 328.102 C 154.002 329.214,154.677 329.349,159.689 329.658 C 162.708 329.844,165.948 330.265,166.889 330.592 C 167.830 330.920,169.308 331.191,170.174 331.194 C 171.039 331.197,172.540 331.583,173.508 332.052 C 175.842 333.182,191.227 333.044,193.577 331.872 C 194.317 331.502,195.570 331.198,196.361 331.196 C 197.153 331.193,198.700 330.910,199.800 330.566 C 200.900 330.222,204.064 329.794,206.832 329.615 C 211.253 329.329,212.176 329.140,214.432 328.056 C 216.238 327.189,218.008 326.710,220.400 326.440 C 224.043 326.030,226.000 325.464,226.000 324.820 C 226.000 324.171,228.250 323.200,229.754 323.200 C 231.473 323.200,233.136 322.594,234.230 321.570 C 234.686 321.142,236.503 320.287,238.267 319.670 C 240.032 319.052,241.879 318.172,242.371 317.713 C 242.864 317.254,244.056 316.680,245.019 316.437 C 245.983 316.194,247.183 315.554,247.686 315.013 C 248.189 314.473,249.389 313.754,250.352 313.415 C 251.316 313.076,252.793 312.177,253.634 311.417 C 254.476 310.657,255.859 309.680,256.709 309.247 C 257.558 308.813,258.497 308.165,258.795 307.806 C 259.093 307.447,259.976 306.887,260.757 306.560 C 261.539 306.234,262.691 305.344,263.318 304.583 C 263.945 303.822,264.695 303.200,264.985 303.200 C 265.274 303.200,267.066 301.670,268.965 299.800 C 270.865 297.930,272.602 296.400,272.826 296.400 C 273.049 296.400,274.462 295.245,275.965 293.833 C 277.717 292.187,279.253 291.112,280.244 290.839 C 281.928 290.374,281.432 290.054,285.907 294.486 C 290.302 298.838,295.416 303.942,295.941 304.500 C 296.304 304.885,297.545 306.182,298.700 307.383 C 299.855 308.583,300.800 309.766,300.800 310.012 C 300.800 310.258,302.283 311.986,304.096 313.851 C 308.234 318.109,308.154 317.946,307.394 320.562 C 306.891 322.291,306.478 322.911,305.404 323.544 C 304.659 323.984,303.764 324.896,303.415 325.572 C 303.065 326.247,302.624 326.800,302.434 326.800 C 302.114 326.800,297.155 331.388,293.400 335.158 C 292.520 336.042,291.096 337.057,290.235 337.415 C 289.374 337.772,288.073 338.680,287.342 339.432 C 286.612 340.185,285.754 340.800,285.436 340.800 C 285.118 340.800,284.526 341.222,284.121 341.737 C 283.716 342.252,282.639 343.144,281.728 343.719 C 280.817 344.294,279.626 345.210,279.082 345.755 C 278.537 346.299,277.306 346.954,276.346 347.211 C 275.245 347.505,274.213 348.144,273.551 348.941 C 272.944 349.673,271.655 350.510,270.489 350.929 C 269.382 351.327,268.160 352.002,267.774 352.428 C 267.389 352.855,266.360 353.395,265.488 353.630 C 264.616 353.865,263.430 354.575,262.851 355.208 C 262.162 355.962,261.017 356.562,259.528 356.950 C 257.026 357.601,255.996 358.079,254.200 359.421 C 253.540 359.914,251.981 360.526,250.736 360.780 C 249.380 361.057,248.048 361.635,247.415 362.221 C 246.834 362.759,246.323 363.206,246.279 363.214 C 240.978 364.146,239.781 364.462,239.052 365.125 C 237.589 366.455,236.334 366.907,233.217 367.226 C 230.030 367.551,229.175 367.834,226.600 369.408 C 225.532 370.062,224.398 370.389,223.190 370.393 C 219.705 370.406,214.574 371.233,211.600 372.260 C 207.591 373.646,195.218 374.162,174.600 373.803 C 159.364 373.538,156.916 373.302,152.415 371.662 C 151.058 371.167,148.632 370.767,146.015 370.607 C 141.423 370.325,140.170 369.998,137.908 368.494 C 136.783 367.747,135.574 367.417,132.997 367.156 C 129.777 366.829,127.200 365.984,127.200 365.254 C 127.200 364.709,125.444 364.088,123.060 363.790 C 121.614 363.609,120.185 363.102,119.099 362.384 C 118.164 361.766,116.500 361.037,115.400 360.765 C 114.300 360.493,112.353 359.595,111.072 358.769 C 109.619 357.831,108.027 357.169,106.833 357.005 C 105.370 356.803,104.620 356.423,103.642 355.385 C 102.882 354.580,101.801 353.924,100.981 353.770 C 100.222 353.628,98.842 352.911,97.915 352.178 C 96.988 351.444,95.773 350.732,95.215 350.595 C 94.657 350.458,93.570 349.743,92.800 349.006 C 92.030 348.269,90.640 347.466,89.711 347.221 C 88.572 346.920,87.684 346.333,86.987 345.418 C 86.418 344.672,85.405 343.871,84.736 343.638 C 84.068 343.405,83.043 342.744,82.460 342.170 C 81.376 341.102,78.338 338.922,76.214 337.689 C 75.562 337.310,74.203 336.190,73.193 335.200 C 72.184 334.210,70.557 332.719,69.579 331.887 C 67.591 330.197,67.725 330.322,65.833 328.400 C 65.074 327.630,64.127 326.680,63.727 326.290 C 63.327 325.899,61.894 324.436,60.543 323.037 C 59.191 321.639,57.931 320.429,57.743 320.348 C 57.554 320.266,56.905 319.537,56.300 318.727 C 55.695 317.917,54.869 317.149,54.464 317.020 C 54.059 316.892,53.474 316.304,53.164 315.713 C 52.854 315.123,51.369 313.371,49.864 311.820 C 48.358 310.269,46.849 308.460,46.508 307.800 C 46.168 307.140,45.375 306.010,44.747 305.289 C 44.119 304.568,43.240 303.263,42.794 302.389 C 42.349 301.515,41.805 300.800,41.587 300.800 C 41.369 300.800,40.581 299.847,39.836 298.683 C 39.091 297.518,38.203 296.334,37.863 296.052 C 37.522 295.769,36.947 294.645,36.585 293.554 C 36.216 292.444,35.517 291.302,34.998 290.962 C 34.488 290.628,33.560 289.150,32.935 287.678 C 32.311 286.207,31.474 284.676,31.075 284.277 C 30.676 283.877,30.027 282.796,29.632 281.875 C 29.236 280.954,28.448 279.516,27.881 278.680 C 27.313 277.844,26.639 276.152,26.384 274.921 C 26.102 273.567,25.544 272.307,24.969 271.732 C 23.677 270.441,23.367 269.774,22.822 267.126 C 22.541 265.759,21.893 264.271,21.197 263.396 C 20.468 262.479,19.947 261.249,19.788 260.070 C 19.416 257.319,18.834 255.578,17.743 253.959 C 17.005 252.862,16.676 251.620,16.368 248.759 C 16.080 246.090,15.735 244.710,15.178 244.000 C 13.861 242.322,13.565 241.198,13.178 236.408 C 12.773 231.389,12.130 227.391,11.554 226.315 C 8.893 221.339,8.675 181.197,11.282 176.200 C 12.142 174.552,12.700 171.375,13.004 166.400 C 13.327 161.102,13.791 158.965,14.999 157.200 C 15.826 155.993,16.800 151.322,16.800 148.565 C 16.800 148.315,17.324 147.451,17.964 146.646 C 18.742 145.667,19.222 144.491,19.414 143.099 C 19.800 140.293,20.591 138.164,21.766 136.768 C 22.421 135.989,22.835 134.860,23.026 133.327 C 23.253 131.513,23.577 130.772,24.606 129.713 C 25.571 128.719,26.022 127.760,26.379 125.943 C 26.684 124.396,27.200 123.164,27.790 122.573 C 28.303 122.061,29.013 120.767,29.368 119.697 C 29.723 118.627,30.616 117.114,31.352 116.334 C 32.159 115.478,32.802 114.298,32.974 113.358 C 33.157 112.354,33.801 111.231,34.786 110.200 C 35.627 109.320,36.445 108.150,36.606 107.600 C 37.009 106.217,40.309 101.278,41.893 99.687 C 42.612 98.964,43.200 98.115,43.200 97.799 C 43.200 97.483,43.743 96.822,44.408 96.331 C 45.072 95.840,46.043 94.530,46.566 93.419 C 47.088 92.309,48.678 90.229,50.097 88.797 C 51.517 87.366,52.981 85.611,53.350 84.897 C 53.719 84.184,54.184 83.600,54.384 83.600 C 54.583 83.600,56.694 81.614,59.073 79.187 C 61.453 76.759,63.723 74.464,64.118 74.087 C 64.512 73.709,65.775 72.500,66.925 71.400 C 68.074 70.300,69.805 68.770,70.770 68.000 C 71.736 67.230,73.083 66.037,73.763 65.348 C 74.443 64.659,75.945 63.621,77.100 63.041 C 78.255 62.461,79.200 61.827,79.200 61.631 C 79.200 61.435,80.036 60.722,81.057 60.045 C 82.078 59.369,83.170 58.449,83.484 58.002 C 83.797 57.554,84.716 56.912,85.527 56.574 C 86.337 56.236,87.540 55.450,88.200 54.827 C 88.860 54.204,90.049 53.488,90.841 53.236 C 91.634 52.983,92.711 52.320,93.235 51.763 C 94.181 50.756,95.694 49.926,97.585 49.378 C 98.126 49.221,99.086 48.575,99.718 47.944 C 100.352 47.309,101.679 46.590,102.680 46.338 C 103.678 46.087,105.009 45.378,105.639 44.762 C 106.773 43.653,108.960 42.807,110.700 42.802 C 111.195 42.801,111.995 42.395,112.478 41.900 C 114.034 40.306,115.366 39.605,116.844 39.603 C 117.713 39.601,118.863 39.210,119.730 38.622 C 122.073 37.032,122.566 36.844,125.630 36.368 C 127.810 36.030,128.915 35.624,129.977 34.771 C 131.179 33.805,132.076 33.532,135.748 33.016 C 138.471 32.634,140.572 32.112,141.371 31.618 C 143.197 30.489,146.959 29.600,149.907 29.600 C 153.310 29.600,157.601 28.904,160.349 27.905 C 163.967 26.591,184.894 25.970,198.600 26.771 M189.074 102.447 C 189.693 102.693,193.746 103.112,198.079 103.378 C 205.600 103.840,206.029 103.911,207.514 104.940 C 209.385 106.237,211.203 106.800,213.517 106.800 C 215.304 106.800,217.092 107.506,217.963 108.555 C 218.240 108.889,219.487 109.459,220.734 109.820 C 221.980 110.182,223.990 111.073,225.200 111.801 C 226.410 112.529,228.081 113.338,228.914 113.598 C 229.747 113.858,230.698 114.484,231.028 114.987 C 231.369 115.507,232.658 116.279,234.011 116.772 C 235.321 117.250,236.572 117.974,236.790 118.382 C 237.009 118.790,238.045 119.687,239.094 120.375 C 243.153 123.039,245.023 124.343,245.600 124.909 C 245.930 125.233,248.036 127.366,250.281 129.649 C 252.525 131.932,254.775 134.194,255.281 134.675 C 255.786 135.156,256.880 136.416,257.710 137.475 C 258.541 138.534,260.028 140.390,261.015 141.600 C 262.002 142.810,263.074 144.370,263.396 145.067 C 263.719 145.763,264.509 146.708,265.151 147.165 C 265.981 147.756,266.455 148.563,266.788 149.951 C 267.081 151.171,267.702 152.332,268.443 153.041 C 269.144 153.713,269.882 155.048,270.247 156.303 C 270.587 157.473,271.299 158.897,271.829 159.469 C 272.840 160.560,273.594 162.680,273.598 164.444 C 273.599 165.077,274.128 166.048,274.939 166.908 C 276.053 168.089,276.359 168.829,276.758 171.302 C 277.022 172.938,277.510 174.664,277.842 175.138 L 278.445 176.000 331.923 176.017 C 386.074 176.035,388.269 176.091,389.672 177.494 C 391.355 179.177,391.373 179.643,391.510 224.200 C 391.660 272.832,391.717 271.840,388.688 273.496 C 386.715 274.574,353.767 274.802,350.295 273.761 C 346.742 272.696,347.024 274.822,346.800 247.421 C 346.563 218.390,347.009 220.800,341.867 220.800 C 335.750 220.800,336.000 219.668,336.000 247.390 L 336.000 269.480 334.808 271.126 C 332.464 274.361,333.647 274.185,313.349 274.322 L 295.261 274.445 293.215 273.408 C 290.292 271.927,290.400 272.901,290.400 247.920 C 290.400 219.242,290.713 220.608,284.200 220.890 C 278.416 221.142,276.803 222.367,276.798 226.514 C 276.795 228.752,276.130 231.043,275.235 231.903 C 274.209 232.888,273.762 233.885,273.240 236.356 C 272.966 237.653,272.342 239.016,271.676 239.775 C 271.030 240.511,270.336 242.000,270.014 243.341 C 269.610 245.028,269.167 245.854,268.360 246.429 C 267.754 246.860,267.043 247.885,266.781 248.707 C 266.519 249.528,265.796 250.740,265.173 251.400 C 264.550 252.060,263.749 253.299,263.393 254.153 C 263.037 255.007,262.173 256.280,261.473 256.982 C 260.773 257.684,259.300 259.378,258.200 260.747 C 257.100 262.116,255.705 263.503,255.100 263.829 C 254.495 264.154,254.000 264.588,254.000 264.793 C 254.000 264.998,252.065 267.048,249.700 269.348 C 241.959 276.879,238.609 279.735,236.470 280.628 C 235.668 280.964,234.648 281.569,234.205 281.974 C 233.762 282.379,232.662 283.080,231.761 283.532 C 230.860 283.984,229.825 284.808,229.461 285.363 C 228.954 286.137,228.327 286.435,226.778 286.641 C 225.648 286.791,224.193 287.322,223.478 287.846 C 221.796 289.079,221.109 289.391,217.919 290.373 C 216.445 290.827,214.574 291.649,213.763 292.199 C 212.867 292.807,211.721 293.201,210.844 293.203 C 208.085 293.209,204.189 294.029,202.271 295.007 C 197.048 297.673,169.915 297.637,164.791 294.957 C 163.371 294.215,161.674 293.809,158.445 293.439 C 154.914 293.035,153.737 292.733,152.519 291.914 C 151.684 291.352,149.656 290.494,148.012 290.008 C 146.369 289.522,144.526 288.704,143.917 288.192 C 143.308 287.679,141.809 286.969,140.587 286.613 C 139.364 286.258,138.057 285.598,137.682 285.147 C 137.307 284.695,136.100 283.922,135.000 283.428 C 133.900 282.934,132.737 282.211,132.416 281.822 C 132.095 281.434,130.895 280.701,129.749 280.195 C 128.604 279.688,127.365 278.814,126.998 278.252 C 126.630 277.691,125.953 277.112,125.494 276.966 C 124.840 276.759,117.426 269.826,114.000 266.218 C 113.670 265.870,112.181 264.332,110.692 262.799 C 109.202 261.266,107.546 259.367,107.011 258.579 C 106.477 257.791,105.584 256.788,105.028 256.351 C 104.473 255.914,103.658 254.741,103.217 253.745 C 102.776 252.749,101.962 251.395,101.408 250.737 C 100.854 250.078,100.400 249.298,100.400 249.003 C 100.400 248.708,99.692 247.707,98.826 246.779 C 97.749 245.624,97.166 244.572,96.979 243.446 C 96.651 241.470,95.947 240.038,94.857 239.125 C 94.357 238.708,93.868 237.522,93.570 236.011 C 93.303 234.654,92.570 232.785,91.917 231.800 C 91.105 230.574,90.627 229.194,90.364 227.314 C 89.863 223.726,88.953 220.209,88.238 219.098 C 87.083 217.300,86.800 213.446,86.808 199.627 C 86.817 184.465,87.031 181.915,88.579 178.533 C 89.157 177.270,89.869 174.604,90.179 172.538 C 90.619 169.611,90.994 168.452,91.937 167.108 C 92.716 165.997,93.230 164.663,93.406 163.292 C 93.608 161.722,93.973 160.889,94.836 160.026 C 96.094 158.768,96.800 157.265,96.800 155.846 C 96.800 155.350,97.385 154.234,98.100 153.367 C 99.680 151.449,100.400 150.210,100.400 149.407 C 100.400 149.074,100.992 148.127,101.717 147.301 C 102.441 146.476,103.242 145.315,103.498 144.721 C 103.754 144.128,104.431 143.336,105.003 142.961 C 105.575 142.587,106.348 141.698,106.721 140.986 C 108.154 138.256,120.711 125.221,123.755 123.306 C 125.469 122.226,127.440 120.708,129.993 118.501 C 130.819 117.786,132.259 116.932,133.193 116.603 C 134.126 116.273,135.498 115.470,136.240 114.819 C 136.982 114.167,138.272 113.450,139.105 113.226 C 139.939 113.001,141.229 112.369,141.972 111.821 C 142.714 111.273,144.463 110.445,145.857 109.981 C 147.251 109.517,148.495 108.969,148.623 108.763 C 149.140 107.926,151.946 106.897,154.259 106.697 C 155.611 106.579,157.163 106.240,157.708 105.942 C 158.253 105.644,159.307 105.052,160.050 104.627 C 161.152 103.996,162.648 103.790,168.200 103.505 C 171.940 103.312,175.810 102.912,176.800 102.616 C 179.027 101.949,187.524 101.832,189.074 102.447 M175.800 148.210 C 174.480 148.776,171.438 149.584,169.039 150.007 C 165.904 150.560,164.266 151.061,163.212 151.792 C 162.406 152.350,160.778 153.058,159.594 153.366 C 158.157 153.738,157.102 154.316,156.421 155.102 C 155.859 155.751,154.574 156.582,153.565 156.949 C 152.556 157.316,151.369 158.018,150.927 158.508 C 150.485 158.999,149.714 159.670,149.213 160.000 C 148.132 160.712,147.403 161.389,146.709 162.327 C 146.429 162.705,145.697 163.335,145.082 163.728 C 144.467 164.121,143.804 164.862,143.609 165.376 C 143.413 165.891,142.727 166.916,142.083 167.656 C 141.439 168.395,140.524 169.885,140.049 170.967 C 139.574 172.050,138.834 173.181,138.404 173.482 C 137.660 174.003,137.469 174.512,136.377 178.880 C 136.119 179.914,135.575 181.061,135.169 181.428 C 134.093 182.402,133.642 184.107,133.217 188.813 C 133.009 191.116,132.614 194.396,132.339 196.102 C 131.915 198.739,131.940 199.938,132.505 204.102 C 132.870 206.796,133.286 210.440,133.427 212.200 C 133.692 215.488,134.334 217.336,135.347 217.724 C 135.679 217.852,136.202 219.187,136.580 220.873 C 136.958 222.559,137.709 224.478,138.352 225.400 C 138.966 226.280,139.891 227.765,140.408 228.700 C 140.925 229.635,141.492 230.400,141.669 230.400 C 141.845 230.400,142.418 231.075,142.941 231.900 C 144.020 233.602,149.335 239.092,150.782 240.000 C 151.308 240.330,152.382 241.157,153.169 241.838 C 153.956 242.518,155.203 243.280,155.939 243.530 C 156.675 243.781,157.876 244.511,158.607 245.153 C 159.820 246.217,162.769 247.200,164.750 247.200 C 165.141 247.200,165.884 247.650,166.401 248.201 C 169.596 251.602,196.371 251.652,200.397 248.264 C 201.144 247.635,202.332 247.176,203.683 246.994 C 206.060 246.673,206.952 246.299,208.400 245.017 C 208.950 244.530,210.257 243.816,211.305 243.431 C 212.352 243.046,213.383 242.406,213.595 242.009 C 213.808 241.612,214.751 240.830,215.691 240.273 C 217.861 238.985,221.815 235.113,223.225 232.893 C 223.821 231.955,224.767 230.827,225.326 230.387 C 225.885 229.947,226.542 228.982,226.786 228.242 C 227.030 227.502,227.575 226.584,227.997 226.202 C 228.962 225.329,229.485 222.225,228.805 221.406 C 228.387 220.902,224.105 220.804,198.370 220.710 L 168.422 220.600 167.539 219.717 C 165.321 217.499,165.201 216.406,165.200 198.550 L 165.200 182.100 166.158 179.934 C 166.685 178.743,167.365 177.561,167.670 177.308 C 168.251 176.825,173.920 176.660,209.200 176.097 C 228.076 175.796,229.362 175.684,228.242 174.446 C 227.906 174.075,227.282 172.649,226.855 171.278 C 226.017 168.585,224.930 167.109,220.600 162.790 C 216.120 158.321,215.484 157.800,213.592 157.050 C 212.606 156.660,211.260 155.835,210.600 155.218 C 209.156 153.868,208.249 153.398,206.410 153.048 C 205.645 152.903,204.340 152.313,203.509 151.737 C 202.379 150.954,200.900 150.509,197.634 149.971 C 195.078 149.550,192.551 148.872,191.535 148.334 C 188.718 146.843,179.166 146.768,175.800 148.210 " stroke="none" fill="#b62648" fill-rule="evenodd"></path><path id="path1" d="M172.000 28.247 C 168.804 28.571,164.960 29.358,164.400 29.802 C 163.232 30.729,162.121 30.889,154.710 31.199 C 147.530 31.499,147.171 31.553,146.033 32.510 C 144.644 33.680,142.304 34.256,137.600 34.588 C 134.962 34.773,134.065 34.994,133.600 35.570 C 132.557 36.863,130.403 37.661,127.339 37.893 C 124.673 38.095,124.290 38.231,123.579 39.230 C 122.663 40.515,121.216 41.056,117.669 41.438 C 115.525 41.669,115.085 41.851,114.788 42.631 C 114.321 43.859,113.467 44.255,110.576 44.585 C 108.390 44.834,108.110 44.972,107.723 45.999 C 107.277 47.180,105.413 47.993,103.140 47.998 C 102.356 47.999,101.867 48.360,101.266 49.377 C 100.668 50.391,100.018 50.872,98.801 51.200 C 97.892 51.444,96.336 52.265,95.344 53.022 C 94.351 53.780,93.120 54.400,92.609 54.400 C 91.976 54.400,91.424 54.833,90.880 55.754 C 90.296 56.744,89.558 57.286,88.140 57.767 C 85.936 58.515,85.062 59.102,84.696 60.079 C 84.556 60.453,83.712 60.954,82.821 61.194 C 81.672 61.504,81.200 61.845,81.200 62.366 C 81.200 63.272,80.539 63.849,79.084 64.215 C 78.431 64.379,77.722 64.976,77.367 65.664 C 77.034 66.308,76.275 67.049,75.681 67.311 C 75.086 67.573,73.838 68.559,72.906 69.502 C 71.975 70.446,70.675 71.325,70.018 71.456 C 69.224 71.615,68.553 72.152,68.021 73.054 C 67.580 73.801,66.762 74.586,66.203 74.799 C 65.643 75.012,65.013 75.639,64.803 76.193 C 64.592 76.746,63.863 77.538,63.183 77.952 C 62.503 78.366,61.643 79.311,61.273 80.052 C 60.854 80.892,60.253 81.449,59.679 81.531 C 59.094 81.614,58.521 82.159,58.107 83.027 C 57.749 83.777,57.092 84.507,56.647 84.649 C 55.537 85.001,54.982 85.620,54.673 86.853 C 54.406 87.916,52.232 90.592,49.476 93.251 C 48.638 94.060,47.816 95.234,47.651 95.861 C 47.447 96.631,46.872 97.228,45.875 97.703 C 44.738 98.245,44.400 98.643,44.400 99.437 C 44.400 100.108,43.922 100.891,43.030 101.681 C 42.196 102.420,41.455 103.589,41.135 104.673 C 40.767 105.922,40.234 106.685,39.348 107.232 C 38.462 107.780,38.008 108.430,37.823 109.420 C 37.670 110.232,36.966 111.439,36.158 112.270 C 35.388 113.063,34.652 114.272,34.522 114.956 C 34.178 116.777,33.667 117.594,32.625 117.990 C 31.908 118.263,31.636 118.766,31.417 120.223 C 31.022 122.857,30.461 123.900,29.203 124.339 C 28.201 124.688,28.099 124.927,27.903 127.378 C 27.679 130.164,26.890 131.600,25.585 131.600 C 25.026 131.600,24.838 132.118,24.607 134.300 C 24.271 137.468,23.698 138.983,22.253 140.521 C 21.385 141.445,21.200 142.019,21.200 143.795 C 21.200 146.384,20.740 147.707,19.250 149.404 C 18.248 150.545,18.101 151.083,17.871 154.441 C 17.551 159.114,17.028 161.008,15.689 162.348 C 14.667 163.369,14.637 163.553,14.358 170.396 C 14.069 177.511,13.557 180.222,12.099 182.376 C 10.899 184.149,11.071 218.271,12.287 219.487 C 13.807 221.007,14.127 223.442,14.787 238.500 C 14.794 238.665,15.080 238.800,15.422 238.800 C 16.475 238.800,17.567 241.994,17.829 245.842 C 18.122 250.139,18.605 251.884,19.588 252.196 C 20.577 252.510,20.829 253.240,21.219 256.918 C 21.500 259.570,21.732 260.245,22.769 261.426 C 24.044 262.878,24.201 263.327,24.580 266.600 C 24.707 267.700,25.023 268.672,25.283 268.759 C 26.612 269.207,27.540 270.783,27.806 273.046 C 28.045 275.077,28.276 275.567,29.492 276.618 C 30.684 277.648,30.932 278.156,31.101 279.908 C 31.277 281.738,31.455 282.071,32.629 282.764 C 33.768 283.436,34.029 283.892,34.456 285.957 C 34.878 288.001,35.123 288.437,36.074 288.831 C 36.891 289.169,37.312 289.730,37.628 290.903 C 37.872 291.810,38.647 293.064,39.405 293.779 C 40.253 294.578,40.918 295.713,41.203 296.847 C 41.551 298.230,41.908 298.741,42.745 299.057 C 43.531 299.353,43.970 299.924,44.325 301.107 C 44.685 302.310,45.054 302.780,45.708 302.873 C 46.346 302.964,46.907 303.643,47.675 305.255 C 48.266 306.495,49.295 307.898,49.960 308.372 C 50.747 308.932,51.261 309.717,51.429 310.617 C 51.607 311.563,51.908 312.000,52.383 312.000 C 53.249 312.000,54.218 313.086,54.530 314.406 C 54.683 315.051,55.214 315.581,56.009 315.881 C 56.789 316.175,57.417 316.792,57.699 317.538 C 58.002 318.340,58.547 318.841,59.374 319.077 C 60.281 319.336,60.717 319.784,61.048 320.801 C 61.389 321.846,61.799 322.253,62.761 322.502 C 63.737 322.755,64.081 323.104,64.266 324.032 C 64.444 324.918,64.870 325.385,65.885 325.810 C 66.757 326.174,67.426 326.815,67.704 327.551 C 68.021 328.392,68.561 328.841,69.642 329.165 C 70.792 329.510,71.196 329.873,71.384 330.728 C 71.561 331.535,71.977 331.947,72.890 332.221 C 73.638 332.446,74.416 333.084,74.803 333.791 C 75.279 334.660,76.119 335.235,77.909 335.919 C 79.509 336.530,80.453 337.138,80.621 337.665 C 80.762 338.109,81.509 338.737,82.282 339.060 C 83.183 339.436,83.847 340.069,84.131 340.822 C 84.463 341.703,84.911 342.060,85.924 342.250 C 86.729 342.401,87.771 343.049,88.505 343.856 C 89.207 344.626,90.439 345.409,91.368 345.674 C 93.355 346.241,93.978 346.691,94.432 347.884 C 94.660 348.484,95.108 348.800,95.730 348.800 C 97.222 348.800,99.334 349.656,100.093 350.568 C 100.474 351.025,100.976 351.625,101.208 351.900 C 101.441 352.175,102.083 352.400,102.636 352.400 C 103.938 352.400,105.577 353.265,106.669 354.529 C 107.330 355.294,108.096 355.604,109.869 355.823 C 111.770 356.058,112.424 356.348,113.411 357.390 C 114.412 358.446,115.038 358.718,117.003 358.949 C 119.604 359.254,121.006 359.958,121.382 361.145 C 121.570 361.737,122.145 361.969,123.913 362.167 C 128.721 362.706,129.216 362.857,130.518 364.180 C 131.714 365.395,132.030 365.499,135.205 365.716 C 138.973 365.972,140.559 366.440,141.888 367.685 C 142.661 368.409,143.520 368.560,148.488 368.843 C 156.793 369.317,158.915 369.779,160.942 371.551 C 161.607 372.133,163.936 372.200,183.342 372.200 L 205.000 372.200 206.650 370.874 C 208.443 369.432,211.946 368.836,218.774 368.811 C 221.377 368.801,222.084 368.626,224.442 367.406 C 226.537 366.322,227.789 365.961,230.068 365.785 C 234.816 365.417,235.533 365.243,235.805 364.386 C 236.177 363.213,237.392 362.733,240.972 362.346 C 243.852 362.034,244.321 361.864,245.326 360.763 C 246.528 359.446,248.173 358.800,250.324 358.800 C 251.318 358.800,251.978 358.457,252.936 357.440 C 253.998 356.315,254.615 356.031,256.516 355.793 C 258.404 355.557,258.955 355.306,259.613 354.382 C 260.408 353.265,261.708 352.683,264.413 352.232 C 265.503 352.050,265.927 351.730,266.267 350.828 C 266.700 349.680,267.426 349.328,270.800 348.629 C 271.351 348.515,272.096 347.896,272.458 347.252 C 272.896 346.473,273.564 345.986,274.458 345.795 C 275.202 345.635,276.353 344.910,277.041 344.168 C 277.797 343.352,278.969 342.645,280.041 342.358 C 281.368 342.003,281.947 341.587,282.400 340.666 C 282.784 339.885,283.490 339.285,284.363 338.999 C 285.112 338.754,285.857 338.198,286.018 337.763 C 286.381 336.780,287.105 336.185,288.400 335.803 C 288.950 335.641,289.864 335.034,290.431 334.454 C 292.582 332.256,296.583 328.992,297.375 328.789 C 297.829 328.673,298.456 328.002,298.769 327.297 C 299.136 326.470,299.777 325.871,300.582 325.606 C 301.398 325.337,301.981 324.786,302.275 324.006 C 302.526 323.342,303.226 322.597,303.862 322.317 C 305.983 321.384,306.458 318.306,304.590 317.596 C 304.035 317.385,303.208 316.581,302.753 315.810 C 302.298 315.039,301.448 314.179,300.864 313.899 C 300.281 313.620,299.532 312.834,299.202 312.154 C 298.871 311.474,297.385 309.726,295.900 308.270 C 294.415 306.815,293.200 305.526,293.200 305.406 C 293.200 305.286,292.089 304.156,290.731 302.894 C 289.373 301.632,287.944 300.240,287.555 299.800 C 287.167 299.360,286.523 298.635,286.124 298.190 C 285.726 297.744,284.905 297.065,284.300 296.680 C 283.695 296.296,283.200 295.808,283.200 295.595 C 283.200 294.709,281.819 293.629,280.921 293.812 C 280.415 293.915,279.551 294.093,279.002 294.207 C 278.349 294.343,277.812 294.876,277.445 295.753 C 277.065 296.664,276.468 297.237,275.578 297.548 C 274.858 297.799,273.173 299.149,271.834 300.548 C 269.144 303.359,267.070 304.796,265.700 304.799 C 265.092 304.800,264.800 305.040,264.800 305.538 C 264.800 306.466,263.721 307.458,262.334 307.804 C 261.682 307.966,261.085 308.511,260.798 309.206 C 260.493 309.942,259.781 310.561,258.780 310.961 C 257.929 311.302,256.401 312.215,255.386 312.990 C 254.370 313.766,253.148 314.403,252.669 314.406 C 251.529 314.414,250.966 314.813,250.646 315.839 C 250.333 316.844,248.923 317.544,246.557 317.868 C 245.137 318.063,244.674 318.347,244.045 319.413 C 243.270 320.728,242.948 320.864,239.317 321.411 C 238.253 321.571,237.555 321.911,237.421 322.333 C 237.076 323.419,235.794 323.976,232.511 324.464 C 230.067 324.828,229.262 325.122,228.678 325.865 C 227.544 327.305,226.728 327.590,222.596 327.980 C 219.095 328.312,218.682 328.442,217.663 329.533 C 216.434 330.848,215.810 330.969,207.826 331.433 C 204.062 331.652,203.237 331.829,201.919 332.701 C 199.714 334.161,194.729 334.519,179.800 334.292 L 167.400 334.103 165.000 332.891 C 162.891 331.826,162.043 331.648,158.000 331.425 C 150.839 331.031,150.125 330.886,148.558 329.510 C 147.297 328.402,146.785 328.243,143.645 327.983 C 139.999 327.681,138.045 326.971,137.084 325.599 C 136.662 324.997,135.812 324.704,133.717 324.441 C 130.548 324.043,129.362 323.540,129.014 322.445 C 128.833 321.872,128.229 321.621,126.524 321.408 C 123.550 321.036,123.365 320.946,122.468 319.426 C 121.795 318.284,121.434 318.092,119.550 317.874 C 117.397 317.624,117.370 317.606,115.174 314.900 C 114.951 314.625,114.317 314.400,113.764 314.400 C 112.504 314.400,110.614 313.440,109.918 312.447 C 109.626 312.030,108.708 311.405,107.877 311.058 C 106.868 310.636,106.235 310.047,105.968 309.280 C 105.668 308.419,105.199 308.042,104.084 307.767 C 102.962 307.489,102.460 307.083,102.028 306.100 C 101.706 305.369,101.159 304.800,100.777 304.800 C 99.454 304.800,97.255 303.601,96.416 302.422 C 95.947 301.764,95.090 300.996,94.511 300.713 C 93.931 300.431,93.174 299.700,92.828 299.090 C 92.483 298.479,91.575 297.669,90.812 297.290 C 90.027 296.900,89.331 296.207,89.212 295.697 C 89.093 295.190,88.392 294.489,87.612 294.097 C 86.776 293.678,86.134 293.012,86.000 292.426 C 85.877 291.890,85.242 291.157,84.588 290.798 C 83.935 290.438,83.162 289.654,82.871 289.056 C 82.580 288.458,81.723 287.571,80.968 287.084 C 79.937 286.421,79.425 285.672,78.919 284.084 C 78.446 282.602,77.942 281.824,77.236 281.484 C 76.577 281.167,76.112 280.503,75.889 279.561 C 75.636 278.487,75.227 277.981,74.275 277.561 C 73.366 277.161,72.858 276.565,72.506 275.486 C 72.234 274.653,71.392 273.335,70.636 272.556 C 69.750 271.644,69.165 270.577,68.993 269.561 C 68.794 268.383,68.444 267.836,67.612 267.406 C 66.321 266.739,66.125 266.334,65.761 263.587 C 65.539 261.914,65.300 261.465,64.379 260.989 C 63.202 260.380,62.636 259.072,62.222 256.000 C 62.029 254.566,61.745 254.066,60.826 253.540 C 59.637 252.859,59.265 251.716,58.605 246.720 C 58.423 245.341,58.150 244.774,57.578 244.593 C 56.325 244.195,55.922 242.934,55.651 238.573 C 55.415 234.758,55.323 234.412,54.339 233.638 C 52.938 232.536,52.502 230.413,52.179 223.126 C 51.955 218.065,51.814 217.156,51.160 216.564 C 50.617 216.073,50.400 215.335,50.400 213.984 C 50.400 212.943,50.131 211.576,49.802 210.946 C 48.928 209.269,48.926 191.431,49.800 189.338 C 50.130 188.549,50.400 187.171,50.400 186.277 C 50.400 185.202,50.671 184.363,51.199 183.801 C 51.891 183.064,52.031 182.198,52.240 177.375 C 52.524 170.790,52.822 169.386,54.341 167.474 C 55.354 166.200,55.505 165.628,55.707 162.320 C 55.966 158.058,56.471 156.411,57.609 156.113 C 58.478 155.886,58.627 155.421,58.990 151.801 C 59.194 149.767,59.442 149.186,60.624 147.975 C 61.722 146.851,62.098 146.055,62.396 144.223 C 62.807 141.698,63.550 140.269,64.800 139.600 C 65.240 139.365,65.601 138.863,65.602 138.486 C 65.607 136.946,66.530 134.635,67.533 133.649 C 68.120 133.072,68.784 131.880,69.009 131.000 C 69.320 129.786,69.728 129.255,70.701 128.800 C 71.406 128.470,71.987 127.900,71.991 127.533 C 72.009 126.170,73.550 123.270,74.400 123.000 C 74.901 122.841,75.566 122.013,75.993 121.016 C 76.493 119.850,77.040 119.226,77.712 119.058 C 78.404 118.884,78.770 118.449,78.941 117.597 C 79.074 116.930,79.862 115.677,80.692 114.814 C 83.719 111.663,85.144 109.985,86.045 108.509 C 86.552 107.679,87.152 106.925,87.380 106.834 C 87.608 106.743,88.575 105.888,89.529 104.934 C 90.483 103.980,91.398 103.200,91.564 103.200 C 91.729 103.200,92.750 102.326,93.832 101.258 C 94.914 100.190,96.372 99.022,97.072 98.663 C 97.771 98.303,98.457 97.651,98.596 97.213 C 98.750 96.728,99.473 96.230,100.448 95.938 C 101.675 95.571,102.178 95.147,102.606 94.123 C 103.021 93.131,103.487 92.723,104.416 92.537 C 105.236 92.373,105.965 91.826,106.533 90.947 C 107.347 89.690,108.235 89.218,110.900 88.628 C 111.505 88.494,112.000 88.146,112.000 87.854 C 112.000 87.043,113.308 86.038,114.736 85.753 C 115.487 85.603,116.350 85.032,116.816 84.377 C 117.614 83.257,118.904 82.685,121.677 82.220 C 122.582 82.068,123.241 81.701,123.377 81.273 C 123.702 80.250,125.485 79.334,128.085 78.854 C 129.607 78.573,130.787 78.060,131.617 77.316 C 133.122 75.968,133.960 75.692,136.709 75.640 C 138.501 75.606,138.880 75.462,139.237 74.678 C 139.940 73.135,141.158 72.713,145.950 72.356 C 150.236 72.036,150.632 71.934,151.775 70.864 C 153.524 69.225,153.711 69.190,163.106 68.750 C 171.220 68.370,171.655 68.308,172.546 67.417 C 174.785 65.179,194.024 65.645,194.864 67.958 C 194.939 68.164,198.839 68.526,203.531 68.763 C 212.398 69.209,214.087 69.585,214.610 71.231 C 214.828 71.918,217.712 72.400,221.610 72.400 C 223.883 72.400,226.120 73.265,226.964 74.470 C 227.457 75.174,228.153 75.412,230.438 75.656 C 233.259 75.958,234.800 76.728,234.800 77.837 C 234.800 78.147,235.555 78.454,236.700 78.611 C 240.039 79.067,241.173 79.506,242.215 80.745 C 242.968 81.639,243.716 82.028,245.076 82.232 C 246.358 82.425,247.373 82.920,248.418 83.864 C 249.243 84.609,250.819 85.486,251.921 85.814 C 253.545 86.296,254.004 86.635,254.342 87.604 C 254.627 88.424,255.025 88.800,255.605 88.800 C 256.731 88.800,257.986 89.491,259.165 90.761 C 259.697 91.332,260.867 92.086,261.765 92.436 C 262.836 92.852,263.607 93.491,264.000 94.288 C 264.416 95.132,265.026 95.611,265.990 95.852 C 266.847 96.067,267.567 96.575,267.866 97.179 C 268.133 97.717,268.948 98.437,269.676 98.779 C 270.578 99.202,271.122 99.815,271.383 100.700 C 271.593 101.415,272.027 102.000,272.348 102.000 C 273.528 102.000,276.290 103.999,277.425 105.675 C 278.067 106.624,278.955 107.712,279.397 108.093 C 279.838 108.474,280.432 108.982,280.716 109.223 C 281.000 109.465,281.330 110.143,281.450 110.731 C 281.591 111.419,282.118 112.014,282.929 112.400 C 283.775 112.803,284.308 113.427,284.552 114.300 C 284.780 115.114,285.170 115.600,285.596 115.600 C 286.405 115.600,287.398 116.647,287.781 117.904 C 287.933 118.402,288.568 119.073,289.192 119.396 C 289.924 119.774,290.568 120.613,291.004 121.756 C 291.377 122.731,292.206 124.031,292.847 124.645 C 293.488 125.259,294.195 126.438,294.417 127.264 C 294.689 128.272,295.176 128.937,295.899 129.283 C 296.630 129.634,297.213 130.439,297.716 131.795 C 298.123 132.892,298.513 133.846,298.581 133.915 C 298.650 133.984,299.763 133.693,301.053 133.269 C 302.344 132.846,303.877 132.388,304.459 132.252 C 305.080 132.107,305.847 131.448,306.314 130.656 C 306.907 129.650,307.485 129.236,308.579 129.030 C 309.387 128.879,310.712 128.158,311.524 127.428 C 312.336 126.697,313.588 125.973,314.307 125.817 C 315.155 125.633,315.812 125.151,316.177 124.445 C 316.804 123.232,318.086 122.525,320.313 122.164 C 321.466 121.977,321.935 121.643,322.400 120.676 C 322.829 119.784,323.399 119.334,324.400 119.095 C 325.170 118.911,326.160 118.341,326.600 117.828 C 327.486 116.795,329.191 115.859,330.958 115.434 L 332.116 115.156 330.899 114.078 C 329.657 112.979,328.800 111.039,328.800 109.328 C 328.800 108.782,328.501 108.269,328.100 108.127 C 326.946 107.717,326.000 106.724,326.000 105.922 C 326.000 105.508,325.294 104.477,324.432 103.631 C 323.080 102.306,322.010 100.084,322.002 98.583 C 322.001 98.353,321.419 97.993,320.709 97.783 C 319.730 97.492,319.329 97.081,319.045 96.077 C 318.817 95.272,318.243 94.533,317.579 94.189 C 316.978 93.878,316.307 93.109,316.087 92.479 C 315.847 91.788,315.205 91.133,314.470 90.829 C 313.714 90.516,313.093 89.870,312.834 89.127 C 312.298 87.589,296.674 71.768,294.805 70.869 C 294.038 70.500,293.175 69.709,292.888 69.110 C 292.602 68.512,291.742 67.725,290.979 67.363 C 290.193 66.990,289.493 66.313,289.364 65.801 C 289.219 65.223,288.577 64.677,287.586 64.287 C 286.527 63.871,285.955 63.361,285.784 62.678 C 285.589 61.902,285.136 61.578,283.759 61.231 C 282.784 60.986,281.314 60.179,280.493 59.438 C 279.672 58.698,278.331 57.813,277.514 57.472 C 276.523 57.059,275.944 56.515,275.774 55.837 C 275.577 55.055,275.182 54.760,274.059 54.557 C 272.122 54.207,270.793 53.499,269.703 52.238 C 269.195 51.650,268.383 51.200,267.831 51.200 C 267.267 51.200,266.232 50.611,265.373 49.800 C 264.554 49.028,263.153 48.216,262.245 47.987 C 259.572 47.314,258.836 46.884,258.575 45.842 C 258.353 44.960,258.051 44.826,255.706 44.575 C 253.504 44.339,252.849 44.080,251.602 42.954 C 250.377 41.847,249.631 41.545,247.317 41.217 C 243.729 40.708,243.534 40.622,242.719 39.194 C 242.121 38.147,241.816 38.000,240.238 38.000 C 237.111 38.000,234.319 37.198,233.172 35.970 C 232.193 34.922,231.802 34.816,227.551 34.447 C 222.561 34.013,221.460 33.713,220.090 32.414 C 219.257 31.623,218.555 31.522,211.690 31.203 C 205.657 30.923,203.694 30.683,201.600 29.971 C 197.307 28.510,179.576 27.478,172.000 28.247 " stroke="none" fill="#f6f2e9" fill-rule="evenodd"></path><path id="path2" d="M167.400 26.811 C 164.158 26.998,161.869 27.353,160.349 27.905 C 157.601 28.904,153.310 29.600,149.907 29.600 C 146.959 29.600,143.197 30.489,141.371 31.618 C 140.572 32.112,138.471 32.634,135.748 33.016 C 132.076 33.532,131.179 33.805,129.977 34.771 C 128.915 35.624,127.810 36.030,125.630 36.368 C 122.566 36.844,122.073 37.032,119.730 38.622 C 118.863 39.210,117.713 39.601,116.844 39.603 C 115.366 39.605,114.034 40.306,112.478 41.900 C 111.995 42.395,111.195 42.801,110.700 42.802 C 108.960 42.807,106.773 43.653,105.639 44.762 C 105.009 45.378,103.678 46.087,102.680 46.338 C 101.679 46.590,100.352 47.309,99.718 47.944 C 99.086 48.575,98.126 49.221,97.585 49.378 C 95.694 49.926,94.181 50.756,93.235 51.763 C 92.711 52.320,91.634 52.983,90.841 53.236 C 90.049 53.488,88.860 54.204,88.200 54.827 C 87.540 55.450,86.337 56.236,85.527 56.574 C 84.716 56.912,83.797 57.554,83.484 58.002 C 83.170 58.449,82.078 59.369,81.057 60.045 C 80.036 60.722,79.200 61.435,79.200 61.631 C 79.200 61.827,78.255 62.461,77.100 63.041 C 75.945 63.621,74.443 64.659,73.763 65.348 C 73.083 66.037,71.736 67.230,70.770 68.000 C 69.805 68.770,68.074 70.300,66.925 71.400 C 65.775 72.500,64.512 73.709,64.118 74.087 C 63.723 74.464,61.453 76.759,59.073 79.187 C 56.694 81.614,54.583 83.600,54.384 83.600 C 54.184 83.600,53.719 84.184,53.350 84.897 C 52.981 85.611,51.517 87.366,50.097 88.797 C 48.678 90.229,47.088 92.309,46.566 93.419 C 46.043 94.530,45.072 95.840,44.408 96.331 C 43.743 96.822,43.200 97.483,43.200 97.799 C 43.200 98.115,42.612 98.964,41.893 99.687 C 40.309 101.278,37.009 106.217,36.606 107.600 C 36.445 108.150,35.627 109.320,34.786 110.200 C 33.801 111.231,33.157 112.354,32.974 113.358 C 32.802 114.298,32.159 115.478,31.352 116.334 C 30.616 117.114,29.723 118.627,29.368 119.697 C 29.013 120.767,28.303 122.061,27.790 122.573 C 27.200 123.164,26.684 124.396,26.379 125.943 C 26.022 127.760,25.571 128.719,24.606 129.713 C 23.577 130.772,23.253 131.513,23.026 133.327 C 22.835 134.860,22.421 135.989,21.766 136.768 C 20.591 138.164,19.800 140.293,19.414 143.099 C 19.222 144.491,18.742 145.667,17.964 146.646 C 17.324 147.451,16.800 148.315,16.800 148.565 C 16.800 151.322,15.826 155.993,14.999 157.200 C 13.791 158.965,13.327 161.102,13.004 166.400 C 12.700 171.375,12.142 174.552,11.282 176.200 C 8.675 181.197,8.893 221.339,11.554 226.315 C 12.130 227.391,12.773 231.389,13.178 236.408 C 13.565 241.198,13.861 242.322,15.178 244.000 C 15.735 244.710,16.080 246.090,16.368 248.759 C 16.676 251.620,17.005 252.862,17.743 253.959 C 18.834 255.578,19.416 257.319,19.788 260.070 C 19.947 261.249,20.468 262.479,21.197 263.396 C 21.893 264.271,22.541 265.759,22.822 267.126 C 23.367 269.774,23.677 270.441,24.969 271.732 C 25.544 272.307,26.102 273.567,26.384 274.921 C 26.639 276.152,27.313 277.844,27.881 278.680 C 28.448 279.516,29.236 280.954,29.632 281.875 C 30.027 282.796,30.676 283.877,31.075 284.277 C 31.474 284.676,32.311 286.207,32.935 287.678 C 33.560 289.150,34.488 290.628,34.998 290.962 C 35.517 291.302,36.216 292.444,36.585 293.554 C 36.947 294.645,37.522 295.769,37.863 296.052 C 38.203 296.334,39.091 297.518,39.836 298.683 C 40.581 299.847,41.369 300.800,41.587 300.800 C 41.805 300.800,42.349 301.515,42.794 302.389 C 43.240 303.263,44.119 304.568,44.747 305.289 C 45.375 306.010,46.168 307.140,46.508 307.800 C 46.849 308.460,48.358 310.269,49.864 311.820 C 51.369 313.371,52.854 315.123,53.164 315.713 C 53.474 316.304,54.059 316.892,54.464 317.020 C 54.869 317.149,55.695 317.917,56.300 318.727 C 56.905 319.537,57.554 320.266,57.743 320.348 C 57.931 320.429,59.191 321.639,60.543 323.037 C 61.894 324.436,63.327 325.899,63.727 326.290 C 64.127 326.680,65.074 327.630,65.833 328.400 C 67.725 330.322,67.591 330.197,69.579 331.887 C 70.557 332.719,72.184 334.210,73.193 335.200 C 74.203 336.190,75.562 337.310,76.214 337.689 C 78.338 338.922,81.376 341.102,82.460 342.170 C 83.043 342.744,84.068 343.405,84.736 343.638 C 85.405 343.871,86.418 344.672,86.987 345.418 C 87.684 346.333,88.572 346.920,89.711 347.221 C 90.640 347.466,92.030 348.269,92.800 349.006 C 93.570 349.743,94.657 350.458,95.215 350.595 C 95.773 350.732,96.988 351.444,97.915 352.178 C 98.842 352.911,100.222 353.628,100.981 353.770 C 101.801 353.924,102.882 354.580,103.642 355.385 C 104.620 356.423,105.370 356.803,106.833 357.005 C 108.027 357.169,109.619 357.831,111.072 358.769 C 112.353 359.595,114.300 360.493,115.400 360.765 C 116.500 361.037,118.164 361.766,119.099 362.384 C 120.185 363.102,121.614 363.609,123.060 363.790 C 125.444 364.088,127.200 364.709,127.200 365.254 C 127.200 365.984,129.777 366.829,132.997 367.156 C 135.574 367.417,136.783 367.747,137.908 368.494 C 140.170 369.998,141.423 370.325,146.015 370.607 C 148.632 370.767,151.058 371.167,152.415 371.662 C 156.916 373.302,159.364 373.538,174.600 373.803 C 195.218 374.162,207.591 373.646,211.600 372.260 C 214.574 371.233,219.705 370.406,223.190 370.393 C 224.398 370.389,225.532 370.062,226.600 369.408 C 229.175 367.834,230.030 367.551,233.217 367.226 C 236.334 366.907,237.589 366.455,239.052 365.125 C 239.781 364.462,240.978 364.146,246.279 363.214 C 246.323 363.206,246.834 362.759,247.415 362.221 C 248.048 361.635,249.380 361.057,250.736 360.780 C 251.981 360.526,253.540 359.914,254.200 359.421 C 255.996 358.079,257.026 357.601,259.528 356.950 C 261.017 356.562,262.162 355.962,262.851 355.208 C 263.430 354.575,264.616 353.865,265.488 353.630 C 266.360 353.395,267.389 352.855,267.774 352.428 C 268.160 352.002,269.382 351.327,270.489 350.929 C 271.655 350.510,272.944 349.673,273.551 348.941 C 274.213 348.144,275.245 347.505,276.346 347.211 C 277.306 346.954,278.537 346.299,279.082 345.755 C 279.626 345.210,280.817 344.294,281.728 343.719 C 282.639 343.144,283.716 342.252,284.121 341.737 C 284.526 341.222,285.118 340.800,285.436 340.800 C 285.754 340.800,286.612 340.185,287.342 339.432 C 288.073 338.680,289.374 337.772,290.235 337.415 C 291.096 337.057,292.520 336.042,293.400 335.158 C 297.155 331.388,302.114 326.800,302.434 326.800 C 302.624 326.800,303.065 326.247,303.415 325.572 C 303.764 324.896,304.659 323.984,305.404 323.544 C 306.478 322.911,306.891 322.291,307.394 320.562 C 308.154 317.946,308.234 318.109,304.096 313.851 C 302.283 311.986,300.800 310.258,300.800 310.012 C 300.800 309.766,299.855 308.583,298.700 307.383 C 297.545 306.182,296.304 304.885,295.941 304.500 C 295.416 303.942,290.302 298.838,285.907 294.486 C 281.432 290.054,281.928 290.374,280.244 290.839 C 279.253 291.112,277.717 292.187,275.965 293.833 C 274.462 295.245,273.049 296.400,272.826 296.400 C 272.602 296.400,270.865 297.930,268.965 299.800 C 267.066 301.670,265.274 303.200,264.985 303.200 C 264.695 303.200,263.945 303.822,263.318 304.583 C 262.691 305.344,261.539 306.234,260.757 306.560 C 259.976 306.887,259.093 307.447,258.795 307.806 C 258.497 308.165,257.558 308.813,256.709 309.247 C 255.859 309.680,254.476 310.657,253.634 311.417 C 252.793 312.177,251.316 313.076,250.352 313.415 C 249.389 313.754,248.189 314.473,247.686 315.013 C 247.183 315.554,245.983 316.194,245.019 316.437 C 244.056 316.680,242.864 317.254,242.371 317.713 C 241.879 318.172,240.032 319.052,238.267 319.670 C 236.503 320.287,234.686 321.142,234.230 321.570 C 233.136 322.594,231.473 323.200,229.754 323.200 C 228.250 323.200,226.000 324.171,226.000 324.820 C 226.000 325.464,224.043 326.030,220.400 326.440 C 218.008 326.710,216.238 327.189,214.432 328.056 C 212.176 329.140,211.253 329.329,206.832 329.615 C 204.064 329.794,200.900 330.222,199.800 330.566 C 198.700 330.910,197.153 331.193,196.361 331.196 C 195.570 331.198,194.317 331.502,193.577 331.872 C 191.227 333.044,175.842 333.182,173.508 332.052 C 172.540 331.583,171.039 331.197,170.174 331.194 C 169.308 331.191,167.830 330.920,166.889 330.592 C 165.948 330.265,162.708 329.844,159.689 329.658 C 154.677 329.349,154.002 329.214,151.922 328.102 C 150.420 327.299,148.785 326.796,147.122 326.625 C 142.450 326.147,141.654 325.942,140.572 324.939 C 139.267 323.730,137.972 323.203,136.274 323.191 C 135.030 323.183,133.453 322.524,130.186 320.648 C 129.298 320.138,127.921 319.599,127.128 319.450 C 126.334 319.301,125.004 318.639,124.172 317.978 C 123.341 317.317,121.868 316.577,120.900 316.333 C 119.922 316.087,118.530 315.315,117.766 314.594 C 117.011 313.882,115.891 313.198,115.277 313.075 C 114.663 312.953,113.717 312.408,113.173 311.864 C 112.630 311.321,111.334 310.423,110.294 309.871 C 109.255 309.318,107.849 308.311,107.171 307.633 C 106.493 306.955,105.688 306.400,105.381 306.400 C 105.075 306.400,104.414 305.842,103.912 305.160 C 103.410 304.478,102.280 303.554,101.400 303.106 C 100.520 302.659,98.582 301.147,97.093 299.747 C 95.605 298.347,93.714 296.777,92.891 296.258 C 92.069 295.739,91.165 294.883,90.883 294.356 C 90.601 293.829,89.850 293.099,89.214 292.734 C 88.577 292.369,87.749 291.469,87.372 290.735 C 86.996 290.001,85.699 288.410,84.491 287.200 C 83.283 285.990,81.710 284.100,80.996 283.000 C 80.282 281.900,79.251 280.550,78.705 280.000 C 78.158 279.450,77.417 278.426,77.058 277.724 C 76.699 277.023,76.031 276.187,75.575 275.867 C 75.118 275.548,74.225 274.187,73.589 272.843 C 72.954 271.499,72.275 270.400,72.080 270.400 C 71.885 270.400,71.383 269.731,70.963 268.913 C 70.543 268.095,69.546 266.389,68.746 265.122 C 67.947 263.856,67.173 262.181,67.027 261.401 C 66.880 260.621,66.227 259.375,65.574 258.632 C 64.818 257.771,64.156 256.341,63.749 254.689 C 63.397 253.264,62.681 251.599,62.157 250.989 C 61.115 249.776,60.406 247.676,60.402 245.791 C 60.401 245.062,59.952 244.030,59.270 243.191 C 57.758 241.330,57.592 240.802,57.181 236.544 C 56.838 232.983,55.859 229.600,55.172 229.600 C 54.493 229.600,54.028 226.451,53.577 218.800 C 53.298 214.055,52.899 210.472,52.559 209.651 C 51.776 207.763,51.778 193.283,52.560 191.000 C 52.862 190.120,53.321 186.070,53.579 182.000 C 54.125 173.416,54.186 173.059,55.426 171.200 C 56.542 169.525,57.177 166.967,57.190 164.087 C 57.201 161.775,57.740 160.194,59.301 157.902 C 59.970 156.920,60.418 155.566,60.604 153.967 C 60.821 152.093,61.156 151.223,62.050 150.205 C 62.840 149.305,63.351 148.133,63.644 146.547 C 63.958 144.845,64.432 143.819,65.394 142.753 C 66.216 141.844,66.819 140.672,66.992 139.648 C 67.168 138.607,67.845 137.307,68.834 136.110 C 69.694 135.069,70.506 133.643,70.637 132.942 C 70.769 132.241,71.327 131.248,71.877 130.734 C 72.428 130.220,73.202 129.170,73.598 128.400 C 73.994 127.630,74.813 126.466,75.419 125.814 C 76.025 125.162,76.867 123.846,77.290 122.890 C 77.713 121.935,78.312 121.055,78.621 120.937 C 78.931 120.818,79.579 120.063,80.062 119.260 C 80.545 118.457,81.493 117.225,82.170 116.523 C 82.846 115.820,84.390 114.137,85.600 112.783 C 89.047 108.925,90.334 107.640,94.395 104.000 C 96.482 102.130,98.844 99.941,99.644 99.137 C 100.444 98.332,101.663 97.381,102.354 97.024 C 103.044 96.667,103.832 96.006,104.104 95.554 C 104.377 95.103,105.320 94.369,106.200 93.923 C 107.080 93.477,108.250 92.691,108.800 92.177 C 109.350 91.663,110.431 90.979,111.202 90.657 C 111.974 90.335,113.097 89.518,113.700 88.842 C 114.381 88.077,115.475 87.442,116.596 87.159 C 117.618 86.902,118.893 86.198,119.544 85.533 C 120.249 84.812,121.660 84.066,123.204 83.599 C 124.586 83.180,126.193 82.381,126.776 81.823 C 127.491 81.138,128.483 80.724,129.818 80.553 C 131.314 80.362,132.145 79.971,133.204 78.962 C 134.399 77.824,135.055 77.561,137.591 77.201 C 140.375 76.806,141.850 76.201,143.128 74.927 C 143.791 74.266,144.474 74.124,149.317 73.637 C 151.942 73.374,153.658 72.985,154.517 72.460 C 156.671 71.146,158.714 70.780,166.000 70.409 C 169.850 70.212,173.990 69.873,175.200 69.655 C 178.039 69.143,186.997 69.129,190.600 69.631 C 192.140 69.845,196.280 70.189,199.800 70.394 C 207.544 70.845,208.400 70.989,211.179 72.303 C 213.150 73.235,216.912 73.883,220.886 73.975 C 221.486 73.989,222.563 74.519,223.293 75.159 C 224.670 76.368,226.389 76.955,229.851 77.399 C 231.457 77.605,232.183 77.951,233.190 78.990 C 234.202 80.034,234.918 80.373,236.538 80.576 C 238.007 80.759,238.988 81.173,239.948 82.011 C 241.226 83.128,243.378 83.993,244.891 83.998 C 245.271 83.999,245.882 84.459,246.250 85.020 C 247.039 86.225,248.465 87.026,250.498 87.407 C 251.510 87.597,252.292 88.107,253.005 89.042 C 253.574 89.789,254.306 90.400,254.629 90.400 C 254.953 90.400,255.979 91.097,256.909 91.948 C 257.839 92.799,259.010 93.623,259.511 93.778 C 260.012 93.934,261.238 94.767,262.235 95.630 C 263.233 96.494,264.265 97.200,264.530 97.200 C 265.521 97.200,283.200 114.591,283.200 115.567 C 283.200 115.768,283.900 116.487,284.756 117.165 C 285.612 117.843,286.433 118.877,286.580 119.463 C 286.727 120.049,287.432 121.211,288.146 122.046 C 288.860 122.880,289.705 124.066,290.022 124.681 C 290.340 125.297,291.185 126.361,291.900 127.047 C 292.615 127.733,293.200 128.582,293.200 128.933 C 293.200 129.285,293.741 130.188,294.401 130.940 C 295.062 131.693,295.890 133.004,296.241 133.854 C 297.731 137.460,300.654 138.017,303.305 135.199 C 304.133 134.320,305.161 133.600,305.591 133.600 C 306.021 133.600,306.991 133.057,307.747 132.393 C 308.503 131.729,309.725 130.985,310.461 130.740 C 311.197 130.495,312.520 129.621,313.400 128.797 C 314.280 127.973,315.492 127.184,316.093 127.044 C 316.694 126.903,317.791 126.256,318.532 125.606 C 319.273 124.956,320.703 124.070,321.711 123.638 C 322.719 123.206,323.739 122.487,323.978 122.040 C 324.217 121.594,325.131 121.013,326.010 120.750 C 326.888 120.487,328.280 119.697,329.103 118.995 C 329.926 118.292,331.172 117.423,331.872 117.063 C 333.908 116.015,333.954 113.179,331.970 110.995 C 331.567 110.552,330.975 109.562,330.654 108.795 C 330.333 108.028,329.602 106.962,329.030 106.426 C 328.459 105.890,327.560 104.511,327.033 103.360 C 326.507 102.210,325.720 101.078,325.286 100.846 C 324.852 100.614,324.213 99.717,323.868 98.853 C 323.522 97.989,322.701 96.899,322.043 96.431 C 321.386 95.962,320.722 95.185,320.569 94.704 C 320.417 94.222,319.698 93.252,318.974 92.548 C 318.249 91.844,317.380 90.735,317.043 90.083 C 316.706 89.431,316.155 88.791,315.819 88.663 C 315.483 88.534,314.594 87.477,313.842 86.314 C 313.091 85.151,310.281 82.040,307.597 79.400 C 304.913 76.760,302.061 73.912,301.259 73.072 C 300.456 72.231,298.450 70.502,296.800 69.228 C 295.150 67.954,293.053 66.164,292.140 65.249 C 291.227 64.335,289.945 63.400,289.290 63.171 C 288.635 62.943,287.528 62.046,286.830 61.178 C 286.133 60.310,285.322 59.600,285.029 59.600 C 284.735 59.600,283.979 59.073,283.347 58.428 C 282.716 57.783,281.380 56.905,280.379 56.476 C 279.377 56.047,277.996 55.134,277.310 54.448 C 276.623 53.762,275.778 53.200,275.432 53.200 C 275.086 53.200,274.124 52.588,273.296 51.839 C 272.468 51.091,270.856 50.173,269.715 49.800 C 268.494 49.400,267.384 48.730,267.018 48.171 C 266.608 47.546,265.609 47.000,264.098 46.577 C 262.833 46.222,261.440 45.521,261.000 45.017 C 259.917 43.779,258.958 43.333,256.629 42.983 C 255.454 42.807,254.323 42.345,253.829 41.840 C 252.315 40.291,251.702 39.975,249.524 39.620 C 248.301 39.421,246.478 38.718,245.324 38.001 C 243.919 37.127,242.493 36.631,240.742 36.406 C 237.926 36.043,236.800 35.690,236.800 35.167 C 236.800 34.402,234.045 33.476,230.322 32.990 C 228.042 32.692,225.728 32.131,224.813 31.653 C 222.373 30.382,219.037 29.706,213.881 29.439 C 210.052 29.240,208.695 28.997,206.681 28.146 C 202.917 26.556,183.345 25.890,167.400 26.811 M196.600 28.706 C 197.920 28.915,200.170 29.484,201.600 29.971 C 203.694 30.683,205.657 30.923,211.690 31.203 C 218.555 31.522,219.257 31.623,220.090 32.414 C 221.460 33.713,222.561 34.013,227.551 34.447 C 231.802 34.816,232.193 34.922,233.172 35.970 C 234.319 37.198,237.111 38.000,240.238 38.000 C 241.816 38.000,242.121 38.147,242.719 39.194 C 243.534 40.622,243.729 40.708,247.317 41.217 C 249.631 41.545,250.377 41.847,251.602 42.954 C 252.849 44.080,253.504 44.339,255.706 44.575 C 258.051 44.826,258.353 44.960,258.575 45.842 C 258.836 46.884,259.572 47.314,262.245 47.987 C 263.153 48.216,264.554 49.028,265.373 49.800 C 266.232 50.611,267.267 51.200,267.831 51.200 C 268.383 51.200,269.195 51.650,269.703 52.238 C 270.793 53.499,272.122 54.207,274.059 54.557 C 275.182 54.760,275.577 55.055,275.774 55.837 C 275.944 56.515,276.523 57.059,277.514 57.472 C 278.331 57.813,279.672 58.698,280.493 59.438 C 281.314 60.179,282.784 60.986,283.759 61.231 C 285.136 61.578,285.589 61.902,285.784 62.678 C 285.955 63.361,286.527 63.871,287.586 64.287 C 288.577 64.677,289.219 65.223,289.364 65.801 C 289.493 66.313,290.193 66.990,290.979 67.363 C 291.742 67.725,292.602 68.512,292.888 69.110 C 293.175 69.709,294.038 70.500,294.805 70.869 C 296.674 71.768,312.298 87.589,312.834 89.127 C 313.093 89.870,313.714 90.516,314.470 90.829 C 315.205 91.133,315.847 91.788,316.087 92.479 C 316.307 93.109,316.978 93.878,317.579 94.189 C 318.243 94.533,318.817 95.272,319.045 96.077 C 319.329 97.081,319.730 97.492,320.709 97.783 C 321.419 97.993,322.001 98.353,322.002 98.583 C 322.010 100.084,323.080 102.306,324.432 103.631 C 325.294 104.477,326.000 105.508,326.000 105.922 C 326.000 106.724,326.946 107.717,328.100 108.127 C 328.501 108.269,328.800 108.782,328.800 109.328 C 328.800 111.039,329.657 112.979,330.899 114.078 L 332.116 115.156 330.958 115.434 C 329.191 115.859,327.486 116.795,326.600 117.828 C 326.160 118.341,325.170 118.911,324.400 119.095 C 323.399 119.334,322.829 119.784,322.400 120.676 C 321.935 121.643,321.466 121.977,320.313 122.164 C 318.086 122.525,316.804 123.232,316.177 124.445 C 315.812 125.151,315.155 125.633,314.307 125.817 C 313.588 125.973,312.336 126.697,311.524 127.428 C 310.712 128.158,309.387 128.879,308.579 129.030 C 307.485 129.236,306.907 129.650,306.314 130.656 C 305.847 131.448,305.080 132.107,304.459 132.252 C 303.877 132.388,302.344 132.846,301.053 133.269 C 299.763 133.693,298.650 133.984,298.581 133.915 C 298.513 133.846,298.123 132.892,297.716 131.795 C 297.213 130.439,296.630 129.634,295.899 129.283 C 295.176 128.937,294.689 128.272,294.417 127.264 C 294.195 126.438,293.488 125.259,292.847 124.645 C 292.206 124.031,291.377 122.731,291.004 121.756 C 290.568 120.613,289.924 119.774,289.192 119.396 C 288.568 119.073,287.933 118.402,287.781 117.904 C 287.398 116.647,286.405 115.600,285.596 115.600 C 285.170 115.600,284.780 115.114,284.552 114.300 C 284.308 113.427,283.775 112.803,282.929 112.400 C 282.118 112.014,281.591 111.419,281.450 110.731 C 281.330 110.143,281.000 109.465,280.716 109.223 C 280.432 108.982,279.838 108.474,279.397 108.093 C 278.955 107.712,278.067 106.624,277.425 105.675 C 276.290 103.999,273.528 102.000,272.348 102.000 C 272.027 102.000,271.593 101.415,271.383 100.700 C 271.122 99.815,270.578 99.202,269.676 98.779 C 268.948 98.437,268.133 97.717,267.866 97.179 C 267.567 96.575,266.847 96.067,265.990 95.852 C 265.026 95.611,264.416 95.132,264.000 94.288 C 263.607 93.491,262.836 92.852,261.765 92.436 C 260.867 92.086,259.697 91.332,259.165 90.761 C 257.986 89.491,256.731 88.800,255.605 88.800 C 255.025 88.800,254.627 88.424,254.342 87.604 C 254.004 86.635,253.545 86.296,251.921 85.814 C 250.819 85.486,249.243 84.609,248.418 83.864 C 247.373 82.920,246.358 82.425,245.076 82.232 C 243.716 82.028,242.968 81.639,242.215 80.745 C 241.173 79.506,240.039 79.067,236.700 78.611 C 235.555 78.454,234.800 78.147,234.800 77.837 C 234.800 76.728,233.259 75.958,230.438 75.656 C 228.153 75.412,227.457 75.174,226.964 74.470 C 226.120 73.265,223.883 72.400,221.610 72.400 C 217.712 72.400,214.828 71.918,214.610 71.231 C 214.087 69.585,212.398 69.209,203.531 68.763 C 198.839 68.526,194.939 68.164,194.864 67.958 C 194.024 65.645,174.785 65.179,172.546 67.417 C 171.655 68.308,171.220 68.370,163.106 68.750 C 153.711 69.190,153.524 69.225,151.775 70.864 C 150.632 71.934,150.236 72.036,145.950 72.356 C 141.158 72.713,139.940 73.135,139.237 74.678 C 138.880 75.462,138.501 75.606,136.709 75.640 C 133.960 75.692,133.122 75.968,131.617 77.316 C 130.787 78.060,129.607 78.573,128.085 78.854 C 125.485 79.334,123.702 80.250,123.377 81.273 C 123.241 81.701,122.582 82.068,121.677 82.220 C 118.904 82.685,117.614 83.257,116.816 84.377 C 116.350 85.032,115.487 85.603,114.736 85.753 C 113.308 86.038,112.000 87.043,112.000 87.854 C 112.000 88.146,111.505 88.494,110.900 88.628 C 108.235 89.218,107.347 89.690,106.533 90.947 C 105.965 91.826,105.236 92.373,104.416 92.537 C 103.487 92.723,103.021 93.131,102.606 94.123 C 102.178 95.147,101.675 95.571,100.448 95.938 C 99.473 96.230,98.750 96.728,98.596 97.213 C 98.457 97.651,97.771 98.303,97.072 98.663 C 96.372 99.022,94.914 100.190,93.832 101.258 C 92.750 102.326,91.729 103.200,91.564 103.200 C 91.398 103.200,90.483 103.980,89.529 104.934 C 88.575 105.888,87.608 106.743,87.380 106.834 C 87.152 106.925,86.552 107.679,86.045 108.509 C 85.144 109.985,83.719 111.663,80.692 114.814 C 79.862 115.677,79.074 116.930,78.941 117.597 C 78.770 118.449,78.404 118.884,77.712 119.058 C 77.040 119.226,76.493 119.850,75.993 121.016 C 75.566 122.013,74.901 122.841,74.400 123.000 C 73.550 123.270,72.009 126.170,71.991 127.533 C 71.987 127.900,71.406 128.470,70.701 128.800 C 69.728 129.255,69.320 129.786,69.009 131.000 C 68.784 131.880,68.120 133.072,67.533 133.649 C 66.530 134.635,65.607 136.946,65.602 138.486 C 65.601 138.863,65.240 139.365,64.800 139.600 C 63.550 140.269,62.807 141.698,62.396 144.223 C 62.098 146.055,61.722 146.851,60.624 147.975 C 59.442 149.186,59.194 149.767,58.990 151.801 C 58.627 155.421,58.478 155.886,57.609 156.113 C 56.471 156.411,55.966 158.058,55.707 162.320 C 55.505 165.628,55.354 166.200,54.341 167.474 C 52.822 169.386,52.524 170.790,52.240 177.375 C 52.031 182.198,51.891 183.064,51.199 183.801 C 50.671 184.363,50.400 185.202,50.400 186.277 C 50.400 187.171,50.130 188.549,49.800 189.338 C 48.926 191.431,48.928 209.269,49.802 210.946 C 50.131 211.576,50.400 212.943,50.400 213.984 C 50.400 215.335,50.617 216.073,51.160 216.564 C 51.814 217.156,51.955 218.065,52.179 223.126 C 52.502 230.413,52.938 232.536,54.339 233.638 C 55.323 234.412,55.415 234.758,55.651 238.573 C 55.922 242.934,56.325 244.195,57.578 244.593 C 58.150 244.774,58.423 245.341,58.605 246.720 C 59.265 251.716,59.637 252.859,60.826 253.540 C 61.745 254.066,62.029 254.566,62.222 256.000 C 62.636 259.072,63.202 260.380,64.379 260.989 C 65.300 261.465,65.539 261.914,65.761 263.587 C 66.125 266.334,66.321 266.739,67.612 267.406 C 68.444 267.836,68.794 268.383,68.993 269.561 C 69.165 270.577,69.750 271.644,70.636 272.556 C 71.392 273.335,72.234 274.653,72.506 275.486 C 72.858 276.565,73.366 277.161,74.275 277.561 C 75.227 277.981,75.636 278.487,75.889 279.561 C 76.112 280.503,76.577 281.167,77.236 281.484 C 77.942 281.824,78.446 282.602,78.919 284.084 C 79.425 285.672,79.937 286.421,80.968 287.084 C 81.723 287.571,82.580 288.458,82.871 289.056 C 83.162 289.654,83.935 290.438,84.588 290.798 C 85.242 291.157,85.877 291.890,86.000 292.426 C 86.134 293.012,86.776 293.678,87.612 294.097 C 88.392 294.489,89.093 295.190,89.212 295.697 C 89.331 296.207,90.027 296.900,90.812 297.290 C 91.575 297.669,92.483 298.479,92.828 299.090 C 93.174 299.700,93.931 300.431,94.511 300.713 C 95.090 300.996,95.947 301.764,96.416 302.422 C 97.255 303.601,99.454 304.800,100.777 304.800 C 101.159 304.800,101.706 305.369,102.028 306.100 C 102.460 307.083,102.962 307.489,104.084 307.767 C 105.199 308.042,105.668 308.419,105.968 309.280 C 106.235 310.047,106.868 310.636,107.877 311.058 C 108.708 311.405,109.626 312.030,109.918 312.447 C 110.614 313.440,112.504 314.400,113.764 314.400 C 114.317 314.400,114.951 314.625,115.174 314.900 C 117.370 317.606,117.397 317.624,119.550 317.874 C 121.434 318.092,121.795 318.284,122.468 319.426 C 123.365 320.946,123.550 321.036,126.524 321.408 C 128.229 321.621,128.833 321.872,129.014 322.445 C 129.362 323.540,130.548 324.043,133.717 324.441 C 135.812 324.704,136.662 324.997,137.084 325.599 C 138.045 326.971,139.999 327.681,143.645 327.983 C 146.785 328.243,147.297 328.402,148.558 329.510 C 150.125 330.886,150.839 331.031,158.000 331.425 C 162.043 331.648,162.891 331.826,165.000 332.891 L 167.400 334.103 179.800 334.292 C 194.729 334.519,199.714 334.161,201.919 332.701 C 203.237 331.829,204.062 331.652,207.826 331.433 C 215.810 330.969,216.434 330.848,217.663 329.533 C 218.682 328.442,219.095 328.312,222.596 327.980 C 226.728 327.590,227.544 327.305,228.678 325.865 C 229.262 325.122,230.067 324.828,232.511 324.464 C 235.794 323.976,237.076 323.419,237.421 322.333 C 237.555 321.911,238.253 321.571,239.317 321.411 C 242.948 320.864,243.270 320.728,244.045 319.413 C 244.674 318.347,245.137 318.063,246.557 317.868 C 248.923 317.544,250.333 316.844,250.646 315.839 C 250.966 314.813,251.529 314.414,252.669 314.406 C 253.148 314.403,254.370 313.766,255.386 312.990 C 256.401 312.215,257.929 311.302,258.780 310.961 C 259.781 310.561,260.493 309.942,260.798 309.206 C 261.085 308.511,261.682 307.966,262.334 307.804 C 263.721 307.458,264.800 306.466,264.800 305.538 C 264.800 305.040,265.092 304.800,265.700 304.799 C 267.070 304.796,269.144 303.359,271.834 300.548 C 273.173 299.149,274.858 297.799,275.578 297.548 C 276.468 297.237,277.065 296.664,277.445 295.753 C 277.812 294.876,278.349 294.343,279.002 294.207 C 279.551 294.093,280.415 293.915,280.921 293.812 C 281.819 293.629,283.200 294.709,283.200 295.595 C 283.200 295.808,283.695 296.296,284.300 296.680 C 284.905 297.065,285.726 297.744,286.124 298.190 C 286.523 298.635,287.167 299.360,287.555 299.800 C 287.944 300.240,289.373 301.632,290.731 302.894 C 292.089 304.156,293.200 305.286,293.200 305.406 C 293.200 305.526,294.415 306.815,295.900 308.270 C 297.385 309.726,298.871 311.474,299.202 312.154 C 299.532 312.834,300.281 313.620,300.864 313.899 C 301.448 314.179,302.298 315.039,302.753 315.810 C 303.208 316.581,304.035 317.385,304.590 317.596 C 306.458 318.306,305.983 321.384,303.862 322.317 C 303.226 322.597,302.526 323.342,302.275 324.006 C 301.981 324.786,301.398 325.337,300.582 325.606 C 299.777 325.871,299.136 326.470,298.769 327.297 C 298.456 328.002,297.829 328.673,297.375 328.789 C 296.583 328.992,292.582 332.256,290.431 334.454 C 289.864 335.034,288.950 335.641,288.400 335.803 C 287.105 336.185,286.381 336.780,286.018 337.763 C 285.857 338.198,285.112 338.754,284.363 338.999 C 283.490 339.285,282.784 339.885,282.400 340.666 C 281.947 341.587,281.368 342.003,280.041 342.358 C 278.969 342.645,277.797 343.352,277.041 344.168 C 276.353 344.910,275.202 345.635,274.458 345.795 C 273.564 345.986,272.896 346.473,272.458 347.252 C 272.096 347.896,271.351 348.515,270.800 348.629 C 267.426 349.328,266.700 349.680,266.267 350.828 C 265.927 351.730,265.503 352.050,264.413 352.232 C 261.708 352.683,260.408 353.265,259.613 354.382 C 258.955 355.306,258.404 355.557,256.516 355.793 C 254.615 356.031,253.998 356.315,252.936 357.440 C 251.978 358.457,251.318 358.800,250.324 358.800 C 248.173 358.800,246.528 359.446,245.326 360.763 C 244.321 361.864,243.852 362.034,240.972 362.346 C 237.392 362.733,236.177 363.213,235.805 364.386 C 235.533 365.243,234.816 365.417,230.068 365.785 C 227.789 365.961,226.537 366.322,224.442 367.406 C 222.084 368.626,221.377 368.801,218.774 368.811 C 211.946 368.836,208.443 369.432,206.650 370.874 L 205.000 372.200 183.342 372.200 C 163.936 372.200,161.607 372.133,160.942 371.551 C 158.915 369.779,156.793 369.317,148.488 368.843 C 143.520 368.560,142.661 368.409,141.888 367.685 C 140.559 366.440,138.973 365.972,135.205 365.716 C 132.030 365.499,131.714 365.395,130.518 364.180 C 129.216 362.857,128.721 362.706,123.913 362.167 C 122.145 361.969,121.570 361.737,121.382 361.145 C 121.006 359.958,119.604 359.254,117.003 358.949 C 115.038 358.718,114.412 358.446,113.411 357.390 C 112.424 356.348,111.770 356.058,109.869 355.823 C 108.096 355.604,107.330 355.294,106.669 354.529 C 105.577 353.265,103.938 352.400,102.636 352.400 C 102.083 352.400,101.441 352.175,101.208 351.900 C 100.976 351.625,100.474 351.025,100.093 350.568 C 99.334 349.656,97.222 348.800,95.730 348.800 C 95.108 348.800,94.660 348.484,94.432 347.884 C 93.978 346.691,93.355 346.241,91.368 345.674 C 90.439 345.409,89.207 344.626,88.505 343.856 C 87.771 343.049,86.729 342.401,85.924 342.250 C 84.911 342.060,84.463 341.703,84.131 340.822 C 83.847 340.069,83.183 339.436,82.282 339.060 C 81.509 338.737,80.762 338.109,80.621 337.665 C 80.453 337.138,79.509 336.530,77.909 335.919 C 76.119 335.235,75.279 334.660,74.803 333.791 C 74.416 333.084,73.638 332.446,72.890 332.221 C 71.977 331.947,71.561 331.535,71.384 330.728 C 71.196 329.873,70.792 329.510,69.642 329.165 C 68.561 328.841,68.021 328.392,67.704 327.551 C 67.426 326.815,66.757 326.174,65.885 325.810 C 64.870 325.385,64.444 324.918,64.266 324.032 C 64.081 323.104,63.737 322.755,62.761 322.502 C 61.799 322.253,61.389 321.846,61.048 320.801 C 60.717 319.784,60.281 319.336,59.374 319.077 C 58.547 318.841,58.002 318.340,57.699 317.538 C 57.417 316.792,56.789 316.175,56.009 315.881 C 55.214 315.581,54.683 315.051,54.530 314.406 C 54.218 313.086,53.249 312.000,52.383 312.000 C 51.908 312.000,51.607 311.563,51.429 310.617 C 51.261 309.717,50.747 308.932,49.960 308.372 C 49.295 307.898,48.266 306.495,47.675 305.255 C 46.907 303.643,46.346 302.964,45.708 302.873 C 45.054 302.780,44.685 302.310,44.325 301.107 C 43.970 299.924,43.531 299.353,42.745 299.057 C 41.908 298.741,41.551 298.230,41.203 296.847 C 40.918 295.713,40.253 294.578,39.405 293.779 C 38.647 293.064,37.872 291.810,37.628 290.903 C 37.312 289.730,36.891 289.169,36.074 288.831 C 35.123 288.437,34.878 288.001,34.456 285.957 C 34.029 283.892,33.768 283.436,32.629 282.764 C 31.455 282.071,31.277 281.738,31.101 279.908 C 30.932 278.156,30.684 277.648,29.492 276.618 C 28.276 275.567,28.045 275.077,27.806 273.046 C 27.540 270.783,26.612 269.207,25.283 268.759 C 25.023 268.672,24.707 267.700,24.580 266.600 C 24.201 263.327,24.044 262.878,22.769 261.426 C 21.732 260.245,21.500 259.570,21.219 256.918 C 20.829 253.240,20.577 252.510,19.588 252.196 C 18.605 251.884,18.122 250.139,17.829 245.842 C 17.567 241.994,16.475 238.800,15.422 238.800 C 15.080 238.800,14.794 238.665,14.787 238.500 C 14.127 223.442,13.807 221.007,12.287 219.487 C 11.071 218.271,10.899 184.149,12.099 182.376 C 13.557 180.222,14.069 177.511,14.358 170.396 C 14.637 163.553,14.667 163.369,15.689 162.348 C 17.028 161.008,17.551 159.114,17.871 154.441 C 18.101 151.083,18.248 150.545,19.250 149.404 C 20.740 147.707,21.200 146.384,21.200 143.795 C 21.200 142.019,21.385 141.445,22.253 140.521 C 23.698 138.983,24.271 137.468,24.607 134.300 C 24.838 132.118,25.026 131.600,25.585 131.600 C 26.890 131.600,27.679 130.164,27.903 127.378 C 28.099 124.927,28.201 124.688,29.203 124.339 C 30.461 123.900,31.022 122.857,31.417 120.223 C 31.636 118.766,31.908 118.263,32.625 117.990 C 33.667 117.594,34.178 116.777,34.522 114.956 C 34.652 114.272,35.388 113.063,36.158 112.270 C 36.966 111.439,37.670 110.232,37.823 109.420 C 38.008 108.430,38.462 107.780,39.348 107.232 C 40.234 106.685,40.767 105.922,41.135 104.673 C 41.455 103.589,42.196 102.420,43.030 101.681 C 43.922 100.891,44.400 100.108,44.400 99.437 C 44.400 98.643,44.738 98.245,45.875 97.703 C 46.872 97.228,47.447 96.631,47.651 95.861 C 47.816 95.234,48.638 94.060,49.476 93.251 C 52.232 90.592,54.406 87.916,54.673 86.853 C 54.982 85.620,55.537 85.001,56.647 84.649 C 57.092 84.507,57.749 83.777,58.107 83.027 C 58.521 82.159,59.094 81.614,59.679 81.531 C 60.253 81.449,60.854 80.892,61.273 80.052 C 61.643 79.311,62.503 78.366,63.183 77.952 C 63.863 77.538,64.592 76.746,64.803 76.193 C 65.013 75.639,65.643 75.012,66.203 74.799 C 66.762 74.586,67.580 73.801,68.021 73.054 C 68.553 72.152,69.224 71.615,70.018 71.456 C 70.675 71.325,71.975 70.446,72.906 69.502 C 73.838 68.559,75.086 67.573,75.681 67.311 C 76.275 67.049,77.034 66.308,77.367 65.664 C 77.722 64.976,78.431 64.379,79.084 64.215 C 80.539 63.849,81.200 63.272,81.200 62.366 C 81.200 61.845,81.672 61.504,82.821 61.194 C 83.712 60.954,84.556 60.453,84.696 60.079 C 85.062 59.102,85.936 58.515,88.140 57.767 C 89.558 57.286,90.296 56.744,90.880 55.754 C 91.424 54.833,91.976 54.400,92.609 54.400 C 93.120 54.400,94.351 53.780,95.344 53.022 C 96.336 52.265,97.892 51.444,98.801 51.200 C 100.018 50.872,100.668 50.391,101.266 49.377 C 101.867 48.360,102.356 47.999,103.140 47.998 C 105.413 47.993,107.277 47.180,107.723 45.999 C 108.110 44.972,108.390 44.834,110.576 44.585 C 113.467 44.255,114.321 43.859,114.788 42.631 C 115.085 41.851,115.525 41.669,117.669 41.438 C 121.216 41.056,122.663 40.515,123.579 39.230 C 124.290 38.231,124.673 38.095,127.339 37.893 C 130.403 37.661,132.557 36.863,133.600 35.570 C 134.065 34.994,134.962 34.773,137.600 34.588 C 142.304 34.256,144.644 33.680,146.033 32.510 C 147.171 31.553,147.530 31.499,154.710 31.199 C 162.121 30.889,163.232 30.729,164.400 29.802 C 164.960 29.358,168.804 28.571,172.000 28.247 C 174.742 27.968,194.242 28.333,196.600 28.706 M176.800 102.616 C 175.810 102.912,171.940 103.312,168.200 103.505 C 162.648 103.790,161.152 103.996,160.050 104.627 C 159.307 105.052,158.253 105.644,157.708 105.942 C 157.163 106.240,155.611 106.579,154.259 106.697 C 151.946 106.897,149.140 107.926,148.623 108.763 C 148.495 108.969,147.251 109.517,145.857 109.981 C 144.463 110.445,142.714 111.273,141.972 111.821 C 141.229 112.369,139.939 113.001,139.105 113.226 C 138.272 113.450,136.982 114.167,136.240 114.819 C 135.498 115.470,134.126 116.273,133.193 116.603 C 132.259 116.932,130.819 117.786,129.993 118.501 C 127.440 120.708,125.469 122.226,123.755 123.306 C 120.711 125.221,108.154 138.256,106.721 140.986 C 106.348 141.698,105.575 142.587,105.003 142.961 C 104.431 143.336,103.754 144.128,103.498 144.721 C 103.242 145.315,102.441 146.476,101.717 147.301 C 100.992 148.127,100.400 149.074,100.400 149.407 C 100.400 150.210,99.680 151.449,98.100 153.367 C 97.385 154.234,96.800 155.350,96.800 155.846 C 96.800 157.265,96.094 158.768,94.836 160.026 C 93.973 160.889,93.608 161.722,93.406 163.292 C 93.230 164.663,92.716 165.997,91.937 167.108 C 90.994 168.452,90.619 169.611,90.179 172.538 C 89.869 174.604,89.157 177.270,88.579 178.533 C 86.172 183.792,85.905 215.468,88.238 219.098 C 88.953 220.209,89.863 223.726,90.364 227.314 C 90.627 229.194,91.105 230.574,91.917 231.800 C 92.570 232.785,93.303 234.654,93.570 236.011 C 93.868 237.522,94.357 238.708,94.857 239.125 C 95.947 240.038,96.651 241.470,96.979 243.446 C 97.166 244.572,97.749 245.624,98.826 246.779 C 99.692 247.707,100.400 248.708,100.400 249.003 C 100.400 249.298,100.854 250.078,101.408 250.737 C 101.962 251.395,102.776 252.749,103.217 253.745 C 103.658 254.741,104.473 255.914,105.028 256.351 C 105.584 256.788,106.477 257.791,107.011 258.579 C 107.546 259.367,109.202 261.266,110.692 262.799 C 112.181 264.332,113.670 265.870,114.000 266.218 C 117.426 269.826,124.840 276.759,125.494 276.966 C 125.953 277.112,126.630 277.691,126.998 278.252 C 127.365 278.814,128.604 279.688,129.749 280.195 C 130.895 280.701,132.095 281.434,132.416 281.822 C 132.737 282.211,133.900 282.934,135.000 283.428 C 136.100 283.922,137.307 284.695,137.682 285.147 C 138.057 285.598,139.364 286.258,140.587 286.613 C 141.809 286.969,143.308 287.679,143.917 288.192 C 144.526 288.704,146.369 289.522,148.012 290.008 C 149.656 290.494,151.684 291.352,152.519 291.914 C 153.737 292.733,154.914 293.035,158.445 293.439 C 161.674 293.809,163.371 294.215,164.791 294.957 C 169.915 297.637,197.048 297.673,202.271 295.007 C 204.189 294.029,208.085 293.209,210.844 293.203 C 211.721 293.201,212.867 292.807,213.763 292.199 C 214.574 291.649,216.445 290.827,217.919 290.373 C 221.109 289.391,221.796 289.079,223.478 287.846 C 224.193 287.322,225.648 286.791,226.778 286.641 C 228.327 286.435,228.954 286.137,229.461 285.363 C 229.825 284.808,230.860 283.984,231.761 283.532 C 232.662 283.080,233.762 282.379,234.205 281.974 C 234.648 281.569,235.668 280.964,236.470 280.628 C 238.609 279.735,241.959 276.879,249.700 269.348 C 252.065 267.048,254.000 264.998,254.000 264.793 C 254.000 264.588,254.495 264.154,255.100 263.829 C 255.705 263.503,257.100 262.116,258.200 260.747 C 259.300 259.378,260.773 257.684,261.473 256.982 C 262.173 256.280,263.037 255.007,263.393 254.153 C 263.749 253.299,264.550 252.060,265.173 251.400 C 265.796 250.740,266.519 249.528,266.781 248.707 C 267.043 247.885,267.754 246.860,268.360 246.429 C 269.167 245.854,269.610 245.028,270.014 243.341 C 270.336 242.000,271.030 240.511,271.676 239.775 C 272.342 239.016,272.966 237.653,273.240 236.356 C 273.762 233.885,274.209 232.888,275.235 231.903 C 276.130 231.043,276.795 228.752,276.798 226.514 C 276.803 222.367,278.416 221.142,284.200 220.890 C 290.713 220.608,290.400 219.242,290.400 247.920 C 290.400 272.901,290.292 271.927,293.215 273.408 L 295.261 274.445 313.349 274.322 C 333.647 274.185,332.464 274.361,334.808 271.126 L 336.000 269.480 336.000 247.390 C 336.000 219.668,335.750 220.800,341.867 220.800 C 347.009 220.800,346.563 218.390,346.800 247.421 C 347.024 274.822,346.742 272.696,350.295 273.761 C 353.767 274.802,386.715 274.574,388.688 273.496 C 391.717 271.840,391.660 272.832,391.510 224.200 C 391.373 179.643,391.355 179.177,389.672 177.494 C 388.269 176.091,386.074 176.035,331.923 176.017 L 278.445 176.000 277.842 175.138 C 277.510 174.664,277.022 172.938,276.758 171.302 C 276.359 168.829,276.053 168.089,274.939 166.908 C 274.128 166.048,273.599 165.077,273.598 164.444 C 273.594 162.680,272.840 160.560,271.829 159.469 C 271.299 158.897,270.587 157.473,270.247 156.303 C 269.882 155.048,269.144 153.713,268.443 153.041 C 267.702 152.332,267.081 151.171,266.788 149.951 C 266.455 148.563,265.981 147.756,265.151 147.165 C 264.509 146.708,263.719 145.763,263.396 145.067 C 263.074 144.370,262.002 142.810,261.015 141.600 C 260.028 140.390,258.541 138.534,257.710 137.475 C 256.880 136.416,255.786 135.156,255.281 134.675 C 254.775 134.194,252.525 131.932,250.281 129.649 C 248.036 127.366,245.930 125.233,245.600 124.909 C 245.023 124.343,243.153 123.039,239.094 120.375 C 238.045 119.687,237.009 118.790,236.790 118.382 C 236.572 117.974,235.321 117.250,234.011 116.772 C 232.658 116.279,231.369 115.507,231.028 114.987 C 230.698 114.484,229.747 113.858,228.914 113.598 C 228.081 113.338,226.410 112.529,225.200 111.801 C 223.990 111.073,221.980 110.182,220.734 109.820 C 219.487 109.459,218.240 108.889,217.963 108.555 C 217.092 107.506,215.304 106.800,213.517 106.800 C 211.203 106.800,209.385 106.237,207.514 104.940 C 206.029 103.911,205.600 103.840,198.079 103.378 C 193.746 103.112,189.693 102.693,189.074 102.447 C 187.524 101.832,179.027 101.949,176.800 102.616 M191.535 148.334 C 192.551 148.872,195.078 149.550,197.634 149.971 C 200.900 150.509,202.379 150.954,203.509 151.737 C 204.340 152.313,205.645 152.903,206.410 153.048 C 208.249 153.398,209.156 153.868,210.600 155.218 C 211.260 155.835,212.606 156.660,213.592 157.050 C 215.484 157.800,216.120 158.321,220.600 162.790 C 224.930 167.109,226.017 168.585,226.855 171.278 C 227.282 172.649,227.906 174.075,228.242 174.446 C 229.362 175.684,228.076 175.796,209.200 176.097 C 173.920 176.660,168.251 176.825,167.670 177.308 C 167.365 177.561,166.685 178.743,166.158 179.934 L 165.200 182.100 165.200 198.550 C 165.201 216.406,165.321 217.499,167.539 219.717 L 168.422 220.600 198.370 220.710 C 224.105 220.804,228.387 220.902,228.805 221.406 C 229.485 222.225,228.962 225.329,227.997 226.202 C 227.575 226.584,227.030 227.502,226.786 228.242 C 226.542 228.982,225.885 229.947,225.326 230.387 C 224.767 230.827,223.821 231.955,223.225 232.893 C 221.815 235.113,217.861 238.985,215.691 240.273 C 214.751 240.830,213.808 241.612,213.595 242.009 C 213.383 242.406,212.352 243.046,211.305 243.431 C 210.257 243.816,208.950 244.530,208.400 245.017 C 206.952 246.299,206.060 246.673,203.683 246.994 C 202.332 247.176,201.144 247.635,200.397 248.264 C 196.371 251.652,169.596 251.602,166.401 248.201 C 165.884 247.650,165.141 247.200,164.750 247.200 C 162.769 247.200,159.820 246.217,158.607 245.153 C 157.876 244.511,156.675 243.781,155.939 243.530 C 155.203 243.280,153.956 242.518,153.169 241.838 C 152.382 241.157,151.308 240.330,150.782 240.000 C 149.335 239.092,144.020 233.602,142.941 231.900 C 142.418 231.075,141.845 230.400,141.669 230.400 C 141.492 230.400,140.925 229.635,140.408 228.700 C 139.891 227.765,138.966 226.280,138.352 225.400 C 137.709 224.478,136.958 222.559,136.580 220.873 C 136.202 219.187,135.679 217.852,135.347 217.724 C 134.334 217.336,133.692 215.488,133.427 212.200 C 133.286 210.440,132.870 206.796,132.505 204.102 C 131.940 199.938,131.915 198.739,132.339 196.102 C 132.614 194.396,133.009 191.116,133.217 188.813 C 133.642 184.107,134.093 182.402,135.169 181.428 C 135.575 181.061,136.119 179.914,136.377 178.880 C 137.469 174.512,137.660 174.003,138.404 173.482 C 138.834 173.181,139.574 172.050,140.049 170.967 C 140.524 169.885,141.439 168.395,142.083 167.656 C 142.727 166.916,143.413 165.891,143.609 165.376 C 143.804 164.862,144.467 164.121,145.082 163.728 C 145.697 163.335,146.429 162.705,146.709 162.327 C 147.403 161.389,148.132 160.712,149.213 160.000 C 149.714 159.670,150.485 158.999,150.927 158.508 C 151.369 158.018,152.556 157.316,153.565 156.949 C 154.574 156.582,155.859 155.751,156.421 155.102 C 157.102 154.316,158.157 153.738,159.594 153.366 C 160.778 153.058,162.406 152.350,163.212 151.792 C 164.266 151.061,165.904 150.560,169.039 150.007 C 171.438 149.584,174.480 148.776,175.800 148.210 C 179.166 146.768,188.718 146.843,191.535 148.334 " stroke="none" fill="#dfd0b0" fill-rule="evenodd"></path></g></svg>