<svg width="30" height="4" viewBox="0 0 30 4" fill="none" xmlns="http://www.w3.org/2000/svg">
<path d="M2.38782 4L24.8617 3.86408L25.4964 4L26.5845 3.86408H25.708L25.0732 4L2.5994 3.86408L2.38782 4ZM2.81097 3.59223L3.02255 3.18447H2.5994L1.72286 3.02913L0.211579 2.8932L0 3.02913L1.93443 2.48544L1.08812 2.34951L0.87654 2.48544L1.51128 2.21359L0.453383 2.07767L0.211579 2.21359L0.87654 1.65049L1.72286 1.37864L1.08812 1.1068L0.87654 1.24272L0.664962 1.1068L0.453383 1.24272L2.81097 0.834951L3.02255 0.407767L2.5994 0.271845L2.14601 0.135922L1.72286 0.271845L25.9196 0L26.5845 0.135922L27.6424 0L27.4308 0.135922L28.0656 0.271845L29.1537 0.135922H28.3074L27.6424 0.407767L28.9421 0.699029L27.854 0.834951L29.1537 0.970874L28.0656 1.1068L29.5768 1.24272L29.1537 1.37864L29.3653 1.51456L28.9421 1.65049L29.1537 1.78641L28.7305 1.94175L29.3653 2.07767L28.0656 2.48544L28.9421 2.75728L30 2.62136H29.5768L28.0656 3.02913L28.9421 3.18447L27.4308 3.32039L26.5845 3.18447L26.3729 3.32039L27.0077 3.45631L25.4964 3.59223L3.02255 3.45631L2.81097 3.59223ZM4.74541 3.32039L3.44571 3.18447L3.23413 3.32039L4.53383 3.45631L4.74541 3.32039ZM2.5994 2.75728L1.51128 2.62136L1.2997 2.75728L2.38782 2.8932L2.5994 2.75728ZM3.44571 2.75728L3.02255 2.62136L2.81097 2.75728L3.23413 2.8932L3.44571 2.75728ZM28.0656 2.75728L27.854 2.62136L27.6424 2.75728L27.854 2.8932L28.0656 2.75728ZM3.02255 2.48544L2.14601 2.34951L1.93443 2.48544L2.81097 2.62136L3.02255 2.48544ZM2.14601 1.94175L0.87654 1.78641L0.664962 1.94175L1.93443 2.07767L2.14601 1.94175ZM2.14601 1.51456L1.72286 1.37864L1.51128 1.51456L1.93443 1.65049L2.14601 1.51456ZM28.5189 1.51456L28.3074 1.37864L28.0656 1.51456L28.3074 1.65049L28.5189 1.51456ZM1.93443 1.24272L1.72286 1.1068L1.51128 1.24272L1.72286 1.37864L1.93443 1.24272ZM27.6424 1.1068L27.2193 0.970874L27.0077 1.1068L27.4308 1.24272L27.6424 1.1068ZM25.0732 0.834951L24.4385 0.699029L24.1967 0.834951L24.8617 0.970874L25.0732 0.834951ZM27.4308 0.834951L27.2193 0.699029L27.0077 0.834951L27.2193 0.970874L27.4308 0.834951ZM3.44571 0.699029L3.23413 0.543689L3.02255 0.699029L3.23413 0.834951L3.44571 0.699029Z" fill="white"/>
</svg>
