<svg width="19" height="17" viewBox="0 0 19 17" fill="none" xmlns="http://www.w3.org/2000/svg">
<path d="M1.40034 9.50403L1.46505 9.4023L5.36715 3.29796C5.42418 3.20859 5.55825 3.21783 5.60139 3.31491C6.25329 4.77588 6.81579 6.59286 6.55227 7.72404C6.43977 8.18946 6.13155 8.81976 5.78478 9.4023C5.74011 9.48708 5.69079 9.5703 5.63838 9.65043C5.61372 9.68742 5.57211 9.70899 5.52741 9.70899H1.51437C1.40649 9.70899 1.34331 9.59187 1.40034 9.50403Z" fill="black"/>
<path d="M18.7934 10.6383V11.6046C18.7934 11.66 18.7595 11.7094 18.7101 11.7309C18.4081 11.8604 17.374 12.335 16.9441 12.933C15.8468 14.4602 15.0084 16.644 13.1344 16.644H5.31635C2.54546 16.644 0.300049 14.3909 0.300049 11.6107V11.5213C0.300049 11.4474 0.360139 11.3873 0.434119 11.3873H4.7924C4.87868 11.3873 4.94186 11.4674 4.93418 11.5522C4.90334 11.8357 4.95575 12.1255 5.08982 12.389C5.34872 12.9145 5.88503 13.2428 6.46448 13.2428H8.62205V11.5583H6.48914C6.37973 11.5583 6.31502 11.432 6.3782 11.3426C6.4013 11.3071 6.42752 11.2702 6.45524 11.2286C6.65714 10.9419 6.94532 10.4965 7.23197 9.98949C7.42769 9.64737 7.61723 9.28212 7.76981 8.91534C7.80065 8.84907 7.82528 8.78124 7.84994 8.71497C7.89155 8.59785 7.93472 8.48844 7.96553 8.37903C7.99637 8.28654 8.021 8.18946 8.04566 8.09853C8.11811 7.78722 8.14892 7.45743 8.14892 7.11531C8.14892 6.98124 8.14277 6.84099 8.13044 6.70692C8.12426 6.56052 8.10578 6.41409 8.08727 6.26769C8.07494 6.13824 8.05184 6.01032 8.02718 5.87625C7.99637 5.68053 7.9532 5.48637 7.90388 5.29062L7.88693 5.21667C7.84994 5.08257 7.81913 4.95468 7.77599 4.82061C7.65422 4.39986 7.514 3.98994 7.36604 3.60621C7.3121 3.45363 7.25045 3.30723 7.1888 3.16083C7.0979 2.94045 7.00541 2.74011 6.92066 2.55054C6.87752 2.46423 6.84053 2.38563 6.80354 2.3055C6.76193 2.21457 6.71879 2.12364 6.67562 2.03736C6.64481 1.97109 6.60935 1.90944 6.58469 1.84779L6.32117 1.3608C6.28418 1.29453 6.34583 1.21593 6.41825 1.23597L8.06726 1.68288H8.07188C8.07494 1.68288 8.0765 1.68444 8.07803 1.68444L8.29532 1.74453L8.53421 1.81236L8.62205 1.83699V0.85686C8.62205 0.38373 9.00116 0 9.46967 0C9.70391 0 9.91658 0.0955498 10.0692 0.25119C10.2217 0.40686 10.3173 0.61953 10.3173 0.85686V2.31168L10.493 2.36097C10.5068 2.36562 10.5207 2.37177 10.533 2.38101C10.5762 2.41338 10.6378 2.46114 10.7164 2.51973C10.7781 2.56902 10.8443 2.62914 10.9245 2.69079C11.0832 2.81868 11.2728 2.98359 11.4808 3.17316C11.5363 3.22092 11.5902 3.27024 11.6395 3.31956C11.9077 3.56922 12.2082 3.86202 12.4949 4.18566C12.575 4.27659 12.6536 4.36905 12.7337 4.46613C12.8139 4.56477 12.8986 4.66185 12.9726 4.75896C13.0697 4.88841 13.1745 5.02248 13.2654 5.16273C13.3086 5.229 13.3579 5.2968 13.3995 5.36307C13.5166 5.54028 13.6199 5.7237 13.7185 5.90709C13.7601 5.99184 13.8033 6.0843 13.8403 6.17523C13.9497 6.42027 14.036 6.66993 14.0914 6.91959C14.1084 6.97353 14.1207 7.03209 14.1269 7.0845V7.09683C14.1454 7.17078 14.1516 7.24938 14.1577 7.32951C14.1824 7.58535 14.17 7.84116 14.1146 8.09853C14.0914 8.20797 14.0606 8.3112 14.0236 8.42064C13.9867 8.52543 13.9497 8.63484 13.9019 8.7381C13.8094 8.9523 13.7 9.16653 13.5706 9.36687C13.5289 9.44085 13.4796 9.51945 13.4303 9.59343C13.3764 9.672 13.3209 9.74598 13.2716 9.81843C13.2038 9.91089 13.1314 10.008 13.0574 10.0943C12.9911 10.1852 12.9233 10.2761 12.8493 10.3563C12.7461 10.478 12.6474 10.5936 12.5442 10.7046C12.4825 10.777 12.4163 10.851 12.3484 10.9172C12.2822 10.9912 12.2144 11.0575 12.1527 11.1191C12.0495 11.2224 11.9632 11.3025 11.8907 11.3688L11.7212 11.5244C11.6966 11.546 11.6642 11.5583 11.6303 11.5583H10.3173V13.2428H11.9693C12.3392 13.2428 12.6906 13.1118 12.9742 12.8714C13.0712 12.7866 13.495 12.4198 13.9959 11.8666C14.0128 11.8481 14.0344 11.8342 14.0591 11.828L18.6223 10.5089C18.7071 10.4842 18.7934 10.5489 18.7934 10.6383Z" fill="black"/>
</svg>
