<svg width="396" height="108" viewBox="0 0 396 108" fill="none" xmlns="http://www.w3.org/2000/svg">
<path d="M92.69 8.46C92.69 7.81 92.9283 7.485 93.405 7.485C93.6217 7.485 93.7733 7.68 93.86 8.07C93.99 8.41666 94.055 8.67667 94.055 8.85C94.055 9.80333 93.6867 10.54 92.95 11.06C92.2567 11.58 91.39 11.9483 90.35 12.165C89.31 12.3817 88.1833 12.49 86.97 12.49C85.8 12.4467 84.695 12.36 83.655 12.23C81.2283 11.9267 79.0833 11.58 77.22 11.19C75.3567 10.7567 73.7317 10.345 72.345 9.955C71.0017 9.52166 69.8967 9.13166 69.03 8.785C68.2067 8.43833 67.6217 8.2 67.275 8.07C65.325 11.19 63.7433 14.3967 62.53 17.69C61.3167 20.94 60.125 24.19 58.955 27.44C57.8283 30.6467 56.55 33.81 55.12 36.93C53.69 40.0067 51.7833 42.91 49.4 45.64C47.6667 47.59 45.565 49.215 43.095 50.515C40.625 51.8583 37.96 52.855 35.1 53.505C32.2833 54.1983 29.38 54.545 26.39 54.545C23.4 54.5883 20.54 54.2633 17.81 53.57C15.08 52.92 12.5667 51.9233 10.27 50.58C8.01667 49.2367 6.175 47.5467 4.745 45.51C3.35833 43.4733 2.47 41.09 2.08 38.36C1.73333 35.5867 2.10167 32.4667 3.185 29C3.66167 27.4833 4.355 26.205 5.265 25.165C6.21833 24.0817 7.15 23.28 8.06 22.76C8.97 22.1967 9.72833 21.9367 10.335 21.98C10.985 21.98 11.2667 22.3267 11.18 23.02C10.92 23.3667 10.465 23.735 9.815 24.125C9.20833 24.515 8.53667 25.035 7.8 25.685C7.10667 26.335 6.435 27.1583 5.785 28.155C5.17833 29.1517 4.745 30.43 4.485 31.99C4.095 34.2 4.07333 36.2583 4.42 38.165C4.76667 40.0283 5.395 41.7183 6.305 43.235C7.215 44.7517 8.34167 46.0733 9.685 47.2C11.0283 48.3267 12.5017 49.28 14.105 50.06C15.7083 50.84 17.355 51.4033 19.045 51.75C20.7783 52.14 22.49 52.3133 24.18 52.27C26.7367 52.2267 29.0767 51.945 31.2 51.425C33.3667 50.905 35.36 50.2117 37.18 49.345C39 48.4783 40.6467 47.46 42.12 46.29C43.6367 45.12 45.0233 43.8633 46.28 42.52C47.58 41.09 48.88 39.335 50.18 37.255C51.5233 35.1317 52.8233 32.8783 54.08 30.495C55.38 28.0683 56.5933 25.62 57.72 23.15C58.89 20.68 59.9733 18.3833 60.97 16.26C61.9667 14.1367 62.8333 12.295 63.57 10.735C64.3067 9.13166 64.9133 8.02666 65.39 7.42C61.9667 6.33667 58.695 5.51333 55.575 4.95C52.455 4.38667 49.1617 4.01833 45.695 3.845C42.575 3.715 39.78 4.08333 37.31 4.95C34.8833 5.77333 32.8033 6.87833 31.07 8.265C29.3367 9.65167 27.9717 11.2333 26.975 13.01C25.9783 14.7433 25.415 16.4333 25.285 18.08C25.155 19.6833 25.4583 21.1567 26.195 22.5C26.9317 23.8 28.145 24.71 29.835 25.23C31.8283 25.88 33.605 25.945 35.165 25.425C36.725 24.905 38.0467 24.1683 39.13 23.215C40.2133 22.2183 41.015 21.2 41.535 20.16C42.055 19.12 42.2933 18.3617 42.25 17.885V17.755C42.5967 17.4517 42.9 17.365 43.16 17.495C43.42 17.5817 43.55 17.8417 43.55 18.275C43.3333 20.0083 42.7483 21.525 41.795 22.825C40.8417 24.125 39.6717 25.165 38.285 25.945C36.9417 26.725 35.4683 27.2017 33.865 27.375C32.2617 27.5483 30.7017 27.375 29.185 26.855C26.975 26.075 25.2633 24.84 24.05 23.15C22.88 21.46 22.2083 19.575 22.035 17.495C21.8617 15.415 22.2083 13.2917 23.075 11.125C23.985 8.95833 25.3933 7.03 27.3 5.34C29.2067 3.65 31.655 2.35 34.645 1.44C37.635 0.486664 41.1667 0.18333 45.24 0.529998C47.19 0.703331 49.1833 1.05 51.22 1.57C53.3 2.04666 55.2933 2.58833 57.2 3.195C59.1067 3.75833 60.8617 4.32167 62.465 4.885C64.0683 5.44833 65.39 5.88166 66.43 6.185C66.56 6.01166 66.82 5.70833 67.21 5.275C67.6 4.84167 68.0333 4.40833 68.51 3.975C68.9867 3.49833 69.4633 3.08666 69.94 2.74C70.46 2.39333 70.8933 2.22 71.24 2.22H71.175C71.695 2.04667 72.1067 2.09 72.41 2.35C72.7133 2.56666 72.8867 2.84833 72.93 3.195C73.0167 3.49833 72.9517 3.78 72.735 4.04C72.5183 4.25667 72.15 4.27833 71.63 4.105C71.5 3.975 71.2833 4.01833 70.98 4.235C70.6767 4.40833 70.3517 4.64666 70.005 4.95C69.7017 5.21 69.3767 5.51333 69.03 5.86C68.7267 6.20667 68.4667 6.48833 68.25 6.705C69.16 7.00833 70.395 7.37666 71.955 7.81C73.5583 8.2 75.2483 8.59 77.025 8.98C78.845 9.37 80.6867 9.71666 82.55 10.02C84.4133 10.28 86.0817 10.4317 87.555 10.475C89.0717 10.475 90.3067 10.345 91.26 10.085C92.2133 9.78166 92.69 9.24 92.69 8.46ZM63.115 49.085C63.1583 49.6917 63.0283 50.19 62.725 50.58C62.4217 51.0133 62.0533 51.2517 61.62 51.295C61.23 51.3817 60.84 51.2517 60.45 50.905C60.1033 50.5583 59.865 49.8867 59.735 48.89C59.5617 47.33 59.6267 45.5533 59.93 43.56C60.2767 41.5233 60.71 39.5083 61.23 37.515C61.7933 35.4783 62.3783 33.5717 62.985 31.795C63.635 30.0183 64.155 28.5667 64.545 27.44C64.7183 27.0067 65.0217 26.205 65.455 25.035C65.8883 23.8217 66.4083 22.4567 67.015 20.94C67.665 19.38 68.38 17.755 69.16 16.065C69.9833 14.3317 70.8283 12.7283 71.695 11.255C72.5617 9.78166 73.4283 8.50333 74.295 7.42C75.205 6.33667 76.0933 5.64333 76.96 5.34C77.61 5.12333 78.2383 4.95 78.845 4.82C79.4517 4.64666 79.95 4.53833 80.34 4.495C80.73 4.45166 80.925 4.495 80.925 4.625C80.925 4.755 80.6217 4.97166 80.015 5.275C79.7117 5.44833 79.1267 5.99 78.26 6.9C77.3933 7.76667 76.375 9.11 75.205 10.93C74.0783 12.7067 72.8433 14.96 71.5 17.69C70.2 20.3767 68.9433 23.6267 67.73 27.44C67.4267 28.3933 66.9933 29.8017 66.43 31.665C65.8667 33.5283 65.325 35.5217 64.805 37.645C64.285 39.725 63.83 41.805 63.44 43.885C63.0933 45.965 62.985 47.6983 63.115 49.085ZM73.71 41.155C73.2333 43.885 73.2117 45.9 73.645 47.2C74.1217 48.4567 74.8583 49.1283 75.855 49.215C76.8517 49.3017 78 48.9117 79.3 48.045C80.6433 47.135 81.965 45.8783 83.265 44.275C84.2617 42.975 85.2583 41.5233 86.255 39.92C87.295 38.3167 88.1833 36.6917 88.92 35.045C89.2233 34.4383 89.57 34.135 89.96 34.135C90.35 34.135 90.3717 34.525 90.025 35.305C89.7217 35.955 89.3533 36.7133 88.92 37.58C88.4867 38.4467 87.9883 39.3567 87.425 40.31C86.905 41.22 86.3417 42.1517 85.735 43.105C85.1717 44.0583 84.5867 44.925 83.98 45.705C83.4167 46.4417 82.7667 47.1567 82.03 47.85C81.3367 48.5 80.5783 49.085 79.755 49.605C78.9317 50.125 78.065 50.5367 77.155 50.84C76.245 51.1433 75.335 51.295 74.425 51.295C73.255 51.295 72.3017 50.97 71.565 50.32C70.8717 49.7133 70.3517 48.9117 70.005 47.915C69.6583 46.9183 69.4633 45.8133 69.42 44.6C69.42 43.3867 69.5067 42.1733 69.68 40.96C69.94 39.66 70.2433 38.3383 70.59 36.995C70.98 35.6517 71.37 34.395 71.76 33.225C72.1933 32.0117 72.5833 30.9067 72.93 29.91C73.32 28.9133 73.6233 28.1117 73.84 27.505C74.0133 27.0717 74.3167 26.27 74.75 25.1C75.1833 23.8867 75.725 22.5217 76.375 21.005C77.025 19.445 77.7617 17.82 78.585 16.13C79.4083 14.3967 80.2533 12.7933 81.12 11.32C81.9867 9.84667 82.875 8.56833 83.785 7.485C84.695 6.40166 85.5833 5.70833 86.45 5.405C87.1 5.18833 87.7283 5.015 88.335 4.885C88.9417 4.71167 89.44 4.60333 89.83 4.56C90.22 4.51666 90.415 4.56 90.415 4.69C90.415 4.82 90.1117 5.03667 89.505 5.34C89.2017 5.51333 88.6383 6.055 87.815 6.965C86.9917 7.83166 86.0167 9.175 84.89 10.995C83.8067 12.7717 82.615 15.025 81.315 17.755C80.0583 20.4417 78.8233 23.6917 77.61 27.505C77.3933 28.1117 77.1117 28.935 76.765 29.975C76.4617 30.9717 76.115 32.0983 75.725 33.355C75.335 34.5683 74.945 35.8683 74.555 37.255C74.2083 38.5983 73.9267 39.8983 73.71 41.155ZM118.278 36.67C117.152 38.9233 116.155 40.83 115.288 42.39C114.422 43.9067 113.447 45.2283 112.363 46.355C111.323 47.4383 110.045 48.3917 108.528 49.215C107.055 50.0817 105.148 50.9267 102.808 51.75C101.768 53.57 100.577 55.4983 99.2332 57.535C97.9332 59.5717 96.4598 61.435 94.8132 63.125C93.1665 64.8583 91.3248 66.2667 89.2882 67.35C87.2515 68.4767 85.0415 69.04 82.6582 69.04C81.0115 69.04 79.7332 68.8017 78.8232 68.325C77.9132 67.8483 77.2848 67.22 76.9382 66.44C76.5482 65.66 76.4182 64.7933 76.5482 63.84C76.6782 62.93 76.9815 62.02 77.4582 61.11C78.0648 59.8967 78.9315 58.8567 80.0582 57.99C81.1415 57.1233 82.3115 56.3867 83.5682 55.78C85.7782 54.74 88.2915 53.8733 91.1082 53.18C93.9682 52.53 96.7198 51.8367 99.3632 51.1C99.9698 50.0167 100.555 48.8033 101.118 47.46C101.682 46.1167 102.202 44.7733 102.678 43.43C103.155 42.0867 103.588 40.8083 103.978 39.595C104.368 38.3817 104.693 37.3417 104.953 36.475C104.39 37.4717 103.718 38.6633 102.938 40.05C102.158 41.3933 101.27 42.6933 100.273 43.95C99.3198 45.1633 98.2582 46.225 97.0882 47.135C95.9615 48.0017 94.7698 48.435 93.5132 48.435C93.1665 48.435 92.7765 48.4133 92.3432 48.37C91.9532 48.2833 91.5632 48.1317 91.1732 47.915C90.7832 47.6983 90.4148 47.395 90.0682 47.005C89.7648 46.615 89.5482 46.1167 89.4182 45.51C89.2882 44.8167 89.2665 44.145 89.3532 43.495C89.4398 42.845 89.5915 42.2167 89.8082 41.61C90.0682 40.96 90.3498 40.3533 90.6532 39.79C90.9998 39.1833 91.3248 38.5767 91.6282 37.97C91.4115 37.97 91.1948 37.905 90.9782 37.775C90.8048 37.645 90.8265 37.3633 91.0432 36.93C91.2598 36.5833 91.4548 36.215 91.6282 35.825C91.8015 35.435 91.9965 35.045 92.2132 34.655C92.8632 33.3983 93.5132 32.1417 94.1632 30.885C94.8132 29.6283 95.3765 28.5017 95.8532 27.505C96.1132 26.985 96.4382 26.6383 96.8282 26.465C97.2615 26.2483 97.7815 26.14 98.3882 26.14H102.353C102.05 26.4 101.66 26.6817 101.183 26.985C100.75 27.2883 100.338 27.7867 99.9482 28.48C98.8215 30.3867 97.7815 32.2933 96.8282 34.2C95.9182 36.1067 95.0082 38.035 94.0982 39.985C93.3182 41.675 92.8848 43.0833 92.7982 44.21C92.7115 45.3367 92.8632 46.1383 93.2532 46.615C93.6865 47.0483 94.3148 47.1133 95.1382 46.81C95.9615 46.4633 96.8932 45.6833 97.9332 44.47C98.8432 43.43 99.7748 42.195 100.728 40.765C101.682 39.335 102.592 37.8617 103.458 36.345C104.368 34.785 105.213 33.2467 105.993 31.73C106.817 30.2133 107.532 28.805 108.138 27.505C108.398 26.985 108.723 26.6383 109.113 26.465C109.547 26.2483 110.067 26.14 110.673 26.14H114.183C113.577 26.5733 113.035 27.0717 112.558 27.635C112.125 28.155 111.713 28.7617 111.323 29.455C110.933 30.1483 110.565 30.95 110.218 31.86C109.872 32.7267 109.503 33.7017 109.113 34.785C108.29 36.995 107.445 39.3783 106.578 41.935C105.755 44.4917 104.867 47.07 103.913 49.67C104.607 49.4533 105.365 49.1717 106.188 48.825C107.055 48.4783 107.9 48.045 108.723 47.525C109.547 47.005 110.348 46.3983 111.128 45.705C111.908 44.9683 112.623 44.145 113.273 43.235C114.27 41.7617 115.115 40.3533 115.808 39.01C116.502 37.6667 117.022 36.6917 117.368 36.085C117.672 35.5217 117.975 35.3267 118.278 35.5C118.582 35.63 118.582 36.02 118.278 36.67ZM98.1932 53.18C97.1532 53.44 96.0265 53.7217 94.8132 54.025C93.6432 54.3283 92.4515 54.6533 91.2382 55C90.0248 55.3467 88.8548 55.6933 87.7282 56.04C86.6015 56.43 85.5832 56.82 84.6732 57.21C83.0265 57.9467 81.6615 58.9 80.5782 60.07C79.4515 61.24 78.7148 62.3883 78.3682 63.515C77.9782 64.685 77.9998 65.6817 78.4332 66.505C78.8665 67.3283 79.7765 67.74 81.1632 67.74C82.5932 67.74 84.0665 67.285 85.5832 66.375C87.0998 65.5083 88.5515 64.4467 89.9382 63.19C91.3682 61.9333 92.6682 60.6117 93.8382 59.225C95.0515 57.8383 96.0265 56.625 96.7632 55.585C96.9798 55.2383 97.1965 54.8483 97.4132 54.415C97.6732 54.025 97.9332 53.6133 98.1932 53.18ZM114.34 62.735C113.69 64.1217 113.083 65.0533 112.52 65.53C111.913 66.0067 111.068 66.2017 109.985 66.115C109.552 66.0717 109.118 65.985 108.685 65.855C108.208 65.725 107.732 65.7033 107.255 65.79C107.515 65.53 108.013 64.7717 108.75 63.515C109.487 62.3017 110.332 60.785 111.285 58.965C112.238 57.1883 113.257 55.2383 114.34 53.115C115.423 50.9917 116.42 48.9117 117.33 46.875C118.283 44.8383 119.085 42.975 119.735 41.285C120.428 39.5517 120.883 38.1867 121.1 37.19C120.753 37.7533 120.363 38.1217 119.93 38.295C119.497 38.425 119.388 38.2517 119.605 37.775C119.778 37.4283 119.995 36.9517 120.255 36.345C120.515 35.7383 120.732 35.24 120.905 34.85C121.208 34.1567 121.468 33.355 121.685 32.445C121.945 31.535 122.097 30.6683 122.14 29.845C122.227 29.0217 122.205 28.3283 122.075 27.765C121.945 27.1583 121.685 26.8117 121.295 26.725C121.772 26.6383 122.227 26.5517 122.66 26.465C123.007 26.3783 123.353 26.335 123.7 26.335C124.09 26.2917 124.35 26.2483 124.48 26.205C124.957 26.1617 125.347 26.14 125.65 26.14C125.953 26.0967 126.192 26.14 126.365 26.27C126.538 26.4 126.647 26.6817 126.69 27.115C126.777 27.505 126.82 28.09 126.82 28.87C126.82 29.52 126.712 30.3 126.495 31.21C126.322 32.0767 126.105 32.9867 125.845 33.94C125.585 34.8933 125.303 35.825 125 36.735C124.697 37.645 124.415 38.4467 124.155 39.14C124.805 38.3167 125.628 37.3633 126.625 36.28C127.622 35.1533 128.618 34.1567 129.615 33.29C130.395 32.5967 131.348 31.86 132.475 31.08C133.645 30.2567 134.815 29.5417 135.985 28.935C137.155 28.285 138.238 27.7867 139.235 27.44C140.275 27.0933 141.077 27.0067 141.64 27.18C140.34 29.52 139.148 31.7517 138.065 33.875C137.588 34.785 137.112 35.7167 136.635 36.67C136.202 37.6233 135.79 38.555 135.4 39.465C135.01 40.3317 134.663 41.155 134.36 41.935C134.1 42.715 133.927 43.3867 133.84 43.95C133.58 45.2933 133.58 46.1817 133.84 46.615C134.1 47.005 134.447 47.2 134.88 47.2C135.703 47.2 136.57 46.745 137.48 45.835C138.39 44.925 139.257 43.8633 140.08 42.65C140.903 41.3933 141.64 40.1367 142.29 38.88C142.94 37.6233 143.438 36.6483 143.785 35.955C144.045 35.3917 144.327 35.1967 144.63 35.37C144.977 35.5 144.998 35.89 144.695 36.54C144.218 37.5367 143.612 38.7283 142.875 40.115C142.182 41.5017 141.38 42.845 140.47 44.145C139.56 45.4017 138.563 46.485 137.48 47.395C136.397 48.305 135.227 48.76 133.97 48.76C133.407 48.76 132.822 48.6517 132.215 48.435C131.608 48.2183 131.088 47.8283 130.655 47.265C130.265 46.6583 130.027 45.8783 129.94 44.925C129.853 43.9283 130.048 42.6717 130.525 41.155C130.785 40.2883 131.218 39.3133 131.825 38.23C132.432 37.1033 133.19 35.8033 134.1 34.33C134.49 33.68 134.707 33.1167 134.75 32.64C134.793 32.1633 134.62 31.8817 134.23 31.795C133.883 31.7083 133.32 31.8817 132.54 32.315C131.76 32.7483 130.742 33.55 129.485 34.72C128.922 35.24 128.272 35.8467 127.535 36.54C126.842 37.2333 126.083 38.1 125.26 39.14C124.48 40.1367 123.678 41.3283 122.855 42.715C122.032 44.1017 121.23 45.7267 120.45 47.59L114.34 62.735ZM163.571 36.345C162.964 37.645 162.314 39.0317 161.621 40.505C160.928 41.935 160.104 43.2783 159.151 44.535C158.198 45.7483 157.071 46.7667 155.771 47.59C154.514 48.37 152.976 48.76 151.156 48.76C149.509 48.76 148.058 48.24 146.801 47.2C145.588 46.16 144.959 44.6 144.916 42.52C144.916 41.5667 145.024 40.5483 145.241 39.465C145.501 38.3817 145.848 37.32 146.281 36.28C146.758 35.1967 147.299 34.1567 147.906 33.16C148.513 32.1633 149.184 31.2317 149.921 30.365C150.744 29.4117 151.654 28.545 152.651 27.765C153.648 26.985 154.644 26.4 155.641 26.01C156.638 25.5767 157.591 25.36 158.501 25.36C159.454 25.36 160.299 25.62 161.036 26.14C161.643 26.6167 161.989 27.2233 162.076 27.96C162.206 28.6967 162.098 29.52 161.751 30.43C161.404 31.2967 160.863 32.185 160.126 33.095C159.389 34.005 158.501 34.85 157.461 35.63C156.941 36.02 156.313 36.3883 155.576 36.735C154.883 37.0817 154.146 37.385 153.366 37.645C152.586 37.905 151.849 38.1217 151.156 38.295C150.463 38.425 149.899 38.49 149.466 38.49C149.206 39.0967 148.968 39.8983 148.751 40.895C148.578 41.8917 148.513 42.8667 148.556 43.82C148.643 44.7733 148.903 45.6183 149.336 46.355C149.813 47.0483 150.593 47.395 151.676 47.395C153.106 47.395 154.384 46.9833 155.511 46.16C156.681 45.2933 157.699 44.275 158.566 43.105C159.476 41.935 160.234 40.7217 160.841 39.465C161.491 38.2083 162.011 37.1467 162.401 36.28C162.531 35.9767 162.683 35.76 162.856 35.63C163.073 35.4567 163.246 35.37 163.376 35.37C163.549 35.37 163.658 35.4567 163.701 35.63C163.788 35.76 163.744 35.9983 163.571 36.345ZM156.811 34.525C157.678 33.7883 158.393 32.965 158.956 32.055C159.563 31.145 159.974 30.3 160.191 29.52C160.408 28.74 160.451 28.09 160.321 27.57C160.191 27.05 159.866 26.8117 159.346 26.855C158.826 26.855 158.111 27.2017 157.201 27.895C156.291 28.545 155.164 29.6717 153.821 31.275C152.954 32.315 152.153 33.4417 151.416 34.655C150.723 35.8683 150.224 36.7783 149.921 37.385C150.224 37.385 150.636 37.3417 151.156 37.255C151.676 37.125 152.261 36.9517 152.911 36.735C153.561 36.475 154.211 36.1717 154.861 35.825C155.554 35.435 156.204 35.0017 156.811 34.525ZM189.642 36.54C189.122 37.6667 188.515 38.9233 187.822 40.31C187.129 41.6533 186.349 42.9317 185.482 44.145C184.615 45.3583 183.662 46.3767 182.622 47.2C181.582 48.0233 180.477 48.435 179.307 48.435C178.57 48.435 177.92 48.2617 177.357 47.915C176.794 47.525 176.36 46.9833 176.057 46.29C175.797 45.5533 175.667 44.665 175.667 43.625C175.667 42.585 175.884 41.415 176.317 40.115C175.754 41.1117 175.125 42.1083 174.432 43.105C173.782 44.0583 173.067 44.9467 172.287 45.77C171.55 46.55 170.77 47.2 169.947 47.72C169.124 48.1967 168.322 48.435 167.542 48.435C167.195 48.435 166.805 48.4133 166.372 48.37C165.982 48.2833 165.592 48.1317 165.202 47.915C164.812 47.6983 164.444 47.395 164.097 47.005C163.794 46.615 163.577 46.1167 163.447 45.51C163.317 44.8167 163.295 44.145 163.382 43.495C163.469 42.845 163.62 42.2167 163.837 41.61C164.097 40.96 164.379 40.3533 164.682 39.79C165.029 39.1833 165.354 38.5767 165.657 37.97C165.44 37.97 165.224 37.905 165.007 37.775C164.834 37.645 164.855 37.3633 165.072 36.93C165.289 36.5833 165.484 36.215 165.657 35.825C165.83 35.435 166.025 35.045 166.242 34.655C166.892 33.3983 167.542 32.1417 168.192 30.885C168.842 29.6283 169.405 28.5017 169.882 27.505C170.142 26.985 170.467 26.6383 170.857 26.465C171.29 26.2483 171.81 26.14 172.417 26.14H176.382C175.992 26.4 175.645 26.6817 175.342 26.985C175.039 27.245 174.714 27.57 174.367 27.96C174.064 28.35 173.739 28.8267 173.392 29.39C173.045 29.9533 172.655 30.69 172.222 31.6C171.615 32.7267 171.074 33.81 170.597 34.85C170.12 35.76 169.665 36.6917 169.232 37.645C168.799 38.5983 168.43 39.3783 168.127 39.985C167.347 41.675 166.914 43.0833 166.827 44.21C166.74 45.3367 166.892 46.1383 167.282 46.615C167.715 47.0483 168.344 47.1133 169.167 46.81C169.99 46.4633 170.922 45.6833 171.962 44.47C172.872 43.43 173.76 42.195 174.627 40.765C175.537 39.335 176.404 37.8617 177.227 36.345C178.05 34.785 178.83 33.2467 179.567 31.73C180.347 30.2133 181.04 28.805 181.647 27.505C181.907 26.985 182.232 26.6383 182.622 26.465C183.055 26.2483 183.575 26.14 184.182 26.14H187.692C187.215 26.53 186.804 26.8983 186.457 27.245C186.11 27.5483 185.764 27.9383 185.417 28.415C185.114 28.8483 184.789 29.4117 184.442 30.105C184.095 30.755 183.684 31.5783 183.207 32.575C182.73 33.485 182.254 34.4383 181.777 35.435C181.344 36.3883 180.91 37.3417 180.477 38.295C180.087 39.205 179.74 40.0717 179.437 40.895C179.134 41.675 178.939 42.3467 178.852 42.91C178.549 44.2967 178.549 45.2933 178.852 45.9C179.199 46.4633 179.61 46.7667 180.087 46.81C180.867 46.81 181.647 46.4633 182.427 45.77C183.25 45.0767 184.03 44.21 184.767 43.17C185.504 42.0867 186.197 40.9167 186.847 39.66C187.54 38.36 188.169 37.125 188.732 35.955C188.992 35.3917 189.274 35.1967 189.577 35.37C189.924 35.5 189.945 35.89 189.642 36.54ZM182.297 47.395C181.43 48.0883 180.542 48.89 179.632 49.8C178.765 50.71 177.942 51.6417 177.162 52.595C176.425 53.5483 175.819 54.5017 175.342 55.455C174.865 56.4083 174.605 57.2533 174.562 57.99C174.562 58.5967 174.692 59.095 174.952 59.485C175.212 59.9183 175.71 60.135 176.447 60.135C177.054 60.135 177.639 59.9183 178.202 59.485C178.809 59.0517 179.329 58.6183 179.762 58.185C179.849 58.0983 180 58.0333 180.217 57.99C180.434 57.99 180.499 58.1417 180.412 58.445C180.325 58.7917 180.109 59.16 179.762 59.55C179.459 59.9833 179.025 60.3733 178.462 60.72C177.899 61.11 177.249 61.435 176.512 61.695C175.819 61.955 175.06 62.085 174.237 62.085C173.414 62.085 172.699 61.8467 172.092 61.37C171.529 60.8933 171.269 60.1567 171.312 59.16C171.355 58.1633 171.767 57.015 172.547 55.715C173.37 54.415 174.345 53.1583 175.472 51.945C176.599 50.7317 177.747 49.6483 178.917 48.695C180.13 47.7417 181.127 47.0917 181.907 46.745C182.037 46.745 182.145 46.745 182.232 46.745C182.362 46.745 182.384 46.9617 182.297 47.395ZM195.454 35.89C196.148 35.0233 196.906 34.1133 197.729 33.16C198.596 32.2067 199.506 31.2967 200.459 30.43C201.413 29.5633 202.388 28.7833 203.384 28.09C204.381 27.3533 205.378 26.79 206.374 26.4C208.064 25.7933 209.408 25.555 210.404 25.685C211.401 25.815 212.073 26.1833 212.419 26.79C212.593 27.31 212.636 27.8083 212.549 28.285C212.463 28.7617 212.268 29.1733 211.964 29.52C211.704 29.8667 211.358 30.1267 210.924 30.3C210.491 30.43 210.036 30.43 209.559 30.3C209.516 29.8667 209.256 29.52 208.779 29.26C208.346 28.9567 207.739 28.8267 206.959 28.87C206.179 28.9133 205.248 29.1517 204.164 29.585C203.124 30.0183 202.019 30.69 200.849 31.6C199.853 34.5033 199.419 37.1033 199.549 39.4C199.723 41.6533 200.264 43.4083 201.174 44.665C202.084 45.9217 203.233 46.5933 204.619 46.68C206.006 46.7233 207.436 45.965 208.909 44.405C209.733 43.5383 210.578 42.325 211.444 40.765C212.354 39.1617 213.264 37.4067 214.174 35.5C214.434 34.98 214.694 34.8283 214.954 35.045C215.214 35.2183 215.236 35.565 215.019 36.085C213.719 39.0317 212.484 41.3717 211.314 43.105C210.188 44.795 209.083 46.0733 207.999 46.94C206.959 47.7633 205.941 48.2617 204.944 48.435C203.991 48.6083 203.038 48.6517 202.084 48.565C201.478 48.5217 200.849 48.3917 200.199 48.175C199.593 47.915 199.008 47.5467 198.444 47.07C197.881 46.55 197.361 45.9217 196.884 45.185C196.451 44.4483 196.148 43.5167 195.974 42.39C195.758 41.0033 195.649 39.855 195.649 38.945C195.693 38.035 195.779 37.2767 195.909 36.67C195.346 37.4067 194.761 38.1867 194.154 39.01C193.591 39.8333 193.093 40.6783 192.659 41.545C192.399 42.065 192.074 42.7583 191.684 43.625C191.338 44.4917 190.818 45.7267 190.124 47.33C189.864 47.8067 189.561 48.0883 189.214 48.175C188.868 48.2617 188.348 48.305 187.654 48.305C187.178 48.3483 186.788 48.37 186.484 48.37C186.138 48.37 185.791 48.4783 185.444 48.695C187.004 45.575 188.478 42.4983 189.864 39.465C191.294 36.4317 192.811 33.4417 194.414 30.495C195.238 28.935 195.953 27.8517 196.559 27.245C197.166 26.6383 197.989 26.3567 199.029 26.4C199.463 26.4433 199.896 26.53 200.329 26.66C200.806 26.7467 201.283 26.7467 201.759 26.66C201.369 26.8767 200.914 27.2883 200.394 27.895C199.918 28.5017 199.398 29.2383 198.834 30.105C198.271 30.9283 197.686 31.8383 197.079 32.835C196.516 33.8317 195.974 34.85 195.454 35.89ZM236.777 30.885C236.43 31.2317 235.953 31.8817 235.347 32.835C234.783 33.745 234.177 34.8067 233.527 36.02C232.92 37.19 232.357 38.4033 231.837 39.66C231.317 40.9167 230.948 42.0433 230.732 43.04C230.212 45.64 230.428 46.94 231.382 46.94C231.858 46.94 232.357 46.745 232.877 46.355C233.397 45.965 233.895 45.4883 234.372 44.925C234.848 44.3617 235.303 43.7767 235.737 43.17C236.17 42.52 236.517 41.9567 236.777 41.48C237.123 40.9167 237.448 40.7217 237.752 40.895C238.098 41.025 238.098 41.3933 237.752 42C236.712 43.7767 235.585 45.315 234.372 46.615C233.158 47.8717 231.988 48.5433 230.862 48.63C230.342 48.6733 229.778 48.5867 229.172 48.37C228.565 48.11 228.067 47.6767 227.677 47.07C227.287 46.42 227.048 45.5533 226.962 44.47C226.918 43.3433 227.135 41.935 227.612 40.245C227.092 41.1117 226.42 42.13 225.597 43.3C224.773 44.4267 223.885 45.445 222.932 46.355C221.675 47.5683 220.505 48.2833 219.422 48.5C218.382 48.7167 217.493 48.565 216.757 48.045C216.02 47.4817 215.478 46.615 215.132 45.445C214.828 44.275 214.785 42.91 215.002 41.35C215.218 39.7467 215.738 38.0133 216.562 36.15C217.428 34.2433 218.685 32.315 220.332 30.365C221.285 29.195 222.433 28.1983 223.777 27.375C225.163 26.5517 226.55 25.9667 227.937 25.62C229.367 25.2733 230.732 25.23 232.032 25.49C233.375 25.75 234.502 26.3783 235.412 27.375C235.888 27.8517 236.018 28.3067 235.802 28.74C235.628 29.1733 235.26 29.3467 234.697 29.26C234.35 28.0467 233.635 27.31 232.552 27.05C231.512 26.79 230.385 26.985 229.172 27.635C227.698 28.4583 226.182 29.7367 224.622 31.47C223.062 33.16 221.697 34.98 220.527 36.93C220.397 37.1467 220.202 37.4933 219.942 37.97C219.682 38.4467 219.4 39.01 219.097 39.66C218.837 40.2667 218.577 40.9167 218.317 41.61C218.1 42.26 217.948 42.8883 217.862 43.495C217.688 44.6217 217.753 45.445 218.057 45.965C218.403 46.485 218.858 46.745 219.422 46.745C220.028 46.745 220.722 46.5067 221.502 46.03C222.282 45.51 223.062 44.795 223.842 43.885C224.968 42.4983 225.987 41.0467 226.897 39.53C227.85 37.97 228.76 36.3883 229.627 34.785C230.363 33.3983 231.013 32.3367 231.577 31.6C232.183 30.8633 233.007 30.5383 234.047 30.625C234.48 30.6683 234.913 30.755 235.347 30.885C235.823 30.9717 236.3 30.9717 236.777 30.885ZM254.977 39.14C254.673 39.7467 254.348 40.505 254.002 41.415C253.698 42.2817 253.482 43.1483 253.352 44.015C253.222 44.8383 253.243 45.5533 253.417 46.16C253.633 46.7667 254.132 47.07 254.912 47.07C255.735 47.07 256.58 46.615 257.447 45.705C258.357 44.795 259.202 43.7333 259.982 42.52C260.762 41.3067 261.455 40.0933 262.062 38.88C262.712 37.6233 263.21 36.6483 263.557 35.955C263.817 35.3917 264.098 35.1967 264.402 35.37C264.748 35.5 264.77 35.89 264.467 36.54C263.99 37.5367 263.383 38.7283 262.647 40.115C261.953 41.5017 261.152 42.845 260.242 44.145C259.332 45.4017 258.335 46.485 257.252 47.395C256.168 48.305 254.998 48.76 253.742 48.76C253.222 48.76 252.702 48.63 252.182 48.37C251.705 48.0667 251.25 47.6117 250.817 47.005C250.47 46.4417 250.232 45.5967 250.102 44.47C250.015 43.3433 250.167 42.2817 250.557 41.285C251.077 40.2017 251.532 39.2483 251.922 38.425C252.355 37.5583 252.767 36.735 253.157 35.955C253.59 35.175 254.023 34.3733 254.457 33.55C254.933 32.7267 255.453 31.795 256.017 30.755C256.45 29.975 256.797 29.325 257.057 28.805C257.36 28.2417 257.642 27.8083 257.902 27.505C258.205 27.1583 258.508 26.92 258.812 26.79C259.158 26.66 259.592 26.6167 260.112 26.66C260.545 26.7033 260.978 26.79 261.412 26.92C261.888 27.0067 262.365 27.0067 262.842 26.92C262.365 27.18 261.78 27.7433 261.087 28.61C260.437 29.4767 259.743 30.495 259.007 31.665C258.313 32.835 257.598 34.0917 256.862 35.435C256.168 36.735 255.54 37.97 254.977 39.14ZM246.007 33.615C246.18 32.835 246.44 32.055 246.787 31.275C247.177 30.4517 247.632 29.6933 248.152 29C248.672 28.3067 249.257 27.7 249.907 27.18C250.6 26.66 251.337 26.2917 252.117 26.075C253.287 25.7283 254.305 25.6417 255.172 25.815C256.038 25.9883 256.688 26.3783 257.122 26.985C257.555 27.5917 257.75 28.415 257.707 29.455C257.707 30.495 257.382 31.6867 256.732 33.03C255.778 34.2 254.998 35.0883 254.392 35.695C253.872 36.215 253.482 36.5183 253.222 36.605C252.962 36.6917 253.113 36.215 253.677 35.175C254.24 34.135 254.738 33.1383 255.172 32.185C255.605 31.2317 255.887 30.3867 256.017 29.65C256.147 28.9133 256.082 28.3283 255.822 27.895C255.562 27.4183 255.02 27.1583 254.197 27.115C253.59 27.0717 252.983 27.2017 252.377 27.505C251.813 27.765 251.315 28.1983 250.882 28.805C250.405 29.455 249.885 30.2133 249.322 31.08C248.802 31.9467 248.412 32.7483 248.152 33.485C247.978 33.9183 247.87 34.4383 247.827 35.045C247.783 35.6517 247.87 36.215 248.087 36.735C248.303 37.2117 248.715 37.6017 249.322 37.905C249.972 38.165 250.903 38.2083 252.117 38.035C252.723 37.9483 253.027 38.0783 253.027 38.425C253.027 38.7283 252.593 38.9233 251.727 39.01C250.297 39.1833 249.17 39.1183 248.347 38.815C247.523 38.4683 246.917 38.0133 246.527 37.45C246.137 36.8867 245.92 36.2583 245.877 35.565C245.833 34.8717 245.877 34.2217 246.007 33.615ZM251.077 38.88C250.383 40.1367 249.668 41.3717 248.932 42.585C248.238 43.755 247.48 44.795 246.657 45.705C245.833 46.615 244.967 47.3517 244.057 47.915C243.147 48.4783 242.172 48.76 241.132 48.76C238.618 48.76 236.885 47.8717 235.932 46.095C235.368 45.055 235.065 44.1667 235.022 43.43C235.022 42.65 235.152 42.0433 235.412 41.61C235.715 41.1333 236.083 40.83 236.517 40.7C236.95 40.5267 237.318 40.5267 237.622 40.7C237.968 40.83 238.185 41.1333 238.272 41.61C238.402 42.0867 238.272 42.715 237.882 43.495C237.708 43.885 237.665 44.2967 237.752 44.73C237.838 45.12 237.99 45.4883 238.207 45.835C238.467 46.1817 238.77 46.485 239.117 46.745C239.507 46.9617 239.94 47.07 240.417 47.07C241.153 47.1133 241.782 47.0483 242.302 46.875C242.865 46.6583 243.385 46.3333 243.862 45.9C244.858 45.0333 245.812 43.9717 246.722 42.715C247.675 41.4583 248.542 40.1367 249.322 38.75C249.408 38.6633 249.712 38.6633 250.232 38.75C250.448 38.7933 250.73 38.8367 251.077 38.88Z" fill="#00376B"/>
<path d="M143.39 72.54C142.913 73.5367 142.307 74.7283 141.57 76.115C140.877 77.5017 140.075 78.845 139.165 80.145C138.255 81.4017 137.258 82.485 136.175 83.395C135.092 84.305 133.922 84.76 132.665 84.76C132.102 84.76 131.517 84.6517 130.91 84.435C130.303 84.2183 129.783 83.8283 129.35 83.265C128.96 82.6583 128.722 81.8783 128.635 80.925C128.548 79.9283 128.743 78.6717 129.22 77.155C129.48 76.2883 129.913 75.3133 130.52 74.23C131.127 73.1033 131.885 71.8033 132.795 70.33C133.185 69.68 133.402 69.1167 133.445 68.64C133.488 68.1633 133.315 67.8817 132.925 67.795C132.578 67.7083 132.015 67.8817 131.235 68.315C130.455 68.7483 129.437 69.55 128.18 70.72C127.053 71.7167 125.71 73.2117 124.15 75.205C122.633 77.1983 120.965 79.9933 119.145 83.59C118.885 84.0667 118.582 84.3483 118.235 84.435C117.888 84.5217 117.368 84.565 116.675 84.565C116.198 84.6083 115.808 84.63 115.505 84.63C115.158 84.63 114.812 84.7383 114.465 84.955C116.025 81.835 117.498 78.7583 118.885 75.725C120.315 72.6917 121.832 69.7017 123.435 66.755C124.258 65.195 124.973 64.1117 125.58 63.505C126.187 62.8983 127.01 62.6167 128.05 62.66C128.483 62.7033 128.917 62.79 129.35 62.92C129.827 63.0067 130.303 63.0067 130.78 62.92C130.303 63.18 129.718 63.7433 129.025 64.61C128.375 65.4767 127.682 66.495 126.945 67.665C126.252 68.835 125.537 70.0917 124.8 71.435C124.107 72.735 123.478 73.97 122.915 75.14C123.565 74.3167 124.367 73.3633 125.32 72.28C126.317 71.1533 127.313 70.1567 128.31 69.29C129.09 68.5967 130.043 67.86 131.17 67.08C132.34 66.2567 133.51 65.5417 134.68 64.935C135.85 64.285 136.933 63.7867 137.93 63.44C138.97 63.0933 139.772 63.0067 140.335 63.18C139.035 65.52 137.843 67.7517 136.76 69.875C136.283 70.785 135.807 71.7167 135.33 72.67C134.897 73.6233 134.485 74.555 134.095 75.465C133.705 76.3317 133.358 77.155 133.055 77.935C132.795 78.715 132.622 79.3867 132.535 79.95C132.275 81.2933 132.275 82.1817 132.535 82.615C132.795 83.005 133.142 83.2 133.575 83.2C134.398 83.2 135.265 82.745 136.175 81.835C137.085 80.925 137.952 79.8633 138.775 78.65C139.598 77.3933 140.335 76.1367 140.985 74.88C141.635 73.6233 142.133 72.6483 142.48 71.955C142.74 71.3917 143.022 71.1967 143.325 71.37C143.672 71.5 143.693 71.89 143.39 72.54ZM168.217 72.28C167.957 72.8867 167.524 73.84 166.917 75.14C166.354 76.44 165.639 77.74 164.772 79.04C163.906 80.34 162.887 81.4883 161.717 82.485C160.591 83.4817 159.356 83.98 158.012 83.98C157.016 83.98 156.171 83.8283 155.477 83.525C154.827 83.1783 154.286 82.7667 153.852 82.29C152.942 82.9833 152.011 83.5467 151.057 83.98C150.104 84.37 149.151 84.5433 148.197 84.5C146.941 84.4567 145.944 84.0883 145.207 83.395C144.514 82.7017 144.037 81.8133 143.777 80.73C143.561 79.6033 143.561 78.3467 143.777 76.96C143.994 75.53 144.406 74.1 145.012 72.67C145.662 71.1967 146.464 69.7883 147.417 68.445C148.371 67.1017 149.389 65.9317 150.472 64.935C151.599 63.9383 152.747 63.1583 153.917 62.595C155.087 61.9883 156.236 61.7067 157.362 61.75C158.576 61.75 159.551 62.0967 160.287 62.79C161.024 63.4833 161.501 64.3933 161.717 65.52C161.977 66.6467 161.999 67.925 161.782 69.355C161.566 70.7417 161.154 72.15 160.547 73.58C160.071 74.7067 159.356 75.985 158.402 77.415C157.449 78.8017 156.344 80.08 155.087 81.25C155.651 82.3333 156.669 82.875 158.142 82.875C159.182 82.875 160.157 82.4417 161.067 81.575C162.021 80.7083 162.887 79.6683 163.667 78.455C164.447 77.2417 165.141 76.0067 165.747 74.75C166.354 73.4933 166.852 72.475 167.242 71.695C167.416 71.3483 167.676 71.24 168.022 71.37C168.369 71.5 168.434 71.8033 168.217 72.28ZM158.727 63.895C158.034 63.7217 157.276 63.83 156.452 64.22C155.629 64.5667 154.806 65.1517 153.982 65.975C153.159 66.755 152.357 67.7083 151.577 68.835C150.797 69.9183 150.104 71.11 149.497 72.41C148.847 73.7533 148.327 75.0317 147.937 76.245C147.591 77.415 147.374 78.4767 147.287 79.43C147.201 80.3833 147.266 81.185 147.482 81.835C147.699 82.4417 148.111 82.8317 148.717 83.005C149.324 83.1783 150.017 83.1133 150.797 82.81C151.577 82.5067 152.357 82.03 153.137 81.38C152.791 80.86 152.531 80.3183 152.357 79.755C152.184 79.1917 152.097 78.6717 152.097 78.195C152.141 77.4583 152.314 76.8083 152.617 76.245C152.964 75.6817 153.549 75.4 154.372 75.4C154.936 75.4 155.391 75.595 155.737 75.985C156.127 76.375 156.322 76.83 156.322 77.35C156.322 77.48 156.301 77.61 156.257 77.74C156.257 77.8267 156.236 77.935 156.192 78.065C156.929 76.9817 157.601 75.8117 158.207 74.555C158.857 73.2117 159.356 71.9333 159.702 70.72C160.049 69.5067 160.244 68.4233 160.287 67.47C160.331 66.5167 160.222 65.7367 159.962 65.13C159.702 64.48 159.291 64.0683 158.727 63.895ZM188.365 72.605C187.585 74.295 186.805 75.8767 186.025 77.35C185.245 78.8233 184.357 80.1233 183.36 81.25C182.407 82.3333 181.28 83.2 179.98 83.85C178.723 84.4567 177.207 84.76 175.43 84.76C173.74 84.76 172.397 84.4567 171.4 83.85C170.403 83.2433 169.688 82.4633 169.255 81.51C168.822 80.5133 168.627 79.3867 168.67 78.13C168.757 76.8733 168.995 75.5733 169.385 74.23C169.818 72.8867 170.36 71.565 171.01 70.265C171.703 68.965 172.44 67.795 173.22 66.755C174.433 65.1083 175.798 63.8517 177.315 62.985C178.832 62.075 180.37 61.62 181.93 61.62C183.577 61.62 184.768 62.0317 185.505 62.855C186.285 63.6783 186.588 64.7617 186.415 66.105C186.328 66.625 186.112 67.1667 185.765 67.73C185.462 68.2933 185.093 68.77 184.66 69.16C184.227 69.55 183.772 69.81 183.295 69.94C182.818 70.0267 182.407 69.8967 182.06 69.55C182.407 69.1167 182.775 68.6183 183.165 68.055C183.598 67.4483 183.902 66.8417 184.075 66.235C184.378 65.1083 184.378 64.3067 184.075 63.83C183.815 63.31 183.382 63.05 182.775 63.05C182.168 63.05 181.562 63.2233 180.955 63.57C180.348 63.9167 179.72 64.35 179.07 64.87C178.463 65.39 177.878 65.9967 177.315 66.69C176.752 67.34 176.253 67.99 175.82 68.64C175.517 69.0733 175.148 69.6583 174.715 70.395C174.325 71.1317 173.935 71.955 173.545 72.865C173.198 73.7317 172.895 74.6633 172.635 75.66C172.375 76.6567 172.245 77.6317 172.245 78.585C172.245 79.885 172.527 81.055 173.09 82.095C173.697 83.0917 174.693 83.59 176.08 83.59C177.51 83.59 178.767 83.2433 179.85 82.55C180.977 81.8133 181.995 80.9033 182.905 79.82C183.815 78.6933 184.638 77.4583 185.375 76.115C186.112 74.7717 186.805 73.45 187.455 72.15C187.758 71.5433 188.062 71.305 188.365 71.435C188.668 71.565 188.668 71.955 188.365 72.605ZM216.69 72.67C215.563 74.9233 214.566 76.83 213.7 78.39C212.833 79.9067 211.858 81.2283 210.775 82.355C209.735 83.4383 208.456 84.3917 206.94 85.215C205.466 86.0817 203.56 86.9267 201.22 87.75C200.18 89.57 198.988 91.4983 197.645 93.535C196.345 95.5717 194.871 97.435 193.225 99.125C191.578 100.858 189.736 102.267 187.7 103.35C185.663 104.477 183.453 105.04 181.07 105.04C179.423 105.04 178.145 104.802 177.235 104.325C176.325 103.848 175.696 103.22 175.35 102.44C174.96 101.66 174.83 100.793 174.96 99.84C175.09 98.93 175.393 98.02 175.87 97.11C176.476 95.8967 177.343 94.8567 178.47 93.99C179.553 93.1233 180.723 92.3867 181.98 91.78C184.19 90.74 186.703 89.8733 189.52 89.18C192.38 88.53 195.131 87.8367 197.775 87.1C198.381 86.0167 198.966 84.8033 199.53 83.46C200.093 82.1167 200.613 80.7733 201.09 79.43C201.566 78.0867 202 76.8083 202.39 75.595C202.78 74.3817 203.105 73.3417 203.365 72.475C202.801 73.4717 202.13 74.6633 201.35 76.05C200.57 77.3933 199.681 78.6933 198.685 79.95C197.731 81.1633 196.67 82.225 195.5 83.135C194.373 84.0017 193.181 84.435 191.925 84.435C191.578 84.435 191.188 84.4133 190.755 84.37C190.365 84.2833 189.975 84.1317 189.585 83.915C189.195 83.6983 188.826 83.395 188.48 83.005C188.176 82.615 187.96 82.1167 187.83 81.51C187.7 80.8167 187.678 80.145 187.765 79.495C187.851 78.845 188.003 78.2167 188.22 77.61C188.48 76.96 188.761 76.3533 189.065 75.79C189.411 75.1833 189.736 74.5767 190.04 73.97C189.823 73.97 189.606 73.905 189.39 73.775C189.216 73.645 189.238 73.3633 189.455 72.93C189.671 72.5833 189.866 72.215 190.04 71.825C190.213 71.435 190.408 71.045 190.625 70.655C191.275 69.3983 191.925 68.1417 192.575 66.885C193.225 65.6283 193.788 64.5017 194.265 63.505C194.525 62.985 194.85 62.6383 195.24 62.465C195.673 62.2483 196.193 62.14 196.8 62.14H200.765C200.461 62.4 200.071 62.6817 199.595 62.985C199.161 63.2883 198.75 63.7867 198.36 64.48C197.233 66.3867 196.193 68.2933 195.24 70.2C194.33 72.1067 193.42 74.035 192.51 75.985C191.73 77.675 191.296 79.0833 191.21 80.21C191.123 81.3367 191.275 82.1383 191.665 82.615C192.098 83.0483 192.726 83.1133 193.55 82.81C194.373 82.4633 195.305 81.6833 196.345 80.47C197.255 79.43 198.186 78.195 199.14 76.765C200.093 75.335 201.003 73.8617 201.87 72.345C202.78 70.785 203.625 69.2467 204.405 67.73C205.228 66.2133 205.943 64.805 206.55 63.505C206.81 62.985 207.135 62.6383 207.525 62.465C207.958 62.2483 208.478 62.14 209.085 62.14H212.595C211.988 62.5733 211.446 63.0717 210.97 63.635C210.536 64.155 210.125 64.7617 209.735 65.455C209.345 66.1483 208.976 66.95 208.63 67.86C208.283 68.7267 207.915 69.7017 207.525 70.785C206.701 72.995 205.856 75.3783 204.99 77.935C204.166 80.4917 203.278 83.07 202.325 85.67C203.018 85.4533 203.776 85.1717 204.6 84.825C205.466 84.4783 206.311 84.045 207.135 83.525C207.958 83.005 208.76 82.3983 209.54 81.705C210.32 80.9683 211.035 80.145 211.685 79.235C212.681 77.7617 213.526 76.3533 214.22 75.01C214.913 73.6667 215.433 72.6917 215.78 72.085C216.083 71.5217 216.386 71.3267 216.69 71.5C216.993 71.63 216.993 72.02 216.69 72.67ZM196.605 89.18C195.565 89.44 194.438 89.7217 193.225 90.025C192.055 90.3283 190.863 90.6533 189.65 91C188.436 91.3467 187.266 91.6933 186.14 92.04C185.013 92.43 183.995 92.82 183.085 93.21C181.438 93.9467 180.073 94.9 178.99 96.07C177.863 97.24 177.126 98.3883 176.78 99.515C176.39 100.685 176.411 101.682 176.845 102.505C177.278 103.328 178.188 103.74 179.575 103.74C181.005 103.74 182.478 103.285 183.995 102.375C185.511 101.508 186.963 100.447 188.35 99.19C189.78 97.9333 191.08 96.6117 192.25 95.225C193.463 93.8383 194.438 92.625 195.175 91.585C195.391 91.2383 195.608 90.8483 195.825 90.415C196.085 90.025 196.345 89.6133 196.605 89.18ZM245.187 72.54C244.363 74.23 243.605 75.7467 242.912 77.09C242.218 78.4333 241.482 79.625 240.702 80.665C239.965 81.6617 239.163 82.55 238.297 83.33C237.43 84.0667 236.39 84.7167 235.177 85.28C234.44 87.3167 233.378 89.4833 231.992 91.78C230.648 94.12 229.045 96.265 227.182 98.215C225.362 100.165 223.347 101.79 221.137 103.09C218.927 104.39 216.652 105.04 214.312 105.04C210.238 105.04 208.202 103.372 208.202 100.035C208.202 98.4317 208.765 97.0017 209.892 95.745C210.975 94.5317 212.297 93.47 213.857 92.56C215.46 91.6067 217.02 90.805 218.537 90.155C220.053 89.505 221.527 88.92 222.957 88.4C224.43 87.88 225.838 87.4033 227.182 86.97C228.568 86.5367 229.89 86.06 231.147 85.54C231.537 84.4133 231.84 83.265 232.057 82.095C232.317 80.8817 232.512 79.625 232.642 78.325C232.772 77.0683 232.837 75.9633 232.837 75.01C232.837 74.0133 232.793 73.3417 232.707 72.995C232.187 73.9917 231.472 75.2267 230.562 76.7C229.695 78.13 228.698 79.4733 227.572 80.73C226.488 81.9867 225.318 82.9833 224.062 83.72C222.805 84.4567 221.527 84.63 220.227 84.24C218.58 83.5467 217.54 82.5067 217.107 81.12C216.717 79.69 216.717 78.13 217.107 76.44C217.497 74.7067 218.168 72.9517 219.122 71.175C220.118 69.3983 221.223 67.795 222.437 66.365C223.39 65.195 224.473 64.22 225.687 63.44C226.943 62.6167 228.243 62.0533 229.587 61.75C230.93 61.4033 232.273 61.36 233.617 61.62C235.003 61.8367 236.303 62.4217 237.517 63.375C238.08 63.8517 238.383 64.3067 238.427 64.74C238.513 65.1733 238.448 65.52 238.232 65.78C238.058 65.9967 237.82 66.0833 237.517 66.04C237.213 65.9967 236.975 65.7367 236.802 65.26C236.368 64.09 235.762 63.3533 234.982 63.05C234.245 62.7467 233.4 62.7683 232.447 63.115C231.493 63.4183 230.475 63.9817 229.392 64.805C228.352 65.6283 227.333 66.5817 226.337 67.665C225.167 69.0083 224.083 70.46 223.087 72.02C222.09 73.58 221.31 75.075 220.747 76.505C220.227 77.8917 219.967 79.1267 219.967 80.21C220.01 81.25 220.465 81.965 221.332 82.355C222.285 82.745 223.347 82.5283 224.517 81.705C225.73 80.8383 226.878 79.7117 227.962 78.325C229.088 76.895 230.085 75.4 230.952 73.84C231.818 72.28 232.403 70.98 232.707 69.94C232.923 69.2033 233.205 68.6833 233.552 68.38C233.898 68.0767 234.267 67.8817 234.657 67.795C235.047 67.7083 235.415 67.665 235.762 67.665C236.152 67.665 236.477 67.5567 236.737 67.34C237.17 69.94 237.3 72.5833 237.127 75.27C236.997 77.9133 236.585 80.535 235.892 83.135C236.672 82.5717 237.452 81.9433 238.232 81.25C239.055 80.5567 239.792 79.7767 240.442 78.91C241.525 77.48 242.327 76.1367 242.847 74.88C243.41 73.58 243.865 72.6267 244.212 72.02C244.515 71.4567 244.818 71.24 245.122 71.37C245.468 71.5 245.49 71.89 245.187 72.54ZM230.497 87.425C230.15 87.555 229.782 87.685 229.392 87.815C229.002 87.945 228.612 88.075 228.222 88.205C225.838 89.0283 223.368 89.9167 220.812 90.87C218.298 91.8667 216.002 93.0583 213.922 94.445C212.882 95.1383 211.993 96.005 211.257 97.045C210.477 98.1283 209.978 99.1467 209.762 100.1C209.502 101.097 209.61 101.942 210.087 102.635C210.52 103.372 211.408 103.74 212.752 103.74C213.445 103.74 214.203 103.61 215.027 103.35C215.807 103.133 216.565 102.852 217.302 102.505C218.038 102.158 218.732 101.79 219.382 101.4C220.032 101.01 220.552 100.663 220.942 100.36C221.938 99.5367 222.935 98.5617 223.932 97.435C224.928 96.3517 225.882 95.2033 226.792 93.99C228.395 91.7367 229.63 89.5483 230.497 87.425ZM270.836 72.54C270.359 73.5367 269.752 74.7067 269.016 76.05C268.322 77.3933 267.542 78.6933 266.676 79.95C265.809 81.2067 264.877 82.29 263.881 83.2C262.927 84.0667 261.974 84.5433 261.021 84.63C260.501 84.6733 259.937 84.5867 259.331 84.37C258.724 84.11 258.226 83.6767 257.836 83.07C257.446 82.42 257.207 81.5533 257.121 80.47C257.077 79.3433 257.294 77.935 257.771 76.245C257.251 77.1117 256.579 78.13 255.756 79.3C254.932 80.4267 254.044 81.445 253.091 82.355C251.834 83.5683 250.664 84.2833 249.581 84.5C248.541 84.7167 247.652 84.565 246.916 84.045C246.179 83.4817 245.637 82.615 245.291 81.445C244.987 80.275 244.944 78.91 245.161 77.35C245.377 75.7467 245.897 74.0133 246.721 72.15C247.587 70.2433 248.844 68.315 250.491 66.365C251.444 65.195 252.592 64.1983 253.936 63.375C255.322 62.5517 256.709 61.9667 258.096 61.62C259.526 61.2733 260.891 61.23 262.191 61.49C263.534 61.75 264.661 62.3783 265.571 63.375C266.047 63.8517 266.177 64.3067 265.961 64.74C265.787 65.1733 265.419 65.3467 264.856 65.26C264.509 64.0467 263.794 63.31 262.711 63.05C261.671 62.79 260.544 62.985 259.331 63.635C257.857 64.4583 256.341 65.7367 254.781 67.47C253.221 69.16 251.856 70.98 250.686 72.93C250.556 73.1467 250.361 73.4933 250.101 73.97C249.841 74.4467 249.559 75.01 249.256 75.66C248.996 76.2667 248.736 76.9167 248.476 77.61C248.259 78.26 248.107 78.8883 248.021 79.495C247.847 80.6217 247.912 81.445 248.216 81.965C248.562 82.485 249.017 82.745 249.581 82.745C250.187 82.745 250.881 82.5067 251.661 82.03C252.441 81.51 253.221 80.795 254.001 79.885C255.127 78.4983 256.146 77.0467 257.056 75.53C258.009 73.97 258.919 72.3883 259.786 70.785C260.522 69.3983 261.172 68.3367 261.736 67.6C262.342 66.8633 263.166 66.5383 264.206 66.625C264.639 66.6683 265.072 66.755 265.506 66.885C265.982 66.9717 266.459 66.9717 266.936 66.885C266.589 67.2317 266.112 67.8817 265.506 68.835C264.942 69.745 264.336 70.8067 263.686 72.02C263.079 73.19 262.516 74.4033 261.996 75.66C261.476 76.9167 261.107 78.0433 260.891 79.04C260.371 81.64 260.587 82.94 261.541 82.94C262.234 82.9833 262.992 82.5717 263.816 81.705C264.639 80.8383 265.441 79.7983 266.221 78.585C267.044 77.3717 267.781 76.1583 268.431 74.945C269.081 73.6883 269.579 72.7133 269.926 72.02C270.229 71.4567 270.532 71.24 270.836 71.37C271.139 71.5 271.139 71.89 270.836 72.54Z" fill="#00376B"/>
<circle cx="343.5" cy="55.5" r="52.5" fill="url(#paint0_radial)"/>
<circle cx="343.5" cy="55.5" r="30.7317" fill="white"/>
<circle cx="343.5" cy="55.5" r="24.3293" fill="#29ABE3"/>
<circle cx="343.5" cy="55.5" r="11.0976" fill="#060606"/>
<path fill-rule="evenodd" clip-rule="evenodd" d="M346.151 7.76559C354.298 9.00866 362.432 12.123 369.85 17.2049C377.326 22.3262 383.201 28.8469 387.307 36.0612C380.173 20.1814 364.636 8.78858 346.151 7.76559Z" fill="white"/>
<path fill-rule="evenodd" clip-rule="evenodd" d="M338.529 103.797C330.475 102.05 322.55 98.4369 315.462 92.9041C308.319 87.3284 302.86 80.4554 299.21 73C305.344 89.2922 320.144 101.628 338.529 103.797Z" fill="white"/>
<defs>
<radialGradient id="paint0_radial" cx="0" cy="0" r="1" gradientUnits="userSpaceOnUse" gradientTransform="translate(343.5 55.5) rotate(90) scale(52.5)">
<stop offset="0.479699" stop-color="#0058C6"/>
<stop offset="1" stop-color="#0C0E68"/>
</radialGradient>
</defs>
</svg>
