<svg width="42" height="42" viewBox="0 0 42 42" fill="none" xmlns="http://www.w3.org/2000/svg">
<path d="M23.275 18.2C23.8438 17.7625 24.1062 17.0187 24.1062 16.3188C24.1062 15.575 23.7563 14.8313 23.1 14.4375C22.4438 14.0437 21.2188 14.1312 20.3875 14.1312H19.2937V18.6375H20.7375C21.6125 18.6812 22.575 18.725 23.275 18.2Z" fill="url(#paint0_radial)"/>
<path d="M24.2375 22.575C23.5813 22.1812 22.6187 22.1812 21.875 22.1812H19.3813V27.3438H21.6562C22.4875 27.3438 23.5812 27.3875 24.325 26.9062C24.9812 26.4688 25.375 25.55 25.375 24.7188C25.375 23.8875 24.8938 22.9688 24.2375 22.575Z" fill="url(#paint1_radial)"/>
<path d="M21 0C9.40625 0 0 9.40625 0 21C0 32.5938 9.40625 42 21 42C32.5938 42 42 32.5938 42 21C42 9.40625 32.5938 0 21 0ZM23.1 31.15H14.525V10.4563H23.8875C26.6 10.4563 29.0938 12.2062 29.0938 15.225C29.0938 17.5875 27.7812 19.2062 26.1187 19.6875V19.7312C28.6125 20.2562 30.3625 21.6125 30.3625 24.85C30.4062 27.9125 28.35 31.15 23.1 31.15Z" fill="url(#paint2_radial)"/>
<defs>
<radialGradient id="paint0_radial" cx="0" cy="0" r="1" gradientUnits="userSpaceOnUse" gradientTransform="translate(21 21) rotate(90) scale(21)">
<stop offset="0.479699" stop-color="#0058C6"/>
<stop offset="1" stop-color="#0C0E68"/>
</radialGradient>
<radialGradient id="paint1_radial" cx="0" cy="0" r="1" gradientUnits="userSpaceOnUse" gradientTransform="translate(21 21) rotate(90) scale(21)">
<stop offset="0.479699" stop-color="#0058C6"/>
<stop offset="1" stop-color="#0C0E68"/>
</radialGradient>
<radialGradient id="paint2_radial" cx="0" cy="0" r="1" gradientUnits="userSpaceOnUse" gradientTransform="translate(21 21) rotate(90) scale(21)">
<stop offset="0.479699" stop-color="#0058C6"/>
<stop offset="1" stop-color="#0C0E68"/>
</radialGradient>
</defs>
</svg>
