<svg width="42" height="42" fill="none" xmlns="http://www.w3.org/2000/svg"><path d="M21 25.204A4.21 4.21 0 0025.204 21c0-.915-.3-1.76-.795-2.45a4.199 4.199 0 00-3.408-1.754 4.202 4.202 0 00-3.41 1.753 4.184 4.184 0 00-.795 2.45 4.206 4.206 0 004.202 4.205z" fill="url(#paint0_radial)"/><path d="M30.18 15.857v-4.048l-4.05.012.014 4.05 4.035-.014z" fill="url(#paint1_radial)"/><path d="M21 0C9.42 0 0 9.42 0 21c0 11.578 9.42 21 21 21 11.578 0 21-9.422 21-21C42 9.42 32.58 0 21 0zm11.943 28.328a4.62 4.62 0 01-4.616 4.617H13.673a4.62 4.62 0 01-4.616-4.617V13.674a4.62 4.62 0 014.616-4.616h14.653a4.62 4.62 0 014.617 4.616v14.654z" fill="url(#paint2_radial)"/><path d="M27.533 21A6.54 6.54 0 0121 27.533 6.54 6.54 0 0114.468 21a6.5 6.5 0 01.48-2.45h-3.565v9.778a2.289 2.289 0 002.29 2.287h14.652a2.29 2.29 0 002.29-2.287v-9.779h-3.568c.31.756.486 1.585.486 2.45z" fill="url(#paint3_radial)"/><defs><radialGradient id="paint0_radial" cx="0" cy="0" r="1" gradientUnits="userSpaceOnUse" gradientTransform="matrix(0 21 -21 0 21 21)"><stop offset=".48" stop-color="#0058C6"/><stop offset="1" stop-color="#0C0E68"/></radialGradient><radialGradient id="paint1_radial" cx="0" cy="0" r="1" gradientUnits="userSpaceOnUse" gradientTransform="matrix(0 21 -21 0 21 21)"><stop offset=".48" stop-color="#0058C6"/><stop offset="1" stop-color="#0C0E68"/></radialGradient><radialGradient id="paint2_radial" cx="0" cy="0" r="1" gradientUnits="userSpaceOnUse" gradientTransform="matrix(0 21 -21 0 21 21)"><stop offset=".48" stop-color="#0058C6"/><stop offset="1" stop-color="#0C0E68"/></radialGradient><radialGradient id="paint3_radial" cx="0" cy="0" r="1" gradientUnits="userSpaceOnUse" gradientTransform="matrix(0 21 -21 0 21 21)"><stop offset=".48" stop-color="#0058C6"/><stop offset="1" stop-color="#0C0E68"/></radialGradient></defs></svg>