<svg width="396" height="108" fill="none" xmlns="http://www.w3.org/2000/svg"><path d="M92.69 8.46c0-.65.238-.975.715-.975.217 0 .368.195.455.585.13.347.195.607.195.78 0 .953-.368 1.69-1.105 2.21-.693.52-1.56.888-2.6 1.105a16.57 16.57 0 01-3.38.325 38.142 38.142 0 01-3.315-.26c-2.427-.303-4.572-.65-6.435-1.04a111.76 111.76 0 01-4.875-1.235 53.036 53.036 0 01-3.315-1.17 54.992 54.992 0 00-1.755-.715c-1.95 3.12-3.532 6.327-4.745 9.62-1.213 3.25-2.405 6.5-3.575 9.75a111.386 111.386 0 01-3.835 9.49c-1.43 3.077-3.337 5.98-5.72 8.71-1.733 1.95-3.835 3.575-6.305 4.875-2.47 1.343-5.135 2.34-7.995 2.99a36.309 36.309 0 01-8.71 1.04c-2.99.043-5.85-.282-8.58-.975-2.73-.65-5.243-1.647-7.54-2.99-2.253-1.343-4.095-3.033-5.525-5.07-1.387-2.037-2.275-4.42-2.665-7.15-.347-2.773.022-5.893 1.105-9.36.477-1.517 1.17-2.795 2.08-3.835.953-1.083 1.885-1.885 2.795-2.405.91-.563 1.668-.823 2.275-.78.65 0 .932.347.845 1.04-.26.347-.715.715-1.365 1.105-.607.39-1.278.91-2.015 1.56-.693.65-1.365 1.473-2.015 2.47-.607.997-1.04 2.275-1.3 3.835-.39 2.21-.412 4.268-.065 6.175.347 1.863.975 3.553 1.885 5.07a15.636 15.636 0 003.38 3.965 21.45 21.45 0 004.42 2.86c1.603.78 3.25 1.343 4.94 1.69 1.733.39 3.445.563 5.135.52 2.557-.043 4.897-.325 7.02-.845 2.167-.52 4.16-1.213 5.98-2.08a25.615 25.615 0 004.94-3.055 34.726 34.726 0 004.16-3.77c1.3-1.43 2.6-3.185 3.9-5.265a99.074 99.074 0 003.9-6.76c1.3-2.427 2.513-4.875 3.64-7.345 1.17-2.47 2.253-4.767 3.25-6.89.997-2.123 1.863-3.965 2.6-5.525.737-1.603 1.343-2.708 1.82-3.315-3.423-1.083-6.695-1.907-9.815-2.47-3.12-.563-6.413-.932-9.88-1.105-3.12-.13-5.915.238-8.385 1.105-2.427.823-4.507 1.928-6.24 3.315-1.733 1.387-3.098 2.968-4.095 4.745-.997 1.733-1.56 3.423-1.69 5.07-.13 1.603.173 3.077.91 4.42.737 1.3 1.95 2.21 3.64 2.73 1.993.65 3.77.715 5.33.195s2.882-1.257 3.965-2.21c1.083-.997 1.885-2.015 2.405-3.055.52-1.04.758-1.798.715-2.275v-.13c.347-.303.65-.39.91-.26.26.087.39.347.39.78-.217 1.733-.802 3.25-1.755 4.55a10.992 10.992 0 01-3.51 3.12 11.067 11.067 0 01-4.42 1.43 10.71 10.71 0 01-4.68-.52c-2.21-.78-3.922-2.015-5.135-3.705a11.427 11.427 0 01-2.015-5.655c-.173-2.08.173-4.203 1.04-6.37.91-2.167 2.318-4.095 4.225-5.785 1.907-1.69 4.355-2.99 7.345-3.9C37.635.487 41.167.183 45.24.53c1.95.173 3.943.52 5.98 1.04a74.91 74.91 0 015.98 1.625c1.907.563 3.662 1.127 5.265 1.69 1.603.563 2.925.997 3.965 1.3.13-.173.39-.477.78-.91.39-.433.823-.867 1.3-1.3a12.1 12.1 0 011.43-1.235c.52-.347.953-.52 1.3-.52h-.065c.52-.173.932-.13 1.235.13.303.217.477.498.52.845.087.303.022.585-.195.845-.217.217-.585.238-1.105.065-.13-.13-.347-.087-.65.13a6.14 6.14 0 00-.975.715c-.303.26-.628.563-.975.91-.303.347-.563.628-.78.845.91.303 2.145.672 3.705 1.105 1.603.39 3.293.78 5.07 1.17 1.82.39 3.662.737 5.525 1.04 1.863.26 3.532.412 5.005.455 1.517 0 2.752-.13 3.705-.39.953-.303 1.43-.845 1.43-1.625zM63.115 49.085c.043.607-.087 1.105-.39 1.495-.303.433-.672.672-1.105.715-.39.087-.78-.043-1.17-.39-.347-.347-.585-1.018-.715-2.015-.173-1.56-.108-3.337.195-5.33.347-2.037.78-4.052 1.3-6.045a101.27 101.27 0 011.755-5.72c.65-1.777 1.17-3.228 1.56-4.355.173-.433.477-1.235.91-2.405.433-1.213.953-2.578 1.56-4.095a141.83 141.83 0 012.145-4.875 61.714 61.714 0 012.535-4.81c.867-1.473 1.733-2.752 2.6-3.835.91-1.083 1.798-1.777 2.665-2.08a17.6 17.6 0 011.885-.52c.607-.173 1.105-.282 1.495-.325.39-.043.585 0 .585.13s-.303.347-.91.65c-.303.173-.888.715-1.755 1.625-.867.867-1.885 2.21-3.055 4.03-1.127 1.777-2.362 4.03-3.705 6.76-1.3 2.687-2.557 5.937-3.77 9.75-.303.953-.737 2.362-1.3 4.225a116.327 116.327 0 00-1.625 5.98c-.52 2.08-.975 4.16-1.365 6.24-.347 2.08-.455 3.813-.325 5.2zm10.595-7.93c-.477 2.73-.498 4.745-.065 6.045.477 1.257 1.213 1.928 2.21 2.015.997.087 2.145-.303 3.445-1.17 1.343-.91 2.665-2.167 3.965-3.77a54.15 54.15 0 002.99-4.355 35.904 35.904 0 002.665-4.875c.303-.607.65-.91 1.04-.91s.412.39.065 1.17c-.303.65-.672 1.408-1.105 2.275a44.55 44.55 0 01-1.495 2.73 68.11 68.11 0 01-1.69 2.795 24.68 24.68 0 01-1.755 2.6 17.806 17.806 0 01-1.95 2.145 15.126 15.126 0 01-2.275 1.755 11.9 11.9 0 01-2.6 1.235 8.59 8.59 0 01-2.73.455c-1.17 0-2.123-.325-2.86-.975-.693-.607-1.213-1.408-1.56-2.405-.347-.997-.542-2.102-.585-3.315 0-1.213.087-2.427.26-3.64.26-1.3.563-2.622.91-3.965.39-1.343.78-2.6 1.17-3.77a429.2 429.2 0 001.17-3.315c.39-.997.693-1.798.91-2.405.173-.433.477-1.235.91-2.405a72.021 72.021 0 011.625-4.095 91.637 91.637 0 012.21-4.875 61.714 61.714 0 012.535-4.81c.867-1.473 1.755-2.752 2.665-3.835.91-1.083 1.798-1.777 2.665-2.08a17.6 17.6 0 011.885-.52c.607-.173 1.105-.282 1.495-.325.39-.043.585 0 .585.13s-.303.347-.91.65c-.303.173-.867.715-1.69 1.625-.823.867-1.798 2.21-2.925 4.03-1.083 1.777-2.275 4.03-3.575 6.76-1.257 2.687-2.492 5.937-3.705 9.75-.217.607-.498 1.43-.845 2.47-.303.997-.65 2.123-1.04 3.38-.39 1.213-.78 2.513-1.17 3.9a48.824 48.824 0 00-.845 3.9zm44.568-4.485a150.44 150.44 0 01-2.99 5.72c-.866 1.517-1.841 2.838-2.925 3.965-1.04 1.083-2.318 2.037-3.835 2.86-1.473.867-3.38 1.712-5.72 2.535a106.535 106.535 0 01-3.575 5.785 34.856 34.856 0 01-4.42 5.59 21.55 21.55 0 01-5.525 4.225c-2.037 1.127-4.246 1.69-6.63 1.69-1.647 0-2.925-.238-3.835-.715-.91-.477-1.538-1.105-1.885-1.885-.39-.78-.52-1.647-.39-2.6.13-.91.433-1.82.91-2.73.607-1.213 1.474-2.253 2.6-3.12a18.415 18.415 0 013.51-2.21c2.21-1.04 4.724-1.907 7.54-2.6 2.86-.65 5.612-1.343 8.255-2.08a35.738 35.738 0 001.755-3.64 75.865 75.865 0 001.56-4.03c.477-1.343.91-2.622 1.3-3.835s.715-2.253.975-3.12c-.563.997-1.235 2.188-2.015 3.575a32.657 32.657 0 01-2.665 3.9 18.455 18.455 0 01-3.185 3.185c-1.126.867-2.318 1.3-3.575 1.3-.347 0-.737-.022-1.17-.065a4.256 4.256 0 01-2.275-1.365c-.303-.39-.52-.888-.65-1.495a6.334 6.334 0 01-.065-2.015 9.2 9.2 0 01.455-1.885c.26-.65.542-1.257.845-1.82.347-.607.672-1.213.975-1.82-.216 0-.433-.065-.65-.195-.173-.13-.151-.412.065-.845.217-.347.412-.715.585-1.105.174-.39.368-.78.585-1.17l1.95-3.77c.65-1.257 1.213-2.383 1.69-3.38.26-.52.585-.867.975-1.04.433-.217.953-.325 1.56-.325h3.965c-.303.26-.693.542-1.17.845-.433.303-.845.802-1.235 1.495a92.98 92.98 0 00-3.12 5.72c-.91 1.907-1.82 3.835-2.73 5.785-.78 1.69-1.213 3.098-1.3 4.225-.087 1.127.065 1.928.455 2.405.433.433 1.062.498 1.885.195.823-.347 1.755-1.127 2.795-2.34.91-1.04 1.842-2.275 2.795-3.705a74.724 74.724 0 002.73-4.42 99.266 99.266 0 002.535-4.615 77.579 77.579 0 002.145-4.225c.26-.52.585-.867.975-1.04.434-.217.954-.325 1.56-.325h3.51a8.915 8.915 0 00-1.625 1.495 12.14 12.14 0 00-1.235 1.82c-.39.693-.758 1.495-1.105 2.405a91.85 91.85 0 00-1.105 2.925 257.61 257.61 0 00-2.535 7.15 203.296 203.296 0 01-2.665 7.735 25.46 25.46 0 002.275-.845c.867-.347 1.712-.78 2.535-1.3a18.43 18.43 0 002.405-1.82c.78-.737 1.495-1.56 2.145-2.47a41.724 41.724 0 002.535-4.225 89.428 89.428 0 011.56-2.925c.304-.563.607-.758.91-.585.304.13.304.52 0 1.17zM98.193 53.18l-3.38.845c-1.17.303-2.362.628-3.575.975s-2.383.693-3.51 1.04c-1.126.39-2.145.78-3.055 1.17-1.647.737-3.011 1.69-4.095 2.86-1.127 1.17-1.863 2.318-2.21 3.445-.39 1.17-.368 2.167.065 2.99.433.823 1.343 1.235 2.73 1.235 1.43 0 2.904-.455 4.42-1.365a24.852 24.852 0 004.355-3.185 37.332 37.332 0 003.9-3.965c1.214-1.387 2.189-2.6 2.925-3.64.217-.347.433-.737.65-1.17.26-.39.52-.802.78-1.235zm16.147 9.555c-.65 1.387-1.257 2.318-1.82 2.795-.607.477-1.452.672-2.535.585a6.907 6.907 0 01-1.3-.26 3.196 3.196 0 00-1.43-.065c.26-.26.758-1.018 1.495-2.275.737-1.213 1.582-2.73 2.535-4.55a320.592 320.592 0 003.055-5.85 134.557 134.557 0 002.99-6.24 87.123 87.123 0 002.405-5.59c.693-1.733 1.148-3.098 1.365-4.095-.347.563-.737.932-1.17 1.105-.433.13-.542-.043-.325-.52.173-.347.39-.823.65-1.43s.477-1.105.65-1.495c.303-.693.563-1.495.78-2.405.26-.91.412-1.777.455-2.6.087-.823.065-1.517-.065-2.08-.13-.607-.39-.953-.78-1.04.477-.087.932-.173 1.365-.26.347-.087.693-.13 1.04-.13.39-.043.65-.087.78-.13.477-.043.867-.065 1.17-.065.303-.043.542 0 .715.13.173.13.282.412.325.845.087.39.13.975.13 1.755 0 .65-.108 1.43-.325 2.34-.173.867-.39 1.777-.65 2.73a52.94 52.94 0 01-.845 2.795 69 69 0 01-.845 2.405 51.018 51.018 0 012.47-2.86 32.419 32.419 0 012.99-2.99c.78-.693 1.733-1.43 2.86-2.21a30.54 30.54 0 013.51-2.145c1.17-.65 2.253-1.148 3.25-1.495 1.04-.347 1.842-.433 2.405-.26-1.3 2.34-2.492 4.572-3.575 6.695-.477.91-.953 1.842-1.43 2.795-.433.953-.845 1.885-1.235 2.795-.39.867-.737 1.69-1.04 2.47-.26.78-.433 1.452-.52 2.015-.26 1.343-.26 2.232 0 2.665.26.39.607.585 1.04.585.823 0 1.69-.455 2.6-1.365a21.78 21.78 0 002.6-3.185 42.67 42.67 0 002.21-3.77c.65-1.257 1.148-2.232 1.495-2.925.26-.563.542-.758.845-.585.347.13.368.52.065 1.17a97.219 97.219 0 01-1.82 3.575 31.856 31.856 0 01-2.405 4.03 18.014 18.014 0 01-2.99 3.25c-1.083.91-2.253 1.365-3.51 1.365a5.21 5.21 0 01-1.755-.325c-.607-.217-1.127-.607-1.56-1.17-.39-.607-.628-1.387-.715-2.34-.087-.997.108-2.253.585-3.77.26-.867.693-1.842 1.3-2.925a77.608 77.608 0 012.275-3.9c.39-.65.607-1.213.65-1.69.043-.477-.13-.758-.52-.845-.347-.087-.91.087-1.69.52-.78.433-1.798 1.235-3.055 2.405a296.21 296.21 0 00-1.95 1.82c-.693.693-1.452 1.56-2.275 2.6-.78.997-1.582 2.188-2.405 3.575-.823 1.387-1.625 3.012-2.405 4.875l-6.11 15.145zm49.231-26.39c-.607 1.3-1.257 2.687-1.95 4.16a23.91 23.91 0 01-2.47 4.03 13.353 13.353 0 01-3.38 3.055c-1.257.78-2.795 1.17-4.615 1.17-1.647 0-3.098-.52-4.355-1.56-1.213-1.04-1.842-2.6-1.885-4.68 0-.953.108-1.972.325-3.055.26-1.083.607-2.145 1.04-3.185a26.59 26.59 0 011.625-3.12 21.84 21.84 0 012.015-2.795 19.344 19.344 0 012.73-2.6c.997-.78 1.993-1.365 2.99-1.755.997-.433 1.95-.65 2.86-.65.953 0 1.798.26 2.535.78.607.477.953 1.083 1.04 1.82.13.737.022 1.56-.325 2.47-.347.867-.888 1.755-1.625 2.665a14.928 14.928 0 01-2.665 2.535c-.52.39-1.148.758-1.885 1.105-.693.347-1.43.65-2.21.91s-1.517.477-2.21.65c-.693.13-1.257.195-1.69.195-.26.607-.498 1.408-.715 2.405a13.509 13.509 0 00-.195 2.925c.087.953.347 1.798.78 2.535.477.693 1.257 1.04 2.34 1.04 1.43 0 2.708-.412 3.835-1.235a14.593 14.593 0 003.055-3.055 20.329 20.329 0 002.275-3.64 67.038 67.038 0 001.56-3.185c.13-.303.282-.52.455-.65.217-.173.39-.26.52-.26.173 0 .282.087.325.26.087.13.043.368-.13.715zm-6.76-1.82a10.457 10.457 0 002.145-2.47c.607-.91 1.018-1.755 1.235-2.535.217-.78.26-1.43.13-1.95s-.455-.758-.975-.715c-.52 0-1.235.347-2.145 1.04-.91.65-2.037 1.777-3.38 3.38a27.827 27.827 0 00-2.405 3.38c-.693 1.213-1.192 2.123-1.495 2.73.303 0 .715-.043 1.235-.13.52-.13 1.105-.303 1.755-.52.65-.26 1.3-.563 1.95-.91.693-.39 1.343-.823 1.95-1.3zm32.831 2.015a136.204 136.204 0 01-1.82 3.77 31.151 31.151 0 01-2.34 3.835c-.867 1.213-1.82 2.232-2.86 3.055-1.04.823-2.145 1.235-3.315 1.235-.737 0-1.387-.173-1.95-.52-.563-.39-.997-.932-1.3-1.625-.26-.737-.39-1.625-.39-2.665s.217-2.21.65-3.51a37.881 37.881 0 01-1.885 2.99 21.377 21.377 0 01-2.145 2.665c-.737.78-1.517 1.43-2.34 1.95-.823.477-1.625.715-2.405.715-.347 0-.737-.022-1.17-.065a4.263 4.263 0 01-2.275-1.365c-.303-.39-.52-.888-.65-1.495a6.325 6.325 0 01-.065-2.015 9.21 9.21 0 01.455-1.885c.26-.65.542-1.257.845-1.82.347-.607.672-1.213.975-1.82-.217 0-.433-.065-.65-.195-.173-.13-.152-.412.065-.845a8.82 8.82 0 00.585-1.105c.173-.39.368-.78.585-1.17l1.95-3.77c.65-1.257 1.213-2.383 1.69-3.38.26-.52.585-.867.975-1.04.433-.217.953-.325 1.56-.325h3.965c-.39.26-.737.542-1.04.845-.303.26-.628.585-.975.975-.303.39-.628.867-.975 1.43s-.737 1.3-1.17 2.21a56.756 56.756 0 00-1.625 3.25c-.477.91-.932 1.842-1.365 2.795a72.48 72.48 0 01-1.105 2.34c-.78 1.69-1.213 3.098-1.3 4.225-.087 1.127.065 1.928.455 2.405.433.433 1.062.498 1.885.195.823-.347 1.755-1.127 2.795-2.34.91-1.04 1.798-2.275 2.665-3.705a73.713 73.713 0 002.6-4.42 156.23 156.23 0 002.34-4.615c.78-1.517 1.473-2.925 2.08-4.225.26-.52.585-.867.975-1.04.433-.217.953-.325 1.56-.325h3.51c-.477.39-.888.758-1.235 1.105a7.085 7.085 0 00-1.04 1.17c-.303.433-.628.997-.975 1.69-.347.65-.758 1.473-1.235 2.47-.477.91-.953 1.863-1.43 2.86l-1.3 2.86c-.39.91-.737 1.777-1.04 2.6-.303.78-.498 1.452-.585 2.015-.303 1.387-.303 2.383 0 2.99.347.563.758.867 1.235.91.78 0 1.56-.347 2.34-1.04.823-.693 1.603-1.56 2.34-2.6a34.009 34.009 0 002.08-3.51c.693-1.3 1.322-2.535 1.885-3.705.26-.563.542-.758.845-.585.347.13.368.52.065 1.17zm-7.345 10.855a32.505 32.505 0 00-2.665 2.405c-.867.91-1.69 1.842-2.47 2.795a17.488 17.488 0 00-1.82 2.86c-.477.953-.737 1.798-.78 2.535 0 .607.13 1.105.39 1.495.26.433.758.65 1.495.65.607 0 1.192-.217 1.755-.65a12.33 12.33 0 001.56-1.3c.087-.087.238-.152.455-.195.217 0 .282.152.195.455-.087.347-.303.715-.65 1.105-.303.433-.737.823-1.3 1.17a8.19 8.19 0 01-1.95.975 6.43 6.43 0 01-2.275.39c-.823 0-1.538-.238-2.145-.715-.563-.477-.823-1.213-.78-2.21.043-.997.455-2.145 1.235-3.445a25.92 25.92 0 012.925-3.77 34.221 34.221 0 013.445-3.25c1.213-.953 2.21-1.603 2.99-1.95h.325c.13 0 .152.217.065.65zm13.157-11.505a96.327 96.327 0 012.275-2.73 40.734 40.734 0 012.73-2.73 28.959 28.959 0 012.925-2.34c.997-.737 1.994-1.3 2.99-1.69 1.69-.607 3.034-.845 4.03-.715.997.13 1.669.498 2.015 1.105.174.52.217 1.018.13 1.495a2.51 2.51 0 01-.585 1.235c-.26.347-.606.607-1.04.78-.433.13-.888.13-1.365 0-.043-.433-.303-.78-.78-1.04-.433-.303-1.04-.433-1.82-.39-.78.043-1.711.282-2.795.715-1.04.433-2.145 1.105-3.315 2.015-.996 2.903-1.43 5.503-1.3 7.8.174 2.253.715 4.008 1.625 5.265.91 1.257 2.059 1.928 3.445 2.015 1.387.043 2.817-.715 4.29-2.275.824-.867 1.669-2.08 2.535-3.64a83.878 83.878 0 002.73-5.265c.26-.52.52-.672.78-.455.26.173.282.52.065 1.04-1.3 2.947-2.535 5.287-3.705 7.02-1.126 1.69-2.231 2.968-3.315 3.835-1.04.823-2.058 1.322-3.055 1.495-.953.173-1.906.217-2.86.13a7.7 7.7 0 01-1.885-.39 7 7 0 01-1.755-1.105 9.79 9.79 0 01-1.56-1.885c-.433-.737-.736-1.668-.91-2.795-.216-1.387-.325-2.535-.325-3.445.044-.91.13-1.668.26-2.275a170.06 170.06 0 00-1.755 2.34 21.705 21.705 0 00-1.495 2.535c-.26.52-.585 1.213-.975 2.08-.346.867-.866 2.102-1.56 3.705-.26.477-.563.758-.91.845-.346.087-.866.13-1.56.13-.476.043-.866.065-1.17.065-.346 0-.693.108-1.04.325 1.56-3.12 3.034-6.197 4.42-9.23a174.34 174.34 0 014.55-8.97c.824-1.56 1.539-2.643 2.145-3.25.607-.607 1.43-.888 2.47-.845.434.043.867.13 1.3.26a3.95 3.95 0 001.43 0c-.39.217-.845.628-1.365 1.235a31.103 31.103 0 00-1.56 2.21 61.777 61.777 0 00-1.755 2.73 68.472 68.472 0 00-1.625 3.055zm41.323-5.005c-.347.347-.824.997-1.43 1.95a58.95 58.95 0 00-1.82 3.185 46.532 46.532 0 00-1.69 3.64c-.52 1.257-.889 2.383-1.105 3.38-.52 2.6-.304 3.9.65 3.9.476 0 .975-.195 1.495-.585a9.226 9.226 0 001.495-1.43c.476-.563.931-1.148 1.365-1.755.433-.65.78-1.213 1.04-1.69.346-.563.671-.758.975-.585.346.13.346.498 0 1.105-1.04 1.777-2.167 3.315-3.38 4.615-1.214 1.257-2.384 1.928-3.51 2.015-.52.043-1.084-.043-1.69-.26-.607-.26-1.105-.693-1.495-1.3-.39-.65-.629-1.517-.715-2.6-.044-1.127.173-2.535.65-4.225a51.58 51.58 0 01-2.015 3.055 22.899 22.899 0 01-2.665 3.055c-1.257 1.213-2.427 1.928-3.51 2.145-1.04.217-1.929.065-2.665-.455-.737-.563-1.279-1.43-1.625-2.6-.304-1.17-.347-2.535-.13-4.095.216-1.603.736-3.337 1.56-5.2.866-1.907 2.123-3.835 3.77-5.785a13.482 13.482 0 013.445-2.99c1.386-.823 2.773-1.408 4.16-1.755 1.43-.347 2.795-.39 4.095-.13 1.343.26 2.47.888 3.38 1.885.476.477.606.932.39 1.365-.174.433-.542.607-1.105.52-.347-1.213-1.062-1.95-2.145-2.21-1.04-.26-2.167-.065-3.38.585-1.474.823-2.99 2.102-4.55 3.835a33.265 33.265 0 00-4.095 5.46 32.397 32.397 0 00-1.43 2.73c-.26.607-.52 1.257-.78 1.95a10.71 10.71 0 00-.455 1.885c-.174 1.127-.109 1.95.195 2.47.346.52.801.78 1.365.78.606 0 1.3-.238 2.08-.715.78-.52 1.56-1.235 2.34-2.145a37.556 37.556 0 003.055-4.355c.953-1.56 1.863-3.142 2.73-4.745.736-1.387 1.386-2.448 1.95-3.185.606-.737 1.43-1.062 2.47-.975.433.043.866.13 1.3.26a3.95 3.95 0 001.43 0zm18.2 8.255a25.064 25.064 0 00-.975 2.275c-.304.867-.52 1.733-.65 2.6-.13.823-.109 1.538.065 2.145.216.607.715.91 1.495.91.823 0 1.668-.455 2.535-1.365.91-.91 1.755-1.972 2.535-3.185a39.023 39.023 0 002.08-3.64c.65-1.257 1.148-2.232 1.495-2.925.26-.563.541-.758.845-.585.346.13.368.52.065 1.17a98.828 98.828 0 01-1.82 3.575 31.974 31.974 0 01-2.405 4.03 18.014 18.014 0 01-2.99 3.25c-1.084.91-2.254 1.365-3.51 1.365-.52 0-1.04-.13-1.56-.39-.477-.303-.932-.758-1.365-1.365-.347-.563-.585-1.408-.715-2.535a7.124 7.124 0 01.455-3.185c.52-1.083.975-2.037 1.365-2.86l1.235-2.47c.433-.78.866-1.582 1.3-2.405.476-.823.996-1.755 1.56-2.795.433-.78.78-1.43 1.04-1.95.303-.563.585-.997.845-1.3.303-.347.606-.585.91-.715.346-.13.78-.173 1.3-.13.433.043.866.13 1.3.26a3.95 3.95 0 001.43 0c-.477.26-1.062.823-1.755 1.69a45.561 45.561 0 00-2.08 3.055 127.373 127.373 0 00-2.145 3.77 99.553 99.553 0 00-1.885 3.705zm-8.97-5.525c.173-.78.433-1.56.78-2.34.39-.823.845-1.582 1.365-2.275.52-.693 1.105-1.3 1.755-1.82a6.617 6.617 0 012.21-1.105c1.17-.347 2.188-.433 3.055-.26.866.173 1.516.563 1.95 1.17.433.607.628 1.43.585 2.47 0 1.04-.325 2.232-.975 3.575-.954 1.17-1.734 2.058-2.34 2.665-.52.52-.91.823-1.17.91-.26.087-.109-.39.455-1.43a48.595 48.595 0 001.495-2.99c.433-.953.715-1.798.845-2.535.13-.737.065-1.322-.195-1.755-.26-.477-.802-.737-1.625-.78-.607-.043-1.214.087-1.82.39-.564.26-1.062.693-1.495 1.3-.477.65-.997 1.408-1.56 2.275-.52.867-.91 1.668-1.17 2.405-.174.433-.282.953-.325 1.56-.044.607.043 1.17.26 1.69.216.477.628.867 1.235 1.17.65.26 1.581.303 2.795.13.606-.087.91.043.91.39 0 .303-.434.498-1.3.585-1.43.173-2.557.108-3.38-.195-.824-.347-1.43-.802-1.82-1.365a3.647 3.647 0 01-.65-1.885c-.044-.693 0-1.343.13-1.95zm5.07 5.265a105.175 105.175 0 01-2.145 3.705 19.342 19.342 0 01-2.275 3.12c-.824.91-1.69 1.647-2.6 2.21a5.46 5.46 0 01-2.925.845c-2.514 0-4.247-.888-5.2-2.665-.564-1.04-.867-1.928-.91-2.665 0-.78.13-1.387.39-1.82.303-.477.671-.78 1.105-.91.433-.173.801-.173 1.105 0 .346.13.563.433.65.91.13.477 0 1.105-.39 1.885-.174.39-.217.802-.13 1.235.086.39.238.758.455 1.105.26.347.563.65.91.91.39.217.823.325 1.3.325.736.043 1.365-.022 1.885-.195a4.962 4.962 0 001.56-.975c.996-.867 1.95-1.928 2.86-3.185a34.74 34.74 0 002.6-3.965c.086-.087.39-.087.91 0 .216.043.498.087.845.13zM143.39 72.54a97.219 97.219 0 01-1.82 3.575 31.856 31.856 0 01-2.405 4.03 18.014 18.014 0 01-2.99 3.25c-1.083.91-2.253 1.365-3.51 1.365a5.21 5.21 0 01-1.755-.325c-.607-.217-1.127-.607-1.56-1.17-.39-.607-.628-1.387-.715-2.34-.087-.997.108-2.253.585-3.77.26-.867.693-1.842 1.3-2.925a77.608 77.608 0 012.275-3.9c.39-.65.607-1.213.65-1.69.043-.477-.13-.758-.52-.845-.347-.087-.91.087-1.69.52-.78.433-1.798 1.235-3.055 2.405-1.127.997-2.47 2.492-4.03 4.485-1.517 1.993-3.185 4.788-5.005 8.385-.26.477-.563.758-.91.845-.347.087-.867.13-1.56.13-.477.043-.867.065-1.17.065-.347 0-.693.108-1.04.325a294.37 294.37 0 004.42-9.23 174.34 174.34 0 014.55-8.97c.823-1.56 1.538-2.643 2.145-3.25.607-.607 1.43-.888 2.47-.845.433.043.867.13 1.3.26a3.95 3.95 0 001.43 0c-.477.26-1.062.823-1.755 1.69a45.942 45.942 0 00-2.08 3.055 132.036 132.036 0 00-2.145 3.77c-.693 1.3-1.322 2.535-1.885 3.705a71.648 71.648 0 012.405-2.86 32.419 32.419 0 012.99-2.99c.78-.693 1.733-1.43 2.86-2.21a30.54 30.54 0 013.51-2.145c1.17-.65 2.253-1.148 3.25-1.495 1.04-.347 1.842-.433 2.405-.26-1.3 2.34-2.492 4.572-3.575 6.695-.477.91-.953 1.842-1.43 2.795-.433.953-.845 1.885-1.235 2.795-.39.867-.737 1.69-1.04 2.47-.26.78-.433 1.452-.52 2.015-.26 1.343-.26 2.232 0 2.665.26.39.607.585 1.04.585.823 0 1.69-.455 2.6-1.365a21.78 21.78 0 002.6-3.185 42.67 42.67 0 002.21-3.77c.65-1.257 1.148-2.232 1.495-2.925.26-.563.542-.758.845-.585.347.13.368.52.065 1.17zm24.827-.26c-.26.607-.693 1.56-1.3 2.86-.563 1.3-1.278 2.6-2.145 3.9a16.565 16.565 0 01-3.055 3.445c-1.126.997-2.361 1.495-3.705 1.495-.996 0-1.841-.152-2.535-.455a5.966 5.966 0 01-1.625-1.235 14.538 14.538 0 01-2.795 1.69c-.953.39-1.906.563-2.86.52-1.256-.043-2.253-.412-2.99-1.105-.693-.693-1.17-1.582-1.43-2.665-.216-1.127-.216-2.383 0-3.77.217-1.43.629-2.86 1.235-4.29a24.106 24.106 0 012.405-4.225c.954-1.343 1.972-2.513 3.055-3.51 1.127-.997 2.275-1.777 3.445-2.34 1.17-.607 2.319-.888 3.445-.845 1.214 0 2.189.347 2.925 1.04.737.693 1.214 1.603 1.43 2.73.26 1.127.282 2.405.065 3.835-.216 1.387-.628 2.795-1.235 4.225-.476 1.127-1.191 2.405-2.145 3.835a23.113 23.113 0 01-3.315 3.835c.564 1.083 1.582 1.625 3.055 1.625 1.04 0 2.015-.433 2.925-1.3.954-.867 1.82-1.907 2.6-3.12a34.82 34.82 0 002.08-3.705 260.204 260.204 0 011.495-3.055c.174-.347.434-.455.78-.325.347.13.412.433.195.91zm-9.49-8.385c-.693-.173-1.451-.065-2.275.325-.823.347-1.646.932-2.47 1.755-.823.78-1.625 1.733-2.405 2.86a22.1 22.1 0 00-2.08 3.575 29.77 29.77 0 00-1.56 3.835c-.346 1.17-.563 2.232-.65 3.185-.086.953-.021 1.755.195 2.405.217.607.629.997 1.235 1.17.607.173 1.3.108 2.08-.195s1.56-.78 2.34-1.43a6.263 6.263 0 01-.78-1.625 5.341 5.341 0 01-.26-1.56c.044-.737.217-1.387.52-1.95.347-.563.932-.845 1.755-.845.564 0 1.019.195 1.365.585.39.39.585.845.585 1.365 0 .13-.021.26-.065.39 0 .087-.021.195-.065.325a27.34 27.34 0 002.015-3.51c.65-1.343 1.149-2.622 1.495-3.835.347-1.213.542-2.297.585-3.25.044-.953-.065-1.733-.325-2.34-.26-.65-.671-1.062-1.235-1.235zm29.638 8.71a97.291 97.291 0 01-2.34 4.745c-.78 1.473-1.668 2.773-2.665 3.9a11.025 11.025 0 01-3.38 2.6c-1.257.607-2.773.91-4.55.91-1.69 0-3.033-.303-4.03-.91-.997-.607-1.712-1.387-2.145-2.34-.433-.997-.628-2.123-.585-3.38.087-1.257.325-2.557.715-3.9a28.217 28.217 0 011.625-3.965c.693-1.3 1.43-2.47 2.21-3.51 1.213-1.647 2.578-2.903 4.095-3.77 1.517-.91 3.055-1.365 4.615-1.365 1.647 0 2.838.412 3.575 1.235.78.823 1.083 1.907.91 3.25-.087.52-.303 1.062-.65 1.625a5.25 5.25 0 01-1.105 1.43c-.433.39-.888.65-1.365.78-.477.087-.888-.043-1.235-.39.347-.433.715-.932 1.105-1.495.433-.607.737-1.213.91-1.82.303-1.127.303-1.928 0-2.405-.26-.52-.693-.78-1.3-.78-.607 0-1.213.173-1.82.52-.607.347-1.235.78-1.885 1.3a14.04 14.04 0 00-1.755 1.82c-.563.65-1.062 1.3-1.495 1.95a27.384 27.384 0 00-1.105 1.755c-.39.737-.78 1.56-1.17 2.47a23.43 23.43 0 00-.91 2.795c-.26.997-.39 1.972-.39 2.925 0 1.3.282 2.47.845 3.51.607.997 1.603 1.495 2.99 1.495 1.43 0 2.687-.347 3.77-1.04a13.956 13.956 0 003.055-2.73 25.071 25.071 0 002.47-3.705 117.09 117.09 0 002.08-3.965c.303-.607.607-.845.91-.715.303.13.303.52 0 1.17zm28.325.065a153.404 153.404 0 01-2.99 5.72c-.867 1.517-1.842 2.838-2.925 3.965-1.04 1.083-2.319 2.037-3.835 2.86-1.474.867-3.38 1.712-5.72 2.535a107.049 107.049 0 01-3.575 5.785 34.89 34.89 0 01-4.42 5.59 21.565 21.565 0 01-5.525 4.225c-2.037 1.127-4.247 1.69-6.63 1.69-1.647 0-2.925-.238-3.835-.715-.91-.477-1.539-1.105-1.885-1.885-.39-.78-.52-1.647-.39-2.6.13-.91.433-1.82.91-2.73.606-1.213 1.473-2.253 2.6-3.12a18.396 18.396 0 013.51-2.21c2.21-1.04 4.723-1.907 7.54-2.6 2.86-.65 5.611-1.343 8.255-2.08a36.078 36.078 0 001.755-3.64 77.628 77.628 0 001.56-4.03c.476-1.343.91-2.622 1.3-3.835s.715-2.253.975-3.12c-.564.997-1.235 2.188-2.015 3.575a32.776 32.776 0 01-2.665 3.9 18.484 18.484 0 01-3.185 3.185c-1.127.867-2.319 1.3-3.575 1.3-.347 0-.737-.022-1.17-.065a4.247 4.247 0 01-2.275-1.365c-.304-.39-.52-.888-.65-1.495a6.325 6.325 0 01-.065-2.015c.086-.65.238-1.278.455-1.885.26-.65.541-1.257.845-1.82.346-.607.671-1.213.975-1.82-.217 0-.434-.065-.65-.195-.174-.13-.152-.412.065-.845.216-.347.411-.715.585-1.105.173-.39.368-.78.585-1.17l1.95-3.77c.65-1.257 1.213-2.383 1.69-3.38.26-.52.585-.867.975-1.04.433-.217.953-.325 1.56-.325h3.965c-.304.26-.694.542-1.17.845-.434.303-.845.802-1.235 1.495a92.659 92.659 0 00-3.12 5.72c-.91 1.907-1.82 3.835-2.73 5.785-.78 1.69-1.214 3.098-1.3 4.225-.087 1.127.065 1.928.455 2.405.433.433 1.061.498 1.885.195.823-.347 1.755-1.127 2.795-2.34.91-1.04 1.841-2.275 2.795-3.705a75.794 75.794 0 002.73-4.42 99.266 99.266 0 002.535-4.615 79.043 79.043 0 002.145-4.225c.26-.52.585-.867.975-1.04.433-.217.953-.325 1.56-.325h3.51a8.85 8.85 0 00-1.625 1.495 12.08 12.08 0 00-1.235 1.82 17.86 17.86 0 00-1.105 2.405 89.486 89.486 0 00-1.105 2.925 251.245 251.245 0 00-2.535 7.15 206.86 206.86 0 01-2.665 7.735 25.691 25.691 0 002.275-.845 15.66 15.66 0 002.535-1.3 18.498 18.498 0 002.405-1.82c.78-.737 1.495-1.56 2.145-2.47a42.097 42.097 0 002.535-4.225 85.618 85.618 0 011.56-2.925c.303-.563.606-.758.91-.585.303.13.303.52 0 1.17zm-20.085 16.51l-3.38.845c-1.17.303-2.362.628-3.575.975-1.214.347-2.384.693-3.51 1.04a45.88 45.88 0 00-3.055 1.17c-1.647.737-3.012 1.69-4.095 2.86-1.127 1.17-1.864 2.318-2.21 3.445-.39 1.17-.369 2.167.065 2.99.433.823 1.343 1.235 2.73 1.235 1.43 0 2.903-.455 4.42-1.365a24.886 24.886 0 004.355-3.185 37.332 37.332 0 003.9-3.965c1.213-1.387 2.188-2.6 2.925-3.64.216-.347.433-.737.65-1.17.26-.39.52-.802.78-1.235zm48.582-16.64a227.06 227.06 0 01-2.275 4.55c-.694 1.343-1.43 2.535-2.21 3.575a17.868 17.868 0 01-2.405 2.665c-.867.737-1.907 1.387-3.12 1.95-.737 2.037-1.799 4.203-3.185 6.5a33.263 33.263 0 01-4.81 6.435 26.913 26.913 0 01-6.045 4.875c-2.21 1.3-4.485 1.95-6.825 1.95-4.074 0-6.11-1.668-6.11-5.005 0-1.603.563-3.033 1.69-4.29 1.083-1.213 2.405-2.275 3.965-3.185a40.051 40.051 0 014.68-2.405 84.605 84.605 0 014.42-1.755c1.473-.52 2.881-.997 4.225-1.43a47.265 47.265 0 003.965-1.43c.39-1.127.693-2.275.91-3.445.26-1.213.455-2.47.585-3.77a32.69 32.69 0 00.195-3.315c0-.997-.044-1.668-.13-2.015-.52.997-1.235 2.232-2.145 3.705a27.025 27.025 0 01-2.99 4.03c-1.084 1.257-2.254 2.253-3.51 2.99-1.257.737-2.535.91-3.835.52-1.647-.693-2.687-1.733-3.12-3.12-.39-1.43-.39-2.99 0-4.68.39-1.733 1.061-3.488 2.015-5.265a30.291 30.291 0 013.315-4.81 13.805 13.805 0 013.25-2.925c1.256-.823 2.556-1.387 3.9-1.69a9.05 9.05 0 014.03-.13c1.386.217 2.686.802 3.9 1.755.563.477.866.932.91 1.365.086.433.021.78-.195 1.04-.174.217-.412.303-.715.26-.304-.043-.542-.303-.715-.78-.434-1.17-1.04-1.907-1.82-2.21-.737-.303-1.582-.282-2.535.065-.954.303-1.972.867-3.055 1.69a26.572 26.572 0 00-3.055 2.86 36.63 36.63 0 00-3.25 4.355c-.997 1.56-1.777 3.055-2.34 4.485-.52 1.387-.78 2.622-.78 3.705.043 1.04.498 1.755 1.365 2.145.953.39 2.015.173 3.185-.65 1.213-.867 2.361-1.993 3.445-3.38a33.727 33.727 0 002.99-4.485c.866-1.56 1.451-2.86 1.755-3.9.216-.737.498-1.257.845-1.56a2.494 2.494 0 011.105-.585 5.08 5.08 0 011.105-.13c.39 0 .715-.108.975-.325.433 2.6.563 5.243.39 7.93a37.639 37.639 0 01-1.235 7.865c.78-.563 1.56-1.192 2.34-1.885a14.15 14.15 0 002.21-2.34c1.083-1.43 1.885-2.773 2.405-4.03.563-1.3 1.018-2.253 1.365-2.86.303-.563.606-.78.91-.65.346.13.368.52.065 1.17zm-14.69 14.885c-.347.13-.715.26-1.105.39l-1.17.39a322.256 322.256 0 00-7.41 2.665c-2.514.997-4.81 2.188-6.89 3.575a10.121 10.121 0 00-2.665 2.6c-.78 1.083-1.279 2.102-1.495 3.055-.26.997-.152 1.842.325 2.535.433.737 1.321 1.105 2.665 1.105.693 0 1.451-.13 2.275-.39.78-.217 1.538-.498 2.275-.845.736-.347 1.43-.715 2.08-1.105.65-.39 1.17-.737 1.56-1.04a26.978 26.978 0 002.99-2.925 44.812 44.812 0 002.86-3.445c1.603-2.253 2.838-4.442 3.705-6.565zm40.339-14.885a73.564 73.564 0 01-1.82 3.51 35.94 35.94 0 01-2.34 3.9c-.867 1.257-1.799 2.34-2.795 3.25-.954.867-1.907 1.343-2.86 1.43-.52.043-1.084-.043-1.69-.26-.607-.26-1.105-.693-1.495-1.3-.39-.65-.629-1.517-.715-2.6-.044-1.127.173-2.535.65-4.225a51.58 51.58 0 01-2.015 3.055 22.899 22.899 0 01-2.665 3.055c-1.257 1.213-2.427 1.928-3.51 2.145-1.04.217-1.929.065-2.665-.455-.737-.563-1.279-1.43-1.625-2.6-.304-1.17-.347-2.535-.13-4.095.216-1.603.736-3.337 1.56-5.2.866-1.907 2.123-3.835 3.77-5.785a13.482 13.482 0 013.445-2.99c1.386-.823 2.773-1.408 4.16-1.755 1.43-.347 2.795-.39 4.095-.13 1.343.26 2.47.888 3.38 1.885.476.477.606.932.39 1.365-.174.433-.542.607-1.105.52-.347-1.213-1.062-1.95-2.145-2.21-1.04-.26-2.167-.065-3.38.585-1.474.823-2.99 2.102-4.55 3.835a33.265 33.265 0 00-4.095 5.46 32.397 32.397 0 00-1.43 2.73c-.26.607-.52 1.257-.78 1.95a10.71 10.71 0 00-.455 1.885c-.174 1.127-.109 1.95.195 2.47.346.52.801.78 1.365.78.606 0 1.3-.238 2.08-.715.78-.52 1.56-1.235 2.34-2.145a37.556 37.556 0 003.055-4.355c.953-1.56 1.863-3.142 2.73-4.745.736-1.387 1.386-2.448 1.95-3.185.606-.737 1.43-1.062 2.47-.975.433.043.866.13 1.3.26a3.95 3.95 0 001.43 0c-.347.347-.824.997-1.43 1.95a58.95 58.95 0 00-1.82 3.185 46.532 46.532 0 00-1.69 3.64c-.52 1.257-.889 2.383-1.105 3.38-.52 2.6-.304 3.9.65 3.9.693.043 1.451-.368 2.275-1.235.823-.867 1.625-1.907 2.405-3.12a40.893 40.893 0 002.21-3.64c.65-1.257 1.148-2.232 1.495-2.925.303-.563.606-.78.91-.65.303.13.303.52 0 1.17z" fill="#00376B"/><circle cx="343.5" cy="55.5" r="52.5" fill="url(#paint0_radial)"/><circle cx="343.5" cy="55.5" r="30.732" fill="#fff"/><circle cx="343.5" cy="55.5" r="24.329" fill="#29ABE3"/><circle cx="343.5" cy="55.5" r="11.098" fill="#060606"/><path fill-rule="evenodd" clip-rule="evenodd" d="M346.151 7.766c8.147 1.243 16.281 4.357 23.699 9.439 7.476 5.121 13.351 11.642 17.457 18.856-7.134-15.88-22.671-27.272-41.156-28.295zm-7.622 96.031c-8.054-1.747-15.979-5.36-23.067-10.893C308.319 87.328 302.86 80.455 299.21 73c6.134 16.292 20.934 28.628 39.319 30.797z" fill="#fff"/><defs><radialGradient id="paint0_radial" cx="0" cy="0" r="1" gradientUnits="userSpaceOnUse" gradientTransform="rotate(90 144 199.5) scale(52.5)"><stop offset=".48" stop-color="#0058C6"/><stop offset="1" stop-color="#0C0E68"/></radialGradient></defs></svg>