<svg width="42" height="42" fill="none" xmlns="http://www.w3.org/2000/svg"><path d="M23.275 18.2c.569-.438.831-1.181.831-1.881 0-.744-.35-1.488-1.006-1.881-.656-.394-1.881-.307-2.713-.307h-1.093v4.506h1.444c.875.044 1.837.088 2.537-.437z" fill="url(#paint0_radial)"/><path d="M24.238 22.575c-.657-.394-1.62-.394-2.363-.394h-2.494v5.163h2.275c.832 0 1.925.043 2.669-.438.656-.437 1.05-1.356 1.05-2.187 0-.832-.481-1.75-1.137-2.144z" fill="url(#paint1_radial)"/><path d="M21 0C9.406 0 0 9.406 0 21s9.406 21 21 21 21-9.406 21-21S32.594 0 21 0zm2.1 31.15h-8.575V10.456h9.362c2.713 0 5.207 1.75 5.207 4.769 0 2.362-1.313 3.981-2.975 4.463v.043c2.494.525 4.244 1.881 4.244 5.119.043 3.063-2.013 6.3-7.263 6.3z" fill="url(#paint2_radial)"/><defs><radialGradient id="paint0_radial" cx="0" cy="0" r="1" gradientUnits="userSpaceOnUse" gradientTransform="matrix(0 21 -21 0 21 21)"><stop offset=".48" stop-color="#0058C6"/><stop offset="1" stop-color="#0C0E68"/></radialGradient><radialGradient id="paint1_radial" cx="0" cy="0" r="1" gradientUnits="userSpaceOnUse" gradientTransform="matrix(0 21 -21 0 21 21)"><stop offset=".48" stop-color="#0058C6"/><stop offset="1" stop-color="#0C0E68"/></radialGradient><radialGradient id="paint2_radial" cx="0" cy="0" r="1" gradientUnits="userSpaceOnUse" gradientTransform="matrix(0 21 -21 0 21 21)"><stop offset=".48" stop-color="#0058C6"/><stop offset="1" stop-color="#0C0E68"/></radialGradient></defs></svg>