<svg xmlns="http://www.w3.org/2000/svg" viewBox="0 0 100 100"><path d="M67.4 0H2.9C1.3 0 0 1.3 0 2.9V97c0 1.6 1.3 2.9 2.9 2.9h64.5c4.8 0 8.8-3.9 8.8-8.8V8.8c0-4.9-4-8.8-8.8-8.8z" fill="#d0112b"/><path d="M55.7 88.2H20.5c-1.6 0-2.9-1.3-2.9-2.9 0-1.6 1.3-2.9 2.9-2.9h35.2c1.6 0 2.9 1.3 2.9 2.9 0 1.6-1.3 2.9-2.9 2.9zm0-11.6H20.5c-1.6 0-2.9-1.3-2.9-2.9 0-1.6 1.3-2.9 2.9-2.9h35.2c1.6 0 2.9 1.3 2.9 2.9 0 1.5-1.3 2.9-2.9 2.9zm-9.6-38c2.1-2.1 3.4-5 3.4-8.2 0-6.3-5.1-11.4-11.4-11.4-6.3 0-11.4 5.1-11.4 11.4 0 3.2 1.3 6.1 3.4 8.2-3.8 2.6-6.3 6.9-6.3 11.8v5.7c0 1.6 1.3 2.9 2.9 2.9h22.9c1.6 0 2.9-1.3 2.9-2.9v-5.7c-.1-4.9-2.6-9.2-6.4-11.8zm-8-13.9c3.2 0 5.7 2.6 5.7 5.7s-2.6 5.7-5.7 5.7c-3.2 0-5.7-2.6-5.7-5.7s2.5-5.7 5.7-5.7zm8.6 28.6H29.5v-2.9c0-4.7 3.8-8.6 8.6-8.6 4.7 0 8.6 3.8 8.6 8.6v2.9z" fill="#fff"/></svg>