<svg xmlns="http://www.w3.org/2000/svg" id="Слой_1" x="0" y="0" viewBox="0 0 100 100" xml:space="preserve"><style>.st0{fill:#d0112b}</style><path class="st0" d="M67.4 41.4c-11.3 0-20.5 9.2-20.5 20.5s9.2 20.5 20.5 20.5 20.5-9.2 20.5-20.5-9.2-20.5-20.5-20.5zm0 29.3c-4.8 0-8.8-3.9-8.8-8.8s3.9-8.8 8.8-8.8 8.8 3.9 8.8 8.8-4 8.8-8.8 8.8z"/><path class="st0" d="M67.4 59c-1.6 0-2.9 1.3-2.9 2.9s1.3 2.9 2.9 2.9 2.9-1.3 2.9-2.9S69 59 67.4 59zM52.7 83.8c3.4 2.3 7.4 3.8 11.7 4.3v6L52.7 100V83.8zm29.3 0V100l-11.7-5.9v-6c4.3-.5 8.3-2 11.7-4.3zM55.7 14.6H20.5c0 3.2-2.6 5.9-5.9 5.9v53.1c3.2 0 5.9 2.6 5.9 5.9h27.2C43.6 74.8 41 68.7 41 61.9c0-5.4 1.6-10.5 4.5-14.6H29.3v-5.9h17.6v4c3.7-4.5 8.8-7.8 14.6-9.2V20.5c-3.2 0-5.8-2.6-5.8-5.9zm-3 20.9H23.4v-5.9h29.3v5.9z"/><path class="st0" d="M76.2 9.8V37c-2.7-1-5.7-1.5-8.8-1.5V14.6c-3.2 0-5.9-2.6-5.9-5.9H14.6c0 3.2-2.6 5.9-5.9 5.9v64.8c3.2 0 5.9 2.6 5.9 5.9h32.2v8.8h-37c-5.4 0-9.8-4.4-9.8-9.8V9.8C0 4.4 4.4 0 9.8 0h56.5c5.5 0 9.9 4.4 9.9 9.8z"/></svg>