<svg width="25" height="26" fill="none" xmlns="http://www.w3.org/2000/svg"><path d="M19.897 6.5a2.712 2.712 0 002.708-2.708 2.711 2.711 0 00-2.708-2.709 2.712 2.712 0 00-2.708 2.709A2.712 2.712 0 0019.897 6.5zm0-4.333a1.626 1.626 0 11-1.625 1.625c0-.896.73-1.625 1.625-1.625zm4.718 13.341l-.694-5.551a2.71 2.71 0 00-2.687-2.373h-2.675c-.301 0-.604.053-.902.16a.542.542 0 00.361 1.02c.181-.064.363-.096.541-.096h2.675c.818 0 1.51.612 1.612 1.423l.694 5.551a.536.536 0 01-.13.426.534.534 0 01-.407.183h-.398a.541.541 0 00-.54.503l-.506 7.08h-3.325l-.39-5.456a.536.536 0 00-.578-.502.541.541 0 00-.502.579l.426 5.959a.544.544 0 00.54.503h4.334a.54.54 0 00.54-.502l.505-7.084a1.624 1.624 0 001.506-1.823zM7.354 18a.535.535 0 00-.578.501l-.382 5.332H3.07l-.505-7.08a.543.543 0 00-.542-.503h-.398a.534.534 0 01-.406-.183.535.535 0 01-.13-.426l.694-5.55c.1-.812.793-1.424 1.612-1.424h2.674c.122 0 .25.018.409.06a.546.546 0 00.662-.386.543.543 0 00-.387-.662 2.665 2.665 0 00-.685-.096H3.394A2.712 2.712 0 00.707 9.956l-.695 5.55a1.626 1.626 0 001.506 1.824l.506 7.084c.02.283.257.503.54.503h4.333c.284 0 .52-.22.54-.503l.418-5.836a.542.542 0 00-.5-.578zM4.73 6.5a2.712 2.712 0 002.71-2.708 2.711 2.711 0 00-2.71-2.709 2.712 2.712 0 00-2.708 2.709A2.712 2.712 0 004.73 6.5zm0-4.333a1.626 1.626 0 010 3.25c-.894 0-1.625-.73-1.625-1.625 0-.896.73-1.625 1.625-1.625z" fill="#000" fill-opacity=".7"/><path d="M17.084 15.423l-.719-6.292c-.17-1.5-1.358-2.631-2.762-2.631h-2.766c-1.402 0-2.59 1.131-2.76 2.631l-.718 6.292c-.06.527.102 1.05.445 1.434.296.33.687.523 1.112.547l.598 8.094c.02.283.257.502.54.502h4.333a.54.54 0 00.54-.502l.598-8.094a1.601 1.601 0 001.112-.547c.345-.385.506-.907.447-1.434zm-1.253.712a.54.54 0 01-.396.188h-.413a.542.542 0 00-.54.501l-.598 8.093h-3.326l-.596-8.093a.542.542 0 00-.54-.501H9.01a.542.542 0 01-.397-.188.757.757 0 01-.178-.59l.719-6.291c.108-.952.833-1.67 1.685-1.67h2.766c.851 0 1.576.718 1.686 1.67l.718 6.292a.758.758 0 01-.178.59zM12.22 5.417a2.712 2.712 0 002.709-2.709A2.711 2.711 0 0012.22 0a2.712 2.712 0 00-2.708 2.708 2.712 2.712 0 002.708 2.709zm0-4.334c.896 0 1.625.73 1.625 1.625 0 .896-.729 1.625-1.625 1.625-.895 0-1.625-.729-1.625-1.625s.73-1.625 1.625-1.625z" fill="#000" fill-opacity=".7"/></svg>