<svg width="26" height="26" fill="none" xmlns="http://www.w3.org/2000/svg"><path d="M23.467.977C22.039.347 20.157 0 18.169 0c-1.989 0-3.87.347-5.298.977-1.626.717-2.521 1.747-2.521 2.898v6.565a7.935 7.935 0 00-2.387-.366C3.573 10.074 0 13.646 0 18.037 0 22.427 3.572 26 7.963 26a7.97 7.97 0 007.003-4.175c.998.21 2.093.32 3.203.32 1.989 0 3.87-.346 5.298-.976 1.626-.717 2.521-1.747 2.521-2.899V3.875c0-1.151-.895-2.18-2.521-2.898zm-9.98 1.394c1.238-.547 2.9-.848 4.682-.848 1.782 0 3.445.301 4.683.848.995.439 1.613 1.015 1.613 1.504 0 .49-.618 1.066-1.613 1.505-1.238.547-2.901.848-4.683.848-1.781 0-3.444-.301-4.683-.848-.995-.439-1.613-1.015-1.613-1.505 0-.489.619-1.065 1.613-1.504zM7.962 24.477a6.447 6.447 0 01-6.44-6.44c0-3.55 2.89-6.44 6.44-6.44 3.55 0 6.44 2.89 6.44 6.44 0 3.55-2.89 6.44-6.44 6.44zm14.889-4.702c-1.238.547-2.901.847-4.683.847a14.41 14.41 0 01-2.599-.23 7.919 7.919 0 00.347-2c.724.102 1.477.155 2.252.155 1.989 0 3.87-.347 5.298-.977a6.71 6.71 0 00.998-.538v1.238c0 .49-.618 1.066-1.613 1.505zm0-3.598c-1.238.546-2.901.847-4.683.847-.81 0-1.593-.063-2.333-.185a7.895 7.895 0 00-.658-2.169c.937.182 1.953.278 2.991.278 1.989 0 3.87-.347 5.298-.976a6.62 6.62 0 00.998-.54v1.24c0 .489-.618 1.066-1.613 1.505zm0-3.6c-1.238.547-2.901.848-4.683.848-1.575 0-3.078-.24-4.26-.677a8.018 8.018 0 00-2.036-1.645V9.834c.294.194.627.375.998.539 1.428.63 3.31.977 5.298.977 1.989 0 3.87-.347 5.298-.977a6.71 6.71 0 00.998-.539v1.239c0 .49-.618 1.066-1.613 1.505zm0-3.598c-1.238.546-2.901.847-4.683.847-1.781 0-3.444-.3-4.683-.847-.995-.439-1.613-1.015-1.613-1.505V6.235c.294.195.627.375.998.54 1.428.629 3.31.976 5.298.976 1.989 0 3.87-.347 5.298-.977a6.62 6.62 0 00.998-.539v1.24c0 .489-.618 1.065-1.613 1.504z" fill="#000" fill-opacity=".7"/><path d="M8.98 17.218H7.346a.668.668 0 010-1.335h2.759V14.36h-1.38v-1.028H7.2v1.033a2.193 2.193 0 00-2.045 2.185c0 1.208.982 2.19 2.19 2.19H8.98a.726.726 0 010 1.45H5.46v1.524H7.2v1.028h1.524v-1.028h.255a2.25 2.25 0 002.248-2.248 2.25 2.25 0 00-2.248-2.248z" fill="#000" fill-opacity=".7"/></svg>