<svg width="26" height="26" fill="none" xmlns="http://www.w3.org/2000/svg"><g clip-path="url(#clip0)"><path d="M25.645 23.753h-1.676v-8.686a.572.572 0 00.074-.063l1.626-1.711a1.198 1.198 0 00-.02-1.678 1.232 1.232 0 00-.871-.354h-.056a1.748 1.748 0 00-.815.204 10.955 10.955 0 00-8.72-9.617A1.203 1.203 0 0014.173 0h-.075c-.4.001-.786.139-1.097.39A1.758 1.758 0 0011.902 0h-.056a1.233 1.233 0 00-.872.354 1.198 1.198 0 00-.163 1.495 10.956 10.956 0 00-8.719 9.616 1.748 1.748 0 00-.814-.204h-.056a1.231 1.231 0 00-.872.354 1.198 1.198 0 00-.019 1.678l1.627 1.711a.576.576 0 00.073.063v8.686H.355a.355.355 0 00-.355.355v1.536A.355.355 0 00.355 26h25.29a.357.357 0 00.355-.355v-1.536a.356.356 0 00-.355-.356zm-5.123-5.14a.356.356 0 00-.487.121l-.744 1.242a6.033 6.033 0 00-.857 3.099v.677h-1.008a12.312 12.312 0 015.014-9.554l.765.805a.558.558 0 00.053.046v8.703h-4.113v-.677c0-.963.261-1.908.756-2.734l.743-1.242a.355.355 0 00-.122-.487zm-11.238 5.14a13.027 13.027 0 00-5.227-10.077l.365-.383c.183-.195.296-.445.32-.711a13.69 13.69 0 007.74-8.944l.099.105a.577.577 0 00.838 0l.098-.104a13.69 13.69 0 007.74 8.943c.024.266.137.516.32.71l.366.385a13.026 13.026 0 00-5.227 10.076H9.284zm15.438-11.781h.056a.49.49 0 01.376.831l-1.53 1.61-1.53-1.61a.49.49 0 01.355-.831h.075a1.044 1.044 0 01.818.4l.008.008.01.01a.369.369 0 00.544-.018 1.041 1.041 0 01.818-.4zm-1.537-.579a1.746 1.746 0 00-.491-.123l-.234-.578a17.763 17.763 0 00-1.414-2.769l-.406-.647a.356.356 0 00-.602.378l.406.647c.53.844.983 1.734 1.357 2.658l.164.405a1.2 1.2 0 00-.558.502 12.97 12.97 0 01-7.308-8.84l.53-.557a10.244 10.244 0 018.556 8.924zM11.478.855a.517.517 0 01.367-.144h.057a1.041 1.041 0 01.817.4.368.368 0 00.562 0 1.042 1.042 0 01.817-.4h.075a.49.49 0 01.356.83l-.29.306-.005.005-.785.827-.002.002-.447.47-.447-.471-.79-.83-.293-.309a.49.49 0 01.008-.686zm-.107 1.615l.53.557a12.97 12.97 0 01-7.308 8.839 1.202 1.202 0 00-.559-.502l.164-.406c.374-.924.828-1.813 1.357-2.658l.406-.647a.355.355 0 10-.602-.378l-.406.648a17.757 17.757 0 00-1.414 2.769l-.234.577a1.746 1.746 0 00-.49.124A10.244 10.244 0 0111.37 2.47zM.846 12.802a.49.49 0 01.376-.83h.056a1.042 1.042 0 01.817.4.367.367 0 00.546.017l.008-.008.009-.009a1.041 1.041 0 01.817-.4h.075a.49.49 0 01.356.83l-1.53 1.61-1.53-1.61zm1.896 2.247a.57.57 0 00.054-.045l.764-.806a12.31 12.31 0 015.014 9.554H7.566v-.677a6.033 6.033 0 00-.857-3.1l-.744-1.241a.356.356 0 00-.609.365l.744 1.242c.494.826.756 1.771.755 2.734v.677H2.742V15.05zM25.29 25.29H.711v-.825h24.578v.824z" fill="#000" fill-opacity=".7"/></g><defs><clipPath id="clip0"><path fill="#fff" d="M0 0h26v26H0z"/></clipPath></defs></svg>