<svg width="2023" height="694" viewBox="0 0 2023 694" fill="none" xmlns="http://www.w3.org/2000/svg">
<path d="M193.968 48.2258L192.758 47.3386L193.968 48.2258ZM383.815 142.816L382.336 142.564L383.815 142.816ZM515.407 383.547L515.598 385.034L515.407 383.547ZM678.208 523.5L678.909 522.174L678.208 523.5ZM928.39 562.537L927.237 563.497L928.39 562.537ZM1195.74 504.162L1196.28 502.764L1195.74 504.162ZM1412.63 302.469L1413.66 303.563L1412.63 302.469ZM1581.67 142.816L1583.14 142.495L1581.67 142.816ZM1757.47 142.816L1756.09 142.242L1757.47 142.816ZM1879.71 302.469L1881.07 301.857L1879.71 302.469ZM2019 478.5L2020.45 478.876L2019 478.5ZM1948.5 553.209L1949.55 554.279L1948.5 553.209ZM1676.33 580.735L1674.89 581.15L1676.33 580.735ZM1334.61 580.735L1334.56 579.236L1334.61 580.735ZM977.552 687.608C977.336 688.407 977.808 689.231 978.608 689.448L991.638 692.979C992.437 693.196 993.261 692.723 993.478 691.924C993.694 691.124 993.222 690.3 992.422 690.083L980.84 686.945L983.979 675.362C984.196 674.563 983.723 673.739 982.924 673.522C982.124 673.306 981.3 673.778 981.083 674.578L977.552 687.608ZM1 123.298C0.545755 124.727 0.545824 124.727 0.545897 124.727C0.545925 124.727 0.546 124.727 0.546056 124.727C0.546169 124.727 0.546295 124.727 0.546432 124.727C0.546708 124.728 0.547033 124.728 0.547408 124.728C0.548158 124.728 0.549107 124.728 0.550254 124.729C0.552549 124.729 0.555637 124.73 0.559517 124.732C0.567277 124.734 0.578202 124.737 0.592271 124.742C0.620409 124.751 0.661123 124.763 0.71424 124.779C0.820473 124.812 0.976322 124.858 1.1804 124.918C1.58856 125.037 2.18968 125.206 2.97269 125.412L3.735 122.51C2.97829 122.311 2.40249 122.149 2.01865 122.037C1.82674 121.981 1.68282 121.938 1.58829 121.909C1.54102 121.895 1.50611 121.884 1.48371 121.877C1.47251 121.874 1.46444 121.871 1.45952 121.87C1.45706 121.869 1.45539 121.868 1.45451 121.868C1.45407 121.868 1.45383 121.868 1.45378 121.868C1.45376 121.868 1.45379 121.868 1.45387 121.868C1.4539 121.868 1.45395 121.868 1.45402 121.868C1.45405 121.868 1.45411 121.868 1.45412 121.868C1.45418 121.868 1.45424 121.868 1 123.298ZM7.93948 126.59C9.39357 126.903 11.046 127.233 12.8822 127.561L13.4105 124.608C11.61 124.286 9.99172 123.963 8.5703 123.657L7.93948 126.59ZM17.8758 128.373C19.4575 128.604 21.1335 128.827 22.8979 129.032L23.2447 126.052C21.5108 125.851 19.8642 125.632 18.3109 125.404L17.8758 128.373ZM27.9276 129.545C29.5482 129.686 31.2278 129.811 32.9629 129.914L33.1407 126.919C31.4342 126.818 29.7825 126.695 28.1891 126.556L27.9276 129.545ZM38.0061 130.143C39.6497 130.195 41.3351 130.227 43.0596 130.234L43.0718 127.234C41.3754 127.227 39.7176 127.196 38.101 127.145L38.0061 130.143ZM48.1246 130.184C49.7836 130.145 51.4739 130.083 53.1935 129.995L53.0399 126.999C51.3485 127.085 49.6859 127.147 48.054 127.185L48.1246 130.184ZM58.2075 129.668C59.8592 129.538 61.5347 129.383 63.2322 129.202L62.9131 126.219C61.2437 126.397 59.5959 126.55 57.9714 126.678L58.2075 129.668ZM68.2654 128.591C69.9117 128.368 71.5765 128.119 73.2582 127.843L72.7717 124.883C71.1182 125.155 69.4814 125.399 67.8625 125.619L68.2654 128.591ZM78.2181 126.956C79.8586 126.638 81.5134 126.294 83.1813 125.921L82.527 122.993C80.8875 123.36 79.2607 123.698 77.648 124.01L78.2181 126.956ZM88.0894 124.75C89.7025 124.341 91.3264 123.904 92.9601 123.439L92.1387 120.554C90.5331 121.011 88.937 121.44 87.3515 121.842L88.0894 124.75ZM97.828 121.977C99.4093 121.476 100.999 120.948 102.595 120.392L101.608 117.559C100.039 118.106 98.477 118.625 96.9229 119.116L97.828 121.977ZM107.351 118.657C108.91 118.062 110.475 117.439 112.044 116.788L110.894 114.017C109.352 114.657 107.814 115.269 106.282 115.854L107.351 118.657ZM116.675 114.787C118.204 114.1 119.736 113.384 121.272 112.64L119.963 109.94C118.454 110.672 116.948 111.375 115.445 112.05L116.675 114.787ZM125.764 110.382C127.255 109.606 128.749 108.801 130.244 107.968L128.783 105.348C127.313 106.167 125.845 106.958 124.379 107.721L125.764 110.382ZM134.587 105.465C136.031 104.606 137.476 103.719 138.921 102.803L137.315 100.269C135.894 101.17 134.473 102.042 133.053 102.887L134.587 105.465ZM143.119 100.061C144.513 99.1227 145.906 98.1572 147.298 97.1637L145.556 94.7217C144.186 95.6992 142.815 96.6491 141.444 97.5719L143.119 100.061ZM151.339 94.1983C152.681 93.185 154.023 92.1449 155.362 91.0773L153.492 88.7315C152.173 89.7826 150.853 90.8064 149.532 91.8036L151.339 94.1983ZM159.233 87.9089C160.521 86.8268 161.806 85.7185 163.089 84.5834L161.101 82.3367C159.837 83.4548 158.571 84.5463 157.303 85.6119L159.233 87.9089ZM166.792 81.2239C168.02 80.0822 169.245 78.9153 170.467 77.7227L168.371 75.5763C167.167 76.7519 165.96 77.9019 164.75 79.0268L166.792 81.2239ZM174.016 74.1735C175.182 72.98 176.344 71.7623 177.502 70.52L175.308 68.4742C174.165 69.6996 173.019 70.9005 171.87 72.0773L174.016 74.1735ZM180.906 66.7851C182.008 65.5475 183.107 64.2869 184.201 63.0029L181.918 61.057C180.837 62.3244 179.753 63.5685 178.666 64.7896L180.906 66.7851ZM187.469 59.082C188.508 57.8081 189.542 56.5123 190.573 55.1944L188.209 53.3469C187.191 54.6487 186.17 55.9283 185.144 57.1862L187.469 59.082ZM193.649 51.1739C194.16 50.4926 194.669 49.8057 195.177 49.1131L192.758 47.3386C192.256 48.023 191.753 48.7018 191.249 49.375L193.649 51.1739ZM195.177 49.1131C195.675 48.4341 196.175 47.7636 196.676 47.1015L194.285 45.2906C193.774 45.9648 193.265 46.6475 192.758 47.3386L195.177 49.1131ZM199.702 43.2299C200.717 41.9728 201.737 40.7491 202.763 39.5582L200.49 37.6002C199.443 38.8158 198.402 40.0641 197.368 41.3457L199.702 43.2299ZM206.067 35.8558C207.176 34.6569 208.29 33.495 209.41 32.3695L207.284 30.2534C206.137 31.4053 204.998 32.5935 203.864 33.8188L206.067 35.8558ZM212.922 28.9745C214.126 27.8556 215.336 26.7773 216.551 25.7389L214.602 23.4585C213.355 24.5242 212.114 25.6301 210.88 26.7767L212.922 28.9745ZM220.298 22.6732C221.596 21.6584 222.899 20.6875 224.206 19.7598L222.47 17.3133C221.124 18.2683 219.784 19.2669 218.45 20.3099L220.298 22.6732ZM228.206 17.063C229.592 16.1772 230.982 15.3383 232.375 14.5451L230.891 11.9379C229.453 12.7567 228.019 13.6222 226.59 14.5353L228.206 17.063ZM236.628 12.271C238.092 11.538 239.558 10.8539 241.027 10.2177L239.835 7.46475C238.315 8.12325 236.798 8.83084 235.285 9.58855L236.628 12.271ZM245.511 8.42579C247.039 7.86567 248.568 7.3557 250.099 6.89467L249.234 4.02216C247.647 4.50021 246.061 5.02883 244.479 5.60916L245.511 8.42579ZM254.769 5.63902C256.344 5.26611 257.919 4.9436 259.493 4.67021L258.98 1.71445C257.346 1.99818 255.712 2.33286 254.078 2.71977L254.769 5.63902ZM264.287 3.9878C265.891 3.80936 267.493 3.68068 269.093 3.60044L268.942 0.60421C267.283 0.687467 265.62 0.821001 263.955 1.0062L264.287 3.9878ZM273.934 3.50424C275.547 3.52078 277.157 3.58561 278.762 3.69737L278.971 0.704613C277.307 0.588783 275.638 0.521557 273.965 0.504402L273.934 3.50424ZM283.578 4.17402C285.177 4.37914 286.77 4.63009 288.357 4.92553L288.906 1.97621C287.265 1.67057 285.615 1.41081 283.959 1.1984L283.578 4.17402ZM293.095 5.94364C294.66 6.32489 296.218 6.74889 297.767 7.21431L298.63 4.34124C297.031 3.86081 295.423 3.42287 293.805 3.02887L293.095 5.94364ZM302.377 8.73052C303.895 9.27278 305.402 9.85447 306.9 10.4743L308.047 7.70242C306.505 7.06404 304.951 6.46458 303.386 5.90546L302.377 8.73052ZM311.34 12.4384C312.801 13.1263 314.25 13.8503 315.687 14.6092L317.088 11.9565C315.612 11.1766 314.121 10.432 312.618 9.72429L311.34 12.4384ZM319.929 16.9722C321.325 17.7906 322.708 18.6419 324.077 19.5247L325.703 17.0039C324.299 16.0981 322.88 15.2244 321.446 14.3841L319.929 16.9722ZM328.101 22.2416C329.425 23.1756 330.734 24.1393 332.027 25.1315L333.854 22.7515C332.529 21.7351 331.188 20.7476 329.831 19.7901L328.101 22.2416ZM335.824 28.1651C337.07 29.2012 338.3 30.2639 339.512 31.352L341.516 29.1199C340.276 28.0065 339.018 26.9188 337.742 25.8582L335.824 28.1651ZM343.072 34.6712C344.237 35.7985 345.384 36.9496 346.512 38.1234L348.675 36.0451C347.522 34.8451 346.35 33.6681 345.158 32.5152L343.072 34.6712ZM349.823 41.6978C350.904 42.9071 351.965 44.1377 353.005 45.3882L355.312 43.4699C354.249 42.1921 353.165 40.9346 352.06 39.6987L349.823 41.6978ZM356.056 49.1911C357.049 50.4746 358.021 51.7768 358.97 53.0965L361.406 51.3448C360.436 49.9967 359.443 48.6664 358.429 47.3552L356.056 49.1911ZM361.748 57.104C362.649 58.4547 363.527 59.8217 364.382 61.204L366.934 59.6267C366.061 58.2147 365.164 56.8182 364.243 55.4385L361.748 57.104ZM366.871 65.3945C367.677 66.8059 368.457 68.2314 369.211 69.6699L371.868 68.2763C371.097 66.8064 370.3 65.3498 369.477 63.9078L366.871 65.3945ZM371.397 74.0242C372.101 75.4898 372.777 76.9672 373.426 78.4554L376.176 77.2564C375.513 75.7349 374.821 74.2245 374.102 72.7264L371.397 74.0242ZM375.29 82.955C375.885 84.4678 376.45 85.9902 376.986 87.5211L379.818 86.5296C379.269 84.963 378.69 83.4054 378.082 81.858L375.29 82.955ZM378.508 92.1463C378.985 93.6989 379.433 95.2588 379.848 96.8249L382.748 96.0554C382.322 94.4511 381.864 92.8535 381.375 91.2639L378.508 92.1463ZM381.002 101.553C381.355 103.137 381.676 104.727 381.962 106.32L384.915 105.788C384.621 104.154 384.292 102.525 383.93 100.901L381.002 101.553ZM382.723 111.125C382.942 112.731 383.127 114.34 383.276 115.95L386.263 115.674C386.11 114.02 385.92 112.368 385.695 110.719L382.723 111.125ZM383.615 120.8C383.692 122.418 383.732 124.036 383.735 125.654L386.735 125.649C386.732 123.985 386.691 122.321 386.612 120.658L383.615 120.8ZM383.628 130.508C383.554 132.124 383.441 133.737 383.289 135.348L386.276 135.63C386.432 133.971 386.548 132.309 386.625 130.645L383.628 130.508ZM382.714 140.165C382.598 140.966 382.472 141.766 382.336 142.564L385.293 143.068C385.434 142.245 385.564 141.42 385.683 140.594L382.714 140.165ZM382.336 142.564C382.201 143.358 382.064 144.156 381.926 144.96L384.882 145.469C385.021 144.664 385.158 143.864 385.293 143.068L382.336 142.564ZM381.078 149.846C380.798 151.451 380.513 153.074 380.225 154.715L383.18 155.234C383.468 153.593 383.753 151.968 384.033 150.362L381.078 149.846ZM379.365 159.61C379.082 161.218 378.798 162.841 378.512 164.478L381.467 164.994C381.753 163.358 382.037 161.736 382.32 160.129L379.365 159.61ZM377.66 169.375C377.381 170.989 377.102 172.615 376.823 174.252L379.78 174.755C380.059 173.121 380.337 171.498 380.616 169.886L377.66 169.375ZM375.997 179.15C375.726 180.771 375.457 182.401 375.191 184.041L378.152 184.523C378.418 182.888 378.686 181.261 378.956 179.644L375.997 179.15ZM374.405 188.941C374.147 190.569 373.893 192.205 373.643 193.848L376.608 194.3C376.858 192.663 377.111 191.032 377.368 189.409L374.405 188.941ZM372.909 198.753C372.67 200.388 372.435 202.029 372.205 203.674L375.177 204.089C375.405 202.45 375.639 200.816 375.878 199.187L372.909 198.753ZM371.537 208.588C371.321 210.229 371.109 211.874 370.905 213.522L373.882 213.892C374.086 212.252 374.296 210.615 374.512 208.982L371.537 208.588ZM370.315 218.449C370.125 220.094 369.943 221.742 369.768 223.391L372.751 223.707C372.925 222.067 373.106 220.429 373.295 218.793L370.315 218.449ZM369.27 228.334C369.112 229.983 368.963 231.633 368.823 233.284L371.812 233.537C371.951 231.898 372.099 230.259 372.256 228.62L369.27 228.334ZM368.432 238.243C368.311 239.897 368.2 241.551 368.1 243.203L371.095 243.384C371.194 241.744 371.304 240.103 371.424 238.462L368.432 238.243ZM367.834 248.173C367.756 249.833 367.69 251.49 367.636 253.145L370.635 253.242C370.688 251.602 370.753 249.959 370.83 248.314L367.834 248.173ZM367.513 258.119C367.485 259.784 367.47 261.446 367.47 263.103L370.47 263.103C370.47 261.464 370.485 259.819 370.513 258.17L367.513 258.119ZM367.512 268.075C367.542 269.745 367.586 271.409 367.647 273.067L370.645 272.957C370.585 271.318 370.541 269.673 370.512 268.022L367.512 268.075ZM367.88 278.03C367.976 279.702 368.09 281.367 368.222 283.024L371.213 282.785C371.082 281.151 370.97 279.509 370.876 277.858L367.88 278.03ZM368.675 287.969C368.848 289.64 369.041 291.301 369.255 292.952L372.23 292.566C372.02 290.941 371.829 289.306 371.659 287.66L368.675 287.969ZM369.962 297.873C370.224 299.534 370.51 301.184 370.818 302.821L373.766 302.265C373.463 300.658 373.183 299.038 372.925 297.405L369.962 297.873ZM371.819 307.698C372.184 309.342 372.574 310.973 372.992 312.587L375.896 311.836C375.488 310.256 375.105 308.66 374.747 307.048L371.819 307.698ZM374.329 317.39C374.811 319.006 375.323 320.605 375.865 322.185L378.702 321.212C378.174 319.671 377.675 318.11 377.203 316.531L374.329 317.39ZM377.584 326.876C378.199 328.447 378.846 329.997 379.527 331.526L382.267 330.306C381.606 328.82 380.976 327.312 380.378 325.783L377.584 326.876ZM381.675 336.054C382.434 337.557 383.229 339.037 384.06 340.492L386.665 339.004C385.86 337.595 385.089 336.16 384.353 334.702L381.675 336.054ZM386.671 344.788C387.583 346.199 388.533 347.584 389.523 348.941L391.947 347.173C390.991 345.863 390.073 344.525 389.191 343.16L386.671 344.788ZM392.608 352.921C393.673 354.215 394.78 355.481 395.927 356.716L398.125 354.674C397.018 353.483 395.952 352.263 394.924 351.014L392.608 352.921ZM399.465 360.299C400.677 361.453 401.93 362.576 403.225 363.668L405.158 361.374C403.91 360.322 402.702 359.239 401.535 358.127L399.465 360.299ZM407.164 366.79C408.503 367.788 409.883 368.754 411.305 369.688L412.952 367.18C411.579 366.279 410.248 365.346 408.956 364.384L407.164 366.79ZM415.573 372.318C417.014 373.151 418.494 373.953 420.015 374.724L421.37 372.047C419.899 371.302 418.467 370.526 417.074 369.721L415.573 372.318ZM424.54 376.869C426.054 377.539 427.603 378.179 429.19 378.789L430.267 375.989C428.726 375.396 427.222 374.775 425.755 374.125L424.54 376.869ZM433.923 380.482C435.479 380.998 437.068 381.487 438.69 381.948L439.51 379.062C437.928 378.613 436.381 378.137 434.867 377.635L433.923 380.482ZM443.609 383.234C445.181 383.611 446.783 383.963 448.415 384.29L449.004 381.349C447.408 381.029 445.843 380.685 444.308 380.317L443.609 383.234ZM453.402 385.195C455.01 385.457 456.646 385.696 458.31 385.911L458.695 382.936C457.063 382.725 455.46 382.491 453.884 382.234L453.402 385.195ZM463.251 386.473C464.925 386.637 466.626 386.779 468.354 386.897L468.559 383.904C466.86 383.788 465.188 383.649 463.544 383.487L463.251 386.473ZM473.21 387.166C474.851 387.235 476.515 387.284 478.203 387.313L478.254 384.314C476.591 384.285 474.952 384.237 473.337 384.168L473.21 387.166ZM483.304 387.339C484.902 387.328 486.521 387.299 488.16 387.253L488.075 384.254C486.457 384.3 484.86 384.328 483.284 384.339L483.304 387.339ZM493.14 387.061C494.821 386.978 496.523 386.878 498.246 386.76L498.041 383.767C496.337 383.884 494.655 383.983 492.994 384.064L493.14 387.061ZM503.088 386.384C504.71 386.244 506.35 386.088 508.009 385.916L507.7 382.932C506.058 383.102 504.434 383.256 502.829 383.395L503.088 386.384ZM513.041 385.352C513.888 385.25 514.741 385.144 515.598 385.034L515.216 382.059C514.367 382.168 513.523 382.273 512.683 382.374L513.041 385.352ZM515.598 385.034C516.478 384.922 517.351 384.812 518.217 384.706L517.851 381.728C516.979 381.835 516.101 381.945 515.216 382.059L515.598 385.034ZM523.338 384.105C525.019 383.917 526.674 383.742 528.305 383.58L528.007 380.594C526.364 380.758 524.697 380.935 523.005 381.123L523.338 384.105ZM533.218 383.12C534.975 382.966 536.701 382.828 538.397 382.705L538.179 379.713C536.468 379.837 534.728 379.977 532.957 380.131L533.218 383.12ZM543.394 382.379C545.069 382.283 546.712 382.201 548.325 382.135L548.202 379.138C546.572 379.205 544.912 379.287 543.222 379.384L543.394 382.379ZM553.497 381.972C555.185 381.935 556.837 381.915 558.455 381.912L558.45 378.912C556.811 378.915 555.138 378.935 553.431 378.972L553.497 381.972ZM563.5 381.961C565.23 381.998 566.918 382.056 568.564 382.134L568.706 379.138C567.033 379.058 565.32 378.999 563.565 378.962L563.5 381.961ZM573.463 382.436C575.216 382.569 576.919 382.727 578.572 382.91L578.901 379.928C577.213 379.742 575.477 379.58 573.69 379.444L573.463 382.436ZM583.398 383.531C585.143 383.789 586.829 384.076 588.456 384.392L589.027 381.447C587.354 381.122 585.625 380.827 583.836 380.563L583.398 383.531ZM593.235 385.439C594.926 385.855 596.547 386.305 598.101 386.787L598.989 383.921C597.376 383.421 595.698 382.955 593.951 382.526L593.235 385.439ZM602.771 388.407C604.346 389.016 605.842 389.662 607.264 390.344L608.561 387.638C607.065 386.922 605.497 386.244 603.853 385.609L602.771 388.407ZM611.652 392.694C613.099 393.559 614.456 394.467 615.73 395.415L617.522 393.009C616.164 391.998 614.722 391.034 613.19 390.119L611.652 392.694ZM619.478 398.533C620.69 399.661 621.814 400.835 622.856 402.053L625.135 400.101C624.02 398.799 622.818 397.543 621.521 396.337L619.478 398.533ZM625.833 405.953C626.753 407.31 627.596 408.711 628.37 410.153L631.014 408.734C630.193 407.205 629.297 405.715 628.315 404.269L625.833 405.953ZM630.492 414.595C631.131 416.101 631.711 417.645 632.24 419.223L635.084 418.269C634.533 416.625 633.926 415.008 633.254 413.424L630.492 414.595ZM633.664 423.989C634.088 425.584 634.472 427.206 634.823 428.854L637.757 428.229C637.397 426.539 637.002 424.867 636.563 423.218L633.664 423.989ZM635.767 433.77C636.051 435.405 636.312 437.06 636.555 438.731L639.524 438.297C639.277 436.605 639.012 434.924 638.723 433.257L635.767 433.77ZM637.237 443.728C637.451 445.392 637.655 447.067 637.857 448.751L640.836 448.393C640.633 446.705 640.428 445.021 640.212 443.346L637.237 443.728ZM638.46 453.787C638.661 455.462 638.868 457.144 639.085 458.827L642.06 458.443C641.845 456.772 641.64 455.1 641.438 453.428L638.46 453.787ZM639.776 463.875C640.021 465.558 640.284 467.24 640.572 468.919L643.529 468.413C643.246 466.762 642.987 465.104 642.744 463.442L639.776 463.875ZM641.515 473.947C641.86 475.623 642.235 477.293 642.649 478.953L645.56 478.227C645.157 476.611 644.791 474.983 644.454 473.343L641.515 473.947ZM644.017 483.911C644.516 485.554 645.06 487.183 645.658 488.797L648.471 487.756C647.896 486.202 647.37 484.629 646.887 483.039L644.017 483.911ZM647.612 493.582C648.317 495.15 649.08 496.699 649.909 498.224L652.545 496.792C651.754 495.336 651.024 493.855 650.348 492.353L647.612 493.582ZM652.559 502.67C653.495 504.103 654.497 505.51 655.574 506.889L657.939 505.043C656.915 503.732 655.961 502.393 655.071 501.03L652.559 502.67ZM658.954 510.857C660.108 512.099 661.331 513.313 662.628 514.497L664.65 512.28C663.414 511.153 662.25 509.997 661.153 508.816L658.954 510.857ZM666.575 517.817C667.919 518.861 669.331 519.876 670.815 520.861L672.473 518.361C671.05 517.417 669.699 516.445 668.415 515.448L666.575 517.817ZM675.178 523.547C675.937 523.98 676.714 524.407 677.507 524.826L678.909 522.174C678.144 521.77 677.396 521.359 676.665 520.941L675.178 523.547ZM677.507 524.826C678.263 525.226 679.018 525.614 679.774 525.992L681.115 523.308C680.38 522.941 679.645 522.563 678.909 522.174L677.507 524.826ZM684.304 528.128C685.854 528.815 687.403 529.458 688.95 530.059L690.036 527.262C688.532 526.678 687.027 526.053 685.521 525.385L684.304 528.128ZM693.646 531.754C695.255 532.292 696.862 532.786 698.469 533.238L699.282 530.35C697.721 529.911 696.16 529.431 694.597 528.909L693.646 531.754ZM703.318 534.48C704.96 534.859 706.6 535.197 708.239 535.496L708.778 532.545C707.184 532.254 705.589 531.926 703.993 531.557L703.318 534.48ZM713.194 536.284C714.854 536.51 716.512 536.698 718.168 536.851L718.444 533.863C716.829 533.714 715.214 533.531 713.598 533.311L713.194 536.284ZM723.173 537.208C724.842 537.293 726.509 537.345 728.175 537.366L728.212 534.366C726.584 534.346 724.955 534.295 723.325 534.212L723.173 537.208ZM733.179 537.338C734.846 537.3 736.51 537.233 738.173 537.14L738.006 534.145C736.375 534.236 734.742 534.301 733.109 534.339L733.179 537.338ZM743.156 536.788C744.813 536.646 746.468 536.482 748.121 536.297L747.787 533.315C746.159 533.498 744.53 533.659 742.901 533.799L743.156 536.788ZM753.068 535.683C754.714 535.46 756.357 535.219 757.998 534.963L757.536 531.999C755.913 532.252 754.289 532.49 752.665 532.71L753.068 535.683ZM762.907 534.152C764.54 533.869 766.171 533.573 767.801 533.266L767.246 530.318C765.629 530.622 764.012 530.916 762.394 531.196L762.907 534.152ZM772.677 532.32C774.3 531.997 775.921 531.666 777.541 531.329L776.93 528.392C775.318 528.727 773.704 529.057 772.09 529.378L772.677 532.32ZM782.392 530.308C784.009 529.963 785.625 529.616 787.238 529.269L786.607 526.336C784.994 526.683 783.381 527.03 781.767 527.373L782.392 530.308ZM792.077 528.23C793.691 527.884 795.303 527.541 796.914 527.203L796.297 524.267C794.682 524.606 793.065 524.95 791.449 525.296L792.077 528.23ZM801.755 526.202C803.37 525.875 804.983 525.555 806.594 525.245L806.027 522.299C804.405 522.611 802.782 522.933 801.159 523.262L801.755 526.202ZM811.445 524.345C813.066 524.055 814.685 523.779 816.302 523.518L815.824 520.556C814.189 520.82 812.553 521.099 810.918 521.391L811.445 524.345ZM821.162 522.782C822.791 522.552 824.418 522.341 826.042 522.151L825.694 519.171C824.044 519.364 822.394 519.578 820.743 519.811L821.162 522.782ZM830.924 521.645C832.556 521.499 834.186 521.377 835.814 521.281L835.638 518.286C833.978 518.384 832.317 518.508 830.657 518.657L830.924 521.645ZM840.71 521.077C842.342 521.038 843.972 521.029 845.601 521.051L845.643 518.052C843.975 518.028 842.306 518.038 840.638 518.078L840.71 521.077ZM850.486 521.22C852.109 521.311 853.731 521.436 855.35 521.6L855.651 518.615C853.986 518.447 852.319 518.318 850.653 518.225L850.486 521.22ZM860.195 522.204C861.795 522.443 863.394 522.722 864.991 523.043L865.582 520.102C863.935 519.771 862.286 519.484 860.638 519.237L860.195 522.204ZM869.735 524.126C871.303 524.527 872.87 524.971 874.436 525.462L875.333 522.599C873.715 522.092 872.097 521.633 870.478 521.219L869.735 524.126ZM879.018 527.033C880.527 527.596 882.035 528.204 883.542 528.86L884.739 526.109C883.182 525.432 881.625 524.804 880.066 524.222L879.018 527.033ZM887.952 530.917C889.383 531.63 890.814 532.389 892.244 533.195L893.717 530.581C892.242 529.75 890.767 528.968 889.29 528.232L887.952 530.917ZM896.457 535.707C897.801 536.554 899.145 537.444 900.49 538.38L902.203 535.918C900.822 534.956 899.439 534.04 898.056 533.169L896.457 535.707ZM904.481 541.294C905.737 542.254 906.993 543.255 908.25 544.299L910.167 541.991C908.88 540.922 907.592 539.895 906.302 538.91L904.481 541.294ZM912.003 547.545C913.177 548.601 914.351 549.696 915.526 550.83L917.61 548.673C916.411 547.514 915.21 546.395 914.009 545.315L912.003 547.545ZM919.033 554.337C920.137 555.478 921.241 556.656 922.344 557.87L924.564 555.852C923.44 554.615 922.315 553.415 921.189 552.251L919.033 554.337ZM925.606 561.567C926.15 562.201 926.693 562.844 927.237 563.497L929.542 561.578C928.99 560.914 928.437 560.26 927.884 559.615L925.606 561.567ZM927.237 563.497C927.82 564.198 928.402 564.882 928.982 565.552L931.249 563.587C930.682 562.933 930.113 562.263 929.542 561.578L927.237 563.497ZM932.448 569.386C933.647 570.656 934.84 571.86 936.029 573.001L938.107 570.838C936.955 569.732 935.796 568.562 934.629 567.326L932.448 569.386ZM939.89 576.504C941.235 577.652 942.574 578.721 943.909 579.712L945.698 577.304C944.42 576.355 943.134 575.329 941.838 574.222L939.89 576.504ZM948.189 582.639C949.717 583.594 951.24 584.45 952.758 585.21L954.101 582.527C952.671 581.812 951.231 581.003 949.779 580.095L948.189 582.639ZM957.499 587.281C959.185 587.911 960.865 588.426 962.541 588.83L963.245 585.914C961.689 585.538 960.124 585.059 958.548 584.471L957.499 587.281ZM967.725 589.74C969.479 589.933 971.226 590.011 972.967 589.98L972.914 586.981C971.298 587.009 969.678 586.937 968.054 586.758L967.725 589.74ZM978.211 589.567C979.927 589.329 981.636 588.992 983.339 588.564L982.609 585.655C981.004 586.057 979.401 586.373 977.798 586.596L978.211 589.567ZM988.318 587.061C989.934 586.492 991.547 585.848 993.158 585.135L991.944 582.392C990.399 583.075 988.859 583.69 987.322 584.231L988.318 587.061ZM997.821 582.884C999.316 582.104 1000.81 581.271 1002.31 580.388L1000.78 577.804C999.327 578.663 997.878 579.471 996.434 580.224L997.821 582.884ZM1006.7 577.663C1008.11 576.747 1009.53 575.792 1010.94 574.801L1009.22 572.342C1007.83 573.315 1006.45 574.251 1005.07 575.147L1006.7 577.663ZM1015.09 571.812C1016.45 570.804 1017.82 569.767 1019.19 568.706L1017.35 566.334C1016 567.384 1014.65 568.407 1013.31 569.401L1015.09 571.812ZM1023.17 565.565C1024.5 564.505 1025.82 563.426 1027.16 562.331L1025.25 560.013C1023.93 561.102 1022.61 562.173 1021.3 563.223L1023.17 565.565ZM1031.06 559.096C1032.35 558.012 1033.66 556.916 1034.96 555.81L1033.03 553.519C1031.72 554.622 1030.42 555.715 1029.13 556.795L1031.06 559.096ZM1038.83 552.53C1040.12 551.438 1041.41 550.341 1042.71 549.237L1040.77 546.95C1039.47 548.053 1038.18 549.153 1036.89 550.243L1038.83 552.53ZM1046.58 545.962C1047.87 544.876 1049.17 543.788 1050.47 542.701L1048.55 540.396C1047.24 541.488 1045.94 542.579 1044.65 543.668L1046.58 545.962ZM1054.38 539.471C1055.68 538.403 1056.99 537.338 1058.31 536.277L1056.43 533.938C1055.11 535.006 1053.79 536.078 1052.48 537.151L1054.38 539.471ZM1062.28 533.132C1063.6 532.094 1064.94 531.063 1066.28 530.041L1064.47 527.652C1063.11 528.683 1061.77 529.723 1060.43 530.769L1062.28 533.132ZM1070.33 527.017C1071.69 526.022 1073.06 525.039 1074.44 524.069L1072.71 521.616C1071.32 522.597 1069.93 523.592 1068.56 524.598L1070.33 527.017ZM1078.59 521.207C1079.99 520.269 1081.4 519.346 1082.81 518.442L1081.2 515.913C1079.76 516.831 1078.33 517.766 1076.92 518.717L1078.59 521.207ZM1087.1 515.785C1088.54 514.919 1089.99 514.073 1091.45 513.249L1089.98 510.635C1088.49 511.474 1087.01 512.335 1085.55 513.215L1087.1 515.785ZM1095.87 510.845C1097.35 510.068 1098.85 509.315 1100.36 508.588L1099.06 505.885C1097.52 506.627 1095.99 507.396 1094.48 508.188L1095.87 510.845ZM1104.93 506.488C1106.46 505.817 1108 505.174 1109.56 504.56L1108.46 501.769C1106.87 502.396 1105.29 503.054 1103.72 503.74L1104.93 506.488ZM1114.27 502.815C1115.84 502.268 1117.43 501.751 1119.04 501.268L1118.17 498.395C1116.53 498.891 1114.9 499.421 1113.28 499.982L1114.27 502.815ZM1123.87 499.927C1125.48 499.517 1127.11 499.141 1128.75 498.802L1128.14 495.864C1126.45 496.213 1124.78 496.598 1123.13 497.019L1123.87 499.927ZM1133.67 497.904C1135.31 497.643 1136.97 497.42 1138.64 497.235L1138.31 494.253C1136.59 494.443 1134.89 494.673 1133.2 494.941L1133.67 497.904ZM1143.61 496.802C1145.27 496.697 1146.95 496.631 1148.64 496.604L1148.59 493.604C1146.85 493.632 1145.13 493.7 1143.42 493.808L1143.61 496.802ZM1153.61 496.641C1155.28 496.692 1156.97 496.783 1158.67 496.914L1158.9 493.923C1157.15 493.788 1155.42 493.695 1153.7 493.643L1153.61 496.641ZM1163.59 497.403C1165.24 497.604 1166.9 497.843 1168.58 498.122L1169.07 495.162C1167.35 494.876 1165.64 494.631 1163.95 494.425L1163.59 497.403ZM1173.48 499.041C1175.1 499.378 1176.72 499.751 1178.36 500.162L1179.09 497.252C1177.41 496.831 1175.75 496.449 1174.1 496.104L1173.48 499.041ZM1183.27 501.495C1184.83 501.95 1186.4 502.439 1187.98 502.963L1188.93 500.115C1187.31 499.58 1185.71 499.081 1184.11 498.615L1183.27 501.495ZM1192.77 504.641C1193.57 504.938 1194.38 505.244 1195.19 505.56L1196.28 502.764C1195.45 502.443 1194.63 502.13 1193.81 501.827L1192.77 504.641ZM1195.19 505.56C1196.01 505.88 1196.83 506.192 1197.65 506.497L1198.7 503.687C1197.9 503.387 1197.09 503.08 1196.28 502.764L1195.19 505.56ZM1202.47 508.228C1204.05 508.774 1205.62 509.289 1207.17 509.773L1208.07 506.909C1206.54 506.434 1205 505.928 1203.44 505.391L1202.47 508.228ZM1212.13 511.234C1213.78 511.692 1215.41 512.113 1217.02 512.499L1217.72 509.582C1216.14 509.204 1214.55 508.791 1212.93 508.343L1212.13 511.234ZM1221.96 513.588C1223.66 513.929 1225.35 514.23 1227 514.49L1227.47 511.526C1225.85 511.273 1224.21 510.98 1222.55 510.646L1221.96 513.588ZM1231.98 515.157C1233.72 515.35 1235.44 515.496 1237.12 515.598L1237.3 512.603C1235.67 512.505 1234 512.363 1232.31 512.175L1231.98 515.157ZM1242.15 515.766C1243.91 515.778 1245.63 515.738 1247.32 515.649L1247.16 512.653C1245.53 512.739 1243.87 512.777 1242.17 512.766L1242.15 515.766ZM1252.38 515.226C1254.11 515.026 1255.8 514.773 1257.47 514.467L1256.93 511.516C1255.33 511.81 1253.7 512.053 1252.03 512.245L1252.38 515.226ZM1262.46 513.373C1264.13 512.945 1265.77 512.463 1267.38 511.927L1266.43 509.081C1264.89 509.594 1263.32 510.056 1261.72 510.466L1262.46 513.373ZM1272.19 510.134C1273.77 509.478 1275.32 508.768 1276.84 508.008L1275.5 505.324C1274.04 506.054 1272.56 506.734 1271.04 507.362L1272.19 510.134ZM1281.35 505.558C1282.82 504.692 1284.26 503.777 1285.67 502.816L1283.98 500.336C1282.62 501.262 1281.24 502.141 1279.83 502.973L1281.35 505.558ZM1289.81 499.807C1291.15 498.769 1292.46 497.689 1293.75 496.566L1291.78 494.303C1290.53 495.39 1289.26 496.434 1287.97 497.436L1289.81 499.807ZM1297.52 493.105C1298.73 491.937 1299.91 490.731 1301.08 489.49L1298.9 487.435C1297.76 488.642 1296.61 489.814 1295.43 490.949L1297.52 493.105ZM1304.5 485.688C1305.6 484.421 1306.67 483.124 1307.73 481.797L1305.39 479.926C1304.35 481.224 1303.3 482.492 1302.23 483.729L1304.5 485.688ZM1310.84 477.759C1311.84 476.417 1312.82 475.048 1313.79 473.655L1311.33 471.94C1310.37 473.309 1309.41 474.653 1308.43 475.97L1310.84 477.759ZM1316.63 469.449C1317.55 468.051 1318.46 466.632 1319.36 465.192L1316.81 463.605C1315.93 465.026 1315.03 466.425 1314.13 467.802L1316.63 469.449ZM1321.99 460.865C1322.84 459.428 1323.69 457.972 1324.53 456.5L1321.92 455.016C1321.09 456.473 1320.25 457.912 1319.41 459.333L1321.99 460.865ZM1326.99 452.085C1327.79 450.62 1328.59 449.14 1329.38 447.646L1326.73 446.242C1325.94 447.724 1325.15 449.192 1324.36 450.644L1326.99 452.085ZM1331.72 443.167C1332.48 441.682 1333.24 440.186 1334 438.679L1331.31 437.334C1330.56 438.833 1329.81 440.32 1329.05 441.795L1331.72 443.167ZM1336.24 434.153C1336.97 432.656 1337.71 431.149 1338.44 429.634L1335.73 428.332C1335.01 429.841 1334.28 431.341 1333.55 432.832L1336.24 434.153ZM1340.62 425.078C1341.33 423.572 1342.05 422.06 1342.76 420.541L1340.04 419.265C1339.33 420.78 1338.62 422.289 1337.91 423.79L1340.62 425.078ZM1344.9 415.969C1345.61 414.459 1346.31 412.944 1347.02 411.425L1344.3 410.16C1343.59 411.678 1342.89 413.192 1342.18 414.7L1344.9 415.969ZM1349.14 406.857C1349.84 405.343 1350.55 403.826 1351.25 402.306L1348.53 401.04C1347.83 402.561 1347.12 404.079 1346.42 405.594L1349.14 406.857ZM1353.38 397.752C1354.09 396.237 1354.8 394.722 1355.51 393.207L1352.8 391.926C1352.08 393.445 1351.37 394.963 1350.66 396.48L1353.38 397.752ZM1357.67 388.672C1358.39 387.163 1359.11 385.654 1359.84 384.147L1357.14 382.84C1356.41 384.352 1355.68 385.866 1354.96 387.38L1357.67 388.672ZM1362.04 379.64C1362.78 378.139 1363.52 376.642 1364.27 375.148L1361.59 373.802C1360.84 375.304 1360.09 376.808 1359.35 378.315L1362.04 379.64ZM1366.54 370.676C1367.3 369.19 1368.07 367.708 1368.85 366.231L1366.19 364.835C1365.41 366.321 1364.64 367.812 1363.87 369.307L1366.54 370.676ZM1371.2 361.807C1372 360.338 1372.8 358.875 1373.61 357.419L1370.99 355.96C1370.17 357.427 1369.36 358.902 1368.57 360.381L1371.2 361.807ZM1376.08 353.06C1376.91 351.612 1377.75 350.172 1378.6 348.741L1376.02 347.207C1375.16 348.651 1374.31 350.104 1373.48 351.565L1376.08 353.06ZM1381.19 344.465C1382.07 343.044 1382.96 341.633 1383.86 340.233L1381.34 338.611C1380.43 340.027 1379.53 341.453 1378.64 342.889L1381.19 344.465ZM1386.6 336.06C1387.53 334.673 1388.47 333.297 1389.43 331.935L1386.97 330.213C1386 331.593 1385.05 332.986 1384.11 334.39L1386.6 336.06ZM1392.33 327.886C1393.32 326.541 1394.32 325.21 1395.34 323.893L1392.96 322.06C1391.93 323.396 1390.91 324.746 1389.91 326.11L1392.33 327.886ZM1398.43 319.989C1399.48 318.697 1400.55 317.421 1401.63 316.162L1399.36 314.206C1398.26 315.486 1397.17 316.783 1396.1 318.096L1398.43 319.989ZM1404.93 312.432C1406.05 311.203 1407.19 309.992 1408.34 308.801L1406.18 306.715C1405.01 307.928 1403.85 309.161 1402.71 310.412L1404.93 312.432ZM1411.86 305.279C1412.45 304.702 1413.05 304.13 1413.66 303.563L1411.6 301.375C1410.99 301.953 1410.38 302.537 1409.77 303.125L1411.86 305.279ZM1413.66 303.563C1414.25 303.005 1414.85 302.458 1415.46 301.921L1413.47 299.674C1412.84 300.23 1412.22 300.797 1411.6 301.375L1413.66 303.563ZM1419.17 298.823C1420.44 297.819 1421.74 296.855 1423.05 295.929L1421.33 293.475C1419.97 294.431 1418.63 295.428 1417.31 296.467L1419.17 298.823ZM1427.08 293.253C1428.46 292.393 1429.85 291.569 1431.26 290.779L1429.79 288.161C1428.34 288.974 1426.91 289.824 1425.49 290.711L1427.08 293.253ZM1435.55 288.509C1437 287.784 1438.46 287.092 1439.94 286.429L1438.72 283.69C1437.2 284.37 1435.7 285.081 1434.21 285.826L1435.55 288.509ZM1444.42 284.53C1445.93 283.926 1447.45 283.348 1448.98 282.796L1447.96 279.974C1446.4 280.538 1444.84 281.128 1443.3 281.746L1444.42 284.53ZM1453.59 281.217C1455.14 280.715 1456.69 280.235 1458.26 279.775L1457.41 276.897C1455.82 277.365 1454.24 277.853 1452.66 278.364L1453.59 281.217ZM1462.97 278.457C1464.54 278.037 1466.12 277.635 1467.71 277.248L1467 274.333C1465.39 274.725 1463.79 275.133 1462.19 275.559L1462.97 278.457ZM1472.48 276.131C1474.07 275.773 1475.67 275.429 1477.27 275.095L1476.66 272.158C1475.04 272.495 1473.43 272.843 1471.82 273.204L1472.48 276.131ZM1482.08 274.122C1483.69 273.807 1485.3 273.5 1486.91 273.2L1486.36 270.251C1484.74 270.553 1483.12 270.861 1481.51 271.178L1482.08 274.122ZM1491.75 272.313C1493.36 272.021 1494.98 271.734 1496.59 271.449L1496.06 268.495C1494.45 268.78 1492.84 269.068 1491.22 269.361L1491.75 272.313ZM1501.45 270.588C1503.07 270.3 1504.69 270.011 1506.3 269.72L1505.76 266.768C1504.16 267.058 1502.54 267.346 1500.92 267.634L1501.45 270.588ZM1511.16 268.825C1512.78 268.519 1514.4 268.207 1516.01 267.887L1515.43 264.945C1513.83 265.262 1512.22 265.572 1510.6 265.877L1511.16 268.825ZM1520.84 266.892C1522.47 266.544 1524.09 266.183 1525.7 265.808L1525.02 262.887C1523.43 263.257 1521.83 263.613 1520.22 263.959L1520.84 266.892ZM1530.51 264.626C1532.13 264.209 1533.72 263.774 1535.3 263.317L1534.46 260.436C1532.92 260.883 1531.35 261.311 1529.76 261.721L1530.51 264.626ZM1540.07 261.847C1541.66 261.325 1543.23 260.777 1544.77 260.199L1543.72 257.39C1542.22 257.952 1540.69 258.486 1539.13 258.996L1540.07 261.847ZM1549.4 258.338C1550.95 257.669 1552.47 256.964 1553.95 256.219L1552.61 253.537C1551.18 254.255 1549.71 254.936 1548.21 255.583L1549.4 258.338ZM1558.37 253.828C1559.82 252.977 1561.23 252.08 1562.61 251.131L1560.9 248.662C1559.59 249.566 1558.24 250.424 1556.85 251.24L1558.37 253.828ZM1566.64 248.097C1567.94 247.033 1569.2 245.913 1570.41 244.733L1568.31 242.587C1567.17 243.704 1565.98 244.765 1564.74 245.775L1566.64 248.097ZM1573.86 241.035C1574.95 239.761 1575.98 238.427 1576.96 237.028L1574.51 235.303C1573.58 236.626 1572.6 237.887 1571.58 239.09L1573.86 241.035ZM1579.67 232.786C1580.49 231.351 1581.27 229.855 1582 228.297L1579.28 227.029C1578.59 228.51 1577.85 229.929 1577.07 231.289L1579.67 232.786ZM1583.95 223.634C1584.52 222.112 1585.04 220.536 1585.52 218.905L1582.64 218.059C1582.18 219.624 1581.68 221.132 1581.14 222.585L1583.95 223.634ZM1586.8 213.968C1587.15 212.405 1587.46 210.796 1587.73 209.138L1584.77 208.65C1584.51 210.253 1584.21 211.807 1583.87 213.313L1586.8 213.968ZM1588.43 204.12C1588.6 202.529 1588.75 200.898 1588.86 199.224L1585.87 199.023C1585.76 200.653 1585.62 202.24 1585.44 203.785L1588.43 204.12ZM1589.1 194.154C1589.14 192.566 1589.15 190.943 1589.14 189.283L1586.14 189.309C1586.15 190.935 1586.14 192.524 1586.1 194.075L1589.1 194.154ZM1589.01 184.194C1588.94 182.611 1588.85 180.996 1588.74 179.35L1585.75 179.558C1585.86 181.177 1585.95 182.764 1586.01 184.318L1589.01 184.194ZM1588.33 174.378C1588.17 172.749 1587.99 171.091 1587.79 169.403L1584.81 169.76C1585.01 171.425 1585.19 173.06 1585.34 174.664L1588.33 174.378ZM1587.16 164.582C1586.93 162.948 1586.68 161.287 1586.41 159.598L1583.45 160.075C1583.72 161.745 1583.96 163.386 1584.19 165L1587.16 164.582ZM1585.58 154.74C1585.3 153.166 1585 151.569 1584.68 149.948L1581.74 150.524C1582.05 152.129 1582.35 153.711 1582.63 155.269L1585.58 154.74ZM1583.68 145.015C1583.5 144.181 1583.32 143.341 1583.14 142.495L1580.21 143.137C1580.39 143.976 1580.57 144.809 1580.74 145.636L1583.68 145.015ZM1583.14 142.495C1582.95 141.641 1582.77 140.794 1582.6 139.953L1579.66 140.554C1579.83 141.408 1580.02 142.27 1580.21 143.137L1583.14 142.495ZM1581.66 134.986C1581.37 133.356 1581.12 131.753 1580.89 130.175L1577.92 130.6C1578.15 132.209 1578.41 133.842 1578.7 135.501L1581.66 134.986ZM1580.27 125.264C1580.09 123.564 1579.94 121.897 1579.82 120.261L1576.83 120.472C1576.95 122.146 1577.1 123.852 1577.29 125.588L1580.27 125.264ZM1579.58 115.447C1579.53 113.735 1579.51 112.06 1579.54 110.421L1576.54 110.375C1576.51 112.061 1576.53 113.782 1576.58 115.538L1579.58 115.447ZM1579.73 105.508C1579.84 103.849 1579.99 102.23 1580.18 100.651L1577.2 100.294C1577 101.928 1576.85 103.601 1576.74 105.314L1579.73 105.508ZM1580.92 95.7388C1581.21 94.1231 1581.55 92.5532 1581.94 91.0284L1579.03 90.298C1578.63 91.8879 1578.27 93.5218 1577.97 95.2002L1580.92 95.7388ZM1583.32 86.2581C1583.83 84.7028 1584.4 83.1997 1585.01 81.7476L1582.24 80.5856C1581.6 82.1109 1581.01 83.6871 1580.47 85.3149L1583.32 86.2581ZM1587.11 77.29C1587.87 75.8406 1588.68 74.4487 1589.54 73.1129L1587.02 71.4886C1586.11 72.8997 1585.25 74.3684 1584.45 75.8958L1587.11 77.29ZM1592.37 69.1368C1593.38 67.8532 1594.43 66.6296 1595.54 65.4647L1593.36 63.3996C1592.19 64.6324 1591.07 65.9272 1590.01 67.2851L1592.37 69.1368ZM1599.05 62.0996C1600.27 61.0316 1601.54 60.0227 1602.85 59.0715L1601.09 56.6418C1599.71 57.6454 1598.37 58.7111 1597.07 59.8402L1599.05 62.0996ZM1606.93 56.3864C1608.31 55.5561 1609.74 54.7813 1611.21 54.0607L1609.88 51.3689C1608.35 52.1248 1606.85 52.9387 1605.39 53.8124L1606.93 56.3864ZM1615.68 52.0718C1617.18 51.4704 1618.72 50.92 1620.29 50.4196L1619.37 47.5618C1617.74 48.0833 1616.14 48.6576 1614.57 49.2862L1615.68 52.0718ZM1625.01 49.0832C1626.59 48.6907 1628.19 48.3444 1629.82 48.0436L1629.28 45.0935C1627.59 45.4051 1625.92 45.764 1624.28 46.1717L1625.01 49.0832ZM1634.67 47.2884C1636.3 47.0815 1637.94 46.9165 1639.6 46.7924L1639.37 43.8008C1637.67 43.9286 1635.97 44.0988 1634.29 44.3125L1634.67 47.2884ZM1644.51 46.5454C1646.15 46.5019 1647.81 46.4963 1649.47 46.5279L1649.53 43.5284C1647.82 43.496 1646.12 43.5017 1644.43 43.5464L1644.51 46.5454ZM1654.39 46.7264C1656.03 46.8273 1657.69 46.9628 1659.34 47.1319L1659.65 44.1474C1657.95 43.9743 1656.26 43.8355 1654.57 43.732L1654.39 46.7264ZM1664.24 47.7272C1665.87 47.9573 1667.51 48.219 1669.15 48.5114L1669.67 45.5582C1668 45.2594 1666.33 44.9918 1664.66 44.7565L1664.24 47.7272ZM1674 49.4674C1675.61 49.8152 1677.22 50.1922 1678.83 50.5974L1679.57 47.6883C1677.92 47.2747 1676.28 46.8899 1674.63 46.5347L1674 49.4674ZM1683.61 51.8885C1685.2 52.3459 1686.78 52.8304 1688.36 53.3411L1689.28 50.4876C1687.68 49.9666 1686.07 49.4724 1684.45 49.0057L1683.61 51.8885ZM1693.05 54.9503C1694.61 55.5123 1696.15 56.0996 1697.68 56.7116L1698.8 53.9254C1697.23 53.3012 1695.66 52.7021 1694.07 52.1289L1693.05 54.9503ZM1702.26 58.6292C1703.78 59.2934 1705.28 59.9815 1706.77 60.6928L1708.06 57.9873C1706.55 57.2614 1705.02 56.5592 1703.47 55.8816L1702.26 58.6292ZM1711.21 62.9162C1712.67 63.6825 1714.12 64.4716 1715.55 65.2826L1717.03 62.6744C1715.57 61.8457 1714.09 61.0397 1712.6 60.2572L1711.21 62.9162ZM1719.82 67.8161C1721.23 68.6864 1722.61 69.5785 1723.97 70.4913L1725.64 68.0022C1724.26 67.0675 1722.84 66.1546 1721.4 65.2645L1719.82 67.8161ZM1728.03 73.3461C1729.37 74.324 1730.67 75.3225 1731.94 76.3407L1733.82 74.0002C1732.51 72.9545 1731.18 71.9299 1729.81 70.9273L1728.03 73.3461ZM1735.74 79.5348C1736.98 80.6243 1738.18 81.7335 1739.34 82.8612L1741.43 80.7108C1740.23 79.5476 1739 78.405 1737.72 77.2838L1735.74 79.5348ZM1742.8 86.4167C1743.92 87.6292 1744.99 88.8604 1746.01 90.1088L1748.33 88.2081C1747.27 86.9127 1746.16 85.6373 1745.01 84.3832L1742.8 86.4167ZM1749.01 94.0223C1749.97 95.3643 1750.88 96.7236 1751.72 98.0987L1754.28 96.5308C1753.4 95.0926 1752.45 93.674 1751.45 92.2763L1749.01 94.0223ZM1754.11 102.356C1754.86 103.822 1755.54 105.304 1756.14 106.8L1758.92 105.673C1758.28 104.094 1757.57 102.534 1756.78 100.993L1754.11 102.356ZM1757.75 111.371C1758.22 112.932 1758.61 114.506 1758.91 116.092L1761.86 115.526C1761.53 113.838 1761.12 112.165 1760.62 110.51L1757.75 111.371ZM1759.57 120.88C1759.7 122.486 1759.75 124.102 1759.7 125.729L1762.7 125.81C1762.75 124.073 1762.7 122.346 1762.56 120.631L1759.57 120.88ZM1759.31 130.522C1759.09 132.104 1758.79 133.694 1758.39 135.292L1761.3 136.016C1761.72 134.315 1762.05 132.619 1762.28 130.93L1759.31 130.522ZM1756.99 139.916C1756.71 140.69 1756.41 141.465 1756.09 142.242L1758.86 143.391C1759.2 142.569 1759.52 141.748 1759.81 140.928L1756.99 139.916ZM1756.09 142.242C1755.75 143.059 1755.43 143.869 1755.11 144.672L1757.91 145.758C1758.21 144.977 1758.53 144.187 1758.86 143.391L1756.09 142.242ZM1753.4 149.408C1752.84 151.074 1752.35 152.709 1751.91 154.314L1754.8 155.106C1755.22 153.556 1755.71 151.974 1756.25 150.359L1753.4 149.408ZM1750.73 159.219C1750.37 160.935 1750.08 162.616 1749.87 164.263L1752.84 164.658C1753.05 163.085 1753.32 161.476 1753.66 159.828L1750.73 159.219ZM1749.39 169.384C1749.31 171.13 1749.3 172.836 1749.37 174.505L1752.36 174.382C1752.3 172.807 1752.31 171.192 1752.39 169.534L1749.39 169.384ZM1749.82 179.61C1750.07 181.338 1750.39 183.022 1750.8 184.666L1753.71 183.941C1753.33 182.399 1753.02 180.817 1752.79 179.193L1749.82 179.61ZM1752.32 189.605C1752.91 191.227 1753.58 192.806 1754.33 194.345L1757.03 193.032C1756.32 191.582 1755.69 190.098 1755.13 188.576L1752.32 189.605ZM1756.8 198.849C1757.69 200.301 1758.65 201.717 1759.67 203.099L1762.08 201.316C1761.11 200 1760.2 198.657 1759.36 197.283L1756.8 198.849ZM1762.87 207.092C1763.97 208.37 1765.13 209.619 1766.34 210.844L1768.47 208.738C1767.31 207.557 1766.2 206.356 1765.14 205.132L1762.87 207.092ZM1770.01 214.361C1771.24 215.484 1772.52 216.587 1773.83 217.672L1775.74 215.36C1774.46 214.302 1773.22 213.229 1772.02 212.14L1770.01 214.361ZM1777.79 220.817C1779.12 221.83 1780.48 222.831 1781.86 223.82L1783.61 221.379C1782.25 220.407 1780.92 219.425 1779.62 218.432L1777.79 220.817ZM1786.01 226.702C1787.39 227.632 1788.78 228.555 1790.2 229.471L1791.83 226.953C1790.43 226.046 1789.05 225.135 1787.69 224.217L1786.01 226.702ZM1794.44 232.168C1795.85 233.052 1797.28 233.932 1798.72 234.81L1800.28 232.249C1798.85 231.376 1797.43 230.502 1796.03 229.625L1794.44 232.168ZM1803.01 237.402C1804.43 238.257 1805.87 239.111 1807.3 239.967L1808.84 237.388C1807.4 236.534 1805.97 235.681 1804.55 234.829L1803.01 237.402ZM1811.61 242.524C1813.04 243.373 1814.47 244.225 1815.91 245.082L1817.45 242.506C1816.01 241.648 1814.57 240.794 1813.14 239.944L1811.61 242.524ZM1820.19 247.653C1821.61 248.514 1823.03 249.381 1824.44 250.256L1826.02 247.704C1824.6 246.823 1823.17 245.952 1821.74 245.087L1820.19 247.653ZM1828.67 252.9C1830.07 253.79 1831.47 254.689 1832.86 255.599L1834.5 253.091C1833.1 252.172 1831.69 251.264 1830.28 250.367L1828.67 252.9ZM1836.99 258.366C1838.36 259.302 1839.72 260.249 1841.06 261.211L1842.81 258.771C1841.45 257.796 1840.07 256.836 1838.68 255.889L1836.99 258.366ZM1845.07 264.152C1846.39 265.151 1847.69 266.166 1848.98 267.197L1850.86 264.857C1849.55 263.806 1848.22 262.774 1846.87 261.758L1845.07 264.152ZM1852.79 270.356C1854.04 271.434 1855.28 272.531 1856.48 273.648L1858.52 271.446C1857.29 270.302 1856.03 269.18 1854.74 268.079L1852.79 270.356ZM1860.04 277.077C1861.2 278.245 1862.34 279.435 1863.44 280.65L1865.66 278.634C1864.53 277.384 1863.36 276.161 1862.17 274.961L1860.04 277.077ZM1866.66 284.38C1867.7 285.648 1868.7 286.943 1869.67 288.265L1872.09 286.49C1871.09 285.123 1870.05 283.786 1868.98 282.477L1866.66 284.38ZM1872.47 292.307C1873.36 293.679 1874.21 295.079 1875.02 296.51L1877.63 295.033C1876.79 293.548 1875.9 292.096 1874.98 290.675L1872.47 292.307ZM1877.29 300.844C1877.65 301.582 1878 302.327 1878.34 303.081L1881.07 301.857C1880.72 301.074 1880.36 300.299 1879.99 299.533L1877.29 300.844ZM1878.34 303.081C1878.68 303.857 1879.04 304.631 1879.42 305.402L1882.12 304.084C1881.75 303.343 1881.41 302.601 1881.07 301.857L1878.34 303.081ZM1881.84 309.968C1882.68 311.445 1883.57 312.913 1884.51 314.374L1887.03 312.749C1886.12 311.332 1885.26 309.91 1884.44 308.483L1881.84 309.968ZM1887.39 318.607C1888.37 319.982 1889.39 321.351 1890.45 322.712L1892.82 320.869C1891.78 319.538 1890.79 318.203 1889.83 316.863L1887.39 318.607ZM1893.68 326.704C1894.77 327.995 1895.88 329.281 1897.03 330.562L1899.26 328.563C1898.14 327.304 1897.04 326.042 1895.98 324.776L1893.68 326.704ZM1900.48 334.314C1901.64 335.543 1902.82 336.768 1904.03 337.99L1906.16 335.879C1904.97 334.674 1903.8 333.466 1902.66 332.255L1900.48 334.314ZM1907.65 341.571C1908.86 342.743 1910.09 343.911 1911.33 345.077L1913.38 342.887C1912.15 341.732 1910.93 340.576 1909.74 339.417L1907.65 341.571ZM1915.08 348.533C1916.33 349.664 1917.59 350.793 1918.86 351.919L1920.85 349.672C1919.59 348.553 1918.34 347.433 1917.1 346.312L1915.08 348.533ZM1922.69 355.263C1923.97 356.368 1925.26 357.472 1926.55 358.573L1928.5 356.286C1927.2 355.19 1925.92 354.093 1924.65 352.994L1922.69 355.263ZM1930.43 361.838C1931.72 362.921 1933.03 364.003 1934.33 365.083L1936.25 362.771C1934.94 361.694 1933.64 360.615 1932.35 359.536L1930.43 361.838ZM1938.25 368.305C1939.56 369.375 1940.86 370.444 1942.18 371.512L1944.07 369.187C1942.76 368.12 1941.45 367.052 1940.15 365.985L1938.25 368.305ZM1946.11 374.711C1947.42 375.776 1948.73 376.841 1950.04 377.906L1951.93 375.578C1950.62 374.513 1949.31 373.448 1948 372.383L1946.11 374.711ZM1953.96 381.103C1955.27 382.171 1956.58 383.239 1957.88 384.307L1959.78 381.989C1958.48 380.918 1957.17 379.849 1955.86 378.779L1953.96 381.103ZM1961.78 387.529C1963.08 388.607 1964.37 389.685 1965.66 390.764L1967.59 388.467C1966.3 387.384 1965 386.301 1963.7 385.22L1961.78 387.529ZM1969.52 394.033C1970.81 395.132 1972.08 396.231 1973.34 397.332L1975.32 395.07C1974.04 393.962 1972.76 392.856 1971.47 391.751L1969.52 394.033ZM1977.12 400.66C1978.39 401.79 1979.64 402.921 1980.87 404.054L1982.9 401.844C1981.66 400.701 1980.39 399.56 1979.12 398.421L1977.12 400.66ZM1984.56 407.49C1985.78 408.653 1986.99 409.817 1988.17 410.983L1990.27 408.847C1989.08 407.667 1987.86 406.489 1986.62 405.314L1984.56 407.49ZM1991.72 414.567C1992.9 415.782 1994.05 416.999 1995.17 418.218L1997.38 416.187C1996.24 414.948 1995.07 413.712 1993.88 412.48L1991.72 414.567ZM1998.5 421.947C1999.61 423.232 2000.69 424.519 2001.73 425.809L2004.06 423.927C2003 422.608 2001.9 421.294 2000.77 419.984L1998.5 421.947ZM2004.79 429.77C2005.79 431.123 2006.75 432.48 2007.66 433.84L2010.15 432.171C2009.21 430.769 2008.23 429.374 2007.2 427.985L2004.79 429.77ZM2010.31 438.044C2011.17 439.494 2011.98 440.948 2012.72 442.406L2015.39 441.043C2014.62 439.525 2013.79 438.015 2012.9 436.514L2010.31 438.044ZM2014.81 446.899C2015.46 448.433 2016.04 449.973 2016.54 451.519L2019.39 450.588C2018.86 448.96 2018.26 447.342 2017.58 445.735L2014.81 446.899ZM2017.85 456.257C2018.22 457.861 2018.5 459.472 2018.69 461.091L2021.67 460.728C2021.46 459.005 2021.16 457.294 2020.78 455.595L2017.85 456.257ZM2019.03 465.982C2019.05 467.601 2018.99 469.229 2018.83 470.868L2021.82 471.152C2021.98 469.404 2022.05 467.666 2022.03 465.94L2019.03 465.982ZM2018.11 475.702C2017.94 476.506 2017.76 477.314 2017.55 478.124L2020.45 478.876C2020.67 478.015 2020.87 477.157 2021.05 476.302L2018.11 475.702ZM2017.55 478.124C2017.34 478.912 2017.14 479.684 2016.92 480.441L2019.81 481.249C2020.03 480.473 2020.24 479.682 2020.45 478.876L2017.55 478.124ZM2015.55 484.959C2015.05 486.501 2014.52 487.975 2013.98 489.386L2016.78 490.467C2017.34 489.005 2017.88 487.483 2018.41 485.895L2015.55 484.959ZM2012.15 493.742C2011.48 495.213 2010.78 496.608 2010.06 497.938L2012.7 499.368C2013.45 497.977 2014.18 496.52 2014.88 494.989L2012.15 493.742ZM2007.67 501.967C2006.81 503.308 2005.92 504.576 2004.99 505.784L2007.37 507.608C2008.35 506.337 2009.29 505.002 2010.2 503.594L2007.67 501.967ZM2002 509.378C2000.94 510.545 1999.85 511.657 1998.73 512.727L2000.8 514.9C2001.97 513.782 2003.11 512.616 2004.22 511.389L2002 509.378ZM1995.22 515.849C1994.02 516.851 1992.79 517.823 1991.52 518.779L1993.32 521.175C1994.63 520.193 1995.9 519.19 1997.14 518.152L1995.22 515.849ZM1987.68 521.563C1986.4 522.461 1985.09 523.356 1983.75 524.259L1985.42 526.748C1986.77 525.838 1988.1 524.932 1989.4 524.019L1987.68 521.563ZM1979.76 526.914C1978.46 527.78 1977.12 528.665 1975.77 529.575L1977.44 532.066C1978.79 531.161 1980.11 530.281 1981.42 529.413L1979.76 526.914ZM1971.78 532.282C1970.49 533.175 1969.17 534.098 1967.84 535.059L1969.59 537.494C1970.9 536.547 1972.2 535.635 1973.48 534.751L1971.78 532.282ZM1963.95 537.923C1962.69 538.876 1961.42 539.865 1960.12 540.897L1962 543.24C1963.27 542.226 1964.52 541.253 1965.76 540.316L1963.95 537.923ZM1956.39 543.974C1955.19 544.992 1953.98 546.05 1952.75 547.152L1954.76 549.382C1955.96 548.3 1957.15 547.261 1958.33 546.262L1956.39 543.974ZM1949.2 550.44C1948.62 550.996 1948.04 551.562 1947.45 552.139L1949.55 554.279C1950.13 553.712 1950.7 553.156 1951.27 552.61L1949.2 550.44ZM1947.45 552.139C1946.89 552.685 1946.31 553.204 1945.71 553.697L1947.6 556.023C1948.28 555.472 1948.93 554.891 1949.55 554.279L1947.45 552.139ZM1941.8 556.341C1940.46 557.091 1939.03 557.752 1937.52 558.328L1938.59 561.132C1940.23 560.507 1941.79 559.785 1943.26 558.96L1941.8 556.341ZM1932.97 559.746C1931.43 560.131 1929.82 560.447 1928.15 560.698L1928.6 563.665C1930.36 563.401 1932.06 563.067 1933.7 562.656L1932.97 559.746ZM1923.42 561.222C1921.82 561.341 1920.18 561.41 1918.49 561.432L1918.53 564.432C1920.27 564.409 1921.98 564.338 1923.64 564.214L1923.42 561.222ZM1913.64 561.371C1912.02 561.312 1910.37 561.216 1908.69 561.085L1908.46 564.076C1910.18 564.21 1911.87 564.308 1913.53 564.369L1913.64 561.371ZM1903.83 560.621C1902.21 560.439 1900.56 560.228 1898.89 559.991L1898.47 562.961C1900.17 563.202 1901.84 563.417 1903.5 563.602L1903.83 560.621ZM1894.06 559.245C1892.43 558.973 1890.78 558.679 1889.11 558.363L1888.56 561.311C1890.25 561.63 1891.92 561.929 1893.57 562.204L1894.06 559.245ZM1884.34 557.416C1882.73 557.082 1881.11 556.731 1879.47 556.364L1878.81 559.291C1880.47 559.662 1882.11 560.016 1883.73 560.353L1884.34 557.416ZM1874.65 555.249C1873.07 554.87 1871.46 554.478 1869.85 554.073L1869.12 556.983C1870.74 557.39 1872.36 557.786 1873.96 558.167L1874.65 555.249ZM1865 552.828C1863.43 552.415 1861.85 551.992 1860.25 551.559L1859.47 554.454C1861.07 554.889 1862.66 555.314 1864.24 555.73L1865 552.828ZM1855.45 550.233C1853.87 549.789 1852.28 549.336 1850.68 548.876L1849.85 551.759C1851.45 552.221 1853.05 552.675 1854.64 553.122L1855.45 550.233ZM1845.92 547.494C1844.33 547.027 1842.74 546.554 1841.13 546.075L1840.28 548.949C1841.88 549.429 1843.48 549.904 1845.08 550.372L1845.92 547.494ZM1836.39 544.647C1834.81 544.168 1833.23 543.684 1831.64 543.197L1830.76 546.065C1832.35 546.553 1833.94 547.037 1835.52 547.518L1836.39 544.647ZM1826.88 541.729C1825.3 541.241 1823.72 540.751 1822.14 540.258L1821.25 543.123C1822.83 543.616 1824.41 544.107 1825.99 544.595L1826.88 541.729ZM1817.39 538.778C1815.81 538.284 1814.22 537.789 1812.64 537.294L1811.74 540.157C1813.33 540.652 1814.91 541.147 1816.5 541.642L1817.39 538.778ZM1807.89 535.81C1806.31 535.316 1804.72 534.823 1803.14 534.332L1802.25 537.197C1803.83 537.688 1805.41 538.18 1807 538.674L1807.89 535.81ZM1798.38 532.857C1796.79 532.366 1795.2 531.878 1793.62 531.394L1792.74 534.263C1794.32 534.746 1795.91 535.233 1797.5 535.723L1798.38 532.857ZM1788.88 529.952C1787.28 529.468 1785.68 528.988 1784.08 528.513L1783.22 531.389C1784.82 531.862 1786.41 532.341 1788.01 532.824L1788.88 529.952ZM1779.31 527.107C1777.71 526.64 1776.12 526.18 1774.53 525.728L1773.71 528.613C1775.29 529.063 1776.88 529.522 1778.47 529.987L1779.31 527.107ZM1769.71 524.369C1768.11 523.925 1766.51 523.489 1764.93 523.064L1764.15 525.961C1765.73 526.384 1767.31 526.818 1768.9 527.26L1769.71 524.369ZM1760.08 521.785C1758.45 521.365 1756.84 520.957 1755.24 520.562L1754.52 523.475C1756.11 523.867 1757.71 524.272 1759.33 524.689L1760.08 521.785ZM1750.42 519.405C1748.76 519.019 1747.12 518.649 1745.49 518.295L1744.85 521.226C1746.47 521.577 1748.09 521.944 1749.74 522.327L1750.42 519.405ZM1740.66 517.285C1738.98 516.95 1737.32 516.635 1735.68 516.341L1735.15 519.294C1736.77 519.584 1738.41 519.895 1740.07 520.227L1740.66 517.285ZM1730.77 515.519C1729.09 515.257 1727.42 515.02 1725.79 514.811L1725.41 517.787C1727.02 517.992 1728.65 518.225 1730.31 518.483L1730.77 515.519ZM1720.8 514.255C1719.1 514.093 1717.42 513.965 1715.78 513.874L1715.61 516.869C1717.22 516.958 1718.85 517.083 1720.52 517.242L1720.8 514.255ZM1710.75 513.707C1709.02 513.692 1707.32 513.724 1705.67 513.805L1705.82 516.802C1707.41 516.723 1709.04 516.693 1710.72 516.707L1710.75 513.707ZM1700.66 514.225C1698.91 514.438 1697.2 514.72 1695.56 515.075L1696.2 518.007C1697.74 517.673 1699.35 517.407 1701.02 517.203L1700.66 514.225ZM1690.65 516.424C1688.98 516.993 1687.38 517.66 1685.87 518.433L1687.24 521.104C1688.61 520.403 1690.07 519.791 1691.62 519.264L1690.65 516.424ZM1681.44 521.204C1680.05 522.258 1678.76 523.434 1677.6 524.74L1679.84 526.738C1680.87 525.58 1682.01 524.535 1683.25 523.596L1681.44 521.204ZM1674.48 529.017C1673.63 530.454 1672.89 532 1672.26 533.656L1675.07 534.722C1675.64 533.217 1676.3 531.826 1677.06 530.543L1674.48 529.017ZM1670.79 538.592C1670.42 540.22 1670.15 541.934 1669.96 543.738L1672.94 544.053C1673.12 542.356 1673.38 540.756 1673.72 539.25L1670.79 538.592ZM1669.66 548.707C1669.63 550.371 1669.67 552.103 1669.77 553.903L1672.77 553.732C1672.67 552.001 1672.63 550.343 1672.66 548.758L1669.66 548.707ZM1670.2 558.818C1670.38 560.438 1670.61 562.108 1670.9 563.83L1673.86 563.345C1673.58 561.668 1673.36 560.045 1673.18 558.476L1670.2 558.818ZM1671.83 568.86C1672.15 570.402 1672.5 571.982 1672.89 573.6L1675.81 572.898C1675.43 571.31 1675.08 569.762 1674.77 568.254L1671.83 568.86ZM1674.17 578.574C1674.4 579.423 1674.64 580.281 1674.89 581.15L1677.78 580.32C1677.53 579.464 1677.29 578.619 1677.07 577.784L1674.17 578.574ZM1674.89 581.15C1675.14 582.008 1675.38 582.856 1675.61 583.694L1678.5 582.904C1678.27 582.052 1678.03 581.191 1677.78 580.32L1674.89 581.15ZM1676.87 588.608C1677.26 590.208 1677.61 591.769 1677.93 593.292L1680.87 592.681C1680.54 591.125 1680.18 589.532 1679.79 587.903L1676.87 588.608ZM1678.86 598.234C1679.14 599.919 1679.38 601.553 1679.57 603.137L1682.55 602.78C1682.35 601.147 1682.11 599.468 1681.82 597.74L1678.86 598.234ZM1680.01 607.918C1680.13 609.658 1680.18 611.33 1680.17 612.935L1683.17 612.948C1683.18 611.269 1683.12 609.528 1683.01 607.723L1680.01 607.918ZM1679.96 617.677C1679.82 619.395 1679.59 621.024 1679.29 622.569L1682.24 623.141C1682.56 621.485 1682.8 619.75 1682.95 617.934L1679.96 617.677ZM1678.1 627.177C1677.58 628.736 1676.97 630.19 1676.28 631.545L1678.94 632.916C1679.71 631.417 1680.38 629.819 1680.94 628.12L1678.1 627.177ZM1673.74 635.563C1672.79 636.815 1671.73 637.962 1670.57 639.008L1672.58 641.235C1673.87 640.067 1675.06 638.785 1676.13 637.385L1673.74 635.563ZM1666.76 641.874C1665.46 642.691 1664.06 643.422 1662.58 644.071L1663.78 646.821C1665.39 646.117 1666.92 645.317 1668.36 644.416L1666.76 641.874ZM1658.06 645.711C1656.54 646.163 1654.95 646.548 1653.28 646.867L1653.85 649.813C1655.6 649.477 1657.29 649.069 1658.91 648.587L1658.06 645.711ZM1648.53 647.584C1646.92 647.765 1645.26 647.896 1643.54 647.978L1643.68 650.975C1645.46 650.89 1647.19 650.754 1648.86 650.565L1648.53 647.584ZM1638.71 648.082C1637.07 648.077 1635.39 648.034 1633.67 647.954L1633.53 650.951C1635.29 651.033 1637.01 651.077 1638.7 651.082L1638.71 648.082ZM1628.82 647.641C1627.18 647.506 1625.49 647.342 1623.78 647.149L1623.45 650.13C1625.19 650.326 1626.9 650.494 1628.58 650.631L1628.82 647.641ZM1618.95 646.54C1617.32 646.314 1615.67 646.066 1613.99 645.795L1613.51 648.757C1615.21 649.031 1616.88 649.283 1618.54 649.511L1618.95 646.54ZM1609.09 644.956C1607.49 644.666 1605.86 644.357 1604.22 644.031L1603.64 646.974C1605.29 647.303 1606.94 647.615 1608.56 647.908L1609.09 644.956ZM1599.25 643.006C1597.67 642.668 1596.07 642.316 1594.46 641.949L1593.8 644.875C1595.42 645.244 1597.03 645.599 1598.62 645.94L1599.25 643.006ZM1589.58 640.81C1587.97 640.425 1586.35 640.027 1584.71 639.617L1583.98 642.527C1585.63 642.939 1587.26 643.34 1588.88 643.728L1589.58 640.81ZM1579.91 638.395C1578.3 637.977 1576.68 637.549 1575.05 637.111L1574.27 640.008C1575.91 640.448 1577.54 640.879 1579.16 641.299L1579.91 638.395ZM1570.23 635.8C1568.64 635.363 1567.04 634.918 1565.44 634.465L1564.62 637.352C1566.24 637.807 1567.84 638.254 1569.43 638.693L1570.23 635.8ZM1560.6 633.083C1559.01 632.625 1557.41 632.16 1555.8 631.689L1554.96 634.568C1556.57 635.04 1558.17 635.507 1559.77 635.966L1560.6 633.083ZM1551.03 630.277C1549.43 629.801 1547.82 629.319 1546.21 628.832L1545.34 631.704C1546.96 632.192 1548.57 632.675 1550.17 633.152L1551.03 630.277ZM1541.42 627.379C1539.84 626.896 1538.25 626.408 1536.66 625.917L1535.78 628.784C1537.37 629.276 1538.96 629.764 1540.55 630.248L1541.42 627.379ZM1531.86 624.433C1530.27 623.939 1528.68 623.442 1527.08 622.941L1526.18 625.805C1527.78 626.305 1529.38 626.803 1530.97 627.298L1531.86 624.433ZM1522.32 621.451C1520.73 620.952 1519.13 620.451 1517.53 619.947L1516.63 622.809C1518.23 623.312 1519.83 623.814 1521.42 624.314L1522.32 621.451ZM1512.74 618.437C1511.16 617.938 1509.57 617.437 1507.98 616.935L1507.08 619.796C1508.67 620.298 1510.26 620.798 1511.84 621.298L1512.74 618.437ZM1503.21 615.428C1501.61 614.924 1500.02 614.421 1498.42 613.917L1497.52 616.779C1499.11 617.282 1500.71 617.786 1502.31 618.289L1503.21 615.428ZM1493.65 612.418C1492.06 611.918 1490.46 611.419 1488.87 610.921L1487.97 613.784C1489.57 614.282 1491.16 614.781 1492.75 615.28L1493.65 612.418ZM1484.08 609.429C1482.49 608.933 1480.89 608.438 1479.29 607.945L1478.41 610.812C1480 611.304 1481.6 611.798 1483.19 612.293L1484.08 609.429ZM1474.51 606.473C1472.91 605.983 1471.31 605.496 1469.71 605.012L1468.84 607.883C1470.44 608.366 1472.03 608.853 1473.63 609.341L1474.51 606.473ZM1464.91 603.563C1463.31 603.082 1461.71 602.604 1460.1 602.129L1459.25 605.005C1460.85 605.479 1462.45 605.956 1464.05 606.437L1464.91 603.563ZM1455.3 600.714C1453.7 600.245 1452.09 599.78 1450.49 599.319L1449.66 602.202C1451.26 602.662 1452.86 603.125 1454.46 603.593L1455.3 600.714ZM1445.65 597.938C1444.04 597.482 1442.43 597.03 1440.83 596.584L1440.02 599.475C1441.63 599.92 1443.23 600.37 1444.84 600.824L1445.65 597.938ZM1436.01 595.261C1434.39 594.819 1432.76 594.383 1431.14 593.953L1430.37 596.853C1431.99 597.281 1433.6 597.716 1435.22 598.156L1436.01 595.261ZM1426.28 592.68C1424.67 592.262 1423.06 591.85 1421.45 591.446L1420.72 594.355C1422.32 594.758 1423.92 595.168 1425.53 595.584L1426.28 592.68ZM1416.56 590.237C1414.92 589.838 1413.29 589.448 1411.66 589.066L1410.98 591.987C1412.6 592.367 1414.22 592.755 1415.85 593.151L1416.56 590.237ZM1406.79 587.946C1405.15 587.575 1403.51 587.214 1401.88 586.862L1401.25 589.794C1402.87 590.144 1404.5 590.504 1406.13 590.872L1406.79 587.946ZM1396.95 585.824C1395.31 585.488 1393.67 585.162 1392.05 584.848L1391.48 587.793C1393.09 588.106 1394.71 588.429 1396.34 588.763L1396.95 585.824ZM1387.1 583.922C1385.43 583.62 1383.77 583.33 1382.12 583.054L1381.63 586.013C1383.26 586.287 1384.91 586.574 1386.57 586.874L1387.1 583.922ZM1377.19 582.263C1375.52 582.007 1373.85 581.764 1372.2 581.537L1371.79 584.509C1373.43 584.734 1375.08 584.974 1376.74 585.228L1377.19 582.263ZM1367.18 580.89C1365.52 580.69 1363.87 580.505 1362.23 580.338L1361.93 583.322C1363.55 583.488 1365.18 583.67 1366.83 583.868L1367.18 580.89ZM1357.18 579.871C1355.49 579.732 1353.81 579.612 1352.14 579.512L1351.96 582.506C1353.6 582.605 1355.26 582.724 1356.93 582.861L1357.18 579.871ZM1347.17 579.27C1345.45 579.207 1343.74 579.167 1342.05 579.15L1342.02 582.15C1343.69 582.166 1345.37 582.206 1347.06 582.268L1347.17 579.27ZM1337.03 579.171C1336.2 579.186 1335.38 579.208 1334.56 579.236L1334.66 582.234C1335.47 582.207 1336.28 582.185 1337.09 582.17L1337.03 579.171ZM1334.56 579.236C1333.71 579.265 1332.87 579.295 1332.02 579.328L1332.14 582.326C1332.98 582.293 1333.82 582.263 1334.66 582.234L1334.56 579.236ZM1326.95 579.551C1325.26 579.633 1323.57 579.724 1321.88 579.823L1322.06 582.818C1323.74 582.719 1325.42 582.629 1327.1 582.547L1326.95 579.551ZM1316.82 580.143C1315.13 580.257 1313.44 580.38 1311.75 580.51L1311.99 583.501C1313.66 583.372 1315.34 583.25 1317.02 583.136L1316.82 580.143ZM1306.7 580.924C1305.01 581.069 1303.33 581.222 1301.65 581.383L1301.93 584.369C1303.6 584.21 1305.28 584.057 1306.95 583.913L1306.7 580.924ZM1296.59 581.887C1294.91 582.062 1293.23 582.245 1291.55 582.435L1291.88 585.416C1293.56 585.227 1295.23 585.045 1296.9 584.871L1296.59 581.887ZM1286.51 583.025C1284.83 583.229 1283.15 583.44 1281.47 583.658L1281.86 586.633C1283.53 586.416 1285.2 586.206 1286.87 586.003L1286.51 583.025ZM1276.44 584.332C1274.77 584.564 1273.09 584.802 1271.42 585.047L1271.86 588.015C1273.52 587.772 1275.19 587.535 1276.85 587.304L1276.44 584.332ZM1266.41 585.801C1264.73 586.059 1263.06 586.324 1261.39 586.595L1261.87 589.557C1263.53 589.287 1265.2 589.023 1266.87 588.766L1266.41 585.801ZM1256.39 587.427C1254.72 587.711 1253.06 588 1251.4 588.295L1251.93 591.249C1253.58 590.955 1255.23 590.667 1256.89 590.385L1256.39 587.427ZM1246.4 589.204C1244.73 589.513 1243.07 589.827 1241.41 590.147L1241.98 593.093C1243.63 592.774 1245.29 592.461 1246.95 592.154L1246.4 589.204ZM1236.45 591.124C1234.78 591.457 1233.13 591.795 1231.47 592.139L1232.08 595.076C1233.73 594.734 1235.38 594.397 1237.04 594.065L1236.45 591.124ZM1226.5 593.188C1224.85 593.544 1223.2 593.904 1221.56 594.269L1222.21 597.198C1223.84 596.834 1225.49 596.475 1227.13 596.122L1226.5 593.188ZM1216.61 595.384C1214.95 595.763 1213.3 596.146 1211.66 596.535L1212.35 599.455C1213.99 599.068 1215.63 598.686 1217.28 598.308L1216.61 595.384ZM1206.73 597.714C1205.09 598.112 1203.45 598.516 1201.82 598.923L1202.54 601.834C1204.17 601.428 1205.8 601.026 1207.44 600.629L1206.73 597.714ZM1196.88 600.171C1195.24 600.591 1193.61 601.015 1191.98 601.443L1192.74 604.345C1194.37 603.918 1196 603.495 1197.63 603.077L1196.88 600.171ZM1187.1 602.742C1185.45 603.185 1183.82 603.632 1182.18 604.082L1182.98 606.974C1184.61 606.525 1186.24 606.08 1187.88 605.639L1187.1 602.742ZM1177.3 605.445C1175.68 605.903 1174.06 606.365 1172.45 606.829L1173.28 609.712C1174.89 609.248 1176.5 608.789 1178.12 608.332L1177.3 605.445ZM1167.56 608.258C1165.93 608.737 1164.31 609.22 1162.7 609.706L1163.56 612.579C1165.17 612.094 1166.78 611.613 1168.4 611.135L1167.56 608.258ZM1157.87 611.174C1156.24 611.674 1154.62 612.178 1153 612.685L1153.9 615.548C1155.51 615.043 1157.13 614.54 1158.75 614.041L1157.87 611.174ZM1148.17 614.216C1146.56 614.729 1144.96 615.244 1143.37 615.762L1144.3 618.615C1145.89 618.099 1147.48 617.585 1149.08 617.074L1148.17 614.216ZM1138.53 617.355C1136.92 617.889 1135.31 618.425 1133.72 618.964L1134.68 621.806C1136.27 621.27 1137.86 620.735 1139.47 620.202L1138.53 617.355ZM1128.95 620.585C1127.34 621.141 1125.73 621.698 1124.13 622.257L1125.12 625.09C1126.71 624.532 1128.32 623.976 1129.93 623.422L1128.95 620.585ZM1119.35 623.941C1117.76 624.505 1116.18 625.071 1114.61 625.637L1115.63 628.459C1117.19 627.894 1118.77 627.331 1120.35 626.768L1119.35 623.941ZM1109.8 627.386C1108.21 627.969 1106.63 628.554 1105.06 629.139L1106.11 631.95C1107.67 631.367 1109.25 630.784 1110.84 630.202L1109.8 627.386ZM1100.33 630.914C1098.73 631.52 1097.14 632.126 1095.56 632.732L1096.64 635.532C1098.21 634.928 1099.79 634.324 1101.39 633.72L1100.33 630.914ZM1090.86 634.549C1089.27 635.169 1087.69 635.788 1086.13 636.407L1087.23 639.197C1088.79 638.58 1090.36 637.962 1091.95 637.344L1090.86 634.549ZM1081.41 638.287C1079.84 638.913 1078.3 639.539 1076.76 640.163L1077.89 642.942C1079.42 642.32 1080.96 641.696 1082.52 641.072L1081.41 638.287ZM1072.01 642.108C1070.44 642.755 1068.89 643.4 1067.35 644.043L1068.51 646.811C1070.04 646.17 1071.59 645.527 1073.15 644.882L1072.01 642.108ZM1062.67 646.012C1061.1 646.681 1059.54 647.346 1057.99 648.008L1059.18 650.765C1060.72 650.104 1062.27 649.441 1063.84 648.774L1062.67 646.012ZM1053.39 650C1051.8 650.691 1050.24 651.377 1048.69 652.059L1049.9 654.803C1051.44 654.124 1053 653.439 1054.59 652.751L1053.39 650ZM1044.12 654.089C1042.53 654.797 1040.97 655.5 1039.43 656.196L1040.67 658.929C1042.2 658.235 1043.76 657.534 1045.34 656.828L1044.12 654.089ZM1034.87 658.278C1033.29 659.002 1031.74 659.718 1030.22 660.425L1031.48 663.146C1033 662.44 1034.55 661.726 1036.12 661.004L1034.87 658.278ZM1025.67 662.552C1024.1 663.296 1022.55 664.029 1021.04 664.749L1022.33 667.457C1023.84 666.738 1025.38 666.007 1026.95 665.266L1025.67 662.552ZM1016.55 666.908C1014.96 667.678 1013.41 668.431 1011.91 669.168L1013.23 671.861C1014.73 671.127 1016.27 670.376 1017.86 669.609L1016.55 666.908ZM1007.4 671.396C1005.83 672.176 1004.32 672.933 1002.87 673.665L1004.22 676.343C1005.67 675.613 1007.17 674.859 1008.74 674.083L1007.4 671.396ZM998.305 675.987C996.715 676.801 995.213 677.577 993.801 678.313L995.187 680.974C996.593 680.241 998.089 679.468 999.673 678.657L998.305 675.987ZM989.322 680.665C987.64 681.556 986.139 682.36 984.827 683.07L986.254 685.709C987.559 685.003 989.052 684.203 990.727 683.316L989.322 680.665ZM980.446 685.468C979.726 685.867 979.18 686.174 978.812 686.382C978.628 686.486 978.49 686.564 978.396 686.617C978.35 686.644 978.314 686.664 978.291 686.678C978.279 686.685 978.27 686.69 978.263 686.693C978.26 686.695 978.258 686.696 978.256 686.697C978.256 686.698 978.255 686.698 978.255 686.698C978.254 686.698 978.254 686.699 978.254 686.699C978.254 686.699 978.254 686.699 978.254 686.699C978.254 686.699 978.254 686.699 978.254 686.699C978.254 686.699 978.254 686.699 979 688C979.746 689.301 979.746 689.301 979.746 689.301C979.746 689.301 979.746 689.301 979.746 689.301C979.746 689.301 979.746 689.301 979.747 689.301C979.747 689.301 979.747 689.301 979.748 689.3C979.749 689.299 979.751 689.298 979.754 689.297C979.759 689.294 979.768 689.289 979.779 689.283C979.801 689.27 979.835 689.251 979.88 689.225C979.97 689.173 980.106 689.096 980.287 688.994C980.648 688.79 981.189 688.487 981.903 688.091L980.446 685.468Z" fill="#85798A"/>
</svg>
