<svg width="30" height="30" viewBox="0 0 30 30" fill="none" xmlns="http://www.w3.org/2000/svg">
<path d="M15 29.5834C6.94585 29.5834 0.416672 23.0542 0.416672 15.0001C0.416672 6.94593 6.94585 0.416748 15 0.416748C23.0542 0.416748 29.5833 6.94593 29.5833 15.0001C29.5742 23.0504 23.0504 29.5742 15 29.5834ZM15 4.58342C9.24704 4.58342 4.58334 9.24712 4.58334 15.0001C4.58334 20.753 9.24704 25.4167 15 25.4167C20.753 25.4167 25.4167 20.753 25.4167 15.0001C25.4167 9.24712 20.753 4.58342 15 4.58342ZM15 21.2501C11.5482 21.2501 8.75001 18.4519 8.75001 15.0001C8.75001 11.5483 11.5482 8.75008 15 8.75008C18.4518 8.75008 21.25 11.5483 21.25 15.0001C21.25 16.6577 20.5915 18.2474 19.4194 19.4195C18.2473 20.5916 16.6576 21.2501 15 21.2501Z" fill="url(#paint0_linear)"/>
<defs>
<linearGradient id="paint0_linear" x1="0.416671" y1="29.5834" x2="30.6335" y2="28.4515" gradientUnits="userSpaceOnUse">
<stop stop-color="#EC5230"/>
<stop offset="1" stop-color="#FFC123"/>
</linearGradient>
</defs>
</svg>
