<svg width="1920" height="318" viewBox="0 0 1920 318" fill="none" xmlns="http://www.w3.org/2000/svg">
<path fill-rule="evenodd" clip-rule="evenodd" d="M0 67.4748L40 72.6064C80 77.7379 160 88.0011 240 82.8695C320 77.7379 400 57.2117 480 72.6064C560 88.0011 640 139.317 720 144.448C800 149.58 880 108.527 960 123.922C1040 139.317 1120 211.158 1200 206.027C1280 200.895 1360 118.79 1440 67.4748C1520 16.1593 1600 -4.36687 1680 0.764677C1760 5.89623 1840 36.6855 1880 52.0802L1920 67.4748V283H1880C1840 283 1760 283 1680 283C1600 283 1520 283 1440 283C1360 283 1280 283 1200 283C1120 283 1040 283 960 283C880 283 800 283 720 283C640 283 560 283 480 283C400 283 320 283 240 283C160 283 80 283 40 283H0V67.4748Z" fill="url(#paint0_linear)"/>
<path fill-rule="evenodd" clip-rule="evenodd" d="M0 5L52.8 46.7333C107.2 88.4667 212.8 171.933 320 182.367C427.2 192.8 532.8 130.2 640 119.767C747.2 109.333 852.8 151.067 960 177.15C1067.2 203.233 1172.8 213.667 1280 192.8C1387.2 171.933 1492.8 119.767 1600 114.55C1707.2 109.333 1812.8 151.067 1867.2 171.933L1920 192.8V318H1867.2C1812.8 318 1707.2 318 1600 318C1492.8 318 1387.2 318 1280 318C1172.8 318 1067.2 318 960 318C852.8 318 747.2 318 640 318C532.8 318 427.2 318 320 318C212.8 318 107.2 318 52.8 318H0V5Z" fill="url(#paint1_linear)"/>
<defs>
<linearGradient id="paint0_linear" x1="-2.14577e-05" y1="283" x2="1871.07" y2="-192.536" gradientUnits="userSpaceOnUse">
<stop stop-color="#EC5230"/>
<stop offset="1" stop-color="#FFC123"/>
</linearGradient>
<linearGradient id="paint1_linear" x1="0" y1="5" x2="1102.77" y2="227.612" gradientUnits="userSpaceOnUse">
<stop stop-color="#572CA6"/>
<stop offset="1" stop-color="#E8197E"/>
</linearGradient>
</defs>
</svg>
