<svg width="1920" height="1213" viewBox="0 0 1920 1213" fill="none" xmlns="http://www.w3.org/2000/svg">
<path fill-rule="evenodd" clip-rule="evenodd" d="M10 67.4748L49.7917 72.6064C89.5833 77.738 169.167 88.0011 248.75 82.8695C328.333 77.738 407.917 57.2117 487.5 72.6064C567.083 88.0011 646.667 139.317 726.25 144.448C805.833 149.58 885.417 108.527 965 123.922C1044.58 139.317 1124.17 211.158 1203.75 206.027C1283.33 200.895 1362.92 118.79 1442.5 67.4748C1522.08 16.1593 1601.67 -4.36687 1681.25 0.764677C1760.83 5.89623 1840.42 36.6855 1880.21 52.0802L1920 67.4748V283H1880.21C1840.42 283 1760.83 283 1681.25 283C1601.67 283 1522.08 283 1442.5 283C1362.92 283 1283.33 283 1203.75 283C1124.17 283 1044.58 283 965 283C885.417 283 805.833 283 726.25 283C646.667 283 567.083 283 487.5 283C407.917 283 328.333 283 248.75 283C169.167 283 89.5833 283 49.7917 283H10V67.4748Z" fill="url(#paint0_linear)"/>
<path fill-rule="evenodd" clip-rule="evenodd" d="M53.075 46.7333L0 5V318V1213H1930V318V192.8L1876.93 171.933C1875.58 171.42 1874.2 170.894 1872.8 170.356C1817.02 149.042 1713.44 109.462 1608.33 114.55C1543.81 117.673 1479.87 137.627 1415.82 157.617C1372.89 171.014 1329.91 184.427 1286.67 192.8C1178.91 213.667 1072.76 203.233 965 177.15C939.756 171.04 914.601 164.071 889.493 157.114C807.42 134.376 725.848 111.777 643.333 119.767C598.365 124.121 553.677 137.559 509.035 150.983C446.701 169.728 384.457 188.446 321.667 182.367C217.261 172.258 114.366 93.5904 58.3277 50.7469C56.528 49.371 54.7766 48.0319 53.075 46.7333Z" fill="url(#paint1_linear)"/>
<defs>
<linearGradient id="paint0_linear" x1="9.99998" y1="283" x2="1872.5" y2="-187.892" gradientUnits="userSpaceOnUse">
<stop stop-color="#EC5230"/>
<stop offset="1" stop-color="#FFC123"/>
</linearGradient>
<linearGradient id="paint1_linear" x1="0" y1="5" x2="1150.51" y2="65.4904" gradientUnits="userSpaceOnUse">
<stop stop-color="#572CA6"/>
<stop offset="1" stop-color="#E8197E"/>
</linearGradient>
</defs>
</svg>
