<svg width="22" height="22" viewBox="0 0 22 22" fill="none" xmlns="http://www.w3.org/2000/svg">
<g opacity="0.7" clip-path="url(#clip0)">
<path d="M3.31027 0.586182H19.2184C20.7292 0.586182 21.9653 1.7047 21.9653 3.33302V19.2416C21.9653 20.87 20.7292 21.9885 19.2184 21.9885H3.31027C1.79906 21.9885 0.563202 20.87 0.563202 19.2416V3.33302C0.563202 1.7047 1.79906 0.586182 3.31027 0.586182ZM16.1538 2.96407C15.6238 2.96407 15.1907 3.39741 15.1907 3.92766V6.23391C15.1907 6.76394 15.6238 7.1975 16.1538 7.1975H18.5728C19.1029 7.1975 19.5364 6.76394 19.5364 6.23391V3.92766C19.5364 3.39741 19.1029 2.96407 18.5728 2.96407H16.1538ZM19.5465 9.63714H17.6629C17.8411 10.219 17.9375 10.8354 17.9375 11.4731C17.9375 15.033 14.9586 17.9188 11.2847 17.9188C7.61094 17.9188 4.63249 15.033 4.63249 11.4731C4.63249 10.835 4.72873 10.2188 4.90717 9.63714H2.94153V18.6778C2.94153 19.1456 3.32433 19.5286 3.79239 19.5286H18.6961C19.1642 19.5286 19.547 19.1458 19.547 18.6778V9.63714H19.5465ZM11.2845 7.07598C8.91075 7.07598 6.9862 8.94054 6.9862 11.2409C6.9862 13.5412 8.91075 15.4057 11.2845 15.4057C13.6584 15.4057 15.5832 13.5412 15.5832 11.2409C15.5832 8.94054 13.6586 7.07598 11.2845 7.07598Z" fill="black"/>
</g>
<defs>
<clipPath id="clip0">
<rect width="21.4023" height="21.4023" fill="white" transform="translate(0.563202 0.586182)"/>
</clipPath>
</defs>
</svg>
