<svg width="162" height="19" viewBox="0 0 162 19" fill="none" xmlns="http://www.w3.org/2000/svg">
<path d="M6.72 18.216L2.448 5.376C2.208 4.656 2.016 4.072 1.872 3.624C1.744 3.176 1.656 2.792 1.608 2.472C1.352 2.488 1.112 2.496 0.888 2.496C0.664 2.496 0.44 2.504 0.216 2.52V1.2H6.456V2.256C5.64 2.288 5.12 2.464 4.896 2.784C4.688 3.104 4.704 3.712 4.944 4.608C5.216 5.616 5.496 6.552 5.784 7.416C6.072 8.28 6.36 9.192 6.648 10.152C6.84 10.808 7.032 11.424 7.224 12C7.432 12.56 7.64 13.216 7.848 13.968H7.872C7.952 13.712 8.04 13.408 8.136 13.056C8.248 12.704 8.36 12.344 8.472 11.976C8.584 11.592 8.688 11.248 8.784 10.944C8.88 10.624 8.952 10.384 9 10.224C9.384 9.008 9.76 7.816 10.128 6.648C10.512 5.48 10.856 4.424 11.16 3.48C11.464 2.536 11.696 1.768 11.856 1.176H13.104C13.264 1.768 13.472 2.464 13.728 3.264C14 4.048 14.272 4.864 14.544 5.712C14.816 6.544 15.08 7.352 15.336 8.136C15.592 8.904 15.808 9.576 15.984 10.152C16.192 10.808 16.4 11.472 16.608 12.144C16.832 12.8 17.032 13.48 17.208 14.184H17.256C17.4 13.704 17.552 13.2 17.712 12.672C17.888 12.128 18.056 11.576 18.216 11.016C18.536 10.088 18.8 9.288 19.008 8.616C19.232 7.944 19.416 7.36 19.56 6.864C19.704 6.368 19.832 5.92 19.944 5.52C20.072 5.12 20.2 4.728 20.328 4.344C20.424 4.04 20.536 3.72 20.664 3.384C20.792 3.032 20.952 2.72 21.144 2.448C20.84 2.464 20.512 2.48 20.16 2.496C19.824 2.496 19.52 2.504 19.248 2.52V1.2H24.288V2.256C23.808 2.304 23.408 2.416 23.088 2.592C22.784 2.768 22.512 3.08 22.272 3.528C22.032 3.96 21.76 4.608 21.456 5.472C20.752 7.632 20.056 9.768 19.368 11.88C18.696 13.992 18 16.104 17.28 18.216H16.08L12.72 8.4C12.544 7.92 12.384 7.448 12.24 6.984C12.112 6.504 11.984 6.04 11.856 5.592C11.744 6.04 11.624 6.488 11.496 6.936C11.368 7.368 11.232 7.808 11.088 8.256L7.896 18.216H6.72ZM33.6229 11.928C33.6229 11.24 33.5189 10.744 33.3109 10.44C33.1189 10.136 32.8229 9.952 32.4229 9.888C32.0229 9.808 31.5269 9.784 30.9349 9.816L29.5429 9.864V14.856C29.5429 15.288 29.5349 15.672 29.5189 16.008C29.5189 16.328 29.5029 16.592 29.4709 16.8L33.5989 16.752C34.2229 16.736 34.7829 16.624 35.2789 16.416C35.7749 16.192 36.1669 15.816 36.4549 15.288C36.7429 14.76 36.8869 14.04 36.8869 13.128H37.9429L37.7989 18H25.3189V16.944C25.8469 16.912 26.2229 16.8 26.4469 16.608C26.6869 16.416 26.8389 16.128 26.9029 15.744C26.9669 15.36 26.9989 14.872 26.9989 14.28V4.296C26.9989 3.944 27.0069 3.608 27.0229 3.288C27.0389 2.952 27.0549 2.664 27.0709 2.424C26.7989 2.44 26.5029 2.456 26.1829 2.472C25.8629 2.488 25.5749 2.504 25.3189 2.52V1.2H37.0309L37.1509 5.544H36.0949C36.0949 4.632 35.9429 3.936 35.6389 3.456C35.3509 2.976 34.9669 2.656 34.4869 2.496C34.0229 2.336 33.5189 2.264 32.9749 2.28L31.2949 2.328C30.7989 2.328 30.4229 2.416 30.1669 2.592C29.9109 2.752 29.7429 3.024 29.6629 3.408C29.5829 3.776 29.5429 4.28 29.5429 4.92V8.688H33.5029L33.3589 6.624H34.6789V11.928H33.6229ZM40.272 18V16.944C40.8 16.912 41.176 16.8 41.4 16.608C41.64 16.416 41.792 16.128 41.856 15.744C41.92 15.36 41.952 14.872 41.952 14.28V4.296C41.952 3.944 41.96 3.608 41.976 3.288C41.992 2.952 42.008 2.664 42.024 2.424C41.752 2.44 41.456 2.456 41.136 2.472C40.816 2.488 40.528 2.504 40.272 2.52V1.2H46.176V2.256C45.664 2.272 45.288 2.384 45.048 2.592C44.808 2.784 44.656 3.072 44.592 3.456C44.528 3.824 44.496 4.312 44.496 4.92V14.856C44.496 15.288 44.488 15.672 44.472 16.008C44.472 16.328 44.456 16.592 44.424 16.8L48.48 16.752C49.472 16.736 50.232 16.416 50.76 15.792C51.288 15.152 51.552 14.144 51.552 12.768H52.632L52.488 18H40.272ZM54.3579 18V16.944C54.8859 16.912 55.2619 16.8 55.4859 16.608C55.7259 16.416 55.8779 16.128 55.9419 15.744C56.0059 15.36 56.0379 14.872 56.0379 14.28V4.296C56.0379 3.944 56.0459 3.608 56.0619 3.288C56.0779 2.952 56.0939 2.664 56.1099 2.424C55.8379 2.44 55.5419 2.456 55.2219 2.472C54.9019 2.488 54.6139 2.504 54.3579 2.52V1.2H60.2619V2.256C59.7499 2.272 59.3739 2.384 59.1339 2.592C58.8939 2.784 58.7419 3.072 58.6779 3.456C58.6139 3.824 58.5819 4.312 58.5819 4.92V14.856C58.5819 15.288 58.5739 15.672 58.5579 16.008C58.5579 16.328 58.5419 16.592 58.5099 16.8L62.5659 16.752C63.5579 16.736 64.3179 16.416 64.8459 15.792C65.3739 15.152 65.6379 14.144 65.6379 12.768H66.7179L66.5739 18H54.3579ZM68.4439 18V16.944C68.9719 16.912 69.3479 16.8 69.5719 16.608C69.8119 16.416 69.9639 16.128 70.0279 15.744C70.0919 15.36 70.1239 14.872 70.1239 14.28V4.296C70.1239 3.944 70.1319 3.608 70.1479 3.288C70.1639 2.952 70.1799 2.664 70.1959 2.424C69.9239 2.44 69.6279 2.456 69.3079 2.472C68.9879 2.488 68.6999 2.504 68.4439 2.52V1.2C69.4199 1.184 70.4039 1.176 71.3959 1.176C72.3879 1.16 73.3879 1.16 74.3959 1.176C75.8999 1.176 77.1399 1.352 78.1159 1.704C79.0919 2.04 79.8199 2.544 80.2999 3.216C80.7959 3.888 81.0359 4.736 81.0199 5.76C81.0359 6.4 80.9079 7.04 80.6359 7.68C80.3639 8.304 79.9079 8.864 79.2679 9.36C78.6279 9.856 77.7479 10.232 76.6279 10.488C76.9479 10.68 77.2359 10.944 77.4919 11.28C77.7479 11.616 78.0119 11.992 78.2839 12.408L79.7479 14.664C80.0519 15.144 80.3319 15.552 80.5879 15.888C80.8439 16.224 81.1319 16.488 81.4519 16.68C81.7719 16.856 82.1559 16.944 82.6039 16.944V18H79.2679C78.8519 17.648 78.4919 17.272 78.1879 16.872C77.8999 16.456 77.5879 15.992 77.2519 15.48L75.5959 12.792C75.3879 12.472 75.1639 12.128 74.9239 11.76C74.6999 11.392 74.4519 11.08 74.1799 10.824C73.9239 10.824 73.6679 10.824 73.4119 10.824C73.1719 10.824 72.9239 10.824 72.6679 10.824V14.784C72.6679 15.216 72.6599 15.608 72.6439 15.96C72.6439 16.296 72.6279 16.568 72.5959 16.776C72.7879 16.76 72.9879 16.752 73.1959 16.752C73.4199 16.736 73.6359 16.72 73.8439 16.704C74.0679 16.688 74.2599 16.68 74.4199 16.68V18H68.4439ZM74.0599 9.648C74.9399 9.632 75.6919 9.496 76.3159 9.24C76.9399 8.968 77.4199 8.56 77.7559 8.016C78.0919 7.456 78.2599 6.736 78.2599 5.856C78.2599 5.2 78.1639 4.648 77.9719 4.2C77.7799 3.752 77.5079 3.392 77.1559 3.12C76.8039 2.832 76.3799 2.632 75.8839 2.52C75.4039 2.392 74.8839 2.328 74.3239 2.328C73.8119 2.328 73.4359 2.424 73.1959 2.616C72.9719 2.808 72.8279 3.088 72.7639 3.456C72.6999 3.824 72.6679 4.296 72.6679 4.872V9.576C72.9079 9.592 73.1319 9.616 73.3399 9.648C73.5639 9.664 73.8039 9.664 74.0599 9.648ZM92.2869 11.928C92.2869 11.24 92.1829 10.744 91.9749 10.44C91.7829 10.136 91.4869 9.952 91.0869 9.888C90.6869 9.808 90.1909 9.784 89.5989 9.816L88.2069 9.864V14.856C88.2069 15.288 88.1989 15.672 88.1829 16.008C88.1829 16.328 88.1669 16.592 88.1349 16.8L92.2629 16.752C92.8869 16.736 93.4469 16.624 93.9429 16.416C94.4389 16.192 94.8309 15.816 95.1189 15.288C95.4069 14.76 95.5509 14.04 95.5509 13.128H96.6069L96.4629 18H83.9829V16.944C84.5109 16.912 84.8869 16.8 85.1109 16.608C85.3509 16.416 85.5029 16.128 85.5669 15.744C85.6309 15.36 85.6629 14.872 85.6629 14.28V4.296C85.6629 3.944 85.6709 3.608 85.6869 3.288C85.7029 2.952 85.7189 2.664 85.7349 2.424C85.4629 2.44 85.1669 2.456 84.8469 2.472C84.5269 2.488 84.2389 2.504 83.9829 2.52V1.2H95.6949L95.8149 5.544H94.7589C94.7589 4.632 94.6069 3.936 94.3029 3.456C94.0149 2.976 93.6309 2.656 93.1509 2.496C92.6869 2.336 92.1829 2.264 91.6389 2.28L89.9589 2.328C89.4629 2.328 89.0869 2.416 88.8309 2.592C88.5749 2.752 88.4069 3.024 88.3269 3.408C88.2469 3.776 88.2069 4.28 88.2069 4.92V8.688H92.1669L92.0229 6.624H93.3429V11.928H92.2869ZM97.5921 18V16.92C98.0721 16.92 98.4401 16.792 98.6961 16.536C98.9521 16.28 99.1681 15.936 99.3441 15.504C99.5201 15.056 99.7121 14.56 99.9201 14.016L104.768 0.743999H105.728L110.984 14.208C111.112 14.512 111.256 14.928 111.416 15.456C111.576 15.968 111.648 16.408 111.632 16.776C111.904 16.744 112.168 16.728 112.424 16.728C112.696 16.712 112.952 16.696 113.192 16.68V18H107.36V16.944C107.92 16.928 108.288 16.808 108.464 16.584C108.656 16.344 108.728 16.056 108.68 15.72C108.648 15.384 108.568 15.048 108.44 14.712L107.72 12.768L101.84 12.912L101.144 15C101.048 15.32 100.944 15.624 100.832 15.912C100.72 16.2 100.608 16.48 100.496 16.752C100.784 16.72 101.088 16.704 101.408 16.704C101.744 16.688 102.04 16.672 102.296 16.656V18H97.5921ZM102.272 11.616H107.312L105.8 7.56C105.608 7.032 105.424 6.512 105.248 6C105.072 5.472 104.912 4.968 104.768 4.488H104.744C104.616 4.888 104.472 5.328 104.312 5.808C104.152 6.288 103.968 6.808 103.76 7.368L102.272 11.616ZM114.288 16.944C114.816 16.912 115.192 16.8 115.416 16.608C115.656 16.416 115.808 16.128 115.872 15.744C115.936 15.36 115.968 14.872 115.968 14.28V4.296C115.968 3.944 115.976 3.608 115.992 3.288C116.008 2.952 116.024 2.664 116.04 2.424C115.768 2.44 115.472 2.456 115.152 2.472C114.832 2.488 114.544 2.504 114.288 2.52V1.2L120.408 1.176C121.896 1.176 123.232 1.368 124.416 1.752C125.6 2.136 126.608 2.696 127.44 3.432C128.272 4.152 128.904 5.032 129.336 6.072C129.768 7.112 129.984 8.272 129.984 9.552C129.984 10.624 129.8 11.664 129.432 12.672C129.064 13.68 128.496 14.584 127.728 15.384C126.976 16.168 126.024 16.8 124.872 17.28C123.72 17.76 122.36 18 120.792 18H114.288V16.944ZM118.512 14.808C118.512 15.24 118.504 15.624 118.488 15.96C118.488 16.296 118.472 16.568 118.44 16.776C118.776 16.776 119.112 16.784 119.448 16.8C119.784 16.8 120.08 16.8 120.336 16.8C120.608 16.8 120.8 16.8 120.912 16.8C121.904 16.8 122.784 16.616 123.552 16.248C124.32 15.88 124.968 15.368 125.496 14.712C126.04 14.056 126.448 13.296 126.72 12.432C127.008 11.568 127.152 10.648 127.152 9.672C127.152 8.104 126.896 6.776 126.384 5.688C125.872 4.6 125.096 3.768 124.056 3.192C123.032 2.616 121.752 2.32 120.216 2.304C119.688 2.304 119.304 2.4 119.064 2.592C118.824 2.768 118.672 3.048 118.608 3.432C118.544 3.816 118.512 4.304 118.512 4.896V14.808ZM140.334 11.928C140.334 11.24 140.23 10.744 140.022 10.44C139.83 10.136 139.534 9.952 139.134 9.888C138.734 9.808 138.238 9.784 137.646 9.816L136.254 9.864V14.856C136.254 15.288 136.246 15.672 136.23 16.008C136.23 16.328 136.214 16.592 136.182 16.8L140.31 16.752C140.934 16.736 141.494 16.624 141.99 16.416C142.486 16.192 142.878 15.816 143.166 15.288C143.454 14.76 143.598 14.04 143.598 13.128H144.654L144.51 18H132.03V16.944C132.558 16.912 132.934 16.8 133.158 16.608C133.398 16.416 133.55 16.128 133.614 15.744C133.678 15.36 133.71 14.872 133.71 14.28V4.296C133.71 3.944 133.718 3.608 133.734 3.288C133.75 2.952 133.766 2.664 133.782 2.424C133.51 2.44 133.214 2.456 132.894 2.472C132.574 2.488 132.286 2.504 132.03 2.52V1.2H143.742L143.862 5.544H142.806C142.806 4.632 142.654 3.936 142.35 3.456C142.062 2.976 141.678 2.656 141.198 2.496C140.734 2.336 140.23 2.264 139.686 2.28L138.006 2.328C137.51 2.328 137.134 2.416 136.878 2.592C136.622 2.752 136.454 3.024 136.374 3.408C136.294 3.776 136.254 4.28 136.254 4.92V8.688H140.214L140.07 6.624H141.39V11.928H140.334ZM146.983 18V16.944C147.511 16.912 147.887 16.8 148.111 16.608C148.351 16.416 148.503 16.128 148.567 15.744C148.631 15.36 148.663 14.872 148.663 14.28V4.296C148.663 3.944 148.671 3.608 148.687 3.288C148.703 2.952 148.719 2.664 148.735 2.424C148.463 2.44 148.167 2.456 147.847 2.472C147.527 2.488 147.239 2.504 146.983 2.52V1.2C147.959 1.184 148.943 1.176 149.935 1.176C150.927 1.16 151.927 1.16 152.935 1.176C154.439 1.176 155.679 1.352 156.655 1.704C157.631 2.04 158.359 2.544 158.839 3.216C159.335 3.888 159.575 4.736 159.559 5.76C159.575 6.4 159.447 7.04 159.175 7.68C158.903 8.304 158.447 8.864 157.807 9.36C157.167 9.856 156.287 10.232 155.167 10.488C155.487 10.68 155.775 10.944 156.031 11.28C156.287 11.616 156.551 11.992 156.823 12.408L158.287 14.664C158.591 15.144 158.871 15.552 159.127 15.888C159.383 16.224 159.671 16.488 159.991 16.68C160.311 16.856 160.695 16.944 161.143 16.944V18H157.807C157.391 17.648 157.031 17.272 156.727 16.872C156.439 16.456 156.127 15.992 155.791 15.48L154.135 12.792C153.927 12.472 153.703 12.128 153.463 11.76C153.239 11.392 152.991 11.08 152.719 10.824C152.463 10.824 152.207 10.824 151.951 10.824C151.711 10.824 151.463 10.824 151.207 10.824V14.784C151.207 15.216 151.199 15.608 151.183 15.96C151.183 16.296 151.167 16.568 151.135 16.776C151.327 16.76 151.527 16.752 151.735 16.752C151.959 16.736 152.175 16.72 152.383 16.704C152.607 16.688 152.799 16.68 152.959 16.68V18H146.983ZM152.599 9.648C153.479 9.632 154.231 9.496 154.855 9.24C155.479 8.968 155.959 8.56 156.295 8.016C156.631 7.456 156.799 6.736 156.799 5.856C156.799 5.2 156.703 4.648 156.511 4.2C156.319 3.752 156.047 3.392 155.695 3.12C155.343 2.832 154.919 2.632 154.423 2.52C153.943 2.392 153.423 2.328 152.863 2.328C152.351 2.328 151.975 2.424 151.735 2.616C151.511 2.808 151.367 3.088 151.303 3.456C151.239 3.824 151.207 4.296 151.207 4.872V9.576C151.447 9.592 151.671 9.616 151.879 9.648C152.103 9.664 152.343 9.664 152.599 9.648Z" fill="black"/>
</svg>
