<svg width="27" height="27" viewBox="0 0 27 27" fill="none" xmlns="http://www.w3.org/2000/svg">
<g opacity="0.7" clip-path="url(#clip0)">
<path d="M26.5329 4.98864C26.4956 4.94472 26.4341 4.92981 26.3817 4.95377C25.6047 5.29846 24.7873 5.54627 23.9454 5.69267C24.8392 5.02031 25.5052 4.08923 25.8467 3.0216C25.8632 2.9705 25.8461 2.9146 25.8043 2.88133C25.7623 2.84806 25.704 2.8438 25.6579 2.87122C24.6513 3.46825 23.561 3.88907 22.4159 4.1225C21.4013 3.06952 19.9844 2.46716 18.5181 2.46716C15.5359 2.46716 13.1099 4.89308 13.1099 7.87504C13.1099 8.2357 13.1448 8.59291 13.214 8.93973C9.08351 8.68474 5.22131 6.70174 2.59523 3.48076C2.56835 3.44775 2.52762 3.42938 2.48504 3.43364C2.44271 3.43684 2.40492 3.46079 2.38362 3.49726C1.90451 4.31921 1.65138 5.2596 1.65138 6.21624C1.65138 7.87424 2.40465 9.42444 3.68735 10.4473C3.02697 10.368 2.38203 10.1601 1.80043 9.83728C1.76131 9.81518 1.7126 9.81545 1.67347 9.83807C1.63434 9.86043 1.60959 9.90196 1.60852 9.94721L1.60799 10.0164C1.60799 12.3976 3.17709 14.4884 5.4095 15.1826C4.82152 15.2774 4.21144 15.271 3.61175 15.1565C3.56757 15.1483 3.52125 15.1634 3.49091 15.1975C3.46083 15.2316 3.45072 15.2792 3.46456 15.3223C4.13399 17.4118 5.99402 18.8771 8.15908 19.0597C6.35309 20.3829 4.21837 21.08 1.9628 21.08C1.5473 21.08 1.12887 21.0552 0.718966 21.007C0.660407 21.0004 0.602381 21.0353 0.582152 21.0914C0.561923 21.1481 0.583483 21.2115 0.634056 21.2437C3.07488 22.809 5.89713 23.636 8.79604 23.636C18.2785 23.636 23.9448 15.9335 23.9448 8.48697C23.9448 8.27962 23.9408 8.07334 23.9326 7.86758C24.9555 7.11937 25.8336 6.20346 26.5416 5.14328C26.5733 5.09591 26.5699 5.03282 26.5329 4.98864Z" fill="black"/>
</g>
<defs>
<clipPath id="clip0">
<rect width="25.9885" height="25.9885" fill="white" transform="translate(0.574707 0.0574951)"/>
</clipPath>
</defs>
</svg>
