<svg width="31" height="31" viewBox="0 0 31 31" fill="none" xmlns="http://www.w3.org/2000/svg">
<g opacity="0.7" clip-path="url(#clip0)">
<path d="M29.3083 20.6516C28.398 19.5598 27.3267 18.6279 26.3131 17.6384C25.3987 16.7465 25.341 16.229 26.0761 15.1996C26.8784 14.0761 27.7411 12.9956 28.5507 11.8771C29.3064 10.8318 30.0788 9.7894 30.4765 8.53784C30.7287 7.7416 30.5056 7.38989 29.6891 7.25048C29.5484 7.22608 29.403 7.22481 29.2598 7.22481L24.4155 7.21911C23.8189 7.21024 23.489 7.47037 23.278 7.9992C22.9931 8.71401 22.6994 9.42819 22.3601 10.118C21.5901 11.6819 20.7302 13.1936 19.5246 14.4737C19.2588 14.756 18.9647 15.1128 18.5205 14.9658C17.9647 14.763 17.8009 13.8473 17.8101 13.5377L17.8054 7.94628C17.6976 7.1475 17.5205 6.79136 16.7274 6.63611L11.6952 6.63706C11.0235 6.63706 10.6867 6.89656 10.328 7.3167C10.1211 7.55941 10.0587 7.71688 10.4839 7.79736C11.3191 7.95579 11.7897 8.49633 11.9145 9.33377C12.1147 10.6718 12.1008 12.0153 11.9855 13.3587C11.9516 13.751 11.8841 14.1423 11.7285 14.5086C11.4852 15.0843 11.0923 15.2015 10.5761 14.8473C10.1088 14.5266 9.78052 14.0742 9.45923 13.6198C8.25235 11.9145 7.28945 10.0755 6.50429 8.14305C6.27743 7.58476 5.88612 7.24636 5.29456 7.23717C3.84117 7.21404 2.38747 7.21024 0.934079 7.23844C0.0595748 7.25492 -0.201192 7.67949 0.154946 8.47225C1.73793 11.9934 3.49993 15.4166 5.79994 18.5351C6.98084 20.1355 8.33664 21.5483 10.0882 22.5496C12.0732 23.6845 14.2101 24.0261 16.4607 23.9209C17.5145 23.8715 17.831 23.5974 17.8798 22.547C17.9128 21.8284 17.9942 21.1139 18.3488 20.4682C18.6967 19.8345 19.2236 19.7138 19.831 20.1079C20.1348 20.3053 20.3909 20.5566 20.6326 20.8215C21.2258 21.4704 21.7977 22.1389 22.4133 22.766C23.1855 23.5518 24.1002 24.0159 25.2504 23.9212L29.7027 23.9222C30.4201 23.8753 30.7921 22.9957 30.3802 22.195C30.0909 21.6342 29.7113 21.1348 29.3083 20.6516Z" fill="black"/>
</g>
<defs>
<clipPath id="clip0">
<rect width="30.5747" height="30.5747" fill="white"/>
</clipPath>
</defs>
</svg>
