<svg width="48" height="48" fill="none" xmlns="http://www.w3.org/2000/svg"><path d="M31.2 24a7.2 7.2 0 1 1-14.4 0c0-.41.043-.811.118-1.2H14.4v9.593c0 .667.54 1.207 1.207 1.207h16.788a1.207 1.207 0 0 0 1.205-1.207V22.8h-2.518c.075.389.118.79.118 1.2ZM24 28.8a4.801 4.801 0 1 0-.003-9.602A4.801 4.801 0 0 0 24 28.8Zm5.76-9.84h2.878a.722.722 0 0 0 .722-.72v-2.878a.723.723 0 0 0-.722-.722H29.76a.723.723 0 0 0-.722.722v2.878c.002.396.326.72.722.72ZM24 .96a23.04 23.04 0 1 0 0 46.08A23.04 23.04 0 0 0 24 .96Zm12 32.374C36 34.8 34.8 36 33.334 36H14.666A2.674 2.674 0 0 1 12 33.334V14.666C12 13.2 13.2 12 14.666 12h18.668C34.8 12 36 13.2 36 14.666v18.668Z" fill="#9FAEBF"/></svg>