<svg width="48" height="48" fill="none" xmlns="http://www.w3.org/2000/svg"><path fill-rule="evenodd" clip-rule="evenodd" d="M24 48c13.255 0 24-10.745 24-24S37.255 0 24 0 0 10.745 0 24s10.745 24 24 24Zm2.58-33.084a2.877 2.877 0 1 0-4.069 4.068 2.877 2.877 0 0 0 4.07-4.068Zm4.903 2.035a6.943 6.943 0 0 1-6.938 6.937c-3.823 0-6.937-3.114-6.937-6.937 0-3.824 3.114-6.938 6.938-6.938 3.823 0 6.937 3.114 6.937 6.938Zm-.11 10.95a12.992 12.992 0 0 1-4.021 1.655l-.024-.008 3.887 3.887a2.034 2.034 0 1 1-2.878 2.877l-3.815-3.815-3.816 3.824a2.035 2.035 0 0 1-2.877-2.878l3.863-3.887a12.688 12.688 0 0 1-4.021-1.655 2.035 2.035 0 0 1 2.176-3.437 8.821 8.821 0 0 0 9.35 0 2.032 2.032 0 0 1 3.092 1.37 2.034 2.034 0 0 1-.916 2.067Z" fill="#9FAEBF"/></svg>