<svg width="48" height="48" fill="none" xmlns="http://www.w3.org/2000/svg"><path d="M24 0C10.746 0 0 10.746 0 24s10.746 24 24 24 24-10.746 24-24S37.254 0 24 0Zm11.534 18.091c.016.252.016.514.016.771 0 7.865-5.99 16.924-16.934 16.924-3.375 0-6.503-.98-9.14-2.668.483.053.944.075 1.436.075 2.786 0 5.347-.943 7.388-2.54a5.951 5.951 0 0 1-5.56-4.124c.915.134 1.74.134 2.683-.108a5.946 5.946 0 0 1-4.762-5.839v-.075a5.953 5.953 0 0 0 2.684.755 5.952 5.952 0 0 1-2.652-4.95c0-1.108.29-2.12.809-3a16.89 16.89 0 0 0 12.268 6.22c-.841-4.044 2.18-7.318 5.812-7.318a5.94 5.94 0 0 1 4.345 1.875 11.755 11.755 0 0 0 3.777-1.43 5.922 5.922 0 0 1-2.615 3.273c1.2-.128 2.357-.46 3.429-.927a12.473 12.473 0 0 1-2.984 3.086Z" fill="#9FAEBF"/></svg>