<svg width="48" height="48" fill="none" xmlns="http://www.w3.org/2000/svg"><path d="M24 .96C11.275.96.96 11.275.96 24S11.275 47.04 24 47.04 47.04 36.725 47.04 24 36.725.96 24 .96Zm8.86 25.994s2.038 2.012 2.54 2.945c.014.02.022.039.026.048.204.343.252.61.152.809-.168.331-.744.494-.941.509h-3.6c-.25 0-.773-.065-1.407-.502-.487-.34-.967-.9-1.435-1.445-.698-.81-1.303-1.512-1.913-1.512a.73.73 0 0 0-.228.036c-.46.15-1.05.807-1.05 2.559 0 .547-.433.861-.738.861h-1.648c-.562 0-3.488-.196-6.08-2.93-3.172-3.348-6.028-10.063-6.052-10.126-.18-.434.192-.667.597-.667h3.636c.485 0 .643.295.754.557.13.305.605 1.517 1.385 2.88 1.264 2.222 2.04 3.125 2.661 3.125a.72.72 0 0 0 .334-.087c.811-.45.66-3.343.624-3.943 0-.113-.003-1.293-.418-1.86-.297-.41-.804-.566-1.111-.624a1.32 1.32 0 0 1 .478-.405c.556-.279 1.56-.32 2.556-.32h.554c1.08.015 1.358.084 1.75.183.792.19.808.7.739 2.45a38.164 38.164 0 0 0-.043 1.721c0 .144-.008.298-.008.46-.024.891-.052 1.902.576 2.317a.52.52 0 0 0 .274.079c.218 0 .876 0 2.657-3.055a23.322 23.322 0 0 0 1.428-3.058c.036-.062.141-.254.266-.329a.637.637 0 0 1 .298-.07h4.274c.466 0 .785.07.845.25.106.286-.02 1.157-1.97 3.8l-.872 1.15c-1.768 2.318-1.768 2.435.11 4.194Z" fill="#9FAEBF"/></svg>