<svg width="33" height="34" fill="none" xmlns="http://www.w3.org/2000/svg"><path d="M16.75.75C7.775.75.5 8.025.5 17s7.275 16.25 16.25 16.25S33 25.975 33 17 25.725.75 16.75.75Z" fill="url(#a)"/><path d="M18.95 21.307h4.205l.66-4.272H18.95V14.7c0-1.775.58-3.348 2.24-3.348h2.668V7.624c-.469-.064-1.46-.202-3.333-.202-3.911 0-6.204 2.066-6.204 6.772v2.842H10.3v4.272h4.02V33.05c.796.119 1.603.2 2.431.2.748 0 1.479-.068 2.2-.166V21.307Z" fill="#fff"/><defs><linearGradient id="a" x1="5.369" y1="5.619" x2="30.25" y2="30.5" gradientUnits="userSpaceOnUse"><stop stop-color="#2AA4F4"/><stop offset="1" stop-color="#007AD9"/></linearGradient></defs></svg>