<svg width="33" height="34" fill="none" xmlns="http://www.w3.org/2000/svg"><path d="M.5 17C.5 8.025 7.775.75 16.75.75S33 8.025 33 17s-7.275 16.25-16.25 16.25S.5 25.975.5 17Z" fill="url(#a)"/><path d="M16.75 7.109c3.25 0 3.603 0 4.875.07 1.201.071 1.837.283 2.26.424.566.212.99.495 1.414.919.424.424.706.848.918 1.413.142.424.354 1.06.424 2.26V17c0 3.25 0 3.603-.07 4.875-.071 1.201-.283 1.837-.424 2.261a3.76 3.76 0 0 1-.919 1.413 3.765 3.765 0 0 1-1.413.919c-.424.14-1.06.353-2.26.423H16.75c-3.25 0-3.603 0-4.875-.07-1.201-.07-1.837-.283-2.26-.424a3.764 3.764 0 0 1-1.414-.919 3.766 3.766 0 0 1-.918-1.413c-.142-.424-.354-1.06-.424-2.26V17c0-3.25 0-3.603.07-4.875.071-1.201.283-1.837.424-2.26.212-.566.495-.99.919-1.414a3.765 3.765 0 0 1 1.413-.918c.424-.142 1.06-.354 2.26-.424h4.805Zm0-2.12c-3.25 0-3.674 0-4.946.07-1.271.072-2.12.283-2.896.566a5.093 5.093 0 0 0-2.12 1.413c-.636.707-1.06 1.343-1.413 2.12-.283.777-.495 1.625-.565 2.896-.07 1.272-.07 1.696-.07 4.946s0 3.674.07 4.946c.07 1.271.282 2.12.565 2.896a5.092 5.092 0 0 0 1.413 2.12c.636.636 1.342 1.06 2.12 1.413.777.283 1.625.495 2.896.565 1.272.071 1.696.071 4.946.071s3.674 0 4.946-.07c1.271-.071 2.12-.283 2.896-.566a5.092 5.092 0 0 0 2.12-1.413c.636-.636 1.06-1.342 1.413-2.12.282-.777.494-1.624.565-2.896.07-1.272.07-1.696.07-4.946s0-3.674-.07-4.946c-.07-1.271-.283-2.12-.565-2.896a5.093 5.093 0 0 0-1.413-2.12c-.707-.636-1.343-1.06-2.12-1.413-.777-.283-1.625-.494-2.896-.565-1.272-.07-1.696-.07-4.946-.07Z" fill="#fff"/><path d="M16.75 10.641a6.332 6.332 0 0 0-6.359 6.36 6.332 6.332 0 0 0 6.359 6.358A6.332 6.332 0 0 0 23.109 17a6.332 6.332 0 0 0-6.359-6.359Zm0 10.598A4.252 4.252 0 0 1 12.51 17a4.252 4.252 0 0 1 4.24-4.239 4.252 4.252 0 0 1 4.24 4.24 4.252 4.252 0 0 1-4.24 4.238Zm6.359-9.185a1.413 1.413 0 1 0 0-2.826 1.413 1.413 0 0 0 0 2.826Z" fill="#fff"/><defs><radialGradient id="a" cx="0" cy="0" r="1" gradientUnits="userSpaceOnUse" gradientTransform="matrix(31.66518 -37.6636 24.87998 20.91751 7.218 39.818)"><stop offset=".073" stop-color="#EACC7B"/><stop offset=".184" stop-color="#ECAA59"/><stop offset=".307" stop-color="#EF802E"/><stop offset=".358" stop-color="#EF6D3A"/><stop offset=".46" stop-color="#F04B50"/><stop offset=".516" stop-color="#F03E58"/><stop offset=".689" stop-color="#DB359E"/><stop offset=".724" stop-color="#CE37A4"/><stop offset=".789" stop-color="#AC3CB4"/><stop offset=".877" stop-color="#7544CF"/><stop offset=".98" stop-color="#2B4FF2"/></radialGradient></defs></svg>