<svg width="34" height="26" fill="none" xmlns="http://www.w3.org/2000/svg"><path d="M3.754.133c-.862 0-1.689.304-2.298.846-.61.542-.952 1.277-.952 2.043v7.054c0 .767.342 1.502.952 2.043.61.542 1.436.846 2.298.846H5.21c1.687 0 3.072 1.373 2.852 3.045-.201 1.075-.54 2.031-1.007 2.866-.471.838-1.076 1.494-1.817 1.973-.2.145-.413.27-.641.377-1.122.52-2.18 1.431-2.18 2.668s1.01 2.268 2.228 2.053a9.704 9.704 0 0 0 2.712-.889 10.44 10.44 0 0 0 3.526-2.866A13.426 13.426 0 0 0 12.9 17.98c.415-1.646.617-3.328.605-5.015V3.022c0-.766-.343-1.501-.952-2.043-.61-.542-1.436-.846-2.298-.846h-6.5Zm19.5 0c-.862 0-1.69.304-2.299.846s-.951 1.277-.951 2.043v7.054c0 .767.342 1.502.951 2.043.61.542 1.437.846 2.299.846h1.457c1.686 0 3.072 1.373 2.852 3.045-.202 1.075-.54 2.031-1.008 2.866-.47.838-1.075 1.494-1.816 1.973a3.8 3.8 0 0 1-.642.377c-1.122.52-2.18 1.431-2.18 2.668s1.012 2.268 2.23 2.053a9.704 9.704 0 0 0 2.71-.889 10.441 10.441 0 0 0 3.527-2.866 13.429 13.429 0 0 0 2.015-4.212c.414-1.646.617-3.328.604-5.015V3.022c0-.766-.342-1.501-.952-2.043-.609-.542-1.436-.846-2.298-.846h-6.5Z" fill="#6B3FA0" fill-opacity=".1"/></svg>