<svg width="13" height="10" fill="none" xmlns="http://www.w3.org/2000/svg"><path d="M2.844 8.969a.406.406 0 1 1-.813 0V1.825l-.93.931a.407.407 0 1 1-.576-.575L2.15.557l.006-.006a.405.405 0 0 1 .568.005L4.35 2.181a.406.406 0 0 1-.574.575l-.931-.931v7.144Zm3.25-7.719a.406.406 0 1 1 0-.812h.812a.406.406 0 1 1 0 .812h-.812Zm0 2.438a.406.406 0 1 1 0-.813H8.53a.406.406 0 1 1 0 .813H6.094Zm0 2.437a.406.406 0 1 1 0-.812h4.062a.406.406 0 1 1 0 .812H6.094Zm-.406 2.031a.406.406 0 0 0 .406.407h5.687a.406.406 0 1 0 0-.813H6.094a.406.406 0 0 0-.406.406Z" fill="#152536"/></svg>