<svg width="33" height="34" fill="none" xmlns="http://www.w3.org/2000/svg"><path d="M16.25.75a16.25 16.25 0 1 0 0 32.5 16.25 16.25 0 0 0 0-32.5Z" fill="#03A9F4"/><path d="M26 11.41c-.717.318-1.624.616-2.438.715.828-.49 2.14-1.513 2.438-2.437-.773.454-2.17.939-3.082 1.114-.728-.771-1.766-1.114-2.917-1.114-2.21 0-3.751 1.872-3.751 4.062v1.625c-3.25 0-6.419-2.476-8.39-4.875a3.911 3.911 0 0 0-.543 1.996c0 1.478 1.358 2.978 2.433 3.692-.656-.02-1.897-.521-2.438-.813v.046c0 1.924 1.35 3.23 3.179 3.593-.334.092-.741.424-2.307.424.508 1.572 3.065 2.403 4.816 2.437-1.37 1.062-3.812 1.625-5.688 1.625-.324 0-.5.018-.812-.019 1.77 1.122 4.241 1.644 6.5 1.644 7.359 0 11.375-5.62 11.375-10.863a31 31 0 0 0-.015-.918c.787-.554 1.105-1.134 1.64-1.934Z" fill="#fff"/></svg>