<svg width="39" height="39" fill="none" xmlns="http://www.w3.org/2000/svg"><g clip-path="url(#a)"><path d="M19.5 39C30.27 39 39 30.27 39 19.5S30.27 0 19.5 0 0 8.73 0 19.5 8.73 39 19.5 39Z" fill="#039"/><mask id="b" style="mask-type:alpha" maskUnits="userSpaceOnUse" x="0" y="-1" width="39" height="40"><path d="M19.5 39C30.27 39 39 30.27 39 19.5S30.27 0 19.5 0 0 8.73 0 19.5 8.73 39 19.5 39Z" fill="#fff"/></mask><g mask="url(#b)" fill-rule="evenodd" clip-rule="evenodd"><path d="m.663 25.872 33.775-19.5 3.9 6.755-33.775 19.5-3.9-6.755Z" fill="#fff"/><path d="m.663 13.127 33.775 19.5 3.9-6.755-33.775-19.5-3.9 6.755Z" fill="#fff"/><path d="M19.5 21.188 1.15 10.594l.975-1.689L20.475 19.5H19.5v1.688Z" fill="#CF1E2B"/><path d="m19.675 19.238 18.35-10.594-.975-1.689L18.7 17.55h.975v1.69Zm-.175.392L1.15 30.224l.975 1.689 18.35-10.594H19.5v-1.69Zm3.1 0 18.35 10.594-.975 1.689-18.35-10.594h.975v-1.69Z" fill="#CF1E2B"/><path d="M26.325 0h-13.65v12.675H0v13.65h12.675v12.674h13.65V26.324H39v-13.65H26.325V0Z" fill="#fff"/><path d="M23.4 0h-7.8v15.6H0v7.8h15.6V39h7.8V23.4H39v-7.8H23.4V0Z" fill="#CF1E2B"/></g></g><defs><clipPath id="a"><path fill="#fff" d="M0 0h39v39H0z"/></clipPath></defs></svg>