<svg width="33" height="34" fill="none" xmlns="http://www.w3.org/2000/svg"><path d="M32.5 17c0 8.975-7.275 16.25-16.25 16.25S0 25.975 0 17 7.275.75 16.25.75 32.5 8.025 32.5 17Z" fill="#fff"/><path d="M25.95 22.027a2.532 2.532 0 0 1-2.127 2.032 52.591 52.591 0 0 1-7.598.558c-3.09 0-5.876-.304-7.599-.558A2.532 2.532 0 0 1 6.5 22.027c-.203-1.168-.405-2.894-.405-5.027s.202-3.86.405-5.027A2.532 2.532 0 0 1 8.626 9.94a52.59 52.59 0 0 1 7.599-.558c3.14 0 5.876.305 7.598.559a2.532 2.532 0 0 1 2.127 2.03c.203 1.169.456 2.895.456 5.028-.05 2.133-.253 3.86-.456 5.027Z" fill="#FF3D00"/><path d="M14.198 20.555v-7.11L20.277 17l-6.079 3.555Z" fill="#fff"/></svg>